<svg width="337" height="336" viewBox="0 0 337 336" fill="none" xmlns="http://www.w3.org/2000/svg">
<rect width="336" height="336" transform="translate(0.5)" fill="white"/>
<g clip-path="url(#clip0_74_1411)">
<path d="M192.099 187.315H222.796V199.802H177.284V135.681H192.099V187.315Z" fill="#6B6C6B"/>
<path d="M255.371 175.357H267.435V186.577C265.22 187.422 260.877 188.266 256.756 188.266C243.416 188.266 238.979 181.494 238.979 167.74C238.979 154.614 243.202 146.89 256.53 146.89C263.959 146.89 268.173 149.22 271.669 153.665L280.885 145.198C275.255 137.172 265.434 134.74 256.209 134.74C235.475 134.732 224.572 146.042 224.572 167.63C224.572 189.111 234.425 200.756 256.1 200.756C266.053 200.756 275.782 198.223 281.077 194.51V163.399H255.371V175.357Z" fill="#6B6C6B"/>
<path d="M140.559 203.065C159.924 183.701 159.923 152.304 140.557 132.939C121.192 113.574 89.7954 113.573 70.4312 132.937C51.067 152.301 51.0678 183.698 70.4332 203.063C89.7985 222.428 121.195 222.429 140.559 203.065Z" fill="#A50034"/>
<path d="M117.626 185.136H107.492V147.062H103.745V188.894H107.5V188.869H117.634L117.626 185.136Z" fill="white"/>
<path d="M142.899 169.575H117.683V165.84H146.596C146.635 166.563 146.655 167.287 146.655 168.019C146.655 190.51 128.324 208.74 105.717 208.74C83.1101 208.74 64.7764 190.519 64.7764 168.016C64.7764 145.513 83.1045 127.295 105.714 127.295C106.311 127.295 106.905 127.307 107.496 127.332V131.039C106.905 131.013 106.313 130.999 105.72 130.999C85.1706 130.999 68.5062 147.574 68.5062 168.016C68.5062 188.458 85.1678 205.035 105.72 205.035C125.706 205.035 142.032 189.353 142.897 169.68L142.899 169.575Z" fill="white"/>
<path d="M90.4511 158.333C91.5818 158.328 92.6854 157.987 93.6228 157.355C94.5602 156.723 95.2893 155.827 95.7182 154.781C96.147 153.735 96.2563 152.585 96.0323 151.477C95.8084 150.369 95.2611 149.351 94.4597 148.554C93.6582 147.756 92.6385 147.214 91.5291 146.996C90.4198 146.777 89.2706 146.892 88.2265 147.326C87.1824 147.76 86.2903 148.493 85.6627 149.434C85.0351 150.374 84.7002 151.48 84.7002 152.61C84.702 153.364 84.8523 154.109 85.1423 154.805C85.4323 155.5 85.8564 156.131 86.3904 156.663C86.9245 157.194 87.5579 157.615 88.2547 157.902C88.9514 158.188 89.6978 158.335 90.4511 158.333Z" fill="white"/>
</g>
<defs>
<clipPath id="clip0_74_1411">
<rect width="225.176" height="99.1705" fill="white" transform="translate(55.9121 118.414)"/>
</clipPath>
</defs>
</svg>
