<svg width="308" height="311" viewBox="0 0 308 311" fill="none" xmlns="http://www.w3.org/2000/svg">
<path d="M54 24.5C54 10.969 64.969 0 78.5 0H229.5C243.031 0 254 10.969 254 24.5C254 38.031 243.031 49 229.5 49H78.5C64.969 49 54 38.031 54 24.5Z" fill="#FF1C1B"/>
<path d="M116.423 29.452V31H108.629V18.904H116.243V20.47H110.519V23.926H116.045V25.456H110.519V29.452H116.423ZM120.264 22.972C120.684 22.696 121.104 22.486 121.524 22.342C121.956 22.186 122.412 22.108 122.892 22.108C123.468 22.108 123.936 22.192 124.296 22.36C124.668 22.516 124.956 22.786 125.16 23.17C125.568 22.846 126.012 22.588 126.492 22.396C126.972 22.204 127.482 22.108 128.022 22.108C129.03 22.108 129.732 22.36 130.128 22.864C130.524 23.356 130.722 24.136 130.722 25.204V31H128.85V25.6C128.85 24.868 128.754 24.358 128.562 24.07C128.37 23.77 128.046 23.62 127.59 23.62C127.266 23.62 126.93 23.686 126.582 23.818C126.246 23.95 125.904 24.136 125.556 24.376C125.592 24.616 125.61 24.892 125.61 25.204V31H123.756V25.6C123.756 24.868 123.666 24.358 123.486 24.07C123.306 23.77 122.97 23.62 122.478 23.62C122.142 23.62 121.812 23.68 121.488 23.8C121.176 23.92 120.846 24.1 120.498 24.34V31H118.626V22.288H120.03L120.264 22.972ZM132.556 26.644C132.556 25.06 132.886 23.908 133.546 23.188C134.218 22.468 135.262 22.108 136.678 22.108C138.094 22.108 139.132 22.474 139.792 23.206C140.464 23.938 140.8 25.084 140.8 26.644C140.8 28.228 140.464 29.38 139.792 30.1C139.132 30.82 138.094 31.18 136.678 31.18C135.262 31.18 134.218 30.82 133.546 30.1C132.886 29.38 132.556 28.228 132.556 26.644ZM134.41 26.644C134.41 27.664 134.584 28.426 134.932 28.93C135.292 29.422 135.874 29.668 136.678 29.668C137.482 29.668 138.058 29.422 138.406 28.93C138.754 28.426 138.928 27.664 138.928 26.644C138.928 25.624 138.754 24.868 138.406 24.376C138.058 23.884 137.482 23.638 136.678 23.638C135.874 23.638 135.292 23.884 134.932 24.376C134.584 24.868 134.41 25.624 134.41 26.644ZM145.016 23.818V27.796C145.016 28.492 145.112 28.978 145.304 29.254C145.496 29.53 145.868 29.668 146.42 29.668C146.696 29.668 146.972 29.626 147.248 29.542C147.536 29.458 147.806 29.362 148.058 29.254L148.418 30.64C148.034 30.82 147.626 30.952 147.194 31.036C146.762 31.132 146.336 31.18 145.916 31.18C145.388 31.18 144.944 31.114 144.584 30.982C144.236 30.85 143.954 30.658 143.738 30.406C143.534 30.142 143.384 29.824 143.288 29.452C143.204 29.08 143.162 28.648 143.162 28.156V23.818H141.74V22.288H143.162V20.542L145.016 20.2V22.288H148.094V23.818H145.016ZM150.165 22.288H152.037V31H150.165V22.288ZM150.165 18.544H152.037V20.506H150.165V18.544ZM154.177 26.644C154.177 25.06 154.507 23.908 155.167 23.188C155.839 22.468 156.883 22.108 158.299 22.108C159.715 22.108 160.753 22.474 161.413 23.206C162.085 23.938 162.421 25.084 162.421 26.644C162.421 28.228 162.085 29.38 161.413 30.1C160.753 30.82 159.715 31.18 158.299 31.18C156.883 31.18 155.839 30.82 155.167 30.1C154.507 29.38 154.177 28.228 154.177 26.644ZM156.031 26.644C156.031 27.664 156.205 28.426 156.553 28.93C156.913 29.422 157.495 29.668 158.299 29.668C159.103 29.668 159.679 29.422 160.027 28.93C160.375 28.426 160.549 27.664 160.549 26.644C160.549 25.624 160.375 24.868 160.027 24.376C159.679 23.884 159.103 23.638 158.299 23.638C157.495 23.638 156.913 23.884 156.553 24.376C156.205 24.868 156.031 25.624 156.031 26.644ZM166.038 23.08C166.422 22.78 166.848 22.546 167.316 22.378C167.784 22.198 168.288 22.108 168.828 22.108C169.848 22.108 170.586 22.354 171.042 22.846C171.51 23.338 171.744 24.124 171.744 25.204V31H169.872V25.6C169.872 24.88 169.746 24.37 169.494 24.07C169.254 23.77 168.894 23.62 168.414 23.62C168.03 23.62 167.658 23.686 167.298 23.818C166.95 23.938 166.596 24.118 166.236 24.358V31H164.364V22.288H165.768L166.038 23.08ZM180.73 31H179.344L179.074 30.28C178.738 30.556 178.342 30.778 177.886 30.946C177.442 31.102 176.95 31.18 176.41 31.18C175.438 31.18 174.718 30.946 174.25 30.478C173.782 29.998 173.548 29.308 173.548 28.408C173.548 27.496 173.842 26.818 174.43 26.374C175.018 25.93 175.978 25.708 177.31 25.708C177.586 25.708 177.85 25.714 178.102 25.726C178.354 25.738 178.606 25.756 178.858 25.78V25.474C178.858 24.79 178.72 24.31 178.444 24.034C178.18 23.758 177.7 23.62 177.004 23.62C176.62 23.62 176.206 23.68 175.762 23.8C175.33 23.908 174.886 24.082 174.43 24.322L173.872 22.99C174.388 22.714 174.922 22.498 175.474 22.342C176.038 22.186 176.626 22.108 177.238 22.108C177.886 22.108 178.432 22.168 178.876 22.288C179.332 22.408 179.692 22.612 179.956 22.9C180.232 23.176 180.43 23.536 180.55 23.98C180.67 24.424 180.73 24.97 180.73 25.618V31ZM176.86 29.686C177.172 29.686 177.514 29.614 177.886 29.47C178.258 29.326 178.582 29.14 178.858 28.912V27.238C178.618 27.214 178.366 27.196 178.102 27.184C177.838 27.16 177.544 27.148 177.22 27.148C176.56 27.148 176.092 27.244 175.816 27.436C175.552 27.616 175.42 27.928 175.42 28.372C175.42 29.248 175.9 29.686 176.86 29.686ZM184.996 18.292V28.66C184.996 29.068 185.05 29.332 185.158 29.452C185.266 29.56 185.482 29.614 185.806 29.614V31.126C185.698 31.15 185.608 31.162 185.536 31.162C185.464 31.174 185.356 31.18 185.212 31.18C184.516 31.18 183.994 30.988 183.646 30.604C183.31 30.208 183.142 29.56 183.142 28.66V18.508L184.996 18.292ZM189.619 18.292V28.66C189.619 29.068 189.673 29.332 189.781 29.452C189.889 29.56 190.105 29.614 190.429 29.614V31.126C190.321 31.15 190.231 31.162 190.159 31.162C190.087 31.174 189.979 31.18 189.835 31.18C189.139 31.18 188.617 30.988 188.269 30.604C187.933 30.208 187.765 29.56 187.765 28.66V18.508L189.619 18.292ZM191.29 22.288H193.234L195.412 28.516H195.466L197.59 22.288H199.516L195.988 31.972C195.784 32.512 195.568 32.968 195.34 33.34C195.112 33.724 194.854 34.03 194.566 34.258C194.278 34.498 193.948 34.666 193.576 34.762C193.204 34.87 192.778 34.924 192.298 34.924C192.118 34.924 191.938 34.906 191.758 34.87C191.578 34.846 191.416 34.81 191.272 34.762C191.332 34.522 191.38 34.276 191.416 34.024C191.464 33.784 191.512 33.538 191.56 33.286C191.824 33.37 192.112 33.412 192.424 33.412C192.796 33.412 193.12 33.298 193.396 33.07C193.684 32.842 193.9 32.548 194.044 32.188L194.62 30.766L191.29 22.288Z" fill="white"/>
<path d="M6.17532 107.368L13.6233 138.28L21.0713 107.368H26.1113L33.5593 138.28L41.0073 107.368H46.3833L36.3593 145H30.7593L23.5913 117.168L16.4233 145H10.8233L0.799318 107.368H6.17532ZM73.6299 137.216C71.8379 142.648 67.0219 145.672 61.1419 145.672C53.4699 145.672 47.3659 140.128 47.3659 131.392C47.3659 122.712 53.4699 117.112 60.8619 117.112C67.5259 117.112 74.2459 121.76 74.2459 131.392V132.904H52.4619C52.8539 139.064 55.7099 141.136 61.1419 141.136C65.3419 141.136 67.4139 140.128 68.5899 137.216H73.6299ZM52.5179 128.984H69.2619C68.7579 123.552 66.0139 121.648 60.8619 121.648C55.9339 121.648 53.1339 123.496 52.5179 128.984ZM107.144 117.84L112.408 139.344L117.336 117.84H122.32L115.32 145H110.056L105.072 124.896L100.032 145H94.7682L87.7682 117.84H92.7522L97.6802 139.344L102.944 117.84H107.144ZM138.326 121.536C133.342 121.536 131.046 123.384 131.046 128.536V145H126.062V117.84H130.374L130.822 121.592C132.446 118.792 135.19 117.112 139.39 117.112H140.678V121.536H138.326ZM145.098 112.8V107.368H150.138V112.8H145.098ZM145.098 145V117.84H150.138V145H145.098ZM154.293 117.84H158.605V110.728H163.645V117.84H170.309V122.264H163.645V138.448C163.645 140.24 164.317 140.632 166.165 140.632H170.309V145H165.605C161.909 145 158.605 143.32 158.605 138.952V122.264H154.293V117.84ZM198.24 137.216C196.448 142.648 191.632 145.672 185.752 145.672C178.08 145.672 171.976 140.128 171.976 131.392C171.976 122.712 178.08 117.112 185.472 117.112C192.136 117.112 198.856 121.76 198.856 131.392V132.904H177.072C177.464 139.064 180.32 141.136 185.752 141.136C189.952 141.136 192.024 140.128 193.2 137.216H198.24ZM177.128 128.984H193.872C193.368 123.552 190.624 121.648 185.472 121.648C180.544 121.648 177.744 123.496 177.128 128.984ZM231.754 117.84L237.018 139.344L241.946 117.84H246.93L239.93 145H234.666L229.682 124.896L224.642 145H219.378L212.378 117.84H217.362L222.29 139.344L227.554 117.84H231.754ZM250.671 112.8V107.368H255.711V112.8H250.671ZM250.671 145V117.84H255.711V145H250.671ZM259.866 117.84H264.178V110.728H269.218V117.84H275.882V122.264H269.218V138.448C269.218 140.24 269.89 140.632 271.738 140.632H275.882V145H271.178C267.482 145 264.178 143.32 264.178 138.952V122.264H259.866V117.84ZM285.306 145H280.322V107.368H285.306V121.144C287.154 118.624 290.122 117.112 294.042 117.112C300.762 117.112 304.85 121.872 304.85 128.928V145H299.866V128.536C299.866 123.608 297.682 121.648 292.698 121.648C287.658 121.648 285.306 123.608 285.306 128.536V145Z" fill="#262626"/>
<path d="M83.7148 205.784C76.3788 205.784 70.7228 199.904 70.7228 191.28C70.7228 182.768 76.3788 176.944 83.7148 176.944C87.1868 176.944 90.0428 178.176 92.1148 180.416V177.672H98.3308V205H92.8988L92.4508 201.864C90.3788 204.384 87.4108 205.784 83.7148 205.784ZM76.8828 191.28C76.8828 197.776 79.2348 200.296 84.6108 200.296C90.0428 200.296 92.3948 197.776 92.3948 191.28C92.3948 184.896 90.0428 182.376 84.6108 182.376C79.2348 182.376 76.8828 184.896 76.8828 191.28ZM132.017 197.552C132.017 195.648 130.841 194.864 128.041 194.192L123.393 193.128C117.961 191.84 115.161 189.6 115.161 184.896C115.161 180.024 120.257 176.944 126.305 176.944C132.353 176.944 137.169 180.024 137.953 185.568H131.849C131.457 183.048 129.777 182.152 126.305 182.152C122.889 182.152 121.321 183.104 121.321 184.896C121.321 186.408 122.049 187.192 124.905 187.864L129.721 189.096C135.265 190.44 138.121 192.456 138.121 197.384C138.121 202.872 132.801 205.784 126.473 205.784C120.593 205.784 115.161 203.04 114.265 196.488H120.369C120.929 199.736 122.721 200.52 126.473 200.52C130.113 200.52 132.017 199.568 132.017 197.552ZM148.687 205H142.583V177.672H147.903L148.295 180.696C149.919 178.288 152.215 176.944 155.463 176.944C159.215 176.944 161.791 178.96 163.191 181.928C164.815 178.792 167.391 176.944 171.143 176.944C176.967 176.944 180.047 181.312 180.047 188.088V205H173.943V187.528C173.943 184.112 172.767 182.376 169.183 182.376C165.655 182.376 164.367 184.112 164.367 187.528V187.696V205H158.263V187.528C158.263 184.112 157.087 182.376 153.503 182.376C149.975 182.376 148.687 184.112 148.687 187.528V205ZM185.9 173.472V167.368H192.116V173.472H185.9ZM185.9 205V177.672H192.116V205H185.9ZM205.266 205.56C200.954 205.56 198.21 203.824 198.21 199.176V167.368H204.426V198.112C204.426 199.904 204.986 200.296 206.61 200.296H207.674V205.56H205.266ZM236.543 197.048C234.695 202.536 229.599 205.784 223.551 205.784C215.655 205.784 209.551 200.016 209.551 191.28C209.551 182.656 215.655 176.944 223.383 176.944C230.271 176.944 237.047 181.704 237.047 191.392V193.128H215.767C216.215 198.56 218.567 200.296 223.551 200.296C227.359 200.296 229.207 199.4 230.327 197.048H236.543ZM215.879 188.536H230.943C230.439 184.112 228.199 182.376 223.383 182.376C218.847 182.376 216.495 183.944 215.879 188.536Z" fill="#FF1C1B"/>
<path d="M19.5299 274.22C17.3739 274.22 15.7972 273.589 14.7999 272.328C13.8172 271.067 13.3259 269.16 13.3259 266.608C13.3259 263.997 13.8319 262.076 14.8439 260.844C15.8706 259.612 17.4326 258.996 19.5299 258.996C21.6419 258.996 23.2039 259.612 24.2159 260.844C25.2279 262.076 25.7339 263.997 25.7339 266.608C25.7339 269.219 25.2206 271.14 24.1939 272.372C23.1672 273.604 21.6126 274.22 19.5299 274.22ZM24.0399 266.608C24.0399 264.452 23.6659 262.89 22.9179 261.922C22.1846 260.939 21.0552 260.448 19.5299 260.448C17.9899 260.448 16.8532 260.939 16.1199 261.922C15.3866 262.89 15.0199 264.452 15.0199 266.608C15.0199 268.779 15.3866 270.355 16.1199 271.338C16.8532 272.306 17.9899 272.79 19.5299 272.79C21.0552 272.79 22.1846 272.306 22.9179 271.338C23.6659 270.355 24.0399 268.779 24.0399 266.608ZM35.3912 272.944C34.8925 273.34 34.3425 273.655 33.7412 273.89C33.1399 274.11 32.5092 274.22 31.8492 274.22C30.6172 274.22 29.7299 273.927 29.1872 273.34C28.6445 272.753 28.3732 271.793 28.3732 270.458V263.352H30.0672V269.996C30.0672 271.052 30.2359 271.785 30.5732 272.196C30.9252 272.607 31.4605 272.812 32.1792 272.812C33.2059 272.812 34.2252 272.438 35.2372 271.69V263.352H36.9312V274H35.6552L35.3912 272.944ZM41.3628 263.352L41.5608 264.76C42.0448 264.232 42.5875 263.829 43.1888 263.55C43.7902 263.271 44.3988 263.132 45.0148 263.132C45.2642 263.132 45.4768 263.154 45.6528 263.198C45.8435 263.227 46.0415 263.279 46.2468 263.352V264.848C45.8068 264.672 45.3448 264.584 44.8608 264.584C44.3035 264.584 43.7462 264.738 43.1888 265.046C42.6315 265.354 42.1548 265.743 41.7588 266.212V274H40.0868V263.352H41.3628ZM60.9755 263.352L62.6695 269.358L63.3735 271.998H63.4175L63.9675 269.358L65.3535 263.352H67.0255L64.2095 274H62.5815L61.3055 269.358L60.2275 265.464H60.1835L59.1275 269.358L57.8295 274H56.2235L53.3855 263.352H55.0795L56.4435 269.358L57.0155 271.998H57.0595L57.7415 269.358L59.4355 263.352H60.9755ZM70.33 263.352L70.528 264.76C71.012 264.232 71.5546 263.829 72.156 263.55C72.7573 263.271 73.366 263.132 73.982 263.132C74.2313 263.132 74.444 263.154 74.62 263.198C74.8106 263.227 75.0086 263.279 75.214 263.352V264.848C74.774 264.672 74.312 264.584 73.828 264.584C73.2706 264.584 72.7133 264.738 72.156 265.046C71.5986 265.354 71.122 265.743 70.726 266.212V274H69.054V263.352H70.33ZM77.1828 263.352H78.8548V274H77.1828V263.352ZM77.1608 258.776H78.8548V260.976H77.1608V258.776ZM84.604 264.782V270.04C84.604 270.524 84.626 270.942 84.67 271.294C84.714 271.646 84.802 271.939 84.934 272.174C85.0807 272.394 85.2787 272.555 85.528 272.658C85.792 272.761 86.144 272.812 86.584 272.812C86.9067 272.812 87.222 272.775 87.53 272.702C87.8527 272.629 88.1607 272.541 88.454 272.438L88.784 273.714C87.904 274.051 87.0167 274.22 86.122 274.22C85.4767 274.22 84.9413 274.132 84.516 273.956C84.1053 273.78 83.7753 273.538 83.526 273.23C83.2913 272.907 83.13 272.526 83.042 272.086C82.954 271.631 82.91 271.133 82.91 270.59V264.782H81.172V263.352H82.91V261.108L84.604 260.8V263.352H88.366V264.782H84.604ZM91.1303 263.352H92.8023V274H91.1303V263.352ZM91.1083 258.776H92.8023V260.976H91.1083V258.776ZM97.7155 264.43C98.2142 264.034 98.7642 263.719 99.3655 263.484C99.9668 263.249 100.597 263.132 101.257 263.132C102.489 263.132 103.369 263.433 103.897 264.034C104.44 264.621 104.711 265.581 104.711 266.916V274H103.039V267.378C103.039 266.322 102.863 265.589 102.511 265.178C102.174 264.767 101.646 264.562 100.927 264.562C99.9008 264.562 98.8742 264.936 97.8475 265.684V274H96.1755V263.352H97.4295L97.7155 264.43ZM116.162 263.352V274.132C116.162 275.76 115.766 276.941 114.974 277.674C114.197 278.422 113.031 278.796 111.476 278.796C110.86 278.796 110.273 278.745 109.716 278.642C109.159 278.554 108.667 278.429 108.242 278.268L108.594 276.882C109.43 277.205 110.383 277.366 111.454 277.366C112.51 277.366 113.273 277.124 113.742 276.64C114.226 276.156 114.468 275.364 114.468 274.264V273.164C114.101 273.501 113.654 273.765 113.126 273.956C112.613 274.132 112.048 274.22 111.432 274.22C110.053 274.22 109.005 273.773 108.286 272.878C107.582 271.983 107.23 270.583 107.23 268.676C107.23 266.784 107.597 265.391 108.33 264.496C109.063 263.587 110.156 263.132 111.608 263.132C112.224 263.132 112.789 263.235 113.302 263.44C113.815 263.645 114.263 263.924 114.644 264.276L114.908 263.352H116.162ZM111.872 264.54C110.86 264.54 110.112 264.863 109.628 265.508C109.159 266.153 108.924 267.209 108.924 268.676C108.924 270.157 109.159 271.221 109.628 271.866C110.112 272.511 110.86 272.834 111.872 272.834C112.385 272.834 112.862 272.731 113.302 272.526C113.757 272.321 114.145 272.042 114.468 271.69V265.684C114.145 265.332 113.757 265.053 113.302 264.848C112.862 264.643 112.385 264.54 111.872 264.54ZM125.814 263.352H127.486V274H125.814V263.352ZM125.792 258.776H127.486V260.976H125.792V258.776ZM133.434 267.4C133.771 267.532 134.189 267.679 134.688 267.84C135.201 268.001 135.707 268.177 136.206 268.368C137.628 268.896 138.34 269.842 138.34 271.206C138.34 272.174 138.002 272.922 137.328 273.45C136.653 273.978 135.568 274.242 134.072 274.242C133.236 274.242 132.524 274.147 131.938 273.956C131.351 273.765 130.823 273.538 130.354 273.274L130.904 271.954C131.329 272.203 131.813 272.416 132.356 272.592C132.898 272.768 133.478 272.856 134.094 272.856C135.032 272.856 135.692 272.731 136.074 272.482C136.455 272.218 136.646 271.822 136.646 271.294C136.646 270.59 136.228 270.069 135.392 269.732C134.922 269.541 134.431 269.365 133.918 269.204C133.419 269.043 132.942 268.881 132.488 268.72C131.901 268.515 131.432 268.199 131.08 267.774C130.742 267.334 130.574 266.762 130.574 266.058C130.574 265.207 130.904 264.503 131.564 263.946C132.238 263.389 133.243 263.11 134.578 263.11C135.282 263.11 135.912 263.183 136.47 263.33C137.027 263.462 137.496 263.623 137.878 263.814L137.372 265.09C136.946 264.885 136.521 264.738 136.096 264.65C135.67 264.547 135.15 264.496 134.534 264.496C134.094 264.496 133.727 264.54 133.434 264.628C133.14 264.716 132.906 264.833 132.73 264.98C132.568 265.112 132.451 265.266 132.378 265.442C132.304 265.618 132.268 265.794 132.268 265.97C132.268 266.322 132.356 266.608 132.532 266.828C132.708 267.048 133.008 267.239 133.434 267.4ZM153.199 263.352V264.782H149.393V274H147.721V264.782H146.093V263.352H147.699V262.494C147.699 261.746 147.779 261.115 147.941 260.602C148.117 260.089 148.366 259.678 148.689 259.37C149.011 259.047 149.4 258.82 149.855 258.688C150.324 258.541 150.859 258.468 151.461 258.468C151.871 258.468 152.26 258.512 152.627 258.6C152.993 258.673 153.331 258.769 153.639 258.886L153.265 260.25C152.649 260.015 152.04 259.898 151.439 259.898C150.735 259.898 150.214 260.118 149.877 260.558C149.554 260.998 149.393 261.731 149.393 262.758V263.352H153.199ZM161.836 272.944C161.338 273.34 160.788 273.655 160.186 273.89C159.585 274.11 158.954 274.22 158.294 274.22C157.062 274.22 156.175 273.927 155.632 273.34C155.09 272.753 154.818 271.793 154.818 270.458V263.352H156.512V269.996C156.512 271.052 156.681 271.785 157.018 272.196C157.37 272.607 157.906 272.812 158.624 272.812C159.651 272.812 160.67 272.438 161.682 271.69V263.352H163.376V274H162.1L161.836 272.944ZM169.502 274.154C169.429 274.183 169.326 274.198 169.194 274.198C169.062 274.213 168.952 274.22 168.864 274.22C168.116 274.22 167.573 274 167.236 273.56C166.913 273.105 166.752 272.416 166.752 271.492V258.732L168.424 258.468V271.25C168.424 271.587 168.439 271.859 168.468 272.064C168.497 272.269 168.549 272.431 168.622 272.548C168.71 272.665 168.82 272.746 168.952 272.79C169.099 272.819 169.282 272.834 169.502 272.834V274.154ZM174.918 274.154C174.845 274.183 174.742 274.198 174.61 274.198C174.478 274.213 174.368 274.22 174.28 274.22C173.532 274.22 172.989 274 172.652 273.56C172.329 273.105 172.168 272.416 172.168 271.492V258.732L173.84 258.468V271.25C173.84 271.587 173.855 271.859 173.884 272.064C173.913 272.269 173.965 272.431 174.038 272.548C174.126 272.665 174.236 272.746 174.368 272.79C174.515 272.819 174.698 272.834 174.918 272.834V274.154ZM183.112 268.676C183.112 266.769 183.493 265.369 184.256 264.474C185.033 263.579 186.265 263.132 187.952 263.132C189.624 263.132 190.841 263.579 191.604 264.474C192.381 265.369 192.77 266.769 192.77 268.676C192.77 270.583 192.381 271.983 191.604 272.878C190.827 273.773 189.609 274.22 187.952 274.22C186.28 274.22 185.055 273.773 184.278 272.878C183.501 271.983 183.112 270.583 183.112 268.676ZM184.806 268.676C184.806 270.128 185.055 271.184 185.554 271.844C186.053 272.489 186.852 272.812 187.952 272.812C189.052 272.812 189.851 272.489 190.35 271.844C190.849 271.184 191.098 270.128 191.098 268.676C191.098 267.253 190.849 266.212 190.35 265.552C189.851 264.892 189.052 264.562 187.952 264.562C186.852 264.562 186.053 264.892 185.554 265.552C185.055 266.212 184.806 267.253 184.806 268.676ZM201.336 263.352V264.782H197.53V274H195.858V264.782H194.23V263.352H195.836V262.494C195.836 261.746 195.917 261.115 196.078 260.602C196.254 260.089 196.504 259.678 196.826 259.37C197.149 259.047 197.538 258.82 197.992 258.688C198.462 258.541 198.997 258.468 199.598 258.468C200.009 258.468 200.398 258.512 200.764 258.6C201.131 258.673 201.468 258.769 201.776 258.886L201.402 260.25C200.786 260.015 200.178 259.898 199.576 259.898C198.872 259.898 198.352 260.118 198.014 260.558C197.692 260.998 197.53 261.731 197.53 262.758V263.352H201.336ZM213.588 274.22C211.857 274.22 210.625 273.773 209.892 272.878C209.173 271.969 208.814 270.568 208.814 268.676C208.814 266.769 209.18 265.369 209.914 264.474C210.647 263.579 211.769 263.132 213.28 263.132C214.79 263.132 215.912 263.572 216.646 264.452C217.379 265.317 217.746 266.696 217.746 268.588V269.292H210.53C210.588 270.553 210.86 271.455 211.344 271.998C211.828 272.541 212.583 272.812 213.61 272.812C214.226 272.812 214.827 272.724 215.414 272.548C216.015 272.357 216.572 272.101 217.086 271.778L217.636 273.12C217.078 273.457 216.448 273.729 215.744 273.934C215.054 274.125 214.336 274.22 213.588 274.22ZM216.03 267.928C215.956 266.784 215.7 265.941 215.26 265.398C214.82 264.841 214.16 264.562 213.28 264.562C212.4 264.562 211.74 264.841 211.3 265.398C210.86 265.941 210.603 266.784 210.53 267.928H216.03ZM221.926 264.342C222.439 263.961 222.967 263.667 223.51 263.462C224.052 263.242 224.632 263.132 225.248 263.132C225.996 263.132 226.59 263.242 227.03 263.462C227.484 263.682 227.822 264.049 228.042 264.562C228.555 264.137 229.112 263.792 229.714 263.528C230.33 263.264 230.968 263.132 231.628 263.132C232.244 263.132 232.757 263.205 233.168 263.352C233.578 263.484 233.908 263.704 234.158 264.012C234.422 264.32 234.605 264.716 234.708 265.2C234.81 265.669 234.862 266.241 234.862 266.916V274H233.19V267.378C233.19 266.322 233.043 265.589 232.75 265.178C232.471 264.767 231.994 264.562 231.32 264.562C230.352 264.562 229.376 264.958 228.394 265.75C228.438 266.087 228.46 266.476 228.46 266.916V274H226.788V267.378C226.788 266.337 226.656 265.611 226.392 265.2C226.128 264.775 225.636 264.562 224.918 264.562C224.434 264.562 223.964 264.657 223.51 264.848C223.055 265.024 222.578 265.303 222.08 265.684V274H220.408V263.352H221.662L221.926 264.342ZM237.37 268.676C237.37 266.769 237.752 265.369 238.514 264.474C239.292 263.579 240.524 263.132 242.21 263.132C243.882 263.132 245.1 263.579 245.862 264.474C246.64 265.369 247.028 266.769 247.028 268.676C247.028 270.583 246.64 271.983 245.862 272.878C245.085 273.773 243.868 274.22 242.21 274.22C240.538 274.22 239.314 273.773 238.536 272.878C237.759 271.983 237.37 270.583 237.37 268.676ZM239.064 268.676C239.064 270.128 239.314 271.184 239.812 271.844C240.311 272.489 241.11 272.812 242.21 272.812C243.31 272.812 244.11 272.489 244.608 271.844C245.107 271.184 245.356 270.128 245.356 268.676C245.356 267.253 245.107 266.212 244.608 265.552C244.11 264.892 243.31 264.562 242.21 264.562C241.11 264.562 240.311 264.892 239.812 265.552C239.314 266.212 239.064 267.253 239.064 268.676ZM251.792 264.782V270.04C251.792 270.524 251.814 270.942 251.858 271.294C251.902 271.646 251.99 271.939 252.122 272.174C252.268 272.394 252.466 272.555 252.716 272.658C252.98 272.761 253.332 272.812 253.772 272.812C254.094 272.812 254.41 272.775 254.718 272.702C255.04 272.629 255.348 272.541 255.642 272.438L255.972 273.714C255.092 274.051 254.204 274.22 253.31 274.22C252.664 274.22 252.129 274.132 251.704 273.956C251.293 273.78 250.963 273.538 250.714 273.23C250.479 272.907 250.318 272.526 250.23 272.086C250.142 271.631 250.098 271.133 250.098 270.59V264.782H248.36V263.352H250.098V261.108L251.792 260.8V263.352H255.554V264.782H251.792ZM258.318 263.352H259.99V274H258.318V263.352ZM258.296 258.776H259.99V260.976H258.296V258.776ZM262.857 268.676C262.857 266.769 263.238 265.369 264.001 264.474C264.778 263.579 266.01 263.132 267.697 263.132C269.369 263.132 270.586 263.579 271.349 264.474C272.126 265.369 272.515 266.769 272.515 268.676C272.515 270.583 272.126 271.983 271.349 272.878C270.572 273.773 269.354 274.22 267.697 274.22C266.025 274.22 264.8 273.773 264.023 272.878C263.246 271.983 262.857 270.583 262.857 268.676ZM264.551 268.676C264.551 270.128 264.8 271.184 265.299 271.844C265.798 272.489 266.597 272.812 267.697 272.812C268.797 272.812 269.596 272.489 270.095 271.844C270.594 271.184 270.843 270.128 270.843 268.676C270.843 267.253 270.594 266.212 270.095 265.552C269.596 264.892 268.797 264.562 267.697 264.562C266.597 264.562 265.798 264.892 265.299 265.552C264.8 266.212 264.551 267.253 264.551 268.676ZM276.7 264.43C277.199 264.034 277.749 263.719 278.35 263.484C278.951 263.249 279.582 263.132 280.242 263.132C281.474 263.132 282.354 263.433 282.882 264.034C283.425 264.621 283.696 265.581 283.696 266.916V274H282.024V267.378C282.024 266.322 281.848 265.589 281.496 265.178C281.159 264.767 280.631 264.562 279.912 264.562C278.885 264.562 277.859 264.936 276.832 265.684V274H275.16V263.352H276.414L276.7 264.43ZM285.467 276.86C285.819 276.185 286.09 275.518 286.281 274.858C286.471 274.198 286.567 273.45 286.567 272.614H288.217C288.217 273.142 288.18 273.626 288.107 274.066C288.033 274.521 287.931 274.939 287.799 275.32C287.667 275.716 287.505 276.09 287.315 276.442C287.124 276.809 286.904 277.175 286.655 277.542L285.467 276.86ZM58.2705 293.352L59.9645 299.358L60.6685 301.998H60.7125L61.2625 299.358L62.6485 293.352H64.3205L61.5045 304H59.8765L58.6005 299.358L57.5225 295.464H57.4785L56.4225 299.358L55.1245 304H53.5185L50.6805 293.352H52.3745L53.7385 299.358L54.3105 301.998H54.3545L55.0365 299.358L56.7305 293.352H58.2705ZM73.8352 304H72.5812L72.3172 303.01C71.8772 303.391 71.3565 303.692 70.7552 303.912C70.1685 304.117 69.5232 304.22 68.8192 304.22C67.7192 304.22 66.8905 303.941 66.3332 303.384C65.7905 302.812 65.5192 301.998 65.5192 300.942C65.5192 299.857 65.8565 299.057 66.5312 298.544C67.2058 298.016 68.3352 297.752 69.9192 297.752C70.3885 297.752 70.7992 297.759 71.1512 297.774C71.5178 297.789 71.8552 297.818 72.1632 297.862V297.268C72.1632 296.285 71.9725 295.589 71.5912 295.178C71.2098 294.753 70.5352 294.54 69.5672 294.54C69.1125 294.54 68.6138 294.621 68.0712 294.782C67.5432 294.929 67.0078 295.149 66.4652 295.442L65.9592 294.166C66.5458 293.843 67.1692 293.594 67.8292 293.418C68.4892 293.227 69.1712 293.132 69.8752 293.132C70.6232 293.132 71.2465 293.205 71.7452 293.352C72.2585 293.499 72.6692 293.741 72.9772 294.078C73.2852 294.401 73.5052 294.819 73.6372 295.332C73.7692 295.845 73.8352 296.476 73.8352 297.224V304ZM69.2812 302.834C69.7652 302.834 70.2638 302.731 70.7772 302.526C71.3052 302.306 71.7672 302.02 72.1632 301.668V299.226C71.7818 299.182 71.4005 299.153 71.0192 299.138C70.6378 299.109 70.2125 299.094 69.7432 299.094C68.8192 299.094 68.1592 299.233 67.7632 299.512C67.3818 299.791 67.1912 300.26 67.1912 300.92C67.1912 301.551 67.3525 302.027 67.6752 302.35C67.9978 302.673 68.5332 302.834 69.2812 302.834ZM78.1329 293.352L78.3309 294.76C78.8149 294.232 79.3576 293.829 79.9589 293.55C80.5602 293.271 81.1689 293.132 81.7849 293.132C82.0342 293.132 82.2469 293.154 82.4229 293.198C82.6136 293.227 82.8116 293.279 83.0169 293.352V294.848C82.5769 294.672 82.1149 294.584 81.6309 294.584C81.0736 294.584 80.5162 294.738 79.9589 295.046C79.4016 295.354 78.9249 295.743 78.5289 296.212V304H76.8569V293.352H78.1329ZM86.5196 294.342C87.0329 293.961 87.5609 293.667 88.1036 293.462C88.6462 293.242 89.2256 293.132 89.8416 293.132C90.5896 293.132 91.1836 293.242 91.6236 293.462C92.0782 293.682 92.4156 294.049 92.6356 294.562C93.1489 294.137 93.7062 293.792 94.3076 293.528C94.9236 293.264 95.5616 293.132 96.2216 293.132C96.8376 293.132 97.3509 293.205 97.7616 293.352C98.1722 293.484 98.5022 293.704 98.7516 294.012C99.0156 294.32 99.1989 294.716 99.3016 295.2C99.4042 295.669 99.4556 296.241 99.4556 296.916V304H97.7836V297.378C97.7836 296.322 97.6369 295.589 97.3436 295.178C97.0649 294.767 96.5882 294.562 95.9136 294.562C94.9456 294.562 93.9702 294.958 92.9876 295.75C93.0316 296.087 93.0536 296.476 93.0536 296.916V304H91.3816V297.378C91.3816 296.337 91.2496 295.611 90.9856 295.2C90.7216 294.775 90.2302 294.562 89.5116 294.562C89.0276 294.562 88.5582 294.657 88.1036 294.848C87.6489 295.024 87.1722 295.303 86.6736 295.684V304H85.0016V293.352H86.2556L86.5196 294.342ZM104.846 294.782V300.04C104.846 300.524 104.868 300.942 104.912 301.294C104.956 301.646 105.044 301.939 105.176 302.174C105.323 302.394 105.521 302.555 105.77 302.658C106.034 302.761 106.386 302.812 106.826 302.812C107.149 302.812 107.464 302.775 107.772 302.702C108.095 302.629 108.403 302.541 108.696 302.438L109.026 303.714C108.146 304.051 107.259 304.22 106.364 304.22C105.719 304.22 105.184 304.132 104.758 303.956C104.348 303.78 104.018 303.538 103.768 303.23C103.534 302.907 103.372 302.526 103.284 302.086C103.196 301.631 103.152 301.133 103.152 300.59V294.782H101.414V293.352H103.152V291.108L104.846 290.8V293.352H108.608V294.782H104.846ZM112.803 294.32C113.815 293.528 114.951 293.132 116.213 293.132C117.445 293.132 118.325 293.425 118.853 294.012C119.395 294.584 119.667 295.552 119.667 296.916V304H117.995V297.378C117.995 296.322 117.819 295.589 117.467 295.178C117.129 294.767 116.601 294.562 115.883 294.562C114.856 294.562 113.829 294.936 112.803 295.684V304H111.131V288.688L112.803 288.468V294.32ZM136.689 304H135.435L135.171 303.01C134.731 303.391 134.211 303.692 133.609 303.912C133.023 304.117 132.377 304.22 131.673 304.22C130.573 304.22 129.745 303.941 129.187 303.384C128.645 302.812 128.373 301.998 128.373 300.942C128.373 299.857 128.711 299.057 129.385 298.544C130.06 298.016 131.189 297.752 132.773 297.752C133.243 297.752 133.653 297.759 134.005 297.774C134.372 297.789 134.709 297.818 135.017 297.862V297.268C135.017 296.285 134.827 295.589 134.445 295.178C134.064 294.753 133.389 294.54 132.421 294.54C131.967 294.54 131.468 294.621 130.925 294.782C130.397 294.929 129.862 295.149 129.319 295.442L128.813 294.166C129.4 293.843 130.023 293.594 130.683 293.418C131.343 293.227 132.025 293.132 132.729 293.132C133.477 293.132 134.101 293.205 134.599 293.352C135.113 293.499 135.523 293.741 135.831 294.078C136.139 294.401 136.359 294.819 136.491 295.332C136.623 295.845 136.689 296.476 136.689 297.224V304ZM132.135 302.834C132.619 302.834 133.118 302.731 133.631 302.526C134.159 302.306 134.621 302.02 135.017 301.668V299.226C134.636 299.182 134.255 299.153 133.873 299.138C133.492 299.109 133.067 299.094 132.597 299.094C131.673 299.094 131.013 299.233 130.617 299.512C130.236 299.791 130.045 300.26 130.045 300.92C130.045 301.551 130.207 302.027 130.529 302.35C130.852 302.673 131.387 302.834 132.135 302.834ZM141.251 294.43C141.75 294.034 142.3 293.719 142.901 293.484C143.502 293.249 144.133 293.132 144.793 293.132C146.025 293.132 146.905 293.433 147.433 294.034C147.976 294.621 148.247 295.581 148.247 296.916V304H146.575V297.378C146.575 296.322 146.399 295.589 146.047 295.178C145.71 294.767 145.182 294.562 144.463 294.562C143.436 294.562 142.41 294.936 141.383 295.684V304H139.711V293.352H140.965L141.251 294.43ZM159.698 288.468V304H158.444L158.18 303.098C157.798 303.45 157.351 303.729 156.838 303.934C156.324 304.125 155.76 304.22 155.144 304.22C153.692 304.22 152.599 303.773 151.866 302.878C151.132 301.983 150.766 300.583 150.766 298.676C150.766 296.784 151.118 295.391 151.822 294.496C152.54 293.587 153.589 293.132 154.968 293.132C155.584 293.132 156.148 293.227 156.662 293.418C157.19 293.609 157.637 293.873 158.004 294.21V288.688L159.698 288.468ZM155.408 302.834C155.921 302.834 156.398 302.731 156.838 302.526C157.292 302.321 157.681 302.042 158.004 301.69V295.684C157.681 295.332 157.292 295.053 156.838 294.848C156.398 294.643 155.921 294.54 155.408 294.54C154.396 294.54 153.648 294.863 153.164 295.508C152.694 296.153 152.46 297.209 152.46 298.676C152.46 300.157 152.694 301.221 153.164 301.866C153.648 302.511 154.396 302.834 155.408 302.834ZM170.362 293.352L170.648 294.276C171.029 293.924 171.469 293.645 171.968 293.44C172.481 293.235 173.046 293.132 173.662 293.132C175.114 293.132 176.207 293.587 176.94 294.496C177.673 295.391 178.04 296.784 178.04 298.676C178.04 300.583 177.681 301.983 176.962 302.878C176.258 303.773 175.217 304.22 173.838 304.22C173.251 304.22 172.687 304.132 172.144 303.956C171.601 303.765 171.154 303.501 170.802 303.164V308.576H169.108V293.352H170.362ZM173.398 294.54C172.885 294.54 172.401 294.643 171.946 294.848C171.506 295.053 171.125 295.332 170.802 295.684V301.69C171.125 302.042 171.506 302.321 171.946 302.526C172.401 302.731 172.885 302.834 173.398 302.834C174.41 302.834 175.158 302.511 175.642 301.866C176.126 301.221 176.368 300.157 176.368 298.676C176.368 297.209 176.126 296.153 175.642 295.508C175.158 294.863 174.41 294.54 173.398 294.54ZM180.184 298.676C180.184 296.769 180.565 295.369 181.328 294.474C182.105 293.579 183.337 293.132 185.024 293.132C186.696 293.132 187.913 293.579 188.676 294.474C189.453 295.369 189.842 296.769 189.842 298.676C189.842 300.583 189.453 301.983 188.676 302.878C187.899 303.773 186.681 304.22 185.024 304.22C183.352 304.22 182.127 303.773 181.35 302.878C180.573 301.983 180.184 300.583 180.184 298.676ZM181.878 298.676C181.878 300.128 182.127 301.184 182.626 301.844C183.125 302.489 183.924 302.812 185.024 302.812C186.124 302.812 186.923 302.489 187.422 301.844C187.921 301.184 188.17 300.128 188.17 298.676C188.17 297.253 187.921 296.212 187.422 295.552C186.923 294.892 186.124 294.562 185.024 294.562C183.924 294.562 183.125 294.892 182.626 295.552C182.127 296.212 181.878 297.253 181.878 298.676ZM195.061 297.4C195.398 297.532 195.816 297.679 196.315 297.84C196.828 298.001 197.334 298.177 197.833 298.368C199.256 298.896 199.967 299.842 199.967 301.206C199.967 302.174 199.63 302.922 198.955 303.45C198.28 303.978 197.195 304.242 195.699 304.242C194.863 304.242 194.152 304.147 193.565 303.956C192.978 303.765 192.45 303.538 191.981 303.274L192.531 301.954C192.956 302.203 193.44 302.416 193.983 302.592C194.526 302.768 195.105 302.856 195.721 302.856C196.66 302.856 197.32 302.731 197.701 302.482C198.082 302.218 198.273 301.822 198.273 301.294C198.273 300.59 197.855 300.069 197.019 299.732C196.55 299.541 196.058 299.365 195.545 299.204C195.046 299.043 194.57 298.881 194.115 298.72C193.528 298.515 193.059 298.199 192.707 297.774C192.37 297.334 192.201 296.762 192.201 296.058C192.201 295.207 192.531 294.503 193.191 293.946C193.866 293.389 194.87 293.11 196.205 293.11C196.909 293.11 197.54 293.183 198.097 293.33C198.654 293.462 199.124 293.623 199.505 293.814L198.999 295.09C198.574 294.885 198.148 294.738 197.723 294.65C197.298 294.547 196.777 294.496 196.161 294.496C195.721 294.496 195.354 294.54 195.061 294.628C194.768 294.716 194.533 294.833 194.357 294.98C194.196 295.112 194.078 295.266 194.005 295.442C193.932 295.618 193.895 295.794 193.895 295.97C193.895 296.322 193.983 296.608 194.159 296.828C194.335 297.048 194.636 297.239 195.061 297.4ZM202.764 293.352H204.436V304H202.764V293.352ZM202.742 288.776H204.436V290.976H202.742V288.776ZM210.186 294.782V300.04C210.186 300.524 210.208 300.942 210.252 301.294C210.296 301.646 210.384 301.939 210.516 302.174C210.662 302.394 210.86 302.555 211.11 302.658C211.374 302.761 211.726 302.812 212.166 302.812C212.488 302.812 212.804 302.775 213.112 302.702C213.434 302.629 213.742 302.541 214.036 302.438L214.366 303.714C213.486 304.051 212.598 304.22 211.704 304.22C211.058 304.22 210.523 304.132 210.098 303.956C209.687 303.78 209.357 303.538 209.108 303.23C208.873 302.907 208.712 302.526 208.624 302.086C208.536 301.631 208.492 301.133 208.492 300.59V294.782H206.754V293.352H208.492V291.108L210.186 290.8V293.352H213.948V294.782H210.186ZM216.712 293.352H218.384V304H216.712V293.352ZM216.69 288.776H218.384V290.976H216.69V288.776ZM225.409 302.064L226.553 298.632L228.423 293.352H230.205L226.201 304H224.595L220.569 293.352H222.351L224.221 298.632L225.365 302.064H225.409ZM232.399 293.352H234.071V304H232.399V293.352ZM232.377 288.776H234.071V290.976H232.377V288.776ZM239.821 294.782V300.04C239.821 300.524 239.843 300.942 239.887 301.294C239.931 301.646 240.019 301.939 240.151 302.174C240.297 302.394 240.495 302.555 240.745 302.658C241.009 302.761 241.361 302.812 241.801 302.812C242.123 302.812 242.439 302.775 242.747 302.702C243.069 302.629 243.377 302.541 243.671 302.438L244.001 303.714C243.121 304.051 242.233 304.22 241.339 304.22C240.693 304.22 240.158 304.132 239.733 303.956C239.322 303.78 238.992 303.538 238.743 303.23C238.508 302.907 238.347 302.526 238.259 302.086C238.171 301.631 238.127 301.133 238.127 300.59V294.782H236.389V293.352H238.127V291.108L239.821 290.8V293.352H243.583V294.782H239.821ZM245.024 293.352H246.784L249.864 301.69H249.93L252.812 293.352H254.55L250.238 305.364C250.018 306.009 249.776 306.545 249.512 306.97C249.248 307.41 248.948 307.762 248.61 308.026C248.288 308.305 247.914 308.503 247.488 308.62C247.078 308.737 246.601 308.796 246.058 308.796C245.648 308.796 245.325 308.752 245.09 308.664L245.332 307.278C245.567 307.337 245.853 307.366 246.19 307.366C246.498 307.366 246.77 307.315 247.004 307.212C247.254 307.109 247.466 306.977 247.642 306.816C247.833 306.655 247.994 306.471 248.126 306.266C248.258 306.061 248.368 305.848 248.456 305.628L249.116 303.868L245.024 293.352ZM256.502 304.352H254.544V302.482H256.502V304.352Z" fill="#4A4946"/>
</svg>
