<svg width="308" height="311" viewBox="0 0 308 311" fill="none" xmlns="http://www.w3.org/2000/svg">
<path d="M54 24.5C54 10.969 64.969 0 78.5 0H229.5C243.031 0 254 10.969 254 24.5C254 38.031 243.031 49 229.5 49H78.5C64.969 49 54 38.031 54 24.5Z" fill="#262626"/>
<path d="M114.593 18.904H116.483V31H114.593V18.904ZM120.915 23.08C121.299 22.78 121.725 22.546 122.193 22.378C122.661 22.198 123.165 22.108 123.705 22.108C124.725 22.108 125.463 22.354 125.919 22.846C126.387 23.338 126.621 24.124 126.621 25.204V31H124.749V25.6C124.749 24.88 124.623 24.37 124.371 24.07C124.131 23.77 123.771 23.62 123.291 23.62C122.907 23.62 122.535 23.686 122.175 23.818C121.827 23.938 121.473 24.118 121.113 24.358V31H119.241V22.288H120.645L120.915 23.08ZM131.323 23.818V27.796C131.323 28.492 131.419 28.978 131.611 29.254C131.803 29.53 132.175 29.668 132.727 29.668C133.003 29.668 133.279 29.626 133.555 29.542C133.843 29.458 134.113 29.362 134.365 29.254L134.725 30.64C134.341 30.82 133.933 30.952 133.501 31.036C133.069 31.132 132.643 31.18 132.223 31.18C131.695 31.18 131.251 31.114 130.891 30.982C130.543 30.85 130.261 30.658 130.045 30.406C129.841 30.142 129.691 29.824 129.595 29.452C129.511 29.08 129.469 28.648 129.469 28.156V23.818H128.047V22.288H129.469V20.542L131.323 20.2V22.288H134.401V23.818H131.323ZM139.985 31.18C138.497 31.18 137.423 30.814 136.763 30.082C136.115 29.35 135.791 28.204 135.791 26.644C135.791 25.084 136.103 23.938 136.727 23.206C137.363 22.474 138.335 22.108 139.643 22.108C140.927 22.108 141.887 22.474 142.523 23.206C143.159 23.926 143.477 25.066 143.477 26.626V27.256H137.699C137.759 28.096 137.963 28.708 138.311 29.092C138.671 29.476 139.235 29.668 140.003 29.668C140.507 29.668 140.993 29.596 141.461 29.452C141.929 29.308 142.391 29.098 142.847 28.822L143.387 30.244C142.931 30.52 142.409 30.748 141.821 30.928C141.245 31.096 140.633 31.18 139.985 31.18ZM141.551 25.816C141.491 25.096 141.311 24.556 141.011 24.196C140.711 23.824 140.255 23.638 139.643 23.638C138.443 23.638 137.801 24.364 137.717 25.816H141.551ZM147.449 18.292V28.66C147.449 29.068 147.503 29.332 147.611 29.452C147.719 29.56 147.935 29.614 148.259 29.614V31.126C148.151 31.15 148.061 31.162 147.989 31.162C147.917 31.174 147.809 31.18 147.665 31.18C146.969 31.18 146.447 30.988 146.099 30.604C145.763 30.208 145.595 29.56 145.595 28.66V18.508L147.449 18.292ZM152.072 18.292V28.66C152.072 29.068 152.126 29.332 152.234 29.452C152.342 29.56 152.558 29.614 152.882 29.614V31.126C152.774 31.15 152.684 31.162 152.612 31.162C152.54 31.174 152.432 31.18 152.288 31.18C151.592 31.18 151.07 30.988 150.722 30.604C150.386 30.208 150.218 29.56 150.218 28.66V18.508L152.072 18.292ZM154.841 22.288H156.713V31H154.841V22.288ZM154.841 18.544H156.713V20.506H154.841V18.544ZM166.557 22.288V31.018C166.557 32.386 166.215 33.376 165.531 33.988C164.847 34.612 163.821 34.924 162.453 34.924C161.949 34.924 161.451 34.882 160.959 34.798C160.467 34.714 160.023 34.594 159.627 34.438L160.023 32.98C160.407 33.112 160.803 33.214 161.211 33.286C161.619 33.37 162.021 33.412 162.417 33.412C163.221 33.412 163.797 33.238 164.145 32.89C164.505 32.554 164.685 31.99 164.685 31.198V30.406C164.409 30.646 164.067 30.838 163.659 30.982C163.263 31.114 162.813 31.18 162.309 31.18C161.229 31.18 160.383 30.814 159.771 30.082C159.159 29.35 158.853 28.204 158.853 26.644C158.853 25.084 159.171 23.938 159.807 23.206C160.443 22.474 161.379 22.108 162.615 22.108C163.527 22.108 164.283 22.396 164.883 22.972L165.135 22.288H166.557ZM162.849 23.62C162.129 23.62 161.589 23.854 161.229 24.322C160.881 24.778 160.707 25.552 160.707 26.644C160.707 27.736 160.887 28.516 161.247 28.984C161.607 29.452 162.147 29.686 162.867 29.686C163.215 29.686 163.545 29.626 163.857 29.506C164.169 29.374 164.445 29.194 164.685 28.966V24.322C164.445 24.106 164.169 23.938 163.857 23.818C163.545 23.686 163.209 23.62 162.849 23.62ZM172.697 31.18C171.209 31.18 170.135 30.814 169.475 30.082C168.827 29.35 168.503 28.204 168.503 26.644C168.503 25.084 168.815 23.938 169.439 23.206C170.075 22.474 171.047 22.108 172.355 22.108C173.639 22.108 174.599 22.474 175.235 23.206C175.871 23.926 176.189 25.066 176.189 26.626V27.256H170.411C170.471 28.096 170.675 28.708 171.023 29.092C171.383 29.476 171.947 29.668 172.715 29.668C173.219 29.668 173.705 29.596 174.173 29.452C174.641 29.308 175.103 29.098 175.559 28.822L176.099 30.244C175.643 30.52 175.121 30.748 174.533 30.928C173.957 31.096 173.345 31.18 172.697 31.18ZM174.263 25.816C174.203 25.096 174.023 24.556 173.723 24.196C173.423 23.824 172.967 23.638 172.355 23.638C171.155 23.638 170.513 24.364 170.429 25.816H174.263ZM179.784 23.08C180.168 22.78 180.594 22.546 181.062 22.378C181.53 22.198 182.034 22.108 182.574 22.108C183.594 22.108 184.332 22.354 184.788 22.846C185.256 23.338 185.49 24.124 185.49 25.204V31H183.618V25.6C183.618 24.88 183.492 24.37 183.24 24.07C183 23.77 182.64 23.62 182.16 23.62C181.776 23.62 181.404 23.686 181.044 23.818C180.696 23.938 180.342 24.118 179.982 24.358V31H178.11V22.288H179.514L179.784 23.08ZM190.192 23.818V27.796C190.192 28.492 190.288 28.978 190.48 29.254C190.672 29.53 191.044 29.668 191.596 29.668C191.872 29.668 192.148 29.626 192.424 29.542C192.712 29.458 192.982 29.362 193.234 29.254L193.594 30.64C193.21 30.82 192.802 30.952 192.37 31.036C191.938 31.132 191.512 31.18 191.092 31.18C190.564 31.18 190.12 31.114 189.76 30.982C189.412 30.85 189.13 30.658 188.914 30.406C188.71 30.142 188.56 29.824 188.464 29.452C188.38 29.08 188.338 28.648 188.338 28.156V23.818H186.916V22.288H188.338V20.542L190.192 20.2V22.288H193.27V23.818H190.192Z" fill="white"/>
<path d="M6.17532 107.368L13.6233 138.28L21.0713 107.368H26.1113L33.5593 138.28L41.0073 107.368H46.3833L36.3593 145H30.7593L23.5913 117.168L16.4233 145H10.8233L0.799318 107.368H6.17532ZM73.6299 137.216C71.8379 142.648 67.0219 145.672 61.1419 145.672C53.4699 145.672 47.3659 140.128 47.3659 131.392C47.3659 122.712 53.4699 117.112 60.8619 117.112C67.5259 117.112 74.2459 121.76 74.2459 131.392V132.904H52.4619C52.8539 139.064 55.7099 141.136 61.1419 141.136C65.3419 141.136 67.4139 140.128 68.5899 137.216H73.6299ZM52.5179 128.984H69.2619C68.7579 123.552 66.0139 121.648 60.8619 121.648C55.9339 121.648 53.1339 123.496 52.5179 128.984ZM107.144 117.84L112.408 139.344L117.336 117.84H122.32L115.32 145H110.056L105.072 124.896L100.032 145H94.7682L87.7682 117.84H92.7522L97.6802 139.344L102.944 117.84H107.144ZM138.326 121.536C133.342 121.536 131.046 123.384 131.046 128.536V145H126.062V117.84H130.374L130.822 121.592C132.446 118.792 135.19 117.112 139.39 117.112H140.678V121.536H138.326ZM145.098 112.8V107.368H150.138V112.8H145.098ZM145.098 145V117.84H150.138V145H145.098ZM154.293 117.84H158.605V110.728H163.645V117.84H170.309V122.264H163.645V138.448C163.645 140.24 164.317 140.632 166.165 140.632H170.309V145H165.605C161.909 145 158.605 143.32 158.605 138.952V122.264H154.293V117.84ZM198.24 137.216C196.448 142.648 191.632 145.672 185.752 145.672C178.08 145.672 171.976 140.128 171.976 131.392C171.976 122.712 178.08 117.112 185.472 117.112C192.136 117.112 198.856 121.76 198.856 131.392V132.904H177.072C177.464 139.064 180.32 141.136 185.752 141.136C189.952 141.136 192.024 140.128 193.2 137.216H198.24ZM177.128 128.984H193.872C193.368 123.552 190.624 121.648 185.472 121.648C180.544 121.648 177.744 123.496 177.128 128.984ZM231.754 117.84L237.018 139.344L241.946 117.84H246.93L239.93 145H234.666L229.682 124.896L224.642 145H219.378L212.378 117.84H217.362L222.29 139.344L227.554 117.84H231.754ZM250.671 112.8V107.368H255.711V112.8H250.671ZM250.671 145V117.84H255.711V145H250.671ZM259.866 117.84H264.178V110.728H269.218V117.84H275.882V122.264H269.218V138.448C269.218 140.24 269.89 140.632 271.738 140.632H275.882V145H271.178C267.482 145 264.178 143.32 264.178 138.952V122.264H259.866V117.84ZM285.306 145H280.322V107.368H285.306V121.144C287.154 118.624 290.122 117.112 294.042 117.112C300.762 117.112 304.85 121.872 304.85 128.928V145H299.866V128.536C299.866 123.608 297.682 121.648 292.698 121.648C287.658 121.648 285.306 123.608 285.306 128.536V145Z" fill="#262626"/>
<path d="M75.3038 173.472V167.368H81.5198V173.472H75.3038ZM75.3038 205V177.672H81.5198V205H75.3038ZM106.262 188.48C106.262 184.112 104.47 182.376 100.046 182.376C95.6218 182.376 93.7178 184.112 93.7178 188.48V205H87.6138V177.672H92.9338L93.3818 181.032C95.3418 178.456 98.2538 176.944 102.006 176.944C108.334 176.944 112.422 181.704 112.422 188.592V205H106.262V188.48ZM134.316 197.552C134.316 195.648 133.14 194.864 130.34 194.192L125.692 193.128C120.26 191.84 117.46 189.6 117.46 184.896C117.46 180.024 122.556 176.944 128.604 176.944C134.652 176.944 139.468 180.024 140.252 185.568H134.148C133.756 183.048 132.076 182.152 128.604 182.152C125.188 182.152 123.62 183.104 123.62 184.896C123.62 186.408 124.348 187.192 127.204 187.864L132.02 189.096C137.564 190.44 140.42 192.456 140.42 197.384C140.42 202.872 135.1 205.784 128.772 205.784C122.892 205.784 117.46 203.04 116.564 196.488H122.668C123.228 199.736 125.02 200.52 128.772 200.52C132.412 200.52 134.316 199.568 134.316 197.552ZM144.882 173.472V167.368H151.098V173.472H144.882ZM144.882 205V177.672H151.098V205H144.882ZM168.448 204.776C161.168 204.776 155.512 199.176 155.512 190.776C155.512 182.488 161.168 176.944 168.448 176.944C172.088 176.944 175.056 178.288 177.128 180.696L177.52 177.672H183.008V203.768C182.784 210.936 177.408 215.864 169.512 215.864C162.232 215.864 157.696 212.224 156.184 207.016H162.736C163.8 209.648 165.424 210.712 169.792 210.712C174.384 210.712 176.792 208.528 176.792 204.72V201.416C174.72 203.6 171.864 204.776 168.448 204.776ZM161.672 190.776C161.672 197.048 164.08 199.288 169.344 199.288C174.664 199.288 177.072 197.048 177.072 190.776C177.072 184.616 174.664 182.376 169.344 182.376C164.08 182.376 161.672 184.616 161.672 190.776ZM195.239 205H189.135V167.368H195.239V180.584C197.199 178.288 200.055 176.944 203.695 176.944C210.135 176.944 214.223 181.704 214.223 188.592V205H208.063V188.48C208.063 184.112 206.271 182.376 201.679 182.376C197.143 182.376 195.239 184.112 195.239 188.48V205ZM217.798 177.672H221.942V170.728H228.158V177.672H234.71V183.104H228.158V197.552C228.158 199.344 228.83 199.736 230.678 199.736H234.71V205H230.006C225.694 205 221.942 203.096 221.942 198.112V183.104H217.798V177.672Z" fill="#FD312E"/>
<path d="M50.6056 274.22C48.4496 274.22 46.8729 273.589 45.8756 272.328C44.8929 271.067 44.4016 269.16 44.4016 266.608C44.4016 263.997 44.9076 262.076 45.9196 260.844C46.9463 259.612 48.5083 258.996 50.6056 258.996C52.7176 258.996 54.2796 259.612 55.2916 260.844C56.3036 262.076 56.8096 263.997 56.8096 266.608C56.8096 269.219 56.2963 271.14 55.2696 272.372C54.2429 273.604 52.6883 274.22 50.6056 274.22ZM55.1156 266.608C55.1156 264.452 54.7416 262.89 53.9936 261.922C53.2603 260.939 52.1309 260.448 50.6056 260.448C49.0656 260.448 47.9289 260.939 47.1956 261.922C46.4623 262.89 46.0956 264.452 46.0956 266.608C46.0956 268.779 46.4623 270.355 47.1956 271.338C47.9289 272.306 49.0656 272.79 50.6056 272.79C52.1309 272.79 53.2603 272.306 53.9936 271.338C54.7416 270.355 55.1156 268.779 55.1156 266.608ZM66.4669 272.944C65.9682 273.34 65.4182 273.655 64.8169 273.89C64.2156 274.11 63.5849 274.22 62.9249 274.22C61.6929 274.22 60.8056 273.927 60.2629 273.34C59.7202 272.753 59.4489 271.793 59.4489 270.458V263.352H61.1429V269.996C61.1429 271.052 61.3116 271.785 61.6489 272.196C62.0009 272.607 62.5362 272.812 63.2549 272.812C64.2816 272.812 65.3009 272.438 66.3129 271.69V263.352H68.0069V274H66.7309L66.4669 272.944ZM72.4385 263.352L72.6365 264.76C73.1205 264.232 73.6632 263.829 74.2645 263.55C74.8659 263.271 75.4745 263.132 76.0905 263.132C76.3399 263.132 76.5525 263.154 76.7285 263.198C76.9192 263.227 77.1172 263.279 77.3225 263.352V264.848C76.8825 264.672 76.4205 264.584 75.9365 264.584C75.3792 264.584 74.8219 264.738 74.2645 265.046C73.7072 265.354 73.2305 265.743 72.8345 266.212V274H71.1625V263.352H72.4385ZM92.0512 263.352L93.7452 269.358L94.4492 271.998H94.4932L95.0432 269.358L96.4292 263.352H98.1012L95.2852 274H93.6572L92.3812 269.358L91.3032 265.464H91.2592L90.2032 269.358L88.9052 274H87.2992L84.4612 263.352H86.1552L87.5192 269.358L88.0912 271.998H88.1352L88.8172 269.358L90.5112 263.352H92.0512ZM101.406 263.352L101.604 264.76C102.088 264.232 102.63 263.829 103.232 263.55C103.833 263.271 104.442 263.132 105.058 263.132C105.307 263.132 105.52 263.154 105.696 263.198C105.886 263.227 106.084 263.279 106.29 263.352V264.848C105.85 264.672 105.388 264.584 104.904 264.584C104.346 264.584 103.789 264.738 103.232 265.046C102.674 265.354 102.198 265.743 101.802 266.212V274H100.13V263.352H101.406ZM108.258 263.352H109.93V274H108.258V263.352ZM108.236 258.776H109.93V260.976H108.236V258.776ZM115.68 264.782V270.04C115.68 270.524 115.702 270.942 115.746 271.294C115.79 271.646 115.878 271.939 116.01 272.174C116.156 272.394 116.354 272.555 116.604 272.658C116.868 272.761 117.22 272.812 117.66 272.812C117.982 272.812 118.298 272.775 118.606 272.702C118.928 272.629 119.236 272.541 119.53 272.438L119.86 273.714C118.98 274.051 118.092 274.22 117.198 274.22C116.552 274.22 116.017 274.132 115.592 273.956C115.181 273.78 114.851 273.538 114.602 273.23C114.367 272.907 114.206 272.526 114.118 272.086C114.03 271.631 113.986 271.133 113.986 270.59V264.782H112.248V263.352H113.986V261.108L115.68 260.8V263.352H119.442V264.782H115.68ZM122.206 263.352H123.878V274H122.206V263.352ZM122.184 258.776H123.878V260.976H122.184V258.776ZM128.791 264.43C129.29 264.034 129.84 263.719 130.441 263.484C131.043 263.249 131.673 263.132 132.333 263.132C133.565 263.132 134.445 263.433 134.973 264.034C135.516 264.621 135.787 265.581 135.787 266.916V274H134.115V267.378C134.115 266.322 133.939 265.589 133.587 265.178C133.25 264.767 132.722 264.562 132.003 264.562C130.977 264.562 129.95 264.936 128.923 265.684V274H127.251V263.352H128.505L128.791 264.43ZM147.238 263.352V274.132C147.238 275.76 146.842 276.941 146.05 277.674C145.272 278.422 144.106 278.796 142.552 278.796C141.936 278.796 141.349 278.745 140.792 278.642C140.234 278.554 139.743 278.429 139.318 278.268L139.67 276.882C140.506 277.205 141.459 277.366 142.53 277.366C143.586 277.366 144.348 277.124 144.818 276.64C145.302 276.156 145.544 275.364 145.544 274.264V273.164C145.177 273.501 144.73 273.765 144.202 273.956C143.688 274.132 143.124 274.22 142.508 274.22C141.129 274.22 140.08 273.773 139.362 272.878C138.658 271.983 138.306 270.583 138.306 268.676C138.306 266.784 138.672 265.391 139.406 264.496C140.139 263.587 141.232 263.132 142.684 263.132C143.3 263.132 143.864 263.235 144.378 263.44C144.891 263.645 145.338 263.924 145.72 264.276L145.984 263.352H147.238ZM142.948 264.54C141.936 264.54 141.188 264.863 140.704 265.508C140.234 266.153 140 267.209 140 268.676C140 270.157 140.234 271.221 140.704 271.866C141.188 272.511 141.936 272.834 142.948 272.834C143.461 272.834 143.938 272.731 144.378 272.526C144.832 272.321 145.221 272.042 145.544 271.69V265.684C145.221 265.332 144.832 265.053 144.378 264.848C143.938 264.643 143.461 264.54 142.948 264.54ZM165.074 258.468V274H163.82L163.556 273.098C163.175 273.45 162.727 273.729 162.214 273.934C161.701 274.125 161.136 274.22 160.52 274.22C159.068 274.22 157.975 273.773 157.242 272.878C156.509 271.983 156.142 270.583 156.142 268.676C156.142 266.784 156.494 265.391 157.198 264.496C157.917 263.587 158.965 263.132 160.344 263.132C160.96 263.132 161.525 263.227 162.038 263.418C162.566 263.609 163.013 263.873 163.38 264.21V258.688L165.074 258.468ZM160.784 272.834C161.297 272.834 161.774 272.731 162.214 272.526C162.669 272.321 163.057 272.042 163.38 271.69V265.684C163.057 265.332 162.669 265.053 162.214 264.848C161.774 264.643 161.297 264.54 160.784 264.54C159.772 264.54 159.024 264.863 158.54 265.508C158.071 266.153 157.836 267.209 157.836 268.676C157.836 270.157 158.071 271.221 158.54 271.866C159.024 272.511 159.772 272.834 160.784 272.834ZM169.506 263.352L169.704 264.76C170.188 264.232 170.731 263.829 171.332 263.55C171.933 263.271 172.542 263.132 173.158 263.132C173.407 263.132 173.62 263.154 173.796 263.198C173.987 263.227 174.185 263.279 174.39 263.352V264.848C173.95 264.672 173.488 264.584 173.004 264.584C172.447 264.584 171.889 264.738 171.332 265.046C170.775 265.354 170.298 265.743 169.902 266.212V274H168.23V263.352H169.506ZM183.711 274H182.457L182.193 273.01C181.753 273.391 181.232 273.692 180.631 273.912C180.044 274.117 179.399 274.22 178.695 274.22C177.595 274.22 176.766 273.941 176.209 273.384C175.666 272.812 175.395 271.998 175.395 270.942C175.395 269.857 175.732 269.057 176.407 268.544C177.081 268.016 178.211 267.752 179.795 267.752C180.264 267.752 180.675 267.759 181.027 267.774C181.393 267.789 181.731 267.818 182.039 267.862V267.268C182.039 266.285 181.848 265.589 181.467 265.178C181.085 264.753 180.411 264.54 179.443 264.54C178.988 264.54 178.489 264.621 177.947 264.782C177.419 264.929 176.883 265.149 176.341 265.442L175.835 264.166C176.421 263.843 177.045 263.594 177.705 263.418C178.365 263.227 179.047 263.132 179.751 263.132C180.499 263.132 181.122 263.205 181.621 263.352C182.134 263.499 182.545 263.741 182.853 264.078C183.161 264.401 183.381 264.819 183.513 265.332C183.645 265.845 183.711 266.476 183.711 267.224V274ZM179.157 272.834C179.641 272.834 180.139 272.731 180.653 272.526C181.181 272.306 181.643 272.02 182.039 271.668V269.226C181.657 269.182 181.276 269.153 180.895 269.138C180.513 269.109 180.088 269.094 179.619 269.094C178.695 269.094 178.035 269.233 177.639 269.512C177.257 269.791 177.067 270.26 177.067 270.92C177.067 271.551 177.228 272.027 177.551 272.35C177.873 272.673 178.409 272.834 179.157 272.834ZM188.25 264.342C188.764 263.961 189.292 263.667 189.834 263.462C190.377 263.242 190.956 263.132 191.572 263.132C192.32 263.132 192.914 263.242 193.354 263.462C193.809 263.682 194.146 264.049 194.366 264.562C194.88 264.137 195.437 263.792 196.038 263.528C196.654 263.264 197.292 263.132 197.952 263.132C198.568 263.132 199.082 263.205 199.492 263.352C199.903 263.484 200.233 263.704 200.482 264.012C200.746 264.32 200.93 264.716 201.032 265.2C201.135 265.669 201.186 266.241 201.186 266.916V274H199.514V267.378C199.514 266.322 199.368 265.589 199.074 265.178C198.796 264.767 198.319 264.562 197.644 264.562C196.676 264.562 195.701 264.958 194.718 265.75C194.762 266.087 194.784 266.476 194.784 266.916V274H193.112V267.378C193.112 266.337 192.98 265.611 192.716 265.2C192.452 264.775 191.961 264.562 191.242 264.562C190.758 264.562 190.289 264.657 189.834 264.848C189.38 265.024 188.903 265.303 188.404 265.684V274H186.732V263.352H187.986L188.25 264.342ZM211.945 274H210.691L210.427 273.01C209.987 273.391 209.467 273.692 208.865 273.912C208.279 274.117 207.633 274.22 206.929 274.22C205.829 274.22 205 273.941 204.443 273.384C203.9 272.812 203.629 271.998 203.629 270.942C203.629 269.857 203.966 269.057 204.641 268.544C205.316 268.016 206.445 267.752 208.029 267.752C208.499 267.752 208.909 267.759 209.261 267.774C209.628 267.789 209.965 267.818 210.273 267.862V267.268C210.273 266.285 210.083 265.589 209.701 265.178C209.32 264.753 208.645 264.54 207.677 264.54C207.223 264.54 206.724 264.621 206.181 264.782C205.653 264.929 205.118 265.149 204.575 265.442L204.069 264.166C204.656 263.843 205.279 263.594 205.939 263.418C206.599 263.227 207.281 263.132 207.985 263.132C208.733 263.132 209.357 263.205 209.855 263.352C210.369 263.499 210.779 263.741 211.087 264.078C211.395 264.401 211.615 264.819 211.747 265.332C211.879 265.845 211.945 266.476 211.945 267.224V274ZM207.391 272.834C207.875 272.834 208.374 272.731 208.887 272.526C209.415 272.306 209.877 272.02 210.273 271.668V269.226C209.892 269.182 209.511 269.153 209.129 269.138C208.748 269.109 208.323 269.094 207.853 269.094C206.929 269.094 206.269 269.233 205.873 269.512C205.492 269.791 205.301 270.26 205.301 270.92C205.301 271.551 205.462 272.027 205.785 272.35C206.108 272.673 206.643 272.834 207.391 272.834ZM217.343 264.782V270.04C217.343 270.524 217.365 270.942 217.409 271.294C217.453 271.646 217.541 271.939 217.673 272.174C217.82 272.394 218.018 272.555 218.267 272.658C218.531 272.761 218.883 272.812 219.323 272.812C219.646 272.812 219.961 272.775 220.269 272.702C220.592 272.629 220.9 272.541 221.193 272.438L221.523 273.714C220.643 274.051 219.756 274.22 218.861 274.22C218.216 274.22 217.68 274.132 217.255 273.956C216.844 273.78 216.514 273.538 216.265 273.23C216.03 272.907 215.869 272.526 215.781 272.086C215.693 271.631 215.649 271.133 215.649 270.59V264.782H213.911V263.352H215.649V261.108L217.343 260.8V263.352H221.105V264.782H217.343ZM223.869 263.352H225.541V274H223.869V263.352ZM223.847 258.776H225.541V260.976H223.847V258.776ZM236.812 264.562L230.322 272.592H236.878V274H228.122V272.856L234.634 264.782H228.43V263.352H236.812V264.562ZM243.239 274.22C241.508 274.22 240.276 273.773 239.543 272.878C238.824 271.969 238.465 270.568 238.465 268.676C238.465 266.769 238.832 265.369 239.565 264.474C240.298 263.579 241.42 263.132 242.931 263.132C244.442 263.132 245.564 263.572 246.297 264.452C247.03 265.317 247.397 266.696 247.397 268.588V269.292H240.181C240.24 270.553 240.511 271.455 240.995 271.998C241.479 272.541 242.234 272.812 243.261 272.812C243.877 272.812 244.478 272.724 245.065 272.548C245.666 272.357 246.224 272.101 246.737 271.778L247.287 273.12C246.73 273.457 246.099 273.729 245.395 273.934C244.706 274.125 243.987 274.22 243.239 274.22ZM245.681 267.928C245.608 266.784 245.351 265.941 244.911 265.398C244.471 264.841 243.811 264.562 242.931 264.562C242.051 264.562 241.391 264.841 240.951 265.398C240.511 265.941 240.254 266.784 240.181 267.928H245.681ZM252.633 267.4C252.97 267.532 253.388 267.679 253.887 267.84C254.4 268.001 254.906 268.177 255.405 268.368C256.828 268.896 257.539 269.842 257.539 271.206C257.539 272.174 257.202 272.922 256.527 273.45C255.852 273.978 254.767 274.242 253.271 274.242C252.435 274.242 251.724 274.147 251.137 273.956C250.55 273.765 250.022 273.538 249.553 273.274L250.103 271.954C250.528 272.203 251.012 272.416 251.555 272.592C252.098 272.768 252.677 272.856 253.293 272.856C254.232 272.856 254.892 272.731 255.273 272.482C255.654 272.218 255.845 271.822 255.845 271.294C255.845 270.59 255.427 270.069 254.591 269.732C254.122 269.541 253.63 269.365 253.117 269.204C252.618 269.043 252.142 268.881 251.687 268.72C251.1 268.515 250.631 268.199 250.279 267.774C249.942 267.334 249.773 266.762 249.773 266.058C249.773 265.207 250.103 264.503 250.763 263.946C251.438 263.389 252.442 263.11 253.777 263.11C254.481 263.11 255.112 263.183 255.669 263.33C256.226 263.462 256.696 263.623 257.077 263.814L256.571 265.09C256.146 264.885 255.72 264.738 255.295 264.65C254.87 264.547 254.349 264.496 253.733 264.496C253.293 264.496 252.926 264.54 252.633 264.628C252.34 264.716 252.105 264.833 251.929 264.98C251.768 265.112 251.65 265.266 251.577 265.442C251.504 265.618 251.467 265.794 251.467 265.97C251.467 266.322 251.555 266.608 251.731 266.828C251.907 267.048 252.208 267.239 252.633 267.4ZM5.14904 294.782V300.04C5.14904 300.524 5.17104 300.942 5.21504 301.294C5.25904 301.646 5.34704 301.939 5.47904 302.174C5.6257 302.394 5.8237 302.555 6.07304 302.658C6.33704 302.761 6.68904 302.812 7.12904 302.812C7.4517 302.812 7.76704 302.775 8.07504 302.702C8.3977 302.629 8.7057 302.541 8.99904 302.438L9.32904 303.714C8.44904 304.051 7.5617 304.22 6.66704 304.22C6.0217 304.22 5.48637 304.132 5.06104 303.956C4.65037 303.78 4.32037 303.538 4.07104 303.23C3.83637 302.907 3.67504 302.526 3.58704 302.086C3.49904 301.631 3.45504 301.133 3.45504 300.59V294.782H1.71704V293.352H3.45504V291.108L5.14904 290.8V293.352H8.91104V294.782H5.14904ZM13.1053 294.32C14.1173 293.528 15.254 293.132 16.5153 293.132C17.7473 293.132 18.6273 293.425 19.1553 294.012C19.698 294.584 19.9693 295.552 19.9693 296.916V304H18.2973V297.378C18.2973 296.322 18.1213 295.589 17.7693 295.178C17.432 294.767 16.904 294.562 16.1853 294.562C15.1586 294.562 14.132 294.936 13.1053 295.684V304H11.4333V288.688L13.1053 288.468V294.32ZM27.262 304.22C25.5313 304.22 24.2993 303.773 23.566 302.878C22.8473 301.969 22.488 300.568 22.488 298.676C22.488 296.769 22.8546 295.369 23.588 294.474C24.3213 293.579 25.4433 293.132 26.954 293.132C28.4646 293.132 29.5866 293.572 30.32 294.452C31.0533 295.317 31.42 296.696 31.42 298.588V299.292H24.204C24.2626 300.553 24.534 301.455 25.018 301.998C25.502 302.541 26.2573 302.812 27.284 302.812C27.9 302.812 28.5013 302.724 29.088 302.548C29.6893 302.357 30.2466 302.101 30.76 301.778L31.31 303.12C30.7526 303.457 30.122 303.729 29.418 303.934C28.7286 304.125 28.01 304.22 27.262 304.22ZM29.704 297.928C29.6306 296.784 29.374 295.941 28.934 295.398C28.494 294.841 27.834 294.562 26.954 294.562C26.074 294.562 25.414 294.841 24.974 295.398C24.534 295.941 24.2773 296.784 24.204 297.928H29.704ZM48.762 288.468V304H47.508L47.244 303.098C46.8626 303.45 46.4153 303.729 45.902 303.934C45.3886 304.125 44.824 304.22 44.208 304.22C42.756 304.22 41.6633 303.773 40.93 302.878C40.1966 301.983 39.83 300.583 39.83 298.676C39.83 296.784 40.182 295.391 40.886 294.496C41.6046 293.587 42.6533 293.132 44.032 293.132C44.648 293.132 45.2126 293.227 45.726 293.418C46.254 293.609 46.7013 293.873 47.068 294.21V288.688L48.762 288.468ZM44.472 302.834C44.9853 302.834 45.462 302.731 45.902 302.526C46.3566 302.321 46.7453 302.042 47.068 301.69V295.684C46.7453 295.332 46.3566 295.053 45.902 294.848C45.462 294.643 44.9853 294.54 44.472 294.54C43.46 294.54 42.712 294.863 42.228 295.508C41.7586 296.153 41.524 297.209 41.524 298.676C41.524 300.157 41.7586 301.221 42.228 301.866C42.712 302.511 43.46 302.834 44.472 302.834ZM56.1861 304.22C54.4554 304.22 53.2234 303.773 52.4901 302.878C51.7714 301.969 51.4121 300.568 51.4121 298.676C51.4121 296.769 51.7788 295.369 52.5121 294.474C53.2454 293.579 54.3674 293.132 55.8781 293.132C57.3888 293.132 58.5108 293.572 59.2441 294.452C59.9774 295.317 60.3441 296.696 60.3441 298.588V299.292H53.1281C53.1868 300.553 53.4581 301.455 53.9421 301.998C54.4261 302.541 55.1814 302.812 56.2081 302.812C56.8241 302.812 57.4254 302.724 58.0121 302.548C58.6134 302.357 59.1708 302.101 59.6841 301.778L60.2341 303.12C59.6768 303.457 59.0461 303.729 58.3421 303.934C57.6528 304.125 56.9341 304.22 56.1861 304.22ZM58.6281 297.928C58.5548 296.784 58.2981 295.941 57.8581 295.398C57.4181 294.841 56.7581 294.562 55.8781 294.562C54.9981 294.562 54.3381 294.841 53.8981 295.398C53.4581 295.941 53.2014 296.784 53.1281 297.928H58.6281ZM65.3821 294.782V300.04C65.3821 300.524 65.4041 300.942 65.4481 301.294C65.4921 301.646 65.5801 301.939 65.7121 302.174C65.8588 302.394 66.0568 302.555 66.3061 302.658C66.5701 302.761 66.9221 302.812 67.3621 302.812C67.6848 302.812 68.0001 302.775 68.3081 302.702C68.6308 302.629 68.9388 302.541 69.2321 302.438L69.5621 303.714C68.6821 304.051 67.7948 304.22 66.9001 304.22C66.2548 304.22 65.7194 304.132 65.2941 303.956C64.8834 303.78 64.5534 303.538 64.3041 303.23C64.0694 302.907 63.9081 302.526 63.8201 302.086C63.7321 301.631 63.6881 301.133 63.6881 300.59V294.782H61.9501V293.352H63.6881V291.108L65.3821 290.8V293.352H69.1441V294.782H65.3821ZM79.4104 304H78.1564L77.8924 303.01C77.4524 303.391 76.9317 303.692 76.3304 303.912C75.7437 304.117 75.0984 304.22 74.3944 304.22C73.2944 304.22 72.4657 303.941 71.9084 303.384C71.3657 302.812 71.0944 301.998 71.0944 300.942C71.0944 299.857 71.4317 299.057 72.1064 298.544C72.781 298.016 73.9104 297.752 75.4944 297.752C75.9637 297.752 76.3744 297.759 76.7264 297.774C77.093 297.789 77.4304 297.818 77.7384 297.862V297.268C77.7384 296.285 77.5477 295.589 77.1664 295.178C76.785 294.753 76.1104 294.54 75.1424 294.54C74.6877 294.54 74.189 294.621 73.6464 294.782C73.1184 294.929 72.583 295.149 72.0404 295.442L71.5344 294.166C72.121 293.843 72.7444 293.594 73.4044 293.418C74.0644 293.227 74.7464 293.132 75.4504 293.132C76.1984 293.132 76.8217 293.205 77.3204 293.352C77.8337 293.499 78.2444 293.741 78.5524 294.078C78.8604 294.401 79.0804 294.819 79.2124 295.332C79.3444 295.845 79.4104 296.476 79.4104 297.224V304ZM74.8564 302.834C75.3404 302.834 75.839 302.731 76.3524 302.526C76.8804 302.306 77.3424 302.02 77.7384 301.668V299.226C77.357 299.182 76.9757 299.153 76.5944 299.138C76.213 299.109 75.7877 299.094 75.3184 299.094C74.3944 299.094 73.7344 299.233 73.3384 299.512C72.957 299.791 72.7664 300.26 72.7664 300.92C72.7664 301.551 72.9277 302.027 73.2504 302.35C73.573 302.673 74.1084 302.834 74.8564 302.834ZM82.6741 293.352H84.3461V304H82.6741V293.352ZM82.6521 288.776H84.3461V290.976H82.6521V288.776ZM90.6893 304.154C90.616 304.183 90.5133 304.198 90.3813 304.198C90.2493 304.213 90.1393 304.22 90.0513 304.22C89.3033 304.22 88.7607 304 88.4233 303.56C88.1007 303.105 87.9393 302.416 87.9393 301.492V288.732L89.6113 288.468V301.25C89.6113 301.587 89.626 301.859 89.6553 302.064C89.6847 302.269 89.736 302.431 89.8093 302.548C89.8973 302.665 90.0073 302.746 90.1393 302.79C90.286 302.819 90.4693 302.834 90.6893 302.834V304.154ZM95.7095 297.4C96.0468 297.532 96.4648 297.679 96.9635 297.84C97.4768 298.001 97.9828 298.177 98.4815 298.368C99.9041 298.896 100.615 299.842 100.615 301.206C100.615 302.174 100.278 302.922 99.6035 303.45C98.9288 303.978 97.8435 304.242 96.3475 304.242C95.5115 304.242 94.8001 304.147 94.2135 303.956C93.6268 303.765 93.0988 303.538 92.6295 303.274L93.1795 301.954C93.6048 302.203 94.0888 302.416 94.6315 302.592C95.1741 302.768 95.7535 302.856 96.3695 302.856C97.3081 302.856 97.9681 302.731 98.3495 302.482C98.7308 302.218 98.9215 301.822 98.9215 301.294C98.9215 300.59 98.5035 300.069 97.6675 299.732C97.1981 299.541 96.7068 299.365 96.1935 299.204C95.6948 299.043 95.2181 298.881 94.7635 298.72C94.1768 298.515 93.7075 298.199 93.3555 297.774C93.0181 297.334 92.8495 296.762 92.8495 296.058C92.8495 295.207 93.1795 294.503 93.8395 293.946C94.5141 293.389 95.5188 293.11 96.8535 293.11C97.5575 293.11 98.1881 293.183 98.7455 293.33C99.3028 293.462 99.7721 293.623 100.153 293.814L99.6475 295.09C99.2221 294.885 98.7968 294.738 98.3715 294.65C97.9461 294.547 97.4255 294.496 96.8095 294.496C96.3695 294.496 96.0028 294.54 95.7095 294.628C95.4161 294.716 95.1815 294.833 95.0055 294.98C94.8441 295.112 94.7268 295.266 94.6535 295.442C94.5801 295.618 94.5435 295.794 94.5435 295.97C94.5435 296.322 94.6315 296.608 94.8075 296.828C94.9835 297.048 95.2841 297.239 95.7095 297.4ZM111.801 294.782V300.04C111.801 300.524 111.823 300.942 111.867 301.294C111.911 301.646 111.999 301.939 112.131 302.174C112.277 302.394 112.475 302.555 112.725 302.658C112.989 302.761 113.341 302.812 113.781 302.812C114.103 302.812 114.419 302.775 114.727 302.702C115.049 302.629 115.357 302.541 115.651 302.438L115.981 303.714C115.101 304.051 114.213 304.22 113.319 304.22C112.673 304.22 112.138 304.132 111.713 303.956C111.302 303.78 110.972 303.538 110.723 303.23C110.488 302.907 110.327 302.526 110.239 302.086C110.151 301.631 110.107 301.133 110.107 300.59V294.782H108.369V293.352H110.107V291.108L111.801 290.8V293.352H115.563V294.782H111.801ZM119.757 294.32C120.769 293.528 121.906 293.132 123.167 293.132C124.399 293.132 125.279 293.425 125.807 294.012C126.35 294.584 126.621 295.552 126.621 296.916V304H124.949V297.378C124.949 296.322 124.773 295.589 124.421 295.178C124.084 294.767 123.556 294.562 122.837 294.562C121.81 294.562 120.784 294.936 119.757 295.684V304H118.085V288.688L119.757 288.468V294.32ZM137.39 304H136.136L135.872 303.01C135.432 303.391 134.911 303.692 134.31 303.912C133.723 304.117 133.078 304.22 132.374 304.22C131.274 304.22 130.445 303.941 129.888 303.384C129.345 302.812 129.074 301.998 129.074 300.942C129.074 299.857 129.411 299.057 130.086 298.544C130.76 298.016 131.89 297.752 133.474 297.752C133.943 297.752 134.354 297.759 134.706 297.774C135.072 297.789 135.41 297.818 135.718 297.862V297.268C135.718 296.285 135.527 295.589 135.146 295.178C134.764 294.753 134.09 294.54 133.122 294.54C132.667 294.54 132.168 294.621 131.626 294.782C131.098 294.929 130.562 295.149 130.02 295.442L129.514 294.166C130.1 293.843 130.724 293.594 131.384 293.418C132.044 293.227 132.726 293.132 133.43 293.132C134.178 293.132 134.801 293.205 135.3 293.352C135.813 293.499 136.224 293.741 136.532 294.078C136.84 294.401 137.06 294.819 137.192 295.332C137.324 295.845 137.39 296.476 137.39 297.224V304ZM132.836 302.834C133.32 302.834 133.818 302.731 134.332 302.526C134.86 302.306 135.322 302.02 135.718 301.668V299.226C135.336 299.182 134.955 299.153 134.574 299.138C134.192 299.109 133.767 299.094 133.298 299.094C132.374 299.094 131.714 299.233 131.318 299.512C130.936 299.791 130.746 300.26 130.746 300.92C130.746 301.551 130.907 302.027 131.23 302.35C131.552 302.673 132.088 302.834 132.836 302.834ZM142.787 294.782V300.04C142.787 300.524 142.809 300.942 142.853 301.294C142.897 301.646 142.985 301.939 143.117 302.174C143.264 302.394 143.462 302.555 143.711 302.658C143.975 302.761 144.327 302.812 144.767 302.812C145.09 302.812 145.405 302.775 145.713 302.702C146.036 302.629 146.344 302.541 146.637 302.438L146.967 303.714C146.087 304.051 145.2 304.22 144.305 304.22C143.66 304.22 143.125 304.132 142.699 303.956C142.289 303.78 141.959 303.538 141.709 303.23C141.475 302.907 141.313 302.526 141.225 302.086C141.137 301.631 141.093 301.133 141.093 300.59V294.782H139.355V293.352H141.093V291.108L142.787 290.8V293.352H146.549V294.782H142.787ZM156.844 294.342C157.357 293.961 157.885 293.667 158.428 293.462C158.97 293.242 159.55 293.132 160.166 293.132C160.914 293.132 161.508 293.242 161.948 293.462C162.402 293.682 162.74 294.049 162.96 294.562C163.473 294.137 164.03 293.792 164.632 293.528C165.248 293.264 165.886 293.132 166.546 293.132C167.162 293.132 167.675 293.205 168.086 293.352C168.496 293.484 168.826 293.704 169.076 294.012C169.34 294.32 169.523 294.716 169.626 295.2C169.728 295.669 169.78 296.241 169.78 296.916V304H168.108V297.378C168.108 296.322 167.961 295.589 167.668 295.178C167.389 294.767 166.912 294.562 166.238 294.562C165.27 294.562 164.294 294.958 163.312 295.75C163.356 296.087 163.378 296.476 163.378 296.916V304H161.706V297.378C161.706 296.337 161.574 295.611 161.31 295.2C161.046 294.775 160.554 294.562 159.836 294.562C159.352 294.562 158.882 294.657 158.428 294.848C157.973 295.024 157.496 295.303 156.998 295.684V304H155.326V293.352H156.58L156.844 294.342ZM180.539 304H179.285L179.021 303.01C178.581 303.391 178.06 303.692 177.459 303.912C176.872 304.117 176.227 304.22 175.523 304.22C174.423 304.22 173.594 303.941 173.037 303.384C172.494 302.812 172.223 301.998 172.223 300.942C172.223 299.857 172.56 299.057 173.235 298.544C173.909 298.016 175.039 297.752 176.623 297.752C177.092 297.752 177.503 297.759 177.855 297.774C178.221 297.789 178.559 297.818 178.867 297.862V297.268C178.867 296.285 178.676 295.589 178.295 295.178C177.913 294.753 177.239 294.54 176.271 294.54C175.816 294.54 175.317 294.621 174.775 294.782C174.247 294.929 173.711 295.149 173.169 295.442L172.663 294.166C173.249 293.843 173.873 293.594 174.533 293.418C175.193 293.227 175.875 293.132 176.579 293.132C177.327 293.132 177.95 293.205 178.449 293.352C178.962 293.499 179.373 293.741 179.681 294.078C179.989 294.401 180.209 294.819 180.341 295.332C180.473 295.845 180.539 296.476 180.539 297.224V304ZM175.985 302.834C176.469 302.834 176.967 302.731 177.481 302.526C178.009 302.306 178.471 302.02 178.867 301.668V299.226C178.485 299.182 178.104 299.153 177.723 299.138C177.341 299.109 176.916 299.094 176.447 299.094C175.523 299.094 174.863 299.233 174.467 299.512C174.085 299.791 173.895 300.26 173.895 300.92C173.895 301.551 174.056 302.027 174.379 302.35C174.701 302.673 175.237 302.834 175.985 302.834ZM183.56 304V288.688L185.254 288.468V297.51H186.288L190.27 293.352H192.316L187.63 298.236L192.448 304H190.402L186.266 298.94H185.254V304H183.56ZM198.035 304.22C196.305 304.22 195.073 303.773 194.339 302.878C193.621 301.969 193.261 300.568 193.261 298.676C193.261 296.769 193.628 295.369 194.361 294.474C195.095 293.579 196.217 293.132 197.727 293.132C199.238 293.132 200.36 293.572 201.093 294.452C201.827 295.317 202.193 296.696 202.193 298.588V299.292H194.977C195.036 300.553 195.307 301.455 195.791 301.998C196.275 302.541 197.031 302.812 198.057 302.812C198.673 302.812 199.275 302.724 199.861 302.548C200.463 302.357 201.02 302.101 201.533 301.778L202.083 303.12C201.526 303.457 200.895 303.729 200.191 303.934C199.502 304.125 198.783 304.22 198.035 304.22ZM200.477 297.928C200.404 296.784 200.147 295.941 199.707 295.398C199.267 294.841 198.607 294.562 197.727 294.562C196.847 294.562 196.187 294.841 195.747 295.398C195.307 295.941 195.051 296.784 194.977 297.928H200.477ZM214.079 304.154C214.006 304.183 213.903 304.198 213.771 304.198C213.639 304.213 213.529 304.22 213.441 304.22C212.693 304.22 212.151 304 211.813 303.56C211.491 303.105 211.329 302.416 211.329 301.492V288.732L213.001 288.468V301.25C213.001 301.587 213.016 301.859 213.045 302.064C213.075 302.269 213.126 302.431 213.199 302.548C213.287 302.665 213.397 302.746 213.529 302.79C213.676 302.819 213.859 302.834 214.079 302.834V304.154ZM216.768 293.352H218.44V304H216.768V293.352ZM216.746 288.776H218.44V290.976H216.746V288.776ZM227.863 293.352V294.782H224.057V304H222.385V294.782H220.757V293.352H222.363V292.494C222.363 291.746 222.443 291.115 222.605 290.602C222.781 290.089 223.03 289.678 223.353 289.37C223.675 289.047 224.064 288.82 224.519 288.688C224.988 288.541 225.523 288.468 226.125 288.468C226.535 288.468 226.924 288.512 227.291 288.6C227.657 288.673 227.995 288.769 228.303 288.886L227.929 290.25C227.313 290.015 226.704 289.898 226.103 289.898C225.399 289.898 224.878 290.118 224.541 290.558C224.218 290.998 224.057 291.731 224.057 292.758V293.352H227.863ZM233.86 304.22C232.13 304.22 230.898 303.773 230.164 302.878C229.446 301.969 229.086 300.568 229.086 298.676C229.086 296.769 229.453 295.369 230.186 294.474C230.92 293.579 232.042 293.132 233.552 293.132C235.063 293.132 236.185 293.572 236.918 294.452C237.652 295.317 238.018 296.696 238.018 298.588V299.292H230.802C230.861 300.553 231.132 301.455 231.616 301.998C232.1 302.541 232.856 302.812 233.882 302.812C234.498 302.812 235.1 302.724 235.686 302.548C236.288 302.357 236.845 302.101 237.358 301.778L237.908 303.12C237.351 303.457 236.72 303.729 236.016 303.934C235.327 304.125 234.608 304.22 233.86 304.22ZM236.302 297.928C236.229 296.784 235.972 295.941 235.532 295.398C235.092 294.841 234.432 294.562 233.552 294.562C232.672 294.562 232.012 294.841 231.572 295.398C231.132 295.941 230.876 296.784 230.802 297.928H236.302ZM251.224 302.834C252.236 302.834 252.984 302.511 253.468 301.866C253.952 301.221 254.194 300.157 254.194 298.676C254.194 297.209 253.952 296.153 253.468 295.508C252.984 294.863 252.236 294.54 251.224 294.54C250.711 294.54 250.227 294.643 249.772 294.848C249.332 295.053 248.951 295.332 248.628 295.684V301.69C248.951 302.042 249.332 302.321 249.772 302.526C250.227 302.731 250.711 302.834 251.224 302.834ZM248.188 304H246.934V288.666L248.628 288.468V294.21C248.995 293.873 249.435 293.609 249.948 293.418C250.476 293.227 251.048 293.132 251.664 293.132C253.043 293.132 254.084 293.587 254.788 294.496C255.507 295.391 255.866 296.784 255.866 298.676C255.866 300.583 255.5 301.983 254.766 302.878C254.033 303.773 252.94 304.22 251.488 304.22C250.872 304.22 250.308 304.125 249.794 303.934C249.296 303.729 248.856 303.45 248.474 303.098L248.188 304ZM262.784 304.22C261.054 304.22 259.822 303.773 259.088 302.878C258.37 301.969 258.01 300.568 258.01 298.676C258.01 296.769 258.377 295.369 259.11 294.474C259.844 293.579 260.966 293.132 262.476 293.132C263.987 293.132 265.109 293.572 265.842 294.452C266.576 295.317 266.942 296.696 266.942 298.588V299.292H259.726C259.785 300.553 260.056 301.455 260.54 301.998C261.024 302.541 261.78 302.812 262.806 302.812C263.422 302.812 264.024 302.724 264.61 302.548C265.212 302.357 265.769 302.101 266.282 301.778L266.832 303.12C266.275 303.457 265.644 303.729 264.94 303.934C264.251 304.125 263.532 304.22 262.784 304.22ZM265.226 297.928C265.153 296.784 264.896 295.941 264.456 295.398C264.016 294.841 263.356 294.562 262.476 294.562C261.596 294.562 260.936 294.841 260.496 295.398C260.056 295.941 259.8 296.784 259.726 297.928H265.226ZM271.98 294.782V300.04C271.98 300.524 272.002 300.942 272.046 301.294C272.09 301.646 272.178 301.939 272.31 302.174C272.457 302.394 272.655 302.555 272.904 302.658C273.168 302.761 273.52 302.812 273.96 302.812C274.283 302.812 274.598 302.775 274.906 302.702C275.229 302.629 275.537 302.541 275.83 302.438L276.16 303.714C275.28 304.051 274.393 304.22 273.498 304.22C272.853 304.22 272.318 304.132 271.892 303.956C271.482 303.78 271.152 303.538 270.902 303.23C270.668 302.907 270.506 302.526 270.418 302.086C270.33 301.631 270.286 301.133 270.286 300.59V294.782H268.548V293.352H270.286V291.108L271.98 290.8V293.352H275.742V294.782H271.98ZM280.641 294.782V300.04C280.641 300.524 280.663 300.942 280.707 301.294C280.751 301.646 280.839 301.939 280.971 302.174C281.117 302.394 281.315 302.555 281.565 302.658C281.829 302.761 282.181 302.812 282.621 302.812C282.943 302.812 283.259 302.775 283.567 302.702C283.889 302.629 284.197 302.541 284.491 302.438L284.821 303.714C283.941 304.051 283.053 304.22 282.159 304.22C281.513 304.22 280.978 304.132 280.553 303.956C280.142 303.78 279.812 303.538 279.563 303.23C279.328 302.907 279.167 302.526 279.079 302.086C278.991 301.631 278.947 301.133 278.947 300.59V294.782H277.209V293.352H278.947V291.108L280.641 290.8V293.352H284.403V294.782H280.641ZM291.064 304.22C289.333 304.22 288.101 303.773 287.368 302.878C286.649 301.969 286.29 300.568 286.29 298.676C286.29 296.769 286.657 295.369 287.39 294.474C288.123 293.579 289.245 293.132 290.756 293.132C292.267 293.132 293.389 293.572 294.122 294.452C294.855 295.317 295.222 296.696 295.222 298.588V299.292H288.006C288.065 300.553 288.336 301.455 288.82 301.998C289.304 302.541 290.059 302.812 291.086 302.812C291.702 302.812 292.303 302.724 292.89 302.548C293.491 302.357 294.049 302.101 294.562 301.778L295.112 303.12C294.555 303.457 293.924 303.729 293.22 303.934C292.531 304.125 291.812 304.22 291.064 304.22ZM293.506 297.928C293.433 296.784 293.176 295.941 292.736 295.398C292.296 294.841 291.636 294.562 290.756 294.562C289.876 294.562 289.216 294.841 288.776 295.398C288.336 295.941 288.079 296.784 288.006 297.928H293.506ZM299.16 293.352L299.358 294.76C299.842 294.232 300.385 293.829 300.986 293.55C301.587 293.271 302.196 293.132 302.812 293.132C303.061 293.132 303.274 293.154 303.45 293.198C303.641 293.227 303.839 293.279 304.044 293.352V294.848C303.604 294.672 303.142 294.584 302.658 294.584C302.101 294.584 301.543 294.738 300.986 295.046C300.429 295.354 299.952 295.743 299.556 296.212V304H297.884V293.352H299.16ZM305.509 304.352H303.551V302.482H305.509V304.352Z" fill="#4A4946"/>
</svg>
