<svg width="696" height="114" viewBox="0 0 696 114" fill="none" xmlns="http://www.w3.org/2000/svg">
<path d="M681.945 113.933C684.729 113.926 687.448 113.1 689.76 111.558C692.072 110.016 693.872 107.828 694.935 105.269C695.997 102.711 696.273 99.8969 695.728 97.1827C695.183 94.4684 693.842 91.9755 691.873 90.0184C689.905 88.0613 687.397 86.7278 684.667 86.1861C681.937 85.6445 679.107 85.9189 676.533 86.9749C673.96 88.0309 671.759 89.8211 670.208 92.1195C668.657 94.4179 667.826 97.1216 667.819 99.8893C667.82 103.614 669.309 107.185 671.958 109.818C674.607 112.452 678.199 113.932 681.945 113.933ZM608.005 71.3006C608.005 49.6639 613.047 40.9243 620.111 40.9243C623.285 40.9243 626.096 42.572 629.264 45.5124V101.409C627.338 102.164 625.279 102.53 623.209 102.486C614.348 102.486 607.981 94.0318 607.981 71.318M629.821 113.933L658.143 106.48C659.08 106.265 659.654 105.834 659.654 105.048C659.654 102.754 653.675 102.253 653.675 91.1497V1.63363C653.679 1.57226 653.667 1.51093 653.64 1.45544C653.613 1.39995 653.573 1.35213 653.522 1.31656C653.472 1.28098 653.413 1.2588 653.352 1.25213C653.29 1.24546 653.228 1.25454 653.171 1.27846L624.849 8.7255C623.911 8.94094 623.338 9.37182 623.338 10.1579C623.338 12.452 629.317 12.9527 629.317 24.0563V36.9533C626.098 36.4542 622.847 36.1915 619.589 36.1672C597.035 36.1672 582.693 53.6349 582.693 78.439C582.693 100.431 592.133 113.904 611.156 113.904C618.506 113.904 623.051 111.179 629.311 105.45V113.543C629.308 113.605 629.32 113.666 629.347 113.721C629.374 113.777 629.414 113.825 629.464 113.86C629.514 113.896 629.572 113.919 629.634 113.927C629.695 113.935 629.757 113.927 629.815 113.904M530.369 75.0678C530.369 49.3495 533.608 40.8951 540.238 40.8951C547.447 40.8951 550.259 49.3495 550.259 75.0678C550.259 100.786 547.424 109.275 540.214 109.275C533.585 109.275 530.346 100.745 530.346 75.0969M540.214 113.933C561.62 113.933 575.6 97.2401 575.6 75.0969C575.6 52.9537 561.62 36.1963 540.214 36.1963C519.388 36.1963 504.975 52.9595 504.975 75.0969C504.975 97.2342 519.388 113.933 540.214 113.933ZM452.658 75.0969C452.658 49.3786 455.903 40.9243 462.532 40.9243C469.736 40.9243 472.547 49.3786 472.547 75.0969C472.547 100.815 469.736 109.275 462.532 109.275C455.903 109.275 452.658 100.745 452.658 75.0969ZM462.532 113.933C483.932 113.933 497.918 97.2401 497.918 75.0969C497.918 52.9537 483.932 36.1963 462.532 36.1963C441.706 36.1963 427.293 52.9595 427.293 75.0969C427.293 97.2342 441.706 113.933 462.532 113.933ZM376.99 113.933C389.459 113.933 403.006 110.492 416.195 103.115C416.269 103.072 416.33 103.009 416.368 102.932C416.407 102.855 416.422 102.769 416.411 102.684V80.6167C416.411 66.2175 420.447 64.7094 420.447 62.7065C420.447 61.9903 420.013 61.4138 418.859 61.4138H387.152C385.98 61.4138 385.57 61.9961 385.57 62.7065C385.57 64.855 391.046 66.2 391.046 80.6167V105.333C387.948 107.767 384.704 108.99 379.228 108.99C364 108.99 355.877 94.2997 355.877 60.6977C355.877 27.9574 363.731 13.3428 378.507 13.3428C387.011 13.3428 392.704 18.4259 407.691 34.4787C408.558 35.4103 409.495 35.1192 409.495 33.7625V15.6078C409.541 15.0094 409.38 14.4132 409.039 13.9178C408.699 13.4224 408.198 13.0573 407.621 12.8828C399.249 9.79933 390.386 8.24497 381.459 8.29464C350.759 8.29464 327.578 29.1452 327.578 60.6686C327.578 94.5559 344.299 113.904 377.014 113.904" fill="white"/>
<path d="M267.222 113.195C285.359 113.195 295.89 104.618 295.89 88.0381C295.89 77.678 289.987 69.031 278.467 64.3155L268.175 60.0994C261.476 57.3874 258.744 53.8102 258.744 48.5255C258.744 42.9506 263.132 40.3954 267.666 40.3954C274.365 40.3954 279.473 45.1806 288.044 56.075C288.98 57.2364 289.987 56.8589 289.987 55.2852V40.3779C290.001 39.953 289.894 39.5325 289.678 39.1656C289.461 38.7986 289.144 38.5001 288.764 38.3048C284.37 36.6613 276.665 35.6625 269.755 35.6625C254.134 35.6625 242.187 45.0238 242.187 59.2457C242.187 68.6012 246.791 77.3934 257.662 81.894L268.749 86.4701C276.238 89.5422 278.9 92.8988 278.9 98.6131C278.9 104.618 274.652 108.549 268.462 108.549C260.903 108.549 254.28 102.26 244.416 89.1124C243.55 87.8987 242.473 88.3285 242.614 89.8268L244.129 108.689C244.199 109.693 244.562 110.332 245.568 110.623C249.886 111.906 256.509 113.195 267.216 113.195M229.69 40.8774C241.567 37.393 247.616 28.2292 247.616 16.9399C247.616 6.86427 241.28 0.575019 233.575 0.575019C229.855 0.570255 226.284 2.02437 223.64 4.62071C220.996 7.21705 219.492 10.7453 219.457 14.4369C219.457 22.0154 225.647 28.5137 233.206 28.5137C235.001 28.5028 236.781 28.1906 238.472 27.5904C238.828 27.4452 239.121 27.7297 239.057 28.1711C237.98 32.6717 233.206 36.458 228.982 39.0307C227.683 39.8204 228.332 41.3187 229.701 40.889M186.073 64.6987C186.289 47.277 189.671 40.4012 194.785 40.4012C200.05 40.4012 202.975 47.759 203.063 64.6987H186.073ZM196.019 113.218C213.08 113.218 222.657 102.998 225.395 90.5701C225.752 88.9266 224.886 88.4272 223.64 89.4957C218.855 93.5819 212.745 95.8153 206.433 95.785C194.27 95.785 186.927 88.4272 186.131 69.6523H223.716C223.926 69.674 224.138 69.6541 224.34 69.5939C224.543 69.5336 224.731 69.4342 224.894 69.3013C225.057 69.1685 225.192 69.0049 225.291 68.8199C225.39 68.635 225.452 68.4323 225.471 68.2238C225.59 67.107 225.637 65.9839 225.612 64.8613C225.612 49.7625 214.817 35.7089 197.031 35.7089C177.455 35.7089 161.617 51.3595 161.617 76.0113C161.617 100.402 176.829 113.242 196.025 113.242M115.584 43.5371H124.009V92.6316C124.009 106.993 118.533 108.352 118.533 110.495C118.533 111.209 118.966 111.778 120.118 111.778H153.309C154.479 111.778 154.889 111.197 154.889 110.495C154.889 108.207 148.342 107.01 148.342 92.6316V43.5371H160.722C160.94 43.5668 161.162 43.5473 161.371 43.4802C161.58 43.413 161.771 43.2999 161.931 43.1492C162.09 42.9985 162.212 42.8142 162.29 42.6099C162.367 42.4056 162.397 42.1865 162.378 41.9691V38.8216C162.405 38.5993 162.381 38.3736 162.308 38.1618C162.234 37.95 162.113 37.7576 161.953 37.5992C161.794 37.4408 161.6 37.3206 161.387 37.2477C161.173 37.1747 160.946 37.1509 160.722 37.1781H151.507C148.266 37.1781 146.323 36.0167 143.901 32.6078L141.813 29.7042C137.922 24.2744 135.962 19.4138 135.962 15.3429C135.962 9.91308 139.472 7.0559 144.024 7.0559C149.787 7.0559 153.888 11.5565 162.454 20.8481C163.39 21.9167 164.326 21.4869 164.326 20.2674V3.83288C164.326 2.90372 163.893 2.3346 163.156 2.18942C159.33 1.05622 155.353 0.507932 151.361 0.563393C132.861 0.563393 124.009 14.5705 124.009 29.9365V35.796L115.151 41.2955C113.981 42.0098 114.285 43.5081 115.584 43.5081M78.8652 14.5008C78.8582 17.2642 79.677 19.9677 81.218 22.2692C82.759 24.5708 84.953 26.367 87.5225 27.4309C90.092 28.4948 92.9217 28.7785 95.6537 28.2462C98.3856 27.7138 100.897 26.3893 102.871 24.4401C104.844 22.4909 106.191 20.0046 106.741 17.2956C107.291 14.5866 107.019 11.7766 105.96 9.2209C104.901 6.66518 103.103 4.47853 100.792 2.93751C98.4806 1.39649 95.7611 0.570293 92.977 0.563393C89.2479 0.56792 85.6717 2.03557 83.0282 4.64637C80.3848 7.25718 78.8883 10.7994 78.8652 14.5008ZM76.9988 111.749H109.101C110.272 111.749 110.687 111.168 110.687 110.466C110.687 108.323 105.217 106.981 105.217 92.6026V35.5928C105.223 35.5284 105.214 35.4632 105.19 35.403C105.166 35.3428 105.128 35.2893 105.078 35.2471C105.029 35.2048 104.97 35.1751 104.906 35.1605C104.843 35.1459 104.777 35.1467 104.713 35.163L77.069 41.1619C75.9866 41.3768 75.4133 41.8762 75.4133 42.7357C75.4133 44.9541 80.8837 45.378 80.8837 56.4582V92.6142C80.8837 106.976 75.4133 108.334 75.4133 110.477C75.4133 111.192 75.8462 111.761 76.9988 111.761M1.62459 111.761H63.6066C63.886 111.787 64.1679 111.758 64.4358 111.675C64.7036 111.592 64.9521 111.456 65.1668 111.277C65.3814 111.097 65.5578 110.877 65.6857 110.629C65.8136 110.381 65.8905 110.11 65.9118 109.833L70.7327 83.7523C70.9492 82.5386 69.8668 82.0102 68.9307 83.0381L55.0529 97.1149C47.8508 104.403 45.3291 106.761 37.0504 106.761H31.8726V28.4382C31.8726 14.0769 37.343 12.718 37.343 10.5751C37.343 9.86081 36.91 9.29172 35.7574 9.29172H1.62459C0.45446 9.29172 0.0390625 9.87242 0.0390625 10.5751C0.0390625 12.718 5.50944 14.0595 5.50944 28.4382V92.6084C5.50944 106.97 0.0390625 108.329 0.0390625 110.472C0.0390625 111.186 0.472012 111.755 1.62459 111.755" fill="white"/>
</svg>
