<svg width="326" height="57" viewBox="0 0 326 57" fill="none" xmlns="http://www.w3.org/2000/svg">
<path d="M319.362 57C320.676 56.9965 321.961 56.5784 323.053 55.7984C324.145 55.0184 324.995 53.9114 325.497 52.6173C325.998 51.3232 326.129 49.8998 325.871 48.5268C325.614 47.1538 324.981 45.8928 324.051 44.9028C323.121 43.9128 321.937 43.2383 320.647 42.9643C319.358 42.6903 318.021 42.8291 316.806 43.3633C315.591 43.8975 314.551 44.803 313.819 45.9656C313.086 47.1283 312.693 48.4959 312.69 49.8959C312.691 51.7798 313.394 53.5863 314.645 54.9184C315.896 56.2505 317.592 56.9992 319.362 57ZM284.441 35.4345C284.441 24.4898 286.823 20.0689 290.158 20.0689C291.658 20.0689 292.985 20.9024 294.482 22.3898V50.6647C293.572 51.0466 292.599 51.2318 291.622 51.2095C287.437 51.2095 284.43 46.933 284.43 35.4434M294.744 57L308.121 53.23C308.563 53.121 308.834 52.9031 308.834 52.5055C308.834 51.345 306.01 51.0917 306.01 45.475V0.194055C306.012 0.16301 306.006 0.131989 305.994 0.10392C305.981 0.0758514 305.962 0.0516639 305.938 0.0336676C305.914 0.0156713 305.887 0.00444939 305.858 0.0010759C305.829 -0.00229759 305.799 0.00229439 305.772 0.0143966L292.396 3.78143C291.953 3.8904 291.682 4.10836 291.682 4.50597C291.682 5.66642 294.506 5.91972 294.506 11.5364V18.0602C292.986 17.8078 291.451 17.6749 289.912 17.6626C279.26 17.6626 272.486 26.4985 272.486 39.0455C272.486 50.1698 276.945 56.9853 285.929 56.9853C289.4 56.9853 291.547 55.6069 294.504 52.7087V56.8027C294.502 56.8337 294.508 56.8647 294.521 56.8927C294.533 56.9208 294.552 56.945 294.576 56.9631C294.599 56.9813 294.627 56.9929 294.656 56.9967C294.685 57.0006 294.714 56.9967 294.742 56.9853M247.775 37.3401C247.775 24.3308 249.305 20.0542 252.436 20.0542C255.841 20.0542 257.168 24.3308 257.168 37.3401C257.168 50.3495 255.83 54.6438 252.425 54.6438C249.294 54.6438 247.764 50.3289 247.764 37.3549M252.425 57C262.534 57 269.137 48.5558 269.137 37.3549C269.137 26.1539 262.534 17.6773 252.425 17.6773C242.589 17.6773 235.782 26.1568 235.782 37.3549C235.782 48.5529 242.589 57 252.425 57ZM211.073 37.3549C211.073 24.3455 212.606 20.0689 215.737 20.0689C219.139 20.0689 220.467 24.3455 220.467 37.3549C220.467 50.3642 219.139 54.6438 215.737 54.6438C212.606 54.6438 211.073 50.3289 211.073 37.3549ZM215.737 57C225.844 57 232.449 48.5558 232.449 37.3549C232.449 26.1539 225.844 17.6773 215.737 17.6773C205.901 17.6773 199.094 26.1568 199.094 37.3549C199.094 48.5529 205.901 57 215.737 57ZM175.337 57C181.225 57 187.623 55.2593 193.852 51.5276C193.887 51.506 193.916 51.4738 193.934 51.435C193.952 51.3963 193.959 51.3527 193.955 51.3097V40.147C193.955 32.8633 195.86 32.1005 195.86 31.0873C195.86 30.725 195.656 30.4334 195.111 30.4334H180.136C179.582 30.4334 179.389 30.728 179.389 31.0873C179.389 32.1741 181.975 32.8545 181.975 40.147V52.6498C180.512 53.8809 178.979 54.4994 176.393 54.4994C169.202 54.4994 165.365 47.0685 165.365 30.0711C165.365 13.5097 169.074 6.11704 176.053 6.11704C180.069 6.11704 182.758 8.68828 189.836 16.8085C190.245 17.2797 190.688 17.1325 190.688 16.4462V7.26277C190.71 6.96006 190.634 6.65851 190.473 6.40791C190.312 6.1573 190.076 5.97262 189.803 5.88437C185.849 4.32461 181.663 3.53835 177.447 3.56348C162.948 3.56348 152 14.1106 152 30.0564C152 47.1981 159.897 56.9853 175.348 56.9853" fill="#FFF"/>
<path d="M127.337 56.9765C135.981 56.9765 141 52.6377 141 44.2508C141 39.0102 138.187 34.6361 132.696 32.2508L127.791 30.1181C124.599 28.7463 123.297 26.9367 123.297 24.2635C123.297 21.4434 125.388 20.1509 127.549 20.1509C130.742 20.1509 133.176 22.5714 137.261 28.0824C137.707 28.6699 138.187 28.4789 138.187 27.6828V20.142C138.194 19.9271 138.142 19.7144 138.039 19.5288C137.936 19.3431 137.785 19.1921 137.604 19.0933C135.51 18.262 131.837 17.7567 128.544 17.7567C121.099 17.7567 115.405 22.4921 115.405 29.6863C115.405 34.4187 117.6 38.8662 122.781 41.1429L128.065 43.4577C131.634 45.0117 132.903 46.7096 132.903 49.6002C132.903 52.6377 130.878 54.6264 127.928 54.6264C124.325 54.6264 121.169 51.445 116.468 44.7943C116.055 44.1803 115.542 44.3977 115.609 45.1556L116.331 54.6969C116.365 55.2051 116.538 55.5283 117.017 55.6751C119.075 56.3244 122.231 56.9765 127.334 56.9765M109.449 20.3947C115.11 18.6321 117.993 13.9966 117.993 8.28594C117.993 3.18922 114.973 0.0078147 111.301 0.0078147C109.528 0.00540497 107.827 0.740968 106.566 2.05432C105.306 3.36767 104.59 5.15242 104.573 7.01984C104.573 10.8534 107.523 14.1406 111.125 14.1406C111.981 14.135 112.829 13.9771 113.635 13.6735C113.805 13.6 113.944 13.744 113.914 13.9672C113.401 16.2439 111.125 18.1592 109.112 19.4605C108.493 19.86 108.803 20.6179 109.455 20.4006M88.6621 32.4447C88.7653 23.6319 90.377 20.1538 92.814 20.1538C95.3235 20.1538 96.7177 23.8757 96.7596 32.4447H88.6621ZM93.4024 56.9882C101.533 56.9882 106.098 51.8181 107.403 45.5316C107.573 44.7003 107.16 44.4477 106.566 44.9882C104.286 47.0552 101.374 48.1849 98.3657 48.1696C92.5686 48.1696 89.0692 44.4477 88.69 34.9504H106.603C106.703 34.9614 106.804 34.9513 106.9 34.9209C106.996 34.8904 107.086 34.8401 107.164 34.7729C107.242 34.7057 107.306 34.6229 107.353 34.5294C107.4 34.4358 107.43 34.3333 107.439 34.2278C107.495 33.6629 107.518 33.0948 107.506 32.5269C107.506 24.8892 102.361 17.7802 93.8847 17.7802C84.5548 17.7802 77.0067 25.697 77.0067 38.1671C77.0067 50.505 84.2565 57 93.4051 57M55.0677 21.7401H59.083V46.5745C59.083 53.8391 56.4731 54.5265 56.4731 55.6105C56.4731 55.9718 56.6794 56.2597 57.2287 56.2597H73.0472C73.6049 56.2597 73.8 55.966 73.8 55.6105C73.8 54.4531 70.6798 53.8479 70.6798 46.5745V21.7401H76.5801C76.6839 21.7551 76.7896 21.7453 76.8893 21.7113C76.9891 21.6773 77.0802 21.6201 77.1561 21.5439C77.2319 21.4677 77.2904 21.3744 77.3273 21.2711C77.3642 21.1677 77.3785 21.0569 77.3692 20.9469V19.3548C77.3822 19.2423 77.3708 19.1282 77.3358 19.021C77.3008 18.9139 77.243 18.8166 77.167 18.7364C77.0909 18.6563 76.9985 18.5955 76.8969 18.5586C76.7952 18.5217 76.6868 18.5097 76.5801 18.5234H72.1884C70.6436 18.5234 69.7178 17.9359 68.5635 16.2116L67.568 14.7428C65.7137 11.9961 64.7796 9.53735 64.7796 7.4781C64.7796 4.73146 66.4527 3.28616 68.622 3.28616C71.3686 3.28616 73.3232 5.56279 77.4054 10.2629C77.8516 10.8035 78.2977 10.5861 78.2977 9.96917V1.6558C78.2977 1.18578 78.0914 0.897895 77.74 0.824455C75.9167 0.25123 74.0212 -0.0261211 72.1186 0.00193378C63.3018 0.00193378 59.083 7.08741 59.083 14.8603V17.8243L54.8614 20.6062C54.3037 20.9675 54.4487 21.7254 55.0677 21.7254M37.5678 7.05215C37.5645 8.45003 37.9548 9.81756 38.6892 10.9818C39.4236 12.146 40.4692 13.0547 41.6939 13.5928C42.9185 14.131 44.2671 14.2745 45.5691 14.0052C46.8711 13.7359 48.0681 13.0659 49.0087 12.0799C49.9493 11.0939 50.5912 9.83624 50.8533 8.4659C51.1154 7.09556 50.9859 5.67413 50.4812 4.38132C49.9765 3.08851 49.1192 1.9824 48.0178 1.20288C46.9164 0.423356 45.6203 0.00542412 44.2934 0.00193378C42.5161 0.00422362 40.8118 0.746631 39.5519 2.0673C38.2921 3.38797 37.5789 5.1798 37.5678 7.05215ZM36.6783 56.245H51.9782C52.5359 56.245 52.7338 55.9513 52.7338 55.5958C52.7338 54.5119 50.1267 53.8333 50.1267 46.5598V17.7215C50.13 17.6889 50.1257 17.656 50.1142 17.6255C50.1027 17.595 50.0844 17.568 50.0609 17.5466C50.0373 17.5252 50.0091 17.5102 49.9788 17.5028C49.9485 17.4954 49.917 17.4958 49.8869 17.5041L36.7118 20.5386C36.196 20.6473 35.9227 20.8999 35.9227 21.3347C35.9227 22.4569 38.5298 22.6713 38.5298 28.2762V46.5657C38.5298 53.8303 35.9227 54.5177 35.9227 55.6017C35.9227 55.963 36.129 56.2509 36.6783 56.2509M0.755651 56.2509H30.2957C30.4289 56.2642 30.5632 56.2494 30.6909 56.2074C30.8186 56.1653 30.937 56.0969 31.0393 56.0061C31.1416 55.9153 31.2257 55.8039 31.2866 55.6785C31.3476 55.5531 31.3842 55.4161 31.3944 55.2756L33.692 42.0829C33.7952 41.469 33.2793 41.2016 32.8332 41.7216L26.2191 48.8423C22.7866 52.529 21.5848 53.7216 17.6393 53.7216H15.1716V14.1024C15.1716 6.83771 17.7787 6.15031 17.7787 5.06634C17.7787 4.70501 17.5724 4.41714 17.0231 4.41714H0.755651C0.197975 4.41714 0 4.71089 0 5.06634C0 6.15031 2.60713 6.82889 2.60713 14.1024V46.5627C2.60713 53.8274 0 54.5148 0 55.5988C0 55.9601 0.20634 56.248 0.755651 56.248" fill="#FFF"/>
</svg>
