<svg width="729" height="729" viewBox="0 0 729 729" fill="none" xmlns="http://www.w3.org/2000/svg">
<path d="M596.81 506C600.611 505.99 604.324 504.853 607.48 502.732C610.636 500.611 613.095 497.601 614.545 494.082C615.995 490.563 616.372 486.692 615.628 482.959C614.884 479.225 613.053 475.796 610.365 473.104C607.678 470.412 604.254 468.578 600.527 467.833C596.799 467.088 592.935 467.465 589.422 468.918C585.909 470.37 582.903 472.833 580.786 475.994C578.668 479.156 577.533 482.875 577.524 486.682C577.526 491.805 579.558 496.717 583.175 500.34C586.791 503.962 591.695 505.998 596.81 506ZM495.861 447.357C495.861 417.595 502.746 405.573 512.389 405.573C516.723 405.573 520.561 407.84 524.886 411.885V488.772C522.256 489.811 519.445 490.315 516.619 490.254C504.521 490.254 495.829 478.625 495.829 447.381M525.646 506L564.314 495.748C565.594 495.452 566.377 494.859 566.377 493.778C566.377 490.622 558.214 489.934 558.214 474.66V351.528C558.219 351.443 558.202 351.359 558.166 351.283C558.13 351.206 558.074 351.14 558.006 351.092C557.937 351.043 557.856 351.012 557.772 351.003C557.688 350.994 557.604 351.006 557.526 351.039L518.858 361.283C517.578 361.579 516.795 362.172 516.795 363.253C516.795 366.409 524.958 367.097 524.958 382.371V400.111C520.564 399.425 516.125 399.063 511.677 399.03C480.885 399.03 461.303 423.057 461.303 457.176C461.303 487.427 474.192 505.96 500.163 505.96C510.198 505.96 516.403 502.212 524.95 494.331V505.463C524.946 505.548 524.963 505.632 524.999 505.708C525.035 505.785 525.09 505.85 525.159 505.9C525.227 505.949 525.307 505.981 525.391 505.991C525.475 506.002 525.56 505.991 525.638 505.96M389.867 452.539C389.867 417.163 394.289 405.533 403.34 405.533C413.183 405.533 417.021 417.163 417.021 452.539C417.021 487.915 413.151 499.593 403.308 499.593C394.257 499.593 389.835 487.859 389.835 452.579M403.308 506C432.533 506 451.62 483.038 451.62 452.579C451.62 422.12 432.533 399.07 403.308 399.07C374.875 399.07 355.197 422.128 355.197 452.579C355.197 483.03 374.875 506 403.308 506ZM283.769 452.579C283.769 417.203 288.199 405.573 297.25 405.573C307.085 405.573 310.923 417.203 310.923 452.579C310.923 487.955 307.085 499.593 297.25 499.593C288.199 499.593 283.769 487.859 283.769 452.579ZM297.25 506C326.467 506 345.562 483.038 345.562 452.579C345.562 422.12 326.467 399.07 297.25 399.07C268.817 399.07 249.139 422.128 249.139 452.579C249.139 483.03 268.817 506 297.25 506ZM180.462 506C197.485 506 215.98 501.267 233.986 491.119C234.088 491.06 234.171 490.973 234.223 490.867C234.276 490.762 234.296 490.643 234.282 490.526V460.172C234.282 440.365 239.792 438.291 239.792 435.536C239.792 434.55 239.2 433.758 237.625 433.758H194.335C192.735 433.758 192.176 434.558 192.176 435.536C192.176 438.491 199.652 440.341 199.652 460.172V494.17C195.422 497.518 190.992 499.2 183.516 499.2C162.727 499.2 151.636 478.993 151.636 432.772C151.636 387.737 162.359 367.634 182.533 367.634C194.143 367.634 201.915 374.626 222.376 396.707C223.56 397.989 224.839 397.588 224.839 395.722V370.75C224.902 369.926 224.683 369.106 224.218 368.425C223.752 367.744 223.069 367.241 222.28 367.001C210.851 362.76 198.751 360.622 186.563 360.69C144.648 360.69 113 389.371 113 432.732C113 479.346 135.828 505.96 180.494 505.96" fill="white"/>
<path d="M505.852 328.936C530.619 328.936 545 317.138 545 294.331C545 280.08 536.939 268.186 521.208 261.7L507.154 255.9C498.006 252.17 494.275 247.249 494.275 239.98C494.275 232.311 500.267 228.796 506.459 228.796C515.607 228.796 522.582 235.378 534.286 250.364C535.564 251.962 536.939 251.443 536.939 249.278V228.772C536.959 228.188 536.812 227.609 536.517 227.105C536.221 226.6 535.789 226.189 535.269 225.92C529.269 223.66 518.747 222.286 509.311 222.286C487.98 222.286 471.665 235.163 471.665 254.726C471.665 267.595 477.953 279.689 492.797 285.88L507.937 292.174C518.164 296.4 521.799 301.017 521.799 308.878C521.799 317.138 515.998 322.546 507.546 322.546C497.223 322.546 488.179 313.894 474.709 295.809C473.527 294.14 472.057 294.731 472.249 296.792L474.318 322.737C474.414 324.119 474.909 324.998 476.283 325.397C482.179 327.163 491.223 328.936 505.844 328.936M454.6 229.459C470.818 224.666 479.079 212.061 479.079 196.532C479.079 182.672 470.427 174.021 459.905 174.021C454.826 174.015 449.95 176.015 446.339 179.586C442.728 183.158 440.675 188.011 440.626 193.089C440.626 203.514 449.079 212.452 459.402 212.452C461.853 212.437 464.284 212.008 466.592 211.182C467.079 210.983 467.479 211.374 467.391 211.981C465.921 218.172 459.402 223.38 453.633 226.919C451.86 228.005 452.746 230.066 454.616 229.475M395.039 262.227C395.335 238.262 399.952 228.804 406.935 228.804C414.126 228.804 418.12 238.925 418.24 262.227H395.039ZM408.621 328.968C431.918 328.968 444.997 314.909 448.736 297.814C449.223 295.553 448.041 294.866 446.339 296.336C439.805 301.957 431.461 305.029 422.842 304.987C406.232 304.987 396.205 294.866 395.119 269.041H446.443C446.729 269.07 447.019 269.043 447.295 268.96C447.571 268.877 447.828 268.741 448.051 268.558C448.274 268.375 448.458 268.15 448.594 267.896C448.729 267.641 448.813 267.363 448.84 267.076C449.001 265.539 449.065 263.995 449.031 262.45C449.031 241.681 434.291 222.35 410.003 222.35C383.271 222.35 361.643 243.878 361.643 277.788C361.643 311.338 382.416 329 408.629 329M298.783 233.118H310.287V300.65C310.287 320.405 302.809 322.274 302.809 325.222C302.809 326.204 303.401 326.987 304.974 326.987H350.298C351.896 326.987 352.455 326.188 352.455 325.222C352.455 322.074 343.515 320.429 343.515 300.65V233.118H360.421C360.718 233.159 361.021 233.132 361.307 233.04C361.593 232.947 361.854 232.791 362.071 232.584C362.289 232.377 362.456 232.123 362.562 231.842C362.668 231.561 362.709 231.26 362.682 230.961V226.631C362.719 226.326 362.687 226.015 362.586 225.724C362.486 225.433 362.321 225.168 362.103 224.95C361.885 224.732 361.62 224.567 361.329 224.466C361.037 224.366 360.727 224.333 360.421 224.371H347.838C343.411 224.371 340.759 222.773 337.451 218.084L334.599 214.09C329.286 206.621 326.61 199.935 326.61 194.335C326.61 186.866 331.403 182.936 337.619 182.936C345.489 182.936 351.089 189.127 362.786 201.908C364.064 203.378 365.342 202.787 365.342 201.109V178.503C365.342 177.224 364.751 176.442 363.744 176.242C358.52 174.683 353.089 173.929 347.638 174.005C322.375 174.005 310.287 193.273 310.287 214.41V222.47L298.191 230.034C296.594 231.017 297.009 233.078 298.783 233.078M248.641 193.177C248.632 196.978 249.75 200.697 251.854 203.863C253.958 207.029 256.954 209.5 260.463 210.963C263.972 212.426 267.836 212.817 271.567 212.084C275.297 211.352 278.727 209.53 281.422 206.849C284.117 204.168 285.956 200.748 286.707 197.021C287.458 193.295 287.087 189.43 285.641 185.914C284.195 182.399 281.739 179.391 278.583 177.271C275.427 175.151 271.713 174.015 267.912 174.005C262.819 174.011 257.936 176.03 254.326 179.622C250.716 183.213 248.673 188.085 248.641 193.177ZM246.093 326.947H289.93C291.528 326.947 292.096 326.148 292.096 325.182C292.096 322.234 284.625 320.389 284.625 300.61V222.19C284.635 222.101 284.622 222.012 284.59 221.929C284.557 221.846 284.504 221.773 284.437 221.714C284.369 221.656 284.289 221.615 284.202 221.595C284.115 221.575 284.025 221.576 283.938 221.599L246.188 229.851C244.71 230.146 243.927 230.833 243.927 232.015C243.927 235.067 251.398 235.65 251.398 250.892V300.626C251.398 320.381 243.927 322.25 243.927 325.198C243.927 326.18 244.519 326.963 246.093 326.963M143.165 326.963H227.805C228.186 326.999 228.571 326.959 228.937 326.845C229.303 326.73 229.642 326.544 229.935 326.297C230.228 326.05 230.469 325.748 230.644 325.406C230.819 325.065 230.924 324.693 230.953 324.311L237.536 288.436C237.832 286.766 236.353 286.04 235.075 287.453L216.124 306.817C206.289 316.842 202.846 320.085 191.541 320.085H184.47V212.349C184.47 192.594 191.94 190.725 191.94 187.777C191.94 186.794 191.349 186.012 189.775 186.012H143.165C141.567 186.012 141 186.81 141 187.777C141 190.725 148.47 192.57 148.47 212.349V300.618C148.47 320.373 141 322.242 141 325.19C141 326.172 141.591 326.955 143.165 326.955" fill="white"/>
</svg>
