<svg width="164" height="73" viewBox="0 0 164 73" fill="none" xmlns="http://www.w3.org/2000/svg">
<g clip-path="url(#clip0_1398_4447)">
<path d="M99.1897 50.7189H121.547V59.9108H88.3997V12.7104H99.1897V50.7189Z" fill="white"/>
<path d="M145.277 41.9164H154.064V50.1758C152.451 50.7974 149.287 51.419 146.286 51.419C136.57 51.419 133.339 46.4335 133.339 36.3093C133.339 26.6471 136.414 20.9612 146.122 20.9612C151.532 20.9612 154.601 22.6769 157.148 25.9488L163.86 19.7159C159.76 13.8084 152.607 12.0181 145.888 12.0181C130.787 12.0119 122.846 20.3375 122.846 36.2285C122.846 52.0406 130.022 60.6129 145.808 60.6129C153.058 60.6129 160.143 58.748 163.999 56.0149V33.1141H145.277V41.9164Z" fill="white"/>
<path d="M36.1097 73.0039C56.0544 73.0039 72.222 56.661 72.221 36.501C72.22 16.341 56.0509 -0.00195313 36.1062 -0.00195313C16.1615 -0.00195313 -0.00605817 16.341 -0.00509874 36.501C-0.0041393 56.661 16.165 73.0039 36.1097 73.0039Z" fill="#FD312E"/>
<path d="M44.9537 49.1151H37.573V21.0879H34.8442V51.8813H37.5792V51.8627H44.9598L44.9537 49.1151Z" fill="white"/>
<path d="M63.3622 37.6605H44.9967V34.9108H66.0541C66.0828 35.4434 66.0972 35.9759 66.0972 36.5146C66.0972 53.0707 52.7464 66.4896 36.2814 66.4896C19.8164 66.4896 6.46362 53.0769 6.46362 36.5126C6.46362 19.9482 19.8123 6.5376 36.2794 6.5376C36.714 6.5376 37.1466 6.54658 37.5771 6.56453V9.29349C37.1466 9.27415 36.7154 9.26448 36.2835 9.26448C21.3172 9.26448 9.18011 21.465 9.18011 36.5126C9.18011 51.5601 21.3151 63.7627 36.2835 63.7627C50.8398 63.7627 62.7308 52.2191 63.3602 37.7372L63.3622 37.6605Z" fill="white"/>
<path d="M25.1565 29.3846C25.98 29.3805 26.7838 29.1299 27.4665 28.6646C28.1493 28.1992 28.6803 27.5399 28.9926 26.7698C29.305 25.9997 29.3846 25.1533 29.2214 24.3375C29.0583 23.5217 28.6597 22.7731 28.076 22.186C27.4923 21.5989 26.7496 21.1998 25.9417 21.0389C25.1337 20.878 24.2967 20.9627 23.5363 21.2821C22.7759 21.6015 22.1261 22.1415 21.6691 22.8338C21.212 23.5261 20.968 24.3397 20.968 25.172C20.9694 25.7266 21.0788 26.2754 21.29 26.7873C21.5012 27.2991 21.8101 27.7639 22.199 28.155C22.588 28.5462 23.0494 28.8561 23.5568 29.0671C24.0642 29.2781 24.6078 29.3859 25.1565 29.3846Z" fill="white"/>
</g>
<defs>
<clipPath id="clip0_1398_4447">
<rect width="164" height="73" fill="white"/>
</clipPath>
</defs>
</svg>
