<svg width="722" height="357" viewBox="0 0 722 357" fill="none" xmlns="http://www.w3.org/2000/svg">
<rect width="722" height="357" rx="12.8929" fill="#262626"/>
<path d="M108.692 140H99.146V90.808H82.118V82.208H125.806V90.808H108.692V140ZM132.273 91.582V82.208H141.819V91.582H132.273ZM132.273 140V98.032H141.819V140H132.273ZM148.254 98.032H154.618V87.368H164.164V98.032H174.226V106.374H164.164V128.562C164.164 131.314 165.196 131.916 168.034 131.916H174.226V140H167.002C160.38 140 154.618 137.076 154.618 129.422V106.374H148.254V98.032ZM191.945 140.86C185.323 140.86 181.109 138.194 181.109 131.056V82.208H190.655V129.422C190.655 132.174 191.515 132.776 194.009 132.776H195.643V140.86H191.945ZM240.493 127.788C237.655 136.216 229.829 141.204 220.541 141.204C208.415 141.204 199.041 132.346 199.041 118.93C199.041 105.686 208.415 96.914 220.283 96.914C230.861 96.914 241.267 104.224 241.267 119.102V121.768H208.587C209.275 130.11 212.887 132.776 220.541 132.776C226.389 132.776 229.227 131.4 230.947 127.788H240.493ZM208.759 114.716H231.893C231.119 107.922 227.679 105.256 220.283 105.256C213.317 105.256 209.705 107.664 208.759 114.716Z" fill="#F7F3EB"/>
<path d="M443.843 104.071V105H438.157V95.4H439.257V104.071H443.843ZM448.784 104.214C449.165 104.214 449.531 104.19 449.884 104.143C450.246 104.086 450.589 104.005 450.912 103.9V101.014H448.455V100.086H451.998V104.529C451.57 104.69 451.065 104.833 450.484 104.957C449.903 105.081 449.327 105.143 448.755 105.143C447.965 105.143 447.289 105.038 446.727 104.829C446.174 104.61 445.722 104.295 445.37 103.886C445.017 103.467 444.76 102.952 444.598 102.343C444.446 101.724 444.37 101.01 444.37 100.2C444.37 98.5048 444.717 97.2571 445.412 96.4571C446.117 95.6571 447.155 95.2571 448.527 95.2571C449.298 95.2571 449.965 95.3762 450.527 95.6143C451.089 95.8429 451.555 96.1571 451.927 96.5571L451.27 97.3C450.917 96.9286 450.522 96.6524 450.084 96.4714C449.646 96.2905 449.127 96.2 448.527 96.2C447.508 96.2 446.741 96.5238 446.227 97.1714C445.722 97.8095 445.47 98.819 445.47 100.2C445.47 101.571 445.727 102.586 446.241 103.243C446.755 103.89 447.603 104.214 448.784 104.214ZM464.174 104.071V105H458.274V95.4H464.031V96.3429H459.374V99.5286H463.86V100.457H459.374V104.071H464.174ZM466.327 95.4H467.427V105H466.327V95.4ZM481.228 95.4V105H480.114V100.443H474.999V105H473.899V95.4H474.999V99.5H480.114V95.4H481.228ZM486.139 105.143C485.016 105.143 484.216 104.852 483.739 104.271C483.273 103.681 483.039 102.771 483.039 101.543C483.039 100.305 483.277 99.3952 483.754 98.8143C484.23 98.2333 484.958 97.9429 485.939 97.9429C486.92 97.9429 487.649 98.2286 488.125 98.8C488.601 99.3619 488.839 100.257 488.839 101.486V101.943H484.154C484.192 102.762 484.368 103.348 484.682 103.7C484.997 104.052 485.487 104.229 486.154 104.229C486.554 104.229 486.944 104.171 487.325 104.057C487.716 103.933 488.077 103.767 488.411 103.557L488.768 104.429C488.406 104.648 487.997 104.824 487.539 104.957C487.092 105.081 486.625 105.143 486.139 105.143ZM487.725 101.057C487.677 100.314 487.511 99.7667 487.225 99.4143C486.939 99.0524 486.511 98.8714 485.939 98.8714C485.368 98.8714 484.939 99.0524 484.654 99.4143C484.368 99.7667 484.201 100.314 484.154 101.057H487.725ZM495.539 105H494.725L494.554 104.357C494.268 104.605 493.93 104.8 493.539 104.943C493.158 105.076 492.739 105.143 492.282 105.143C491.568 105.143 491.03 104.962 490.668 104.6C490.316 104.229 490.139 103.7 490.139 103.014C490.139 102.31 490.358 101.79 490.797 101.457C491.235 101.114 491.968 100.943 492.997 100.943C493.301 100.943 493.568 100.948 493.797 100.957C494.035 100.967 494.254 100.986 494.454 101.014V100.629C494.454 99.9905 494.33 99.5381 494.082 99.2714C493.835 98.9952 493.397 98.8571 492.768 98.8571C492.473 98.8571 492.149 98.9095 491.797 99.0143C491.454 99.1095 491.106 99.2524 490.754 99.4429L490.425 98.6143C490.806 98.4048 491.211 98.2429 491.639 98.1286C492.068 98.0048 492.511 97.9429 492.968 97.9429C493.454 97.9429 493.858 97.9905 494.182 98.0857C494.516 98.181 494.782 98.3381 494.982 98.5571C495.182 98.7667 495.325 99.0381 495.411 99.3714C495.497 99.7048 495.539 100.114 495.539 100.6V105ZM492.582 104.243C492.897 104.243 493.22 104.176 493.554 104.043C493.897 103.9 494.197 103.714 494.454 103.486V101.9C494.206 101.871 493.958 101.852 493.711 101.843C493.463 101.824 493.187 101.814 492.882 101.814C492.282 101.814 491.854 101.905 491.597 102.086C491.349 102.267 491.225 102.571 491.225 103C491.225 103.41 491.33 103.719 491.539 103.929C491.749 104.138 492.097 104.243 492.582 104.243ZM502.916 94.9143V105H502.102L501.93 104.414C501.683 104.643 501.392 104.824 501.059 104.957C500.725 105.081 500.359 105.143 499.959 105.143C499.016 105.143 498.306 104.852 497.83 104.271C497.354 103.69 497.116 102.781 497.116 101.543C497.116 100.314 497.344 99.4095 497.802 98.8286C498.268 98.2381 498.949 97.9429 499.844 97.9429C500.244 97.9429 500.611 98.0048 500.944 98.1286C501.287 98.2524 501.578 98.4238 501.816 98.6429V95.0571L502.916 94.9143ZM500.13 104.243C500.463 104.243 500.773 104.176 501.059 104.043C501.354 103.91 501.606 103.729 501.816 103.5V99.6C501.606 99.3714 501.354 99.1905 501.059 99.0571C500.773 98.9238 500.463 98.8571 500.13 98.8571C499.473 98.8571 498.987 99.0667 498.673 99.4857C498.368 99.9048 498.216 100.59 498.216 101.543C498.216 102.505 498.368 103.195 498.673 103.614C498.987 104.033 499.473 104.243 500.13 104.243ZM506.837 105.1C506.789 105.119 506.722 105.129 506.637 105.129C506.551 105.138 506.48 105.143 506.422 105.143C505.937 105.143 505.584 105 505.365 104.714C505.156 104.419 505.051 103.971 505.051 103.371V95.0857L506.137 94.9143V103.214C506.137 103.433 506.146 103.61 506.165 103.743C506.184 103.876 506.218 103.981 506.265 104.057C506.322 104.133 506.394 104.186 506.48 104.214C506.575 104.233 506.694 104.243 506.837 104.243V105.1ZM508.525 98.0857H509.611V105H508.525V98.0857ZM508.511 95.1143H509.611V96.5429H508.511V95.1143ZM512.744 98.7857C513.068 98.5286 513.425 98.3238 513.816 98.1714C514.206 98.019 514.616 97.9429 515.044 97.9429C515.844 97.9429 516.416 98.1381 516.758 98.5286C517.111 98.9095 517.287 99.5333 517.287 100.4V105H516.201V100.7C516.201 100.014 516.087 99.5381 515.858 99.2714C515.639 99.0048 515.296 98.8714 514.83 98.8714C514.163 98.8714 513.496 99.1143 512.83 99.6V105H511.744V98.0857H512.558L512.744 98.7857ZM521.965 105.143C520.841 105.143 520.041 104.852 519.565 104.271C519.099 103.681 518.865 102.771 518.865 101.543C518.865 100.305 519.103 99.3952 519.58 98.8143C520.056 98.2333 520.784 97.9429 521.765 97.9429C522.746 97.9429 523.475 98.2286 523.951 98.8C524.427 99.3619 524.665 100.257 524.665 101.486V101.943H519.98C520.018 102.762 520.194 103.348 520.508 103.7C520.822 104.052 521.313 104.229 521.98 104.229C522.38 104.229 522.77 104.171 523.151 104.057C523.541 103.933 523.903 103.767 524.237 103.557L524.594 104.429C524.232 104.648 523.822 104.824 523.365 104.957C522.918 105.081 522.451 105.143 521.965 105.143ZM523.551 101.057C523.503 100.314 523.337 99.7667 523.051 99.4143C522.765 99.0524 522.337 98.8714 521.765 98.8714C521.194 98.8714 520.765 99.0524 520.48 99.4143C520.194 99.7667 520.027 100.314 519.98 101.057H523.551ZM441.671 120.029V122.386H440.671V120.029H438.229V119.086H440.671V116.743H441.671V119.086H444.143V120.029H441.671ZM448.67 124V115.543L446.256 117.171L445.713 116.357L448.67 114.4H449.784V124H448.67ZM454.065 124.429H453.036L459.994 113.914H461.008L454.065 124.429ZM452.208 116.8C452.208 115.933 452.375 115.29 452.708 114.871C453.041 114.443 453.522 114.229 454.151 114.229C454.779 114.229 455.26 114.443 455.594 114.871C455.927 115.29 456.094 115.933 456.094 116.8C456.094 117.667 455.927 118.314 455.594 118.743C455.26 119.171 454.779 119.386 454.151 119.386C453.522 119.386 453.041 119.171 452.708 118.743C452.375 118.314 452.208 117.667 452.208 116.8ZM453.194 116.8C453.194 117.962 453.513 118.543 454.151 118.543C454.789 118.543 455.108 117.962 455.108 116.8C455.108 115.638 454.789 115.057 454.151 115.057C453.513 115.057 453.194 115.638 453.194 116.8ZM457.994 121.529C457.994 120.662 458.16 120.019 458.494 119.6C458.827 119.171 459.308 118.957 459.936 118.957C460.565 118.957 461.046 119.171 461.379 119.6C461.713 120.019 461.879 120.662 461.879 121.529C461.879 122.395 461.713 123.043 461.379 123.471C461.046 123.89 460.565 124.1 459.936 124.1C459.308 124.1 458.827 123.89 458.494 123.471C458.16 123.043 457.994 122.395 457.994 121.529ZM458.979 121.529C458.979 122.69 459.298 123.271 459.936 123.271C460.575 123.271 460.894 122.69 460.894 121.529C460.894 120.367 460.575 119.786 459.936 119.786C459.298 119.786 458.979 120.367 458.979 121.529ZM469.077 118.014V121.429C469.077 121.743 469.091 122.014 469.119 122.243C469.148 122.471 469.205 122.662 469.291 122.814C469.386 122.957 469.515 123.062 469.677 123.129C469.848 123.195 470.077 123.229 470.362 123.229C470.572 123.229 470.777 123.205 470.977 123.157C471.186 123.11 471.386 123.052 471.577 122.986L471.791 123.814C471.219 124.033 470.643 124.143 470.062 124.143C469.643 124.143 469.296 124.086 469.019 123.971C468.753 123.857 468.538 123.7 468.377 123.5C468.224 123.29 468.119 123.043 468.062 122.757C468.005 122.462 467.977 122.138 467.977 121.786V118.014H466.848V117.086H467.977V115.629L469.077 115.429V117.086H471.519V118.014H469.077ZM473.929 117.086L474.057 118C474.372 117.657 474.724 117.395 475.114 117.214C475.505 117.033 475.9 116.943 476.3 116.943C476.462 116.943 476.6 116.957 476.714 116.986C476.838 117.005 476.967 117.038 477.1 117.086V118.057C476.814 117.943 476.514 117.886 476.2 117.886C475.838 117.886 475.476 117.986 475.114 118.186C474.752 118.386 474.443 118.638 474.186 118.943V124H473.1V117.086H473.929ZM483.095 124H482.281L482.109 123.357C481.824 123.605 481.486 123.8 481.095 123.943C480.714 124.076 480.295 124.143 479.838 124.143C479.124 124.143 478.586 123.962 478.224 123.6C477.871 123.229 477.695 122.7 477.695 122.014C477.695 121.31 477.914 120.79 478.352 120.457C478.79 120.114 479.524 119.943 480.552 119.943C480.857 119.943 481.124 119.948 481.352 119.957C481.59 119.967 481.809 119.986 482.009 120.014V119.629C482.009 118.99 481.886 118.538 481.638 118.271C481.39 117.995 480.952 117.857 480.324 117.857C480.029 117.857 479.705 117.91 479.352 118.014C479.009 118.11 478.662 118.252 478.309 118.443L477.981 117.614C478.362 117.405 478.767 117.243 479.195 117.129C479.624 117.005 480.067 116.943 480.524 116.943C481.009 116.943 481.414 116.99 481.738 117.086C482.071 117.181 482.338 117.338 482.538 117.557C482.738 117.767 482.881 118.038 482.967 118.371C483.052 118.705 483.095 119.114 483.095 119.6V124ZM480.138 123.243C480.452 123.243 480.776 123.176 481.109 123.043C481.452 122.9 481.752 122.714 482.009 122.486V120.9C481.762 120.871 481.514 120.852 481.267 120.843C481.019 120.824 480.743 120.814 480.438 120.814C479.838 120.814 479.409 120.905 479.152 121.086C478.905 121.267 478.781 121.571 478.781 122C478.781 122.41 478.886 122.719 479.095 122.929C479.305 123.138 479.652 123.243 480.138 123.243ZM487.957 123.229C488.624 123.229 489.219 123.062 489.743 122.729L490.057 123.6C489.781 123.762 489.462 123.895 489.1 124C488.748 124.095 488.367 124.143 487.957 124.143C486.824 124.143 485.995 123.862 485.472 123.3C484.948 122.729 484.686 121.81 484.686 120.543C484.686 119.305 484.938 118.395 485.443 117.814C485.948 117.233 486.738 116.943 487.815 116.943C488.738 116.943 489.495 117.224 490.086 117.786L489.486 118.529C489.276 118.319 489.029 118.157 488.743 118.043C488.467 117.919 488.167 117.857 487.843 117.857C487.157 117.857 486.638 118.067 486.286 118.486C485.943 118.895 485.772 119.581 485.772 120.543C485.772 121.505 485.953 122.195 486.315 122.614C486.676 123.024 487.224 123.229 487.957 123.229ZM491.529 124V114.057L492.629 113.914V119.786H493.301L495.886 117.086H497.215L494.172 120.257L497.301 124H495.972L493.286 120.714H492.629V124H491.529ZM498.62 117.086H499.706V124H498.62V117.086ZM498.606 114.114H499.706V115.543H498.606V114.114ZM502.839 117.786C503.163 117.529 503.52 117.324 503.91 117.171C504.301 117.019 504.71 116.943 505.139 116.943C505.939 116.943 506.51 117.138 506.853 117.529C507.206 117.91 507.382 118.533 507.382 119.4V124H506.296V119.7C506.296 119.014 506.182 118.538 505.953 118.271C505.734 118.005 505.391 117.871 504.925 117.871C504.258 117.871 503.591 118.114 502.925 118.6V124H501.839V117.086H502.653L502.839 117.786ZM514.76 117.086V124.086C514.76 125.143 514.503 125.91 513.989 126.386C513.484 126.871 512.727 127.114 511.717 127.114C511.317 127.114 510.936 127.081 510.574 127.014C510.213 126.957 509.893 126.876 509.617 126.771L509.846 125.871C510.389 126.081 511.008 126.186 511.703 126.186C512.389 126.186 512.884 126.029 513.189 125.714C513.503 125.4 513.66 124.886 513.66 124.171V123.457C513.422 123.676 513.132 123.848 512.789 123.971C512.455 124.086 512.089 124.143 511.689 124.143C510.793 124.143 510.113 123.852 509.646 123.271C509.189 122.69 508.96 121.781 508.96 120.543C508.96 119.314 509.198 118.41 509.674 117.829C510.151 117.238 510.86 116.943 511.803 116.943C512.203 116.943 512.57 117.01 512.903 117.143C513.236 117.276 513.527 117.457 513.774 117.686L513.946 117.086H514.76ZM511.974 117.857C511.317 117.857 510.832 118.067 510.517 118.486C510.213 118.905 510.06 119.59 510.06 120.543C510.06 121.505 510.213 122.195 510.517 122.614C510.832 123.033 511.317 123.243 511.974 123.243C512.308 123.243 512.617 123.176 512.903 123.043C513.198 122.91 513.451 122.729 513.66 122.5V118.6C513.451 118.371 513.198 118.19 512.903 118.057C512.617 117.924 512.308 117.857 511.974 117.857Z" fill="#F7F3EB"/>
<path d="M93.72 270.4C95.72 270.4 97.2267 269.973 98.24 269.12C99.2533 268.24 99.76 267.027 99.76 265.48C99.76 263.8 99.2667 262.52 98.28 261.64C97.32 260.733 95.84 260.28 93.84 260.28H87.32V270.4H93.72ZM98.92 253.24C98.92 250.253 97.2133 248.76 93.8 248.76H87.32V257.76H93.6C95.44 257.76 96.7867 257.36 97.64 256.56C98.4933 255.733 98.92 254.627 98.92 253.24ZM102 252.84C102 254.44 101.64 255.747 100.92 256.76C100.227 257.747 99.28 258.44 98.08 258.84C99.6267 259.267 100.8 260.04 101.6 261.16C102.427 262.28 102.84 263.72 102.84 265.48C102.84 267.907 102.04 269.773 100.44 271.08C98.8667 272.36 96.7067 273 93.96 273H84.24V246.12H93.72C96.3867 246.12 98.4267 246.707 99.84 247.88C101.28 249.027 102 250.68 102 252.84ZM106.785 263.32C106.785 259.853 107.479 257.307 108.865 255.68C110.279 254.053 112.519 253.24 115.585 253.24C118.625 253.24 120.839 254.053 122.225 255.68C123.639 257.307 124.345 259.853 124.345 263.32C124.345 266.787 123.639 269.333 122.225 270.96C120.812 272.587 118.599 273.4 115.585 273.4C112.545 273.4 110.319 272.587 108.905 270.96C107.492 269.333 106.785 266.787 106.785 263.32ZM109.865 263.32C109.865 265.96 110.319 267.88 111.225 269.08C112.132 270.253 113.585 270.84 115.585 270.84C117.585 270.84 119.039 270.253 119.945 269.08C120.852 267.88 121.305 265.96 121.305 263.32C121.305 260.733 120.852 258.84 119.945 257.64C119.039 256.44 117.585 255.84 115.585 255.84C113.585 255.84 112.132 256.44 111.225 257.64C110.319 258.84 109.865 260.733 109.865 263.32ZM144.314 244.76V273H142.034L141.554 271.36C140.861 272 140.048 272.507 139.114 272.88C138.181 273.227 137.154 273.4 136.034 273.4C133.394 273.4 131.408 272.587 130.074 270.96C128.741 269.333 128.074 266.787 128.074 263.32C128.074 259.88 128.714 257.347 129.994 255.72C131.301 254.067 133.208 253.24 135.714 253.24C136.834 253.24 137.861 253.413 138.794 253.76C139.754 254.107 140.568 254.587 141.234 255.2V245.16L144.314 244.76ZM136.514 270.88C137.448 270.88 138.314 270.693 139.114 270.32C139.941 269.947 140.648 269.44 141.234 268.8V257.88C140.648 257.24 139.941 256.733 139.114 256.36C138.314 255.987 137.448 255.8 136.514 255.8C134.674 255.8 133.314 256.387 132.434 257.56C131.581 258.733 131.154 260.653 131.154 263.32C131.154 266.013 131.581 267.947 132.434 269.12C133.314 270.293 134.674 270.88 136.514 270.88ZM147.733 253.64H150.933L156.533 268.8H156.653L161.893 253.64H165.053L157.213 275.48C156.813 276.653 156.373 277.627 155.893 278.4C155.413 279.2 154.866 279.84 154.253 280.32C153.666 280.827 152.986 281.187 152.213 281.4C151.466 281.613 150.599 281.72 149.613 281.72C148.866 281.72 148.279 281.64 147.853 281.48L148.293 278.96C148.719 279.067 149.239 279.12 149.853 279.12C150.413 279.12 150.906 279.027 151.333 278.84C151.786 278.653 152.173 278.413 152.493 278.12C152.839 277.827 153.133 277.493 153.373 277.12C153.613 276.747 153.813 276.36 153.973 275.96L155.173 272.76L147.733 253.64ZM187.86 270.84C189.727 270.84 191.394 270.373 192.86 269.44L193.74 271.88C192.967 272.333 192.074 272.707 191.06 273C190.074 273.267 189.007 273.4 187.86 273.4C184.687 273.4 182.367 272.613 180.9 271.04C179.434 269.44 178.7 266.867 178.7 263.32C178.7 259.853 179.407 257.307 180.82 255.68C182.234 254.053 184.447 253.24 187.46 253.24C190.047 253.24 192.167 254.027 193.82 255.6L192.14 257.68C191.554 257.093 190.86 256.64 190.06 256.32C189.287 255.973 188.447 255.8 187.54 255.8C185.62 255.8 184.167 256.387 183.18 257.56C182.22 258.707 181.74 260.627 181.74 263.32C181.74 266.013 182.247 267.947 183.26 269.12C184.274 270.267 185.807 270.84 187.86 270.84ZM195.926 263.32C195.926 259.853 196.619 257.307 198.006 255.68C199.419 254.053 201.659 253.24 204.726 253.24C207.766 253.24 209.979 254.053 211.366 255.68C212.779 257.307 213.486 259.853 213.486 263.32C213.486 266.787 212.779 269.333 211.366 270.96C209.953 272.587 207.739 273.4 204.726 273.4C201.686 273.4 199.459 272.587 198.046 270.96C196.633 269.333 195.926 266.787 195.926 263.32ZM199.006 263.32C199.006 265.96 199.459 267.88 200.366 269.08C201.273 270.253 202.726 270.84 204.726 270.84C206.726 270.84 208.179 270.253 209.086 269.08C209.993 267.88 210.446 265.96 210.446 263.32C210.446 260.733 209.993 258.84 209.086 257.64C208.179 256.44 206.726 255.84 204.726 255.84C202.726 255.84 201.273 256.44 200.366 257.64C199.459 258.84 199.006 260.733 199.006 263.32ZM220.415 253.64L220.935 255.32C221.628 254.68 222.428 254.173 223.335 253.8C224.268 253.427 225.295 253.24 226.415 253.24C229.055 253.24 231.042 254.067 232.375 255.72C233.708 257.347 234.375 259.88 234.375 263.32C234.375 266.787 233.722 269.333 232.415 270.96C231.135 272.587 229.242 273.4 226.735 273.4C225.668 273.4 224.642 273.24 223.655 272.92C222.668 272.573 221.855 272.093 221.215 271.48V281.32H218.135V253.64H220.415ZM225.935 255.8C225.002 255.8 224.122 255.987 223.295 256.36C222.495 256.733 221.802 257.24 221.215 257.88V268.8C221.802 269.44 222.495 269.947 223.295 270.32C224.122 270.693 225.002 270.88 225.935 270.88C227.775 270.88 229.135 270.293 230.015 269.12C230.895 267.947 231.335 266.013 231.335 263.32C231.335 260.653 230.895 258.733 230.015 257.56C229.135 256.387 227.775 255.8 225.935 255.8ZM236.405 253.64H239.605L245.205 268.8H245.325L250.565 253.64H253.725L245.885 275.48C245.485 276.653 245.045 277.627 244.565 278.4C244.085 279.2 243.538 279.84 242.925 280.32C242.338 280.827 241.658 281.187 240.885 281.4C240.138 281.613 239.271 281.72 238.285 281.72C237.538 281.72 236.951 281.64 236.525 281.48L236.965 278.96C237.391 279.067 237.911 279.12 238.525 279.12C239.085 279.12 239.578 279.027 240.005 278.84C240.458 278.653 240.845 278.413 241.165 278.12C241.511 277.827 241.805 277.493 242.045 277.12C242.285 276.747 242.485 276.36 242.645 275.96L243.845 272.76L236.405 253.64Z" fill="#F7F3EB"/>
<path d="M443.843 261.071V262H438.157V252.4H439.257V261.071H443.843ZM448.784 261.214C449.165 261.214 449.531 261.19 449.884 261.143C450.246 261.086 450.589 261.005 450.912 260.9V258.014H448.455V257.086H451.998V261.529C451.57 261.69 451.065 261.833 450.484 261.957C449.903 262.081 449.327 262.143 448.755 262.143C447.965 262.143 447.289 262.038 446.727 261.829C446.174 261.61 445.722 261.295 445.37 260.886C445.017 260.467 444.76 259.952 444.598 259.343C444.446 258.724 444.37 258.01 444.37 257.2C444.37 255.505 444.717 254.257 445.412 253.457C446.117 252.657 447.155 252.257 448.527 252.257C449.298 252.257 449.965 252.376 450.527 252.614C451.089 252.843 451.555 253.157 451.927 253.557L451.27 254.3C450.917 253.929 450.522 253.652 450.084 253.471C449.646 253.29 449.127 253.2 448.527 253.2C447.508 253.2 446.741 253.524 446.227 254.171C445.722 254.81 445.47 255.819 445.47 257.2C445.47 258.571 445.727 259.586 446.241 260.243C446.755 260.89 447.603 261.214 448.784 261.214ZM464.174 261.071V262H458.274V252.4H464.031V253.343H459.374V256.529H463.86V257.457H459.374V261.071H464.174ZM466.327 252.4H467.427V262H466.327V252.4ZM479.999 252.4V253.329H477.042V262H475.942V253.329H472.999V252.4H479.999ZM482.875 262.143C481.751 262.143 480.951 261.852 480.475 261.271C480.008 260.681 479.775 259.771 479.775 258.543C479.775 257.305 480.013 256.395 480.489 255.814C480.965 255.233 481.694 254.943 482.675 254.943C483.656 254.943 484.384 255.229 484.861 255.8C485.337 256.362 485.575 257.257 485.575 258.486V258.943H480.889C480.927 259.762 481.103 260.348 481.418 260.7C481.732 261.052 482.223 261.229 482.889 261.229C483.289 261.229 483.68 261.171 484.061 261.057C484.451 260.933 484.813 260.767 485.146 260.557L485.503 261.429C485.142 261.648 484.732 261.824 484.275 261.957C483.827 262.081 483.361 262.143 482.875 262.143ZM484.461 258.057C484.413 257.314 484.246 256.767 483.961 256.414C483.675 256.052 483.246 255.871 482.675 255.871C482.103 255.871 481.675 256.052 481.389 256.414C481.103 256.767 480.937 257.314 480.889 258.057H484.461ZM489.565 259.329H489.522L487.665 262H486.407L488.922 258.471L486.493 255.086H487.75L489.522 257.657H489.565L491.35 255.086H492.607L490.179 258.471L492.679 262H491.422L489.565 259.329ZM495.541 256.014V259.429C495.541 259.743 495.556 260.014 495.584 260.243C495.613 260.471 495.67 260.662 495.756 260.814C495.851 260.957 495.979 261.062 496.141 261.129C496.313 261.195 496.541 261.229 496.827 261.229C497.037 261.229 497.241 261.205 497.441 261.157C497.651 261.11 497.851 261.052 498.041 260.986L498.256 261.814C497.684 262.033 497.108 262.143 496.527 262.143C496.108 262.143 495.76 262.086 495.484 261.971C495.218 261.857 495.003 261.7 494.841 261.5C494.689 261.29 494.584 261.043 494.527 260.757C494.47 260.462 494.441 260.138 494.441 259.786V256.014H493.313V255.086H494.441V253.629L495.541 253.429V255.086H497.984V256.014H495.541ZM437.857 276.214C437.857 275.367 437.933 274.633 438.086 274.014C438.248 273.386 438.476 272.871 438.771 272.471C439.067 272.062 439.424 271.757 439.843 271.557C440.262 271.357 440.729 271.257 441.243 271.257C441.767 271.257 442.238 271.357 442.657 271.557C443.076 271.757 443.433 272.062 443.729 272.471C444.024 272.871 444.248 273.386 444.4 274.014C444.562 274.633 444.643 275.367 444.643 276.214C444.643 277.062 444.562 277.795 444.4 278.414C444.248 279.024 444.024 279.533 443.729 279.943C443.433 280.352 443.076 280.657 442.657 280.857C442.238 281.048 441.767 281.143 441.243 281.143C440.205 281.143 439.381 280.743 438.771 279.943C438.162 279.143 437.857 277.9 437.857 276.214ZM438.957 276.214C438.957 277.538 439.157 278.538 439.557 279.214C439.967 279.89 440.529 280.229 441.243 280.229C441.957 280.229 442.519 279.89 442.929 279.214C443.338 278.538 443.543 277.538 443.543 276.214C443.543 274.89 443.338 273.89 442.929 273.214C442.519 272.529 441.957 272.186 441.243 272.186C440.529 272.186 439.967 272.529 439.557 273.214C439.157 273.89 438.957 274.89 438.957 276.214ZM448.024 281.429H446.996L453.953 270.914H454.967L448.024 281.429ZM446.167 273.8C446.167 272.933 446.334 272.29 446.667 271.871C447.001 271.443 447.481 271.229 448.11 271.229C448.739 271.229 449.22 271.443 449.553 271.871C449.886 272.29 450.053 272.933 450.053 273.8C450.053 274.667 449.886 275.314 449.553 275.743C449.22 276.171 448.739 276.386 448.11 276.386C447.481 276.386 447.001 276.171 446.667 275.743C446.334 275.314 446.167 274.667 446.167 273.8ZM447.153 273.8C447.153 274.962 447.472 275.543 448.11 275.543C448.748 275.543 449.067 274.962 449.067 273.8C449.067 272.638 448.748 272.057 448.11 272.057C447.472 272.057 447.153 272.638 447.153 273.8ZM451.953 278.529C451.953 277.662 452.12 277.019 452.453 276.6C452.786 276.171 453.267 275.957 453.896 275.957C454.524 275.957 455.005 276.171 455.339 276.6C455.672 277.019 455.839 277.662 455.839 278.529C455.839 279.395 455.672 280.043 455.339 280.471C455.005 280.89 454.524 281.1 453.896 281.1C453.267 281.1 452.786 280.89 452.453 280.471C452.12 280.043 451.953 279.395 451.953 278.529ZM452.939 278.529C452.939 279.69 453.258 280.271 453.896 280.271C454.534 280.271 454.853 279.69 454.853 278.529C454.853 277.367 454.534 276.786 453.896 276.786C453.258 276.786 452.939 277.367 452.939 278.529ZM463.036 275.014V278.429C463.036 278.743 463.05 279.014 463.079 279.243C463.107 279.471 463.164 279.662 463.25 279.814C463.345 279.957 463.474 280.062 463.636 280.129C463.807 280.195 464.036 280.229 464.322 280.229C464.531 280.229 464.736 280.205 464.936 280.157C465.145 280.11 465.345 280.052 465.536 279.986L465.75 280.814C465.179 281.033 464.602 281.143 464.022 281.143C463.602 281.143 463.255 281.086 462.979 280.971C462.712 280.857 462.498 280.7 462.336 280.5C462.183 280.29 462.079 280.043 462.022 279.757C461.964 279.462 461.936 279.138 461.936 278.786V275.014H460.807V274.086H461.936V272.629L463.036 272.429V274.086H465.479V275.014H463.036ZM467.888 274.086L468.017 275C468.331 274.657 468.683 274.395 469.074 274.214C469.464 274.033 469.859 273.943 470.259 273.943C470.421 273.943 470.559 273.957 470.674 273.986C470.797 274.005 470.926 274.038 471.059 274.086V275.057C470.774 274.943 470.474 274.886 470.159 274.886C469.797 274.886 469.436 274.986 469.074 275.186C468.712 275.386 468.402 275.638 468.145 275.943V281H467.059V274.086H467.888ZM477.054 281H476.24L476.069 280.357C475.783 280.605 475.445 280.8 475.054 280.943C474.674 281.076 474.254 281.143 473.797 281.143C473.083 281.143 472.545 280.962 472.183 280.6C471.831 280.229 471.654 279.7 471.654 279.014C471.654 278.31 471.874 277.79 472.312 277.457C472.75 277.114 473.483 276.943 474.512 276.943C474.816 276.943 475.083 276.948 475.312 276.957C475.55 276.967 475.769 276.986 475.969 277.014V276.629C475.969 275.99 475.845 275.538 475.597 275.271C475.35 274.995 474.912 274.857 474.283 274.857C473.988 274.857 473.664 274.91 473.312 275.014C472.969 275.11 472.621 275.252 472.269 275.443L471.94 274.614C472.321 274.405 472.726 274.243 473.154 274.129C473.583 274.005 474.026 273.943 474.483 273.943C474.969 273.943 475.374 273.99 475.697 274.086C476.031 274.181 476.297 274.338 476.497 274.557C476.697 274.767 476.84 275.038 476.926 275.371C477.012 275.705 477.054 276.114 477.054 276.6V281ZM474.097 280.243C474.412 280.243 474.735 280.176 475.069 280.043C475.412 279.9 475.712 279.714 475.969 279.486V277.9C475.721 277.871 475.474 277.852 475.226 277.843C474.978 277.824 474.702 277.814 474.397 277.814C473.797 277.814 473.369 277.905 473.112 278.086C472.864 278.267 472.74 278.571 472.74 279C472.74 279.41 472.845 279.719 473.054 279.929C473.264 280.138 473.612 280.243 474.097 280.243ZM481.917 280.229C482.583 280.229 483.179 280.062 483.702 279.729L484.017 280.6C483.74 280.762 483.421 280.895 483.059 281C482.707 281.095 482.326 281.143 481.917 281.143C480.783 281.143 479.955 280.862 479.431 280.3C478.907 279.729 478.645 278.81 478.645 277.543C478.645 276.305 478.898 275.395 479.402 274.814C479.907 274.233 480.698 273.943 481.774 273.943C482.698 273.943 483.455 274.224 484.045 274.786L483.445 275.529C483.236 275.319 482.988 275.157 482.702 275.043C482.426 274.919 482.126 274.857 481.802 274.857C481.117 274.857 480.598 275.067 480.245 275.486C479.902 275.895 479.731 276.581 479.731 277.543C479.731 278.505 479.912 279.195 480.274 279.614C480.636 280.024 481.183 280.229 481.917 280.229ZM485.489 281V271.057L486.589 270.914V276.786H487.26L489.846 274.086H491.174L488.131 277.257L491.26 281H489.931L487.246 277.714H486.589V281H485.489ZM492.579 274.086H493.665V281H492.579V274.086ZM492.565 271.114H493.665V272.543H492.565V271.114ZM496.798 274.786C497.122 274.529 497.479 274.324 497.87 274.171C498.26 274.019 498.67 273.943 499.098 273.943C499.898 273.943 500.47 274.138 500.813 274.529C501.165 274.91 501.341 275.533 501.341 276.4V281H500.255V276.7C500.255 276.014 500.141 275.538 499.913 275.271C499.693 275.005 499.351 274.871 498.884 274.871C498.217 274.871 497.551 275.114 496.884 275.6V281H495.798V274.086H496.613L496.798 274.786ZM508.719 274.086V281.086C508.719 282.143 508.462 282.91 507.948 283.386C507.443 283.871 506.686 284.114 505.677 284.114C505.277 284.114 504.896 284.081 504.534 284.014C504.172 283.957 503.853 283.876 503.577 283.771L503.805 282.871C504.348 283.081 504.967 283.186 505.662 283.186C506.348 283.186 506.843 283.029 507.148 282.714C507.462 282.4 507.619 281.886 507.619 281.171V280.457C507.381 280.676 507.091 280.848 506.748 280.971C506.415 281.086 506.048 281.143 505.648 281.143C504.753 281.143 504.072 280.852 503.605 280.271C503.148 279.69 502.919 278.781 502.919 277.543C502.919 276.314 503.158 275.41 503.634 274.829C504.11 274.238 504.819 273.943 505.762 273.943C506.162 273.943 506.529 274.01 506.862 274.143C507.196 274.276 507.486 274.457 507.734 274.686L507.905 274.086H508.719ZM505.934 274.857C505.277 274.857 504.791 275.067 504.477 275.486C504.172 275.905 504.019 276.59 504.019 277.543C504.019 278.505 504.172 279.195 504.477 279.614C504.791 280.033 505.277 280.243 505.934 280.243C506.267 280.243 506.577 280.176 506.862 280.043C507.158 279.91 507.41 279.729 507.619 279.5V275.6C507.41 275.371 507.158 275.19 506.862 275.057C506.577 274.924 506.267 274.857 505.934 274.857Z" fill="#F7F3EB"/>
<path opacity="0.5" d="M81 51L641 51" stroke="#9E9E9E" stroke-width="0.571429"/>
<path opacity="0.5" d="M81 216.714L641 216.714" stroke="#9E9E9E" stroke-width="0.571429"/>
</svg>
