<svg width="60" height="60" viewBox="0 0 60 60" fill="none" xmlns="http://www.w3.org/2000/svg">
<circle cx="30" cy="30" r="30" fill="white"/>
<path d="M38.9789 30.7638H43.0937V29.9135L41.4555 27.3603M36.5114 38.4212H38.9789M17.5846 31.6118L23.3444 21.4012M22.5219 31.6118L28.2818 21.4012M27.4593 31.6118L33.2191 21.4012M14.2923 38.4188H12.6473L11 33.317L19.2296 18H40.6262V19.7006L37.3339 23.9544V38.4188H27.3482M37.2931 24.8047H42.2417C42.7855 24.8047 43.2954 25.0819 43.6013 25.5479L46.4041 29.9089H47.2266C48.1534 29.9089 48.8581 30.5425 48.8581 31.7912V36.7136C48.8581 37.6524 48.1352 38.4188 47.2266 38.4188H45.5658M27.4593 39.2785C27.4593 41.1538 25.9819 42.675 24.1602 42.675C22.3384 42.675 20.8611 41.1538 20.8611 39.2785C20.8611 37.4031 22.3384 35.8819 24.1602 35.8819C25.9819 35.8819 27.4593 37.4008 27.4593 39.2785ZM20.8747 39.2785C20.8747 41.1538 19.3973 42.675 17.5756 42.675C15.7538 42.675 14.2765 41.1538 14.2765 39.2785C14.2765 37.4031 15.7538 35.8819 17.5756 35.8819C19.3973 35.8819 20.8747 37.4008 20.8747 39.2785ZM45.5771 39.2785C45.5771 41.1538 44.0997 42.675 42.278 42.675C40.4562 42.675 38.9789 41.1538 38.9789 39.2785C38.9789 37.4031 40.4562 35.8819 42.278 35.8819C44.0997 35.8819 45.5771 37.4008 45.5771 39.2785Z" stroke="#262626" stroke-linecap="round" stroke-linejoin="round"/>
</svg>
