<svg width="60" height="60" viewBox="0 0 60 60" fill="none" xmlns="http://www.w3.org/2000/svg">
<circle cx="30" cy="30" r="30" fill="#75C66B"/>
<path d="M19.0217 23.3361C19.8719 17.7216 24.5384 13.9381 29.6781 14.0008C34.4225 14.0571 39.1621 17.5087 40.0718 23.3799C40.6641 23.3799 41.2503 23.3687 41.8353 23.3812C46.3936 23.4801 50.3049 27.0645 50.9106 31.6933C51.6063 37.0172 48.1729 41.8076 43.0296 42.6668C42.5224 42.7519 42.0007 42.7807 41.485 42.7807C33.8351 42.7883 26.1852 42.7895 18.5353 42.7845C12.9432 42.7807 8.67308 38.093 9.0197 32.3533C9.29213 27.846 12.8422 23.9886 17.212 23.4651C17.7982 23.395 18.3918 23.3799 19.0217 23.3361Z" stroke="white" stroke-miterlimit="10"/>
<path d="M31.9544 27.0535C29.8815 27.0535 28.1995 28.7828 28.1995 30.9075C28.1995 33.0323 29.8847 34.7616 31.9544 34.7616C34.0241 34.7616 35.7093 33.0323 35.7093 30.9075C35.7093 28.7828 34.0241 27.0535 31.9544 27.0535ZM31.9544 35.4173C29.5283 35.4173 27.5586 33.3923 27.5586 30.9075C27.5586 28.4228 29.5314 26.3946 31.9544 26.3946C34.3774 26.3946 36.3502 28.4196 36.3502 30.9043C36.3502 33.3891 34.3774 35.4141 31.9544 35.4141V35.4173Z" fill="white" stroke="white" stroke-width="0.5"/>
<path d="M23.9208 35.4173C21.4853 35.4173 19.5 33.3923 19.5 30.9076C19.5 28.4229 21.4822 26.3946 23.9208 26.3946C25.0088 26.3946 26.0562 26.806 26.8659 27.5453L26.4376 28.0339C25.7435 27.4039 24.8494 27.0535 23.9239 27.0535C21.8386 27.0535 20.144 28.7829 20.144 30.9076C20.144 33.0323 21.8355 34.7616 23.9208 34.7616C24.8494 34.7616 25.7435 34.4145 26.4345 33.7812L26.8628 34.2698C26.053 35.0091 25.0057 35.4173 23.9177 35.4173H23.9208Z" fill="white" stroke="white" stroke-width="0.5"/>
<path d="M36.8086 37.356V36.2791C36.8086 35.5688 37.3745 34.9902 38.0717 34.9902H39.0002C39.291 34.9902 39.5286 34.7459 39.5286 34.4534V34.0709C39.5286 33.9262 39.4723 33.7912 39.3723 33.6916C39.2722 33.5887 39.1409 33.5341 39.0002 33.5341H38.0779C37.7403 33.5341 37.4683 33.8137 37.4683 34.1576H36.8148C36.8148 33.4473 37.3807 32.8687 38.0779 32.8687H39.0002C39.316 32.8687 39.6099 32.994 39.835 33.219C40.057 33.4473 40.182 33.7494 40.182 34.0709V34.4566C40.182 35.1187 39.6505 35.662 39.0002 35.662H38.0717C37.7371 35.662 37.462 35.9416 37.462 36.2856V36.697H40.2164V37.3624H36.8086V37.356Z" fill="white" stroke="white" stroke-width="0.5"/>
</svg>
