<svg width="336" height="335" viewBox="0 0 336 335" fill="none" xmlns="http://www.w3.org/2000/svg">
<g clip-path="url(#clip0_61_352)">
<rect width="335" height="335" transform="translate(0.396484)" fill="white"/>
<path d="M28.9262 215.643H-43.8474C-50.8927 215.643 -56.6035 209.958 -56.6035 202.946V130.51C-56.6035 123.498 -50.8927 117.814 -43.8474 117.814H28.9382C35.9835 117.814 41.6943 123.51 41.6943 130.51C41.6943 143.77 36.4043 146.522 36.4043 166.722C36.4043 186.922 41.6943 189.603 41.6943 202.958C41.6943 208.762 35.9835 215.655 28.9382 215.655L28.9262 215.643Z" fill="#262626"/>
<path d="M190.27 117.801H239.888C267.023 117.801 289.025 139.7 289.025 166.71C289.025 193.719 267.023 215.618 239.888 215.618H190.294C183.2 215.618 177.502 209.838 177.514 202.79C177.55 189.65 182.804 186.85 182.804 166.722C182.804 146.593 177.514 143.841 177.514 130.486C177.514 124.682 183.224 117.789 190.27 117.789V117.801Z" fill="#262626"/>
<path d="M109.939 225.419C142.514 225.419 168.922 199.134 168.922 166.709C168.922 134.285 142.514 108 109.939 108C77.3629 108 50.9551 134.285 50.9551 166.709C50.9551 199.134 77.3629 225.419 109.939 225.419Z" fill="#262626"/>
<path d="M284.285 123.375C279.67 116.951 284.261 108 292.171 108H377.409C385.229 108 389.841 116.771 385.409 123.213L374.862 138.544C363.177 155.529 363.177 177.96 374.862 194.944L385.409 210.275C389.841 216.718 385.229 225.488 377.409 225.488H292.171C284.261 225.488 279.67 216.538 284.285 210.114L295.093 195.069C307.252 178.143 307.252 155.345 295.093 138.419L284.285 123.375Z" fill="#262626"/>
</g>
<defs>
<clipPath id="clip0_61_352">
<rect width="335" height="335" fill="white" transform="translate(0.396484)"/>
</clipPath>
</defs>
</svg>
