<svg width="335" height="335" viewBox="0 0 335 335" fill="none" xmlns="http://www.w3.org/2000/svg">
<g clip-path="url(#clip0_117_1746)">
<rect width="335" height="335" fill="white"/>
<rect x="-87" width="678.072" height="335" rx="12.1084" fill="#262626"/>
<path d="M50.4523 144.501H40.9916V95.7487H24.1158V87.2256H67.4133V95.7487H50.4523V144.501ZM73.823 96.5158V87.2256H83.2836V96.5158H73.823ZM73.823 144.501V102.908H83.2836V144.501H73.823ZM89.6607 102.908H95.9678V92.3394H105.428V102.908H115.401V111.176H105.428V133.165C105.428 135.893 106.451 136.489 109.264 136.489H115.401V144.501H108.241C101.678 144.501 95.9678 141.603 95.9678 134.018V111.176H89.6607V102.908ZM132.961 145.353C126.398 145.353 122.222 142.711 122.222 135.637V87.2256H131.682V134.018C131.682 136.745 132.535 137.342 135.006 137.342H136.626V145.353H132.961ZM181.075 132.398C178.263 140.751 170.507 145.694 161.302 145.694C149.284 145.694 139.994 136.915 139.994 123.619C139.994 110.494 149.284 101.8 161.046 101.8C171.529 101.8 181.842 109.045 181.842 123.79V126.432H149.454C150.136 134.699 153.716 137.342 161.302 137.342C167.097 137.342 169.91 135.978 171.615 132.398H181.075ZM149.625 119.443H172.552C171.785 112.71 168.376 110.068 161.046 110.068C154.142 110.068 150.562 112.454 149.625 119.443Z" fill="#F7F3EB"/>
<path d="M35.4162 249.06C37.3672 249.06 38.8369 248.644 39.8254 247.812C40.8139 246.953 41.3082 245.77 41.3082 244.261C41.3082 242.622 40.8269 241.373 39.8645 240.515C38.928 239.631 37.4842 239.188 35.5332 239.188H29.173V249.06H35.4162ZM40.4888 232.321C40.4888 229.407 38.8239 227.951 35.4942 227.951H29.173V236.73H35.2991C37.094 236.73 38.4077 236.34 39.2401 235.559C40.0726 234.753 40.4888 233.673 40.4888 232.321ZM43.4933 231.931C43.4933 233.491 43.1421 234.766 42.4398 235.755C41.7634 236.717 40.84 237.393 39.6694 237.784C41.1781 238.2 42.3227 238.954 43.1031 240.047C43.9095 241.139 44.3127 242.544 44.3127 244.261C44.3127 246.628 43.5323 248.449 41.9715 249.724C40.4367 250.972 38.3297 251.597 35.6503 251.597H26.1684V225.375H35.4162C38.0175 225.375 40.0075 225.948 41.3862 227.092C42.791 228.211 43.4933 229.824 43.4933 231.931ZM48.1614 242.154C48.1614 238.772 48.8377 236.288 50.1904 234.701C51.5691 233.114 53.7543 232.321 56.7458 232.321C59.7113 232.321 61.8704 233.114 63.2231 234.701C64.6018 236.288 65.2912 238.772 65.2912 242.154C65.2912 245.536 64.6018 248.02 63.2231 249.607C61.8444 251.193 59.6853 251.987 56.7458 251.987C53.7803 251.987 51.6082 251.193 50.2294 249.607C48.8507 248.02 48.1614 245.536 48.1614 242.154ZM51.1659 242.154C51.1659 244.729 51.6082 246.602 52.4926 247.773C53.3771 248.917 54.7948 249.49 56.7458 249.49C58.6968 249.49 60.1145 248.917 60.999 247.773C61.8834 246.602 62.3256 244.729 62.3256 242.154C62.3256 239.631 61.8834 237.784 60.999 236.613C60.1145 235.442 58.6968 234.857 56.7458 234.857C54.7948 234.857 53.3771 235.442 52.4926 236.613C51.6082 237.784 51.1659 239.631 51.1659 242.154ZM84.771 224.049V251.597H82.5468L82.0786 249.997C81.4023 250.621 80.6089 251.115 79.6984 251.48C78.7879 251.818 77.7864 251.987 76.6938 251.987C74.1185 251.987 72.1805 251.193 70.8799 249.607C69.5792 248.02 68.9289 245.536 68.9289 242.154C68.9289 238.798 69.5532 236.327 70.8018 234.74C72.0765 233.127 73.9364 232.321 76.3817 232.321C77.4742 232.321 78.4758 232.49 79.3862 232.828C80.3227 233.166 81.1161 233.634 81.7664 234.233V224.439L84.771 224.049ZM77.1621 249.529C78.0726 249.529 78.918 249.347 79.6984 248.982C80.5048 248.618 81.1942 248.124 81.7664 247.5V236.847C81.1942 236.223 80.5048 235.729 79.6984 235.364C78.918 235 78.0726 234.818 77.1621 234.818C75.3672 234.818 74.0405 235.39 73.182 236.535C72.3496 237.68 71.9334 239.553 71.9334 242.154C71.9334 244.781 72.3496 246.667 73.182 247.812C74.0405 248.956 75.3672 249.529 77.1621 249.529ZM88.1057 232.711H91.2273L96.6901 247.5H96.8071L101.919 232.711H105.001L97.3534 254.016C96.9632 255.161 96.534 256.11 96.0658 256.864C95.5975 257.645 95.0642 258.269 94.4659 258.737C93.8936 259.232 93.2303 259.583 92.4759 259.791C91.7475 259.999 90.9021 260.103 89.9396 260.103C89.2112 260.103 88.6389 260.025 88.2227 259.869L88.652 257.411C89.0682 257.515 89.5754 257.567 90.1737 257.567C90.72 257.567 91.2013 257.476 91.6175 257.294C92.0597 257.112 92.4369 256.877 92.7491 256.591C93.0872 256.305 93.3734 255.98 93.6075 255.616C93.8416 255.252 94.0367 254.874 94.1928 254.484L95.3634 251.363L88.1057 232.711ZM127.25 249.49C129.071 249.49 130.697 249.034 132.128 248.124L132.986 250.504C132.232 250.946 131.36 251.311 130.372 251.597C129.409 251.857 128.369 251.987 127.25 251.987C124.154 251.987 121.891 251.219 120.461 249.685C119.03 248.124 118.314 245.614 118.314 242.154C118.314 238.772 119.004 236.288 120.383 234.701C121.761 233.114 123.92 232.321 126.86 232.321C129.383 232.321 131.451 233.088 133.064 234.623L131.425 236.652C130.853 236.08 130.177 235.637 129.396 235.325C128.642 234.987 127.822 234.818 126.938 234.818C125.065 234.818 123.647 235.39 122.685 236.535C121.748 237.654 121.28 239.526 121.28 242.154C121.28 244.781 121.774 246.667 122.763 247.812C123.751 248.93 125.247 249.49 127.25 249.49ZM135.118 242.154C135.118 238.772 135.794 236.288 137.147 234.701C138.526 233.114 140.711 232.321 143.702 232.321C146.668 232.321 148.827 233.114 150.18 234.701C151.558 236.288 152.248 238.772 152.248 242.154C152.248 245.536 151.558 248.02 150.18 249.607C148.801 251.193 146.642 251.987 143.702 251.987C140.737 251.987 138.565 251.193 137.186 249.607C135.807 248.02 135.118 245.536 135.118 242.154ZM138.123 242.154C138.123 244.729 138.565 246.602 139.449 247.773C140.334 248.917 141.751 249.49 143.702 249.49C145.653 249.49 147.071 248.917 147.956 247.773C148.84 246.602 149.282 244.729 149.282 242.154C149.282 239.631 148.84 237.784 147.956 236.613C147.071 235.442 145.653 234.857 143.702 234.857C141.751 234.857 140.334 235.442 139.449 236.613C138.565 237.784 138.123 239.631 138.123 242.154ZM159.007 232.711L159.514 234.35C160.191 233.726 160.971 233.231 161.856 232.867C162.766 232.503 163.768 232.321 164.86 232.321C167.435 232.321 169.373 233.127 170.674 234.74C171.975 236.327 172.625 238.798 172.625 242.154C172.625 245.536 171.988 248.02 170.713 249.607C169.465 251.193 167.618 251.987 165.172 251.987C164.132 251.987 163.13 251.831 162.168 251.519C161.205 251.18 160.412 250.712 159.788 250.114V259.713H156.783V232.711H159.007ZM164.392 234.818C163.481 234.818 162.623 235 161.817 235.364C161.036 235.729 160.36 236.223 159.788 236.847V247.5C160.36 248.124 161.036 248.618 161.817 248.982C162.623 249.347 163.481 249.529 164.392 249.529C166.187 249.529 167.514 248.956 168.372 247.812C169.23 246.667 169.66 244.781 169.66 242.154C169.66 239.553 169.23 237.68 168.372 236.535C167.514 235.39 166.187 234.818 164.392 234.818ZM174.605 232.711H177.727L183.189 247.5H183.307L188.418 232.711H191.501L183.853 254.016C183.463 255.161 183.033 256.11 182.565 256.864C182.097 257.645 181.564 258.269 180.965 258.737C180.393 259.232 179.73 259.583 178.975 259.791C178.247 259.999 177.402 260.103 176.439 260.103C175.711 260.103 175.138 260.025 174.722 259.869L175.151 257.411C175.568 257.515 176.075 257.567 176.673 257.567C177.219 257.567 177.701 257.476 178.117 257.294C178.559 257.112 178.936 256.877 179.248 256.591C179.587 256.305 179.873 255.98 180.107 255.616C180.341 255.252 180.536 254.874 180.692 254.484L181.863 251.363L174.605 232.711Z" fill="#F7F3EB"/>
<path opacity="0.5" d="M23.0078 182.489L314.328 182.489" stroke="#9E9E9E" stroke-width="0.487453"/>
<path d="M217.873 93.721V94.501H213.097V86.437H214.021V93.721H217.873ZM222.023 93.841C222.343 93.841 222.651 93.821 222.947 93.781C223.251 93.733 223.539 93.665 223.811 93.577V91.153H221.747V90.373H224.723V94.105C224.363 94.241 223.939 94.361 223.451 94.465C222.963 94.569 222.479 94.621 221.999 94.621C221.335 94.621 220.767 94.533 220.295 94.357C219.831 94.173 219.451 93.909 219.155 93.565C218.859 93.213 218.643 92.781 218.507 92.269C218.379 91.749 218.315 91.149 218.315 90.469C218.315 89.045 218.607 87.997 219.191 87.325C219.783 86.653 220.655 86.317 221.807 86.317C222.455 86.317 223.015 86.417 223.487 86.617C223.959 86.809 224.351 87.073 224.663 87.409L224.111 88.033C223.815 87.721 223.483 87.489 223.115 87.337C222.747 87.185 222.311 87.109 221.807 87.109C220.951 87.109 220.307 87.381 219.875 87.925C219.451 88.461 219.239 89.309 219.239 90.469C219.239 91.621 219.455 92.473 219.887 93.025C220.319 93.569 221.031 93.841 222.023 93.841ZM234.951 93.721V94.501H229.995V86.437H234.831V87.229H230.919V89.905H234.687V90.685H230.919V93.721H234.951ZM236.76 86.437H237.684V94.501H236.76V86.437ZM249.276 86.437V94.501H248.34V90.673H244.044V94.501H243.12V86.437H244.044V89.881H248.34V86.437H249.276ZM253.402 94.621C252.458 94.621 251.786 94.377 251.386 93.889C250.994 93.393 250.798 92.629 250.798 91.597C250.798 90.557 250.998 89.793 251.398 89.305C251.798 88.817 252.41 88.573 253.234 88.573C254.058 88.573 254.67 88.813 255.07 89.293C255.47 89.765 255.67 90.517 255.67 91.549V91.933H251.734C251.766 92.621 251.914 93.113 252.178 93.409C252.442 93.705 252.854 93.853 253.414 93.853C253.75 93.853 254.078 93.805 254.398 93.709C254.726 93.605 255.03 93.465 255.31 93.289L255.61 94.021C255.306 94.205 254.962 94.353 254.578 94.465C254.202 94.569 253.81 94.621 253.402 94.621ZM254.734 91.189C254.694 90.565 254.554 90.105 254.314 89.809C254.074 89.505 253.714 89.353 253.234 89.353C252.754 89.353 252.394 89.505 252.154 89.809C251.914 90.105 251.774 90.565 251.734 91.189H254.734ZM261.298 94.501H260.614L260.47 93.961C260.23 94.169 259.946 94.333 259.618 94.453C259.298 94.565 258.946 94.621 258.562 94.621C257.962 94.621 257.51 94.469 257.206 94.165C256.91 93.853 256.762 93.409 256.762 92.833C256.762 92.241 256.946 91.805 257.314 91.525C257.682 91.237 258.298 91.093 259.162 91.093C259.418 91.093 259.642 91.097 259.834 91.105C260.034 91.113 260.218 91.129 260.386 91.153V90.829C260.386 90.293 260.282 89.913 260.074 89.689C259.866 89.457 259.498 89.341 258.97 89.341C258.722 89.341 258.45 89.385 258.154 89.473C257.866 89.553 257.574 89.673 257.278 89.833L257.002 89.137C257.322 88.961 257.662 88.825 258.022 88.729C258.382 88.625 258.754 88.573 259.138 88.573C259.546 88.573 259.886 88.613 260.158 88.693C260.438 88.773 260.662 88.905 260.83 89.089C260.998 89.265 261.118 89.493 261.19 89.773C261.262 90.053 261.298 90.397 261.298 90.805V94.501ZM258.814 93.865C259.078 93.865 259.35 93.809 259.63 93.697C259.918 93.577 260.17 93.421 260.386 93.229V91.897C260.178 91.873 259.97 91.857 259.762 91.849C259.554 91.833 259.322 91.825 259.066 91.825C258.562 91.825 258.202 91.901 257.986 92.053C257.778 92.205 257.674 92.461 257.674 92.821C257.674 93.165 257.762 93.425 257.938 93.601C258.114 93.777 258.406 93.865 258.814 93.865ZM267.494 86.029V94.501H266.81L266.666 94.009C266.458 94.201 266.214 94.353 265.934 94.465C265.654 94.569 265.346 94.621 265.01 94.621C264.218 94.621 263.622 94.377 263.222 93.889C262.822 93.401 262.622 92.637 262.622 91.597C262.622 90.565 262.814 89.805 263.198 89.317C263.59 88.821 264.162 88.573 264.914 88.573C265.25 88.573 265.558 88.625 265.838 88.729C266.126 88.833 266.37 88.977 266.57 89.161V86.149L267.494 86.029ZM265.154 93.865C265.434 93.865 265.694 93.809 265.934 93.697C266.182 93.585 266.394 93.433 266.57 93.241V89.965C266.394 89.773 266.182 89.621 265.934 89.509C265.694 89.397 265.434 89.341 265.154 89.341C264.602 89.341 264.194 89.517 263.93 89.869C263.674 90.221 263.546 90.797 263.546 91.597C263.546 92.405 263.674 92.985 263.93 93.337C264.194 93.689 264.602 93.865 265.154 93.865ZM270.788 94.585C270.748 94.601 270.692 94.609 270.62 94.609C270.548 94.617 270.488 94.621 270.44 94.621C270.032 94.621 269.736 94.501 269.552 94.261C269.376 94.013 269.288 93.637 269.288 93.133V86.173L270.2 86.029V93.001C270.2 93.185 270.208 93.333 270.224 93.445C270.24 93.557 270.268 93.645 270.308 93.709C270.356 93.773 270.416 93.817 270.488 93.841C270.568 93.857 270.668 93.865 270.788 93.865V94.585ZM272.206 88.693H273.118V94.501H272.206V88.693ZM272.194 86.197H273.118V87.397H272.194V86.197ZM275.75 89.281C276.022 89.065 276.322 88.893 276.65 88.765C276.978 88.637 277.322 88.573 277.682 88.573C278.354 88.573 278.834 88.737 279.122 89.065C279.418 89.385 279.566 89.909 279.566 90.637V94.501H278.654V90.889C278.654 90.313 278.558 89.913 278.366 89.689C278.182 89.465 277.894 89.353 277.502 89.353C276.942 89.353 276.382 89.557 275.822 89.965V94.501H274.91V88.693H275.594L275.75 89.281ZM283.496 94.621C282.552 94.621 281.88 94.377 281.48 93.889C281.088 93.393 280.892 92.629 280.892 91.597C280.892 90.557 281.092 89.793 281.492 89.305C281.892 88.817 282.504 88.573 283.328 88.573C284.152 88.573 284.764 88.813 285.164 89.293C285.564 89.765 285.764 90.517 285.764 91.549V91.933H281.828C281.86 92.621 282.008 93.113 282.272 93.409C282.536 93.705 282.948 93.853 283.508 93.853C283.844 93.853 284.172 93.805 284.492 93.709C284.82 93.605 285.124 93.465 285.404 93.289L285.704 94.021C285.4 94.205 285.056 94.353 284.672 94.465C284.296 94.569 283.904 94.621 283.496 94.621ZM284.828 91.189C284.788 90.565 284.648 90.105 284.408 89.809C284.168 89.505 283.808 89.353 283.328 89.353C282.848 89.353 282.488 89.505 282.248 89.809C282.008 90.105 281.868 90.565 281.828 91.189H284.828ZM216.049 108.165V110.145H215.209V108.165H213.157V107.373H215.209V105.405H216.049V107.373H218.125V108.165H216.049ZM221.928 111.501V104.397L219.9 105.765L219.444 105.081L221.928 103.437H222.864V111.501H221.928ZM226.46 111.861H225.596L231.44 103.029H232.292L226.46 111.861ZM224.9 105.453C224.9 104.725 225.04 104.185 225.32 103.833C225.6 103.473 226.004 103.293 226.532 103.293C227.06 103.293 227.464 103.473 227.744 103.833C228.024 104.185 228.164 104.725 228.164 105.453C228.164 106.181 228.024 106.725 227.744 107.085C227.464 107.445 227.06 107.625 226.532 107.625C226.004 107.625 225.6 107.445 225.32 107.085C225.04 106.725 224.9 106.181 224.9 105.453ZM225.728 105.453C225.728 106.429 225.996 106.917 226.532 106.917C227.068 106.917 227.336 106.429 227.336 105.453C227.336 104.477 227.068 103.989 226.532 103.989C225.996 103.989 225.728 104.477 225.728 105.453ZM229.76 109.425C229.76 108.697 229.9 108.157 230.18 107.805C230.46 107.445 230.864 107.265 231.392 107.265C231.92 107.265 232.324 107.445 232.604 107.805C232.884 108.157 233.024 108.697 233.024 109.425C233.024 110.153 232.884 110.697 232.604 111.057C232.324 111.409 231.92 111.585 231.392 111.585C230.864 111.585 230.46 111.409 230.18 111.057C229.9 110.697 229.76 110.153 229.76 109.425ZM230.588 109.425C230.588 110.401 230.856 110.889 231.392 110.889C231.928 110.889 232.196 110.401 232.196 109.425C232.196 108.449 231.928 107.961 231.392 107.961C230.856 107.961 230.588 108.449 230.588 109.425ZM239.069 106.473V109.341C239.069 109.605 239.081 109.833 239.105 110.025C239.129 110.217 239.177 110.377 239.249 110.505C239.329 110.625 239.437 110.713 239.573 110.769C239.717 110.825 239.909 110.853 240.149 110.853C240.325 110.853 240.497 110.833 240.665 110.793C240.841 110.753 241.009 110.705 241.169 110.649L241.349 111.345C240.869 111.529 240.385 111.621 239.897 111.621C239.545 111.621 239.253 111.573 239.021 111.477C238.797 111.381 238.617 111.249 238.481 111.081C238.353 110.905 238.265 110.697 238.217 110.457C238.169 110.209 238.145 109.937 238.145 109.641V106.473H237.197V105.693H238.145V104.469L239.069 104.301V105.693H241.121V106.473H239.069ZM243.145 105.693L243.253 106.461C243.517 106.173 243.813 105.953 244.141 105.801C244.469 105.649 244.801 105.573 245.137 105.573C245.273 105.573 245.389 105.585 245.485 105.609C245.589 105.625 245.697 105.653 245.809 105.693V106.509C245.569 106.413 245.317 106.365 245.053 106.365C244.749 106.365 244.445 106.449 244.141 106.617C243.837 106.785 243.577 106.997 243.361 107.253V111.501H242.449V105.693H243.145ZM250.845 111.501H250.161L250.017 110.961C249.777 111.169 249.493 111.333 249.165 111.453C248.845 111.565 248.493 111.621 248.109 111.621C247.509 111.621 247.057 111.469 246.753 111.165C246.457 110.853 246.309 110.409 246.309 109.833C246.309 109.241 246.493 108.805 246.861 108.525C247.229 108.237 247.845 108.093 248.709 108.093C248.965 108.093 249.189 108.097 249.381 108.105C249.581 108.113 249.765 108.129 249.933 108.153V107.829C249.933 107.293 249.829 106.913 249.621 106.689C249.413 106.457 249.045 106.341 248.517 106.341C248.269 106.341 247.997 106.385 247.701 106.473C247.413 106.553 247.121 106.673 246.825 106.833L246.549 106.137C246.869 105.961 247.209 105.825 247.569 105.729C247.929 105.625 248.301 105.573 248.685 105.573C249.093 105.573 249.433 105.613 249.705 105.693C249.985 105.773 250.209 105.905 250.377 106.089C250.545 106.265 250.665 106.493 250.737 106.773C250.809 107.053 250.845 107.397 250.845 107.805V111.501ZM248.361 110.865C248.625 110.865 248.897 110.809 249.177 110.697C249.465 110.577 249.717 110.421 249.933 110.229V108.897C249.725 108.873 249.517 108.857 249.309 108.849C249.101 108.833 248.869 108.825 248.613 108.825C248.109 108.825 247.749 108.901 247.533 109.053C247.325 109.205 247.221 109.461 247.221 109.821C247.221 110.165 247.309 110.425 247.485 110.601C247.661 110.777 247.953 110.865 248.361 110.865ZM254.929 110.853C255.489 110.853 255.989 110.713 256.429 110.433L256.693 111.165C256.461 111.301 256.193 111.413 255.889 111.501C255.593 111.581 255.273 111.621 254.929 111.621C253.977 111.621 253.281 111.385 252.841 110.913C252.401 110.433 252.181 109.661 252.181 108.597C252.181 107.557 252.393 106.793 252.817 106.305C253.241 105.817 253.905 105.573 254.809 105.573C255.585 105.573 256.221 105.809 256.717 106.281L256.213 106.905C256.037 106.729 255.829 106.593 255.589 106.497C255.357 106.393 255.105 106.341 254.833 106.341C254.257 106.341 253.821 106.517 253.525 106.869C253.237 107.213 253.093 107.789 253.093 108.597C253.093 109.405 253.245 109.985 253.549 110.337C253.853 110.681 254.313 110.853 254.929 110.853ZM257.93 111.501V103.149L258.854 103.029V107.961H259.418L261.59 105.693H262.706L260.15 108.357L262.778 111.501H261.662L259.406 108.741H258.854V111.501H257.93ZM263.886 105.693H264.798V111.501H263.886V105.693ZM263.874 103.197H264.798V104.397H263.874V103.197ZM267.43 106.281C267.702 106.065 268.002 105.893 268.33 105.765C268.658 105.637 269.002 105.573 269.362 105.573C270.034 105.573 270.514 105.737 270.802 106.065C271.098 106.385 271.246 106.909 271.246 107.637V111.501H270.334V107.889C270.334 107.313 270.238 106.913 270.046 106.689C269.862 106.465 269.574 106.353 269.182 106.353C268.622 106.353 268.062 106.557 267.502 106.965V111.501H266.59V105.693H267.274L267.43 106.281ZM277.444 105.693V111.573C277.444 112.461 277.228 113.105 276.796 113.505C276.372 113.913 275.736 114.117 274.888 114.117C274.552 114.117 274.232 114.089 273.928 114.033C273.624 113.985 273.356 113.917 273.124 113.829L273.316 113.073C273.772 113.249 274.292 113.337 274.876 113.337C275.452 113.337 275.868 113.205 276.124 112.941C276.388 112.677 276.52 112.245 276.52 111.645V111.045C276.32 111.229 276.076 111.373 275.788 111.477C275.508 111.573 275.2 111.621 274.864 111.621C274.112 111.621 273.54 111.377 273.148 110.889C272.764 110.401 272.572 109.637 272.572 108.597C272.572 107.565 272.772 106.805 273.172 106.317C273.572 105.821 274.168 105.573 274.96 105.573C275.296 105.573 275.604 105.629 275.884 105.741C276.164 105.853 276.408 106.005 276.616 106.197L276.76 105.693H277.444ZM275.104 106.341C274.552 106.341 274.144 106.517 273.88 106.869C273.624 107.221 273.496 107.797 273.496 108.597C273.496 109.405 273.624 109.985 273.88 110.337C274.144 110.689 274.552 110.865 275.104 110.865C275.384 110.865 275.644 110.809 275.884 110.697C276.132 110.585 276.344 110.433 276.52 110.241V106.965C276.344 106.773 276.132 106.621 275.884 106.509C275.644 106.397 275.384 106.341 275.104 106.341Z" fill="#F7F3EB"/>
<path d="M227.873 228.818V229.598H223.097V221.534H224.021V228.818H227.873ZM232.023 228.938C232.343 228.938 232.651 228.918 232.947 228.878C233.251 228.83 233.539 228.762 233.811 228.674V226.25H231.747V225.47H234.723V229.202C234.363 229.338 233.939 229.458 233.451 229.562C232.963 229.666 232.479 229.718 231.999 229.718C231.335 229.718 230.767 229.63 230.295 229.454C229.831 229.27 229.451 229.006 229.155 228.662C228.859 228.31 228.643 227.878 228.507 227.366C228.379 226.846 228.315 226.246 228.315 225.566C228.315 224.142 228.607 223.094 229.191 222.422C229.783 221.75 230.655 221.414 231.807 221.414C232.455 221.414 233.015 221.514 233.487 221.714C233.959 221.906 234.351 222.17 234.663 222.506L234.111 223.13C233.815 222.818 233.483 222.586 233.115 222.434C232.747 222.282 232.311 222.206 231.807 222.206C230.951 222.206 230.307 222.478 229.875 223.022C229.451 223.558 229.239 224.406 229.239 225.566C229.239 226.718 229.455 227.57 229.887 228.122C230.319 228.666 231.031 228.938 232.023 228.938ZM244.951 228.818V229.598H239.995V221.534H244.831V222.326H240.919V225.002H244.687V225.782H240.919V228.818H244.951ZM246.76 221.534H247.684V229.598H246.76V221.534ZM258.244 221.534V222.314H255.76V229.598H254.836V222.314H252.364V221.534H258.244ZM260.66 229.718C259.716 229.718 259.044 229.474 258.644 228.986C258.252 228.49 258.056 227.726 258.056 226.694C258.056 225.654 258.256 224.89 258.656 224.402C259.056 223.914 259.668 223.67 260.492 223.67C261.316 223.67 261.928 223.91 262.328 224.39C262.728 224.862 262.928 225.614 262.928 226.646V227.03H258.992C259.024 227.718 259.172 228.21 259.436 228.506C259.7 228.802 260.112 228.95 260.672 228.95C261.008 228.95 261.336 228.902 261.656 228.806C261.984 228.702 262.288 228.562 262.568 228.386L262.868 229.118C262.564 229.302 262.22 229.45 261.836 229.562C261.46 229.666 261.068 229.718 260.66 229.718ZM261.992 226.286C261.952 225.662 261.812 225.202 261.572 224.906C261.332 224.602 260.972 224.45 260.492 224.45C260.012 224.45 259.652 224.602 259.412 224.906C259.172 225.202 259.032 225.662 258.992 226.286H261.992ZM266.279 227.354H266.243L264.683 229.598H263.627L265.739 226.634L263.699 223.79H264.755L266.243 225.95H266.279L267.779 223.79H268.835L266.795 226.634L268.895 229.598H267.839L266.279 227.354ZM271.3 224.57V227.438C271.3 227.702 271.312 227.93 271.336 228.122C271.36 228.314 271.408 228.474 271.48 228.602C271.56 228.722 271.668 228.81 271.804 228.866C271.948 228.922 272.14 228.95 272.38 228.95C272.556 228.95 272.728 228.93 272.896 228.89C273.072 228.85 273.24 228.802 273.4 228.746L273.58 229.442C273.1 229.626 272.616 229.718 272.128 229.718C271.776 229.718 271.484 229.67 271.252 229.574C271.028 229.478 270.848 229.346 270.712 229.178C270.584 229.002 270.496 228.794 270.448 228.554C270.4 228.306 270.376 228.034 270.376 227.738V224.57H269.428V223.79H270.376V222.566L271.3 222.398V223.79H273.352V224.57H271.3ZM222.845 242.578C222.845 241.866 222.909 241.25 223.037 240.73C223.173 240.202 223.365 239.77 223.613 239.434C223.861 239.09 224.161 238.834 224.513 238.666C224.865 238.498 225.257 238.414 225.689 238.414C226.129 238.414 226.525 238.498 226.877 238.666C227.229 238.834 227.529 239.09 227.777 239.434C228.025 239.77 228.213 240.202 228.341 240.73C228.477 241.25 228.545 241.866 228.545 242.578C228.545 243.29 228.477 243.906 228.341 244.426C228.213 244.938 228.025 245.366 227.777 245.71C227.529 246.054 227.229 246.31 226.877 246.478C226.525 246.638 226.129 246.718 225.689 246.718C224.817 246.718 224.125 246.382 223.613 245.71C223.101 245.038 222.845 243.994 222.845 242.578ZM223.769 242.578C223.769 243.69 223.937 244.53 224.273 245.098C224.617 245.666 225.089 245.95 225.689 245.95C226.289 245.95 226.761 245.666 227.105 245.098C227.449 244.53 227.621 243.69 227.621 242.578C227.621 241.466 227.449 240.626 227.105 240.058C226.761 239.482 226.289 239.194 225.689 239.194C225.089 239.194 224.617 239.482 224.273 240.058C223.937 240.626 223.769 241.466 223.769 242.578ZM231.385 246.958H230.521L236.365 238.126H237.217L231.385 246.958ZM229.825 240.55C229.825 239.822 229.965 239.282 230.245 238.93C230.525 238.57 230.929 238.39 231.457 238.39C231.985 238.39 232.389 238.57 232.669 238.93C232.949 239.282 233.089 239.822 233.089 240.55C233.089 241.278 232.949 241.822 232.669 242.182C232.389 242.542 231.985 242.722 231.457 242.722C230.929 242.722 230.525 242.542 230.245 242.182C229.965 241.822 229.825 241.278 229.825 240.55ZM230.653 240.55C230.653 241.526 230.921 242.014 231.457 242.014C231.993 242.014 232.261 241.526 232.261 240.55C232.261 239.574 231.993 239.086 231.457 239.086C230.921 239.086 230.653 239.574 230.653 240.55ZM234.685 244.522C234.685 243.794 234.825 243.254 235.105 242.902C235.385 242.542 235.789 242.362 236.317 242.362C236.845 242.362 237.249 242.542 237.529 242.902C237.809 243.254 237.949 243.794 237.949 244.522C237.949 245.25 237.809 245.794 237.529 246.154C237.249 246.506 236.845 246.682 236.317 246.682C235.789 246.682 235.385 246.506 235.105 246.154C234.825 245.794 234.685 245.25 234.685 244.522ZM235.513 244.522C235.513 245.498 235.781 245.986 236.317 245.986C236.853 245.986 237.121 245.498 237.121 244.522C237.121 243.546 236.853 243.058 236.317 243.058C235.781 243.058 235.513 243.546 235.513 244.522ZM243.995 241.57V244.438C243.995 244.702 244.007 244.93 244.031 245.122C244.055 245.314 244.103 245.474 244.175 245.602C244.255 245.722 244.363 245.81 244.499 245.866C244.643 245.922 244.835 245.95 245.075 245.95C245.251 245.95 245.423 245.93 245.591 245.89C245.767 245.85 245.935 245.802 246.095 245.746L246.275 246.442C245.795 246.626 245.311 246.718 244.823 246.718C244.471 246.718 244.179 246.67 243.947 246.574C243.723 246.478 243.543 246.346 243.407 246.178C243.279 246.002 243.191 245.794 243.143 245.554C243.095 245.306 243.071 245.034 243.071 244.738V241.57H242.123V240.79H243.071V239.566L243.995 239.398V240.79H246.047V241.57H243.995ZM248.071 240.79L248.179 241.558C248.443 241.27 248.739 241.05 249.067 240.898C249.395 240.746 249.727 240.67 250.063 240.67C250.199 240.67 250.315 240.682 250.411 240.706C250.515 240.722 250.623 240.75 250.735 240.79V241.606C250.495 241.51 250.243 241.462 249.979 241.462C249.675 241.462 249.371 241.546 249.067 241.714C248.763 241.882 248.503 242.094 248.287 242.35V246.598H247.375V240.79H248.071ZM255.771 246.598H255.087L254.943 246.058C254.703 246.266 254.419 246.43 254.091 246.55C253.771 246.662 253.419 246.718 253.035 246.718C252.435 246.718 251.983 246.566 251.679 246.262C251.383 245.95 251.235 245.506 251.235 244.93C251.235 244.338 251.419 243.902 251.787 243.622C252.155 243.334 252.771 243.19 253.635 243.19C253.891 243.19 254.115 243.194 254.307 243.202C254.507 243.21 254.691 243.226 254.859 243.25V242.926C254.859 242.39 254.755 242.01 254.547 241.786C254.339 241.554 253.971 241.438 253.443 241.438C253.195 241.438 252.923 241.482 252.627 241.57C252.339 241.65 252.047 241.77 251.751 241.93L251.475 241.234C251.795 241.058 252.135 240.922 252.495 240.826C252.855 240.722 253.227 240.67 253.611 240.67C254.019 240.67 254.359 240.71 254.631 240.79C254.911 240.87 255.135 241.002 255.303 241.186C255.471 241.362 255.591 241.59 255.663 241.87C255.735 242.15 255.771 242.494 255.771 242.902V246.598ZM253.287 245.962C253.551 245.962 253.823 245.906 254.103 245.794C254.391 245.674 254.643 245.518 254.859 245.326V243.994C254.651 243.97 254.443 243.954 254.235 243.946C254.027 243.93 253.795 243.922 253.539 243.922C253.035 243.922 252.675 243.998 252.459 244.15C252.251 244.302 252.147 244.558 252.147 244.918C252.147 245.262 252.235 245.522 252.411 245.698C252.587 245.874 252.879 245.962 253.287 245.962ZM259.855 245.95C260.415 245.95 260.915 245.81 261.355 245.53L261.619 246.262C261.387 246.398 261.119 246.51 260.815 246.598C260.519 246.678 260.199 246.718 259.855 246.718C258.903 246.718 258.207 246.482 257.767 246.01C257.327 245.53 257.107 244.758 257.107 243.694C257.107 242.654 257.319 241.89 257.743 241.402C258.167 240.914 258.831 240.67 259.735 240.67C260.511 240.67 261.147 240.906 261.643 241.378L261.139 242.002C260.963 241.826 260.755 241.69 260.515 241.594C260.283 241.49 260.031 241.438 259.759 241.438C259.183 241.438 258.747 241.614 258.451 241.966C258.163 242.31 258.019 242.886 258.019 243.694C258.019 244.502 258.171 245.082 258.475 245.434C258.779 245.778 259.239 245.95 259.855 245.95ZM262.855 246.598V238.246L263.779 238.126V243.058H264.343L266.515 240.79H267.631L265.075 243.454L267.703 246.598H266.587L264.331 243.838H263.779V246.598H262.855ZM268.812 240.79H269.724V246.598H268.812V240.79ZM268.8 238.294H269.724V239.494H268.8V238.294ZM272.356 241.378C272.628 241.162 272.928 240.99 273.256 240.862C273.584 240.734 273.928 240.67 274.288 240.67C274.96 240.67 275.44 240.834 275.728 241.162C276.024 241.482 276.172 242.006 276.172 242.734V246.598H275.26V242.986C275.26 242.41 275.164 242.01 274.972 241.786C274.788 241.562 274.5 241.45 274.108 241.45C273.548 241.45 272.988 241.654 272.428 242.062V246.598H271.516V240.79H272.2L272.356 241.378ZM282.369 240.79V246.67C282.369 247.558 282.153 248.202 281.721 248.602C281.297 249.01 280.661 249.214 279.813 249.214C279.477 249.214 279.157 249.186 278.853 249.13C278.549 249.082 278.281 249.014 278.049 248.926L278.241 248.17C278.697 248.346 279.217 248.434 279.801 248.434C280.377 248.434 280.793 248.302 281.049 248.038C281.313 247.774 281.445 247.342 281.445 246.742V246.142C281.245 246.326 281.001 246.47 280.713 246.574C280.433 246.67 280.125 246.718 279.789 246.718C279.037 246.718 278.465 246.474 278.073 245.986C277.689 245.498 277.497 244.734 277.497 243.694C277.497 242.662 277.697 241.902 278.097 241.414C278.497 240.918 279.093 240.67 279.885 240.67C280.221 240.67 280.529 240.726 280.809 240.838C281.089 240.95 281.333 241.102 281.541 241.294L281.685 240.79H282.369ZM280.029 241.438C279.477 241.438 279.069 241.614 278.805 241.966C278.549 242.318 278.421 242.894 278.421 243.694C278.421 244.502 278.549 245.082 278.805 245.434C279.069 245.786 279.477 245.962 280.029 245.962C280.309 245.962 280.569 245.906 280.809 245.794C281.057 245.682 281.269 245.53 281.445 245.338V242.062C281.269 241.87 281.057 241.718 280.809 241.606C280.569 241.494 280.309 241.438 280.029 241.438Z" fill="#F7F3EB"/>
</g>
<defs>
<clipPath id="clip0_117_1746">
<rect width="335" height="335" fill="white"/>
</clipPath>
</defs>
</svg>
