<svg width="1680" height="830" viewBox="0 0 1680 830" fill="none" xmlns="http://www.w3.org/2000/svg">
<rect width="1680" height="830" fill="#262626"/>
<path d="M332.334 380.588H313.485V283.459H279.864V266.478H366.125V283.459H332.334V380.588ZM378.895 284.987V266.478H397.744V284.987H378.895ZM378.895 380.588V297.722H397.744V380.588H378.895ZM410.449 297.722H423.014V276.666H441.863V297.722H461.73V314.194H441.863V358.004C441.863 363.437 443.901 364.626 449.504 364.626H461.73V380.588H447.467C434.391 380.588 423.014 374.814 423.014 359.702V314.194H410.449V297.722ZM496.716 382.286C483.641 382.286 475.32 377.022 475.32 362.928V266.478H494.169V359.702C494.169 365.136 495.867 366.324 500.791 366.324H504.017V382.286H496.716ZM592.574 356.475C586.97 373.116 571.518 382.965 553.179 382.965C529.236 382.965 510.727 365.475 510.727 338.985C510.727 312.835 529.236 295.515 552.67 295.515C573.556 295.515 594.102 309.948 594.102 339.325V344.589H529.576C530.934 361.06 538.066 366.324 553.179 366.324C564.726 366.324 570.329 363.607 573.726 356.475H592.574ZM529.916 330.665H575.593C574.065 317.25 567.273 311.986 552.67 311.986C538.915 311.986 531.783 316.741 529.916 330.665Z" fill="#F7F3EB"/>
<path d="M305.542 571.155C309.927 571.155 313.23 570.22 315.452 568.349C317.673 566.42 318.784 563.76 318.784 560.369C318.784 556.686 317.702 553.88 315.539 551.951C313.435 549.963 310.19 548.969 305.805 548.969H291.512V571.155H305.542ZM316.942 533.536C316.942 526.988 313.201 523.714 305.718 523.714H291.512V543.445H305.279C309.313 543.445 312.265 542.568 314.136 540.814C316.007 539.002 316.942 536.575 316.942 533.536ZM323.695 532.659C323.695 536.166 322.905 539.031 321.327 541.252C319.807 543.415 317.732 544.935 315.101 545.812C318.492 546.748 321.064 548.443 322.818 550.899C324.63 553.354 325.536 556.511 325.536 560.369C325.536 565.689 323.782 569.782 320.275 572.646C316.825 575.452 312.09 576.855 306.069 576.855H284.759V517.926H305.542C311.389 517.926 315.861 519.212 318.959 521.785C322.116 524.299 323.695 527.923 323.695 532.659ZM334.186 555.634C334.186 548.034 335.706 542.451 338.746 538.885C341.844 535.319 346.755 533.536 353.478 533.536C360.142 533.536 364.995 535.319 368.035 538.885C371.133 542.451 372.682 548.034 372.682 555.634C372.682 563.234 371.133 568.817 368.035 572.383C364.936 575.949 360.084 577.732 353.478 577.732C346.813 577.732 341.932 575.949 338.833 572.383C335.735 568.817 334.186 563.234 334.186 555.634ZM340.938 555.634C340.938 561.422 341.932 565.631 343.919 568.262C345.907 570.834 349.093 572.12 353.478 572.12C357.862 572.12 361.049 570.834 363.036 568.262C365.024 565.631 366.018 561.422 366.018 555.634C366.018 549.963 365.024 545.812 363.036 543.182C361.049 540.551 357.862 539.235 353.478 539.235C349.093 539.235 345.907 540.551 343.919 543.182C341.932 545.812 340.938 549.963 340.938 555.634ZM416.461 514.945V576.855H411.462L410.41 573.26C408.89 574.663 407.107 575.774 405.061 576.592C403.015 577.352 400.764 577.732 398.308 577.732C392.521 577.732 388.165 575.949 385.242 572.383C382.319 568.817 380.858 563.234 380.858 555.634C380.858 548.092 382.261 542.539 385.067 538.972C387.932 535.348 392.112 533.536 397.607 533.536C400.062 533.536 402.313 533.916 404.359 534.675C406.464 535.435 408.247 536.488 409.708 537.832V515.822L416.461 514.945ZM399.361 572.208C401.407 572.208 403.307 571.799 405.061 570.98C406.873 570.162 408.422 569.051 409.708 567.648V543.708C408.422 542.305 406.873 541.194 405.061 540.375C403.307 539.557 401.407 539.148 399.361 539.148C395.327 539.148 392.345 540.434 390.416 543.006C388.545 545.579 387.61 549.788 387.61 555.634C387.61 561.539 388.545 565.777 390.416 568.349C392.345 570.922 395.327 572.208 399.361 572.208ZM423.955 534.412H430.97L443.247 567.648H443.51L454.998 534.412H461.926L444.738 582.292C443.861 584.865 442.897 586.999 441.844 588.694C440.792 590.448 439.593 591.851 438.249 592.903C436.963 594.014 435.472 594.803 433.777 595.271C432.14 595.739 430.24 595.972 428.077 595.972C426.44 595.972 425.153 595.797 424.218 595.446L425.183 589.922C426.118 590.155 427.258 590.272 428.603 590.272C429.83 590.272 430.912 590.068 431.847 589.659C432.841 589.249 433.689 588.723 434.39 588.08C435.15 587.437 435.793 586.706 436.32 585.888C436.846 585.069 437.284 584.222 437.635 583.345L440.266 576.329L423.955 534.412ZM511.927 572.12C516.019 572.12 519.673 571.097 522.888 569.051L524.818 574.4C523.122 575.394 521.164 576.212 518.942 576.855C516.779 577.44 514.441 577.732 511.927 577.732C504.97 577.732 499.884 576.008 496.668 572.559C493.453 569.051 491.845 563.409 491.845 555.634C491.845 548.034 493.394 542.451 496.493 538.885C499.591 535.319 504.444 533.536 511.05 533.536C516.721 533.536 521.368 535.26 524.993 538.709L521.31 543.269C520.024 541.983 518.504 540.989 516.75 540.288C515.054 539.528 513.213 539.148 511.225 539.148C507.016 539.148 503.83 540.434 501.667 543.006C499.562 545.52 498.51 549.729 498.51 555.634C498.51 561.539 499.621 565.777 501.842 568.349C504.064 570.863 507.425 572.12 511.927 572.12ZM529.609 555.634C529.609 548.034 531.129 542.451 534.169 538.885C537.268 535.319 542.178 533.536 548.901 533.536C555.566 533.536 560.418 535.319 563.458 538.885C566.557 542.451 568.106 548.034 568.106 555.634C568.106 563.234 566.557 568.817 563.458 572.383C560.36 575.949 555.508 577.732 548.901 577.732C542.237 577.732 537.355 575.949 534.257 572.383C531.158 568.817 529.609 563.234 529.609 555.634ZM536.361 555.634C536.361 561.422 537.355 565.631 539.343 568.262C541.331 570.834 544.517 572.12 548.901 572.12C553.286 572.12 556.472 570.834 558.46 568.262C560.448 565.631 561.441 561.422 561.441 555.634C561.441 549.963 560.448 545.812 558.46 543.182C556.472 540.551 553.286 539.235 548.901 539.235C544.517 539.235 541.331 540.551 539.343 543.182C537.355 545.812 536.361 549.963 536.361 555.634ZM583.297 534.412L584.437 538.095C585.957 536.692 587.71 535.582 589.698 534.763C591.744 533.945 593.995 533.536 596.45 533.536C602.238 533.536 606.594 535.348 609.517 538.972C612.44 542.539 613.901 548.092 613.901 555.634C613.901 563.234 612.469 568.817 609.604 572.383C606.798 575.949 602.647 577.732 597.152 577.732C594.814 577.732 592.563 577.382 590.4 576.68C588.237 575.92 586.454 574.868 585.05 573.523V595.095H578.298V534.412H583.297ZM595.398 539.148C593.352 539.148 591.423 539.557 589.61 540.375C587.857 541.194 586.337 542.305 585.05 543.708V567.648C586.337 569.051 587.857 570.162 589.61 570.98C591.423 571.799 593.352 572.208 595.398 572.208C599.432 572.208 602.414 570.922 604.343 568.349C606.272 565.777 607.237 561.539 607.237 555.634C607.237 549.788 606.272 545.579 604.343 543.006C602.414 540.434 599.432 539.148 595.398 539.148ZM618.351 534.412H625.366L637.643 567.648H637.906L649.394 534.412H656.322L639.134 582.292C638.257 584.865 637.292 586.999 636.24 588.694C635.188 590.448 633.989 591.851 632.645 592.903C631.359 594.014 629.868 594.803 628.172 595.271C626.535 595.739 624.635 595.972 622.472 595.972C620.835 595.972 619.549 595.797 618.614 595.446L619.579 589.922C620.514 590.155 621.654 590.272 622.999 590.272C624.226 590.272 625.308 590.068 626.243 589.659C627.237 589.249 628.085 588.723 628.786 588.08C629.546 587.437 630.189 586.706 630.715 585.888C631.242 585.069 631.68 584.222 632.031 583.345L634.662 576.329L618.351 534.412Z" fill="#F7F3EB"/>
<path d="M1092.28 275.208V276.588H1083.84V262.324H1085.47V275.208H1092.28ZM1099.63 275.42C1100.19 275.42 1100.74 275.385 1101.26 275.314C1101.8 275.229 1102.31 275.109 1102.79 274.954V270.666H1099.14V269.286H1104.4V275.887C1103.76 276.128 1103.01 276.34 1102.15 276.524C1101.29 276.708 1100.43 276.8 1099.58 276.8C1098.41 276.8 1097.4 276.644 1096.57 276.333C1095.75 276.008 1095.08 275.541 1094.55 274.932C1094.03 274.31 1093.65 273.546 1093.41 272.64C1093.18 271.72 1093.07 270.659 1093.07 269.456C1093.07 266.937 1093.58 265.084 1094.62 263.895C1095.66 262.706 1097.21 262.112 1099.24 262.112C1100.39 262.112 1101.38 262.289 1102.22 262.643C1103.05 262.982 1103.74 263.449 1104.3 264.043L1103.32 265.147C1102.8 264.595 1102.21 264.185 1101.56 263.916C1100.91 263.647 1100.14 263.513 1099.24 263.513C1097.73 263.513 1096.59 263.994 1095.83 264.956C1095.08 265.904 1094.7 267.404 1094.7 269.456C1094.7 271.494 1095.08 273.001 1095.85 273.977C1096.61 274.939 1097.87 275.42 1099.63 275.42ZM1122.49 275.208V276.588H1113.73V262.324H1122.28V263.725H1115.36V268.458H1122.03V269.838H1115.36V275.208H1122.49ZM1125.69 262.324H1127.33V276.588H1125.69V262.324ZM1147.83 262.324V276.588H1146.18V269.817H1138.58V276.588H1136.94V262.324H1138.58V268.416H1146.18V262.324H1147.83ZM1155.13 276.8C1153.46 276.8 1152.27 276.369 1151.56 275.505C1150.87 274.628 1150.52 273.277 1150.52 271.451C1150.52 269.612 1150.88 268.26 1151.58 267.397C1152.29 266.534 1153.37 266.102 1154.83 266.102C1156.29 266.102 1157.37 266.527 1158.08 267.376C1158.79 268.211 1159.14 269.541 1159.14 271.366V272.046H1152.18C1152.23 273.263 1152.5 274.133 1152.96 274.656C1153.43 275.18 1154.16 275.442 1155.15 275.442C1155.74 275.442 1156.32 275.357 1156.89 275.187C1157.47 275.003 1158.01 274.755 1158.5 274.444L1159.03 275.739C1158.5 276.064 1157.89 276.326 1157.21 276.524C1156.54 276.708 1155.85 276.8 1155.13 276.8ZM1157.48 270.73C1157.41 269.626 1157.17 268.812 1156.74 268.289C1156.32 267.751 1155.68 267.482 1154.83 267.482C1153.98 267.482 1153.35 267.751 1152.92 268.289C1152.5 268.812 1152.25 269.626 1152.18 270.73H1157.48ZM1169.1 276.588H1167.89L1167.63 275.633C1167.21 276.001 1166.7 276.291 1166.12 276.503C1165.56 276.701 1164.94 276.8 1164.26 276.8C1163.19 276.8 1162.4 276.531 1161.86 275.994C1161.33 275.442 1161.07 274.656 1161.07 273.638C1161.07 272.59 1161.4 271.819 1162.05 271.324C1162.7 270.814 1163.79 270.56 1165.32 270.56C1165.77 270.56 1166.17 270.567 1166.51 270.581C1166.86 270.595 1167.19 270.623 1167.48 270.666V270.093C1167.48 269.145 1167.3 268.473 1166.93 268.076C1166.56 267.666 1165.91 267.461 1164.98 267.461C1164.54 267.461 1164.06 267.539 1163.53 267.694C1163.02 267.836 1162.51 268.048 1161.98 268.331L1161.5 267.1C1162.06 266.789 1162.66 266.548 1163.3 266.378C1163.94 266.194 1164.6 266.102 1165.27 266.102C1166 266.102 1166.6 266.173 1167.08 266.315C1167.57 266.456 1167.97 266.69 1168.27 267.015C1168.56 267.326 1168.78 267.73 1168.9 268.225C1169.03 268.72 1169.1 269.329 1169.1 270.05V276.588ZM1164.7 275.463C1165.17 275.463 1165.65 275.364 1166.14 275.166C1166.65 274.954 1167.1 274.678 1167.48 274.338V271.982C1167.11 271.939 1166.75 271.911 1166.38 271.897C1166.01 271.869 1165.6 271.855 1165.15 271.855C1164.26 271.855 1163.62 271.989 1163.24 272.258C1162.87 272.527 1162.69 272.98 1162.69 273.616C1162.69 274.225 1162.84 274.685 1163.15 274.996C1163.46 275.307 1163.98 275.463 1164.7 275.463ZM1180.06 261.602V276.588H1178.85L1178.59 275.718C1178.22 276.057 1177.79 276.326 1177.3 276.524C1176.8 276.708 1176.26 276.8 1175.66 276.8C1174.26 276.8 1173.21 276.369 1172.5 275.505C1171.79 274.642 1171.44 273.291 1171.44 271.451C1171.44 269.626 1171.78 268.282 1172.46 267.418C1173.15 266.541 1174.16 266.102 1175.49 266.102C1176.09 266.102 1176.63 266.194 1177.13 266.378C1177.64 266.562 1178.07 266.817 1178.42 267.142V261.815L1180.06 261.602ZM1175.92 275.463C1176.41 275.463 1176.87 275.364 1177.3 275.166C1177.73 274.968 1178.11 274.699 1178.42 274.359V268.565C1178.11 268.225 1177.73 267.956 1177.3 267.758C1176.87 267.56 1176.41 267.461 1175.92 267.461C1174.94 267.461 1174.22 267.772 1173.75 268.395C1173.3 269.017 1173.07 270.036 1173.07 271.451C1173.07 272.88 1173.3 273.906 1173.75 274.529C1174.22 275.152 1174.94 275.463 1175.92 275.463ZM1185.88 276.736C1185.81 276.765 1185.71 276.779 1185.58 276.779C1185.46 276.793 1185.35 276.8 1185.27 276.8C1184.54 276.8 1184.02 276.588 1183.69 276.163C1183.38 275.725 1183.23 275.06 1183.23 274.168V261.857L1184.84 261.602V273.935C1184.84 274.26 1184.86 274.522 1184.88 274.72C1184.91 274.918 1184.96 275.074 1185.03 275.187C1185.12 275.3 1185.22 275.378 1185.35 275.42C1185.49 275.449 1185.67 275.463 1185.88 275.463V276.736ZM1188.39 266.315H1190V276.588H1188.39V266.315ZM1188.37 261.9H1190V264.022H1188.37V261.9ZM1194.66 267.355C1195.14 266.973 1195.67 266.668 1196.25 266.442C1196.83 266.216 1197.44 266.102 1198.08 266.102C1199.26 266.102 1200.11 266.392 1200.62 266.973C1201.15 267.539 1201.41 268.465 1201.41 269.753V276.588H1199.79V270.199C1199.79 269.18 1199.62 268.473 1199.29 268.076C1198.96 267.68 1198.45 267.482 1197.76 267.482C1196.77 267.482 1195.78 267.843 1194.79 268.565V276.588H1193.17V266.315H1194.38L1194.66 267.355ZM1208.36 276.8C1206.69 276.8 1205.5 276.369 1204.79 275.505C1204.1 274.628 1203.75 273.277 1203.75 271.451C1203.75 269.612 1204.11 268.26 1204.81 267.397C1205.52 266.534 1206.6 266.102 1208.06 266.102C1209.52 266.102 1210.6 266.527 1211.31 267.376C1212.02 268.211 1212.37 269.541 1212.37 271.366V272.046H1205.41C1205.47 273.263 1205.73 274.133 1206.19 274.656C1206.66 275.18 1207.39 275.442 1208.38 275.442C1208.97 275.442 1209.55 275.357 1210.12 275.187C1210.7 275.003 1211.24 274.755 1211.73 274.444L1212.26 275.739C1211.73 276.064 1211.12 276.326 1210.44 276.524C1209.77 276.708 1209.08 276.8 1208.36 276.8ZM1210.72 270.73C1210.64 269.626 1210.4 268.812 1209.97 268.289C1209.55 267.751 1208.91 267.482 1208.06 267.482C1207.21 267.482 1206.58 267.751 1206.15 268.289C1205.73 268.812 1205.48 269.626 1205.41 270.73H1210.72ZM1085.47 292.725V298.18H1088.8C1089.86 298.18 1090.64 297.947 1091.12 297.48C1091.6 297.013 1091.84 296.333 1091.84 295.442C1091.84 294.508 1091.6 293.822 1091.12 293.383C1090.65 292.944 1089.9 292.725 1088.87 292.725H1085.47ZM1083.84 305.588V291.324H1088.76C1090.42 291.324 1091.62 291.671 1092.37 292.364C1093.13 293.043 1093.52 294.069 1093.52 295.442C1093.52 297.451 1092.6 298.732 1090.76 299.284L1093.9 305.588H1092.14L1089.14 299.56H1085.47V305.588H1083.84ZM1100.14 305.8C1098.47 305.8 1097.28 305.369 1096.57 304.505C1095.88 303.628 1095.53 302.277 1095.53 300.451C1095.53 298.612 1095.88 297.26 1096.59 296.397C1097.3 295.534 1098.38 295.102 1099.84 295.102C1101.3 295.102 1102.38 295.527 1103.09 296.376C1103.79 297.211 1104.15 298.541 1104.15 300.366V301.046H1097.19C1097.24 302.263 1097.5 303.133 1097.97 303.656C1098.44 304.18 1099.17 304.442 1100.16 304.442C1100.75 304.442 1101.33 304.357 1101.9 304.187C1102.48 304.003 1103.02 303.755 1103.51 303.444L1104.04 304.739C1103.5 305.064 1102.9 305.326 1102.22 305.524C1101.55 305.708 1100.86 305.8 1100.14 305.8ZM1102.49 299.73C1102.42 298.626 1102.17 297.812 1101.75 297.289C1101.33 296.751 1100.69 296.482 1099.84 296.482C1098.99 296.482 1098.35 296.751 1097.93 297.289C1097.5 297.812 1097.26 298.626 1097.19 299.73H1102.49ZM1114.76 295.315V305.715C1114.76 307.286 1114.38 308.425 1113.61 309.133C1112.86 309.854 1111.74 310.215 1110.24 310.215C1109.65 310.215 1109.08 310.166 1108.54 310.067C1108 309.982 1107.53 309.861 1107.12 309.706L1107.46 308.368C1108.27 308.68 1109.19 308.835 1110.22 308.835C1111.24 308.835 1111.97 308.602 1112.43 308.135C1112.89 307.668 1113.13 306.904 1113.13 305.843V304.781C1112.77 305.107 1112.34 305.361 1111.83 305.545C1111.34 305.715 1110.79 305.8 1110.2 305.8C1108.87 305.8 1107.86 305.369 1107.16 304.505C1106.48 303.642 1106.14 302.291 1106.14 300.451C1106.14 298.626 1106.5 297.282 1107.2 296.418C1107.91 295.541 1108.97 295.102 1110.37 295.102C1110.96 295.102 1111.51 295.201 1112 295.4C1112.5 295.598 1112.93 295.866 1113.3 296.206L1113.55 295.315H1114.76ZM1110.62 296.461C1109.65 296.461 1108.92 296.772 1108.46 297.395C1108 298.017 1107.78 299.036 1107.78 300.451C1107.78 301.88 1108 302.906 1108.46 303.529C1108.92 304.152 1109.65 304.463 1110.62 304.463C1111.12 304.463 1111.58 304.364 1112 304.166C1112.44 303.968 1112.82 303.699 1113.13 303.359V297.565C1112.82 297.225 1112.44 296.956 1112 296.758C1111.58 296.56 1111.12 296.461 1110.62 296.461ZM1124.39 304.569C1123.91 304.951 1123.37 305.255 1122.79 305.482C1122.21 305.694 1121.61 305.8 1120.97 305.8C1119.78 305.8 1118.92 305.517 1118.4 304.951C1117.88 304.385 1117.62 303.458 1117.62 302.171V295.315H1119.25V301.725C1119.25 302.744 1119.41 303.451 1119.74 303.847C1120.08 304.244 1120.59 304.442 1121.29 304.442C1122.28 304.442 1123.26 304.081 1124.24 303.359V295.315H1125.87V305.588H1124.64L1124.39 304.569ZM1131.7 305.736C1131.63 305.765 1131.53 305.779 1131.4 305.779C1131.27 305.793 1131.17 305.8 1131.08 305.8C1130.36 305.8 1129.84 305.588 1129.51 305.163C1129.2 304.725 1129.04 304.06 1129.04 303.168V290.857L1130.66 290.602V302.935C1130.66 303.26 1130.67 303.522 1130.7 303.72C1130.73 303.918 1130.78 304.074 1130.85 304.187C1130.93 304.3 1131.04 304.378 1131.17 304.42C1131.31 304.449 1131.48 304.463 1131.7 304.463V305.736ZM1141.73 305.588H1140.52L1140.27 304.633C1139.84 305.001 1139.34 305.291 1138.76 305.503C1138.2 305.701 1137.57 305.8 1136.89 305.8C1135.83 305.8 1135.03 305.531 1134.5 304.994C1133.97 304.442 1133.71 303.656 1133.71 302.638C1133.71 301.59 1134.04 300.819 1134.69 300.324C1135.34 299.814 1136.43 299.56 1137.96 299.56C1138.41 299.56 1138.8 299.567 1139.14 299.581C1139.5 299.595 1139.82 299.623 1140.12 299.666V299.093C1140.12 298.145 1139.94 297.473 1139.57 297.076C1139.2 296.666 1138.55 296.461 1137.62 296.461C1137.18 296.461 1136.7 296.539 1136.17 296.694C1135.66 296.836 1135.15 297.048 1134.62 297.331L1134.14 296.1C1134.7 295.789 1135.3 295.548 1135.94 295.378C1136.58 295.194 1137.23 295.102 1137.91 295.102C1138.64 295.102 1139.24 295.173 1139.72 295.315C1140.21 295.456 1140.61 295.69 1140.91 296.015C1141.2 296.326 1141.42 296.73 1141.54 297.225C1141.67 297.72 1141.73 298.329 1141.73 299.05V305.588ZM1137.34 304.463C1137.81 304.463 1138.29 304.364 1138.78 304.166C1139.29 303.954 1139.74 303.678 1140.12 303.338V300.982C1139.75 300.939 1139.38 300.911 1139.02 300.897C1138.65 300.869 1138.24 300.855 1137.79 300.855C1136.89 300.855 1136.26 300.989 1135.88 301.258C1135.51 301.527 1135.32 301.98 1135.32 302.616C1135.32 303.225 1135.48 303.685 1135.79 303.996C1136.1 304.307 1136.62 304.463 1137.34 304.463ZM1145.8 295.315L1145.99 296.673C1146.45 296.164 1146.98 295.774 1147.56 295.506C1148.14 295.237 1148.72 295.102 1149.32 295.102C1149.56 295.102 1149.76 295.124 1149.93 295.166C1150.12 295.194 1150.31 295.244 1150.51 295.315V296.758C1150.08 296.588 1149.64 296.503 1149.17 296.503C1148.63 296.503 1148.1 296.652 1147.56 296.949C1147.02 297.246 1146.56 297.621 1146.18 298.074V305.588H1144.56V295.315H1145.8ZM1151.28 307.668L1157.92 289.541H1159.51L1152.87 307.668H1151.28ZM1169.08 302.149C1169.08 301.81 1169.03 301.505 1168.93 301.237C1168.83 300.968 1168.66 300.72 1168.4 300.494C1168.15 300.267 1167.79 300.048 1167.34 299.836C1166.9 299.623 1166.34 299.397 1165.66 299.156C1164.83 298.859 1164.13 298.569 1163.56 298.286C1162.99 297.989 1162.54 297.671 1162.2 297.331C1161.86 296.991 1161.62 296.616 1161.46 296.206C1161.32 295.796 1161.25 295.322 1161.25 294.784C1161.25 293.666 1161.66 292.775 1162.48 292.11C1163.3 291.444 1164.5 291.112 1166.09 291.112C1166.87 291.112 1167.58 291.211 1168.23 291.409C1168.88 291.593 1169.5 291.855 1170.1 292.194L1169.46 293.51C1168.94 293.185 1168.39 292.937 1167.83 292.768C1167.26 292.584 1166.68 292.492 1166.09 292.492C1164.98 292.492 1164.17 292.69 1163.65 293.086C1163.14 293.468 1162.88 293.999 1162.88 294.678C1162.88 295.032 1162.94 295.343 1163.05 295.612C1163.16 295.881 1163.35 296.128 1163.6 296.355C1163.87 296.581 1164.23 296.807 1164.66 297.034C1165.1 297.246 1165.66 297.48 1166.32 297.734C1167.14 298.046 1167.83 298.336 1168.38 298.605C1168.95 298.873 1169.4 299.171 1169.74 299.496C1170.09 299.807 1170.34 300.168 1170.48 300.579C1170.64 300.975 1170.71 301.456 1170.71 302.022C1170.71 303.182 1170.29 304.102 1169.44 304.781C1168.61 305.461 1167.31 305.8 1165.56 305.8C1164.66 305.8 1163.82 305.694 1163.01 305.482C1162.2 305.27 1161.52 304.994 1160.95 304.654L1161.54 303.38C1162.15 303.706 1162.78 303.968 1163.43 304.166C1164.08 304.35 1164.77 304.442 1165.49 304.442C1166.7 304.442 1167.59 304.244 1168.19 303.847C1168.78 303.437 1169.08 302.871 1169.08 302.149ZM1177.29 305.8C1175.62 305.8 1174.43 305.369 1173.72 304.505C1173.03 303.628 1172.68 302.277 1172.68 300.451C1172.68 298.612 1173.04 297.26 1173.74 296.397C1174.45 295.534 1175.53 295.102 1176.99 295.102C1178.45 295.102 1179.53 295.527 1180.24 296.376C1180.95 297.211 1181.3 298.541 1181.3 300.366V301.046H1174.34C1174.39 302.263 1174.66 303.133 1175.12 303.656C1175.59 304.18 1176.32 304.442 1177.31 304.442C1177.9 304.442 1178.48 304.357 1179.05 304.187C1179.63 304.003 1180.17 303.755 1180.66 303.444L1181.19 304.739C1180.66 305.064 1180.05 305.326 1179.37 305.524C1178.7 305.708 1178.01 305.8 1177.29 305.8ZM1179.64 299.73C1179.57 298.626 1179.33 297.812 1178.9 297.289C1178.48 296.751 1177.84 296.482 1176.99 296.482C1176.14 296.482 1175.5 296.751 1175.08 297.289C1174.66 297.812 1174.41 298.626 1174.34 299.73H1179.64ZM1185.25 296.27C1185.74 295.902 1186.25 295.619 1186.78 295.421C1187.3 295.208 1187.86 295.102 1188.45 295.102C1189.17 295.102 1189.75 295.208 1190.17 295.421C1190.61 295.633 1190.94 295.987 1191.15 296.482C1191.64 296.072 1192.18 295.739 1192.76 295.484C1193.36 295.23 1193.97 295.102 1194.61 295.102C1195.2 295.102 1195.7 295.173 1196.09 295.315C1196.49 295.442 1196.81 295.654 1197.05 295.951C1197.3 296.249 1197.48 296.631 1197.58 297.098C1197.68 297.55 1197.73 298.102 1197.73 298.753V305.588H1196.11V299.199C1196.11 298.18 1195.97 297.473 1195.69 297.076C1195.42 296.68 1194.96 296.482 1194.31 296.482C1193.38 296.482 1192.44 296.864 1191.49 297.628C1191.53 297.954 1191.55 298.329 1191.55 298.753V305.588H1189.94V299.199C1189.94 298.194 1189.81 297.494 1189.56 297.098C1189.3 296.687 1188.83 296.482 1188.13 296.482C1187.67 296.482 1187.21 296.574 1186.78 296.758C1186.34 296.928 1185.88 297.197 1185.4 297.565V305.588H1183.78V295.315H1184.99L1185.25 296.27ZM1200.79 295.315H1202.4V305.588H1200.79V295.315ZM1200.76 290.9H1202.4V293.022H1200.76V290.9ZM1209.71 304.463C1210.68 304.463 1211.4 304.152 1211.87 303.529C1212.34 302.906 1212.57 301.88 1212.57 300.451C1212.57 299.036 1212.34 298.017 1211.87 297.395C1211.4 296.772 1210.68 296.461 1209.71 296.461C1209.21 296.461 1208.74 296.56 1208.31 296.758C1207.88 296.956 1207.51 297.225 1207.2 297.565V303.359C1207.51 303.699 1207.88 303.968 1208.31 304.166C1208.74 304.364 1209.21 304.463 1209.71 304.463ZM1206.78 305.588H1205.57V290.794L1207.2 290.602V296.142C1207.56 295.817 1207.98 295.562 1208.48 295.378C1208.99 295.194 1209.54 295.102 1210.13 295.102C1211.46 295.102 1212.47 295.541 1213.15 296.418C1213.84 297.282 1214.19 298.626 1214.19 300.451C1214.19 302.291 1213.83 303.642 1213.12 304.505C1212.42 305.369 1211.36 305.8 1209.96 305.8C1209.37 305.8 1208.82 305.708 1208.33 305.524C1207.85 305.326 1207.42 305.057 1207.05 304.718L1206.78 305.588ZM1216.17 300.451C1216.17 298.612 1216.54 297.26 1217.27 296.397C1218.02 295.534 1219.21 295.102 1220.84 295.102C1222.45 295.102 1223.63 295.534 1224.36 296.397C1225.11 297.26 1225.49 298.612 1225.49 300.451C1225.49 302.291 1225.11 303.642 1224.36 304.505C1223.61 305.369 1222.44 305.8 1220.84 305.8C1219.23 305.8 1218.04 305.369 1217.29 304.505C1216.54 303.642 1216.17 302.291 1216.17 300.451ZM1217.8 300.451C1217.8 301.852 1218.04 302.871 1218.53 303.508C1219.01 304.13 1219.78 304.442 1220.84 304.442C1221.9 304.442 1222.67 304.13 1223.15 303.508C1223.63 302.871 1223.87 301.852 1223.87 300.451C1223.87 299.079 1223.63 298.074 1223.15 297.437C1222.67 296.8 1221.9 296.482 1220.84 296.482C1219.78 296.482 1219.01 296.8 1218.53 297.437C1218.04 298.074 1217.8 299.079 1217.8 300.451ZM1230.82 305.736C1230.75 305.765 1230.65 305.779 1230.52 305.779C1230.4 305.793 1230.29 305.8 1230.2 305.8C1229.48 305.8 1228.96 305.588 1228.63 305.163C1228.32 304.725 1228.17 304.06 1228.17 303.168V290.857L1229.78 290.602V302.935C1229.78 303.26 1229.79 303.522 1229.82 303.72C1229.85 303.918 1229.9 304.074 1229.97 304.187C1230.06 304.3 1230.16 304.378 1230.29 304.42C1230.43 304.449 1230.61 304.463 1230.82 304.463V305.736ZM1241.22 290.602V305.588H1240.01L1239.76 304.718C1239.39 305.057 1238.96 305.326 1238.47 305.524C1237.97 305.708 1237.43 305.8 1236.83 305.8C1235.43 305.8 1234.38 305.369 1233.67 304.505C1232.96 303.642 1232.61 302.291 1232.61 300.451C1232.61 298.626 1232.95 297.282 1233.63 296.418C1234.32 295.541 1235.33 295.102 1236.66 295.102C1237.26 295.102 1237.8 295.194 1238.3 295.378C1238.8 295.562 1239.24 295.817 1239.59 296.142V290.815L1241.22 290.602ZM1237.09 304.463C1237.58 304.463 1238.04 304.364 1238.47 304.166C1238.9 303.968 1239.28 303.699 1239.59 303.359V297.565C1239.28 297.225 1238.9 296.956 1238.47 296.758C1238.04 296.56 1237.58 296.461 1237.09 296.461C1236.11 296.461 1235.39 296.772 1234.92 297.395C1234.47 298.017 1234.24 299.036 1234.24 300.451C1234.24 301.88 1234.47 302.906 1234.92 303.529C1235.39 304.152 1236.11 304.463 1237.09 304.463ZM1089.06 327.687V331.189H1087.57V327.687H1083.94V326.286H1087.57V322.805H1089.06V326.286H1092.73V327.687H1089.06ZM1099.46 333.588V321.022L1095.87 323.442L1095.06 322.232L1099.46 319.324H1101.11V333.588H1099.46ZM1107.47 334.225H1105.94L1116.28 318.602H1117.79L1107.47 334.225ZM1104.71 322.89C1104.71 321.602 1104.96 320.647 1105.46 320.025C1105.95 319.388 1106.67 319.069 1107.6 319.069C1108.53 319.069 1109.25 319.388 1109.74 320.025C1110.24 320.647 1110.49 321.602 1110.49 322.89C1110.49 324.178 1110.24 325.14 1109.74 325.777C1109.25 326.414 1108.53 326.732 1107.6 326.732C1106.67 326.732 1105.95 326.414 1105.46 325.777C1104.96 325.14 1104.71 324.178 1104.71 322.89ZM1106.18 322.89C1106.18 324.616 1106.65 325.48 1107.6 325.48C1108.55 325.48 1109.02 324.616 1109.02 322.89C1109.02 321.164 1108.55 320.301 1107.6 320.301C1106.65 320.301 1106.18 321.164 1106.18 322.89ZM1113.31 329.916C1113.31 328.628 1113.56 327.673 1114.05 327.05C1114.55 326.414 1115.26 326.095 1116.2 326.095C1117.13 326.095 1117.84 326.414 1118.34 327.05C1118.84 327.673 1119.08 328.628 1119.08 329.916C1119.08 331.204 1118.84 332.166 1118.34 332.803C1117.84 333.425 1117.13 333.736 1116.2 333.736C1115.26 333.736 1114.55 333.425 1114.05 332.803C1113.56 332.166 1113.31 331.204 1113.31 329.916ZM1114.77 329.916C1114.77 331.642 1115.25 332.505 1116.2 332.505C1117.14 332.505 1117.62 331.642 1117.62 329.916C1117.62 328.189 1117.14 327.326 1116.2 327.326C1115.25 327.326 1114.77 328.189 1114.77 329.916ZM1129.78 324.694V329.767C1129.78 330.234 1129.8 330.638 1129.84 330.977C1129.88 331.317 1129.97 331.6 1130.1 331.826C1130.24 332.038 1130.43 332.194 1130.67 332.293C1130.92 332.392 1131.26 332.442 1131.69 332.442C1132 332.442 1132.3 332.406 1132.6 332.336C1132.91 332.265 1133.21 332.18 1133.49 332.081L1133.81 333.312C1132.96 333.637 1132.1 333.8 1131.24 333.8C1130.62 333.8 1130.1 333.715 1129.69 333.545C1129.3 333.376 1128.98 333.142 1128.74 332.845C1128.51 332.534 1128.35 332.166 1128.27 331.741C1128.18 331.303 1128.14 330.821 1128.14 330.298V324.694H1126.47V323.315H1128.14V321.15L1129.78 320.852V323.315H1133.41V324.694H1129.78ZM1136.99 323.315L1137.18 324.673C1137.64 324.164 1138.17 323.774 1138.75 323.506C1139.33 323.237 1139.92 323.102 1140.51 323.102C1140.75 323.102 1140.96 323.124 1141.13 323.166C1141.31 323.194 1141.5 323.244 1141.7 323.315V324.758C1141.27 324.588 1140.83 324.503 1140.36 324.503C1139.82 324.503 1139.29 324.652 1138.75 324.949C1138.21 325.246 1137.75 325.621 1137.37 326.074V333.588H1135.75V323.315H1136.99ZM1150.61 333.588H1149.4L1149.14 332.633C1148.72 333.001 1148.21 333.291 1147.63 333.503C1147.07 333.701 1146.45 333.8 1145.77 333.8C1144.7 333.8 1143.91 333.531 1143.37 332.994C1142.84 332.442 1142.58 331.656 1142.58 330.638C1142.58 329.59 1142.91 328.819 1143.56 328.324C1144.21 327.814 1145.3 327.56 1146.83 327.56C1147.28 327.56 1147.68 327.567 1148.02 327.581C1148.37 327.595 1148.7 327.623 1148.99 327.666V327.093C1148.99 326.145 1148.81 325.473 1148.44 325.076C1148.07 324.666 1147.42 324.461 1146.49 324.461C1146.05 324.461 1145.57 324.539 1145.04 324.694C1144.54 324.836 1144.02 325.048 1143.5 325.331L1143.01 324.1C1143.57 323.789 1144.17 323.548 1144.81 323.378C1145.45 323.194 1146.11 323.102 1146.79 323.102C1147.51 323.102 1148.11 323.173 1148.59 323.315C1149.08 323.456 1149.48 323.69 1149.78 324.015C1150.08 324.326 1150.29 324.73 1150.41 325.225C1150.54 325.72 1150.61 326.329 1150.61 327.05V333.588ZM1146.21 332.463C1146.68 332.463 1147.16 332.364 1147.66 332.166C1148.16 331.954 1148.61 331.678 1148.99 331.338V328.982C1148.62 328.939 1148.26 328.911 1147.89 328.897C1147.52 328.869 1147.11 328.855 1146.66 328.855C1145.77 328.855 1145.13 328.989 1144.75 329.258C1144.38 329.527 1144.2 329.98 1144.2 330.616C1144.2 331.225 1144.35 331.685 1144.66 331.996C1144.97 332.307 1145.49 332.463 1146.21 332.463ZM1157.83 332.442C1158.82 332.442 1159.7 332.194 1160.48 331.699L1160.95 332.994C1160.54 333.234 1160.07 333.432 1159.53 333.588C1159 333.729 1158.44 333.8 1157.83 333.8C1156.15 333.8 1154.91 333.383 1154.14 332.548C1153.36 331.699 1152.97 330.333 1152.97 328.451C1152.97 326.612 1153.34 325.26 1154.09 324.397C1154.84 323.534 1156.02 323.102 1157.62 323.102C1158.99 323.102 1160.12 323.52 1160.99 324.355L1160.1 325.458C1159.79 325.147 1159.42 324.907 1159 324.737C1158.59 324.553 1158.14 324.461 1157.66 324.461C1156.64 324.461 1155.87 324.772 1155.35 325.395C1154.84 326.003 1154.58 327.022 1154.58 328.451C1154.58 329.88 1154.85 330.906 1155.39 331.529C1155.93 332.137 1156.74 332.442 1157.83 332.442ZM1163.14 333.588V318.815L1164.77 318.602V327.326H1165.77L1169.61 323.315H1171.58L1167.06 328.027L1171.71 333.588H1169.74L1165.75 328.706H1164.77V333.588H1163.14ZM1173.67 323.315H1175.29V333.588H1173.67V323.315ZM1173.65 318.9H1175.29V321.022H1173.65V318.9ZM1179.94 324.355C1180.42 323.973 1180.95 323.668 1181.53 323.442C1182.11 323.216 1182.72 323.102 1183.36 323.102C1184.55 323.102 1185.4 323.392 1185.91 323.973C1186.43 324.539 1186.69 325.465 1186.69 326.753V333.588H1185.08V327.199C1185.08 326.18 1184.91 325.473 1184.57 325.076C1184.24 324.68 1183.73 324.482 1183.04 324.482C1182.05 324.482 1181.06 324.843 1180.07 325.565V333.588H1178.46V323.315H1179.67L1179.94 324.355ZM1197.65 323.315V333.715C1197.65 335.286 1197.27 336.425 1196.51 337.133C1195.76 337.854 1194.63 338.215 1193.13 338.215C1192.54 338.215 1191.97 338.166 1191.43 338.067C1190.9 337.982 1190.42 337.861 1190.01 337.706L1190.35 336.368C1191.16 336.68 1192.08 336.835 1193.11 336.835C1194.13 336.835 1194.87 336.602 1195.32 336.135C1195.79 335.668 1196.02 334.904 1196.02 333.843V332.781C1195.67 333.107 1195.23 333.361 1194.72 333.545C1194.23 333.715 1193.68 333.8 1193.09 333.8C1191.76 333.8 1190.75 333.369 1190.05 332.505C1189.38 331.642 1189.04 330.291 1189.04 328.451C1189.04 326.626 1189.39 325.282 1190.1 324.418C1190.8 323.541 1191.86 323.102 1193.26 323.102C1193.85 323.102 1194.4 323.201 1194.89 323.4C1195.39 323.598 1195.82 323.866 1196.19 324.206L1196.44 323.315H1197.65ZM1193.51 324.461C1192.54 324.461 1191.82 324.772 1191.35 325.395C1190.9 326.017 1190.67 327.036 1190.67 328.451C1190.67 329.88 1190.9 330.906 1191.35 331.529C1191.82 332.152 1192.54 332.463 1193.51 332.463C1194.01 332.463 1194.47 332.364 1194.89 332.166C1195.33 331.968 1195.71 331.699 1196.02 331.359V325.565C1195.71 325.225 1195.33 324.956 1194.89 324.758C1194.47 324.56 1194.01 324.461 1193.51 324.461Z" fill="#F7F3EB"/>
<path d="M1092.28 502.325V503.705H1083.84V489.441H1085.47V502.325H1092.28ZM1099.63 502.538C1100.19 502.538 1100.74 502.502 1101.26 502.432C1101.8 502.347 1102.31 502.226 1102.79 502.071V497.783H1099.14V496.403H1104.4V503.005C1103.76 503.245 1103.01 503.457 1102.15 503.641C1101.29 503.825 1100.43 503.917 1099.58 503.917C1098.41 503.917 1097.4 503.762 1096.57 503.45C1095.75 503.125 1095.08 502.658 1094.55 502.049C1094.03 501.427 1093.65 500.663 1093.41 499.757C1093.18 498.837 1093.07 497.776 1093.07 496.573C1093.07 494.054 1093.58 492.201 1094.62 491.012C1095.66 489.823 1097.21 489.229 1099.24 489.229C1100.39 489.229 1101.38 489.406 1102.22 489.76C1103.05 490.099 1103.74 490.566 1104.3 491.161L1103.32 492.264C1102.8 491.713 1102.21 491.302 1101.56 491.033C1100.91 490.764 1100.14 490.63 1099.24 490.63C1097.73 490.63 1096.59 491.111 1095.83 492.073C1095.08 493.021 1094.7 494.521 1094.7 496.573C1094.7 498.611 1095.08 500.118 1095.85 501.094C1096.61 502.057 1097.87 502.538 1099.63 502.538ZM1122.49 502.325V503.705H1113.73V489.441H1122.28V490.842H1115.36V495.576H1122.03V496.955H1115.36V502.325H1122.49ZM1125.69 489.441H1127.33V503.705H1125.69V489.441ZM1146.01 489.441V490.821H1141.61V503.705H1139.98V490.821H1135.61V489.441H1146.01ZM1150.28 503.917C1148.61 503.917 1147.42 503.486 1146.71 502.623C1146.02 501.745 1145.67 500.394 1145.67 498.568C1145.67 496.729 1146.03 495.377 1146.73 494.514C1147.44 493.651 1148.52 493.22 1149.98 493.22C1151.44 493.22 1152.52 493.644 1153.23 494.493C1153.94 495.328 1154.29 496.658 1154.29 498.484V499.163H1147.33C1147.38 500.38 1147.65 501.25 1148.11 501.774C1148.58 502.297 1149.31 502.559 1150.3 502.559C1150.89 502.559 1151.47 502.474 1152.04 502.304C1152.62 502.12 1153.16 501.873 1153.65 501.561L1154.18 502.856C1153.65 503.182 1153.04 503.443 1152.36 503.641C1151.69 503.825 1151 503.917 1150.28 503.917ZM1152.63 497.847C1152.56 496.743 1152.32 495.929 1151.89 495.406C1151.47 494.868 1150.83 494.599 1149.98 494.599C1149.13 494.599 1148.5 494.868 1148.07 495.406C1147.65 495.929 1147.4 496.743 1147.33 497.847H1152.63ZM1160.22 499.736H1160.15L1157.39 503.705H1155.53L1159.26 498.462L1155.65 493.432H1157.52L1160.15 497.252H1160.22L1162.87 493.432H1164.74L1161.13 498.462L1164.85 503.705H1162.98L1160.22 499.736ZM1169.1 494.811V499.884C1169.1 500.351 1169.12 500.755 1169.16 501.094C1169.2 501.434 1169.29 501.717 1169.42 501.943C1169.56 502.156 1169.75 502.311 1169.99 502.41C1170.24 502.509 1170.58 502.559 1171.01 502.559C1171.32 502.559 1171.62 502.524 1171.92 502.453C1172.23 502.382 1172.53 502.297 1172.81 502.198L1173.13 503.429C1172.28 503.755 1171.43 503.917 1170.56 503.917C1169.94 503.917 1169.42 503.832 1169.01 503.663C1168.62 503.493 1168.3 503.259 1168.06 502.962C1167.83 502.651 1167.68 502.283 1167.59 501.858C1167.51 501.42 1167.46 500.939 1167.46 500.415V494.811H1165.79V493.432H1167.46V491.267L1169.1 490.97V493.432H1172.73V494.811H1169.1ZM1085.47 519.842V525.297H1088.8C1089.86 525.297 1090.64 525.064 1091.12 524.597C1091.6 524.13 1091.84 523.451 1091.84 522.559C1091.84 521.625 1091.6 520.939 1091.12 520.5C1090.65 520.062 1089.9 519.842 1088.87 519.842H1085.47ZM1083.84 532.705V518.441H1088.76C1090.42 518.441 1091.62 518.788 1092.37 519.481C1093.13 520.161 1093.52 521.187 1093.52 522.559C1093.52 524.569 1092.6 525.849 1090.76 526.401L1093.9 532.705H1092.14L1089.14 526.677H1085.47V532.705H1083.84ZM1100.14 532.917C1098.47 532.917 1097.28 532.486 1096.57 531.623C1095.88 530.745 1095.53 529.394 1095.53 527.568C1095.53 525.729 1095.88 524.377 1096.59 523.514C1097.3 522.651 1098.38 522.22 1099.84 522.22C1101.3 522.22 1102.38 522.644 1103.09 523.493C1103.79 524.328 1104.15 525.658 1104.15 527.484V528.163H1097.19C1097.24 529.38 1097.5 530.25 1097.97 530.774C1098.44 531.297 1099.17 531.559 1100.16 531.559C1100.75 531.559 1101.33 531.474 1101.9 531.304C1102.48 531.12 1103.02 530.873 1103.51 530.561L1104.04 531.856C1103.5 532.182 1102.9 532.443 1102.22 532.641C1101.55 532.825 1100.86 532.917 1100.14 532.917ZM1102.49 526.847C1102.42 525.743 1102.17 524.929 1101.75 524.406C1101.33 523.868 1100.69 523.599 1099.84 523.599C1098.99 523.599 1098.35 523.868 1097.93 524.406C1097.5 524.929 1097.26 525.743 1097.19 526.847H1102.49ZM1114.76 522.432V532.832C1114.76 534.403 1114.38 535.542 1113.61 536.25C1112.86 536.971 1111.74 537.332 1110.24 537.332C1109.65 537.332 1109.08 537.283 1108.54 537.184C1108 537.099 1107.53 536.979 1107.12 536.823L1107.46 535.486C1108.27 535.797 1109.19 535.953 1110.22 535.953C1111.24 535.953 1111.97 535.719 1112.43 535.252C1112.89 534.785 1113.13 534.021 1113.13 532.96V531.898C1112.77 532.224 1112.34 532.479 1111.83 532.663C1111.34 532.832 1110.79 532.917 1110.2 532.917C1108.87 532.917 1107.86 532.486 1107.16 531.623C1106.48 530.759 1106.14 529.408 1106.14 527.568C1106.14 525.743 1106.5 524.399 1107.2 523.536C1107.91 522.658 1108.97 522.22 1110.37 522.22C1110.96 522.22 1111.51 522.319 1112 522.517C1112.5 522.715 1112.93 522.984 1113.3 523.323L1113.55 522.432H1114.76ZM1110.62 523.578C1109.65 523.578 1108.92 523.889 1108.46 524.512C1108 525.135 1107.78 526.153 1107.78 527.568C1107.78 528.998 1108 530.024 1108.46 530.646C1108.92 531.269 1109.65 531.58 1110.62 531.58C1111.12 531.58 1111.58 531.481 1112 531.283C1112.44 531.085 1112.82 530.816 1113.13 530.476V524.682C1112.82 524.342 1112.44 524.073 1112 523.875C1111.58 523.677 1111.12 523.578 1110.62 523.578ZM1124.39 531.686C1123.91 532.068 1123.37 532.373 1122.79 532.599C1122.21 532.811 1121.61 532.917 1120.97 532.917C1119.78 532.917 1118.92 532.634 1118.4 532.068C1117.88 531.502 1117.62 530.575 1117.62 529.288V522.432H1119.25V528.842C1119.25 529.861 1119.41 530.568 1119.74 530.965C1120.08 531.361 1120.59 531.559 1121.29 531.559C1122.28 531.559 1123.26 531.198 1124.24 530.476V522.432H1125.87V532.705H1124.64L1124.39 531.686ZM1131.7 532.854C1131.63 532.882 1131.53 532.896 1131.4 532.896C1131.27 532.91 1131.17 532.917 1131.08 532.917C1130.36 532.917 1129.84 532.705 1129.51 532.281C1129.2 531.842 1129.04 531.177 1129.04 530.285V517.974L1130.66 517.72V530.052C1130.66 530.377 1130.67 530.639 1130.7 530.837C1130.73 531.035 1130.78 531.191 1130.85 531.304C1130.93 531.417 1131.04 531.495 1131.17 531.538C1131.31 531.566 1131.48 531.58 1131.7 531.58V532.854ZM1141.73 532.705H1140.52L1140.27 531.75C1139.84 532.118 1139.34 532.408 1138.76 532.62C1138.2 532.818 1137.57 532.917 1136.89 532.917C1135.83 532.917 1135.03 532.648 1134.5 532.111C1133.97 531.559 1133.71 530.774 1133.71 529.755C1133.71 528.708 1134.04 527.936 1134.69 527.441C1135.34 526.932 1136.43 526.677 1137.96 526.677C1138.41 526.677 1138.8 526.684 1139.14 526.698C1139.5 526.712 1139.82 526.741 1140.12 526.783V526.21C1140.12 525.262 1139.94 524.59 1139.57 524.194C1139.2 523.783 1138.55 523.578 1137.62 523.578C1137.18 523.578 1136.7 523.656 1136.17 523.811C1135.66 523.953 1135.15 524.165 1134.62 524.448L1134.14 523.217C1134.7 522.906 1135.3 522.665 1135.94 522.495C1136.58 522.312 1137.23 522.22 1137.91 522.22C1138.64 522.22 1139.24 522.29 1139.72 522.432C1140.21 522.573 1140.61 522.807 1140.91 523.132C1141.2 523.444 1141.42 523.847 1141.54 524.342C1141.67 524.837 1141.73 525.446 1141.73 526.168V532.705ZM1137.34 531.58C1137.81 531.58 1138.29 531.481 1138.78 531.283C1139.29 531.071 1139.74 530.795 1140.12 530.455V528.099C1139.75 528.057 1139.38 528.028 1139.02 528.014C1138.65 527.986 1138.24 527.972 1137.79 527.972C1136.89 527.972 1136.26 528.106 1135.88 528.375C1135.51 528.644 1135.32 529.097 1135.32 529.733C1135.32 530.342 1135.48 530.802 1135.79 531.113C1136.1 531.424 1136.62 531.58 1137.34 531.58ZM1145.8 522.432L1145.99 523.79C1146.45 523.281 1146.98 522.892 1147.56 522.623C1148.14 522.354 1148.72 522.22 1149.32 522.22C1149.56 522.22 1149.76 522.241 1149.93 522.283C1150.12 522.312 1150.31 522.361 1150.51 522.432V523.875C1150.08 523.705 1149.64 523.62 1149.17 523.62C1148.63 523.62 1148.1 523.769 1147.56 524.066C1147.02 524.363 1146.56 524.738 1146.18 525.191V532.705H1144.56V522.432H1145.8ZM1083.39 553.594C1083.39 552.335 1083.5 551.245 1083.73 550.326C1083.97 549.392 1084.31 548.628 1084.75 548.033C1085.19 547.425 1085.72 546.972 1086.34 546.675C1086.96 546.378 1087.66 546.229 1088.42 546.229C1089.2 546.229 1089.9 546.378 1090.52 546.675C1091.15 546.972 1091.68 547.425 1092.11 548.033C1092.55 548.628 1092.89 549.392 1093.11 550.326C1093.35 551.245 1093.47 552.335 1093.47 553.594C1093.47 554.854 1093.35 555.943 1093.11 556.863C1092.89 557.769 1092.55 558.526 1092.11 559.134C1091.68 559.743 1091.15 560.196 1090.52 560.493C1089.9 560.776 1089.2 560.917 1088.42 560.917C1086.88 560.917 1085.65 560.323 1084.75 559.134C1083.84 557.946 1083.39 556.099 1083.39 553.594ZM1085.03 553.594C1085.03 555.561 1085.32 557.047 1085.92 558.052C1086.53 559.057 1087.36 559.559 1088.42 559.559C1089.48 559.559 1090.32 559.057 1090.93 558.052C1091.53 557.047 1091.84 555.561 1091.84 553.594C1091.84 551.628 1091.53 550.142 1090.93 549.137C1090.32 548.118 1089.48 547.609 1088.42 547.609C1087.36 547.609 1086.53 548.118 1085.92 549.137C1085.32 550.142 1085.03 551.628 1085.03 553.594ZM1098.5 561.342H1096.97L1107.31 545.72H1108.81L1098.5 561.342ZM1095.74 550.007C1095.74 548.72 1095.99 547.764 1096.48 547.142C1096.98 546.505 1097.69 546.187 1098.62 546.187C1099.56 546.187 1100.27 546.505 1100.77 547.142C1101.26 547.764 1101.51 548.72 1101.51 550.007C1101.51 551.295 1101.26 552.257 1100.77 552.894C1100.27 553.531 1099.56 553.849 1098.62 553.849C1097.69 553.849 1096.98 553.531 1096.48 552.894C1095.99 552.257 1095.74 551.295 1095.74 550.007ZM1097.2 550.007C1097.2 551.734 1097.68 552.597 1098.62 552.597C1099.57 552.597 1100.05 551.734 1100.05 550.007C1100.05 548.281 1099.57 547.418 1098.62 547.418C1097.68 547.418 1097.2 548.281 1097.2 550.007ZM1104.33 557.033C1104.33 555.745 1104.58 554.79 1105.08 554.168C1105.57 553.531 1106.29 553.212 1107.22 553.212C1108.15 553.212 1108.87 553.531 1109.36 554.168C1109.86 554.79 1110.11 555.745 1110.11 557.033C1110.11 558.321 1109.86 559.283 1109.36 559.92C1108.87 560.542 1108.15 560.854 1107.22 560.854C1106.29 560.854 1105.57 560.542 1105.08 559.92C1104.58 559.283 1104.33 558.321 1104.33 557.033ZM1105.8 557.033C1105.8 558.759 1106.27 559.623 1107.22 559.623C1108.17 559.623 1108.64 558.759 1108.64 557.033C1108.64 555.307 1108.17 554.443 1107.22 554.443C1106.27 554.443 1105.8 555.307 1105.8 557.033ZM1120.8 551.811V556.884C1120.8 557.351 1120.82 557.755 1120.87 558.094C1120.91 558.434 1120.99 558.717 1121.12 558.943C1121.26 559.156 1121.45 559.311 1121.69 559.41C1121.95 559.509 1122.29 559.559 1122.71 559.559C1123.02 559.559 1123.33 559.524 1123.62 559.453C1123.94 559.382 1124.23 559.297 1124.52 559.198L1124.83 560.429C1123.99 560.755 1123.13 560.917 1122.27 560.917C1121.64 560.917 1121.13 560.832 1120.72 560.663C1120.32 560.493 1120 560.259 1119.76 559.962C1119.53 559.651 1119.38 559.283 1119.29 558.858C1119.21 558.42 1119.17 557.939 1119.17 557.415V551.811H1117.49V550.432H1119.17V548.267L1120.8 547.97V550.432H1124.43V551.811H1120.8ZM1128.01 550.432L1128.2 551.79C1128.67 551.281 1129.19 550.892 1129.77 550.623C1130.35 550.354 1130.94 550.22 1131.53 550.22C1131.77 550.22 1131.98 550.241 1132.15 550.283C1132.33 550.312 1132.52 550.361 1132.72 550.432V551.875C1132.3 551.705 1131.85 551.62 1131.39 551.62C1130.85 551.62 1130.31 551.769 1129.77 552.066C1129.23 552.363 1128.77 552.738 1128.39 553.191V560.705H1126.78V550.432H1128.01ZM1141.63 560.705H1140.42L1140.17 559.75C1139.74 560.118 1139.24 560.408 1138.66 560.62C1138.09 560.818 1137.47 560.917 1136.79 560.917C1135.73 560.917 1134.93 560.648 1134.39 560.111C1133.87 559.559 1133.61 558.774 1133.61 557.755C1133.61 556.708 1133.93 555.936 1134.58 555.441C1135.23 554.932 1136.32 554.677 1137.85 554.677C1138.3 554.677 1138.7 554.684 1139.04 554.698C1139.39 554.712 1139.72 554.741 1140.02 554.783V554.21C1140.02 553.262 1139.83 552.59 1139.47 552.194C1139.1 551.783 1138.45 551.578 1137.51 551.578C1137.07 551.578 1136.59 551.656 1136.07 551.811C1135.56 551.953 1135.04 552.165 1134.52 552.448L1134.03 551.217C1134.6 550.906 1135.2 550.665 1135.84 550.495C1136.47 550.312 1137.13 550.22 1137.81 550.22C1138.53 550.22 1139.13 550.29 1139.61 550.432C1140.11 550.573 1140.51 550.807 1140.8 551.132C1141.1 551.444 1141.31 551.847 1141.44 552.342C1141.57 552.837 1141.63 553.446 1141.63 554.168V560.705ZM1137.24 559.58C1137.7 559.58 1138.18 559.481 1138.68 559.283C1139.19 559.071 1139.64 558.795 1140.02 558.455V556.099C1139.65 556.057 1139.28 556.028 1138.91 556.014C1138.55 555.986 1138.14 555.972 1137.68 555.972C1136.79 555.972 1136.15 556.106 1135.77 556.375C1135.4 556.644 1135.22 557.097 1135.22 557.733C1135.22 558.342 1135.38 558.802 1135.69 559.113C1136 559.424 1136.51 559.58 1137.24 559.58ZM1148.85 559.559C1149.85 559.559 1150.73 559.311 1151.51 558.816L1151.97 560.111C1151.56 560.351 1151.09 560.549 1150.55 560.705C1150.03 560.847 1149.46 560.917 1148.85 560.917C1147.17 560.917 1145.94 560.5 1145.16 559.665C1144.38 558.816 1143.99 557.45 1143.99 555.568C1143.99 553.729 1144.37 552.377 1145.12 551.514C1145.87 550.651 1147.04 550.22 1148.64 550.22C1150.01 550.22 1151.14 550.637 1152.02 551.472L1151.13 552.576C1150.81 552.264 1150.45 552.024 1150.02 551.854C1149.61 551.67 1149.17 551.578 1148.68 551.578C1147.67 551.578 1146.89 551.889 1146.37 552.512C1145.86 553.12 1145.61 554.139 1145.61 555.568C1145.61 556.998 1145.88 558.024 1146.41 558.646C1146.95 559.255 1147.76 559.559 1148.85 559.559ZM1154.16 560.705V545.932L1155.8 545.72V554.443H1156.79L1160.64 550.432H1162.61L1158.09 555.144L1162.74 560.705H1160.76L1156.77 555.823H1155.8V560.705H1154.16ZM1164.7 550.432H1166.31V560.705H1164.7V550.432ZM1164.68 546.017H1166.31V548.139H1164.68V546.017ZM1170.97 551.472C1171.45 551.09 1171.98 550.786 1172.56 550.559C1173.14 550.333 1173.75 550.22 1174.38 550.22C1175.57 550.22 1176.42 550.51 1176.93 551.09C1177.45 551.656 1177.72 552.583 1177.72 553.87V560.705H1176.1V554.316C1176.1 553.297 1175.93 552.59 1175.59 552.194C1175.27 551.797 1174.76 551.599 1174.06 551.599C1173.07 551.599 1172.08 551.96 1171.09 552.682V560.705H1169.48V550.432H1170.69L1170.97 551.472ZM1188.68 550.432V560.832C1188.68 562.403 1188.3 563.542 1187.53 564.25C1186.78 564.971 1185.66 565.332 1184.16 565.332C1183.56 565.332 1183 565.283 1182.46 565.184C1181.92 565.099 1181.45 564.979 1181.04 564.823L1181.38 563.486C1182.18 563.797 1183.1 563.953 1184.14 563.953C1185.15 563.953 1185.89 563.719 1186.34 563.252C1186.81 562.785 1187.04 562.021 1187.04 560.96V559.898C1186.69 560.224 1186.26 560.479 1185.75 560.663C1185.25 560.832 1184.71 560.917 1184.11 560.917C1182.78 560.917 1181.77 560.486 1181.08 559.623C1180.4 558.759 1180.06 557.408 1180.06 555.568C1180.06 553.743 1180.41 552.399 1181.12 551.536C1181.83 550.658 1182.88 550.22 1184.28 550.22C1184.88 550.22 1185.42 550.319 1185.92 550.517C1186.41 550.715 1186.85 550.984 1187.21 551.323L1187.47 550.432H1188.68ZM1184.54 551.578C1183.56 551.578 1182.84 551.889 1182.37 552.512C1181.92 553.135 1181.7 554.153 1181.7 555.568C1181.7 556.998 1181.92 558.024 1182.37 558.646C1182.84 559.269 1183.56 559.58 1184.54 559.58C1185.03 559.58 1185.49 559.481 1185.92 559.283C1186.36 559.085 1186.73 558.816 1187.04 558.476V552.682C1186.73 552.342 1186.36 552.073 1185.92 551.875C1185.49 551.677 1185.03 551.578 1184.54 551.578Z" fill="#F7F3EB"/>
<path opacity="0.5" d="M277.656 212.137L1402.34 212.137" stroke="#9E9E9E" stroke-width="0.849032"/>
<path opacity="0.5" d="M277.656 458.355L1402.34 458.356" stroke="#9E9E9E" stroke-width="0.849032"/>
</svg>
