<svg width="335" height="335" viewBox="0 0 335 335" fill="none" xmlns="http://www.w3.org/2000/svg">
<g clip-path="url(#clip0_81_2491)">
<rect width="335" height="335" fill="white"/>
<rect x="-87" width="678.072" height="335" rx="12.1084" fill="#262626"/>
<path d="M50.4523 144.502H40.9916V95.7497H24.1158V87.2265H67.4133V95.7497H50.4523V144.502ZM73.823 96.5168V87.2265H83.2836V96.5168H73.823ZM73.823 144.502V102.909H83.2836V144.502H73.823ZM89.6607 102.909H95.9678V92.3404H105.428V102.909H115.401V111.177H105.428V133.166C105.428 135.894 106.451 136.49 109.264 136.49H115.401V144.502H108.241C101.678 144.502 95.9678 141.604 95.9678 134.019V111.177H89.6607V102.909ZM132.961 145.354C126.398 145.354 122.222 142.712 122.222 135.638V87.2265H131.682V134.019C131.682 136.746 132.535 137.343 135.006 137.343H136.626V145.354H132.961ZM181.075 132.399C178.263 140.752 170.507 145.695 161.302 145.695C149.284 145.695 139.994 136.916 139.994 123.62C139.994 110.495 149.284 101.801 161.046 101.801C171.529 101.801 181.842 109.046 181.842 123.791V126.433H149.454C150.136 134.7 153.716 137.343 161.302 137.343C167.097 137.343 169.91 135.979 171.615 132.399H181.075ZM149.625 119.444H172.552C171.785 112.711 168.376 110.069 161.046 110.069C154.142 110.069 150.562 112.455 149.625 119.444Z" fill="#F7F3EB"/>
<path d="M35.4162 249.061C37.3672 249.061 38.8369 248.645 39.8254 247.813C40.8139 246.954 41.3082 245.771 41.3082 244.262C41.3082 242.623 40.8269 241.374 39.8645 240.516C38.928 239.632 37.4842 239.189 35.5332 239.189H29.173V249.061H35.4162ZM40.4888 232.322C40.4888 229.408 38.8239 227.952 35.4942 227.952H29.173V236.731H35.2991C37.094 236.731 38.4077 236.341 39.2401 235.56C40.0726 234.754 40.4888 233.674 40.4888 232.322ZM43.4933 231.932C43.4933 233.492 43.1421 234.767 42.4398 235.756C41.7634 236.718 40.84 237.394 39.6694 237.785C41.1781 238.201 42.3227 238.955 43.1031 240.048C43.9095 241.14 44.3127 242.545 44.3127 244.262C44.3127 246.629 43.5323 248.45 41.9715 249.725C40.4367 250.973 38.3297 251.598 35.6503 251.598H26.1684V225.376H35.4162C38.0175 225.376 40.0075 225.949 41.3862 227.093C42.791 228.212 43.4933 229.824 43.4933 231.932ZM48.1614 242.155C48.1614 238.773 48.8377 236.289 50.1904 234.702C51.5691 233.115 53.7543 232.322 56.7458 232.322C59.7113 232.322 61.8704 233.115 63.2231 234.702C64.6018 236.289 65.2912 238.773 65.2912 242.155C65.2912 245.537 64.6018 248.021 63.2231 249.608C61.8444 251.194 59.6853 251.988 56.7458 251.988C53.7803 251.988 51.6082 251.194 50.2294 249.608C48.8507 248.021 48.1614 245.537 48.1614 242.155ZM51.1659 242.155C51.1659 244.73 51.6082 246.603 52.4926 247.774C53.3771 248.918 54.7948 249.491 56.7458 249.491C58.6968 249.491 60.1145 248.918 60.999 247.774C61.8834 246.603 62.3256 244.73 62.3256 242.155C62.3256 239.632 61.8834 237.785 60.999 236.614C60.1145 235.443 58.6968 234.858 56.7458 234.858C54.7948 234.858 53.3771 235.443 52.4926 236.614C51.6082 237.785 51.1659 239.632 51.1659 242.155ZM84.771 224.05V251.598H82.5468L82.0786 249.998C81.4023 250.622 80.6089 251.116 79.6984 251.481C78.7879 251.819 77.7864 251.988 76.6938 251.988C74.1185 251.988 72.1805 251.194 70.8799 249.608C69.5792 248.021 68.9289 245.537 68.9289 242.155C68.9289 238.799 69.5532 236.328 70.8018 234.741C72.0765 233.128 73.9364 232.322 76.3817 232.322C77.4742 232.322 78.4758 232.491 79.3862 232.829C80.3227 233.167 81.1161 233.635 81.7664 234.234V224.44L84.771 224.05ZM77.1621 249.53C78.0726 249.53 78.918 249.348 79.6984 248.983C80.5048 248.619 81.1942 248.125 81.7664 247.501V236.848C81.1942 236.224 80.5048 235.73 79.6984 235.365C78.918 235.001 78.0726 234.819 77.1621 234.819C75.3672 234.819 74.0405 235.391 73.182 236.536C72.3496 237.681 71.9334 239.553 71.9334 242.155C71.9334 244.782 72.3496 246.668 73.182 247.813C74.0405 248.957 75.3672 249.53 77.1621 249.53ZM88.1057 232.712H91.2273L96.6901 247.501H96.8071L101.919 232.712H105.001L97.3534 254.017C96.9632 255.161 96.534 256.111 96.0658 256.865C95.5975 257.646 95.0642 258.27 94.4659 258.738C93.8936 259.233 93.2303 259.584 92.4759 259.792C91.7475 260 90.9021 260.104 89.9396 260.104C89.2112 260.104 88.6389 260.026 88.2227 259.87L88.652 257.412C89.0682 257.516 89.5754 257.568 90.1737 257.568C90.72 257.568 91.2013 257.477 91.6175 257.295C92.0597 257.112 92.4369 256.878 92.7491 256.592C93.0872 256.306 93.3734 255.981 93.6075 255.617C93.8416 255.253 94.0367 254.875 94.1928 254.485L95.3634 251.364L88.1057 232.712ZM127.25 249.491C129.071 249.491 130.697 249.035 132.128 248.125L132.986 250.505C132.232 250.947 131.36 251.312 130.372 251.598C129.409 251.858 128.369 251.988 127.25 251.988C124.154 251.988 121.891 251.22 120.461 249.686C119.03 248.125 118.314 245.615 118.314 242.155C118.314 238.773 119.004 236.289 120.383 234.702C121.761 233.115 123.92 232.322 126.86 232.322C129.383 232.322 131.451 233.089 133.064 234.624L131.425 236.653C130.853 236.081 130.177 235.638 129.396 235.326C128.642 234.988 127.822 234.819 126.938 234.819C125.065 234.819 123.647 235.391 122.685 236.536C121.748 237.655 121.28 239.527 121.28 242.155C121.28 244.782 121.774 246.668 122.763 247.813C123.751 248.931 125.247 249.491 127.25 249.491ZM135.118 242.155C135.118 238.773 135.794 236.289 137.147 234.702C138.526 233.115 140.711 232.322 143.702 232.322C146.668 232.322 148.827 233.115 150.18 234.702C151.558 236.289 152.248 238.773 152.248 242.155C152.248 245.537 151.558 248.021 150.18 249.608C148.801 251.194 146.642 251.988 143.702 251.988C140.737 251.988 138.565 251.194 137.186 249.608C135.807 248.021 135.118 245.537 135.118 242.155ZM138.123 242.155C138.123 244.73 138.565 246.603 139.449 247.774C140.334 248.918 141.751 249.491 143.702 249.491C145.653 249.491 147.071 248.918 147.956 247.774C148.84 246.603 149.282 244.73 149.282 242.155C149.282 239.632 148.84 237.785 147.956 236.614C147.071 235.443 145.653 234.858 143.702 234.858C141.751 234.858 140.334 235.443 139.449 236.614C138.565 237.785 138.123 239.632 138.123 242.155ZM159.007 232.712L159.514 234.351C160.191 233.726 160.971 233.232 161.856 232.868C162.766 232.504 163.768 232.322 164.86 232.322C167.435 232.322 169.373 233.128 170.674 234.741C171.975 236.328 172.625 238.799 172.625 242.155C172.625 245.537 171.988 248.021 170.713 249.608C169.465 251.194 167.618 251.988 165.172 251.988C164.132 251.988 163.13 251.832 162.168 251.52C161.205 251.181 160.412 250.713 159.788 250.115V259.714H156.783V232.712H159.007ZM164.392 234.819C163.481 234.819 162.623 235.001 161.817 235.365C161.036 235.73 160.36 236.224 159.788 236.848V247.501C160.36 248.125 161.036 248.619 161.817 248.983C162.623 249.348 163.481 249.53 164.392 249.53C166.187 249.53 167.514 248.957 168.372 247.813C169.23 246.668 169.66 244.782 169.66 242.155C169.66 239.553 169.23 237.681 168.372 236.536C167.514 235.391 166.187 234.819 164.392 234.819ZM174.605 232.712H177.727L183.189 247.501H183.307L188.418 232.712H191.501L183.853 254.017C183.463 255.161 183.033 256.111 182.565 256.865C182.097 257.646 181.564 258.27 180.965 258.738C180.393 259.233 179.73 259.584 178.975 259.792C178.247 260 177.402 260.104 176.439 260.104C175.711 260.104 175.138 260.026 174.722 259.87L175.151 257.412C175.568 257.516 176.075 257.568 176.673 257.568C177.219 257.568 177.701 257.477 178.117 257.295C178.559 257.112 178.936 256.878 179.248 256.592C179.587 256.306 179.873 255.981 180.107 255.617C180.341 255.253 180.536 254.875 180.692 254.485L181.863 251.364L174.605 232.712Z" fill="#F7F3EB"/>
<path opacity="0.5" d="M23.0078 182.49L314.328 182.49" stroke="#9E9E9E" stroke-width="0.487453"/>
<path d="M217.873 93.722V94.502H213.097V86.438H214.021V93.722H217.873ZM222.023 93.842C222.343 93.842 222.651 93.822 222.947 93.782C223.251 93.734 223.539 93.666 223.811 93.578V91.154H221.747V90.374H224.723V94.106C224.363 94.242 223.939 94.362 223.451 94.466C222.963 94.57 222.479 94.622 221.999 94.622C221.335 94.622 220.767 94.534 220.295 94.358C219.831 94.174 219.451 93.91 219.155 93.566C218.859 93.214 218.643 92.782 218.507 92.27C218.379 91.75 218.315 91.15 218.315 90.47C218.315 89.046 218.607 87.998 219.191 87.326C219.783 86.654 220.655 86.318 221.807 86.318C222.455 86.318 223.015 86.418 223.487 86.618C223.959 86.81 224.351 87.074 224.663 87.41L224.111 88.034C223.815 87.722 223.483 87.49 223.115 87.338C222.747 87.186 222.311 87.11 221.807 87.11C220.951 87.11 220.307 87.382 219.875 87.926C219.451 88.462 219.239 89.31 219.239 90.47C219.239 91.622 219.455 92.474 219.887 93.026C220.319 93.57 221.031 93.842 222.023 93.842ZM234.951 93.722V94.502H229.995V86.438H234.831V87.23H230.919V89.906H234.687V90.686H230.919V93.722H234.951ZM236.76 86.438H237.684V94.502H236.76V86.438ZM249.276 86.438V94.502H248.34V90.674H244.044V94.502H243.12V86.438H244.044V89.882H248.34V86.438H249.276ZM253.402 94.622C252.458 94.622 251.786 94.378 251.386 93.89C250.994 93.394 250.798 92.63 250.798 91.598C250.798 90.558 250.998 89.794 251.398 89.306C251.798 88.818 252.41 88.574 253.234 88.574C254.058 88.574 254.67 88.814 255.07 89.294C255.47 89.766 255.67 90.518 255.67 91.55V91.934H251.734C251.766 92.622 251.914 93.114 252.178 93.41C252.442 93.706 252.854 93.854 253.414 93.854C253.75 93.854 254.078 93.806 254.398 93.71C254.726 93.606 255.03 93.466 255.31 93.29L255.61 94.022C255.306 94.206 254.962 94.354 254.578 94.466C254.202 94.57 253.81 94.622 253.402 94.622ZM254.734 91.19C254.694 90.566 254.554 90.106 254.314 89.81C254.074 89.506 253.714 89.354 253.234 89.354C252.754 89.354 252.394 89.506 252.154 89.81C251.914 90.106 251.774 90.566 251.734 91.19H254.734ZM261.298 94.502H260.614L260.47 93.962C260.23 94.17 259.946 94.334 259.618 94.454C259.298 94.566 258.946 94.622 258.562 94.622C257.962 94.622 257.51 94.47 257.206 94.166C256.91 93.854 256.762 93.41 256.762 92.834C256.762 92.242 256.946 91.806 257.314 91.526C257.682 91.238 258.298 91.094 259.162 91.094C259.418 91.094 259.642 91.098 259.834 91.106C260.034 91.114 260.218 91.13 260.386 91.154V90.83C260.386 90.294 260.282 89.914 260.074 89.69C259.866 89.458 259.498 89.342 258.97 89.342C258.722 89.342 258.45 89.386 258.154 89.474C257.866 89.554 257.574 89.674 257.278 89.834L257.002 89.138C257.322 88.962 257.662 88.826 258.022 88.73C258.382 88.626 258.754 88.574 259.138 88.574C259.546 88.574 259.886 88.614 260.158 88.694C260.438 88.774 260.662 88.906 260.83 89.09C260.998 89.266 261.118 89.494 261.19 89.774C261.262 90.054 261.298 90.398 261.298 90.806V94.502ZM258.814 93.866C259.078 93.866 259.35 93.81 259.63 93.698C259.918 93.578 260.17 93.422 260.386 93.23V91.898C260.178 91.874 259.97 91.858 259.762 91.85C259.554 91.834 259.322 91.826 259.066 91.826C258.562 91.826 258.202 91.902 257.986 92.054C257.778 92.206 257.674 92.462 257.674 92.822C257.674 93.166 257.762 93.426 257.938 93.602C258.114 93.778 258.406 93.866 258.814 93.866ZM267.494 86.03V94.502H266.81L266.666 94.01C266.458 94.202 266.214 94.354 265.934 94.466C265.654 94.57 265.346 94.622 265.01 94.622C264.218 94.622 263.622 94.378 263.222 93.89C262.822 93.402 262.622 92.638 262.622 91.598C262.622 90.566 262.814 89.806 263.198 89.318C263.59 88.822 264.162 88.574 264.914 88.574C265.25 88.574 265.558 88.626 265.838 88.73C266.126 88.834 266.37 88.978 266.57 89.162V86.15L267.494 86.03ZM265.154 93.866C265.434 93.866 265.694 93.81 265.934 93.698C266.182 93.586 266.394 93.434 266.57 93.242V89.966C266.394 89.774 266.182 89.622 265.934 89.51C265.694 89.398 265.434 89.342 265.154 89.342C264.602 89.342 264.194 89.518 263.93 89.87C263.674 90.222 263.546 90.798 263.546 91.598C263.546 92.406 263.674 92.986 263.93 93.338C264.194 93.69 264.602 93.866 265.154 93.866ZM270.788 94.586C270.748 94.602 270.692 94.61 270.62 94.61C270.548 94.618 270.488 94.622 270.44 94.622C270.032 94.622 269.736 94.502 269.552 94.262C269.376 94.014 269.288 93.638 269.288 93.134V86.174L270.2 86.03V93.002C270.2 93.186 270.208 93.334 270.224 93.446C270.24 93.558 270.268 93.646 270.308 93.71C270.356 93.774 270.416 93.818 270.488 93.842C270.568 93.858 270.668 93.866 270.788 93.866V94.586ZM272.206 88.694H273.118V94.502H272.206V88.694ZM272.194 86.198H273.118V87.398H272.194V86.198ZM275.75 89.282C276.022 89.066 276.322 88.894 276.65 88.766C276.978 88.638 277.322 88.574 277.682 88.574C278.354 88.574 278.834 88.738 279.122 89.066C279.418 89.386 279.566 89.91 279.566 90.638V94.502H278.654V90.89C278.654 90.314 278.558 89.914 278.366 89.69C278.182 89.466 277.894 89.354 277.502 89.354C276.942 89.354 276.382 89.558 275.822 89.966V94.502H274.91V88.694H275.594L275.75 89.282ZM283.496 94.622C282.552 94.622 281.88 94.378 281.48 93.89C281.088 93.394 280.892 92.63 280.892 91.598C280.892 90.558 281.092 89.794 281.492 89.306C281.892 88.818 282.504 88.574 283.328 88.574C284.152 88.574 284.764 88.814 285.164 89.294C285.564 89.766 285.764 90.518 285.764 91.55V91.934H281.828C281.86 92.622 282.008 93.114 282.272 93.41C282.536 93.706 282.948 93.854 283.508 93.854C283.844 93.854 284.172 93.806 284.492 93.71C284.82 93.606 285.124 93.466 285.404 93.29L285.704 94.022C285.4 94.206 285.056 94.354 284.672 94.466C284.296 94.57 283.904 94.622 283.496 94.622ZM284.828 91.19C284.788 90.566 284.648 90.106 284.408 89.81C284.168 89.506 283.808 89.354 283.328 89.354C282.848 89.354 282.488 89.506 282.248 89.81C282.008 90.106 281.868 90.566 281.828 91.19H284.828ZM214.021 104.23V107.314H215.905C216.505 107.314 216.941 107.182 217.213 106.918C217.485 106.654 217.621 106.27 217.621 105.766C217.621 105.238 217.485 104.85 217.213 104.602C216.949 104.354 216.525 104.23 215.941 104.23H214.021ZM213.097 111.502V103.438H215.881C216.817 103.438 217.497 103.634 217.921 104.026C218.353 104.41 218.569 104.99 218.569 105.766C218.569 106.902 218.049 107.626 217.009 107.938L218.785 111.502H217.789L216.097 108.094H214.021V111.502H213.097ZM222.312 111.622C221.368 111.622 220.696 111.378 220.296 110.89C219.904 110.394 219.708 109.63 219.708 108.598C219.708 107.558 219.908 106.794 220.308 106.306C220.708 105.818 221.32 105.574 222.144 105.574C222.968 105.574 223.58 105.814 223.98 106.294C224.38 106.766 224.58 107.518 224.58 108.55V108.934H220.644C220.676 109.622 220.824 110.114 221.088 110.41C221.352 110.706 221.764 110.854 222.324 110.854C222.66 110.854 222.988 110.806 223.308 110.71C223.636 110.606 223.94 110.466 224.22 110.29L224.52 111.022C224.216 111.206 223.872 111.354 223.488 111.466C223.112 111.57 222.72 111.622 222.312 111.622ZM223.644 108.19C223.604 107.566 223.464 107.106 223.224 106.81C222.984 106.506 222.624 106.354 222.144 106.354C221.664 106.354 221.304 106.506 221.064 106.81C220.824 107.106 220.684 107.566 220.644 108.19H223.644ZM230.58 105.694V111.574C230.58 112.462 230.364 113.106 229.932 113.506C229.508 113.914 228.872 114.118 228.024 114.118C227.688 114.118 227.368 114.09 227.064 114.034C226.76 113.986 226.492 113.918 226.26 113.83L226.452 113.074C226.908 113.25 227.428 113.338 228.012 113.338C228.588 113.338 229.004 113.206 229.26 112.942C229.524 112.678 229.656 112.246 229.656 111.646V111.046C229.456 111.23 229.212 111.374 228.924 111.478C228.644 111.574 228.336 111.622 228 111.622C227.248 111.622 226.676 111.378 226.284 110.89C225.9 110.402 225.708 109.638 225.708 108.598C225.708 107.566 225.908 106.806 226.308 106.318C226.708 105.822 227.304 105.574 228.096 105.574C228.432 105.574 228.74 105.63 229.02 105.742C229.3 105.854 229.544 106.006 229.752 106.198L229.896 105.694H230.58ZM228.24 106.342C227.688 106.342 227.28 106.518 227.016 106.87C226.76 107.222 226.632 107.798 226.632 108.598C226.632 109.406 226.76 109.986 227.016 110.338C227.28 110.69 227.688 110.866 228.24 110.866C228.52 110.866 228.78 110.81 229.02 110.698C229.268 110.586 229.48 110.434 229.656 110.242V106.966C229.48 106.774 229.268 106.622 229.02 106.51C228.78 106.398 228.52 106.342 228.24 106.342ZM236.022 110.926C235.75 111.142 235.45 111.314 235.122 111.442C234.794 111.562 234.45 111.622 234.09 111.622C233.418 111.622 232.934 111.462 232.638 111.142C232.342 110.822 232.194 110.298 232.194 109.57V105.694H233.118V109.318C233.118 109.894 233.21 110.294 233.394 110.518C233.586 110.742 233.878 110.854 234.27 110.854C234.83 110.854 235.386 110.65 235.938 110.242V105.694H236.862V111.502H236.166L236.022 110.926ZM240.155 111.586C240.115 111.602 240.059 111.61 239.987 111.61C239.915 111.618 239.855 111.622 239.807 111.622C239.399 111.622 239.103 111.502 238.919 111.262C238.743 111.014 238.655 110.638 238.655 110.134V103.174L239.567 103.03V110.002C239.567 110.186 239.575 110.334 239.591 110.446C239.607 110.558 239.635 110.646 239.675 110.71C239.723 110.774 239.783 110.818 239.855 110.842C239.935 110.858 240.035 110.866 240.155 110.866V111.586ZM245.829 111.502H245.145L245.001 110.962C244.761 111.17 244.477 111.334 244.149 111.454C243.829 111.566 243.477 111.622 243.093 111.622C242.493 111.622 242.041 111.47 241.737 111.166C241.441 110.854 241.293 110.41 241.293 109.834C241.293 109.242 241.477 108.806 241.845 108.526C242.213 108.238 242.829 108.094 243.693 108.094C243.949 108.094 244.173 108.098 244.365 108.106C244.565 108.114 244.749 108.13 244.917 108.154V107.83C244.917 107.294 244.813 106.914 244.605 106.69C244.397 106.458 244.029 106.342 243.501 106.342C243.253 106.342 242.981 106.386 242.685 106.474C242.397 106.554 242.105 106.674 241.809 106.834L241.533 106.138C241.853 105.962 242.193 105.826 242.553 105.73C242.913 105.626 243.285 105.574 243.669 105.574C244.077 105.574 244.417 105.614 244.689 105.694C244.969 105.774 245.193 105.906 245.361 106.09C245.529 106.266 245.649 106.494 245.721 106.774C245.793 107.054 245.829 107.398 245.829 107.806V111.502ZM243.345 110.866C243.609 110.866 243.881 110.81 244.161 110.698C244.449 110.578 244.701 110.422 244.917 110.23V108.898C244.709 108.874 244.501 108.858 244.293 108.85C244.085 108.834 243.853 108.826 243.597 108.826C243.093 108.826 242.733 108.902 242.517 109.054C242.309 109.206 242.205 109.462 242.205 109.822C242.205 110.166 242.293 110.426 242.469 110.602C242.645 110.778 242.937 110.866 243.345 110.866ZM248.126 105.694L248.234 106.462C248.498 106.174 248.794 105.954 249.122 105.802C249.45 105.65 249.782 105.574 250.118 105.574C250.254 105.574 250.37 105.586 250.466 105.61C250.57 105.626 250.678 105.654 250.79 105.694V106.51C250.55 106.414 250.298 106.366 250.034 106.366C249.73 106.366 249.426 106.45 249.122 106.618C248.818 106.786 248.558 106.998 248.342 107.254V111.502H247.43V105.694H248.126ZM251.224 112.678L254.98 102.43H255.88L252.124 112.678H251.224ZM261.289 109.558C261.289 109.366 261.261 109.194 261.205 109.042C261.149 108.89 261.049 108.75 260.905 108.622C260.761 108.494 260.561 108.37 260.305 108.25C260.057 108.13 259.741 108.002 259.357 107.866C258.885 107.698 258.489 107.534 258.169 107.374C257.849 107.206 257.593 107.026 257.401 106.834C257.209 106.642 257.069 106.43 256.981 106.198C256.901 105.966 256.861 105.698 256.861 105.394C256.861 104.762 257.093 104.258 257.557 103.882C258.021 103.506 258.701 103.318 259.597 103.318C260.037 103.318 260.441 103.374 260.809 103.486C261.177 103.59 261.529 103.738 261.865 103.93L261.505 104.674C261.209 104.49 260.901 104.35 260.581 104.254C260.261 104.15 259.933 104.098 259.597 104.098C258.973 104.098 258.513 104.21 258.217 104.434C257.929 104.65 257.785 104.95 257.785 105.334C257.785 105.534 257.817 105.71 257.881 105.862C257.945 106.014 258.049 106.154 258.193 106.282C258.345 106.41 258.545 106.538 258.793 106.666C259.041 106.786 259.353 106.918 259.729 107.062C260.193 107.238 260.581 107.402 260.893 107.554C261.213 107.706 261.469 107.874 261.661 108.058C261.861 108.234 262.001 108.438 262.081 108.67C262.169 108.894 262.213 109.166 262.213 109.486C262.213 110.142 261.973 110.662 261.493 111.046C261.021 111.43 260.289 111.622 259.297 111.622C258.793 111.622 258.313 111.562 257.857 111.442C257.401 111.322 257.013 111.166 256.693 110.974L257.029 110.254C257.373 110.438 257.729 110.586 258.097 110.698C258.465 110.802 258.853 110.854 259.261 110.854C259.941 110.854 260.449 110.742 260.785 110.518C261.121 110.286 261.289 109.966 261.289 109.558ZM265.929 111.622C264.985 111.622 264.313 111.378 263.913 110.89C263.521 110.394 263.325 109.63 263.325 108.598C263.325 107.558 263.525 106.794 263.925 106.306C264.325 105.818 264.937 105.574 265.761 105.574C266.585 105.574 267.197 105.814 267.597 106.294C267.997 106.766 268.197 107.518 268.197 108.55V108.934H264.261C264.293 109.622 264.441 110.114 264.705 110.41C264.969 110.706 265.381 110.854 265.941 110.854C266.277 110.854 266.605 110.806 266.925 110.71C267.253 110.606 267.557 110.466 267.837 110.29L268.137 111.022C267.833 111.206 267.489 111.354 267.105 111.466C266.729 111.57 266.337 111.622 265.929 111.622ZM267.261 108.19C267.221 107.566 267.081 107.106 266.841 106.81C266.601 106.506 266.241 106.354 265.761 106.354C265.281 106.354 264.921 106.506 264.681 106.81C264.441 107.106 264.301 107.566 264.261 108.19H267.261ZM270.429 106.234C270.709 106.026 270.997 105.866 271.293 105.754C271.589 105.634 271.905 105.574 272.241 105.574C272.649 105.574 272.973 105.634 273.213 105.754C273.461 105.874 273.645 106.074 273.765 106.354C274.045 106.122 274.349 105.934 274.677 105.79C275.013 105.646 275.361 105.574 275.721 105.574C276.057 105.574 276.337 105.614 276.561 105.694C276.785 105.766 276.965 105.886 277.101 106.054C277.245 106.222 277.345 106.438 277.401 106.702C277.457 106.958 277.485 107.27 277.485 107.638V111.502H276.573V107.89C276.573 107.314 276.493 106.914 276.333 106.69C276.181 106.466 275.921 106.354 275.553 106.354C275.025 106.354 274.493 106.57 273.957 107.002C273.981 107.186 273.993 107.398 273.993 107.638V111.502H273.081V107.89C273.081 107.322 273.009 106.926 272.865 106.702C272.721 106.47 272.453 106.354 272.061 106.354C271.797 106.354 271.541 106.406 271.293 106.51C271.045 106.606 270.785 106.758 270.513 106.966V111.502H269.601V105.694H270.285L270.429 106.234ZM279.214 105.694H280.126V111.502H279.214V105.694ZM279.202 103.198H280.126V104.398H279.202V103.198ZM284.258 110.866C284.81 110.866 285.218 110.69 285.482 110.338C285.746 109.986 285.878 109.406 285.878 108.598C285.878 107.798 285.746 107.222 285.482 106.87C285.218 106.518 284.81 106.342 284.258 106.342C283.978 106.342 283.714 106.398 283.466 106.51C283.226 106.622 283.018 106.774 282.842 106.966V110.242C283.018 110.434 283.226 110.586 283.466 110.698C283.714 110.81 283.978 110.866 284.258 110.866ZM282.602 111.502H281.918V103.138L282.842 103.03V106.162C283.042 105.978 283.282 105.834 283.562 105.73C283.85 105.626 284.162 105.574 284.498 105.574C285.25 105.574 285.818 105.822 286.202 106.318C286.594 106.806 286.79 107.566 286.79 108.598C286.79 109.638 286.59 110.402 286.19 110.89C285.79 111.378 285.194 111.622 284.402 111.622C284.066 111.622 283.758 111.57 283.478 111.466C283.206 111.354 282.966 111.202 282.758 111.01L282.602 111.502ZM287.911 108.598C287.911 107.558 288.119 106.794 288.535 106.306C288.959 105.818 289.631 105.574 290.551 105.574C291.463 105.574 292.127 105.818 292.543 106.306C292.967 106.794 293.179 107.558 293.179 108.598C293.179 109.638 292.967 110.402 292.543 110.89C292.119 111.378 291.455 111.622 290.551 111.622C289.639 111.622 288.971 111.378 288.547 110.89C288.123 110.402 287.911 109.638 287.911 108.598ZM288.835 108.598C288.835 109.39 288.971 109.966 289.243 110.326C289.515 110.678 289.951 110.854 290.551 110.854C291.151 110.854 291.587 110.678 291.859 110.326C292.131 109.966 292.267 109.39 292.267 108.598C292.267 107.822 292.131 107.254 291.859 106.894C291.587 106.534 291.151 106.354 290.551 106.354C289.951 106.354 289.515 106.534 289.243 106.894C288.971 107.254 288.835 107.822 288.835 108.598ZM296.194 111.586C296.154 111.602 296.098 111.61 296.026 111.61C295.954 111.618 295.894 111.622 295.846 111.622C295.438 111.622 295.142 111.502 294.958 111.262C294.782 111.014 294.694 110.638 294.694 110.134V103.174L295.606 103.03V110.002C295.606 110.186 295.614 110.334 295.63 110.446C295.646 110.558 295.674 110.646 295.714 110.71C295.762 110.774 295.822 110.818 295.894 110.842C295.974 110.858 296.074 110.866 296.194 110.866V111.586ZM302.076 103.03V111.502H301.392L301.248 111.01C301.04 111.202 300.796 111.354 300.516 111.466C300.236 111.57 299.928 111.622 299.592 111.622C298.8 111.622 298.204 111.378 297.804 110.89C297.404 110.402 297.204 109.638 297.204 108.598C297.204 107.566 297.396 106.806 297.78 106.318C298.172 105.822 298.744 105.574 299.496 105.574C299.832 105.574 300.14 105.626 300.42 105.73C300.708 105.834 300.952 105.978 301.152 106.162V103.15L302.076 103.03ZM299.736 110.866C300.016 110.866 300.276 110.81 300.516 110.698C300.764 110.586 300.976 110.434 301.152 110.242V106.966C300.976 106.774 300.764 106.622 300.516 106.51C300.276 106.398 300.016 106.342 299.736 106.342C299.184 106.342 298.776 106.518 298.512 106.87C298.256 107.222 298.128 107.798 298.128 108.598C298.128 109.406 298.256 109.986 298.512 110.338C298.776 110.69 299.184 110.866 299.736 110.866ZM216.049 125.166V127.146H215.209V125.166H213.157V124.374H215.209V122.406H216.049V124.374H218.125V125.166H216.049ZM221.928 128.502V121.398L219.9 122.766L219.444 122.082L221.928 120.438H222.864V128.502H221.928ZM226.46 128.862H225.596L231.44 120.03H232.292L226.46 128.862ZM224.9 122.454C224.9 121.726 225.04 121.186 225.32 120.834C225.6 120.474 226.004 120.294 226.532 120.294C227.06 120.294 227.464 120.474 227.744 120.834C228.024 121.186 228.164 121.726 228.164 122.454C228.164 123.182 228.024 123.726 227.744 124.086C227.464 124.446 227.06 124.626 226.532 124.626C226.004 124.626 225.6 124.446 225.32 124.086C225.04 123.726 224.9 123.182 224.9 122.454ZM225.728 122.454C225.728 123.43 225.996 123.918 226.532 123.918C227.068 123.918 227.336 123.43 227.336 122.454C227.336 121.478 227.068 120.99 226.532 120.99C225.996 120.99 225.728 121.478 225.728 122.454ZM229.76 126.426C229.76 125.698 229.9 125.158 230.18 124.806C230.46 124.446 230.864 124.266 231.392 124.266C231.92 124.266 232.324 124.446 232.604 124.806C232.884 125.158 233.024 125.698 233.024 126.426C233.024 127.154 232.884 127.698 232.604 128.058C232.324 128.41 231.92 128.586 231.392 128.586C230.864 128.586 230.46 128.41 230.18 128.058C229.9 127.698 229.76 127.154 229.76 126.426ZM230.588 126.426C230.588 127.402 230.856 127.89 231.392 127.89C231.928 127.89 232.196 127.402 232.196 126.426C232.196 125.45 231.928 124.962 231.392 124.962C230.856 124.962 230.588 125.45 230.588 126.426ZM239.069 123.474V126.342C239.069 126.606 239.081 126.834 239.105 127.026C239.129 127.218 239.177 127.378 239.249 127.506C239.329 127.626 239.437 127.714 239.573 127.77C239.717 127.826 239.909 127.854 240.149 127.854C240.325 127.854 240.497 127.834 240.665 127.794C240.841 127.754 241.009 127.706 241.169 127.65L241.349 128.346C240.869 128.53 240.385 128.622 239.897 128.622C239.545 128.622 239.253 128.574 239.021 128.478C238.797 128.382 238.617 128.25 238.481 128.082C238.353 127.906 238.265 127.698 238.217 127.458C238.169 127.21 238.145 126.938 238.145 126.642V123.474H237.197V122.694H238.145V121.47L239.069 121.302V122.694H241.121V123.474H239.069ZM243.145 122.694L243.253 123.462C243.517 123.174 243.813 122.954 244.141 122.802C244.469 122.65 244.801 122.574 245.137 122.574C245.273 122.574 245.389 122.586 245.485 122.61C245.589 122.626 245.697 122.654 245.809 122.694V123.51C245.569 123.414 245.317 123.366 245.053 123.366C244.749 123.366 244.445 123.45 244.141 123.618C243.837 123.786 243.577 123.998 243.361 124.254V128.502H242.449V122.694H243.145ZM250.845 128.502H250.161L250.017 127.962C249.777 128.17 249.493 128.334 249.165 128.454C248.845 128.566 248.493 128.622 248.109 128.622C247.509 128.622 247.057 128.47 246.753 128.166C246.457 127.854 246.309 127.41 246.309 126.834C246.309 126.242 246.493 125.806 246.861 125.526C247.229 125.238 247.845 125.094 248.709 125.094C248.965 125.094 249.189 125.098 249.381 125.106C249.581 125.114 249.765 125.13 249.933 125.154V124.83C249.933 124.294 249.829 123.914 249.621 123.69C249.413 123.458 249.045 123.342 248.517 123.342C248.269 123.342 247.997 123.386 247.701 123.474C247.413 123.554 247.121 123.674 246.825 123.834L246.549 123.138C246.869 122.962 247.209 122.826 247.569 122.73C247.929 122.626 248.301 122.574 248.685 122.574C249.093 122.574 249.433 122.614 249.705 122.694C249.985 122.774 250.209 122.906 250.377 123.09C250.545 123.266 250.665 123.494 250.737 123.774C250.809 124.054 250.845 124.398 250.845 124.806V128.502ZM248.361 127.866C248.625 127.866 248.897 127.81 249.177 127.698C249.465 127.578 249.717 127.422 249.933 127.23V125.898C249.725 125.874 249.517 125.858 249.309 125.85C249.101 125.834 248.869 125.826 248.613 125.826C248.109 125.826 247.749 125.902 247.533 126.054C247.325 126.206 247.221 126.462 247.221 126.822C247.221 127.166 247.309 127.426 247.485 127.602C247.661 127.778 247.953 127.866 248.361 127.866ZM254.929 127.854C255.489 127.854 255.989 127.714 256.429 127.434L256.693 128.166C256.461 128.302 256.193 128.414 255.889 128.502C255.593 128.582 255.273 128.622 254.929 128.622C253.977 128.622 253.281 128.386 252.841 127.914C252.401 127.434 252.181 126.662 252.181 125.598C252.181 124.558 252.393 123.794 252.817 123.306C253.241 122.818 253.905 122.574 254.809 122.574C255.585 122.574 256.221 122.81 256.717 123.282L256.213 123.906C256.037 123.73 255.829 123.594 255.589 123.498C255.357 123.394 255.105 123.342 254.833 123.342C254.257 123.342 253.821 123.518 253.525 123.87C253.237 124.214 253.093 124.79 253.093 125.598C253.093 126.406 253.245 126.986 253.549 127.338C253.853 127.682 254.313 127.854 254.929 127.854ZM257.93 128.502V120.15L258.854 120.03V124.962H259.418L261.59 122.694H262.706L260.15 125.358L262.778 128.502H261.662L259.406 125.742H258.854V128.502H257.93ZM263.886 122.694H264.798V128.502H263.886V122.694ZM263.874 120.198H264.798V121.398H263.874V120.198ZM267.43 123.282C267.702 123.066 268.002 122.894 268.33 122.766C268.658 122.638 269.002 122.574 269.362 122.574C270.034 122.574 270.514 122.738 270.802 123.066C271.098 123.386 271.246 123.91 271.246 124.638V128.502H270.334V124.89C270.334 124.314 270.238 123.914 270.046 123.69C269.862 123.466 269.574 123.354 269.182 123.354C268.622 123.354 268.062 123.558 267.502 123.966V128.502H266.59V122.694H267.274L267.43 123.282ZM277.444 122.694V128.574C277.444 129.462 277.228 130.106 276.796 130.506C276.372 130.914 275.736 131.118 274.888 131.118C274.552 131.118 274.232 131.09 273.928 131.034C273.624 130.986 273.356 130.918 273.124 130.83L273.316 130.074C273.772 130.25 274.292 130.338 274.876 130.338C275.452 130.338 275.868 130.206 276.124 129.942C276.388 129.678 276.52 129.246 276.52 128.646V128.046C276.32 128.23 276.076 128.374 275.788 128.478C275.508 128.574 275.2 128.622 274.864 128.622C274.112 128.622 273.54 128.378 273.148 127.89C272.764 127.402 272.572 126.638 272.572 125.598C272.572 124.566 272.772 123.806 273.172 123.318C273.572 122.822 274.168 122.574 274.96 122.574C275.296 122.574 275.604 122.63 275.884 122.742C276.164 122.854 276.408 123.006 276.616 123.198L276.76 122.694H277.444ZM275.104 123.342C274.552 123.342 274.144 123.518 273.88 123.87C273.624 124.222 273.496 124.798 273.496 125.598C273.496 126.406 273.624 126.986 273.88 127.338C274.144 127.69 274.552 127.866 275.104 127.866C275.384 127.866 275.644 127.81 275.884 127.698C276.132 127.586 276.344 127.434 276.52 127.242V123.966C276.344 123.774 276.132 123.622 275.884 123.51C275.644 123.398 275.384 123.342 275.104 123.342Z" fill="#F7F3EB"/>
<path d="M227.873 228.818V229.598H223.097V221.534H224.021V228.818H227.873ZM232.023 228.938C232.343 228.938 232.651 228.918 232.947 228.878C233.251 228.83 233.539 228.762 233.811 228.674V226.25H231.747V225.47H234.723V229.202C234.363 229.338 233.939 229.458 233.451 229.562C232.963 229.666 232.479 229.718 231.999 229.718C231.335 229.718 230.767 229.63 230.295 229.454C229.831 229.27 229.451 229.006 229.155 228.662C228.859 228.31 228.643 227.878 228.507 227.366C228.379 226.846 228.315 226.246 228.315 225.566C228.315 224.142 228.607 223.094 229.191 222.422C229.783 221.75 230.655 221.414 231.807 221.414C232.455 221.414 233.015 221.514 233.487 221.714C233.959 221.906 234.351 222.17 234.663 222.506L234.111 223.13C233.815 222.818 233.483 222.586 233.115 222.434C232.747 222.282 232.311 222.206 231.807 222.206C230.951 222.206 230.307 222.478 229.875 223.022C229.451 223.558 229.239 224.406 229.239 225.566C229.239 226.718 229.455 227.57 229.887 228.122C230.319 228.666 231.031 228.938 232.023 228.938ZM244.951 228.818V229.598H239.995V221.534H244.831V222.326H240.919V225.002H244.687V225.782H240.919V228.818H244.951ZM246.76 221.534H247.684V229.598H246.76V221.534ZM258.244 221.534V222.314H255.76V229.598H254.836V222.314H252.364V221.534H258.244ZM260.66 229.718C259.716 229.718 259.044 229.474 258.644 228.986C258.252 228.49 258.056 227.726 258.056 226.694C258.056 225.654 258.256 224.89 258.656 224.402C259.056 223.914 259.668 223.67 260.492 223.67C261.316 223.67 261.928 223.91 262.328 224.39C262.728 224.862 262.928 225.614 262.928 226.646V227.03H258.992C259.024 227.718 259.172 228.21 259.436 228.506C259.7 228.802 260.112 228.95 260.672 228.95C261.008 228.95 261.336 228.902 261.656 228.806C261.984 228.702 262.288 228.562 262.568 228.386L262.868 229.118C262.564 229.302 262.22 229.45 261.836 229.562C261.46 229.666 261.068 229.718 260.66 229.718ZM261.992 226.286C261.952 225.662 261.812 225.202 261.572 224.906C261.332 224.602 260.972 224.45 260.492 224.45C260.012 224.45 259.652 224.602 259.412 224.906C259.172 225.202 259.032 225.662 258.992 226.286H261.992ZM266.279 227.354H266.243L264.683 229.598H263.627L265.739 226.634L263.699 223.79H264.755L266.243 225.95H266.279L267.779 223.79H268.835L266.795 226.634L268.895 229.598H267.839L266.279 227.354ZM271.3 224.57V227.438C271.3 227.702 271.312 227.93 271.336 228.122C271.36 228.314 271.408 228.474 271.48 228.602C271.56 228.722 271.668 228.81 271.804 228.866C271.948 228.922 272.14 228.95 272.38 228.95C272.556 228.95 272.728 228.93 272.896 228.89C273.072 228.85 273.24 228.802 273.4 228.746L273.58 229.442C273.1 229.626 272.616 229.718 272.128 229.718C271.776 229.718 271.484 229.67 271.252 229.574C271.028 229.478 270.848 229.346 270.712 229.178C270.584 229.002 270.496 228.794 270.448 228.554C270.4 228.306 270.376 228.034 270.376 227.738V224.57H269.428V223.79H270.376V222.566L271.3 222.398V223.79H273.352V224.57H271.3ZM224.021 239.326V242.41H225.905C226.505 242.41 226.941 242.278 227.213 242.014C227.485 241.75 227.621 241.366 227.621 240.862C227.621 240.334 227.485 239.946 227.213 239.698C226.949 239.45 226.525 239.326 225.941 239.326H224.021ZM223.097 246.598V238.534H225.881C226.817 238.534 227.497 238.73 227.921 239.122C228.353 239.506 228.569 240.086 228.569 240.862C228.569 241.998 228.049 242.722 227.009 243.034L228.785 246.598H227.789L226.097 243.19H224.021V246.598H223.097ZM232.312 246.718C231.368 246.718 230.696 246.474 230.296 245.986C229.904 245.49 229.708 244.726 229.708 243.694C229.708 242.654 229.908 241.89 230.308 241.402C230.708 240.914 231.32 240.67 232.144 240.67C232.968 240.67 233.58 240.91 233.98 241.39C234.38 241.862 234.58 242.614 234.58 243.646V244.03H230.644C230.676 244.718 230.824 245.21 231.088 245.506C231.352 245.802 231.764 245.95 232.324 245.95C232.66 245.95 232.988 245.902 233.308 245.806C233.636 245.702 233.94 245.562 234.22 245.386L234.52 246.118C234.216 246.302 233.872 246.45 233.488 246.562C233.112 246.666 232.72 246.718 232.312 246.718ZM233.644 243.286C233.604 242.662 233.464 242.202 233.224 241.906C232.984 241.602 232.624 241.45 232.144 241.45C231.664 241.45 231.304 241.602 231.064 241.906C230.824 242.202 230.684 242.662 230.644 243.286H233.644ZM240.58 240.79V246.67C240.58 247.558 240.364 248.202 239.932 248.602C239.508 249.01 238.872 249.214 238.024 249.214C237.688 249.214 237.368 249.186 237.064 249.13C236.76 249.082 236.492 249.014 236.26 248.926L236.452 248.17C236.908 248.346 237.428 248.434 238.012 248.434C238.588 248.434 239.004 248.302 239.26 248.038C239.524 247.774 239.656 247.342 239.656 246.742V246.142C239.456 246.326 239.212 246.47 238.924 246.574C238.644 246.67 238.336 246.718 238 246.718C237.248 246.718 236.676 246.474 236.284 245.986C235.9 245.498 235.708 244.734 235.708 243.694C235.708 242.662 235.908 241.902 236.308 241.414C236.708 240.918 237.304 240.67 238.096 240.67C238.432 240.67 238.74 240.726 239.02 240.838C239.3 240.95 239.544 241.102 239.752 241.294L239.896 240.79H240.58ZM238.24 241.438C237.688 241.438 237.28 241.614 237.016 241.966C236.76 242.318 236.632 242.894 236.632 243.694C236.632 244.502 236.76 245.082 237.016 245.434C237.28 245.786 237.688 245.962 238.24 245.962C238.52 245.962 238.78 245.906 239.02 245.794C239.268 245.682 239.48 245.53 239.656 245.338V242.062C239.48 241.87 239.268 241.718 239.02 241.606C238.78 241.494 238.52 241.438 238.24 241.438ZM246.022 246.022C245.75 246.238 245.45 246.41 245.122 246.538C244.794 246.658 244.45 246.718 244.09 246.718C243.418 246.718 242.934 246.558 242.638 246.238C242.342 245.918 242.194 245.394 242.194 244.666V240.79H243.118V244.414C243.118 244.99 243.21 245.39 243.394 245.614C243.586 245.838 243.878 245.95 244.27 245.95C244.83 245.95 245.386 245.746 245.938 245.338V240.79H246.862V246.598H246.166L246.022 246.022ZM250.155 246.682C250.115 246.698 250.059 246.706 249.987 246.706C249.915 246.714 249.855 246.718 249.807 246.718C249.399 246.718 249.103 246.598 248.919 246.358C248.743 246.11 248.655 245.734 248.655 245.23V238.27L249.567 238.126V245.098C249.567 245.282 249.575 245.43 249.591 245.542C249.607 245.654 249.635 245.742 249.675 245.806C249.723 245.87 249.783 245.914 249.855 245.938C249.935 245.954 250.035 245.962 250.155 245.962V246.682ZM255.829 246.598H255.145L255.001 246.058C254.761 246.266 254.477 246.43 254.149 246.55C253.829 246.662 253.477 246.718 253.093 246.718C252.493 246.718 252.041 246.566 251.737 246.262C251.441 245.95 251.293 245.506 251.293 244.93C251.293 244.338 251.477 243.902 251.845 243.622C252.213 243.334 252.829 243.19 253.693 243.19C253.949 243.19 254.173 243.194 254.365 243.202C254.565 243.21 254.749 243.226 254.917 243.25V242.926C254.917 242.39 254.813 242.01 254.605 241.786C254.397 241.554 254.029 241.438 253.501 241.438C253.253 241.438 252.981 241.482 252.685 241.57C252.397 241.65 252.105 241.77 251.809 241.93L251.533 241.234C251.853 241.058 252.193 240.922 252.553 240.826C252.913 240.722 253.285 240.67 253.669 240.67C254.077 240.67 254.417 240.71 254.689 240.79C254.969 240.87 255.193 241.002 255.361 241.186C255.529 241.362 255.649 241.59 255.721 241.87C255.793 242.15 255.829 242.494 255.829 242.902V246.598ZM253.345 245.962C253.609 245.962 253.881 245.906 254.161 245.794C254.449 245.674 254.701 245.518 254.917 245.326V243.994C254.709 243.97 254.501 243.954 254.293 243.946C254.085 243.93 253.853 243.922 253.597 243.922C253.093 243.922 252.733 243.998 252.517 244.15C252.309 244.302 252.205 244.558 252.205 244.918C252.205 245.262 252.293 245.522 252.469 245.698C252.645 245.874 252.937 245.962 253.345 245.962ZM258.126 240.79L258.234 241.558C258.498 241.27 258.794 241.05 259.122 240.898C259.45 240.746 259.782 240.67 260.118 240.67C260.254 240.67 260.37 240.682 260.466 240.706C260.57 240.722 260.678 240.75 260.79 240.79V241.606C260.55 241.51 260.298 241.462 260.034 241.462C259.73 241.462 259.426 241.546 259.122 241.714C258.818 241.882 258.558 242.094 258.342 242.35V246.598H257.43V240.79H258.126ZM222.845 259.578C222.845 258.866 222.909 258.25 223.037 257.73C223.173 257.202 223.365 256.77 223.613 256.434C223.861 256.09 224.161 255.834 224.513 255.666C224.865 255.498 225.257 255.414 225.689 255.414C226.129 255.414 226.525 255.498 226.877 255.666C227.229 255.834 227.529 256.09 227.777 256.434C228.025 256.77 228.213 257.202 228.341 257.73C228.477 258.25 228.545 258.866 228.545 259.578C228.545 260.29 228.477 260.906 228.341 261.426C228.213 261.938 228.025 262.366 227.777 262.71C227.529 263.054 227.229 263.31 226.877 263.478C226.525 263.638 226.129 263.718 225.689 263.718C224.817 263.718 224.125 263.382 223.613 262.71C223.101 262.038 222.845 260.994 222.845 259.578ZM223.769 259.578C223.769 260.69 223.937 261.53 224.273 262.098C224.617 262.666 225.089 262.95 225.689 262.95C226.289 262.95 226.761 262.666 227.105 262.098C227.449 261.53 227.621 260.69 227.621 259.578C227.621 258.466 227.449 257.626 227.105 257.058C226.761 256.482 226.289 256.194 225.689 256.194C225.089 256.194 224.617 256.482 224.273 257.058C223.937 257.626 223.769 258.466 223.769 259.578ZM231.385 263.958H230.521L236.365 255.126H237.217L231.385 263.958ZM229.825 257.55C229.825 256.822 229.965 256.282 230.245 255.93C230.525 255.57 230.929 255.39 231.457 255.39C231.985 255.39 232.389 255.57 232.669 255.93C232.949 256.282 233.089 256.822 233.089 257.55C233.089 258.278 232.949 258.822 232.669 259.182C232.389 259.542 231.985 259.722 231.457 259.722C230.929 259.722 230.525 259.542 230.245 259.182C229.965 258.822 229.825 258.278 229.825 257.55ZM230.653 257.55C230.653 258.526 230.921 259.014 231.457 259.014C231.993 259.014 232.261 258.526 232.261 257.55C232.261 256.574 231.993 256.086 231.457 256.086C230.921 256.086 230.653 256.574 230.653 257.55ZM234.685 261.522C234.685 260.794 234.825 260.254 235.105 259.902C235.385 259.542 235.789 259.362 236.317 259.362C236.845 259.362 237.249 259.542 237.529 259.902C237.809 260.254 237.949 260.794 237.949 261.522C237.949 262.25 237.809 262.794 237.529 263.154C237.249 263.506 236.845 263.682 236.317 263.682C235.789 263.682 235.385 263.506 235.105 263.154C234.825 262.794 234.685 262.25 234.685 261.522ZM235.513 261.522C235.513 262.498 235.781 262.986 236.317 262.986C236.853 262.986 237.121 262.498 237.121 261.522C237.121 260.546 236.853 260.058 236.317 260.058C235.781 260.058 235.513 260.546 235.513 261.522ZM243.995 258.57V261.438C243.995 261.702 244.007 261.93 244.031 262.122C244.055 262.314 244.103 262.474 244.175 262.602C244.255 262.722 244.363 262.81 244.499 262.866C244.643 262.922 244.835 262.95 245.075 262.95C245.251 262.95 245.423 262.93 245.591 262.89C245.767 262.85 245.935 262.802 246.095 262.746L246.275 263.442C245.795 263.626 245.311 263.718 244.823 263.718C244.471 263.718 244.179 263.67 243.947 263.574C243.723 263.478 243.543 263.346 243.407 263.178C243.279 263.002 243.191 262.794 243.143 262.554C243.095 262.306 243.071 262.034 243.071 261.738V258.57H242.123V257.79H243.071V256.566L243.995 256.398V257.79H246.047V258.57H243.995ZM248.071 257.79L248.179 258.558C248.443 258.27 248.739 258.05 249.067 257.898C249.395 257.746 249.727 257.67 250.063 257.67C250.199 257.67 250.315 257.682 250.411 257.706C250.515 257.722 250.623 257.75 250.735 257.79V258.606C250.495 258.51 250.243 258.462 249.979 258.462C249.675 258.462 249.371 258.546 249.067 258.714C248.763 258.882 248.503 259.094 248.287 259.35V263.598H247.375V257.79H248.071ZM255.771 263.598H255.087L254.943 263.058C254.703 263.266 254.419 263.43 254.091 263.55C253.771 263.662 253.419 263.718 253.035 263.718C252.435 263.718 251.983 263.566 251.679 263.262C251.383 262.95 251.235 262.506 251.235 261.93C251.235 261.338 251.419 260.902 251.787 260.622C252.155 260.334 252.771 260.19 253.635 260.19C253.891 260.19 254.115 260.194 254.307 260.202C254.507 260.21 254.691 260.226 254.859 260.25V259.926C254.859 259.39 254.755 259.01 254.547 258.786C254.339 258.554 253.971 258.438 253.443 258.438C253.195 258.438 252.923 258.482 252.627 258.57C252.339 258.65 252.047 258.77 251.751 258.93L251.475 258.234C251.795 258.058 252.135 257.922 252.495 257.826C252.855 257.722 253.227 257.67 253.611 257.67C254.019 257.67 254.359 257.71 254.631 257.79C254.911 257.87 255.135 258.002 255.303 258.186C255.471 258.362 255.591 258.59 255.663 258.87C255.735 259.15 255.771 259.494 255.771 259.902V263.598ZM253.287 262.962C253.551 262.962 253.823 262.906 254.103 262.794C254.391 262.674 254.643 262.518 254.859 262.326V260.994C254.651 260.97 254.443 260.954 254.235 260.946C254.027 260.93 253.795 260.922 253.539 260.922C253.035 260.922 252.675 260.998 252.459 261.15C252.251 261.302 252.147 261.558 252.147 261.918C252.147 262.262 252.235 262.522 252.411 262.698C252.587 262.874 252.879 262.962 253.287 262.962ZM259.855 262.95C260.415 262.95 260.915 262.81 261.355 262.53L261.619 263.262C261.387 263.398 261.119 263.51 260.815 263.598C260.519 263.678 260.199 263.718 259.855 263.718C258.903 263.718 258.207 263.482 257.767 263.01C257.327 262.53 257.107 261.758 257.107 260.694C257.107 259.654 257.319 258.89 257.743 258.402C258.167 257.914 258.831 257.67 259.735 257.67C260.511 257.67 261.147 257.906 261.643 258.378L261.139 259.002C260.963 258.826 260.755 258.69 260.515 258.594C260.283 258.49 260.031 258.438 259.759 258.438C259.183 258.438 258.747 258.614 258.451 258.966C258.163 259.31 258.019 259.886 258.019 260.694C258.019 261.502 258.171 262.082 258.475 262.434C258.779 262.778 259.239 262.95 259.855 262.95ZM262.855 263.598V255.246L263.779 255.126V260.058H264.343L266.515 257.79H267.631L265.075 260.454L267.703 263.598H266.587L264.331 260.838H263.779V263.598H262.855ZM268.812 257.79H269.724V263.598H268.812V257.79ZM268.8 255.294H269.724V256.494H268.8V255.294ZM272.356 258.378C272.628 258.162 272.928 257.99 273.256 257.862C273.584 257.734 273.928 257.67 274.288 257.67C274.96 257.67 275.44 257.834 275.728 258.162C276.024 258.482 276.172 259.006 276.172 259.734V263.598H275.26V259.986C275.26 259.41 275.164 259.01 274.972 258.786C274.788 258.562 274.5 258.45 274.108 258.45C273.548 258.45 272.988 258.654 272.428 259.062V263.598H271.516V257.79H272.2L272.356 258.378ZM282.369 257.79V263.67C282.369 264.558 282.153 265.202 281.721 265.602C281.297 266.01 280.661 266.214 279.813 266.214C279.477 266.214 279.157 266.186 278.853 266.13C278.549 266.082 278.281 266.014 278.049 265.926L278.241 265.17C278.697 265.346 279.217 265.434 279.801 265.434C280.377 265.434 280.793 265.302 281.049 265.038C281.313 264.774 281.445 264.342 281.445 263.742V263.142C281.245 263.326 281.001 263.47 280.713 263.574C280.433 263.67 280.125 263.718 279.789 263.718C279.037 263.718 278.465 263.474 278.073 262.986C277.689 262.498 277.497 261.734 277.497 260.694C277.497 259.662 277.697 258.902 278.097 258.414C278.497 257.918 279.093 257.67 279.885 257.67C280.221 257.67 280.529 257.726 280.809 257.838C281.089 257.95 281.333 258.102 281.541 258.294L281.685 257.79H282.369ZM280.029 258.438C279.477 258.438 279.069 258.614 278.805 258.966C278.549 259.318 278.421 259.894 278.421 260.694C278.421 261.502 278.549 262.082 278.805 262.434C279.069 262.786 279.477 262.962 280.029 262.962C280.309 262.962 280.569 262.906 280.809 262.794C281.057 262.682 281.269 262.53 281.445 262.338V259.062C281.269 258.87 281.057 258.718 280.809 258.606C280.569 258.494 280.309 258.438 280.029 258.438Z" fill="#F7F3EB"/>
</g>
<defs>
<clipPath id="clip0_81_2491">
<rect width="335" height="335" fill="white"/>
</clipPath>
</defs>
</svg>
