<svg width="840" height="830" viewBox="0 0 840 830" fill="none" xmlns="http://www.w3.org/2000/svg">
<g clip-path="url(#clip0_58_335)">
<rect width="840" height="830" fill="#262626"/>
<path d="M618.25 693.77C707.058 693.77 758.624 651.372 758.624 569.416C758.624 518.205 729.718 475.462 673.311 452.153L622.92 431.312C590.118 417.906 576.74 400.224 576.74 374.101C576.74 346.544 598.226 333.913 620.427 333.913C653.229 333.913 678.238 357.567 720.207 411.419C724.791 417.16 729.718 415.294 729.718 407.515V333.827C729.79 331.726 729.265 329.648 728.206 327.834C727.146 326.02 725.594 324.544 723.731 323.579C702.216 315.455 664.487 310.518 630.655 310.518C554.166 310.518 495.667 356.791 495.667 427.092C495.667 473.337 518.213 516.798 571.44 539.045L625.727 561.666C662.396 576.851 675.431 593.443 675.431 621.69C675.431 651.372 654.633 670.806 624.323 670.806C587.311 670.806 554.882 639.717 506.582 574.727C502.342 568.727 497.071 570.852 497.758 578.258L505.178 671.494C505.522 676.461 507.298 679.618 512.225 681.054C533.367 687.398 565.796 693.77 618.222 693.77M434.476 336.295C492.631 319.072 522.252 273.774 522.252 217.97C522.252 168.165 491.227 137.076 453.498 137.076C435.286 137.053 417.802 144.241 404.855 157.075C391.907 169.909 384.545 187.349 384.371 205.597C384.371 243.059 414.68 275.181 451.693 275.181C460.483 275.127 469.2 273.583 477.476 270.616C479.223 269.899 480.656 271.305 480.341 273.487C475.07 295.734 451.693 314.45 431.009 327.167C424.65 331.071 427.83 338.477 434.533 336.353M220.908 454.047C221.968 367.929 238.526 333.941 263.564 333.941C289.347 333.941 303.671 370.312 304.101 454.047H220.908ZM269.609 693.885C353.145 693.885 400.041 643.363 413.449 581.932C415.196 573.808 410.956 571.34 404.854 576.621C381.427 596.82 351.507 607.86 320.602 607.71C261.043 607.71 225.091 571.339 221.195 478.533H405.227C406.255 478.64 407.293 478.542 408.283 478.244C409.273 477.946 410.194 477.455 410.993 476.798C411.793 476.142 412.454 475.333 412.939 474.419C413.425 473.504 413.724 472.503 413.821 471.472C414.4 465.952 414.63 460.4 414.508 454.851C414.508 380.215 361.654 310.747 274.565 310.747C178.71 310.747 101.161 388.11 101.161 509.966C101.161 630.531 175.645 694 269.638 694M-124.238 349.443H-82.9859V592.123C-82.9859 663.112 -109.8 669.83 -109.8 680.422C-109.8 683.953 -107.68 686.766 -102.037 686.766H60.4814C66.2109 686.766 68.2162 683.895 68.2162 680.422C68.2162 669.112 36.1595 663.198 36.1595 592.123V349.443H96.7778C97.8446 349.589 98.9307 349.493 99.9553 349.161C100.98 348.829 101.917 348.27 102.696 347.525C103.475 346.78 104.076 345.869 104.455 344.859C104.834 343.849 104.981 342.767 104.885 341.692V326.134C105.02 325.034 104.902 323.919 104.542 322.872C104.182 321.825 103.589 320.874 102.808 320.091C102.027 319.308 101.077 318.714 100.033 318.353C98.9878 317.993 97.8747 317.875 96.7778 318.01H51.6578C35.7871 318.01 26.276 312.269 14.4159 295.418L4.18882 281.065C-14.8618 254.225 -24.4588 230.198 -24.4588 210.076C-24.4588 183.235 -7.27024 169.112 15.0176 169.112C43.2355 169.112 63.3175 191.359 105.258 237.289C109.841 242.571 114.425 240.446 114.425 234.418V153.18C114.425 148.587 112.305 145.774 108.695 145.057C89.9629 139.455 70.4884 136.745 50.9416 137.019C-39.6421 137.019 -82.9859 206.258 -82.9859 282.214V311.178L-126.358 338.362C-132.088 341.893 -130.598 349.299 -124.238 349.299M-304.031 205.913C-304.065 219.573 -300.056 232.936 -292.51 244.313C-284.965 255.69 -274.222 264.569 -261.64 269.828C-249.059 275.087 -235.204 276.489 -221.827 273.858C-208.45 271.226 -196.152 264.679 -186.488 255.044C-176.825 245.409 -170.23 233.119 -167.537 219.728C-164.844 206.337 -166.174 192.447 -171.36 179.814C-176.545 167.181 -185.353 156.372 -196.669 148.754C-207.985 141.137 -221.3 137.053 -234.933 137.019C-253.192 137.041 -270.703 144.296 -283.647 157.202C-296.59 170.107 -303.917 187.617 -304.031 205.913ZM-313.169 686.623H-155.98C-150.25 686.623 -148.216 683.752 -148.216 680.279C-148.216 669.686 -175.002 663.055 -175.002 591.979V310.173C-174.969 309.855 -175.013 309.533 -175.13 309.235C-175.248 308.938 -175.436 308.673 -175.678 308.464C-175.921 308.255 -176.21 308.109 -176.521 308.036C-176.832 307.964 -177.156 307.968 -177.466 308.049L-312.826 337.702C-318.125 338.764 -320.933 341.233 -320.933 345.481C-320.933 356.447 -294.147 358.543 -294.147 413.313V592.037C-294.147 663.026 -320.933 669.743 -320.933 680.336C-320.933 683.867 -318.813 686.68 -313.169 686.68M-682.237 686.68H-378.744C-377.376 686.81 -375.995 686.665 -374.684 686.254C-373.372 685.844 -372.155 685.175 -371.105 684.288C-370.054 683.4 -369.19 682.312 -368.564 681.087C-367.937 679.861 -367.561 678.523 -367.457 677.15L-343.851 548.231C-342.791 542.232 -348.091 539.62 -352.674 544.7L-420.627 614.284C-455.892 650.31 -468.239 661.964 -508.775 661.964H-534.128V274.807C-534.128 203.818 -507.343 197.1 -507.343 186.508C-507.343 182.977 -509.463 180.164 -515.106 180.164H-682.237C-687.966 180.164 -690 183.034 -690 186.508C-690 197.1 -663.214 203.731 -663.214 274.807V592.008C-663.214 662.998 -690 669.715 -690 680.307C-690 683.838 -687.88 686.651 -682.237 686.651" fill="white"/>
<path d="M394.904 198.844C394.904 246.095 434.067 273.363 471.73 259.299" stroke="#FD312E" stroke-width="5"/>
<path d="M535.417 598.886C530.64 591.325 514.289 569.716 512.03 566.841C508.754 562.671 503.6 557.839 496.901 559.857C490.202 561.875 486.54 568.437 487.128 574.343C487.598 579.067 490.205 609.31 491.242 616.796" stroke="#FD312E" stroke-width="5"/>
</g>
<defs>
<clipPath id="clip0_58_335">
<rect width="840" height="830" fill="white"/>
</clipPath>
</defs>
</svg>
