<svg width="1680" height="830" viewBox="0 0 1680 830" fill="none" xmlns="http://www.w3.org/2000/svg">
<rect width="1680" height="830" fill="#E6E1D6"/>
<path d="M698.759 245.5V151.42H708.419V236.68H759.519V245.5H698.759ZM772.757 163.32V151.42H782.417V163.32H772.757ZM772.757 245.5V177.88H782.417V245.5H772.757ZM826.88 245.36C809.8 245.36 795.66 231.36 795.66 210.64C795.66 190.2 809.8 176.34 826.88 176.34C837.24 176.34 845.64 180.82 850.68 188.94L851.66 177.88H859.92V243.82C859.36 261.04 846.62 271.96 828.7 271.96C811.76 271.96 800.98 262.58 797.76 251.94H808.26C810.92 259.92 816.94 263.56 829.4 263.56C841.72 263.56 850.26 258.1 850.26 244.8V233.04C845.22 241.02 836.96 245.36 826.88 245.36ZM805.46 210.64C805.46 228.84 814 236.4 828.14 236.4C842.42 236.4 850.96 228.84 850.96 210.64C850.96 192.58 842.42 185.3 828.14 185.3C814 185.3 805.46 192.58 805.46 210.64ZM886.933 245.5H877.413V151.42H886.933V187.68C891.273 180.82 898.973 176.34 909.613 176.34C927.113 176.34 937.333 188.24 937.333 206.3V245.5H927.673V204.62C927.673 190.76 921.373 185.3 907.653 185.3C893.933 185.3 886.933 190.76 886.933 204.62V245.5ZM948.545 177.88H959.605V159.82H969.265V177.88H986.345V186.7H969.265V231.5C969.265 235.98 970.945 236.96 975.565 236.96H986.345V245.5H974.585C966.605 245.5 959.605 242 959.605 232.62V186.7H948.545V177.88Z" fill="#262626"/>
<path d="M626.967 392.5H614.087V298.42H645.867C665.327 298.42 680.447 308.22 680.447 327.26C680.447 340.42 673.027 349.1 662.107 353.3L683.107 392.5H668.547L649.787 355.96C648.527 356.1 647.267 356.1 645.867 356.1H626.967V392.5ZM626.967 344.62H650.487C661.687 344.62 667.567 339.86 667.567 327.26C667.567 314.66 661.687 309.76 650.487 309.76H626.967V344.62ZM753.783 373.04C749.303 386.62 737.263 394.18 722.563 394.18C703.383 394.18 688.123 380.32 688.123 358.48C688.123 336.78 703.383 322.78 721.863 322.78C738.523 322.78 755.323 334.4 755.323 358.48V362.26H700.863C701.843 377.66 708.983 382.84 722.563 382.84C733.063 382.84 738.243 380.32 741.183 373.04H753.783ZM701.003 352.46H742.863C741.603 338.88 734.743 334.12 721.863 334.12C709.543 334.12 702.543 338.74 701.003 352.46ZM795.681 392.08C778.041 392.08 763.761 378.08 763.761 357.36C763.761 336.64 778.041 322.78 795.681 322.78C805.341 322.78 813.181 326.56 818.361 333.56L819.341 324.6H830.261V390.12C829.701 407.76 816.681 419.38 797.781 419.38C780.281 419.38 769.221 410 765.721 398.24H779.161C781.821 405.52 786.861 408.6 798.481 408.6C810.521 408.6 817.661 403.14 817.661 391.8V382.14C812.481 388.58 804.921 392.08 795.681 392.08ZM776.361 357.36C776.361 374.3 783.641 380.74 797.361 380.74C811.081 380.74 818.361 374.3 818.361 357.36C818.361 340.56 811.081 334.12 797.361 334.12C783.641 334.12 776.361 340.56 776.361 357.36ZM858.777 365.62C858.777 378.08 864.237 382.98 876.137 382.98C887.897 382.98 893.777 378.08 893.777 365.62V324.6H906.237V392.5H895.597L894.477 383.26C889.857 389.98 882.437 394.18 872.637 394.18C856.537 394.18 846.317 382.28 846.317 364.64V324.6H858.777V365.62ZM939.166 393.9C929.646 393.9 923.066 390.12 923.066 379.62V298.42H935.666V377.52C935.666 382 937.066 382.98 941.126 382.98H944.486V393.9H939.166ZM982.544 394.18C964.484 394.18 950.344 379.62 950.344 358.48C950.344 337.48 964.484 322.78 982.544 322.78C992.064 322.78 999.764 326.56 1004.94 333.14V324.6H1017.54V392.5H1006.76L1005.64 382.98C1000.32 390.12 992.484 394.18 982.544 394.18ZM962.944 358.48C962.944 375.7 970.084 382.84 984.364 382.84C998.504 382.84 1005.64 375.7 1005.64 358.48C1005.64 341.26 998.504 334.12 984.364 334.12C970.084 334.12 962.944 341.26 962.944 358.48ZM1064.94 333.84C1052.48 333.84 1046.74 338.46 1046.74 351.34V392.5H1034.28V324.6H1045.06L1046.18 333.98C1050.24 326.98 1057.1 322.78 1067.6 322.78H1070.82V333.84H1064.94Z" fill="#262626"/>
<path d="M615.737 515C615.737 507.16 612.377 503.8 603.277 501.14L588.017 496.8C570.937 492.04 562.397 484.62 562.397 468.94C562.397 453.96 576.957 443.46 596.137 443.46C615.177 443.46 628.897 453.12 631.837 469.36H615.877C614.617 460.82 608.877 457.32 596.277 457.32C583.677 457.32 578.217 460.54 578.217 468.94C578.217 476.22 581.997 479.3 591.097 481.82L606.217 486.16C623.157 491.06 631.557 498.76 631.557 514.44C631.557 533.62 614.337 541.46 596.137 541.46C577.937 541.46 561.977 533.76 558.337 513.18H574.437C576.257 524.52 583.117 527.6 596.137 527.6C609.997 527.6 615.737 524.8 615.737 515ZM707.728 519.62C703.108 533.34 690.368 541.46 675.248 541.46C655.508 541.46 640.248 527.04 640.248 505.2C640.248 483.64 655.508 469.36 674.828 469.36C692.048 469.36 708.988 481.26 708.988 505.48V509.82H655.788C656.908 523.4 662.788 527.74 675.248 527.74C684.768 527.74 689.388 525.5 692.188 519.62H707.728ZM656.068 498.34H693.728C692.468 487.28 686.868 482.94 674.828 482.94C663.488 482.94 657.608 486.86 656.068 498.34ZM736.304 539.5H721.044V471.18H734.344L735.324 478.74C739.384 472.72 745.124 469.36 753.244 469.36C762.624 469.36 769.064 474.4 772.564 481.82C776.624 473.98 783.064 469.36 792.444 469.36C807.004 469.36 814.704 480.28 814.704 497.22V539.5H799.444V495.82C799.444 487.28 796.504 482.94 787.544 482.94C778.724 482.94 775.504 487.28 775.504 495.82V496.24V539.5H760.244V495.82C760.244 487.28 757.304 482.94 748.344 482.94C739.524 482.94 736.304 487.28 736.304 495.82V539.5ZM830.178 460.68V445.42H845.718V460.68H830.178ZM830.178 539.5V471.18H845.718V539.5H830.178ZM875.373 539.5H861.793V445.7H877.333V477.9C882.513 472.44 889.513 469.36 898.053 469.36C916.393 469.36 930.533 483.92 930.533 505.2C930.533 526.76 916.393 541.46 898.053 541.46C888.953 541.46 881.673 537.96 876.353 531.8L875.373 539.5ZM876.633 505.2C876.633 521.44 882.933 527.74 895.813 527.74C908.833 527.74 915.133 521.44 915.133 505.2C915.133 489.24 908.833 482.94 895.813 482.94C882.933 482.94 876.633 489.24 876.633 505.2ZM973.01 541.46C953.41 541.46 938.29 526.9 938.29 505.2C938.29 483.92 953.41 469.36 973.01 469.36C992.75 469.36 1007.87 483.92 1007.87 505.2C1007.87 526.9 992.75 541.46 973.01 541.46ZM953.69 505.2C953.69 521.3 959.85 527.74 973.01 527.74C986.17 527.74 992.47 521.3 992.47 505.2C992.47 489.38 986.17 482.94 973.01 482.94C959.85 482.94 953.69 489.38 953.69 505.2ZM1037.55 540.9C1026.77 540.9 1019.91 536.56 1019.91 524.94V445.42H1035.45V522.28C1035.45 526.76 1036.85 527.74 1040.91 527.74H1043.57V540.9H1037.55ZM1102.58 445.42H1118.12V539.5H1104.54L1103.42 531.66C1098.24 537.96 1090.82 541.46 1081.58 541.46C1063.24 541.46 1049.1 526.76 1049.1 505.2C1049.1 483.92 1063.24 469.36 1081.58 469.36C1090.26 469.36 1097.4 472.44 1102.58 478.04V445.42ZM1064.5 505.2C1064.5 521.44 1070.24 527.74 1083.82 527.74C1097.54 527.74 1103.28 521.44 1103.28 505.2C1103.28 489.24 1097.54 482.94 1083.82 482.94C1070.24 482.94 1064.5 489.24 1064.5 505.2Z" fill="#262626"/>
<path d="M761.203 637.78C771.983 641 779.263 648 779.263 661.16C779.263 678.52 762.743 686.5 743.983 686.5H709.823V592.42H740.903C760.363 592.42 775.763 600.4 775.763 617.76C775.763 628.12 770.023 634.42 761.203 637.78ZM745.803 608.94H728.303V631.2H745.803C753.083 631.2 756.723 628.4 756.723 619.86C756.723 611.32 753.083 608.94 745.803 608.94ZM728.303 669.98H748.883C756.163 669.98 759.803 667.6 759.803 658.36C759.803 649.12 756.163 646.88 748.883 646.88H728.303V669.98ZM821.199 688.6C801.039 688.6 785.499 673.9 785.499 652.06C785.499 630.5 801.039 615.8 821.199 615.8C841.359 615.8 856.899 630.5 856.899 652.06C856.899 673.9 841.359 688.6 821.199 688.6ZM821.199 672.5C833.099 672.5 838.699 667.18 838.699 652.06C838.699 637.22 833.099 631.76 821.199 631.76C809.159 631.76 803.699 637.22 803.699 652.06C803.699 667.18 809.159 672.5 821.199 672.5ZM894.252 672.5V687.9H887.392C875.352 687.9 868.072 683.14 868.072 670.4V592.42H886.552V667.04C886.552 671.52 887.952 672.5 892.012 672.5H894.252ZM951.678 623.08V592.42H970.158V686.5H953.778L952.798 680.06C947.618 685.52 940.618 688.6 932.078 688.6C913.458 688.6 899.178 673.9 899.178 652.06C899.178 630.5 913.458 615.8 932.078 615.8C939.918 615.8 946.638 618.46 951.678 623.08ZM934.878 672.5C947.618 672.5 952.378 667.18 952.378 652.06C952.378 637.22 947.618 631.76 934.878 631.76C922.138 631.76 917.378 637.22 917.378 652.06C917.378 667.18 922.138 672.5 934.878 672.5Z" fill="#262626"/>
</svg>
