<svg width="48" height="48" viewBox="0 0 48 48" fill="none" xmlns="http://www.w3.org/2000/svg">
<g filter="url(#filter0_b_5196_1251)">
<path d="M48 24C48 37.2548 37.2548 48 24 48C10.7452 48 0 37.2548 0 24C0 10.7452 10.7452 0 24 0C37.2548 0 48 10.7452 48 24Z" fill="#4A4946" fill-opacity="0.5"/>
<path d="M47.5 24C47.5 36.9787 36.9787 47.5 24 47.5C11.0213 47.5 0.5 36.9787 0.5 24C0.5 11.0213 11.0213 0.5 24 0.5C36.9787 0.5 47.5 11.0213 47.5 24Z" stroke="#7E7C77"/>
</g>
<mask id="path-3-inside-1_5196_1251" fill="white">
<path fill-rule="evenodd" clip-rule="evenodd" d="M30.2005 23.5207L23.5546 16.6671L24.2426 16L32 23.9998L24.2426 31.9997L23.5546 31.3326L30.2005 24.479H23.1003H16V23.5207H23.1003H30.2005Z"/>
</mask>
<path fill-rule="evenodd" clip-rule="evenodd" d="M30.2005 23.5207L23.5546 16.6671L24.2426 16L32 23.9998L24.2426 31.9997L23.5546 31.3326L30.2005 24.479H23.1003H16V23.5207H23.1003H30.2005Z" fill="white"/>
<path d="M23.5546 16.6671L22.5104 15.5903L21.4336 16.6345L22.4778 17.7113L23.5546 16.6671ZM30.2005 23.5207V25.0207H33.7445L31.2774 22.4765L30.2005 23.5207ZM24.2426 16L25.3194 14.9558L24.2752 13.8789L23.1984 14.9231L24.2426 16ZM32 23.9998L33.0769 25.0441L34.0894 23.9998L33.0769 22.9556L32 23.9998ZM24.2426 31.9997L23.1984 33.0765L24.2752 34.1208L25.3194 33.0439L24.2426 31.9997ZM23.5546 31.3326L22.4778 30.2884L21.4336 31.3652L22.5104 32.4094L23.5546 31.3326ZM30.2005 24.479L31.2774 25.5232L33.7445 22.979H30.2005V24.479ZM16 24.479H14.5V25.979H16V24.479ZM16 23.5207V22.0207H14.5V23.5207H16ZM22.4778 17.7113L29.1237 24.5649L31.2774 22.4765L24.6315 15.6229L22.4778 17.7113ZM23.1984 14.9231L22.5104 15.5903L24.5988 17.744L25.2868 17.0769L23.1984 14.9231ZM22.5104 32.4094L23.1984 33.0765L25.2868 30.9228L24.5988 30.2557L22.5104 32.4094ZM29.1237 23.4348L22.4778 30.2884L24.6315 32.3768L31.2774 25.5232L29.1237 23.4348ZM14.5 23.5207V24.479H17.5V23.5207H14.5ZM33.0769 22.9556L25.3194 14.9558L23.1657 17.0442L30.9231 25.0441L33.0769 22.9556ZM25.3194 33.0439L33.0769 25.0441L30.9231 22.9556L23.1657 30.9555L25.3194 33.0439ZM16 25.979H23.1003V22.979H16V25.979ZM23.1003 25.979H30.2005V22.979H23.1003V25.979ZM30.2005 22.0207H23.1003V25.0207H30.2005V22.0207ZM23.1003 22.0207H16V25.0207H23.1003V22.0207Z" fill="white" mask="url(#path-3-inside-1_5196_1251)"/>
<defs>
<filter id="filter0_b_5196_1251" x="-15" y="-15" width="78" height="78" filterUnits="userSpaceOnUse" color-interpolation-filters="sRGB">
<feFlood flood-opacity="0" result="BackgroundImageFix"/>
<feGaussianBlur in="BackgroundImageFix" stdDeviation="7.5"/>
<feComposite in2="SourceAlpha" operator="in" result="effect1_backgroundBlur_5196_1251"/>
<feBlend mode="normal" in="SourceGraphic" in2="effect1_backgroundBlur_5196_1251" result="shape"/>
</filter>
</defs>
</svg>
