<svg width="70" height="64" viewBox="0 0 70 64" fill="none" xmlns="http://www.w3.org/2000/svg">
<path d="M49 33.3562C48.8058 35.6305 48.1842 37.8662 47.3331 39.9544M13.279 10.601C15.3626 9.67072 17.6086 8.99711 19.9676 8.62823M12.0324 51.2903C9.46145 50.0426 7.23308 48.4868 5.37552 46.5462M29.3649 28.5415L33.246 28.5736C33.7969 28.5768 34.3125 28.8238 34.6304 29.2311L35.3402 30.1421M23.9688 55.6752L23.9617 56.4515M28.2419 56.4868L25.8546 37.8341C25.8546 37.8341 24.1348 38.5976 22.4326 37.8085L19.6851 56.4226M27.5815 35.9095L44.6033 45.7507L46.3373 43.4347L35.0471 33.5904L31.5297 34.4147L29.3155 33.2343M19.0494 33.0771L1 41.5165L2.68805 43.8582L17.5309 40.0955L18.5021 36.9232L20.7375 35.7748M25.957 26.9633L26.1371 8.32991L23.5697 8.31067L20.0135 22.2577L22.5597 24.6089L22.5386 26.9377M26.7693 31.6337C26.7552 32.92 25.5968 33.9528 24.1772 33.9432C22.7575 33.9336 21.6204 32.8815 21.631 31.5952C21.6416 30.3089 22.8034 29.276 24.2195 29.2857C25.6357 29.2953 26.7763 30.3506 26.7657 31.6369L26.7693 31.6337Z" stroke="white" stroke-linecap="round" stroke-linejoin="round"/>
</svg>
