<svg width="38" height="38" viewBox="0 0 38 38" fill="none" xmlns="http://www.w3.org/2000/svg">
<path id="Vector" d="M37.25 19.7155C37.1043 21.4149 36.6382 23.0856 35.9999 24.646M10.4592 2.71143C12.0219 2.01631 13.7064 1.51295 15.4757 1.2373M9.52428 33.1169C7.59609 32.1845 5.92481 31.022 4.53164 29.5718M21.6814 37L19.891 23.0617C19.891 23.0617 18.6011 23.6321 17.3245 23.0425L15.2638 36.9521M21.1861 21.6235L33.9525 28.9774L35.2529 27.2468L26.7853 19.8905L24.1473 20.5065L22.4866 19.6244M14.7871 19.507L1.25 25.8134L2.51604 27.5632L13.6482 24.7515L14.3765 22.3809L16.0531 21.5228M19.9678 14.9383L20.1029 1.01438L18.1773 1L15.5102 11.422L17.4198 13.179L17.4039 14.9192M20.577 18.4283C20.5664 19.3895 19.6976 20.1613 18.6329 20.1541C17.5681 20.1469 16.7153 19.3607 16.7232 18.3996C16.7312 17.4384 17.6026 16.6666 18.6647 16.6737C19.7268 16.6809 20.5823 17.4695 20.5743 18.4307L20.577 18.4283Z" stroke="white" stroke-width="0.75" stroke-linecap="round" stroke-linejoin="round"/>
</svg>
