<svg width="60" height="60" viewBox="0 0 60 60" fill="none" xmlns="http://www.w3.org/2000/svg">
<path d="M43.7192 31.2115L41.9678 31.2243L40.789 29.4328L39.6226 29.4419L39.0429 30.0452L37.2933 30.058L34.3559 27.0782L30.2717 27.1075L30.2628 25.9064C30.2539 24.5811 31.2923 23.4988 32.5796 23.4897L33.746 23.4805L34.9053 22.2722L37.8231 22.2521L38.9807 21.0437M28.8368 18.7806C29.7845 18.521 30.7784 18.3802 31.8044 18.3729C38.3352 18.3254 43.6659 23.7346 43.7121 30.4528C43.7584 37.171 38.5006 42.6553 31.9697 42.7028C25.4389 42.7503 20.1082 37.3411 20.0638 30.6229C20.0389 26.8442 21.6907 23.455 24.3027 21.2046M19.7757 29.2098C17.6883 27.8314 16.2356 25.6103 17.4322 22.8956C18.6306 20.1809 23.659 19.6708 25.9385 17C28.0366 19.4277 28.1771 23.4842 26.3386 26.6925C25.101 28.8514 22.8144 29.1586 21.6249 29.1622M35.0173 38.4763L33.2677 38.4891L33.2393 34.2882L32.064 33.0962L29.7311 33.1127L29.7187 31.312L31.4559 29.4986L34.3737 29.4785L37.3111 32.4582L37.336 36.0596L35.0191 38.4763H35.0173Z" stroke="white" stroke-linecap="round" stroke-linejoin="round"/>
</svg>
