<svg width="72" height="64" viewBox="0 0 72 64" fill="none" xmlns="http://www.w3.org/2000/svg">
<path d="M17.4787 23.6803C18.8904 14.074 26.64 7.60047 35.1753 7.70761C43.0541 7.80404 50.9249 13.7097 52.4356 23.7553C53.4192 23.7553 54.3927 23.736 55.3642 23.7575C62.934 23.9267 69.4294 30.0595 70.4352 37.9795C71.5905 47.0887 65.8888 55.285 57.3475 56.755C56.5053 56.9007 55.6389 56.95 54.7825 56.95C42.0786 56.9629 29.3747 56.965 16.6708 56.9564C7.3842 56.95 0.293031 48.9294 0.868645 39.1087C1.32106 31.3967 7.21656 24.7967 14.4733 23.901C15.4468 23.781 16.4325 23.7553 17.4787 23.6803Z" stroke="white" stroke-miterlimit="10"/>
<path d="M38.9523 30.0408C35.51 30.0408 32.7167 32.9997 32.7167 36.635C32.7167 40.2704 35.5152 43.2293 38.9523 43.2293C42.3893 43.2293 45.1878 40.2704 45.1878 36.635C45.1878 32.9997 42.3893 30.0408 38.9523 30.0408ZM38.9523 44.3513C34.9233 44.3513 31.6523 40.8864 31.6523 36.635C31.6523 32.3837 34.9285 28.9133 38.9523 28.9133C42.976 28.9133 46.2522 32.3782 46.2522 36.6295C46.2522 40.8809 42.976 44.3458 38.9523 44.3458V44.3513Z" fill="white"/>
<path d="M25.6149 44.3513C21.5703 44.3513 18.2734 40.8864 18.2734 36.635C18.2734 32.3837 21.5651 28.9133 25.6149 28.9133C27.4217 28.9133 29.161 29.6173 30.5057 30.8823L29.7944 31.7182C28.6418 30.6403 27.1569 30.0408 25.6201 30.0408C22.157 30.0408 19.343 32.9997 19.343 36.635C19.343 40.2704 22.1518 43.2293 25.6149 43.2293C27.1569 43.2293 28.6418 42.6353 29.7892 41.5519L30.5005 42.3878C29.1558 43.6528 27.4165 44.3513 25.6097 44.3513H25.6149Z" fill="white"/>
<path d="M47.0156 47.6679V45.8255C47.0156 44.6101 47.9554 43.6201 49.1132 43.6201H50.6552C51.1381 43.6201 51.5326 43.2021 51.5326 42.7016V42.0472C51.5326 41.7997 51.4392 41.5687 51.273 41.3982C51.1069 41.2222 50.8888 41.1287 50.6552 41.1287H49.1236C48.5628 41.1287 48.1111 41.6072 48.1111 42.1957H47.026C47.026 40.9802 47.9658 39.9902 49.1236 39.9902H50.6552C51.1796 39.9902 51.6676 40.2047 52.0415 40.5897C52.4101 40.9802 52.6178 41.4972 52.6178 42.0472V42.7071C52.6178 43.8401 51.7351 44.7696 50.6552 44.7696H49.1132C48.5576 44.7696 48.1007 45.248 48.1007 45.8365V46.5405H52.6749V47.6789H47.0156V47.6679Z" fill="white"/>
</svg>
