<svg width="70" height="64" viewBox="0 0 70 64" fill="none" xmlns="http://www.w3.org/2000/svg">
<path d="M51.0607 31.5291H58.2024V30.0085L55.3591 25.4428M46.778 45.2222H51.0607M13.9284 33.0454L23.9252 14.7866M22.4977 33.0454L32.4945 14.7866M31.067 33.0454L41.0638 14.7866M8.21418 45.218H5.35906L2.5 36.0948L16.7835 8.70447H53.9198V11.7455L48.2056 19.3523V45.218H30.8743M48.1348 20.8729H56.7238C57.6676 20.8729 58.5525 21.3686 59.0834 22.2018L63.9481 30.0002H65.3756C66.9841 30.0002 68.2072 31.1333 68.2072 33.3662V42.1686C68.2072 43.8474 66.9526 45.218 65.3756 45.218H62.493M31.067 46.7552C31.067 50.1087 28.5029 52.829 25.341 52.829C22.1791 52.829 19.615 50.1087 19.615 46.7552C19.615 43.4017 22.1791 40.6814 25.341 40.6814C28.5029 40.6814 31.067 43.3975 31.067 46.7552ZM19.6386 46.7552C19.6386 50.1087 17.0745 52.829 13.9126 52.829C10.7508 52.829 8.18665 50.1087 8.18665 46.7552C8.18665 43.4017 10.7508 40.6814 13.9126 40.6814C17.0745 40.6814 19.6386 43.3975 19.6386 46.7552ZM62.5127 46.7552C62.5127 50.1087 59.9485 52.829 56.7867 52.829C53.6248 52.829 51.0607 50.1087 51.0607 46.7552C51.0607 43.4017 53.6248 40.6814 56.7867 40.6814C59.9485 40.6814 62.5127 43.3975 62.5127 46.7552Z" stroke="white" stroke-linecap="round" stroke-linejoin="round"/>
</svg>
