<svg width="52" height="37" viewBox="0 0 52 37" fill="none" xmlns="http://www.w3.org/2000/svg">
<g id="icon">
<path id="Vector" d="M13.1807 12.1009C14.1927 5.27477 19.7482 0.674798 25.8668 0.750931C31.5149 0.819451 37.1572 5.01592 38.2402 12.1542C38.9453 12.1542 39.6432 12.1405 40.3396 12.1557C45.7662 12.276 50.4225 16.6339 51.1436 22.2616C51.9717 28.7345 47.8844 34.5587 41.7614 35.6032C41.1577 35.7068 40.5365 35.7418 39.9226 35.7418C30.8156 35.7509 21.7086 35.7524 12.6015 35.7463C5.94425 35.7418 0.860807 30.0424 1.27345 23.0641C1.59777 17.584 5.82407 12.8942 11.0262 12.2577C11.7241 12.1724 12.4307 12.1542 13.1807 12.1009Z" stroke="white" stroke-width="0.75" stroke-miterlimit="10"/>
<g id="Group 63397840">
<path id="Vector_2" d="M29.25 16.8764C26.6565 16.8764 24.5519 19.1763 24.5519 22.0021C24.5519 24.8279 26.6604 27.1279 29.25 27.1279C31.8396 27.1279 33.9481 24.8279 33.9481 22.0021C33.9481 19.1763 31.8396 16.8764 29.25 16.8764ZM29.25 28C26.2144 28 23.75 25.3067 23.75 22.0021C23.75 18.6975 26.2184 16 29.25 16C32.2817 16 34.75 18.6933 34.75 21.9979C34.75 25.3025 32.2817 27.9957 29.25 27.9957V28Z" fill="white"/>
<path id="Vector_3" d="M19.1515 28C16.1757 28 13.75 25.3067 13.75 22.0021C13.75 18.6975 16.1719 16 19.1515 16C20.4809 16 21.7606 16.5472 22.75 17.5305L22.2267 18.1803C21.3786 17.3424 20.2861 16.8764 19.1553 16.8764C16.6074 16.8764 14.5369 19.1763 14.5369 22.0021C14.5369 24.8279 16.6036 27.1279 19.1515 27.1279C20.2861 27.1279 21.3786 26.6662 22.2228 25.824L22.7462 26.4738C21.7568 27.4571 20.4771 28 19.1477 28H19.1515Z" fill="white"/>
<path id="Vector_4" d="M34.75 29.9914V28.5536C34.75 27.6052 35.4142 26.8326 36.2326 26.8326H37.3225C37.6638 26.8326 37.9427 26.5064 37.9427 26.1159V25.6052C37.9427 25.412 37.8766 25.2318 37.7592 25.0987C37.6417 24.9614 37.4876 24.8884 37.3225 24.8884H36.2399C35.8436 24.8884 35.5243 25.2618 35.5243 25.721H34.7573C34.7573 24.7725 35.4216 24 36.2399 24H37.3225C37.6931 24 38.0381 24.1674 38.3023 24.4678C38.5628 24.7725 38.7096 25.176 38.7096 25.6052V26.1202C38.7096 27.0043 38.0858 27.7296 37.3225 27.7296H36.2326C35.8399 27.7296 35.517 28.103 35.517 28.5622V29.1116H38.75V30H34.75V29.9914Z" fill="white"/>
</g>
</g>
</svg>
