<svg width="32" height="32" viewBox="0 0 32 32" fill="none" xmlns="http://www.w3.org/2000/svg">
<g id="twitter-circle-fill" clip-path="url(#clip0_598_8050)">
<path id="twitter" fill-rule="evenodd" clip-rule="evenodd" d="M16 32C12.8355 32 9.74198 31.0616 7.11079 29.3035C4.4796 27.5454 2.42894 25.0465 1.21793 22.1229C0.00693185 19.1993 -0.309921 15.9822 0.307443 12.8785C0.924806 9.77485 2.4486 6.92392 4.68624 4.68628C6.92388 2.44864 9.77484 0.924791 12.8785 0.307428C15.9822 -0.309936 19.1992 0.00691659 22.1228 1.21792C25.0465 2.42892 27.5453 4.47969 29.3034 7.11087C31.0615 9.74206 32 12.8355 32 16C32 20.2435 30.3143 24.3131 27.3137 27.3137C24.3131 30.3143 20.2434 32 16 32ZM22.656 11.6882C23.3517 11.2719 23.8718 10.6163 24.1188 9.8441C23.4663 10.2324 22.7519 10.5058 22.0068 10.6523C21.5046 10.115 20.8391 9.75863 20.1136 9.63854C19.388 9.51845 18.6432 9.6414 17.9947 9.98826C17.3462 10.3351 16.8305 10.8865 16.5276 11.5566C16.2248 12.2268 16.1517 12.9782 16.3199 13.6942C14.9951 13.6278 13.6991 13.2833 12.5161 12.6832C11.3332 12.083 10.2897 11.2406 9.45365 10.2107C9.02614 10.9438 8.8941 11.8123 9.08434 12.6393C9.27458 13.4663 9.77279 14.1898 10.4776 14.6624C9.94878 14.6439 9.4319 14.5004 8.96916 14.2436V14.2866C8.97037 15.0568 9.23767 15.8028 9.72586 16.3985C10.214 16.9941 10.893 17.4028 11.648 17.5552C11.1562 17.6898 10.64 17.7095 10.1394 17.6128C10.3531 18.2754 10.7685 18.8548 11.3274 19.27C11.8864 19.6852 12.561 19.9154 13.2571 19.9287C11.8596 21.0255 10.0837 21.5224 8.31994 21.3102C9.75287 22.2279 11.4065 22.7431 13.1071 22.8015C14.8078 22.86 16.4928 22.4596 17.9853 21.6423C19.4779 20.8251 20.7229 19.6211 21.5898 18.1568C22.4567 16.6925 22.9134 15.0219 22.912 13.3202C22.912 13.1758 22.912 13.0322 22.9029 12.8887C23.5592 12.4211 24.1233 11.8362 24.5668 11.1634C23.9597 11.4329 23.3156 11.6095 22.656 11.6873V11.6882Z" fill="white"/>
</g>
<defs>
<clipPath id="clip0_598_8050">
<rect width="32" height="32" fill="white"/>
</clipPath>
</defs>
</svg>
