<svg width="840" height="830" viewBox="0 0 840 830" fill="none" xmlns="http://www.w3.org/2000/svg">
<rect width="840" height="830" fill="#262626"/>
<path d="M183.219 598.399H183.497L183.593 598.138L216.135 509.525H361.191L393.732 598.138L393.828 598.399H394.107H442.812H443.392L443.185 597.858L314.141 260.437L314.043 260.18H313.768H263.557H263.282L263.184 260.437L134.643 597.858L134.437 598.399H135.016H183.219ZM634.82 354.076H634.421V354.475V383.962C615.772 360.813 588.306 347.548 554.481 347.548C489.457 347.548 438.596 400.481 438.596 475.986C438.596 551.995 489.458 604.424 554.481 604.424C589.882 604.424 617.905 590.109 637.05 564.892L640.951 598.047L640.992 598.399H641.347H680.01H680.409V598V354.475V354.076H680.01H634.82ZM288.664 312.448L345.833 467.051H231.993L288.664 312.448ZM561.009 562.955C535.463 562.955 516.387 556.569 503.687 542.562C490.979 528.546 484.584 506.822 484.584 475.986C484.584 445.15 490.979 423.426 503.687 409.41C516.387 395.403 535.463 389.017 561.009 389.017C586.303 389.017 605.253 395.403 617.891 409.41C630.537 423.426 636.931 445.15 636.931 475.986C636.931 506.822 630.537 528.547 617.891 542.563C605.253 556.57 586.303 562.955 561.009 562.955Z" stroke="#F7F3EB" stroke-width="0.798064"/>
<mask id="mask0_304_3355" style="mask-type:alpha" maskUnits="userSpaceOnUse" x="484" y="389" width="153" height="174">
<path d="M561.004 562.542C510.264 562.542 484.895 537.172 484.895 475.986C484.895 414.8 510.264 389.431 561.004 389.431C611.246 389.431 636.615 414.8 636.615 475.986C636.615 537.172 611.246 562.542 561.004 562.542Z" fill="#FD312E"/>
</mask>
<g mask="url(#mask0_304_3355)">
<line x1="564.895" y1="293.774" x2="393.775" y2="464.894" stroke="#FD312E" stroke-width="2"/>
<line x1="577.625" y1="306.503" x2="406.505" y2="477.622" stroke="#FD312E" stroke-width="2"/>
<line x1="590.352" y1="319.231" x2="419.232" y2="490.35" stroke="#FD312E" stroke-width="2"/>
<line x1="603.078" y1="331.958" x2="431.958" y2="503.078" stroke="#FD312E" stroke-width="2"/>
<line x1="615.809" y1="344.687" x2="444.689" y2="515.806" stroke="#FD312E" stroke-width="2"/>
<line x1="628.535" y1="357.414" x2="457.415" y2="528.534" stroke="#FD312E" stroke-width="2"/>
<line x1="641.262" y1="370.142" x2="470.142" y2="541.262" stroke="#FD312E" stroke-width="2"/>
<line x1="653.992" y1="382.87" x2="482.872" y2="553.99" stroke="#FD312E" stroke-width="2"/>
<line x1="666.719" y1="395.598" x2="495.599" y2="566.718" stroke="#FD312E" stroke-width="2"/>
<line x1="679.445" y1="408.326" x2="508.326" y2="579.446" stroke="#FD312E" stroke-width="2"/>
<line x1="692.176" y1="421.054" x2="521.056" y2="592.174" stroke="#FD312E" stroke-width="2"/>
<line x1="704.902" y1="433.782" x2="533.783" y2="604.902" stroke="#FD312E" stroke-width="2"/>
<line x1="717.633" y1="446.51" x2="546.513" y2="617.63" stroke="#FD312E" stroke-width="2"/>
<line x1="730.359" y1="459.237" x2="559.24" y2="630.357" stroke="#FD312E" stroke-width="2"/>
<line x1="743.086" y1="471.966" x2="571.966" y2="643.086" stroke="#FD312E" stroke-width="2"/>
<line x1="755.816" y1="484.693" x2="584.697" y2="655.813" stroke="#FD312E" stroke-width="2"/>
<line x1="768.543" y1="497.421" x2="597.423" y2="668.541" stroke="#FD312E" stroke-width="2"/>
<line x1="781.27" y1="510.149" x2="610.15" y2="681.269" stroke="#FD312E" stroke-width="2"/>
<line x1="794" y1="522.877" x2="622.88" y2="693.997" stroke="#FD312E" stroke-width="2"/>
<line x1="806.727" y1="535.605" x2="635.607" y2="706.725" stroke="#FD312E" stroke-width="2"/>
</g>
<path d="M634.003 383.5C625.003 373 611.5 359.265 592.001 353.5C512.501 330 454.27 379.492 440.503 450" stroke="#FF3D31" stroke-width="2"/>
</svg>
