<svg width="335" height="335" viewBox="0 0 335 335" fill="none" xmlns="http://www.w3.org/2000/svg">
<g clip-path="url(#clip0_1490_3553)">
<rect width="335" height="335" rx="10" fill="white"/>
<rect x="-87" width="678.072" height="335" rx="12.1084" fill="#262626"/>
<path d="M51.6536 123.476H44.4854V86.5373H31.6989V80.0794H64.5047V86.5373H51.6536V123.476ZM69.3612 87.1185V80.0794H76.5294V87.1185H69.3612ZM69.3612 123.476V91.9619H76.5294V123.476H69.3612ZM81.3611 91.9619H86.1399V83.9541H93.3081V91.9619H100.864V98.226H93.3081V114.887C93.3081 116.954 94.0831 117.406 96.2141 117.406H100.864V123.476H95.4392C90.4667 123.476 86.1399 121.28 86.1399 115.533V98.226H81.3611V91.9619ZM114.169 124.122C109.196 124.122 106.032 122.12 106.032 116.76V80.0794H113.2V115.533C113.2 117.599 113.846 118.051 115.719 118.051H116.946V124.122H114.169ZM150.624 114.306C148.493 120.635 142.617 124.38 135.642 124.38C126.537 124.38 119.498 117.729 119.498 107.654C119.498 97.7093 126.537 91.1223 135.448 91.1223C143.392 91.1223 151.206 96.6115 151.206 107.784V109.785H126.666C127.182 116.05 129.895 118.051 135.642 118.051C140.034 118.051 142.165 117.018 143.456 114.306H150.624ZM126.795 104.49H144.167C143.585 99.3884 141.002 97.3864 135.448 97.3864C130.218 97.3864 127.505 99.1946 126.795 104.49Z" fill="#F7F3EB"/>
<path d="M38.0276 199.006H33.5232V166.459H38.0276V180.456H54.3013V166.459H58.7572V199.006H54.3013V184.476H38.0276V199.006ZM85.8249 192.274C84.275 196.972 80.1097 199.588 75.0241 199.588C68.3887 199.588 63.1094 194.793 63.1094 187.237C63.1094 179.73 68.3887 174.886 74.782 174.886C80.5456 174.886 86.3576 178.906 86.3576 187.237V188.545H67.5169C67.8559 193.872 70.3261 195.664 75.0241 195.664C78.6567 195.664 80.4487 194.793 81.4658 192.274H85.8249ZM67.5653 185.154H82.047C81.6111 180.456 79.2379 178.809 74.782 178.809C70.5198 178.809 68.0981 180.408 67.5653 185.154ZM100.417 199.588C94.1687 199.588 89.2769 194.55 89.2769 187.237C89.2769 179.972 94.1687 174.886 100.417 174.886C103.71 174.886 106.374 176.194 108.166 178.47V175.516H112.525V199.006H108.796L108.408 195.713C106.568 198.183 103.855 199.588 100.417 199.588ZM93.6359 187.237C93.6359 193.194 96.1061 195.664 101.046 195.664C105.938 195.664 108.408 193.194 108.408 187.237C108.408 181.28 105.938 178.809 101.046 178.809C96.1061 178.809 93.6359 181.28 93.6359 187.237ZM135.752 166.459H140.112V199.006H136.382L135.995 195.713C134.154 198.183 131.442 199.588 128.003 199.588C121.755 199.588 116.863 194.55 116.863 187.237C116.863 179.972 121.755 174.886 128.003 174.886C131.297 174.886 133.96 176.194 135.752 178.47V166.459ZM121.222 187.237C121.222 193.194 123.596 195.664 128.633 195.664C133.67 195.664 135.995 193.194 135.995 187.237C135.995 181.28 133.67 178.809 128.633 178.809C123.596 178.809 121.222 181.28 121.222 187.237ZM151.473 199.491C148.179 199.491 145.903 198.183 145.903 194.55V166.459H150.262V193.824C150.262 195.374 150.746 195.713 152.151 195.713H153.313V199.491H151.473ZM156.793 171.157V166.459H161.152V171.157H156.793ZM156.793 199.006V175.516H161.152V199.006H156.793ZM183.392 184.767C183.392 180.505 181.503 178.809 177.435 178.809C173.318 178.809 171.284 180.505 171.284 184.767V199.006H166.973V175.516H170.703L171.09 178.713C172.64 176.339 175.207 174.886 178.597 174.886C184.167 174.886 187.703 179.003 187.703 185.106V199.006H183.392V184.767ZM214.545 192.274C212.995 196.972 208.83 199.588 203.744 199.588C197.109 199.588 191.83 194.793 191.83 187.237C191.83 179.73 197.109 174.886 203.502 174.886C209.266 174.886 215.078 178.906 215.078 187.237V188.545H196.237C196.576 193.872 199.046 195.664 203.744 195.664C207.377 195.664 209.169 194.793 210.186 192.274H214.545ZM196.286 185.154H210.767C210.331 180.456 207.958 178.809 203.502 178.809C199.24 178.809 196.818 180.408 196.286 185.154Z" fill="#F7F3EB"/>
<path d="M45.002 260.886C45.002 259.077 44.2271 258.302 42.1283 257.689L38.6088 256.688C34.6695 255.59 32.6999 253.879 32.6999 250.262C32.6999 246.807 36.0579 244.386 40.4815 244.386C44.8729 244.386 48.0372 246.614 48.7153 250.359H45.0343C44.7437 248.39 43.4199 247.582 40.5138 247.582C37.6078 247.582 36.3485 248.325 36.3485 250.262C36.3485 251.941 37.2203 252.652 39.3191 253.233L42.8064 254.234C46.7134 255.364 48.6507 257.14 48.6507 260.756C48.6507 265.18 44.6791 266.988 40.4815 266.988C36.284 266.988 32.603 265.212 31.7635 260.466H35.4767C35.8965 263.081 37.4787 263.792 40.4815 263.792C43.6782 263.792 45.002 263.146 45.002 260.886ZM54.9819 260.304C54.9819 262.823 56.0474 263.824 58.566 263.824C61.1168 263.824 62.2147 262.823 62.2147 260.304V250.779H65.7665V266.536H62.6667L62.4084 264.663C61.2783 266.116 59.5992 266.988 57.4359 266.988C53.8195 266.988 51.4624 264.244 51.4624 260.24V250.779H54.9819V260.304ZM72.6108 266.536H69.4787V244.902H73.0628V252.329C74.2575 251.07 75.872 250.359 77.8416 250.359C82.0715 250.359 85.3327 253.717 85.3327 258.625C85.3327 263.598 82.0715 266.988 77.8416 266.988C75.7428 266.988 74.0638 266.181 72.8368 264.76L72.6108 266.536ZM72.9014 258.625C72.9014 262.371 74.3544 263.824 77.325 263.824C80.3279 263.824 81.7809 262.371 81.7809 258.625C81.7809 254.944 80.3279 253.491 77.325 253.491C74.3544 253.491 72.9014 254.944 72.9014 258.625ZM86.1682 250.779H88.5576V246.775H92.1417V250.779H95.9195V253.911H92.1417V262.242C92.1417 263.275 92.5291 263.501 93.5947 263.501H95.9195V266.536H93.2072C90.721 266.536 88.5576 265.438 88.5576 262.565V253.911H86.1682V250.779ZM98.5036 248.357V244.838H102.088V248.357H98.5036ZM98.5036 266.536V250.779H102.088V266.536H98.5036ZM104.504 250.779H106.893V246.775H110.477V250.779H114.255V253.911H110.477V262.242C110.477 263.275 110.865 263.501 111.93 263.501H114.255V266.536H111.543C109.056 266.536 106.893 265.438 106.893 262.565V253.911H104.504V250.779ZM120.908 266.859C118.421 266.859 116.839 265.858 116.839 263.178V244.838H120.423V262.565C120.423 263.598 120.746 263.824 121.682 263.824H122.296V266.859H120.908ZM139.135 261.951C138.07 265.115 135.131 266.988 131.644 266.988C127.091 266.988 123.572 263.662 123.572 258.625C123.572 253.653 127.091 250.359 131.547 250.359C135.519 250.359 139.426 253.104 139.426 258.69V259.691H127.156C127.414 262.823 128.77 263.824 131.644 263.824C133.84 263.824 134.905 263.307 135.551 261.951H139.135ZM127.221 257.043H135.906C135.616 254.492 134.324 253.491 131.547 253.491C128.932 253.491 127.576 254.395 127.221 257.043Z" fill="#F7F3EB"/>
<path d="M256.667 82.9514V83.4761H253.455V78.0515H254.076V82.9514H256.667ZM259.459 83.0321C259.675 83.0321 259.882 83.0186 260.081 82.9917C260.285 82.9594 260.479 82.9137 260.662 82.8545V81.2239H259.274V80.6992H261.276V83.2097C261.033 83.3012 260.748 83.3819 260.42 83.4519C260.092 83.5218 259.766 83.5568 259.443 83.5568C258.997 83.5568 258.614 83.4976 258.297 83.3792C257.985 83.2554 257.729 83.0778 257.53 82.8464C257.331 82.6096 257.186 82.319 257.094 81.9746C257.008 81.6248 256.965 81.2212 256.965 80.7638C256.965 79.8059 257.161 79.1009 257.554 78.6488C257.953 78.1968 258.539 77.9708 259.314 77.9708C259.75 77.9708 260.127 78.038 260.444 78.1726C260.762 78.3017 261.025 78.4793 261.235 78.7054L260.864 79.1251C260.665 78.9152 260.441 78.7592 260.194 78.6569C259.946 78.5547 259.653 78.5035 259.314 78.5035C258.738 78.5035 258.305 78.6865 258.014 79.0525C257.729 79.413 257.587 79.9835 257.587 80.7638C257.587 81.5387 257.732 82.1119 258.022 82.4832C258.313 82.8491 258.792 83.0321 259.459 83.0321ZM268.156 82.9514V83.4761H264.822V78.0515H268.075V78.5843H265.444V80.3844H267.978V80.9091H265.444V82.9514H268.156ZM269.372 78.0515H269.994V83.4761H269.372V78.0515ZM277.792 78.0515V83.4761H277.163V80.901H274.273V83.4761H273.651V78.0515H274.273V80.3682H277.163V78.0515H277.792ZM280.568 83.5568C279.932 83.5568 279.48 83.3927 279.211 83.0644C278.948 82.7307 278.816 82.2168 278.816 81.5226C278.816 80.823 278.95 80.309 279.219 79.9808C279.489 79.6525 279.9 79.4884 280.454 79.4884C281.009 79.4884 281.42 79.6498 281.69 79.9727C281.959 80.2902 282.093 80.7961 282.093 81.4903V81.7486H279.445C279.467 82.2114 279.567 82.5424 279.744 82.7415C279.922 82.9406 280.199 83.0402 280.576 83.0402C280.802 83.0402 281.022 83.0079 281.238 82.9433C281.458 82.8733 281.663 82.7792 281.851 82.6608L282.053 83.1532C281.848 83.277 281.617 83.3765 281.359 83.4519C281.106 83.5218 280.842 83.5568 280.568 83.5568ZM281.464 81.2481C281.437 80.8284 281.342 80.5189 281.181 80.3198C281.02 80.1153 280.777 80.0131 280.454 80.0131C280.132 80.0131 279.889 80.1153 279.728 80.3198C279.567 80.5189 279.472 80.8284 279.445 81.2481H281.464ZM285.879 83.4761H285.419L285.322 83.1128C285.161 83.2527 284.97 83.3631 284.749 83.4438C284.534 83.5191 284.297 83.5568 284.039 83.5568C283.635 83.5568 283.331 83.4545 283.126 83.2501C282.927 83.0402 282.828 82.7415 282.828 82.354C282.828 81.9558 282.952 81.6625 283.199 81.4741C283.447 81.2804 283.861 81.1835 284.442 81.1835C284.614 81.1835 284.765 81.1862 284.894 81.1916C285.029 81.197 285.153 81.2078 285.266 81.2239V81.006C285.266 80.6454 285.196 80.3898 285.056 80.2391C284.916 80.083 284.668 80.005 284.313 80.005C284.146 80.005 283.963 80.0346 283.764 80.0938C283.57 80.1476 283.374 80.2283 283.175 80.336L282.989 79.8678C283.204 79.7494 283.433 79.6579 283.675 79.5933C283.918 79.5233 284.168 79.4884 284.426 79.4884C284.701 79.4884 284.929 79.5153 285.112 79.5691C285.301 79.6229 285.451 79.7117 285.564 79.8355C285.677 79.9539 285.758 80.1072 285.806 80.2956C285.855 80.4839 285.879 80.7154 285.879 80.9898V83.4761ZM284.208 83.0482C284.386 83.0482 284.569 83.0106 284.757 82.9352C284.951 82.8545 285.12 82.7496 285.266 82.6204V81.7244C285.126 81.7082 284.986 81.6975 284.846 81.6921C284.706 81.6813 284.55 81.676 284.378 81.676C284.039 81.676 283.796 81.7271 283.651 81.8293C283.511 81.9316 283.441 82.1038 283.441 82.346C283.441 82.5774 283.5 82.7523 283.619 82.8707C283.737 82.989 283.934 83.0482 284.208 83.0482ZM290.047 77.777V83.4761H289.587L289.49 83.1451C289.35 83.2743 289.186 83.3765 288.998 83.4519C288.809 83.5218 288.602 83.5568 288.376 83.5568C287.843 83.5568 287.443 83.3927 287.173 83.0644C286.904 82.7361 286.77 82.2222 286.77 81.5226C286.77 80.8284 286.899 80.3171 287.157 79.9888C287.421 79.6552 287.806 79.4884 288.312 79.4884C288.538 79.4884 288.745 79.5233 288.933 79.5933C289.127 79.6633 289.291 79.7601 289.426 79.8839V77.8578L290.047 77.777ZM288.473 83.0482C288.661 83.0482 288.836 83.0106 288.998 82.9352C289.165 82.8599 289.307 82.7576 289.426 82.6285V80.4247C289.307 80.2956 289.165 80.1933 288.998 80.118C288.836 80.0427 288.661 80.005 288.473 80.005C288.102 80.005 287.827 80.1234 287.65 80.3602C287.478 80.597 287.391 80.9844 287.391 81.5226C287.391 82.0661 287.478 82.4563 287.65 82.6931C287.827 82.9298 288.102 83.0482 288.473 83.0482ZM292.263 83.5326C292.236 83.5433 292.198 83.5487 292.15 83.5487C292.101 83.5541 292.061 83.5568 292.029 83.5568C291.754 83.5568 291.555 83.4761 291.431 83.3146C291.313 83.1478 291.254 82.8949 291.254 82.5558V77.8739L291.867 77.777V82.467C291.867 82.5908 291.873 82.6904 291.883 82.7657C291.894 82.8411 291.913 82.9003 291.94 82.9433C291.972 82.9864 292.012 83.016 292.061 83.0321C292.115 83.0429 292.182 83.0482 292.263 83.0482V83.5326ZM293.217 79.5691H293.83V83.4761H293.217V79.5691ZM293.209 77.89H293.83V78.6973H293.209V77.89ZM295.601 79.9646C295.784 79.8193 295.986 79.7036 296.206 79.6175C296.427 79.5314 296.658 79.4884 296.9 79.4884C297.352 79.4884 297.675 79.5987 297.869 79.8193C298.068 80.0346 298.168 80.3871 298.168 80.8768V83.4761H297.554V81.0463C297.554 80.6588 297.49 80.3898 297.361 80.2391C297.237 80.0884 297.043 80.0131 296.779 80.0131C296.403 80.0131 296.026 80.1503 295.649 80.4247V83.4761H295.036V79.5691H295.496L295.601 79.9646ZM300.811 83.5568C300.176 83.5568 299.724 83.3927 299.455 83.0644C299.191 82.7307 299.06 82.2168 299.06 81.5226C299.06 80.823 299.194 80.309 299.463 79.9808C299.732 79.6525 300.144 79.4884 300.698 79.4884C301.253 79.4884 301.664 79.6498 301.933 79.9727C302.202 80.2902 302.337 80.7961 302.337 81.4903V81.7486H299.689C299.711 82.2114 299.81 82.5424 299.988 82.7415C300.166 82.9406 300.443 83.0402 300.819 83.0402C301.045 83.0402 301.266 83.0079 301.481 82.9433C301.702 82.8733 301.906 82.7792 302.095 82.6608L302.297 83.1532C302.092 83.277 301.861 83.3765 301.602 83.4519C301.349 83.5218 301.086 83.5568 300.811 83.5568ZM301.707 81.2481C301.68 80.8284 301.586 80.5189 301.425 80.3198C301.263 80.1153 301.021 80.0131 300.698 80.0131C300.375 80.0131 300.133 80.1153 299.972 80.3198C299.81 80.5189 299.716 80.8284 299.689 81.2481H301.707ZM256.28 93.1684C256.28 93.0392 256.261 92.9235 256.223 92.8213C256.186 92.719 256.118 92.6248 256.022 92.5387C255.925 92.4526 255.79 92.3692 255.618 92.2885C255.451 92.2078 255.239 92.1217 254.98 92.0302C254.663 91.9172 254.396 91.8068 254.181 91.6992C253.966 91.5862 253.794 91.4651 253.665 91.336C253.535 91.2068 253.441 91.0642 253.382 90.9081C253.328 90.7521 253.301 90.5718 253.301 90.3673C253.301 89.9421 253.457 89.6031 253.769 89.3502C254.082 89.0972 254.539 88.9708 255.142 88.9708C255.438 88.9708 255.709 89.0084 255.957 89.0838C256.205 89.1537 256.441 89.2533 256.667 89.3825L256.425 89.8829C256.226 89.7592 256.019 89.665 255.804 89.6004C255.588 89.5305 255.368 89.4955 255.142 89.4955C254.722 89.4955 254.413 89.5708 254.213 89.7215C254.02 89.8668 253.923 90.0686 253.923 90.3269C253.923 90.4615 253.944 90.5798 253.987 90.6821C254.03 90.7843 254.1 90.8785 254.197 90.9646C254.3 91.0507 254.434 91.1368 254.601 91.2229C254.768 91.3037 254.978 91.3925 255.231 91.4893C255.543 91.6077 255.804 91.718 256.014 91.8203C256.229 91.9225 256.401 92.0356 256.53 92.1593C256.665 92.2777 256.759 92.4149 256.813 92.571C256.872 92.7217 256.902 92.9047 256.902 93.1199C256.902 93.5612 256.74 93.911 256.417 94.1693C256.1 94.4276 255.607 94.5568 254.94 94.5568C254.601 94.5568 254.278 94.5164 253.971 94.4357C253.665 94.355 253.404 94.2501 253.188 94.1209L253.414 93.6366C253.646 93.7603 253.885 93.8599 254.133 93.9352C254.38 94.0052 254.641 94.0402 254.916 94.0402C255.373 94.0402 255.715 93.9648 255.941 93.8141C256.167 93.6581 256.28 93.4428 256.28 93.1684ZM259.401 94.5568C258.766 94.5568 258.314 94.3927 258.045 94.0644C257.782 93.7307 257.65 93.2168 257.65 92.5226C257.65 91.823 257.784 91.309 258.053 90.9808C258.322 90.6525 258.734 90.4884 259.288 90.4884C259.843 90.4884 260.254 90.6498 260.523 90.9727C260.793 91.2902 260.927 91.7961 260.927 92.4903V92.7486H258.279C258.301 93.2114 258.4 93.5424 258.578 93.7415C258.756 93.9406 259.033 94.0402 259.409 94.0402C259.635 94.0402 259.856 94.0079 260.071 93.9433C260.292 93.8733 260.497 93.7792 260.685 93.6608L260.887 94.1532C260.682 94.277 260.451 94.3765 260.192 94.4519C259.94 94.5218 259.676 94.5568 259.401 94.5568ZM260.297 92.2481C260.271 91.8284 260.176 91.5189 260.015 91.3198C259.853 91.1153 259.611 91.0131 259.288 91.0131C258.965 91.0131 258.723 91.1153 258.562 91.3198C258.4 91.5189 258.306 91.8284 258.279 92.2481H260.297ZM262.428 90.9323C262.617 90.7924 262.811 90.6848 263.01 90.6094C263.209 90.5287 263.421 90.4884 263.647 90.4884C263.922 90.4884 264.14 90.5287 264.301 90.6094C264.468 90.6902 264.592 90.8247 264.673 91.0131C264.861 90.857 265.065 90.7305 265.286 90.6337C265.512 90.5368 265.746 90.4884 265.988 90.4884C266.214 90.4884 266.403 90.5153 266.553 90.5691C266.704 90.6175 266.825 90.6982 266.917 90.8113C267.014 90.9243 267.081 91.0696 267.119 91.2472C267.156 91.4194 267.175 91.6292 267.175 91.8768V94.4761H266.562V92.0463C266.562 91.6588 266.508 91.3898 266.4 91.2391C266.298 91.0884 266.123 91.0131 265.875 91.0131C265.52 91.0131 265.162 91.1584 264.802 91.449C264.818 91.5727 264.826 91.7154 264.826 91.8768V94.4761H264.212V92.0463C264.212 91.6642 264.164 91.3978 264.067 91.2472C263.97 91.0911 263.79 91.0131 263.526 91.0131C263.349 91.0131 263.177 91.048 263.01 91.118C262.843 91.1826 262.668 91.2848 262.485 91.4247V94.4761H261.872V90.5691H262.332L262.428 90.9323ZM268.338 90.5691H268.951V94.4761H268.338V90.5691ZM268.33 88.89H268.951V89.6973H268.33V88.89ZM271.731 94.0482C272.102 94.0482 272.377 93.9298 272.554 93.6931C272.732 93.4563 272.821 93.0661 272.821 92.5226C272.821 91.9844 272.732 91.597 272.554 91.3602C272.377 91.1234 272.102 91.005 271.731 91.005C271.542 91.005 271.365 91.0427 271.198 91.118C271.037 91.1933 270.897 91.2956 270.778 91.4247V93.6285C270.897 93.7576 271.037 93.8599 271.198 93.9352C271.365 94.0106 271.542 94.0482 271.731 94.0482ZM270.617 94.4761H270.157V88.8497L270.778 88.777V90.8839C270.913 90.7601 271.074 90.6633 271.263 90.5933C271.456 90.5233 271.666 90.4884 271.892 90.4884C272.398 90.4884 272.78 90.6552 273.038 90.9888C273.302 91.3171 273.434 91.8284 273.434 92.5226C273.434 93.2222 273.299 93.7361 273.03 94.0644C272.761 94.3927 272.36 94.5568 271.828 94.5568C271.602 94.5568 271.394 94.5218 271.206 94.4519C271.023 94.3765 270.862 94.2743 270.722 94.1451L270.617 94.4761ZM274.188 92.5226C274.188 91.823 274.328 91.309 274.608 90.9808C274.893 90.6525 275.345 90.4884 275.964 90.4884C276.578 90.4884 277.025 90.6525 277.304 90.9808C277.59 91.309 277.732 91.823 277.732 92.5226C277.732 93.2222 277.59 93.7361 277.304 94.0644C277.019 94.3927 276.572 94.5568 275.964 94.5568C275.351 94.5568 274.901 94.3927 274.616 94.0644C274.331 93.7361 274.188 93.2222 274.188 92.5226ZM274.81 92.5226C274.81 93.0554 274.901 93.4428 275.084 93.685C275.267 93.9218 275.561 94.0402 275.964 94.0402C276.368 94.0402 276.661 93.9218 276.844 93.685C277.027 93.4428 277.119 93.0554 277.119 92.5226C277.119 92.0006 277.027 91.6185 276.844 91.3763C276.661 91.1341 276.368 91.0131 275.964 91.0131C275.561 91.0131 275.267 91.1341 275.084 91.3763C274.901 91.6185 274.81 92.0006 274.81 92.5226ZM279.76 94.5326C279.733 94.5433 279.696 94.5487 279.647 94.5487C279.599 94.5541 279.558 94.5568 279.526 94.5568C279.252 94.5568 279.052 94.4761 278.929 94.3146C278.81 94.1478 278.751 93.8949 278.751 93.5558V88.8739L279.365 88.777V93.467C279.365 93.5908 279.37 93.6904 279.381 93.7657C279.392 93.8411 279.41 93.9003 279.437 93.9433C279.47 93.9864 279.51 94.016 279.558 94.0321C279.612 94.0429 279.679 94.0482 279.76 94.0482V94.5326ZM283.717 88.777V94.4761H283.257L283.16 94.1451C283.02 94.2743 282.856 94.3765 282.668 94.4519C282.479 94.5218 282.272 94.5568 282.046 94.5568C281.513 94.5568 281.112 94.3927 280.843 94.0644C280.574 93.7361 280.44 93.2222 280.44 92.5226C280.44 91.8284 280.569 91.3171 280.827 90.9888C281.091 90.6552 281.476 90.4884 281.982 90.4884C282.208 90.4884 282.415 90.5233 282.603 90.5933C282.797 90.6633 282.961 90.7601 283.096 90.8839V88.8578L283.717 88.777ZM282.143 94.0482C282.331 94.0482 282.506 94.0106 282.668 93.9352C282.835 93.8599 282.977 93.7576 283.096 93.6285V91.4247C282.977 91.2956 282.835 91.1933 282.668 91.118C282.506 91.0427 282.331 91.005 282.143 91.005C281.772 91.005 281.497 91.1234 281.32 91.3602C281.147 91.597 281.061 91.9844 281.061 92.5226C281.061 93.0661 281.147 93.4563 281.32 93.6931C281.497 93.9298 281.772 94.0482 282.143 94.0482ZM255.44 103.232V104.564H254.875V103.232H253.495V102.699H254.875V101.375H255.44V102.699H256.837V103.232H255.44ZM259.395 105.476V100.697L258.031 101.618L257.724 101.157L259.395 100.051H260.025V105.476H259.395ZM262.444 105.718H261.862L265.794 99.777H266.367L262.444 105.718ZM261.394 101.408C261.394 100.918 261.488 100.555 261.677 100.318C261.865 100.076 262.137 99.9546 262.492 99.9546C262.847 99.9546 263.119 100.076 263.307 100.318C263.496 100.555 263.59 100.918 263.59 101.408C263.59 101.897 263.496 102.263 263.307 102.505C263.119 102.748 262.847 102.869 262.492 102.869C262.137 102.869 261.865 102.748 261.677 102.505C261.488 102.263 261.394 101.897 261.394 101.408ZM261.951 101.408C261.951 102.064 262.131 102.392 262.492 102.392C262.853 102.392 263.033 102.064 263.033 101.408C263.033 100.751 262.853 100.423 262.492 100.423C262.131 100.423 261.951 100.751 261.951 101.408ZM264.663 104.08C264.663 103.59 264.758 103.227 264.946 102.99C265.134 102.748 265.406 102.627 265.761 102.627C266.116 102.627 266.388 102.748 266.577 102.99C266.765 103.227 266.859 103.59 266.859 104.08C266.859 104.569 266.765 104.935 266.577 105.177C266.388 105.414 266.116 105.533 265.761 105.533C265.406 105.533 265.134 105.414 264.946 105.177C264.758 104.935 264.663 104.569 264.663 104.08ZM265.22 104.08C265.22 104.736 265.401 105.064 265.761 105.064C266.122 105.064 266.302 104.736 266.302 104.08C266.302 103.423 266.122 103.095 265.761 103.095C265.401 103.095 265.22 103.423 265.22 104.08ZM270.926 102.094V104.023C270.926 104.201 270.934 104.354 270.95 104.483C270.966 104.612 270.999 104.72 271.047 104.806C271.101 104.887 271.174 104.946 271.265 104.984C271.362 105.021 271.491 105.04 271.652 105.04C271.771 105.04 271.887 105.027 272 105C272.118 104.973 272.231 104.941 272.339 104.903L272.46 105.371C272.137 105.495 271.811 105.557 271.483 105.557C271.246 105.557 271.05 105.525 270.894 105.46C270.743 105.395 270.622 105.307 270.53 105.194C270.444 105.075 270.385 104.935 270.353 104.774C270.321 104.607 270.304 104.424 270.304 104.225V102.094H269.667V101.569H270.304V100.746L270.926 100.633V101.569H272.306V102.094H270.926ZM273.668 101.569L273.74 102.086C273.918 101.892 274.117 101.744 274.338 101.642C274.558 101.539 274.782 101.488 275.008 101.488C275.099 101.488 275.177 101.496 275.242 101.513C275.312 101.523 275.384 101.542 275.46 101.569V102.118C275.298 102.053 275.129 102.021 274.951 102.021C274.747 102.021 274.542 102.078 274.338 102.191C274.133 102.304 273.958 102.446 273.813 102.618V105.476H273.2V101.569H273.668ZM278.847 105.476H278.387L278.29 105.113C278.129 105.253 277.938 105.363 277.717 105.444C277.502 105.519 277.265 105.557 277.007 105.557C276.603 105.557 276.299 105.455 276.095 105.25C275.896 105.04 275.796 104.741 275.796 104.354C275.796 103.956 275.92 103.662 276.167 103.474C276.415 103.28 276.829 103.184 277.41 103.184C277.583 103.184 277.733 103.186 277.863 103.192C277.997 103.197 278.121 103.208 278.234 103.224V103.006C278.234 102.645 278.164 102.39 278.024 102.239C277.884 102.083 277.637 102.005 277.281 102.005C277.114 102.005 276.932 102.035 276.732 102.094C276.539 102.148 276.342 102.228 276.143 102.336L275.957 101.868C276.173 101.749 276.401 101.658 276.644 101.593C276.886 101.523 277.136 101.488 277.394 101.488C277.669 101.488 277.898 101.515 278.08 101.569C278.269 101.623 278.42 101.712 278.533 101.835C278.646 101.954 278.726 102.107 278.775 102.296C278.823 102.484 278.847 102.715 278.847 102.99V105.476ZM277.176 105.048C277.354 105.048 277.537 105.011 277.725 104.935C277.919 104.855 278.089 104.75 278.234 104.62V103.724C278.094 103.708 277.954 103.697 277.814 103.692C277.674 103.681 277.518 103.676 277.346 103.676C277.007 103.676 276.765 103.727 276.619 103.829C276.479 103.932 276.41 104.104 276.41 104.346C276.41 104.577 276.469 104.752 276.587 104.871C276.705 104.989 276.902 105.048 277.176 105.048ZM281.595 105.04C281.971 105.04 282.308 104.946 282.604 104.758L282.781 105.25C282.625 105.342 282.445 105.417 282.241 105.476C282.041 105.53 281.826 105.557 281.595 105.557C280.954 105.557 280.486 105.398 280.19 105.081C279.894 104.758 279.746 104.238 279.746 103.523C279.746 102.823 279.889 102.309 280.174 101.981C280.459 101.652 280.906 101.488 281.514 101.488C282.036 101.488 282.464 101.647 282.798 101.965L282.458 102.384C282.34 102.266 282.2 102.175 282.039 102.11C281.883 102.04 281.713 102.005 281.53 102.005C281.143 102.005 280.849 102.123 280.65 102.36C280.457 102.592 280.36 102.979 280.36 103.523C280.36 104.066 280.462 104.456 280.666 104.693C280.871 104.924 281.18 105.04 281.595 105.04ZM283.613 105.476V99.8578L284.235 99.777V103.095H284.614L286.075 101.569H286.826L285.106 103.361L286.874 105.476H286.124L284.606 103.619H284.235V105.476H283.613ZM287.62 101.569H288.233V105.476H287.62V101.569ZM287.612 99.89H288.233V100.697H287.612V99.89ZM290.004 101.965C290.187 101.819 290.389 101.704 290.609 101.618C290.83 101.531 291.061 101.488 291.303 101.488C291.755 101.488 292.078 101.599 292.272 101.819C292.471 102.035 292.571 102.387 292.571 102.877V105.476H291.957V103.046C291.957 102.659 291.893 102.39 291.764 102.239C291.64 102.088 291.446 102.013 291.182 102.013C290.806 102.013 290.429 102.15 290.052 102.425V105.476H289.439V101.569H289.899L290.004 101.965ZM296.74 101.569V105.525C296.74 106.122 296.595 106.555 296.304 106.824C296.019 107.099 295.591 107.236 295.021 107.236C294.795 107.236 294.579 107.217 294.375 107.179C294.17 107.147 293.99 107.101 293.834 107.042L293.963 106.534C294.27 106.652 294.62 106.711 295.012 106.711C295.4 106.711 295.68 106.622 295.852 106.445C296.03 106.267 296.118 105.977 296.118 105.573V105.169C295.984 105.293 295.82 105.39 295.626 105.46C295.438 105.525 295.23 105.557 295.004 105.557C294.499 105.557 294.114 105.393 293.85 105.064C293.592 104.736 293.463 104.222 293.463 103.523C293.463 102.828 293.597 102.317 293.866 101.989C294.135 101.655 294.536 101.488 295.069 101.488C295.295 101.488 295.502 101.526 295.691 101.601C295.879 101.677 296.043 101.779 296.183 101.908L296.28 101.569H296.74ZM295.166 102.005C294.795 102.005 294.52 102.123 294.342 102.36C294.17 102.597 294.084 102.984 294.084 103.523C294.084 104.066 294.17 104.456 294.342 104.693C294.52 104.93 294.795 105.048 295.166 105.048C295.354 105.048 295.529 105.011 295.691 104.935C295.857 104.86 296 104.758 296.118 104.628V102.425C296 102.296 295.857 102.193 295.691 102.118C295.529 102.043 295.354 102.005 295.166 102.005Z" fill="#F7F3EB"/>
<path d="M256.667 169.325V169.85H253.455V164.425H254.076V169.325H256.667ZM259.459 169.406C259.675 169.406 259.882 169.392 260.081 169.365C260.285 169.333 260.479 169.287 260.662 169.228V167.597H259.274V167.073H261.276V169.583C261.033 169.675 260.748 169.755 260.42 169.825C260.092 169.895 259.766 169.93 259.443 169.93C258.997 169.93 258.614 169.871 258.297 169.753C257.985 169.629 257.729 169.451 257.53 169.22C257.331 168.983 257.186 168.693 257.094 168.348C257.008 167.998 256.965 167.595 256.965 167.137C256.965 166.179 257.161 165.474 257.554 165.022C257.953 164.57 258.539 164.344 259.314 164.344C259.75 164.344 260.127 164.412 260.444 164.546C260.762 164.675 261.025 164.853 261.235 165.079L260.864 165.499C260.665 165.289 260.441 165.133 260.194 165.03C259.946 164.928 259.653 164.877 259.314 164.877C258.738 164.877 258.305 165.06 258.014 165.426C257.729 165.787 257.587 166.357 257.587 167.137C257.587 167.912 257.732 168.485 258.022 168.857C258.313 169.223 258.792 169.406 259.459 169.406ZM268.156 169.325V169.85H264.822V164.425H268.075V164.958H265.444V166.758H267.978V167.283H265.444V169.325H268.156ZM269.372 164.425H269.994V169.85H269.372V164.425ZM277.792 164.425V169.85H277.163V167.275H274.273V169.85H273.651V164.425H274.273V166.742H277.163V164.425H277.792ZM280.568 169.93C279.932 169.93 279.48 169.766 279.211 169.438C278.948 169.104 278.816 168.59 278.816 167.896C278.816 167.197 278.95 166.683 279.219 166.354C279.489 166.026 279.9 165.862 280.454 165.862C281.009 165.862 281.42 166.023 281.69 166.346C281.959 166.664 282.093 167.17 282.093 167.864V168.122H279.445C279.467 168.585 279.567 168.916 279.744 169.115C279.922 169.314 280.199 169.414 280.576 169.414C280.802 169.414 281.022 169.381 281.238 169.317C281.458 169.247 281.663 169.153 281.851 169.034L282.053 169.527C281.848 169.65 281.617 169.75 281.359 169.825C281.106 169.895 280.842 169.93 280.568 169.93ZM281.464 167.622C281.437 167.202 281.342 166.892 281.181 166.693C281.02 166.489 280.777 166.387 280.454 166.387C280.132 166.387 279.889 166.489 279.728 166.693C279.567 166.892 279.472 167.202 279.445 167.622H281.464ZM285.879 169.85H285.419L285.322 169.486C285.161 169.626 284.97 169.737 284.749 169.817C284.534 169.893 284.297 169.93 284.039 169.93C283.635 169.93 283.331 169.828 283.126 169.624C282.927 169.414 282.828 169.115 282.828 168.728C282.828 168.329 282.952 168.036 283.199 167.848C283.447 167.654 283.861 167.557 284.442 167.557C284.614 167.557 284.765 167.56 284.894 167.565C285.029 167.571 285.153 167.581 285.266 167.597V167.379C285.266 167.019 285.196 166.763 285.056 166.613C284.916 166.457 284.668 166.379 284.313 166.379C284.146 166.379 283.963 166.408 283.764 166.467C283.57 166.521 283.374 166.602 283.175 166.709L282.989 166.241C283.204 166.123 283.433 166.031 283.675 165.967C283.918 165.897 284.168 165.862 284.426 165.862C284.701 165.862 284.929 165.889 285.112 165.943C285.301 165.996 285.451 166.085 285.564 166.209C285.677 166.327 285.758 166.481 285.806 166.669C285.855 166.857 285.879 167.089 285.879 167.363V169.85ZM284.208 169.422C284.386 169.422 284.569 169.384 284.757 169.309C284.951 169.228 285.12 169.123 285.266 168.994V168.098C285.126 168.082 284.986 168.071 284.846 168.066C284.706 168.055 284.55 168.049 284.378 168.049C284.039 168.049 283.796 168.101 283.651 168.203C283.511 168.305 283.441 168.477 283.441 168.719C283.441 168.951 283.5 169.126 283.619 169.244C283.737 169.363 283.934 169.422 284.208 169.422ZM290.047 164.151V169.85H289.587L289.49 169.519C289.35 169.648 289.186 169.75 288.998 169.825C288.809 169.895 288.602 169.93 288.376 169.93C287.843 169.93 287.443 169.766 287.173 169.438C286.904 169.11 286.77 168.596 286.77 167.896C286.77 167.202 286.899 166.691 287.157 166.362C287.421 166.029 287.806 165.862 288.312 165.862C288.538 165.862 288.745 165.897 288.933 165.967C289.127 166.037 289.291 166.134 289.426 166.257V164.231L290.047 164.151ZM288.473 169.422C288.661 169.422 288.836 169.384 288.998 169.309C289.165 169.233 289.307 169.131 289.426 169.002V166.798C289.307 166.669 289.165 166.567 288.998 166.492C288.836 166.416 288.661 166.379 288.473 166.379C288.102 166.379 287.827 166.497 287.65 166.734C287.478 166.97 287.391 167.358 287.391 167.896C287.391 168.44 287.478 168.83 287.65 169.067C287.827 169.303 288.102 169.422 288.473 169.422ZM292.263 169.906C292.236 169.917 292.198 169.922 292.15 169.922C292.101 169.928 292.061 169.93 292.029 169.93C291.754 169.93 291.555 169.85 291.431 169.688C291.313 169.521 291.254 169.268 291.254 168.929V164.247L291.867 164.151V168.841C291.867 168.964 291.873 169.064 291.883 169.139C291.894 169.215 291.913 169.274 291.94 169.317C291.972 169.36 292.012 169.389 292.061 169.406C292.115 169.416 292.182 169.422 292.263 169.422V169.906ZM293.217 165.943H293.83V169.85H293.217V165.943ZM293.209 164.264H293.83V165.071H293.209V164.264ZM295.601 166.338C295.784 166.193 295.986 166.077 296.206 165.991C296.427 165.905 296.658 165.862 296.9 165.862C297.352 165.862 297.675 165.972 297.869 166.193C298.068 166.408 298.168 166.761 298.168 167.25V169.85H297.554V167.42C297.554 167.032 297.49 166.763 297.361 166.613C297.237 166.462 297.043 166.387 296.779 166.387C296.403 166.387 296.026 166.524 295.649 166.798V169.85H295.036V165.943H295.496L295.601 166.338ZM300.811 169.93C300.176 169.93 299.724 169.766 299.455 169.438C299.191 169.104 299.06 168.59 299.06 167.896C299.06 167.197 299.194 166.683 299.463 166.354C299.732 166.026 300.144 165.862 300.698 165.862C301.253 165.862 301.664 166.023 301.933 166.346C302.202 166.664 302.337 167.17 302.337 167.864V168.122H299.689C299.711 168.585 299.81 168.916 299.988 169.115C300.166 169.314 300.443 169.414 300.819 169.414C301.045 169.414 301.266 169.381 301.481 169.317C301.702 169.247 301.906 169.153 302.095 169.034L302.297 169.527C302.092 169.65 301.861 169.75 301.602 169.825C301.349 169.895 301.086 169.93 300.811 169.93ZM301.707 167.622C301.68 167.202 301.586 166.892 301.425 166.693C301.263 166.489 301.021 166.387 300.698 166.387C300.375 166.387 300.133 166.489 299.972 166.693C299.81 166.892 299.716 167.202 299.689 167.622H301.707ZM254.076 175.958V178.032H255.344C255.747 178.032 256.04 177.944 256.223 177.766C256.406 177.588 256.498 177.33 256.498 176.991C256.498 176.636 256.406 176.375 256.223 176.208C256.046 176.041 255.761 175.958 255.368 175.958H254.076ZM253.455 180.85V175.425H255.327C255.957 175.425 256.414 175.557 256.7 175.821C256.99 176.079 257.136 176.469 257.136 176.991C257.136 177.755 256.786 178.242 256.086 178.452L257.281 180.85H256.611L255.473 178.557H254.076V180.85H253.455ZM259.654 180.93C259.019 180.93 258.567 180.766 258.298 180.438C258.034 180.104 257.902 179.59 257.902 178.896C257.902 178.197 258.037 177.683 258.306 177.354C258.575 177.026 258.986 176.862 259.541 176.862C260.095 176.862 260.507 177.023 260.776 177.346C261.045 177.664 261.179 178.17 261.179 178.864V179.122H258.532C258.553 179.585 258.653 179.916 258.83 180.115C259.008 180.314 259.285 180.414 259.662 180.414C259.888 180.414 260.108 180.381 260.324 180.317C260.544 180.247 260.749 180.153 260.937 180.034L261.139 180.527C260.934 180.65 260.703 180.75 260.445 180.825C260.192 180.895 259.928 180.93 259.654 180.93ZM260.55 178.622C260.523 178.202 260.429 177.892 260.267 177.693C260.106 177.489 259.864 177.387 259.541 177.387C259.218 177.387 258.976 177.489 258.814 177.693C258.653 177.892 258.559 178.202 258.532 178.622H260.55ZM265.215 176.943V180.898C265.215 181.495 265.07 181.929 264.78 182.198C264.494 182.472 264.067 182.609 263.496 182.609C263.27 182.609 263.055 182.591 262.85 182.553C262.646 182.521 262.465 182.475 262.309 182.416L262.439 181.907C262.745 182.025 263.095 182.085 263.488 182.085C263.875 182.085 264.155 181.996 264.328 181.818C264.505 181.641 264.594 181.35 264.594 180.946V180.543C264.459 180.667 264.295 180.764 264.101 180.833C263.913 180.898 263.706 180.93 263.48 180.93C262.974 180.93 262.589 180.766 262.326 180.438C262.067 180.11 261.938 179.596 261.938 178.896C261.938 178.202 262.073 177.691 262.342 177.362C262.611 177.029 263.012 176.862 263.544 176.862C263.771 176.862 263.978 176.9 264.166 176.975C264.354 177.05 264.519 177.153 264.658 177.282L264.755 176.943H265.215ZM263.641 177.379C263.27 177.379 262.996 177.497 262.818 177.734C262.646 177.97 262.56 178.358 262.56 178.896C262.56 179.44 262.646 179.83 262.818 180.067C262.996 180.303 263.27 180.422 263.641 180.422C263.83 180.422 264.005 180.384 264.166 180.309C264.333 180.233 264.475 180.131 264.594 180.002V177.798C264.475 177.669 264.333 177.567 264.166 177.492C264.005 177.416 263.83 177.379 263.641 177.379ZM268.876 180.462C268.693 180.607 268.491 180.723 268.271 180.809C268.05 180.89 267.818 180.93 267.576 180.93C267.124 180.93 266.799 180.823 266.6 180.607C266.4 180.392 266.301 180.04 266.301 179.55V176.943H266.922V179.38C266.922 179.768 266.984 180.037 267.108 180.188C267.237 180.338 267.434 180.414 267.697 180.414C268.074 180.414 268.448 180.276 268.819 180.002V176.943H269.441V180.85H268.973L268.876 180.462ZM271.656 180.906C271.629 180.917 271.592 180.922 271.543 180.922C271.495 180.928 271.455 180.93 271.422 180.93C271.148 180.93 270.949 180.85 270.825 180.688C270.706 180.521 270.647 180.268 270.647 179.929V175.247L271.261 175.151V179.841C271.261 179.964 271.266 180.064 271.277 180.139C271.288 180.215 271.307 180.274 271.333 180.317C271.366 180.36 271.406 180.389 271.455 180.406C271.508 180.416 271.576 180.422 271.656 180.422V180.906ZM275.473 180.85H275.013L274.916 180.486C274.755 180.626 274.564 180.737 274.343 180.817C274.128 180.893 273.891 180.93 273.633 180.93C273.229 180.93 272.925 180.828 272.721 180.624C272.522 180.414 272.422 180.115 272.422 179.728C272.422 179.329 272.546 179.036 272.793 178.848C273.041 178.654 273.455 178.557 274.037 178.557C274.209 178.557 274.359 178.56 274.489 178.565C274.623 178.571 274.747 178.581 274.86 178.597V178.379C274.86 178.019 274.79 177.763 274.65 177.613C274.51 177.457 274.263 177.379 273.907 177.379C273.741 177.379 273.558 177.408 273.358 177.467C273.165 177.521 272.968 177.602 272.769 177.709L272.584 177.241C272.799 177.123 273.027 177.031 273.27 176.967C273.512 176.897 273.762 176.862 274.02 176.862C274.295 176.862 274.524 176.889 274.707 176.943C274.895 176.996 275.046 177.085 275.159 177.209C275.272 177.327 275.352 177.481 275.401 177.669C275.449 177.857 275.473 178.089 275.473 178.363V180.85ZM273.802 180.422C273.98 180.422 274.163 180.384 274.351 180.309C274.545 180.228 274.715 180.123 274.86 179.994V179.098C274.72 179.082 274.58 179.071 274.44 179.066C274.3 179.055 274.144 179.049 273.972 179.049C273.633 179.049 273.391 179.101 273.245 179.203C273.106 179.305 273.036 179.477 273.036 179.719C273.036 179.951 273.095 180.126 273.213 180.244C273.332 180.363 273.528 180.422 273.802 180.422ZM277.018 176.943L277.091 177.459C277.268 177.266 277.467 177.118 277.688 177.015C277.909 176.913 278.132 176.862 278.358 176.862C278.45 176.862 278.528 176.87 278.592 176.886C278.662 176.897 278.735 176.916 278.81 176.943V177.492C278.649 177.427 278.479 177.395 278.302 177.395C278.097 177.395 277.893 177.451 277.688 177.564C277.484 177.677 277.309 177.82 277.163 177.992V180.85H276.55V176.943H277.018ZM255.44 189.606V190.937H254.875V189.606H253.495V189.073H254.875V187.749H255.44V189.073H256.837V189.606H255.44ZM259.395 191.85V187.071L258.031 187.991L257.724 187.531L259.395 186.425H260.025V191.85H259.395ZM262.444 192.092H261.862L265.794 186.151H266.367L262.444 192.092ZM261.394 187.781C261.394 187.291 261.488 186.928 261.677 186.691C261.865 186.449 262.137 186.328 262.492 186.328C262.847 186.328 263.119 186.449 263.307 186.691C263.496 186.928 263.59 187.291 263.59 187.781C263.59 188.271 263.496 188.637 263.307 188.879C263.119 189.121 262.847 189.242 262.492 189.242C262.137 189.242 261.865 189.121 261.677 188.879C261.488 188.637 261.394 188.271 261.394 187.781ZM261.951 187.781C261.951 188.438 262.131 188.766 262.492 188.766C262.853 188.766 263.033 188.438 263.033 187.781C263.033 187.125 262.853 186.796 262.492 186.796C262.131 186.796 261.951 187.125 261.951 187.781ZM264.663 190.453C264.663 189.963 264.758 189.6 264.946 189.363C265.134 189.121 265.406 189 265.761 189C266.116 189 266.388 189.121 266.577 189.363C266.765 189.6 266.859 189.963 266.859 190.453C266.859 190.943 266.765 191.309 266.577 191.551C266.388 191.788 266.116 191.906 265.761 191.906C265.406 191.906 265.134 191.788 264.946 191.551C264.758 191.309 264.663 190.943 264.663 190.453ZM265.22 190.453C265.22 191.11 265.401 191.438 265.761 191.438C266.122 191.438 266.302 191.11 266.302 190.453C266.302 189.797 266.122 189.468 265.761 189.468C265.401 189.468 265.22 189.797 265.22 190.453ZM270.926 188.467V190.397C270.926 190.574 270.934 190.728 270.95 190.857C270.966 190.986 270.999 191.094 271.047 191.18C271.101 191.26 271.174 191.32 271.265 191.357C271.362 191.395 271.491 191.414 271.652 191.414C271.771 191.414 271.887 191.4 272 191.373C272.118 191.346 272.231 191.314 272.339 191.276L272.46 191.745C272.137 191.868 271.811 191.93 271.483 191.93C271.246 191.93 271.05 191.898 270.894 191.833C270.743 191.769 270.622 191.68 270.53 191.567C270.444 191.449 270.385 191.309 270.353 191.147C270.321 190.98 270.304 190.798 270.304 190.598V188.467H269.667V187.943H270.304V187.119L270.926 187.006V187.943H272.306V188.467H270.926ZM273.668 187.943L273.74 188.459C273.918 188.266 274.117 188.118 274.338 188.015C274.558 187.913 274.782 187.862 275.008 187.862C275.099 187.862 275.177 187.87 275.242 187.886C275.312 187.897 275.384 187.916 275.46 187.943V188.492C275.298 188.427 275.129 188.395 274.951 188.395C274.747 188.395 274.542 188.451 274.338 188.564C274.133 188.677 273.958 188.82 273.813 188.992V191.85H273.2V187.943H273.668ZM278.847 191.85H278.387L278.29 191.486C278.129 191.626 277.938 191.737 277.717 191.817C277.502 191.893 277.265 191.93 277.007 191.93C276.603 191.93 276.299 191.828 276.095 191.624C275.896 191.414 275.796 191.115 275.796 190.728C275.796 190.329 275.92 190.036 276.167 189.848C276.415 189.654 276.829 189.557 277.41 189.557C277.583 189.557 277.733 189.56 277.863 189.565C277.997 189.571 278.121 189.581 278.234 189.597V189.379C278.234 189.019 278.164 188.763 278.024 188.613C277.884 188.457 277.637 188.379 277.281 188.379C277.114 188.379 276.932 188.408 276.732 188.467C276.539 188.521 276.342 188.602 276.143 188.709L275.957 188.241C276.173 188.123 276.401 188.031 276.644 187.967C276.886 187.897 277.136 187.862 277.394 187.862C277.669 187.862 277.898 187.889 278.08 187.943C278.269 187.996 278.42 188.085 278.533 188.209C278.646 188.327 278.726 188.481 278.775 188.669C278.823 188.857 278.847 189.089 278.847 189.363V191.85ZM277.176 191.422C277.354 191.422 277.537 191.384 277.725 191.309C277.919 191.228 278.089 191.123 278.234 190.994V190.098C278.094 190.082 277.954 190.071 277.814 190.066C277.674 190.055 277.518 190.049 277.346 190.049C277.007 190.049 276.765 190.101 276.619 190.203C276.479 190.305 276.41 190.477 276.41 190.719C276.41 190.951 276.469 191.126 276.587 191.244C276.705 191.363 276.902 191.422 277.176 191.422ZM281.595 191.414C281.971 191.414 282.308 191.32 282.604 191.131L282.781 191.624C282.625 191.715 282.445 191.79 282.241 191.85C282.041 191.903 281.826 191.93 281.595 191.93C280.954 191.93 280.486 191.772 280.19 191.454C279.894 191.131 279.746 190.612 279.746 189.896C279.746 189.197 279.889 188.683 280.174 188.354C280.459 188.026 280.906 187.862 281.514 187.862C282.036 187.862 282.464 188.021 282.798 188.338L282.458 188.758C282.34 188.64 282.2 188.548 282.039 188.483C281.883 188.414 281.713 188.379 281.53 188.379C281.143 188.379 280.849 188.497 280.65 188.734C280.457 188.965 280.36 189.353 280.36 189.896C280.36 190.44 280.462 190.83 280.666 191.067C280.871 191.298 281.18 191.414 281.595 191.414ZM283.613 191.85V186.231L284.235 186.151V189.468H284.614L286.075 187.943H286.826L285.106 189.735L286.874 191.85H286.124L284.606 189.993H284.235V191.85H283.613ZM287.62 187.943H288.233V191.85H287.62V187.943ZM287.612 186.264H288.233V187.071H287.612V186.264ZM290.004 188.338C290.187 188.193 290.389 188.077 290.609 187.991C290.83 187.905 291.061 187.862 291.303 187.862C291.755 187.862 292.078 187.972 292.272 188.193C292.471 188.408 292.571 188.761 292.571 189.25V191.85H291.957V189.42C291.957 189.032 291.893 188.763 291.764 188.613C291.64 188.462 291.446 188.387 291.182 188.387C290.806 188.387 290.429 188.524 290.052 188.798V191.85H289.439V187.943H289.899L290.004 188.338ZM296.74 187.943V191.898C296.74 192.495 296.595 192.929 296.304 193.198C296.019 193.472 295.591 193.609 295.021 193.609C294.795 193.609 294.579 193.591 294.375 193.553C294.17 193.521 293.99 193.475 293.834 193.416L293.963 192.907C294.27 193.025 294.62 193.085 295.012 193.085C295.4 193.085 295.68 192.996 295.852 192.818C296.03 192.641 296.118 192.35 296.118 191.946V191.543C295.984 191.667 295.82 191.764 295.626 191.833C295.438 191.898 295.23 191.93 295.004 191.93C294.499 191.93 294.114 191.766 293.85 191.438C293.592 191.11 293.463 190.596 293.463 189.896C293.463 189.202 293.597 188.691 293.866 188.362C294.135 188.029 294.536 187.862 295.069 187.862C295.295 187.862 295.502 187.9 295.691 187.975C295.879 188.05 296.043 188.153 296.183 188.282L296.28 187.943H296.74ZM295.166 188.379C294.795 188.379 294.52 188.497 294.342 188.734C294.17 188.97 294.084 189.358 294.084 189.896C294.084 190.44 294.17 190.83 294.342 191.067C294.52 191.303 294.795 191.422 295.166 191.422C295.354 191.422 295.529 191.384 295.691 191.309C295.857 191.233 296 191.131 296.118 191.002V188.798C296 188.669 295.857 188.567 295.691 188.492C295.529 188.416 295.354 188.379 295.166 188.379Z" fill="#F7F3EB"/>
<path d="M256.667 250.048V250.572H253.455V245.148H254.076V250.048H256.667ZM259.459 250.128C259.675 250.128 259.882 250.115 260.081 250.088C260.285 250.056 260.479 250.01 260.662 249.951V248.32H259.274V247.795H261.276V250.306C261.033 250.397 260.748 250.478 260.42 250.548C260.092 250.618 259.766 250.653 259.443 250.653C258.997 250.653 258.614 250.594 258.297 250.475C257.985 250.352 257.729 250.174 257.53 249.943C257.331 249.706 257.186 249.415 257.094 249.071C257.008 248.721 256.965 248.317 256.965 247.86C256.965 246.902 257.161 246.197 257.554 245.745C257.953 245.293 258.539 245.067 259.314 245.067C259.75 245.067 260.127 245.134 260.444 245.269C260.762 245.398 261.025 245.576 261.235 245.802L260.864 246.221C260.665 246.011 260.441 245.855 260.194 245.753C259.946 245.651 259.653 245.6 259.314 245.6C258.738 245.6 258.305 245.783 258.014 246.149C257.729 246.509 257.587 247.08 257.587 247.86C257.587 248.635 257.732 249.208 258.022 249.579C258.313 249.945 258.792 250.128 259.459 250.128ZM268.156 250.048V250.572H264.822V245.148H268.075V245.68H265.444V247.481H267.978V248.005H265.444V250.048H268.156ZM269.372 245.148H269.994V250.572H269.372V245.148ZM277.792 245.148V250.572H277.163V247.997H274.273V250.572H273.651V245.148H274.273V247.464H277.163V245.148H277.792ZM280.568 250.653C279.932 250.653 279.48 250.489 279.211 250.161C278.948 249.827 278.816 249.313 278.816 248.619C278.816 247.919 278.95 247.405 279.219 247.077C279.489 246.749 279.9 246.585 280.454 246.585C281.009 246.585 281.42 246.746 281.69 247.069C281.959 247.386 282.093 247.892 282.093 248.586V248.845H279.445C279.467 249.308 279.567 249.639 279.744 249.838C279.922 250.037 280.199 250.136 280.576 250.136C280.802 250.136 281.022 250.104 281.238 250.039C281.458 249.97 281.663 249.875 281.851 249.757L282.053 250.249C281.848 250.373 281.617 250.473 281.359 250.548C281.106 250.618 280.842 250.653 280.568 250.653ZM281.464 248.344C281.437 247.925 281.342 247.615 281.181 247.416C281.02 247.212 280.777 247.109 280.454 247.109C280.132 247.109 279.889 247.212 279.728 247.416C279.567 247.615 279.472 247.925 279.445 248.344H281.464ZM285.879 250.572H285.419L285.322 250.209C285.161 250.349 284.97 250.459 284.749 250.54C284.534 250.615 284.297 250.653 284.039 250.653C283.635 250.653 283.331 250.551 283.126 250.346C282.927 250.136 282.828 249.838 282.828 249.45C282.828 249.052 282.952 248.759 283.199 248.57C283.447 248.377 283.861 248.28 284.442 248.28C284.614 248.28 284.765 248.282 284.894 248.288C285.029 248.293 285.153 248.304 285.266 248.32V248.102C285.266 247.742 285.196 247.486 285.056 247.335C284.916 247.179 284.668 247.101 284.313 247.101C284.146 247.101 283.963 247.131 283.764 247.19C283.57 247.244 283.374 247.325 283.175 247.432L282.989 246.964C283.204 246.846 283.433 246.754 283.675 246.689C283.918 246.62 284.168 246.585 284.426 246.585C284.701 246.585 284.929 246.611 285.112 246.665C285.301 246.719 285.451 246.808 285.564 246.932C285.677 247.05 285.758 247.203 285.806 247.392C285.855 247.58 285.879 247.812 285.879 248.086V250.572ZM284.208 250.144C284.386 250.144 284.569 250.107 284.757 250.031C284.951 249.951 285.12 249.846 285.266 249.717V248.821C285.126 248.804 284.986 248.794 284.846 248.788C284.706 248.778 284.55 248.772 284.378 248.772C284.039 248.772 283.796 248.823 283.651 248.926C283.511 249.028 283.441 249.2 283.441 249.442C283.441 249.674 283.5 249.848 283.619 249.967C283.737 250.085 283.934 250.144 284.208 250.144ZM290.047 244.873V250.572H289.587L289.49 250.241C289.35 250.37 289.186 250.473 288.998 250.548C288.809 250.618 288.602 250.653 288.376 250.653C287.843 250.653 287.443 250.489 287.173 250.161C286.904 249.832 286.77 249.318 286.77 248.619C286.77 247.925 286.899 247.413 287.157 247.085C287.421 246.751 287.806 246.585 288.312 246.585C288.538 246.585 288.745 246.62 288.933 246.689C289.127 246.759 289.291 246.856 289.426 246.98V244.954L290.047 244.873ZM288.473 250.144C288.661 250.144 288.836 250.107 288.998 250.031C289.165 249.956 289.307 249.854 289.426 249.725V247.521C289.307 247.392 289.165 247.29 288.998 247.214C288.836 247.139 288.661 247.101 288.473 247.101C288.102 247.101 287.827 247.22 287.65 247.456C287.478 247.693 287.391 248.081 287.391 248.619C287.391 249.162 287.478 249.552 287.65 249.789C287.827 250.026 288.102 250.144 288.473 250.144ZM292.263 250.629C292.236 250.64 292.198 250.645 292.15 250.645C292.101 250.65 292.061 250.653 292.029 250.653C291.754 250.653 291.555 250.572 291.431 250.411C291.313 250.244 291.254 249.991 291.254 249.652V244.97L291.867 244.873V249.563C291.867 249.687 291.873 249.787 291.883 249.862C291.894 249.937 291.913 249.996 291.94 250.039C291.972 250.083 292.012 250.112 292.061 250.128C292.115 250.139 292.182 250.144 292.263 250.144V250.629ZM293.217 246.665H293.83V250.572H293.217V246.665ZM293.209 244.986H293.83V245.793H293.209V244.986ZM295.601 247.061C295.784 246.916 295.986 246.8 296.206 246.714C296.427 246.628 296.658 246.585 296.9 246.585C297.352 246.585 297.675 246.695 297.869 246.916C298.068 247.131 298.168 247.483 298.168 247.973V250.572H297.554V248.143C297.554 247.755 297.49 247.486 297.361 247.335C297.237 247.185 297.043 247.109 296.779 247.109C296.403 247.109 296.026 247.246 295.649 247.521V250.572H295.036V246.665H295.496L295.601 247.061ZM300.811 250.653C300.176 250.653 299.724 250.489 299.455 250.161C299.191 249.827 299.06 249.313 299.06 248.619C299.06 247.919 299.194 247.405 299.463 247.077C299.732 246.749 300.144 246.585 300.698 246.585C301.253 246.585 301.664 246.746 301.933 247.069C302.202 247.386 302.337 247.892 302.337 248.586V248.845H299.689C299.711 249.308 299.81 249.639 299.988 249.838C300.166 250.037 300.443 250.136 300.819 250.136C301.045 250.136 301.266 250.104 301.481 250.039C301.702 249.97 301.906 249.875 302.095 249.757L302.297 250.249C302.092 250.373 301.861 250.473 301.602 250.548C301.349 250.618 301.086 250.653 300.811 250.653ZM301.707 248.344C301.68 247.925 301.586 247.615 301.425 247.416C301.263 247.212 301.021 247.109 300.698 247.109C300.375 247.109 300.133 247.212 299.972 247.416C299.81 247.615 299.716 247.925 299.689 248.344H301.707ZM254.076 256.68V258.755H255.344C255.747 258.755 256.04 258.666 256.223 258.489C256.406 258.311 256.498 258.053 256.498 257.714C256.498 257.359 256.406 257.098 256.223 256.931C256.046 256.764 255.761 256.68 255.368 256.68H254.076ZM253.455 261.572V256.148H255.327C255.957 256.148 256.414 256.28 256.7 256.543C256.99 256.802 257.136 257.192 257.136 257.714C257.136 258.478 256.786 258.965 256.086 259.175L257.281 261.572H256.611L255.473 259.28H254.076V261.572H253.455ZM259.654 261.653C259.019 261.653 258.567 261.489 258.298 261.161C258.034 260.827 257.902 260.313 257.902 259.619C257.902 258.919 258.037 258.405 258.306 258.077C258.575 257.749 258.986 257.585 259.541 257.585C260.095 257.585 260.507 257.746 260.776 258.069C261.045 258.386 261.179 258.892 261.179 259.586V259.845H258.532C258.553 260.308 258.653 260.639 258.83 260.838C259.008 261.037 259.285 261.136 259.662 261.136C259.888 261.136 260.108 261.104 260.324 261.039C260.544 260.97 260.749 260.875 260.937 260.757L261.139 261.249C260.934 261.373 260.703 261.473 260.445 261.548C260.192 261.618 259.928 261.653 259.654 261.653ZM260.55 259.344C260.523 258.925 260.429 258.615 260.267 258.416C260.106 258.212 259.864 258.109 259.541 258.109C259.218 258.109 258.976 258.212 258.814 258.416C258.653 258.615 258.559 258.925 258.532 259.344H260.55ZM265.215 257.665V261.621C265.215 262.218 265.07 262.651 264.78 262.92C264.494 263.195 264.067 263.332 263.496 263.332C263.27 263.332 263.055 263.313 262.85 263.276C262.646 263.243 262.465 263.197 262.309 263.138L262.439 262.63C262.745 262.748 263.095 262.807 263.488 262.807C263.875 262.807 264.155 262.719 264.328 262.541C264.505 262.363 264.594 262.073 264.594 261.669V261.266C264.459 261.389 264.295 261.486 264.101 261.556C263.913 261.621 263.706 261.653 263.48 261.653C262.974 261.653 262.589 261.489 262.326 261.161C262.067 260.832 261.938 260.318 261.938 259.619C261.938 258.925 262.073 258.413 262.342 258.085C262.611 257.751 263.012 257.585 263.544 257.585C263.771 257.585 263.978 257.622 264.166 257.698C264.354 257.773 264.519 257.875 264.658 258.004L264.755 257.665H265.215ZM263.641 258.101C263.27 258.101 262.996 258.22 262.818 258.456C262.646 258.693 262.56 259.081 262.56 259.619C262.56 260.162 262.646 260.552 262.818 260.789C262.996 261.026 263.27 261.144 263.641 261.144C263.83 261.144 264.005 261.107 264.166 261.031C264.333 260.956 264.475 260.854 264.594 260.725V258.521C264.475 258.392 264.333 258.29 264.166 258.214C264.005 258.139 263.83 258.101 263.641 258.101ZM268.876 261.185C268.693 261.33 268.491 261.446 268.271 261.532C268.05 261.613 267.818 261.653 267.576 261.653C267.124 261.653 266.799 261.545 266.6 261.33C266.4 261.115 266.301 260.762 266.301 260.273V257.665H266.922V260.103C266.922 260.491 266.984 260.76 267.108 260.91C267.237 261.061 267.434 261.136 267.697 261.136C268.074 261.136 268.448 260.999 268.819 260.725V257.665H269.441V261.572H268.973L268.876 261.185ZM271.656 261.629C271.629 261.64 271.592 261.645 271.543 261.645C271.495 261.65 271.455 261.653 271.422 261.653C271.148 261.653 270.949 261.572 270.825 261.411C270.706 261.244 270.647 260.991 270.647 260.652V255.97L271.261 255.873V260.563C271.261 260.687 271.266 260.787 271.277 260.862C271.288 260.937 271.307 260.996 271.333 261.039C271.366 261.083 271.406 261.112 271.455 261.128C271.508 261.139 271.576 261.144 271.656 261.144V261.629ZM275.473 261.572H275.013L274.916 261.209C274.755 261.349 274.564 261.459 274.343 261.54C274.128 261.615 273.891 261.653 273.633 261.653C273.229 261.653 272.925 261.551 272.721 261.346C272.522 261.136 272.422 260.838 272.422 260.45C272.422 260.052 272.546 259.759 272.793 259.57C273.041 259.377 273.455 259.28 274.037 259.28C274.209 259.28 274.359 259.282 274.489 259.288C274.623 259.293 274.747 259.304 274.86 259.32V259.102C274.86 258.742 274.79 258.486 274.65 258.335C274.51 258.179 274.263 258.101 273.907 258.101C273.741 258.101 273.558 258.131 273.358 258.19C273.165 258.244 272.968 258.325 272.769 258.432L272.584 257.964C272.799 257.846 273.027 257.754 273.27 257.689C273.512 257.62 273.762 257.585 274.02 257.585C274.295 257.585 274.524 257.611 274.707 257.665C274.895 257.719 275.046 257.808 275.159 257.932C275.272 258.05 275.352 258.203 275.401 258.392C275.449 258.58 275.473 258.812 275.473 259.086V261.572ZM273.802 261.144C273.98 261.144 274.163 261.107 274.351 261.031C274.545 260.951 274.715 260.846 274.86 260.717V259.821C274.72 259.804 274.58 259.794 274.44 259.788C274.3 259.778 274.144 259.772 273.972 259.772C273.633 259.772 273.391 259.823 273.245 259.926C273.106 260.028 273.036 260.2 273.036 260.442C273.036 260.674 273.095 260.848 273.213 260.967C273.332 261.085 273.528 261.144 273.802 261.144ZM277.018 257.665L277.091 258.182C277.268 257.988 277.467 257.84 277.688 257.738C277.909 257.636 278.132 257.585 278.358 257.585C278.45 257.585 278.528 257.593 278.592 257.609C278.662 257.62 278.735 257.638 278.81 257.665V258.214C278.649 258.15 278.479 258.117 278.302 258.117C278.097 258.117 277.893 258.174 277.688 258.287C277.484 258.4 277.309 258.542 277.163 258.715V261.572H276.55V257.665H277.018ZM278.242 262.622C278.371 262.374 278.471 262.129 278.54 261.887C278.61 261.645 278.645 261.37 278.645 261.064H279.251C279.251 261.257 279.237 261.435 279.21 261.596C279.184 261.763 279.146 261.917 279.097 262.057C279.049 262.202 278.99 262.339 278.92 262.468C278.85 262.603 278.769 262.737 278.678 262.872L278.242 262.622ZM285.487 260.265C285.487 260.135 285.468 260.02 285.43 259.917C285.393 259.815 285.325 259.721 285.228 259.635C285.132 259.549 284.997 259.465 284.825 259.385C284.658 259.304 284.445 259.218 284.187 259.126C283.87 259.013 283.603 258.903 283.388 258.795C283.173 258.682 283.001 258.561 282.871 258.432C282.742 258.303 282.648 258.16 282.589 258.004C282.535 257.848 282.508 257.668 282.508 257.463C282.508 257.038 282.664 256.699 282.976 256.446C283.288 256.193 283.746 256.067 284.349 256.067C284.645 256.067 284.916 256.105 285.164 256.18C285.411 256.25 285.648 256.349 285.874 256.479L285.632 256.979C285.433 256.855 285.226 256.761 285.011 256.697C284.795 256.627 284.575 256.592 284.349 256.592C283.929 256.592 283.619 256.667 283.42 256.818C283.227 256.963 283.13 257.165 283.13 257.423C283.13 257.558 283.151 257.676 283.194 257.778C283.237 257.881 283.307 257.975 283.404 258.061C283.506 258.147 283.641 258.233 283.808 258.319C283.975 258.4 284.184 258.489 284.437 258.586C284.75 258.704 285.011 258.814 285.22 258.916C285.436 259.019 285.608 259.132 285.737 259.256C285.872 259.374 285.966 259.511 286.02 259.667C286.079 259.818 286.108 260.001 286.108 260.216C286.108 260.657 285.947 261.007 285.624 261.266C285.307 261.524 284.814 261.653 284.147 261.653C283.808 261.653 283.485 261.613 283.178 261.532C282.871 261.451 282.61 261.346 282.395 261.217L282.621 260.733C282.853 260.857 283.092 260.956 283.34 261.031C283.587 261.101 283.848 261.136 284.123 261.136C284.58 261.136 284.922 261.061 285.148 260.91C285.374 260.754 285.487 260.539 285.487 260.265ZM288.608 261.653C287.973 261.653 287.521 261.489 287.252 261.161C286.988 260.827 286.857 260.313 286.857 259.619C286.857 258.919 286.991 258.405 287.26 258.077C287.529 257.749 287.941 257.585 288.495 257.585C289.05 257.585 289.461 257.746 289.73 258.069C289.999 258.386 290.134 258.892 290.134 259.586V259.845H287.486C287.508 260.308 287.607 260.639 287.785 260.838C287.962 261.037 288.24 261.136 288.616 261.136C288.842 261.136 289.063 261.104 289.278 261.039C289.499 260.97 289.703 260.875 289.892 260.757L290.094 261.249C289.889 261.373 289.658 261.473 289.399 261.548C289.146 261.618 288.883 261.653 288.608 261.653ZM289.504 259.344C289.477 258.925 289.383 258.615 289.222 258.416C289.06 258.212 288.818 258.109 288.495 258.109C288.172 258.109 287.93 258.212 287.769 258.416C287.607 258.615 287.513 258.925 287.486 259.344H289.504ZM291.635 258.029C291.824 257.889 292.017 257.781 292.217 257.706C292.416 257.625 292.628 257.585 292.854 257.585C293.129 257.585 293.347 257.625 293.508 257.706C293.675 257.786 293.799 257.921 293.879 258.109C294.068 257.953 294.272 257.827 294.493 257.73C294.719 257.633 294.953 257.585 295.195 257.585C295.421 257.585 295.61 257.611 295.76 257.665C295.911 257.714 296.032 257.794 296.124 257.907C296.22 258.02 296.288 258.166 296.325 258.343C296.363 258.516 296.382 258.725 296.382 258.973V261.572H295.768V259.143C295.768 258.755 295.715 258.486 295.607 258.335C295.505 258.185 295.33 258.109 295.082 258.109C294.727 258.109 294.369 258.255 294.009 258.545C294.025 258.669 294.033 258.812 294.033 258.973V261.572H293.419V259.143C293.419 258.76 293.371 258.494 293.274 258.343C293.177 258.187 292.997 258.109 292.733 258.109C292.556 258.109 292.383 258.144 292.217 258.214C292.05 258.279 291.875 258.381 291.692 258.521V261.572H291.078V257.665H291.539L291.635 258.029ZM297.545 257.665H298.158V261.572H297.545V257.665ZM297.537 255.986H298.158V256.793H297.537V255.986ZM300.938 261.144C301.309 261.144 301.583 261.026 301.761 260.789C301.939 260.552 302.027 260.162 302.027 259.619C302.027 259.081 301.939 258.693 301.761 258.456C301.583 258.22 301.309 258.101 300.938 258.101C300.749 258.101 300.572 258.139 300.405 258.214C300.243 258.29 300.103 258.392 299.985 258.521V260.725C300.103 260.854 300.243 260.956 300.405 261.031C300.572 261.107 300.749 261.144 300.938 261.144ZM299.824 261.572H299.364V255.946L299.985 255.873V257.98C300.12 257.856 300.281 257.759 300.469 257.689C300.663 257.62 300.873 257.585 301.099 257.585C301.605 257.585 301.987 257.751 302.245 258.085C302.509 258.413 302.641 258.925 302.641 259.619C302.641 260.318 302.506 260.832 302.237 261.161C301.968 261.489 301.567 261.653 301.034 261.653C300.808 261.653 300.601 261.618 300.413 261.548C300.23 261.473 300.068 261.37 299.929 261.241L299.824 261.572ZM303.395 259.619C303.395 258.919 303.535 258.405 303.815 258.077C304.1 257.749 304.552 257.585 305.171 257.585C305.785 257.585 306.231 257.749 306.511 258.077C306.796 258.405 306.939 258.919 306.939 259.619C306.939 260.318 306.796 260.832 306.511 261.161C306.226 261.489 305.779 261.653 305.171 261.653C304.558 261.653 304.108 261.489 303.823 261.161C303.538 260.832 303.395 260.318 303.395 259.619ZM304.017 259.619C304.017 260.152 304.108 260.539 304.291 260.781C304.474 261.018 304.768 261.136 305.171 261.136C305.575 261.136 305.868 261.018 306.051 260.781C306.234 260.539 306.326 260.152 306.326 259.619C306.326 259.097 306.234 258.715 306.051 258.473C305.868 258.23 305.575 258.109 305.171 258.109C304.768 258.109 304.474 258.23 304.291 258.473C304.108 258.715 304.017 259.097 304.017 259.619ZM308.967 261.629C308.94 261.64 308.902 261.645 308.854 261.645C308.806 261.65 308.765 261.653 308.733 261.653C308.458 261.653 308.259 261.572 308.136 261.411C308.017 261.244 307.958 260.991 307.958 260.652V255.97L308.571 255.873V260.563C308.571 260.687 308.577 260.787 308.588 260.862C308.598 260.937 308.617 260.996 308.644 261.039C308.676 261.083 308.717 261.112 308.765 261.128C308.819 261.139 308.886 261.144 308.967 261.144V261.629ZM312.924 255.873V261.572H312.464L312.367 261.241C312.227 261.37 312.063 261.473 311.875 261.548C311.686 261.618 311.479 261.653 311.253 261.653C310.72 261.653 310.319 261.489 310.05 261.161C309.781 260.832 309.647 260.318 309.647 259.619C309.647 258.925 309.776 258.413 310.034 258.085C310.298 257.751 310.683 257.585 311.188 257.585C311.414 257.585 311.622 257.62 311.81 257.689C312.004 257.759 312.168 257.856 312.302 257.98V255.954L312.924 255.873ZM311.35 261.144C311.538 261.144 311.713 261.107 311.875 261.031C312.041 260.956 312.184 260.854 312.302 260.725V258.521C312.184 258.392 312.041 258.29 311.875 258.214C311.713 258.139 311.538 258.101 311.35 258.101C310.979 258.101 310.704 258.22 310.526 258.456C310.354 258.693 310.268 259.081 310.268 259.619C310.268 260.162 310.354 260.552 310.526 260.789C310.704 261.026 310.979 261.144 311.35 261.144ZM255.44 270.328V271.66H254.875V270.328H253.495V269.795H254.875V268.472H255.44V269.795H256.837V270.328H255.44ZM259.395 272.572V267.793L258.031 268.714L257.724 268.254L259.395 267.148H260.025V272.572H259.395ZM262.444 272.814H261.862L265.794 266.873H266.367L262.444 272.814ZM261.394 268.504C261.394 268.014 261.488 267.651 261.677 267.414C261.865 267.172 262.137 267.051 262.492 267.051C262.847 267.051 263.119 267.172 263.307 267.414C263.496 267.651 263.59 268.014 263.59 268.504C263.59 268.994 263.496 269.359 263.307 269.602C263.119 269.844 262.847 269.965 262.492 269.965C262.137 269.965 261.865 269.844 261.677 269.602C261.488 269.359 261.394 268.994 261.394 268.504ZM261.951 268.504C261.951 269.16 262.131 269.489 262.492 269.489C262.853 269.489 263.033 269.16 263.033 268.504C263.033 267.847 262.853 267.519 262.492 267.519C262.131 267.519 261.951 267.847 261.951 268.504ZM264.663 271.176C264.663 270.686 264.758 270.323 264.946 270.086C265.134 269.844 265.406 269.723 265.761 269.723C266.116 269.723 266.388 269.844 266.577 270.086C266.765 270.323 266.859 270.686 266.859 271.176C266.859 271.665 266.765 272.031 266.577 272.274C266.388 272.51 266.116 272.629 265.761 272.629C265.406 272.629 265.134 272.51 264.946 272.274C264.758 272.031 264.663 271.665 264.663 271.176ZM265.22 271.176C265.22 271.832 265.401 272.161 265.761 272.161C266.122 272.161 266.302 271.832 266.302 271.176C266.302 270.519 266.122 270.191 265.761 270.191C265.401 270.191 265.22 270.519 265.22 271.176ZM270.926 269.19V271.119C270.926 271.297 270.934 271.45 270.95 271.579C270.966 271.709 270.999 271.816 271.047 271.902C271.101 271.983 271.174 272.042 271.265 272.08C271.362 272.118 271.491 272.136 271.652 272.136C271.771 272.136 271.887 272.123 272 272.096C272.118 272.069 272.231 272.037 272.339 271.999L272.46 272.467C272.137 272.591 271.811 272.653 271.483 272.653C271.246 272.653 271.05 272.621 270.894 272.556C270.743 272.492 270.622 272.403 270.53 272.29C270.444 272.171 270.385 272.031 270.353 271.87C270.321 271.703 270.304 271.52 270.304 271.321V269.19H269.667V268.665H270.304V267.842L270.926 267.729V268.665H272.306V269.19H270.926ZM273.668 268.665L273.74 269.182C273.918 268.988 274.117 268.84 274.338 268.738C274.558 268.636 274.782 268.585 275.008 268.585C275.099 268.585 275.177 268.593 275.242 268.609C275.312 268.62 275.384 268.638 275.46 268.665V269.214C275.298 269.15 275.129 269.117 274.951 269.117C274.747 269.117 274.542 269.174 274.338 269.287C274.133 269.4 273.958 269.542 273.813 269.715V272.572H273.2V268.665H273.668ZM278.847 272.572H278.387L278.29 272.209C278.129 272.349 277.938 272.459 277.717 272.54C277.502 272.615 277.265 272.653 277.007 272.653C276.603 272.653 276.299 272.551 276.095 272.346C275.896 272.136 275.796 271.838 275.796 271.45C275.796 271.052 275.92 270.759 276.167 270.57C276.415 270.377 276.829 270.28 277.41 270.28C277.583 270.28 277.733 270.282 277.863 270.288C277.997 270.293 278.121 270.304 278.234 270.32V270.102C278.234 269.742 278.164 269.486 278.024 269.335C277.884 269.179 277.637 269.101 277.281 269.101C277.114 269.101 276.932 269.131 276.732 269.19C276.539 269.244 276.342 269.325 276.143 269.432L275.957 268.964C276.173 268.846 276.401 268.754 276.644 268.689C276.886 268.62 277.136 268.585 277.394 268.585C277.669 268.585 277.898 268.611 278.08 268.665C278.269 268.719 278.42 268.808 278.533 268.932C278.646 269.05 278.726 269.203 278.775 269.392C278.823 269.58 278.847 269.812 278.847 270.086V272.572ZM277.176 272.144C277.354 272.144 277.537 272.107 277.725 272.031C277.919 271.951 278.089 271.846 278.234 271.717V270.821C278.094 270.804 277.954 270.794 277.814 270.788C277.674 270.778 277.518 270.772 277.346 270.772C277.007 270.772 276.765 270.823 276.619 270.926C276.479 271.028 276.41 271.2 276.41 271.442C276.41 271.674 276.469 271.848 276.587 271.967C276.705 272.085 276.902 272.144 277.176 272.144ZM281.595 272.136C281.971 272.136 282.308 272.042 282.604 271.854L282.781 272.346C282.625 272.438 282.445 272.513 282.241 272.572C282.041 272.626 281.826 272.653 281.595 272.653C280.954 272.653 280.486 272.494 280.19 272.177C279.894 271.854 279.746 271.335 279.746 270.619C279.746 269.919 279.889 269.405 280.174 269.077C280.459 268.749 280.906 268.585 281.514 268.585C282.036 268.585 282.464 268.743 282.798 269.061L282.458 269.481C282.34 269.362 282.2 269.271 282.039 269.206C281.883 269.136 281.713 269.101 281.53 269.101C281.143 269.101 280.849 269.22 280.65 269.456C280.457 269.688 280.36 270.075 280.36 270.619C280.36 271.162 280.462 271.552 280.666 271.789C280.871 272.021 281.18 272.136 281.595 272.136ZM283.613 272.572V266.954L284.235 266.873V270.191H284.614L286.075 268.665H286.826L285.106 270.457L286.874 272.572H286.124L284.606 270.716H284.235V272.572H283.613ZM287.62 268.665H288.233V272.572H287.62V268.665ZM287.612 266.986H288.233V267.793H287.612V266.986ZM290.004 269.061C290.187 268.916 290.389 268.8 290.609 268.714C290.83 268.628 291.061 268.585 291.303 268.585C291.755 268.585 292.078 268.695 292.272 268.916C292.471 269.131 292.571 269.483 292.571 269.973V272.572H291.957V270.143C291.957 269.755 291.893 269.486 291.764 269.335C291.64 269.185 291.446 269.109 291.182 269.109C290.806 269.109 290.429 269.246 290.052 269.521V272.572H289.439V268.665H289.899L290.004 269.061ZM296.74 268.665V272.621C296.74 273.218 296.595 273.651 296.304 273.92C296.019 274.195 295.591 274.332 295.021 274.332C294.795 274.332 294.579 274.313 294.375 274.276C294.17 274.243 293.99 274.197 293.834 274.138L293.963 273.63C294.27 273.748 294.62 273.807 295.012 273.807C295.4 273.807 295.68 273.719 295.852 273.541C296.03 273.363 296.118 273.073 296.118 272.669V272.266C295.984 272.389 295.82 272.486 295.626 272.556C295.438 272.621 295.23 272.653 295.004 272.653C294.499 272.653 294.114 272.489 293.85 272.161C293.592 271.832 293.463 271.318 293.463 270.619C293.463 269.925 293.597 269.413 293.866 269.085C294.135 268.751 294.536 268.585 295.069 268.585C295.295 268.585 295.502 268.622 295.691 268.698C295.879 268.773 296.043 268.875 296.183 269.004L296.28 268.665H296.74ZM295.166 269.101C294.795 269.101 294.52 269.22 294.342 269.456C294.17 269.693 294.084 270.081 294.084 270.619C294.084 271.162 294.17 271.552 294.342 271.789C294.52 272.026 294.795 272.144 295.166 272.144C295.354 272.144 295.529 272.107 295.691 272.031C295.857 271.956 296 271.854 296.118 271.725V269.521C296 269.392 295.857 269.29 295.691 269.214C295.529 269.139 295.354 269.101 295.166 269.101Z" fill="#F7F3EB"/>
<path opacity="0.5" d="M30.8594 59.3315L473.221 59.3316" stroke="#9E9E9E" stroke-width="0.322892"/>
<path opacity="0.5" d="M30.8594 152.97L473.221 152.97" stroke="#9E9E9E" stroke-width="0.322892"/>
<path opacity="0.5" d="M30.8594 234.5L473.221 234.5" stroke="#9E9E9E" stroke-width="0.322892"/>
</g>
<defs>
<clipPath id="clip0_1490_3553">
<rect width="335" height="335" rx="10" fill="white"/>
</clipPath>
</defs>
</svg>
