<svg width="1680" height="830" viewBox="0 0 1680 830" fill="none" xmlns="http://www.w3.org/2000/svg">
<rect width="1680" height="830" fill="#262626"/>
<path d="M341.76 278H327.36V183.44H294.4V170.48H374.88V183.44H341.76V278ZM387.712 186V170.48H402.113V186H387.712ZM387.712 278V200.4H402.113V278H387.712ZM414.944 200.4H427.264V180.08H441.664V200.4H460.704V213.04H441.664V259.28C441.664 264.4 443.584 265.52 448.864 265.52H460.704V278H447.264C436.704 278 427.264 273.2 427.264 260.72V213.04H414.944V200.4ZM492.75 279.6C481.87 279.6 474.35 275.28 474.35 263.28V170.48H488.75V260.88C488.75 266 490.35 267.12 494.99 267.12H498.83V279.6H492.75ZM580.565 255.76C575.445 271.28 561.685 279.92 544.885 279.92C522.965 279.92 505.525 264.08 505.525 239.12C505.525 214.32 522.965 198.32 544.085 198.32C563.125 198.32 582.325 211.6 582.325 239.12V243.44H520.085C521.205 261.04 529.365 266.96 544.885 266.96C556.885 266.96 562.805 264.08 566.165 255.76H580.565ZM520.245 232.24H568.085C566.645 216.72 558.805 211.28 544.085 211.28C530.005 211.28 522.005 216.56 520.245 232.24Z" fill="#F7F3EB"/>
<path d="M327.04 435C327.04 430.52 325.12 428.6 319.92 427.08L311.2 424.6C301.44 421.88 296.56 417.64 296.56 408.68C296.56 400.12 304.88 394.12 315.84 394.12C326.72 394.12 334.56 399.64 336.24 408.92H327.12C326.4 404.04 323.12 402.04 315.92 402.04C308.72 402.04 305.6 403.88 305.6 408.68C305.6 412.84 307.76 414.6 312.96 416.04L321.6 418.52C331.28 421.32 336.08 425.72 336.08 434.68C336.08 445.64 326.24 450.12 315.84 450.12C305.44 450.12 296.32 445.72 294.24 433.96H303.44C304.48 440.44 308.4 442.2 315.84 442.2C323.76 442.2 327.04 440.6 327.04 435ZM351.766 433.56C351.766 439.8 354.406 442.28 360.646 442.28C366.966 442.28 369.686 439.8 369.686 433.56V409.96H378.486V449H370.806L370.166 444.36C367.366 447.96 363.206 450.12 357.846 450.12C348.886 450.12 343.046 443.32 343.046 433.4V409.96H351.766V433.56ZM395.444 449H387.684V395.4H396.564V413.8C399.524 410.68 403.524 408.92 408.404 408.92C418.884 408.92 426.964 417.24 426.964 429.4C426.964 441.72 418.884 450.12 408.404 450.12C403.204 450.12 399.044 448.12 396.004 444.6L395.444 449ZM396.164 429.4C396.164 438.68 399.764 442.28 407.124 442.28C414.564 442.28 418.164 438.68 418.164 429.4C418.164 420.28 414.564 416.68 407.124 416.68C399.764 416.68 396.164 420.28 396.164 429.4ZM429.034 409.96H434.954V400.04H443.834V409.96H453.194V417.72H443.834V438.36C443.834 440.92 444.794 441.48 447.434 441.48H453.194V449H446.474C440.314 449 434.954 446.28 434.954 439.16V417.72H429.034V409.96ZM459.596 403.96V395.24H468.476V403.96H459.596ZM459.596 449V409.96H468.476V449H459.596ZM474.462 409.96H480.382V400.04H489.262V409.96H498.622V417.72H489.262V438.36C489.262 440.92 490.222 441.48 492.862 441.48H498.622V449H491.902C485.742 449 480.382 446.28 480.382 439.16V417.72H474.462V409.96ZM515.104 449.8C508.944 449.8 505.024 447.32 505.024 440.68V395.24H513.904V439.16C513.904 441.72 514.704 442.28 517.024 442.28H518.544V449.8H515.104ZM560.266 437.64C557.626 445.48 550.346 450.12 541.706 450.12C530.426 450.12 521.706 441.88 521.706 429.4C521.706 417.08 530.426 408.92 541.466 408.92C551.306 408.92 560.986 415.72 560.986 429.56V432.04H530.586C531.226 439.8 534.586 442.28 541.706 442.28C547.146 442.28 549.786 441 551.386 437.64H560.266ZM530.746 425.48H552.266C551.546 419.16 548.346 416.68 541.466 416.68C534.986 416.68 531.626 418.92 530.746 425.48Z" fill="#F7F3EB"/>
<path d="M300.89 594H296.06V546.96H311.6C321.33 546.96 328.33 552 328.33 561.03C328.33 570.06 321.19 575.1 311.6 575.1H300.89V594ZM300.89 570.69H313.42C319.79 570.69 323.36 567.96 323.36 561.03C323.36 554.03 319.79 551.37 313.42 551.37H300.89V570.69ZM339.451 580.7C339.451 587.56 342.671 590.29 348.971 590.29C355.271 590.29 358.771 587.56 358.771 580.7V560.19H363.601V594H359.541L358.981 588.82C356.951 592.46 353.101 594.77 347.991 594.77C339.801 594.77 334.691 588.82 334.691 579.86V560.19H339.451V580.7ZM379.592 594.7C375.462 594.7 372.382 593.02 372.382 588.33V546.96H377.212V587.7C377.212 589.94 377.912 590.43 379.942 590.43H381.832V594.7H379.592ZM394.442 594.7C390.312 594.7 387.232 593.02 387.232 588.33V546.96H392.062V587.7C392.062 589.94 392.762 590.43 394.792 590.43H396.682V594.7H394.442ZM402.083 573.28H424.133V577.69H402.083V573.28ZM447.281 594.77C437.971 594.77 430.761 587.63 430.761 577.06C430.761 566.56 437.971 559.42 447.281 559.42C456.591 559.42 463.801 566.56 463.801 577.06C463.801 587.63 456.591 594.77 447.281 594.77ZM435.661 577.06C435.661 586.09 439.441 590.29 447.281 590.29C455.121 590.29 458.901 586.09 458.901 577.06C458.901 568.17 455.121 563.9 447.281 563.9C439.441 563.9 435.661 568.17 435.661 577.06ZM474.953 580.7C474.953 587.56 478.173 590.29 484.473 590.29C490.773 590.29 494.273 587.56 494.273 580.7V560.19H499.103V594H495.043L494.483 588.82C492.453 592.46 488.603 594.77 483.493 594.77C475.303 594.77 470.193 588.82 470.193 579.86V560.19H474.953V580.7ZM505.084 560.19H510.614V551.16H515.444V560.19H523.984V564.6H515.444V587C515.444 589.24 516.284 589.73 518.594 589.73H523.984V594H518.104C514.114 594 510.614 592.25 510.614 587.56V564.6H505.084V560.19ZM551.464 585.32C551.464 582.24 549.994 580.84 545.304 579.58L539.004 577.97C532.354 576.29 529.344 573.84 529.344 568.66C529.344 563.13 535.224 559.42 542.364 559.42C549.504 559.42 554.964 563.27 555.944 569.29H551.114C550.484 565.37 547.614 563.69 542.364 563.69C536.764 563.69 534.174 565.3 534.174 568.66C534.174 571.39 535.504 572.65 539.914 573.77L546.354 575.45C553.354 577.27 556.224 579.65 556.224 585.11C556.224 590.99 550.274 594.77 542.714 594.77C535.364 594.77 529.134 591.55 528.154 583.99H532.914C533.684 589.17 536.764 590.5 542.714 590.5C548.384 590.5 551.464 588.68 551.464 585.32ZM310.48 664.77C301.17 664.77 293.96 657.63 293.96 647.06C293.96 636.56 301.17 629.42 310.48 629.42C319.79 629.42 327 636.56 327 647.06C327 657.63 319.79 664.77 310.48 664.77ZM298.86 647.06C298.86 656.09 302.64 660.29 310.48 660.29C318.32 660.29 322.1 656.09 322.1 647.06C322.1 638.17 318.32 633.9 310.48 633.9C302.64 633.9 298.86 638.17 298.86 647.06ZM348.232 633.76C341.792 633.76 338.502 636.42 338.502 643.56V664H333.742V630.19H337.732L338.292 635.44C340.182 631.8 343.752 629.42 349.002 629.42H350.822V633.76H348.232ZM397.751 630.19H401.881V676.74H397.051V658.61C394.601 662.53 390.541 664.77 385.361 664.77C376.471 664.77 369.751 657.49 369.751 647.06C369.751 636.7 376.471 629.42 385.361 629.42C390.681 629.42 394.741 631.73 397.261 635.86L397.751 630.19ZM374.651 647.06C374.651 656.3 378.641 660.29 385.991 660.29C393.411 660.29 397.401 656.3 397.401 647.06C397.401 637.96 393.411 633.9 385.991 633.9C378.641 633.9 374.651 637.96 374.651 647.06ZM415.038 650.7C415.038 657.56 418.258 660.29 424.558 660.29C430.858 660.29 434.358 657.56 434.358 650.7V630.19H439.188V664H435.128L434.568 658.82C432.538 662.46 428.688 664.77 423.578 664.77C415.388 664.77 410.278 658.82 410.278 649.86V630.19H415.038V650.7ZM462.388 664.77C453.078 664.77 445.868 657.63 445.868 647.06C445.868 636.56 453.078 629.42 462.388 629.42C471.698 629.42 478.908 636.56 478.908 647.06C478.908 657.63 471.698 664.77 462.388 664.77ZM450.768 647.06C450.768 656.09 454.548 660.29 462.388 660.29C470.228 660.29 474.008 656.09 474.008 647.06C474.008 638.17 470.228 633.9 462.388 633.9C454.548 633.9 450.768 638.17 450.768 647.06ZM481.483 630.19H487.013V621.16H491.843V630.19H500.383V634.6H491.843V657C491.843 659.24 492.683 659.73 494.993 659.73H500.383V664H494.503C490.513 664 487.013 662.25 487.013 657.56V634.6H481.483V630.19ZM535.106 654.41C532.796 661.13 527.126 664.77 519.986 664.77C510.676 664.77 503.186 657.98 503.186 647.06C503.186 636.21 510.676 629.42 519.496 629.42C527.686 629.42 535.876 635.09 535.876 646.99V648.67H508.156C508.576 657.28 512.636 660.29 519.986 660.29C525.726 660.29 528.596 658.75 530.136 654.41H535.106ZM508.156 644.61H531.046C530.486 636.56 526.496 633.9 519.496 633.9C512.846 633.9 508.856 636.7 508.156 644.61ZM563.768 655.32C563.768 652.24 562.298 650.84 557.608 649.58L551.308 647.97C544.658 646.29 541.648 643.84 541.648 638.66C541.648 633.13 547.528 629.42 554.668 629.42C561.808 629.42 567.268 633.27 568.248 639.29H563.418C562.788 635.37 559.918 633.69 554.668 633.69C549.068 633.69 546.478 635.3 546.478 638.66C546.478 641.39 547.808 642.65 552.218 643.77L558.658 645.45C565.658 647.27 568.528 649.65 568.528 655.11C568.528 660.99 562.578 664.77 555.018 664.77C547.668 664.77 541.438 661.55 540.458 653.99H545.218C545.988 659.17 549.068 660.5 555.018 660.5C560.688 660.5 563.768 658.68 563.768 655.32Z" fill="#F7F3EB"/>
<path d="M1059.58 179.7V181H1051.62V167.56H1053.16V179.7H1059.58ZM1066.5 179.9C1067.03 179.9 1067.54 179.867 1068.04 179.8C1068.54 179.72 1069.02 179.607 1069.48 179.46V175.42H1066.04V174.12H1071V180.34C1070.4 180.567 1069.69 180.767 1068.88 180.94C1068.06 181.113 1067.26 181.2 1066.46 181.2C1065.35 181.2 1064.4 181.053 1063.62 180.76C1062.84 180.453 1062.21 180.013 1061.72 179.44C1061.22 178.853 1060.86 178.133 1060.64 177.28C1060.42 176.413 1060.32 175.413 1060.32 174.28C1060.32 171.907 1060.8 170.16 1061.78 169.04C1062.76 167.92 1064.22 167.36 1066.14 167.36C1067.22 167.36 1068.15 167.527 1068.94 167.86C1069.72 168.18 1070.38 168.62 1070.9 169.18L1069.98 170.22C1069.48 169.7 1068.93 169.313 1068.32 169.06C1067.7 168.807 1066.98 168.68 1066.14 168.68C1064.71 168.68 1063.64 169.133 1062.92 170.04C1062.21 170.933 1061.86 172.347 1061.86 174.28C1061.86 176.2 1062.22 177.62 1062.94 178.54C1063.66 179.447 1064.84 179.9 1066.5 179.9ZM1088.04 179.7V181H1079.78V167.56H1087.84V168.88H1081.32V173.34H1087.6V174.64H1081.32V179.7H1088.04ZM1091.06 167.56H1092.6V181H1091.06V167.56ZM1111.92 167.56V181H1110.36V174.62H1103.2V181H1101.66V167.56H1103.2V173.3H1110.36V167.56H1111.92ZM1118.8 181.2C1117.22 181.2 1116.1 180.793 1115.44 179.98C1114.78 179.153 1114.46 177.88 1114.46 176.16C1114.46 174.427 1114.79 173.153 1115.46 172.34C1116.12 171.527 1117.14 171.12 1118.52 171.12C1119.89 171.12 1120.91 171.52 1121.58 172.32C1122.24 173.107 1122.58 174.36 1122.58 176.08V176.72H1116.02C1116.07 177.867 1116.32 178.687 1116.76 179.18C1117.2 179.673 1117.88 179.92 1118.82 179.92C1119.38 179.92 1119.92 179.84 1120.46 179.68C1121 179.507 1121.51 179.273 1121.98 178.98L1122.48 180.2C1121.97 180.507 1121.4 180.753 1120.76 180.94C1120.13 181.113 1119.48 181.2 1118.8 181.2ZM1121.02 175.48C1120.95 174.44 1120.72 173.673 1120.32 173.18C1119.92 172.673 1119.32 172.42 1118.52 172.42C1117.72 172.42 1117.12 172.673 1116.72 173.18C1116.32 173.673 1116.08 174.44 1116.02 175.48H1121.02ZM1131.96 181H1130.82L1130.58 180.1C1130.18 180.447 1129.7 180.72 1129.16 180.92C1128.62 181.107 1128.04 181.2 1127.4 181.2C1126.4 181.2 1125.64 180.947 1125.14 180.44C1124.64 179.92 1124.4 179.18 1124.4 178.22C1124.4 177.233 1124.7 176.507 1125.32 176.04C1125.93 175.56 1126.96 175.32 1128.4 175.32C1128.82 175.32 1129.2 175.327 1129.52 175.34C1129.85 175.353 1130.16 175.38 1130.44 175.42V174.88C1130.44 173.987 1130.26 173.353 1129.92 172.98C1129.57 172.593 1128.96 172.4 1128.08 172.4C1127.66 172.4 1127.21 172.473 1126.72 172.62C1126.24 172.753 1125.75 172.953 1125.26 173.22L1124.8 172.06C1125.33 171.767 1125.9 171.54 1126.5 171.38C1127.1 171.207 1127.72 171.12 1128.36 171.12C1129.04 171.12 1129.6 171.187 1130.06 171.32C1130.52 171.453 1130.9 171.673 1131.18 171.98C1131.46 172.273 1131.66 172.653 1131.78 173.12C1131.9 173.587 1131.96 174.16 1131.96 174.84V181ZM1127.82 179.94C1128.26 179.94 1128.71 179.847 1129.18 179.66C1129.66 179.46 1130.08 179.2 1130.44 178.88V176.66C1130.09 176.62 1129.74 176.593 1129.4 176.58C1129.05 176.553 1128.66 176.54 1128.24 176.54C1127.4 176.54 1126.8 176.667 1126.44 176.92C1126.09 177.173 1125.92 177.6 1125.92 178.2C1125.92 178.773 1126.06 179.207 1126.36 179.5C1126.65 179.793 1127.14 179.94 1127.82 179.94ZM1142.28 166.88V181H1141.14L1140.9 180.18C1140.56 180.5 1140.15 180.753 1139.68 180.94C1139.22 181.113 1138.7 181.2 1138.14 181.2C1136.82 181.2 1135.83 180.793 1135.16 179.98C1134.5 179.167 1134.16 177.893 1134.16 176.16C1134.16 174.44 1134.48 173.173 1135.12 172.36C1135.78 171.533 1136.73 171.12 1137.98 171.12C1138.54 171.12 1139.06 171.207 1139.52 171.38C1140 171.553 1140.41 171.793 1140.74 172.1V167.08L1142.28 166.88ZM1138.38 179.94C1138.85 179.94 1139.28 179.847 1139.68 179.66C1140.1 179.473 1140.45 179.22 1140.74 178.9V173.44C1140.45 173.12 1140.1 172.867 1139.68 172.68C1139.28 172.493 1138.85 172.4 1138.38 172.4C1137.46 172.4 1136.78 172.693 1136.34 173.28C1135.92 173.867 1135.7 174.827 1135.7 176.16C1135.7 177.507 1135.92 178.473 1136.34 179.06C1136.78 179.647 1137.46 179.94 1138.38 179.94ZM1147.77 181.14C1147.7 181.167 1147.61 181.18 1147.49 181.18C1147.37 181.193 1147.27 181.2 1147.19 181.2C1146.51 181.2 1146.02 181 1145.71 180.6C1145.42 180.187 1145.27 179.56 1145.27 178.72V167.12L1146.79 166.88V178.5C1146.79 178.807 1146.8 179.053 1146.83 179.24C1146.86 179.427 1146.9 179.573 1146.97 179.68C1147.05 179.787 1147.15 179.86 1147.27 179.9C1147.4 179.927 1147.57 179.94 1147.77 179.94V181.14ZM1150.14 171.32H1151.66V181H1150.14V171.32ZM1150.12 167.16H1151.66V169.16H1150.12V167.16ZM1156.04 172.3C1156.5 171.94 1157 171.653 1157.54 171.44C1158.09 171.227 1158.66 171.12 1159.26 171.12C1160.38 171.12 1161.18 171.393 1161.66 171.94C1162.16 172.473 1162.4 173.347 1162.4 174.56V181H1160.88V174.98C1160.88 174.02 1160.72 173.353 1160.4 172.98C1160.1 172.607 1159.62 172.42 1158.96 172.42C1158.03 172.42 1157.1 172.76 1156.16 173.44V181H1154.64V171.32H1155.78L1156.04 172.3ZM1168.95 181.2C1167.38 181.2 1166.26 180.793 1165.59 179.98C1164.94 179.153 1164.61 177.88 1164.61 176.16C1164.61 174.427 1164.94 173.153 1165.61 172.34C1166.28 171.527 1167.3 171.12 1168.67 171.12C1170.04 171.12 1171.06 171.52 1171.73 172.32C1172.4 173.107 1172.73 174.36 1172.73 176.08V176.72H1166.17C1166.22 177.867 1166.47 178.687 1166.91 179.18C1167.35 179.673 1168.04 179.92 1168.97 179.92C1169.53 179.92 1170.08 179.84 1170.61 179.68C1171.16 179.507 1171.66 179.273 1172.13 178.98L1172.63 180.2C1172.12 180.507 1171.55 180.753 1170.91 180.94C1170.28 181.113 1169.63 181.2 1168.95 181.2ZM1171.17 175.48C1171.1 174.44 1170.87 173.673 1170.47 173.18C1170.07 172.673 1169.47 172.42 1168.67 172.42C1167.87 172.42 1167.27 172.673 1166.87 173.18C1166.47 173.673 1166.24 174.44 1166.17 175.48H1171.17ZM1053.16 195.88V201.02H1056.3C1057.3 201.02 1058.03 200.8 1058.48 200.36C1058.93 199.92 1059.16 199.28 1059.16 198.44C1059.16 197.56 1058.93 196.913 1058.48 196.5C1058.04 196.087 1057.33 195.88 1056.36 195.88H1053.16ZM1051.62 208V194.56H1056.26C1057.82 194.56 1058.95 194.887 1059.66 195.54C1060.38 196.18 1060.74 197.147 1060.74 198.44C1060.74 200.333 1059.87 201.54 1058.14 202.06L1061.1 208H1059.44L1056.62 202.32H1053.16V208H1051.62ZM1066.98 208.2C1065.41 208.2 1064.29 207.793 1063.62 206.98C1062.97 206.153 1062.64 204.88 1062.64 203.16C1062.64 201.427 1062.97 200.153 1063.64 199.34C1064.31 198.527 1065.33 198.12 1066.7 198.12C1068.07 198.12 1069.09 198.52 1069.76 199.32C1070.43 200.107 1070.76 201.36 1070.76 203.08V203.72H1064.2C1064.25 204.867 1064.5 205.687 1064.94 206.18C1065.38 206.673 1066.07 206.92 1067 206.92C1067.56 206.92 1068.11 206.84 1068.64 206.68C1069.19 206.507 1069.69 206.273 1070.16 205.98L1070.66 207.2C1070.15 207.507 1069.58 207.753 1068.94 207.94C1068.31 208.113 1067.66 208.2 1066.98 208.2ZM1069.2 202.48C1069.13 201.44 1068.9 200.673 1068.5 200.18C1068.1 199.673 1067.5 199.42 1066.7 199.42C1065.9 199.42 1065.3 199.673 1064.9 200.18C1064.5 200.673 1064.27 201.44 1064.2 202.48H1069.2ZM1080.76 198.32V208.12C1080.76 209.6 1080.4 210.673 1079.68 211.34C1078.97 212.02 1077.91 212.36 1076.5 212.36C1075.94 212.36 1075.41 212.313 1074.9 212.22C1074.39 212.14 1073.95 212.027 1073.56 211.88L1073.88 210.62C1074.64 210.913 1075.51 211.06 1076.48 211.06C1077.44 211.06 1078.13 210.84 1078.56 210.4C1079 209.96 1079.22 209.24 1079.22 208.24V207.24C1078.89 207.547 1078.48 207.787 1078 207.96C1077.53 208.12 1077.02 208.2 1076.46 208.2C1075.21 208.2 1074.25 207.793 1073.6 206.98C1072.96 206.167 1072.64 204.893 1072.64 203.16C1072.64 201.44 1072.97 200.173 1073.64 199.36C1074.31 198.533 1075.3 198.12 1076.62 198.12C1077.18 198.12 1077.69 198.213 1078.16 198.4C1078.63 198.587 1079.03 198.84 1079.38 199.16L1079.62 198.32H1080.76ZM1076.86 199.4C1075.94 199.4 1075.26 199.693 1074.82 200.28C1074.39 200.867 1074.18 201.827 1074.18 203.16C1074.18 204.507 1074.39 205.473 1074.82 206.06C1075.26 206.647 1075.94 206.94 1076.86 206.94C1077.33 206.94 1077.76 206.847 1078.16 206.66C1078.57 206.473 1078.93 206.22 1079.22 205.9V200.44C1078.93 200.12 1078.57 199.867 1078.16 199.68C1077.76 199.493 1077.33 199.4 1076.86 199.4ZM1089.83 207.04C1089.37 207.4 1088.87 207.687 1088.33 207.9C1087.78 208.1 1087.21 208.2 1086.61 208.2C1085.49 208.2 1084.68 207.933 1084.19 207.4C1083.69 206.867 1083.45 205.993 1083.45 204.78V198.32H1084.99V204.36C1084.99 205.32 1085.14 205.987 1085.45 206.36C1085.77 206.733 1086.25 206.92 1086.91 206.92C1087.84 206.92 1088.77 206.58 1089.69 205.9V198.32H1091.23V208H1090.07L1089.83 207.04ZM1096.72 208.14C1096.65 208.167 1096.56 208.18 1096.44 208.18C1096.32 208.193 1096.22 208.2 1096.14 208.2C1095.46 208.2 1094.96 208 1094.66 207.6C1094.36 207.187 1094.22 206.56 1094.22 205.72V194.12L1095.74 193.88V205.5C1095.74 205.807 1095.75 206.053 1095.78 206.24C1095.8 206.427 1095.85 206.573 1095.92 206.68C1096 206.787 1096.1 206.86 1096.22 206.9C1096.35 206.927 1096.52 206.94 1096.72 206.94V208.14ZM1106.17 208H1105.03L1104.79 207.1C1104.39 207.447 1103.92 207.72 1103.37 207.92C1102.84 208.107 1102.25 208.2 1101.61 208.2C1100.61 208.2 1099.86 207.947 1099.35 207.44C1098.86 206.92 1098.61 206.18 1098.61 205.22C1098.61 204.233 1098.92 203.507 1099.53 203.04C1100.15 202.56 1101.17 202.32 1102.61 202.32C1103.04 202.32 1103.41 202.327 1103.73 202.34C1104.07 202.353 1104.37 202.38 1104.65 202.42V201.88C1104.65 200.987 1104.48 200.353 1104.13 199.98C1103.79 199.593 1103.17 199.4 1102.29 199.4C1101.88 199.4 1101.43 199.473 1100.93 199.62C1100.45 199.753 1099.97 199.953 1099.47 200.22L1099.01 199.06C1099.55 198.767 1100.11 198.54 1100.71 198.38C1101.31 198.207 1101.93 198.12 1102.57 198.12C1103.25 198.12 1103.82 198.187 1104.27 198.32C1104.74 198.453 1105.11 198.673 1105.39 198.98C1105.67 199.273 1105.87 199.653 1105.99 200.12C1106.11 200.587 1106.17 201.16 1106.17 201.84V208ZM1102.03 206.94C1102.47 206.94 1102.93 206.847 1103.39 206.66C1103.87 206.46 1104.29 206.2 1104.65 205.88V203.66C1104.31 203.62 1103.96 203.593 1103.61 203.58C1103.27 203.553 1102.88 203.54 1102.45 203.54C1101.61 203.54 1101.01 203.667 1100.65 203.92C1100.31 204.173 1100.13 204.6 1100.13 205.2C1100.13 205.773 1100.28 206.207 1100.57 206.5C1100.87 206.793 1101.35 206.94 1102.03 206.94ZM1110 198.32L1110.18 199.6C1110.62 199.12 1111.11 198.753 1111.66 198.5C1112.21 198.247 1112.76 198.12 1113.32 198.12C1113.55 198.12 1113.74 198.14 1113.9 198.18C1114.07 198.207 1114.25 198.253 1114.44 198.32V199.68C1114.04 199.52 1113.62 199.44 1113.18 199.44C1112.67 199.44 1112.17 199.58 1111.66 199.86C1111.15 200.14 1110.72 200.493 1110.36 200.92V208H1108.84V198.32H1110ZM1056.54 229.44V232.74H1055.14V229.44H1051.72V228.12H1055.14V224.84H1056.54V228.12H1060V229.44H1056.54ZM1066.34 235V223.16L1062.96 225.44L1062.2 224.3L1066.34 221.56H1067.9V235H1066.34ZM1073.89 235.6H1072.45L1082.19 220.88H1083.61L1073.89 235.6ZM1071.29 224.92C1071.29 223.707 1071.52 222.807 1071.99 222.22C1072.46 221.62 1073.13 221.32 1074.01 221.32C1074.89 221.32 1075.56 221.62 1076.03 222.22C1076.5 222.807 1076.73 223.707 1076.73 224.92C1076.73 226.133 1076.5 227.04 1076.03 227.64C1075.56 228.24 1074.89 228.54 1074.01 228.54C1073.13 228.54 1072.46 228.24 1071.99 227.64C1071.52 227.04 1071.29 226.133 1071.29 224.92ZM1072.67 224.92C1072.67 226.547 1073.12 227.36 1074.01 227.36C1074.9 227.36 1075.35 226.547 1075.35 224.92C1075.35 223.293 1074.9 222.48 1074.01 222.48C1073.12 222.48 1072.67 223.293 1072.67 224.92ZM1079.39 231.54C1079.39 230.327 1079.62 229.427 1080.09 228.84C1080.56 228.24 1081.23 227.94 1082.11 227.94C1082.99 227.94 1083.66 228.24 1084.13 228.84C1084.6 229.427 1084.83 230.327 1084.83 231.54C1084.83 232.753 1084.6 233.66 1084.13 234.26C1083.66 234.847 1082.99 235.14 1082.11 235.14C1081.23 235.14 1080.56 234.847 1080.09 234.26C1079.62 233.66 1079.39 232.753 1079.39 231.54ZM1080.77 231.54C1080.77 233.167 1081.22 233.98 1082.11 233.98C1083 233.98 1083.45 233.167 1083.45 231.54C1083.45 229.913 1083 229.1 1082.11 229.1C1081.22 229.1 1080.77 229.913 1080.77 231.54ZM1094.91 226.62V231.4C1094.91 231.84 1094.93 232.22 1094.97 232.54C1095.01 232.86 1095.09 233.127 1095.21 233.34C1095.34 233.54 1095.52 233.687 1095.75 233.78C1095.99 233.873 1096.31 233.92 1096.71 233.92C1097 233.92 1097.29 233.887 1097.57 233.82C1097.86 233.753 1098.14 233.673 1098.41 233.58L1098.71 234.74C1097.91 235.047 1097.1 235.2 1096.29 235.2C1095.7 235.2 1095.21 235.12 1094.83 234.96C1094.45 234.8 1094.15 234.58 1093.93 234.3C1093.71 234.007 1093.57 233.66 1093.49 233.26C1093.41 232.847 1093.37 232.393 1093.37 231.9V226.62H1091.79V225.32H1093.37V223.28L1094.91 223V225.32H1098.33V226.62H1094.91ZM1101.7 225.32L1101.88 226.6C1102.32 226.12 1102.81 225.753 1103.36 225.5C1103.91 225.247 1104.46 225.12 1105.02 225.12C1105.25 225.12 1105.44 225.14 1105.6 225.18C1105.77 225.207 1105.95 225.253 1106.14 225.32V226.68C1105.74 226.52 1105.32 226.44 1104.88 226.44C1104.37 226.44 1103.87 226.58 1103.36 226.86C1102.85 227.14 1102.42 227.493 1102.06 227.92V235H1100.54V225.32H1101.7ZM1114.53 235H1113.39L1113.15 234.1C1112.75 234.447 1112.28 234.72 1111.73 234.92C1111.2 235.107 1110.61 235.2 1109.97 235.2C1108.97 235.2 1108.22 234.947 1107.71 234.44C1107.22 233.92 1106.97 233.18 1106.97 232.22C1106.97 231.233 1107.28 230.507 1107.89 230.04C1108.51 229.56 1109.53 229.32 1110.97 229.32C1111.4 229.32 1111.77 229.327 1112.09 229.34C1112.43 229.353 1112.73 229.38 1113.01 229.42V228.88C1113.01 227.987 1112.84 227.353 1112.49 226.98C1112.15 226.593 1111.53 226.4 1110.65 226.4C1110.24 226.4 1109.79 226.473 1109.29 226.62C1108.81 226.753 1108.33 226.953 1107.83 227.22L1107.37 226.06C1107.91 225.767 1108.47 225.54 1109.07 225.38C1109.67 225.207 1110.29 225.12 1110.93 225.12C1111.61 225.12 1112.18 225.187 1112.63 225.32C1113.1 225.453 1113.47 225.673 1113.75 225.98C1114.03 226.273 1114.23 226.653 1114.35 227.12C1114.47 227.587 1114.53 228.16 1114.53 228.84V235ZM1110.39 233.94C1110.83 233.94 1111.29 233.847 1111.75 233.66C1112.23 233.46 1112.65 233.2 1113.01 232.88V230.66C1112.67 230.62 1112.32 230.593 1111.97 230.58C1111.63 230.553 1111.24 230.54 1110.81 230.54C1109.97 230.54 1109.37 230.667 1109.01 230.92C1108.67 231.173 1108.49 231.6 1108.49 232.2C1108.49 232.773 1108.64 233.207 1108.93 233.5C1109.23 233.793 1109.71 233.94 1110.39 233.94ZM1121.34 233.92C1122.27 233.92 1123.11 233.687 1123.84 233.22L1124.28 234.44C1123.89 234.667 1123.45 234.853 1122.94 235C1122.45 235.133 1121.91 235.2 1121.34 235.2C1119.75 235.2 1118.59 234.807 1117.86 234.02C1117.13 233.22 1116.76 231.933 1116.76 230.16C1116.76 228.427 1117.11 227.153 1117.82 226.34C1118.53 225.527 1119.63 225.12 1121.14 225.12C1122.43 225.12 1123.49 225.513 1124.32 226.3L1123.48 227.34C1123.19 227.047 1122.84 226.82 1122.44 226.66C1122.05 226.487 1121.63 226.4 1121.18 226.4C1120.22 226.4 1119.49 226.693 1119 227.28C1118.52 227.853 1118.28 228.813 1118.28 230.16C1118.28 231.507 1118.53 232.473 1119.04 233.06C1119.55 233.633 1120.31 233.92 1121.34 233.92ZM1126.34 235V221.08L1127.88 220.88V229.1H1128.82L1132.44 225.32H1134.3L1130.04 229.76L1134.42 235H1132.56L1128.8 230.4H1127.88V235H1126.34ZM1136.27 225.32H1137.79V235H1136.27V225.32ZM1136.25 221.16H1137.79V223.16H1136.25V221.16ZM1142.17 226.3C1142.63 225.94 1143.13 225.653 1143.67 225.44C1144.22 225.227 1144.79 225.12 1145.39 225.12C1146.51 225.12 1147.31 225.393 1147.79 225.94C1148.29 226.473 1148.53 227.347 1148.53 228.56V235H1147.01V228.98C1147.01 228.02 1146.85 227.353 1146.53 226.98C1146.23 226.607 1145.75 226.42 1145.09 226.42C1144.16 226.42 1143.23 226.76 1142.29 227.44V235H1140.77V225.32H1141.91L1142.17 226.3ZM1158.86 225.32V235.12C1158.86 236.6 1158.5 237.673 1157.78 238.34C1157.08 239.02 1156.02 239.36 1154.6 239.36C1154.04 239.36 1153.51 239.313 1153 239.22C1152.5 239.14 1152.05 239.027 1151.66 238.88L1151.98 237.62C1152.74 237.913 1153.61 238.06 1154.58 238.06C1155.54 238.06 1156.24 237.84 1156.66 237.4C1157.1 236.96 1157.32 236.24 1157.32 235.24V234.24C1156.99 234.547 1156.58 234.787 1156.1 234.96C1155.64 235.12 1155.12 235.2 1154.56 235.2C1153.31 235.2 1152.36 234.793 1151.7 233.98C1151.06 233.167 1150.74 231.893 1150.74 230.16C1150.74 228.44 1151.08 227.173 1151.74 226.36C1152.41 225.533 1153.4 225.12 1154.72 225.12C1155.28 225.12 1155.8 225.213 1156.26 225.4C1156.73 225.587 1157.14 225.84 1157.48 226.16L1157.72 225.32H1158.86ZM1154.96 226.4C1154.04 226.4 1153.36 226.693 1152.92 227.28C1152.5 227.867 1152.28 228.827 1152.28 230.16C1152.28 231.507 1152.5 232.473 1152.92 233.06C1153.36 233.647 1154.04 233.94 1154.96 233.94C1155.43 233.94 1155.86 233.847 1156.26 233.66C1156.68 233.473 1157.03 233.22 1157.32 232.9V227.44C1157.03 227.12 1156.68 226.867 1156.26 226.68C1155.86 226.493 1155.43 226.4 1154.96 226.4Z" fill="#F7F3EB"/>
<path d="M1059.58 409.7V411H1051.62V397.56H1053.16V409.7H1059.58ZM1066.5 409.9C1067.03 409.9 1067.54 409.867 1068.04 409.8C1068.54 409.72 1069.02 409.607 1069.48 409.46V405.42H1066.04V404.12H1071V410.34C1070.4 410.567 1069.69 410.767 1068.88 410.94C1068.06 411.113 1067.26 411.2 1066.46 411.2C1065.35 411.2 1064.4 411.053 1063.62 410.76C1062.84 410.453 1062.21 410.013 1061.72 409.44C1061.22 408.853 1060.86 408.133 1060.64 407.28C1060.42 406.413 1060.32 405.413 1060.32 404.28C1060.32 401.907 1060.8 400.16 1061.78 399.04C1062.76 397.92 1064.22 397.36 1066.14 397.36C1067.22 397.36 1068.15 397.527 1068.94 397.86C1069.72 398.18 1070.38 398.62 1070.9 399.18L1069.98 400.22C1069.48 399.7 1068.93 399.313 1068.32 399.06C1067.7 398.807 1066.98 398.68 1066.14 398.68C1064.71 398.68 1063.64 399.133 1062.92 400.04C1062.21 400.933 1061.86 402.347 1061.86 404.28C1061.86 406.2 1062.22 407.62 1062.94 408.54C1063.66 409.447 1064.84 409.9 1066.5 409.9ZM1088.04 409.7V411H1079.78V397.56H1087.84V398.88H1081.32V403.34H1087.6V404.64H1081.32V409.7H1088.04ZM1091.06 397.56H1092.6V411H1091.06V397.56ZM1111.92 397.56V411H1110.36V404.62H1103.2V411H1101.66V397.56H1103.2V403.3H1110.36V397.56H1111.92ZM1118.8 411.2C1117.22 411.2 1116.1 410.793 1115.44 409.98C1114.78 409.153 1114.46 407.88 1114.46 406.16C1114.46 404.427 1114.79 403.153 1115.46 402.34C1116.12 401.527 1117.14 401.12 1118.52 401.12C1119.89 401.12 1120.91 401.52 1121.58 402.32C1122.24 403.107 1122.58 404.36 1122.58 406.08V406.72H1116.02C1116.07 407.867 1116.32 408.687 1116.76 409.18C1117.2 409.673 1117.88 409.92 1118.82 409.92C1119.38 409.92 1119.92 409.84 1120.46 409.68C1121 409.507 1121.51 409.273 1121.98 408.98L1122.48 410.2C1121.97 410.507 1121.4 410.753 1120.76 410.94C1120.13 411.113 1119.48 411.2 1118.8 411.2ZM1121.02 405.48C1120.95 404.44 1120.72 403.673 1120.32 403.18C1119.92 402.673 1119.32 402.42 1118.52 402.42C1117.72 402.42 1117.12 402.673 1116.72 403.18C1116.32 403.673 1116.08 404.44 1116.02 405.48H1121.02ZM1131.96 411H1130.82L1130.58 410.1C1130.18 410.447 1129.7 410.72 1129.16 410.92C1128.62 411.107 1128.04 411.2 1127.4 411.2C1126.4 411.2 1125.64 410.947 1125.14 410.44C1124.64 409.92 1124.4 409.18 1124.4 408.22C1124.4 407.233 1124.7 406.507 1125.32 406.04C1125.93 405.56 1126.96 405.32 1128.4 405.32C1128.82 405.32 1129.2 405.327 1129.52 405.34C1129.85 405.353 1130.16 405.38 1130.44 405.42V404.88C1130.44 403.987 1130.26 403.353 1129.92 402.98C1129.57 402.593 1128.96 402.4 1128.08 402.4C1127.66 402.4 1127.21 402.473 1126.72 402.62C1126.24 402.753 1125.75 402.953 1125.26 403.22L1124.8 402.06C1125.33 401.767 1125.9 401.54 1126.5 401.38C1127.1 401.207 1127.72 401.12 1128.36 401.12C1129.04 401.12 1129.6 401.187 1130.06 401.32C1130.52 401.453 1130.9 401.673 1131.18 401.98C1131.46 402.273 1131.66 402.653 1131.78 403.12C1131.9 403.587 1131.96 404.16 1131.96 404.84V411ZM1127.82 409.94C1128.26 409.94 1128.71 409.847 1129.18 409.66C1129.66 409.46 1130.08 409.2 1130.44 408.88V406.66C1130.09 406.62 1129.74 406.593 1129.4 406.58C1129.05 406.553 1128.66 406.54 1128.24 406.54C1127.4 406.54 1126.8 406.667 1126.44 406.92C1126.09 407.173 1125.92 407.6 1125.92 408.2C1125.92 408.773 1126.06 409.207 1126.36 409.5C1126.65 409.793 1127.14 409.94 1127.82 409.94ZM1142.28 396.88V411H1141.14L1140.9 410.18C1140.56 410.5 1140.15 410.753 1139.68 410.94C1139.22 411.113 1138.7 411.2 1138.14 411.2C1136.82 411.2 1135.83 410.793 1135.16 409.98C1134.5 409.167 1134.16 407.893 1134.16 406.16C1134.16 404.44 1134.48 403.173 1135.12 402.36C1135.78 401.533 1136.73 401.12 1137.98 401.12C1138.54 401.12 1139.06 401.207 1139.52 401.38C1140 401.553 1140.41 401.793 1140.74 402.1V397.08L1142.28 396.88ZM1138.38 409.94C1138.85 409.94 1139.28 409.847 1139.68 409.66C1140.1 409.473 1140.45 409.22 1140.74 408.9V403.44C1140.45 403.12 1140.1 402.867 1139.68 402.68C1139.28 402.493 1138.85 402.4 1138.38 402.4C1137.46 402.4 1136.78 402.693 1136.34 403.28C1135.92 403.867 1135.7 404.827 1135.7 406.16C1135.7 407.507 1135.92 408.473 1136.34 409.06C1136.78 409.647 1137.46 409.94 1138.38 409.94ZM1147.77 411.14C1147.7 411.167 1147.61 411.18 1147.49 411.18C1147.37 411.193 1147.27 411.2 1147.19 411.2C1146.51 411.2 1146.02 411 1145.71 410.6C1145.42 410.187 1145.27 409.56 1145.27 408.72V397.12L1146.79 396.88V408.5C1146.79 408.807 1146.8 409.053 1146.83 409.24C1146.86 409.427 1146.9 409.573 1146.97 409.68C1147.05 409.787 1147.15 409.86 1147.27 409.9C1147.4 409.927 1147.57 409.94 1147.77 409.94V411.14ZM1150.14 401.32H1151.66V411H1150.14V401.32ZM1150.12 397.16H1151.66V399.16H1150.12V397.16ZM1156.04 402.3C1156.5 401.94 1157 401.653 1157.54 401.44C1158.09 401.227 1158.66 401.12 1159.26 401.12C1160.38 401.12 1161.18 401.393 1161.66 401.94C1162.16 402.473 1162.4 403.347 1162.4 404.56V411H1160.88V404.98C1160.88 404.02 1160.72 403.353 1160.4 402.98C1160.1 402.607 1159.62 402.42 1158.96 402.42C1158.03 402.42 1157.1 402.76 1156.16 403.44V411H1154.64V401.32H1155.78L1156.04 402.3ZM1168.95 411.2C1167.38 411.2 1166.26 410.793 1165.59 409.98C1164.94 409.153 1164.61 407.88 1164.61 406.16C1164.61 404.427 1164.94 403.153 1165.61 402.34C1166.28 401.527 1167.3 401.12 1168.67 401.12C1170.04 401.12 1171.06 401.52 1171.73 402.32C1172.4 403.107 1172.73 404.36 1172.73 406.08V406.72H1166.17C1166.22 407.867 1166.47 408.687 1166.91 409.18C1167.35 409.673 1168.04 409.92 1168.97 409.92C1169.53 409.92 1170.08 409.84 1170.61 409.68C1171.16 409.507 1171.66 409.273 1172.13 408.98L1172.63 410.2C1172.12 410.507 1171.55 410.753 1170.91 410.94C1170.28 411.113 1169.63 411.2 1168.95 411.2ZM1171.17 405.48C1171.1 404.44 1170.87 403.673 1170.47 403.18C1170.07 402.673 1169.47 402.42 1168.67 402.42C1167.87 402.42 1167.27 402.673 1166.87 403.18C1166.47 403.673 1166.24 404.44 1166.17 405.48H1171.17ZM1053.16 425.88V431.02H1056.3C1057.3 431.02 1058.03 430.8 1058.48 430.36C1058.93 429.92 1059.16 429.28 1059.16 428.44C1059.16 427.56 1058.93 426.913 1058.48 426.5C1058.04 426.087 1057.33 425.88 1056.36 425.88H1053.16ZM1051.62 438V424.56H1056.26C1057.82 424.56 1058.95 424.887 1059.66 425.54C1060.38 426.18 1060.74 427.147 1060.74 428.44C1060.74 430.333 1059.87 431.54 1058.14 432.06L1061.1 438H1059.44L1056.62 432.32H1053.16V438H1051.62ZM1066.98 438.2C1065.41 438.2 1064.29 437.793 1063.62 436.98C1062.97 436.153 1062.64 434.88 1062.64 433.16C1062.64 431.427 1062.97 430.153 1063.64 429.34C1064.31 428.527 1065.33 428.12 1066.7 428.12C1068.07 428.12 1069.09 428.52 1069.76 429.32C1070.43 430.107 1070.76 431.36 1070.76 433.08V433.72H1064.2C1064.25 434.867 1064.5 435.687 1064.94 436.18C1065.38 436.673 1066.07 436.92 1067 436.92C1067.56 436.92 1068.11 436.84 1068.64 436.68C1069.19 436.507 1069.69 436.273 1070.16 435.98L1070.66 437.2C1070.15 437.507 1069.58 437.753 1068.94 437.94C1068.31 438.113 1067.66 438.2 1066.98 438.2ZM1069.2 432.48C1069.13 431.44 1068.9 430.673 1068.5 430.18C1068.1 429.673 1067.5 429.42 1066.7 429.42C1065.9 429.42 1065.3 429.673 1064.9 430.18C1064.5 430.673 1064.27 431.44 1064.2 432.48H1069.2ZM1080.76 428.32V438.12C1080.76 439.6 1080.4 440.673 1079.68 441.34C1078.97 442.02 1077.91 442.36 1076.5 442.36C1075.94 442.36 1075.41 442.313 1074.9 442.22C1074.39 442.14 1073.95 442.027 1073.56 441.88L1073.88 440.62C1074.64 440.913 1075.51 441.06 1076.48 441.06C1077.44 441.06 1078.13 440.84 1078.56 440.4C1079 439.96 1079.22 439.24 1079.22 438.24V437.24C1078.89 437.547 1078.48 437.787 1078 437.96C1077.53 438.12 1077.02 438.2 1076.46 438.2C1075.21 438.2 1074.25 437.793 1073.6 436.98C1072.96 436.167 1072.64 434.893 1072.64 433.16C1072.64 431.44 1072.97 430.173 1073.64 429.36C1074.31 428.533 1075.3 428.12 1076.62 428.12C1077.18 428.12 1077.69 428.213 1078.16 428.4C1078.63 428.587 1079.03 428.84 1079.38 429.16L1079.62 428.32H1080.76ZM1076.86 429.4C1075.94 429.4 1075.26 429.693 1074.82 430.28C1074.39 430.867 1074.18 431.827 1074.18 433.16C1074.18 434.507 1074.39 435.473 1074.82 436.06C1075.26 436.647 1075.94 436.94 1076.86 436.94C1077.33 436.94 1077.76 436.847 1078.16 436.66C1078.57 436.473 1078.93 436.22 1079.22 435.9V430.44C1078.93 430.12 1078.57 429.867 1078.16 429.68C1077.76 429.493 1077.33 429.4 1076.86 429.4ZM1089.83 437.04C1089.37 437.4 1088.87 437.687 1088.33 437.9C1087.78 438.1 1087.21 438.2 1086.61 438.2C1085.49 438.2 1084.68 437.933 1084.19 437.4C1083.69 436.867 1083.45 435.993 1083.45 434.78V428.32H1084.99V434.36C1084.99 435.32 1085.14 435.987 1085.45 436.36C1085.77 436.733 1086.25 436.92 1086.91 436.92C1087.84 436.92 1088.77 436.58 1089.69 435.9V428.32H1091.23V438H1090.07L1089.83 437.04ZM1096.72 438.14C1096.65 438.167 1096.56 438.18 1096.44 438.18C1096.32 438.193 1096.22 438.2 1096.14 438.2C1095.46 438.2 1094.96 438 1094.66 437.6C1094.36 437.187 1094.22 436.56 1094.22 435.72V424.12L1095.74 423.88V435.5C1095.74 435.807 1095.75 436.053 1095.78 436.24C1095.8 436.427 1095.85 436.573 1095.92 436.68C1096 436.787 1096.1 436.86 1096.22 436.9C1096.35 436.927 1096.52 436.94 1096.72 436.94V438.14ZM1106.17 438H1105.03L1104.79 437.1C1104.39 437.447 1103.92 437.72 1103.37 437.92C1102.84 438.107 1102.25 438.2 1101.61 438.2C1100.61 438.2 1099.86 437.947 1099.35 437.44C1098.86 436.92 1098.61 436.18 1098.61 435.22C1098.61 434.233 1098.92 433.507 1099.53 433.04C1100.15 432.56 1101.17 432.32 1102.61 432.32C1103.04 432.32 1103.41 432.327 1103.73 432.34C1104.07 432.353 1104.37 432.38 1104.65 432.42V431.88C1104.65 430.987 1104.48 430.353 1104.13 429.98C1103.79 429.593 1103.17 429.4 1102.29 429.4C1101.88 429.4 1101.43 429.473 1100.93 429.62C1100.45 429.753 1099.97 429.953 1099.47 430.22L1099.01 429.06C1099.55 428.767 1100.11 428.54 1100.71 428.38C1101.31 428.207 1101.93 428.12 1102.57 428.12C1103.25 428.12 1103.82 428.187 1104.27 428.32C1104.74 428.453 1105.11 428.673 1105.39 428.98C1105.67 429.273 1105.87 429.653 1105.99 430.12C1106.11 430.587 1106.17 431.16 1106.17 431.84V438ZM1102.03 436.94C1102.47 436.94 1102.93 436.847 1103.39 436.66C1103.87 436.46 1104.29 436.2 1104.65 435.88V433.66C1104.31 433.62 1103.96 433.593 1103.61 433.58C1103.27 433.553 1102.88 433.54 1102.45 433.54C1101.61 433.54 1101.01 433.667 1100.65 433.92C1100.31 434.173 1100.13 434.6 1100.13 435.2C1100.13 435.773 1100.28 436.207 1100.57 436.5C1100.87 436.793 1101.35 436.94 1102.03 436.94ZM1110 428.32L1110.18 429.6C1110.62 429.12 1111.11 428.753 1111.66 428.5C1112.21 428.247 1112.76 428.12 1113.32 428.12C1113.55 428.12 1113.74 428.14 1113.9 428.18C1114.07 428.207 1114.25 428.253 1114.44 428.32V429.68C1114.04 429.52 1113.62 429.44 1113.18 429.44C1112.67 429.44 1112.17 429.58 1111.66 429.86C1111.15 430.14 1110.72 430.493 1110.36 430.92V438H1108.84V428.32H1110ZM1113.03 440.6C1113.35 439.987 1113.6 439.38 1113.77 438.78C1113.95 438.18 1114.03 437.5 1114.03 436.74H1115.53C1115.53 437.22 1115.5 437.66 1115.43 438.06C1115.37 438.473 1115.27 438.853 1115.15 439.2C1115.03 439.56 1114.89 439.9 1114.71 440.22C1114.54 440.553 1114.34 440.887 1114.11 441.22L1113.03 440.6ZM1130.98 434.76C1130.98 434.44 1130.94 434.153 1130.84 433.9C1130.75 433.647 1130.58 433.413 1130.34 433.2C1130.1 432.987 1129.77 432.78 1129.34 432.58C1128.93 432.38 1128.4 432.167 1127.76 431.94C1126.98 431.66 1126.32 431.387 1125.78 431.12C1125.25 430.84 1124.82 430.54 1124.5 430.22C1124.18 429.9 1123.95 429.547 1123.8 429.16C1123.67 428.773 1123.6 428.327 1123.6 427.82C1123.6 426.767 1123.99 425.927 1124.76 425.3C1125.54 424.673 1126.67 424.36 1128.16 424.36C1128.9 424.36 1129.57 424.453 1130.18 424.64C1130.8 424.813 1131.38 425.06 1131.94 425.38L1131.34 426.62C1130.85 426.313 1130.34 426.08 1129.8 425.92C1129.27 425.747 1128.72 425.66 1128.16 425.66C1127.12 425.66 1126.36 425.847 1125.86 426.22C1125.38 426.58 1125.14 427.08 1125.14 427.72C1125.14 428.053 1125.2 428.347 1125.3 428.6C1125.41 428.853 1125.58 429.087 1125.82 429.3C1126.08 429.513 1126.41 429.727 1126.82 429.94C1127.24 430.14 1127.76 430.36 1128.38 430.6C1129.16 430.893 1129.8 431.167 1130.32 431.42C1130.86 431.673 1131.28 431.953 1131.6 432.26C1131.94 432.553 1132.17 432.893 1132.3 433.28C1132.45 433.653 1132.52 434.107 1132.52 434.64C1132.52 435.733 1132.12 436.6 1131.32 437.24C1130.54 437.88 1129.32 438.2 1127.66 438.2C1126.82 438.2 1126.02 438.1 1125.26 437.9C1124.5 437.7 1123.86 437.44 1123.32 437.12L1123.88 435.92C1124.46 436.227 1125.05 436.473 1125.66 436.66C1126.28 436.833 1126.92 436.92 1127.6 436.92C1128.74 436.92 1129.58 436.733 1130.14 436.36C1130.7 435.973 1130.98 435.44 1130.98 434.76ZM1138.72 438.2C1137.14 438.2 1136.02 437.793 1135.36 436.98C1134.7 436.153 1134.38 434.88 1134.38 433.16C1134.38 431.427 1134.71 430.153 1135.38 429.34C1136.04 428.527 1137.06 428.12 1138.44 428.12C1139.81 428.12 1140.83 428.52 1141.5 429.32C1142.16 430.107 1142.5 431.36 1142.5 433.08V433.72H1135.94C1135.99 434.867 1136.24 435.687 1136.68 436.18C1137.12 436.673 1137.8 436.92 1138.74 436.92C1139.3 436.92 1139.84 436.84 1140.38 436.68C1140.92 436.507 1141.43 436.273 1141.9 435.98L1142.4 437.2C1141.89 437.507 1141.32 437.753 1140.68 437.94C1140.05 438.113 1139.4 438.2 1138.72 438.2ZM1140.94 432.48C1140.87 431.44 1140.64 430.673 1140.24 430.18C1139.84 429.673 1139.24 429.42 1138.44 429.42C1137.64 429.42 1137.04 429.673 1136.64 430.18C1136.24 430.673 1136 431.44 1135.94 432.48H1140.94ZM1146.22 429.22C1146.68 428.873 1147.16 428.607 1147.66 428.42C1148.15 428.22 1148.68 428.12 1149.24 428.12C1149.92 428.12 1150.46 428.22 1150.86 428.42C1151.27 428.62 1151.58 428.953 1151.78 429.42C1152.24 429.033 1152.75 428.72 1153.3 428.48C1153.86 428.24 1154.44 428.12 1155.04 428.12C1155.6 428.12 1156.06 428.187 1156.44 428.32C1156.81 428.44 1157.11 428.64 1157.34 428.92C1157.58 429.2 1157.74 429.56 1157.84 430C1157.93 430.427 1157.98 430.947 1157.98 431.56V438H1156.46V431.98C1156.46 431.02 1156.32 430.353 1156.06 429.98C1155.8 429.607 1155.37 429.42 1154.76 429.42C1153.88 429.42 1152.99 429.78 1152.1 430.5C1152.14 430.807 1152.16 431.16 1152.16 431.56V438H1150.64V431.98C1150.64 431.033 1150.52 430.373 1150.28 430C1150.04 429.613 1149.59 429.42 1148.94 429.42C1148.5 429.42 1148.07 429.507 1147.66 429.68C1147.24 429.84 1146.81 430.093 1146.36 430.44V438H1144.84V428.32H1145.98L1146.22 429.22ZM1160.86 428.32H1162.38V438H1160.86V428.32ZM1160.84 424.16H1162.38V426.16H1160.84V424.16ZM1169.26 436.94C1170.18 436.94 1170.86 436.647 1171.3 436.06C1171.74 435.473 1171.96 434.507 1171.96 433.16C1171.96 431.827 1171.74 430.867 1171.3 430.28C1170.86 429.693 1170.18 429.4 1169.26 429.4C1168.8 429.4 1168.36 429.493 1167.94 429.68C1167.54 429.867 1167.2 430.12 1166.9 430.44V435.9C1167.2 436.22 1167.54 436.473 1167.94 436.66C1168.36 436.847 1168.8 436.94 1169.26 436.94ZM1166.5 438H1165.36V424.06L1166.9 423.88V429.1C1167.24 428.793 1167.64 428.553 1168.1 428.38C1168.58 428.207 1169.1 428.12 1169.66 428.12C1170.92 428.12 1171.86 428.533 1172.5 429.36C1173.16 430.173 1173.48 431.44 1173.48 433.16C1173.48 434.893 1173.15 436.167 1172.48 436.98C1171.82 437.793 1170.82 438.2 1169.5 438.2C1168.94 438.2 1168.43 438.113 1167.96 437.94C1167.51 437.753 1167.11 437.5 1166.76 437.18L1166.5 438ZM1175.35 433.16C1175.35 431.427 1175.7 430.153 1176.39 429.34C1177.1 428.527 1178.22 428.12 1179.75 428.12C1181.27 428.12 1182.38 428.527 1183.07 429.34C1183.78 430.153 1184.13 431.427 1184.13 433.16C1184.13 434.893 1183.78 436.167 1183.07 436.98C1182.37 437.793 1181.26 438.2 1179.75 438.2C1178.23 438.2 1177.12 437.793 1176.41 436.98C1175.71 436.167 1175.35 434.893 1175.35 433.16ZM1176.89 433.16C1176.89 434.48 1177.12 435.44 1177.57 436.04C1178.03 436.627 1178.75 436.92 1179.75 436.92C1180.75 436.92 1181.48 436.627 1181.93 436.04C1182.39 435.44 1182.61 434.48 1182.61 433.16C1182.61 431.867 1182.39 430.92 1181.93 430.32C1181.48 429.72 1180.75 429.42 1179.75 429.42C1178.75 429.42 1178.03 429.72 1177.57 430.32C1177.12 430.92 1176.89 431.867 1176.89 433.16ZM1189.16 438.14C1189.09 438.167 1189 438.18 1188.88 438.18C1188.76 438.193 1188.66 438.2 1188.58 438.2C1187.9 438.2 1187.4 438 1187.1 437.6C1186.8 437.187 1186.66 436.56 1186.66 435.72V424.12L1188.18 423.88V435.5C1188.18 435.807 1188.19 436.053 1188.22 436.24C1188.24 436.427 1188.29 436.573 1188.36 436.68C1188.44 436.787 1188.54 436.86 1188.66 436.9C1188.79 436.927 1188.96 436.94 1189.16 436.94V438.14ZM1198.96 423.88V438H1197.82L1197.58 437.18C1197.24 437.5 1196.83 437.753 1196.36 437.94C1195.9 438.113 1195.38 438.2 1194.82 438.2C1193.5 438.2 1192.51 437.793 1191.84 436.98C1191.18 436.167 1190.84 434.893 1190.84 433.16C1190.84 431.44 1191.16 430.173 1191.8 429.36C1192.46 428.533 1193.41 428.12 1194.66 428.12C1195.22 428.12 1195.74 428.207 1196.2 428.38C1196.68 428.553 1197.09 428.793 1197.42 429.1V424.08L1198.96 423.88ZM1195.06 436.94C1195.53 436.94 1195.96 436.847 1196.36 436.66C1196.78 436.473 1197.13 436.22 1197.42 435.9V430.44C1197.13 430.12 1196.78 429.867 1196.36 429.68C1195.96 429.493 1195.53 429.4 1195.06 429.4C1194.14 429.4 1193.46 429.693 1193.02 430.28C1192.6 430.867 1192.38 431.827 1192.38 433.16C1192.38 434.507 1192.6 435.473 1193.02 436.06C1193.46 436.647 1194.14 436.94 1195.06 436.94ZM1056.54 459.44V462.74H1055.14V459.44H1051.72V458.12H1055.14V454.84H1056.54V458.12H1060V459.44H1056.54ZM1066.34 465V453.16L1062.96 455.44L1062.2 454.3L1066.34 451.56H1067.9V465H1066.34ZM1073.89 465.6H1072.45L1082.19 450.88H1083.61L1073.89 465.6ZM1071.29 454.92C1071.29 453.707 1071.52 452.807 1071.99 452.22C1072.46 451.62 1073.13 451.32 1074.01 451.32C1074.89 451.32 1075.56 451.62 1076.03 452.22C1076.5 452.807 1076.73 453.707 1076.73 454.92C1076.73 456.133 1076.5 457.04 1076.03 457.64C1075.56 458.24 1074.89 458.54 1074.01 458.54C1073.13 458.54 1072.46 458.24 1071.99 457.64C1071.52 457.04 1071.29 456.133 1071.29 454.92ZM1072.67 454.92C1072.67 456.547 1073.12 457.36 1074.01 457.36C1074.9 457.36 1075.35 456.547 1075.35 454.92C1075.35 453.293 1074.9 452.48 1074.01 452.48C1073.12 452.48 1072.67 453.293 1072.67 454.92ZM1079.39 461.54C1079.39 460.327 1079.62 459.427 1080.09 458.84C1080.56 458.24 1081.23 457.94 1082.11 457.94C1082.99 457.94 1083.66 458.24 1084.13 458.84C1084.6 459.427 1084.83 460.327 1084.83 461.54C1084.83 462.753 1084.6 463.66 1084.13 464.26C1083.66 464.847 1082.99 465.14 1082.11 465.14C1081.23 465.14 1080.56 464.847 1080.09 464.26C1079.62 463.66 1079.39 462.753 1079.39 461.54ZM1080.77 461.54C1080.77 463.167 1081.22 463.98 1082.11 463.98C1083 463.98 1083.45 463.167 1083.45 461.54C1083.45 459.913 1083 459.1 1082.11 459.1C1081.22 459.1 1080.77 459.913 1080.77 461.54ZM1094.91 456.62V461.4C1094.91 461.84 1094.93 462.22 1094.97 462.54C1095.01 462.86 1095.09 463.127 1095.21 463.34C1095.34 463.54 1095.52 463.687 1095.75 463.78C1095.99 463.873 1096.31 463.92 1096.71 463.92C1097 463.92 1097.29 463.887 1097.57 463.82C1097.86 463.753 1098.14 463.673 1098.41 463.58L1098.71 464.74C1097.91 465.047 1097.1 465.2 1096.29 465.2C1095.7 465.2 1095.21 465.12 1094.83 464.96C1094.45 464.8 1094.15 464.58 1093.93 464.3C1093.71 464.007 1093.57 463.66 1093.49 463.26C1093.41 462.847 1093.37 462.393 1093.37 461.9V456.62H1091.79V455.32H1093.37V453.28L1094.91 453V455.32H1098.33V456.62H1094.91ZM1101.7 455.32L1101.88 456.6C1102.32 456.12 1102.81 455.753 1103.36 455.5C1103.91 455.247 1104.46 455.12 1105.02 455.12C1105.25 455.12 1105.44 455.14 1105.6 455.18C1105.77 455.207 1105.95 455.253 1106.14 455.32V456.68C1105.74 456.52 1105.32 456.44 1104.88 456.44C1104.37 456.44 1103.87 456.58 1103.36 456.86C1102.85 457.14 1102.42 457.493 1102.06 457.92V465H1100.54V455.32H1101.7ZM1114.53 465H1113.39L1113.15 464.1C1112.75 464.447 1112.28 464.72 1111.73 464.92C1111.2 465.107 1110.61 465.2 1109.97 465.2C1108.97 465.2 1108.22 464.947 1107.71 464.44C1107.22 463.92 1106.97 463.18 1106.97 462.22C1106.97 461.233 1107.28 460.507 1107.89 460.04C1108.51 459.56 1109.53 459.32 1110.97 459.32C1111.4 459.32 1111.77 459.327 1112.09 459.34C1112.43 459.353 1112.73 459.38 1113.01 459.42V458.88C1113.01 457.987 1112.84 457.353 1112.49 456.98C1112.15 456.593 1111.53 456.4 1110.65 456.4C1110.24 456.4 1109.79 456.473 1109.29 456.62C1108.81 456.753 1108.33 456.953 1107.83 457.22L1107.37 456.06C1107.91 455.767 1108.47 455.54 1109.07 455.38C1109.67 455.207 1110.29 455.12 1110.93 455.12C1111.61 455.12 1112.18 455.187 1112.63 455.32C1113.1 455.453 1113.47 455.673 1113.75 455.98C1114.03 456.273 1114.23 456.653 1114.35 457.12C1114.47 457.587 1114.53 458.16 1114.53 458.84V465ZM1110.39 463.94C1110.83 463.94 1111.29 463.847 1111.75 463.66C1112.23 463.46 1112.65 463.2 1113.01 462.88V460.66C1112.67 460.62 1112.32 460.593 1111.97 460.58C1111.63 460.553 1111.24 460.54 1110.81 460.54C1109.97 460.54 1109.37 460.667 1109.01 460.92C1108.67 461.173 1108.49 461.6 1108.49 462.2C1108.49 462.773 1108.64 463.207 1108.93 463.5C1109.23 463.793 1109.71 463.94 1110.39 463.94ZM1121.34 463.92C1122.27 463.92 1123.11 463.687 1123.84 463.22L1124.28 464.44C1123.89 464.667 1123.45 464.853 1122.94 465C1122.45 465.133 1121.91 465.2 1121.34 465.2C1119.75 465.2 1118.59 464.807 1117.86 464.02C1117.13 463.22 1116.76 461.933 1116.76 460.16C1116.76 458.427 1117.11 457.153 1117.82 456.34C1118.53 455.527 1119.63 455.12 1121.14 455.12C1122.43 455.12 1123.49 455.513 1124.32 456.3L1123.48 457.34C1123.19 457.047 1122.84 456.82 1122.44 456.66C1122.05 456.487 1121.63 456.4 1121.18 456.4C1120.22 456.4 1119.49 456.693 1119 457.28C1118.52 457.853 1118.28 458.813 1118.28 460.16C1118.28 461.507 1118.53 462.473 1119.04 463.06C1119.55 463.633 1120.31 463.92 1121.34 463.92ZM1126.34 465V451.08L1127.88 450.88V459.1H1128.82L1132.44 455.32H1134.3L1130.04 459.76L1134.42 465H1132.56L1128.8 460.4H1127.88V465H1126.34ZM1136.27 455.32H1137.79V465H1136.27V455.32ZM1136.25 451.16H1137.79V453.16H1136.25V451.16ZM1142.17 456.3C1142.63 455.94 1143.13 455.653 1143.67 455.44C1144.22 455.227 1144.79 455.12 1145.39 455.12C1146.51 455.12 1147.31 455.393 1147.79 455.94C1148.29 456.473 1148.53 457.347 1148.53 458.56V465H1147.01V458.98C1147.01 458.02 1146.85 457.353 1146.53 456.98C1146.23 456.607 1145.75 456.42 1145.09 456.42C1144.16 456.42 1143.23 456.76 1142.29 457.44V465H1140.77V455.32H1141.91L1142.17 456.3ZM1158.86 455.32V465.12C1158.86 466.6 1158.5 467.673 1157.78 468.34C1157.08 469.02 1156.02 469.36 1154.6 469.36C1154.04 469.36 1153.51 469.313 1153 469.22C1152.5 469.14 1152.05 469.027 1151.66 468.88L1151.98 467.62C1152.74 467.913 1153.61 468.06 1154.58 468.06C1155.54 468.06 1156.24 467.84 1156.66 467.4C1157.1 466.96 1157.32 466.24 1157.32 465.24V464.24C1156.99 464.547 1156.58 464.787 1156.1 464.96C1155.64 465.12 1155.12 465.2 1154.56 465.2C1153.31 465.2 1152.36 464.793 1151.7 463.98C1151.06 463.167 1150.74 461.893 1150.74 460.16C1150.74 458.44 1151.08 457.173 1151.74 456.36C1152.41 455.533 1153.4 455.12 1154.72 455.12C1155.28 455.12 1155.8 455.213 1156.26 455.4C1156.73 455.587 1157.14 455.84 1157.48 456.16L1157.72 455.32H1158.86ZM1154.96 456.4C1154.04 456.4 1153.36 456.693 1152.92 457.28C1152.5 457.867 1152.28 458.827 1152.28 460.16C1152.28 461.507 1152.5 462.473 1152.92 463.06C1153.36 463.647 1154.04 463.94 1154.96 463.94C1155.43 463.94 1155.86 463.847 1156.26 463.66C1156.68 463.473 1157.03 463.22 1157.32 462.9V457.44C1157.03 457.12 1156.68 456.867 1156.26 456.68C1155.86 456.493 1155.43 456.4 1154.96 456.4Z" fill="#F7F3EB"/>
<path d="M1059.58 562.7V564H1051.62V550.56H1053.16V562.7H1059.58ZM1066.5 562.9C1067.03 562.9 1067.54 562.867 1068.04 562.8C1068.54 562.72 1069.02 562.607 1069.48 562.46V558.42H1066.04V557.12H1071V563.34C1070.4 563.567 1069.69 563.767 1068.88 563.94C1068.06 564.113 1067.26 564.2 1066.46 564.2C1065.35 564.2 1064.4 564.053 1063.62 563.76C1062.84 563.453 1062.21 563.013 1061.72 562.44C1061.22 561.853 1060.86 561.133 1060.64 560.28C1060.42 559.413 1060.32 558.413 1060.32 557.28C1060.32 554.907 1060.8 553.16 1061.78 552.04C1062.76 550.92 1064.22 550.36 1066.14 550.36C1067.22 550.36 1068.15 550.527 1068.94 550.86C1069.72 551.18 1070.38 551.62 1070.9 552.18L1069.98 553.22C1069.48 552.7 1068.93 552.313 1068.32 552.06C1067.7 551.807 1066.98 551.68 1066.14 551.68C1064.71 551.68 1063.64 552.133 1062.92 553.04C1062.21 553.933 1061.86 555.347 1061.86 557.28C1061.86 559.2 1062.22 560.62 1062.94 561.54C1063.66 562.447 1064.84 562.9 1066.5 562.9ZM1088.04 562.7V564H1079.78V550.56H1087.84V551.88H1081.32V556.34H1087.6V557.64H1081.32V562.7H1088.04ZM1091.06 550.56H1092.6V564H1091.06V550.56ZM1111.92 550.56V564H1110.36V557.62H1103.2V564H1101.66V550.56H1103.2V556.3H1110.36V550.56H1111.92ZM1118.8 564.2C1117.22 564.2 1116.1 563.793 1115.44 562.98C1114.78 562.153 1114.46 560.88 1114.46 559.16C1114.46 557.427 1114.79 556.153 1115.46 555.34C1116.12 554.527 1117.14 554.12 1118.52 554.12C1119.89 554.12 1120.91 554.52 1121.58 555.32C1122.24 556.107 1122.58 557.36 1122.58 559.08V559.72H1116.02C1116.07 560.867 1116.32 561.687 1116.76 562.18C1117.2 562.673 1117.88 562.92 1118.82 562.92C1119.38 562.92 1119.92 562.84 1120.46 562.68C1121 562.507 1121.51 562.273 1121.98 561.98L1122.48 563.2C1121.97 563.507 1121.4 563.753 1120.76 563.94C1120.13 564.113 1119.48 564.2 1118.8 564.2ZM1121.02 558.48C1120.95 557.44 1120.72 556.673 1120.32 556.18C1119.92 555.673 1119.32 555.42 1118.52 555.42C1117.72 555.42 1117.12 555.673 1116.72 556.18C1116.32 556.673 1116.08 557.44 1116.02 558.48H1121.02ZM1131.96 564H1130.82L1130.58 563.1C1130.18 563.447 1129.7 563.72 1129.16 563.92C1128.62 564.107 1128.04 564.2 1127.4 564.2C1126.4 564.2 1125.64 563.947 1125.14 563.44C1124.64 562.92 1124.4 562.18 1124.4 561.22C1124.4 560.233 1124.7 559.507 1125.32 559.04C1125.93 558.56 1126.96 558.32 1128.4 558.32C1128.82 558.32 1129.2 558.327 1129.52 558.34C1129.85 558.353 1130.16 558.38 1130.44 558.42V557.88C1130.44 556.987 1130.26 556.353 1129.92 555.98C1129.57 555.593 1128.96 555.4 1128.08 555.4C1127.66 555.4 1127.21 555.473 1126.72 555.62C1126.24 555.753 1125.75 555.953 1125.26 556.22L1124.8 555.06C1125.33 554.767 1125.9 554.54 1126.5 554.38C1127.1 554.207 1127.72 554.12 1128.36 554.12C1129.04 554.12 1129.6 554.187 1130.06 554.32C1130.52 554.453 1130.9 554.673 1131.18 554.98C1131.46 555.273 1131.66 555.653 1131.78 556.12C1131.9 556.587 1131.96 557.16 1131.96 557.84V564ZM1127.82 562.94C1128.26 562.94 1128.71 562.847 1129.18 562.66C1129.66 562.46 1130.08 562.2 1130.44 561.88V559.66C1130.09 559.62 1129.74 559.593 1129.4 559.58C1129.05 559.553 1128.66 559.54 1128.24 559.54C1127.4 559.54 1126.8 559.667 1126.44 559.92C1126.09 560.173 1125.92 560.6 1125.92 561.2C1125.92 561.773 1126.06 562.207 1126.36 562.5C1126.65 562.793 1127.14 562.94 1127.82 562.94ZM1142.28 549.88V564H1141.14L1140.9 563.18C1140.56 563.5 1140.15 563.753 1139.68 563.94C1139.22 564.113 1138.7 564.2 1138.14 564.2C1136.82 564.2 1135.83 563.793 1135.16 562.98C1134.5 562.167 1134.16 560.893 1134.16 559.16C1134.16 557.44 1134.48 556.173 1135.12 555.36C1135.78 554.533 1136.73 554.12 1137.98 554.12C1138.54 554.12 1139.06 554.207 1139.52 554.38C1140 554.553 1140.41 554.793 1140.74 555.1V550.08L1142.28 549.88ZM1138.38 562.94C1138.85 562.94 1139.28 562.847 1139.68 562.66C1140.1 562.473 1140.45 562.22 1140.74 561.9V556.44C1140.45 556.12 1140.1 555.867 1139.68 555.68C1139.28 555.493 1138.85 555.4 1138.38 555.4C1137.46 555.4 1136.78 555.693 1136.34 556.28C1135.92 556.867 1135.7 557.827 1135.7 559.16C1135.7 560.507 1135.92 561.473 1136.34 562.06C1136.78 562.647 1137.46 562.94 1138.38 562.94ZM1147.77 564.14C1147.7 564.167 1147.61 564.18 1147.49 564.18C1147.37 564.193 1147.27 564.2 1147.19 564.2C1146.51 564.2 1146.02 564 1145.71 563.6C1145.42 563.187 1145.27 562.56 1145.27 561.72V550.12L1146.79 549.88V561.5C1146.79 561.807 1146.8 562.053 1146.83 562.24C1146.86 562.427 1146.9 562.573 1146.97 562.68C1147.05 562.787 1147.15 562.86 1147.27 562.9C1147.4 562.927 1147.57 562.94 1147.77 562.94V564.14ZM1150.14 554.32H1151.66V564H1150.14V554.32ZM1150.12 550.16H1151.66V552.16H1150.12V550.16ZM1156.04 555.3C1156.5 554.94 1157 554.653 1157.54 554.44C1158.09 554.227 1158.66 554.12 1159.26 554.12C1160.38 554.12 1161.18 554.393 1161.66 554.94C1162.16 555.473 1162.4 556.347 1162.4 557.56V564H1160.88V557.98C1160.88 557.02 1160.72 556.353 1160.4 555.98C1160.1 555.607 1159.62 555.42 1158.96 555.42C1158.03 555.42 1157.1 555.76 1156.16 556.44V564H1154.64V554.32H1155.78L1156.04 555.3ZM1168.95 564.2C1167.38 564.2 1166.26 563.793 1165.59 562.98C1164.94 562.153 1164.61 560.88 1164.61 559.16C1164.61 557.427 1164.94 556.153 1165.61 555.34C1166.28 554.527 1167.3 554.12 1168.67 554.12C1170.04 554.12 1171.06 554.52 1171.73 555.32C1172.4 556.107 1172.73 557.36 1172.73 559.08V559.72H1166.17C1166.22 560.867 1166.47 561.687 1166.91 562.18C1167.35 562.673 1168.04 562.92 1168.97 562.92C1169.53 562.92 1170.08 562.84 1170.61 562.68C1171.16 562.507 1171.66 562.273 1172.13 561.98L1172.63 563.2C1172.12 563.507 1171.55 563.753 1170.91 563.94C1170.28 564.113 1169.63 564.2 1168.95 564.2ZM1171.17 558.48C1171.1 557.44 1170.87 556.673 1170.47 556.18C1170.07 555.673 1169.47 555.42 1168.67 555.42C1167.87 555.42 1167.27 555.673 1166.87 556.18C1166.47 556.673 1166.24 557.44 1166.17 558.48H1171.17ZM1059.58 589.7V591H1051.62V577.56H1053.16V589.7H1059.58ZM1061.39 581.32H1062.91V591H1061.39V581.32ZM1061.37 577.16H1062.91V579.16H1061.37V577.16ZM1073.55 581.32V591.12C1073.55 592.6 1073.19 593.673 1072.47 594.34C1071.77 595.02 1070.71 595.36 1069.29 595.36C1068.73 595.36 1068.2 595.313 1067.69 595.22C1067.19 595.14 1066.74 595.027 1066.35 594.88L1066.67 593.62C1067.43 593.913 1068.3 594.06 1069.27 594.06C1070.23 594.06 1070.93 593.84 1071.35 593.4C1071.79 592.96 1072.01 592.24 1072.01 591.24V590.24C1071.68 590.547 1071.27 590.787 1070.79 590.96C1070.33 591.12 1069.81 591.2 1069.25 591.2C1068 591.2 1067.05 590.793 1066.39 589.98C1065.75 589.167 1065.43 587.893 1065.43 586.16C1065.43 584.44 1065.77 583.173 1066.43 582.36C1067.1 581.533 1068.09 581.12 1069.41 581.12C1069.97 581.12 1070.49 581.213 1070.95 581.4C1071.42 581.587 1071.83 581.84 1072.17 582.16L1072.41 581.32H1073.55ZM1069.65 582.4C1068.73 582.4 1068.05 582.693 1067.61 583.28C1067.19 583.867 1066.97 584.827 1066.97 586.16C1066.97 587.507 1067.19 588.473 1067.61 589.06C1068.05 589.647 1068.73 589.94 1069.65 589.94C1070.12 589.94 1070.55 589.847 1070.95 589.66C1071.37 589.473 1071.72 589.22 1072.01 588.9V583.44C1071.72 583.12 1071.37 582.867 1070.95 582.68C1070.55 582.493 1070.12 582.4 1069.65 582.4ZM1077.86 582.2C1078.78 581.48 1079.81 581.12 1080.96 581.12C1082.08 581.12 1082.88 581.387 1083.36 581.92C1083.85 582.44 1084.1 583.32 1084.1 584.56V591H1082.58V584.98C1082.58 584.02 1082.42 583.353 1082.1 582.98C1081.79 582.607 1081.31 582.42 1080.66 582.42C1079.73 582.42 1078.79 582.76 1077.86 583.44V591H1076.34V577.08L1077.86 576.88V582.2ZM1088.93 582.62V587.4C1088.93 587.84 1088.95 588.22 1088.99 588.54C1089.03 588.86 1089.11 589.127 1089.23 589.34C1089.36 589.54 1089.54 589.687 1089.77 589.78C1090.01 589.873 1090.33 589.92 1090.73 589.92C1091.02 589.92 1091.31 589.887 1091.59 589.82C1091.88 589.753 1092.16 589.673 1092.43 589.58L1092.73 590.74C1091.93 591.047 1091.12 591.2 1090.31 591.2C1089.72 591.2 1089.24 591.12 1088.85 590.96C1088.48 590.8 1088.18 590.58 1087.95 590.3C1087.74 590.007 1087.59 589.66 1087.51 589.26C1087.43 588.847 1087.39 588.393 1087.39 587.9V582.62H1085.81V581.32H1087.39V579.28L1088.93 579V581.32H1092.35V582.62H1088.93ZM1093.42 593.6C1093.74 592.987 1093.99 592.38 1094.16 591.78C1094.34 591.18 1094.42 590.5 1094.42 589.74H1095.92C1095.92 590.22 1095.89 590.66 1095.82 591.06C1095.76 591.473 1095.66 591.853 1095.54 592.2C1095.42 592.56 1095.28 592.9 1095.1 593.22C1094.93 593.553 1094.73 593.887 1094.5 594.22L1093.42 593.6ZM1105.91 578.88V584.02H1109.05C1110.05 584.02 1110.78 583.8 1111.23 583.36C1111.69 582.92 1111.91 582.28 1111.91 581.44C1111.91 580.56 1111.69 579.913 1111.23 579.5C1110.79 579.087 1110.09 578.88 1109.11 578.88H1105.91ZM1104.37 591V577.56H1109.01C1110.57 577.56 1111.71 577.887 1112.41 578.54C1113.13 579.18 1113.49 580.147 1113.49 581.44C1113.49 583.333 1112.63 584.54 1110.89 585.06L1113.85 591H1112.19L1109.37 585.32H1105.91V591H1104.37ZM1119.73 591.2C1118.16 591.2 1117.04 590.793 1116.37 589.98C1115.72 589.153 1115.39 587.88 1115.39 586.16C1115.39 584.427 1115.73 583.153 1116.39 582.34C1117.06 581.527 1118.08 581.12 1119.45 581.12C1120.83 581.12 1121.85 581.52 1122.51 582.32C1123.18 583.107 1123.51 584.36 1123.51 586.08V586.72H1116.95C1117.01 587.867 1117.25 588.687 1117.69 589.18C1118.13 589.673 1118.82 589.92 1119.75 589.92C1120.31 589.92 1120.86 589.84 1121.39 589.68C1121.94 589.507 1122.45 589.273 1122.91 588.98L1123.41 590.2C1122.91 590.507 1122.33 590.753 1121.69 590.94C1121.07 591.113 1120.41 591.2 1119.73 591.2ZM1121.95 585.48C1121.89 584.44 1121.65 583.673 1121.25 583.18C1120.85 582.673 1120.25 582.42 1119.45 582.42C1118.65 582.42 1118.05 582.673 1117.65 583.18C1117.25 583.673 1117.02 584.44 1116.95 585.48H1121.95ZM1133.51 581.32V591.12C1133.51 592.6 1133.15 593.673 1132.43 594.34C1131.73 595.02 1130.67 595.36 1129.25 595.36C1128.69 595.36 1128.16 595.313 1127.65 595.22C1127.15 595.14 1126.7 595.027 1126.31 594.88L1126.63 593.62C1127.39 593.913 1128.26 594.06 1129.23 594.06C1130.19 594.06 1130.89 593.84 1131.31 593.4C1131.75 592.96 1131.97 592.24 1131.97 591.24V590.24C1131.64 590.547 1131.23 590.787 1130.75 590.96C1130.29 591.12 1129.77 591.2 1129.21 591.2C1127.96 591.2 1127.01 590.793 1126.35 589.98C1125.71 589.167 1125.39 587.893 1125.39 586.16C1125.39 584.44 1125.73 583.173 1126.39 582.36C1127.06 581.533 1128.05 581.12 1129.37 581.12C1129.93 581.12 1130.45 581.213 1130.91 581.4C1131.38 581.587 1131.79 581.84 1132.13 582.16L1132.37 581.32H1133.51ZM1129.61 582.4C1128.69 582.4 1128.01 582.693 1127.57 583.28C1127.15 583.867 1126.93 584.827 1126.93 586.16C1126.93 587.507 1127.15 588.473 1127.57 589.06C1128.01 589.647 1128.69 589.94 1129.61 589.94C1130.08 589.94 1130.51 589.847 1130.91 589.66C1131.33 589.473 1131.68 589.22 1131.97 588.9V583.44C1131.68 583.12 1131.33 582.867 1130.91 582.68C1130.51 582.493 1130.08 582.4 1129.61 582.4ZM1142.58 590.04C1142.13 590.4 1141.63 590.687 1141.08 590.9C1140.54 591.1 1139.96 591.2 1139.36 591.2C1138.24 591.2 1137.44 590.933 1136.94 590.4C1136.45 589.867 1136.2 588.993 1136.2 587.78V581.32H1137.74V587.36C1137.74 588.32 1137.9 588.987 1138.2 589.36C1138.52 589.733 1139.01 589.92 1139.66 589.92C1140.6 589.92 1141.52 589.58 1142.44 588.9V581.32H1143.98V591H1142.82L1142.58 590.04ZM1149.47 591.14C1149.4 591.167 1149.31 591.18 1149.19 591.18C1149.07 591.193 1148.97 591.2 1148.89 591.2C1148.21 591.2 1147.72 591 1147.41 590.6C1147.12 590.187 1146.97 589.56 1146.97 588.72V577.12L1148.49 576.88V588.5C1148.49 588.807 1148.5 589.053 1148.53 589.24C1148.56 589.427 1148.6 589.573 1148.67 589.68C1148.75 589.787 1148.85 589.86 1148.97 589.9C1149.1 589.927 1149.27 589.94 1149.47 589.94V591.14ZM1158.93 591H1157.79L1157.55 590.1C1157.15 590.447 1156.67 590.72 1156.13 590.92C1155.59 591.107 1155.01 591.2 1154.37 591.2C1153.37 591.2 1152.61 590.947 1152.11 590.44C1151.61 589.92 1151.37 589.18 1151.37 588.22C1151.37 587.233 1151.67 586.507 1152.29 586.04C1152.9 585.56 1153.93 585.32 1155.37 585.32C1155.79 585.32 1156.17 585.327 1156.49 585.34C1156.82 585.353 1157.13 585.38 1157.41 585.42V584.88C1157.41 583.987 1157.23 583.353 1156.89 582.98C1156.54 582.593 1155.93 582.4 1155.05 582.4C1154.63 582.4 1154.18 582.473 1153.69 582.62C1153.21 582.753 1152.72 582.953 1152.23 583.22L1151.77 582.06C1152.3 581.767 1152.87 581.54 1153.47 581.38C1154.07 581.207 1154.69 581.12 1155.33 581.12C1156.01 581.12 1156.57 581.187 1157.03 581.32C1157.49 581.453 1157.87 581.673 1158.15 581.98C1158.43 582.273 1158.63 582.653 1158.75 583.12C1158.87 583.587 1158.93 584.16 1158.93 584.84V591ZM1154.79 589.94C1155.23 589.94 1155.68 589.847 1156.15 589.66C1156.63 589.46 1157.05 589.2 1157.41 588.88V586.66C1157.06 586.62 1156.71 586.593 1156.37 586.58C1156.02 586.553 1155.63 586.54 1155.21 586.54C1154.37 586.54 1153.77 586.667 1153.41 586.92C1153.06 587.173 1152.89 587.6 1152.89 588.2C1152.89 588.773 1153.03 589.207 1153.33 589.5C1153.62 589.793 1154.11 589.94 1154.79 589.94ZM1162.75 581.32L1162.93 582.6C1163.37 582.12 1163.87 581.753 1164.41 581.5C1164.96 581.247 1165.51 581.12 1166.07 581.12C1166.3 581.12 1166.49 581.14 1166.65 581.18C1166.83 581.207 1167.01 581.253 1167.19 581.32V582.68C1166.79 582.52 1166.37 582.44 1165.93 582.44C1165.43 582.44 1164.92 582.58 1164.41 582.86C1163.91 583.14 1163.47 583.493 1163.11 583.92V591H1161.59V581.32H1162.75ZM1056.54 612.44V615.74H1055.14V612.44H1051.72V611.12H1055.14V607.84H1056.54V611.12H1060V612.44H1056.54ZM1066.34 618V606.16L1062.96 608.44L1062.2 607.3L1066.34 604.56H1067.9V618H1066.34ZM1073.89 618.6H1072.45L1082.19 603.88H1083.61L1073.89 618.6ZM1071.29 607.92C1071.29 606.707 1071.52 605.807 1071.99 605.22C1072.46 604.62 1073.13 604.32 1074.01 604.32C1074.89 604.32 1075.56 604.62 1076.03 605.22C1076.5 605.807 1076.73 606.707 1076.73 607.92C1076.73 609.133 1076.5 610.04 1076.03 610.64C1075.56 611.24 1074.89 611.54 1074.01 611.54C1073.13 611.54 1072.46 611.24 1071.99 610.64C1071.52 610.04 1071.29 609.133 1071.29 607.92ZM1072.67 607.92C1072.67 609.547 1073.12 610.36 1074.01 610.36C1074.9 610.36 1075.35 609.547 1075.35 607.92C1075.35 606.293 1074.9 605.48 1074.01 605.48C1073.12 605.48 1072.67 606.293 1072.67 607.92ZM1079.39 614.54C1079.39 613.327 1079.62 612.427 1080.09 611.84C1080.56 611.24 1081.23 610.94 1082.11 610.94C1082.99 610.94 1083.66 611.24 1084.13 611.84C1084.6 612.427 1084.83 613.327 1084.83 614.54C1084.83 615.753 1084.6 616.66 1084.13 617.26C1083.66 617.847 1082.99 618.14 1082.11 618.14C1081.23 618.14 1080.56 617.847 1080.09 617.26C1079.62 616.66 1079.39 615.753 1079.39 614.54ZM1080.77 614.54C1080.77 616.167 1081.22 616.98 1082.11 616.98C1083 616.98 1083.45 616.167 1083.45 614.54C1083.45 612.913 1083 612.1 1082.11 612.1C1081.22 612.1 1080.77 612.913 1080.77 614.54ZM1094.91 609.62V614.4C1094.91 614.84 1094.93 615.22 1094.97 615.54C1095.01 615.86 1095.09 616.127 1095.21 616.34C1095.34 616.54 1095.52 616.687 1095.75 616.78C1095.99 616.873 1096.31 616.92 1096.71 616.92C1097 616.92 1097.29 616.887 1097.57 616.82C1097.86 616.753 1098.14 616.673 1098.41 616.58L1098.71 617.74C1097.91 618.047 1097.1 618.2 1096.29 618.2C1095.7 618.2 1095.21 618.12 1094.83 617.96C1094.45 617.8 1094.15 617.58 1093.93 617.3C1093.71 617.007 1093.57 616.66 1093.49 616.26C1093.41 615.847 1093.37 615.393 1093.37 614.9V609.62H1091.79V608.32H1093.37V606.28L1094.91 606V608.32H1098.33V609.62H1094.91ZM1101.7 608.32L1101.88 609.6C1102.32 609.12 1102.81 608.753 1103.36 608.5C1103.91 608.247 1104.46 608.12 1105.02 608.12C1105.25 608.12 1105.44 608.14 1105.6 608.18C1105.77 608.207 1105.95 608.253 1106.14 608.32V609.68C1105.74 609.52 1105.32 609.44 1104.88 609.44C1104.37 609.44 1103.87 609.58 1103.36 609.86C1102.85 610.14 1102.42 610.493 1102.06 610.92V618H1100.54V608.32H1101.7ZM1114.53 618H1113.39L1113.15 617.1C1112.75 617.447 1112.28 617.72 1111.73 617.92C1111.2 618.107 1110.61 618.2 1109.97 618.2C1108.97 618.2 1108.22 617.947 1107.71 617.44C1107.22 616.92 1106.97 616.18 1106.97 615.22C1106.97 614.233 1107.28 613.507 1107.89 613.04C1108.51 612.56 1109.53 612.32 1110.97 612.32C1111.4 612.32 1111.77 612.327 1112.09 612.34C1112.43 612.353 1112.73 612.38 1113.01 612.42V611.88C1113.01 610.987 1112.84 610.353 1112.49 609.98C1112.15 609.593 1111.53 609.4 1110.65 609.4C1110.24 609.4 1109.79 609.473 1109.29 609.62C1108.81 609.753 1108.33 609.953 1107.83 610.22L1107.37 609.06C1107.91 608.767 1108.47 608.54 1109.07 608.38C1109.67 608.207 1110.29 608.12 1110.93 608.12C1111.61 608.12 1112.18 608.187 1112.63 608.32C1113.1 608.453 1113.47 608.673 1113.75 608.98C1114.03 609.273 1114.23 609.653 1114.35 610.12C1114.47 610.587 1114.53 611.16 1114.53 611.84V618ZM1110.39 616.94C1110.83 616.94 1111.29 616.847 1111.75 616.66C1112.23 616.46 1112.65 616.2 1113.01 615.88V613.66C1112.67 613.62 1112.32 613.593 1111.97 613.58C1111.63 613.553 1111.24 613.54 1110.81 613.54C1109.97 613.54 1109.37 613.667 1109.01 613.92C1108.67 614.173 1108.49 614.6 1108.49 615.2C1108.49 615.773 1108.64 616.207 1108.93 616.5C1109.23 616.793 1109.71 616.94 1110.39 616.94ZM1121.34 616.92C1122.27 616.92 1123.11 616.687 1123.84 616.22L1124.28 617.44C1123.89 617.667 1123.45 617.853 1122.94 618C1122.45 618.133 1121.91 618.2 1121.34 618.2C1119.75 618.2 1118.59 617.807 1117.86 617.02C1117.13 616.22 1116.76 614.933 1116.76 613.16C1116.76 611.427 1117.11 610.153 1117.82 609.34C1118.53 608.527 1119.63 608.12 1121.14 608.12C1122.43 608.12 1123.49 608.513 1124.32 609.3L1123.48 610.34C1123.19 610.047 1122.84 609.82 1122.44 609.66C1122.05 609.487 1121.63 609.4 1121.18 609.4C1120.22 609.4 1119.49 609.693 1119 610.28C1118.52 610.853 1118.28 611.813 1118.28 613.16C1118.28 614.507 1118.53 615.473 1119.04 616.06C1119.55 616.633 1120.31 616.92 1121.34 616.92ZM1126.34 618V604.08L1127.88 603.88V612.1H1128.82L1132.44 608.32H1134.3L1130.04 612.76L1134.42 618H1132.56L1128.8 613.4H1127.88V618H1126.34ZM1136.27 608.32H1137.79V618H1136.27V608.32ZM1136.25 604.16H1137.79V606.16H1136.25V604.16ZM1142.17 609.3C1142.63 608.94 1143.13 608.653 1143.67 608.44C1144.22 608.227 1144.79 608.12 1145.39 608.12C1146.51 608.12 1147.31 608.393 1147.79 608.94C1148.29 609.473 1148.53 610.347 1148.53 611.56V618H1147.01V611.98C1147.01 611.02 1146.85 610.353 1146.53 609.98C1146.23 609.607 1145.75 609.42 1145.09 609.42C1144.16 609.42 1143.23 609.76 1142.29 610.44V618H1140.77V608.32H1141.91L1142.17 609.3ZM1158.86 608.32V618.12C1158.86 619.6 1158.5 620.673 1157.78 621.34C1157.08 622.02 1156.02 622.36 1154.6 622.36C1154.04 622.36 1153.51 622.313 1153 622.22C1152.5 622.14 1152.05 622.027 1151.66 621.88L1151.98 620.62C1152.74 620.913 1153.61 621.06 1154.58 621.06C1155.54 621.06 1156.24 620.84 1156.66 620.4C1157.1 619.96 1157.32 619.24 1157.32 618.24V617.24C1156.99 617.547 1156.58 617.787 1156.1 617.96C1155.64 618.12 1155.12 618.2 1154.56 618.2C1153.31 618.2 1152.36 617.793 1151.7 616.98C1151.06 616.167 1150.74 614.893 1150.74 613.16C1150.74 611.44 1151.08 610.173 1151.74 609.36C1152.41 608.533 1153.4 608.12 1154.72 608.12C1155.28 608.12 1155.8 608.213 1156.26 608.4C1156.73 608.587 1157.14 608.84 1157.48 609.16L1157.72 608.32H1158.86ZM1154.96 609.4C1154.04 609.4 1153.36 609.693 1152.92 610.28C1152.5 610.867 1152.28 611.827 1152.28 613.16C1152.28 614.507 1152.5 615.473 1152.92 616.06C1153.36 616.647 1154.04 616.94 1154.96 616.94C1155.43 616.94 1155.86 616.847 1156.26 616.66C1156.68 616.473 1157.03 616.22 1157.32 615.9V610.44C1157.03 610.12 1156.68 609.867 1156.26 609.68C1155.86 609.493 1155.43 609.4 1154.96 609.4Z" fill="#F7F3EB"/>
<path opacity="0.5" d="M292 138L1388 138" stroke="#9E9E9E" stroke-width="0.8"/>
<path opacity="0.5" d="M292 370L1388 370" stroke="#9E9E9E" stroke-width="0.8"/>
<path opacity="0.5" d="M292 523L1388 523" stroke="#9E9E9E" stroke-width="0.8"/>
</svg>
