<svg width="1200" height="593" viewBox="0 0 1200 593" fill="none" xmlns="http://www.w3.org/2000/svg">
<rect width="1200" height="592.857" rx="21.4286" fill="#262626"/>
<path d="M245.374 218.571H232.689V153.2H210.06V141.771H268.117V153.2H245.374V218.571ZM276.712 154.228V141.771H289.397V154.228H276.712ZM276.712 218.571V162.8H289.397V218.571H276.712ZM297.948 162.8H306.405V148.628H319.091V162.8H332.463V173.886H319.091V203.371C319.091 207.028 320.463 207.828 324.234 207.828H332.463V218.571H322.863C314.063 218.571 306.405 214.686 306.405 204.514V173.886H297.948V162.8ZM356.009 219.714C347.209 219.714 341.609 216.171 341.609 206.686V141.771H354.295V204.514C354.295 208.171 355.438 208.971 358.752 208.971H360.923V219.714H356.009ZM420.525 202.343C416.754 213.543 406.354 220.171 394.011 220.171C377.897 220.171 365.439 208.4 365.439 190.571C365.439 172.971 377.897 161.314 393.668 161.314C407.725 161.314 421.554 171.028 421.554 190.8V194.343H378.125C379.039 205.428 383.839 208.971 394.011 208.971C401.782 208.971 405.554 207.143 407.839 202.343H420.525ZM378.354 184.971H409.097C408.068 175.943 403.497 172.4 393.668 172.4C384.411 172.4 379.611 175.6 378.354 184.971Z" fill="#F7F3EB"/>
<path d="M221.26 351.857H213.289V294.257H221.26V319.028H250.06V294.257H257.946V351.857H250.06V326.143H221.26V351.857ZM305.848 339.943C303.105 348.257 295.734 352.886 286.734 352.886C274.991 352.886 265.648 344.4 265.648 331.028C265.648 317.743 274.991 309.171 286.305 309.171C296.505 309.171 306.791 316.286 306.791 331.028V333.343H273.448C274.048 342.771 278.419 345.943 286.734 345.943C293.162 345.943 296.334 344.4 298.134 339.943H305.848ZM273.534 327.343H299.162C298.391 319.028 294.191 316.114 286.305 316.114C278.762 316.114 274.476 318.943 273.534 327.343ZM331.671 352.886C320.614 352.886 311.957 343.971 311.957 331.028C311.957 318.171 320.614 309.171 331.671 309.171C337.5 309.171 342.214 311.486 345.386 315.514V310.286H353.1V351.857H346.5L345.814 346.028C342.557 350.4 337.757 352.886 331.671 352.886ZM319.671 331.028C319.671 341.571 324.043 345.943 332.786 345.943C341.443 345.943 345.814 341.571 345.814 331.028C345.814 320.486 341.443 316.114 332.786 316.114C324.043 316.114 319.671 320.486 319.671 331.028ZM394.206 294.257H401.92V351.857H395.32L394.634 346.028C391.377 350.4 386.577 352.886 380.492 352.886C369.434 352.886 360.777 343.971 360.777 331.028C360.777 318.171 369.434 309.171 380.492 309.171C386.32 309.171 391.034 311.486 394.206 315.514V294.257ZM368.492 331.028C368.492 341.571 372.692 345.943 381.606 345.943C390.52 345.943 394.634 341.571 394.634 331.028C394.634 320.486 390.52 316.114 381.606 316.114C372.692 316.114 368.492 320.486 368.492 331.028ZM422.026 352.714C416.198 352.714 412.169 350.4 412.169 343.971V294.257H419.883V342.686C419.883 345.428 420.741 346.028 423.226 346.028H425.283V352.714H422.026ZM431.441 302.571V294.257H439.156V302.571H431.441ZM431.441 351.857V310.286H439.156V351.857H431.441ZM478.515 326.657C478.515 319.114 475.172 316.114 467.972 316.114C460.687 316.114 457.087 319.114 457.087 326.657V351.857H449.458V310.286H456.058L456.744 315.943C459.487 311.743 464.03 309.171 470.03 309.171C479.887 309.171 486.144 316.457 486.144 327.257V351.857H478.515V326.657ZM533.647 339.943C530.904 348.257 523.533 352.886 514.533 352.886C502.79 352.886 493.447 344.4 493.447 331.028C493.447 317.743 502.79 309.171 514.104 309.171C524.304 309.171 534.59 316.286 534.59 331.028V333.343H501.247C501.847 342.771 506.218 345.943 514.533 345.943C520.961 345.943 524.133 344.4 525.933 339.943H533.647ZM501.333 327.343H526.961C526.19 319.028 521.99 316.114 514.104 316.114C506.561 316.114 502.276 318.943 501.333 327.343Z" fill="#F7F3EB"/>
<path d="M233.603 461.143C233.603 457.943 232.231 456.571 228.517 455.485L222.289 453.714C215.317 451.771 211.831 448.743 211.831 442.343C211.831 436.228 217.774 431.943 225.603 431.943C233.374 431.943 238.974 435.885 240.174 442.514H233.66C233.146 439.028 230.803 437.6 225.66 437.6C220.517 437.6 218.289 438.914 218.289 442.343C218.289 445.314 219.831 446.571 223.546 447.6L229.717 449.371C236.631 451.371 240.06 454.514 240.06 460.914C240.06 468.743 233.031 471.943 225.603 471.943C218.174 471.943 211.66 468.8 210.174 460.4H216.746C217.489 465.028 220.289 466.285 225.603 466.285C231.26 466.285 233.603 465.143 233.603 461.143ZM251.264 460.114C251.264 464.571 253.15 466.343 257.607 466.343C262.122 466.343 264.064 464.571 264.064 460.114V443.257H270.35V471.143H264.864L264.407 467.828C262.407 470.4 259.436 471.943 255.607 471.943C249.207 471.943 245.036 467.085 245.036 460V443.257H251.264V460.114ZM282.463 471.143H276.92V432.857H283.263V446C285.377 443.771 288.234 442.514 291.72 442.514C299.205 442.514 304.977 448.457 304.977 457.143C304.977 465.943 299.205 471.943 291.72 471.943C288.005 471.943 285.034 470.514 282.863 468L282.463 471.143ZM282.977 457.143C282.977 463.771 285.548 466.343 290.805 466.343C296.12 466.343 298.691 463.771 298.691 457.143C298.691 450.628 296.12 448.057 290.805 448.057C285.548 448.057 282.977 450.628 282.977 457.143ZM306.455 443.257H310.684V436.171H317.027V443.257H323.713V448.8H317.027V463.543C317.027 465.371 317.713 465.771 319.598 465.771H323.713V471.143H318.913C314.513 471.143 310.684 469.2 310.684 464.114V448.8H306.455V443.257ZM328.286 438.971V432.743H334.629V438.971H328.286ZM328.286 471.143V443.257H334.629V471.143H328.286ZM338.904 443.257H343.133V436.171H349.476V443.257H356.161V448.8H349.476V463.543C349.476 465.371 350.161 465.771 352.047 465.771H356.161V471.143H351.361C346.961 471.143 343.133 469.2 343.133 464.114V448.8H338.904V443.257ZM367.934 471.714C363.534 471.714 360.734 469.943 360.734 465.2V432.743H367.077V464.114C367.077 465.943 367.649 466.343 369.306 466.343H370.392V471.714H367.934ZM400.193 463.028C398.307 468.628 393.107 471.943 386.935 471.943C378.878 471.943 372.65 466.057 372.65 457.143C372.65 448.343 378.878 442.514 386.764 442.514C393.793 442.514 400.707 447.371 400.707 457.257V459.028H378.993C379.45 464.571 381.85 466.343 386.935 466.343C390.821 466.343 392.707 465.428 393.85 463.028H400.193ZM379.107 454.343H394.478C393.964 449.828 391.678 448.057 386.764 448.057C382.135 448.057 379.735 449.657 379.107 454.343Z" fill="#F7F3EB"/>
<path d="M756.847 147.643V148.571H751.161V138.971H752.261V147.643H756.847ZM761.788 147.786C762.169 147.786 762.535 147.762 762.888 147.714C763.25 147.657 763.592 147.576 763.916 147.471V144.586H761.459V143.657H765.002V148.1C764.573 148.262 764.069 148.405 763.488 148.528C762.907 148.652 762.331 148.714 761.759 148.714C760.969 148.714 760.292 148.609 759.731 148.4C759.178 148.181 758.726 147.867 758.373 147.457C758.021 147.038 757.764 146.524 757.602 145.914C757.45 145.295 757.373 144.581 757.373 143.771C757.373 142.076 757.721 140.828 758.416 140.028C759.121 139.228 760.159 138.828 761.531 138.828C762.302 138.828 762.969 138.947 763.531 139.186C764.092 139.414 764.559 139.728 764.931 140.128L764.273 140.871C763.921 140.5 763.526 140.224 763.088 140.043C762.65 139.862 762.131 139.771 761.531 139.771C760.512 139.771 759.745 140.095 759.231 140.743C758.726 141.381 758.473 142.39 758.473 143.771C758.473 145.143 758.731 146.157 759.245 146.814C759.759 147.462 760.607 147.786 761.788 147.786ZM777.178 147.643V148.571H771.278V138.971H777.035V139.914H772.378V143.1H776.864V144.028H772.378V147.643H777.178ZM779.331 138.971H780.431V148.571H779.331V138.971ZM794.232 138.971V148.571H793.118V144.014H788.003V148.571H786.903V138.971H788.003V143.071H793.118V138.971H794.232ZM799.143 148.714C798.019 148.714 797.219 148.424 796.743 147.843C796.277 147.252 796.043 146.343 796.043 145.114C796.043 143.876 796.281 142.967 796.758 142.386C797.234 141.805 797.962 141.514 798.943 141.514C799.924 141.514 800.653 141.8 801.129 142.371C801.605 142.933 801.843 143.828 801.843 145.057V145.514H797.158C797.196 146.333 797.372 146.919 797.686 147.271C798 147.624 798.491 147.8 799.158 147.8C799.558 147.8 799.948 147.743 800.329 147.628C800.719 147.505 801.081 147.338 801.415 147.128L801.772 148C801.41 148.219 801 148.395 800.543 148.528C800.096 148.652 799.629 148.714 799.143 148.714ZM800.729 144.628C800.681 143.886 800.515 143.338 800.229 142.986C799.943 142.624 799.515 142.443 798.943 142.443C798.372 142.443 797.943 142.624 797.658 142.986C797.372 143.338 797.205 143.886 797.158 144.628H800.729ZM808.543 148.571H807.729L807.558 147.928C807.272 148.176 806.934 148.371 806.543 148.514C806.162 148.647 805.743 148.714 805.286 148.714C804.572 148.714 804.034 148.533 803.672 148.171C803.319 147.8 803.143 147.271 803.143 146.586C803.143 145.881 803.362 145.362 803.8 145.028C804.239 144.686 804.972 144.514 806 144.514C806.305 144.514 806.572 144.519 806.8 144.528C807.039 144.538 807.258 144.557 807.458 144.586V144.2C807.458 143.562 807.334 143.109 807.086 142.843C806.839 142.567 806.4 142.428 805.772 142.428C805.477 142.428 805.153 142.481 804.8 142.586C804.458 142.681 804.11 142.824 803.758 143.014L803.429 142.186C803.81 141.976 804.215 141.814 804.643 141.7C805.072 141.576 805.515 141.514 805.972 141.514C806.458 141.514 806.862 141.562 807.186 141.657C807.519 141.752 807.786 141.909 807.986 142.128C808.186 142.338 808.329 142.609 808.415 142.943C808.5 143.276 808.543 143.686 808.543 144.171V148.571ZM805.586 147.814C805.9 147.814 806.224 147.747 806.558 147.614C806.9 147.471 807.2 147.286 807.458 147.057V145.471C807.21 145.443 806.962 145.424 806.715 145.414C806.467 145.395 806.191 145.386 805.886 145.386C805.286 145.386 804.858 145.476 804.6 145.657C804.353 145.838 804.229 146.143 804.229 146.571C804.229 146.981 804.334 147.29 804.543 147.5C804.753 147.709 805.1 147.814 805.586 147.814ZM815.92 138.486V148.571H815.105L814.934 147.986C814.686 148.214 814.396 148.395 814.063 148.528C813.729 148.652 813.363 148.714 812.963 148.714C812.02 148.714 811.31 148.424 810.834 147.843C810.358 147.262 810.12 146.352 810.12 145.114C810.12 143.886 810.348 142.981 810.805 142.4C811.272 141.809 811.953 141.514 812.848 141.514C813.248 141.514 813.615 141.576 813.948 141.7C814.291 141.824 814.582 141.995 814.82 142.214V138.628L815.92 138.486ZM813.134 147.814C813.467 147.814 813.777 147.747 814.063 147.614C814.358 147.481 814.61 147.3 814.82 147.071V143.171C814.61 142.943 814.358 142.762 814.063 142.628C813.777 142.495 813.467 142.428 813.134 142.428C812.477 142.428 811.991 142.638 811.677 143.057C811.372 143.476 811.22 144.162 811.22 145.114C811.22 146.076 811.372 146.767 811.677 147.186C811.991 147.605 812.477 147.814 813.134 147.814ZM819.841 148.671C819.793 148.69 819.726 148.7 819.641 148.7C819.555 148.709 819.483 148.714 819.426 148.714C818.941 148.714 818.588 148.571 818.369 148.286C818.16 147.99 818.055 147.543 818.055 146.943V138.657L819.141 138.486V146.786C819.141 147.005 819.15 147.181 819.169 147.314C819.188 147.447 819.222 147.552 819.269 147.628C819.326 147.705 819.398 147.757 819.483 147.786C819.579 147.805 819.698 147.814 819.841 147.814V148.671ZM821.529 141.657H822.615V148.571H821.529V141.657ZM821.515 138.686H822.615V140.114H821.515V138.686ZM825.748 142.357C826.072 142.1 826.429 141.895 826.819 141.743C827.21 141.59 827.619 141.514 828.048 141.514C828.848 141.514 829.419 141.709 829.762 142.1C830.115 142.481 830.291 143.105 830.291 143.971V148.571H829.205V144.271C829.205 143.586 829.091 143.109 828.862 142.843C828.643 142.576 828.3 142.443 827.834 142.443C827.167 142.443 826.5 142.686 825.834 143.171V148.571H824.748V141.657H825.562L825.748 142.357ZM834.969 148.714C833.845 148.714 833.045 148.424 832.569 147.843C832.103 147.252 831.869 146.343 831.869 145.114C831.869 143.876 832.107 142.967 832.583 142.386C833.06 141.805 833.788 141.514 834.769 141.514C835.75 141.514 836.479 141.8 836.955 142.371C837.431 142.933 837.669 143.828 837.669 145.057V145.514H832.983C833.022 146.333 833.198 146.919 833.512 147.271C833.826 147.624 834.317 147.8 834.983 147.8C835.383 147.8 835.774 147.743 836.155 147.628C836.545 147.505 836.907 147.338 837.241 147.128L837.598 148C837.236 148.219 836.826 148.395 836.369 148.528C835.922 148.652 835.455 148.714 834.969 148.714ZM836.555 144.628C836.507 143.886 836.341 143.338 836.055 142.986C835.769 142.624 835.341 142.443 834.769 142.443C834.198 142.443 833.769 142.624 833.483 142.986C833.198 143.338 833.031 143.886 832.983 144.628H836.555ZM756.161 165.257C756.161 165.028 756.128 164.824 756.061 164.643C755.994 164.462 755.875 164.295 755.704 164.143C755.532 163.99 755.294 163.843 754.99 163.7C754.694 163.557 754.318 163.405 753.861 163.243C753.299 163.043 752.828 162.847 752.447 162.657C752.066 162.457 751.761 162.243 751.532 162.014C751.304 161.786 751.137 161.533 751.032 161.257C750.937 160.981 750.89 160.662 750.89 160.3C750.89 159.547 751.166 158.947 751.718 158.5C752.271 158.052 753.08 157.828 754.147 157.828C754.671 157.828 755.152 157.895 755.59 158.028C756.028 158.152 756.447 158.328 756.847 158.557L756.418 159.443C756.066 159.224 755.699 159.057 755.318 158.943C754.937 158.819 754.547 158.757 754.147 158.757C753.404 158.757 752.856 158.89 752.504 159.157C752.161 159.414 751.99 159.771 751.99 160.228C751.99 160.467 752.028 160.676 752.104 160.857C752.18 161.038 752.304 161.205 752.475 161.357C752.656 161.509 752.894 161.662 753.19 161.814C753.485 161.957 753.856 162.114 754.304 162.286C754.856 162.495 755.318 162.69 755.69 162.871C756.071 163.052 756.375 163.252 756.604 163.471C756.842 163.681 757.009 163.924 757.104 164.2C757.209 164.467 757.261 164.79 757.261 165.171C757.261 165.952 756.975 166.571 756.404 167.028C755.842 167.486 754.971 167.714 753.79 167.714C753.19 167.714 752.618 167.643 752.075 167.5C751.532 167.357 751.071 167.171 750.69 166.943L751.09 166.086C751.499 166.305 751.923 166.481 752.361 166.614C752.799 166.738 753.261 166.8 753.747 166.8C754.556 166.8 755.161 166.667 755.561 166.4C755.961 166.124 756.161 165.743 756.161 165.257ZM761.685 167.714C760.561 167.714 759.761 167.424 759.285 166.843C758.818 166.252 758.585 165.343 758.585 164.114C758.585 162.876 758.823 161.967 759.299 161.386C759.776 160.805 760.504 160.514 761.485 160.514C762.466 160.514 763.195 160.8 763.671 161.371C764.147 161.933 764.385 162.828 764.385 164.057V164.514H759.699C759.738 165.333 759.914 165.919 760.228 166.271C760.542 166.624 761.033 166.8 761.699 166.8C762.099 166.8 762.49 166.743 762.871 166.628C763.261 166.505 763.623 166.338 763.957 166.128L764.314 167C763.952 167.219 763.542 167.395 763.085 167.528C762.638 167.652 762.171 167.714 761.685 167.714ZM763.271 163.628C763.223 162.886 763.057 162.338 762.771 161.986C762.485 161.624 762.057 161.443 761.485 161.443C760.914 161.443 760.485 161.624 760.199 161.986C759.914 162.338 759.747 162.886 759.699 163.628H763.271ZM767.042 161.3C767.376 161.052 767.718 160.862 768.071 160.728C768.423 160.586 768.799 160.514 769.199 160.514C769.685 160.514 770.071 160.586 770.357 160.728C770.652 160.871 770.871 161.109 771.014 161.443C771.347 161.167 771.709 160.943 772.099 160.771C772.499 160.6 772.914 160.514 773.342 160.514C773.742 160.514 774.076 160.562 774.342 160.657C774.609 160.743 774.823 160.886 774.985 161.086C775.157 161.286 775.276 161.543 775.342 161.857C775.409 162.162 775.442 162.533 775.442 162.971V167.571H774.357V163.271C774.357 162.586 774.261 162.109 774.071 161.843C773.89 161.576 773.58 161.443 773.142 161.443C772.514 161.443 771.88 161.7 771.242 162.214C771.271 162.433 771.285 162.686 771.285 162.971V167.571H770.199V163.271C770.199 162.595 770.114 162.124 769.942 161.857C769.771 161.581 769.452 161.443 768.985 161.443C768.671 161.443 768.366 161.505 768.071 161.628C767.776 161.743 767.466 161.924 767.142 162.171V167.571H766.057V160.657H766.871L767.042 161.3ZM777.5 160.657H778.586V167.571H777.5V160.657ZM777.486 157.686H778.586V159.114H777.486V157.686ZM783.505 166.814C784.162 166.814 784.648 166.605 784.962 166.186C785.276 165.767 785.433 165.076 785.433 164.114C785.433 163.162 785.276 162.476 784.962 162.057C784.648 161.638 784.162 161.428 783.505 161.428C783.171 161.428 782.857 161.495 782.562 161.628C782.276 161.762 782.028 161.943 781.819 162.171V166.071C782.028 166.3 782.276 166.481 782.562 166.614C782.857 166.747 783.171 166.814 783.505 166.814ZM781.533 167.571H780.719V157.614L781.819 157.486V161.214C782.057 160.995 782.343 160.824 782.676 160.7C783.019 160.576 783.39 160.514 783.79 160.514C784.686 160.514 785.362 160.809 785.819 161.4C786.286 161.981 786.519 162.886 786.519 164.114C786.519 165.352 786.281 166.262 785.805 166.843C785.328 167.424 784.619 167.714 783.676 167.714C783.276 167.714 782.909 167.652 782.576 167.528C782.252 167.395 781.967 167.214 781.719 166.986L781.533 167.571ZM787.854 164.114C787.854 162.876 788.102 161.967 788.597 161.386C789.102 160.805 789.902 160.514 790.997 160.514C792.083 160.514 792.873 160.805 793.368 161.386C793.873 161.967 794.126 162.876 794.126 164.114C794.126 165.352 793.873 166.262 793.368 166.843C792.864 167.424 792.073 167.714 790.997 167.714C789.911 167.714 789.116 167.424 788.611 166.843C788.107 166.262 787.854 165.352 787.854 164.114ZM788.954 164.114C788.954 165.057 789.116 165.743 789.44 166.171C789.764 166.59 790.283 166.8 790.997 166.8C791.711 166.8 792.23 166.59 792.554 166.171C792.878 165.743 793.04 165.057 793.04 164.114C793.04 163.19 792.878 162.514 792.554 162.086C792.23 161.657 791.711 161.443 790.997 161.443C790.283 161.443 789.764 161.657 789.44 162.086C789.116 162.514 788.954 163.19 788.954 164.114ZM797.715 167.671C797.667 167.69 797.6 167.7 797.515 167.7C797.429 167.709 797.357 167.714 797.3 167.714C796.815 167.714 796.462 167.571 796.243 167.286C796.034 166.99 795.929 166.543 795.929 165.943V157.657L797.015 157.486V165.786C797.015 166.005 797.024 166.181 797.043 166.314C797.062 166.447 797.095 166.552 797.143 166.628C797.2 166.705 797.272 166.757 797.357 166.786C797.453 166.805 797.572 166.814 797.715 166.814V167.671ZM804.717 157.486V167.571H803.903L803.731 166.986C803.484 167.214 803.193 167.395 802.86 167.528C802.527 167.652 802.16 167.714 801.76 167.714C800.817 167.714 800.108 167.424 799.631 166.843C799.155 166.262 798.917 165.352 798.917 164.114C798.917 162.886 799.146 161.981 799.603 161.4C800.07 160.809 800.751 160.514 801.646 160.514C802.046 160.514 802.412 160.576 802.746 160.7C803.089 160.824 803.379 160.995 803.617 161.214V157.628L804.717 157.486ZM801.931 166.814C802.265 166.814 802.574 166.747 802.86 166.614C803.155 166.481 803.408 166.3 803.617 166.071V162.171C803.408 161.943 803.155 161.762 802.86 161.628C802.574 161.495 802.265 161.428 801.931 161.428C801.274 161.428 800.789 161.638 800.474 162.057C800.17 162.476 800.017 163.162 800.017 164.114C800.017 165.076 800.17 165.767 800.474 166.186C800.789 166.605 801.274 166.814 801.931 166.814ZM754.675 182.6V184.957H753.675V182.6H751.232V181.657H753.675V179.314H754.675V181.657H757.147V182.6H754.675ZM761.674 186.571V178.114L759.259 179.743L758.717 178.928L761.674 176.971H762.788V186.571H761.674ZM767.069 187H766.04L772.998 176.486H774.012L767.069 187ZM765.212 179.371C765.212 178.505 765.378 177.862 765.712 177.443C766.045 177.014 766.526 176.8 767.155 176.8C767.783 176.8 768.264 177.014 768.598 177.443C768.931 177.862 769.098 178.505 769.098 179.371C769.098 180.238 768.931 180.886 768.598 181.314C768.264 181.743 767.783 181.957 767.155 181.957C766.526 181.957 766.045 181.743 765.712 181.314C765.378 180.886 765.212 180.238 765.212 179.371ZM766.198 179.371C766.198 180.533 766.517 181.114 767.155 181.114C767.793 181.114 768.112 180.533 768.112 179.371C768.112 178.209 767.793 177.628 767.155 177.628C766.517 177.628 766.198 178.209 766.198 179.371ZM770.998 184.1C770.998 183.233 771.164 182.59 771.498 182.171C771.831 181.743 772.312 181.528 772.94 181.528C773.569 181.528 774.05 181.743 774.383 182.171C774.717 182.59 774.883 183.233 774.883 184.1C774.883 184.967 774.717 185.614 774.383 186.043C774.05 186.462 773.569 186.671 772.94 186.671C772.312 186.671 771.831 186.462 771.498 186.043C771.164 185.614 770.998 184.967 770.998 184.1ZM771.983 184.1C771.983 185.262 772.302 185.843 772.94 185.843C773.578 185.843 773.898 185.262 773.898 184.1C773.898 182.938 773.578 182.357 772.94 182.357C772.302 182.357 771.983 182.938 771.983 184.1ZM782.08 180.586V184C782.08 184.314 782.095 184.586 782.123 184.814C782.152 185.043 782.209 185.233 782.295 185.386C782.39 185.528 782.519 185.633 782.68 185.7C782.852 185.767 783.08 185.8 783.366 185.8C783.576 185.8 783.78 185.776 783.98 185.728C784.19 185.681 784.39 185.624 784.58 185.557L784.795 186.386C784.223 186.605 783.647 186.714 783.066 186.714C782.647 186.714 782.3 186.657 782.023 186.543C781.757 186.428 781.542 186.271 781.38 186.071C781.228 185.862 781.123 185.614 781.066 185.328C781.009 185.033 780.98 184.709 780.98 184.357V180.586H779.852V179.657H780.98V178.2L782.08 178V179.657H784.523V180.586H782.08ZM786.933 179.657L787.061 180.571C787.375 180.228 787.728 179.967 788.118 179.786C788.509 179.605 788.904 179.514 789.304 179.514C789.466 179.514 789.604 179.528 789.718 179.557C789.842 179.576 789.971 179.609 790.104 179.657V180.628C789.818 180.514 789.518 180.457 789.204 180.457C788.842 180.457 788.48 180.557 788.118 180.757C787.756 180.957 787.447 181.209 787.19 181.514V186.571H786.104V179.657H786.933ZM796.099 186.571H795.285L795.113 185.928C794.828 186.176 794.49 186.371 794.099 186.514C793.718 186.647 793.299 186.714 792.842 186.714C792.128 186.714 791.59 186.533 791.228 186.171C790.875 185.8 790.699 185.271 790.699 184.586C790.699 183.881 790.918 183.362 791.356 183.028C791.794 182.686 792.528 182.514 793.556 182.514C793.861 182.514 794.128 182.519 794.356 182.528C794.594 182.538 794.813 182.557 795.013 182.586V182.2C795.013 181.562 794.89 181.109 794.642 180.843C794.394 180.567 793.956 180.428 793.328 180.428C793.032 180.428 792.709 180.481 792.356 180.586C792.013 180.681 791.666 180.824 791.313 181.014L790.985 180.186C791.366 179.976 791.771 179.814 792.199 179.7C792.628 179.576 793.071 179.514 793.528 179.514C794.013 179.514 794.418 179.562 794.742 179.657C795.075 179.752 795.342 179.909 795.542 180.128C795.742 180.338 795.885 180.609 795.971 180.943C796.056 181.276 796.099 181.686 796.099 182.171V186.571ZM793.142 185.814C793.456 185.814 793.78 185.747 794.113 185.614C794.456 185.471 794.756 185.286 795.013 185.057V183.471C794.766 183.443 794.518 183.424 794.271 183.414C794.023 183.395 793.747 183.386 793.442 183.386C792.842 183.386 792.413 183.476 792.156 183.657C791.909 183.838 791.785 184.143 791.785 184.571C791.785 184.981 791.89 185.29 792.099 185.5C792.309 185.709 792.656 185.814 793.142 185.814ZM800.961 185.8C801.628 185.8 802.223 185.633 802.747 185.3L803.061 186.171C802.785 186.333 802.466 186.467 802.104 186.571C801.752 186.667 801.371 186.714 800.961 186.714C799.828 186.714 798.999 186.433 798.476 185.871C797.952 185.3 797.69 184.381 797.69 183.114C797.69 181.876 797.942 180.967 798.447 180.386C798.952 179.805 799.742 179.514 800.818 179.514C801.742 179.514 802.499 179.795 803.09 180.357L802.49 181.1C802.28 180.89 802.033 180.728 801.747 180.614C801.471 180.49 801.171 180.428 800.847 180.428C800.161 180.428 799.642 180.638 799.29 181.057C798.947 181.467 798.776 182.152 798.776 183.114C798.776 184.076 798.957 184.767 799.318 185.186C799.68 185.595 800.228 185.8 800.961 185.8ZM804.533 186.571V176.628L805.633 176.486V182.357H806.305L808.89 179.657H810.219L807.176 182.828L810.305 186.571H808.976L806.29 183.286H805.633V186.571H804.533ZM811.624 179.657H812.71V186.571H811.624V179.657ZM811.61 176.686H812.71V178.114H811.61V176.686ZM815.843 180.357C816.167 180.1 816.524 179.895 816.914 179.743C817.305 179.59 817.714 179.514 818.143 179.514C818.943 179.514 819.514 179.709 819.857 180.1C820.21 180.481 820.386 181.105 820.386 181.971V186.571H819.3V182.271C819.3 181.586 819.186 181.109 818.957 180.843C818.738 180.576 818.395 180.443 817.929 180.443C817.262 180.443 816.595 180.686 815.929 181.171V186.571H814.843V179.657H815.657L815.843 180.357ZM827.764 179.657V186.657C827.764 187.714 827.507 188.481 826.993 188.957C826.488 189.443 825.731 189.686 824.721 189.686C824.321 189.686 823.94 189.652 823.578 189.586C823.216 189.528 822.897 189.447 822.621 189.343L822.85 188.443C823.393 188.652 824.012 188.757 824.707 188.757C825.393 188.757 825.888 188.6 826.193 188.286C826.507 187.971 826.664 187.457 826.664 186.743V186.028C826.426 186.247 826.135 186.419 825.793 186.543C825.459 186.657 825.093 186.714 824.693 186.714C823.797 186.714 823.116 186.424 822.65 185.843C822.193 185.262 821.964 184.352 821.964 183.114C821.964 181.886 822.202 180.981 822.678 180.4C823.155 179.809 823.864 179.514 824.807 179.514C825.207 179.514 825.574 179.581 825.907 179.714C826.24 179.847 826.531 180.028 826.778 180.257L826.95 179.657H827.764ZM824.978 180.428C824.321 180.428 823.835 180.638 823.521 181.057C823.216 181.476 823.064 182.162 823.064 183.114C823.064 184.076 823.216 184.767 823.521 185.186C823.835 185.605 824.321 185.814 824.978 185.814C825.312 185.814 825.621 185.747 825.907 185.614C826.202 185.481 826.455 185.3 826.664 185.071V181.171C826.455 180.943 826.202 180.762 825.907 180.628C825.621 180.495 825.312 180.428 824.978 180.428Z" fill="#F7F3EB"/>
<path d="M756.847 300.5V301.429H751.161V291.829H752.261V300.5H756.847ZM761.788 300.643C762.169 300.643 762.535 300.619 762.888 300.572C763.25 300.514 763.592 300.433 763.916 300.329V297.443H761.459V296.514H765.002V300.957C764.573 301.119 764.069 301.262 763.488 301.386C762.907 301.51 762.331 301.572 761.759 301.572C760.969 301.572 760.292 301.467 759.731 301.257C759.178 301.038 758.726 300.724 758.373 300.314C758.021 299.895 757.764 299.381 757.602 298.772C757.45 298.153 757.373 297.438 757.373 296.629C757.373 294.933 757.721 293.686 758.416 292.886C759.121 292.086 760.159 291.686 761.531 291.686C762.302 291.686 762.969 291.805 763.531 292.043C764.092 292.272 764.559 292.586 764.931 292.986L764.273 293.729C763.921 293.357 763.526 293.081 763.088 292.9C762.65 292.719 762.131 292.629 761.531 292.629C760.512 292.629 759.745 292.953 759.231 293.6C758.726 294.238 758.473 295.248 758.473 296.629C758.473 298 758.731 299.014 759.245 299.672C759.759 300.319 760.607 300.643 761.788 300.643ZM777.178 300.5V301.429H771.278V291.829H777.035V292.772H772.378V295.957H776.864V296.886H772.378V300.5H777.178ZM779.331 291.829H780.431V301.429H779.331V291.829ZM794.232 291.829V301.429H793.118V296.872H788.003V301.429H786.903V291.829H788.003V295.929H793.118V291.829H794.232ZM799.143 301.572C798.019 301.572 797.219 301.281 796.743 300.7C796.277 300.11 796.043 299.2 796.043 297.972C796.043 296.733 796.281 295.824 796.758 295.243C797.234 294.662 797.962 294.372 798.943 294.372C799.924 294.372 800.653 294.657 801.129 295.229C801.605 295.791 801.843 296.686 801.843 297.914V298.372H797.158C797.196 299.191 797.372 299.776 797.686 300.129C798 300.481 798.491 300.657 799.158 300.657C799.558 300.657 799.948 300.6 800.329 300.486C800.719 300.362 801.081 300.195 801.415 299.986L801.772 300.857C801.41 301.076 801 301.253 800.543 301.386C800.096 301.51 799.629 301.572 799.143 301.572ZM800.729 297.486C800.681 296.743 800.515 296.195 800.229 295.843C799.943 295.481 799.515 295.3 798.943 295.3C798.372 295.3 797.943 295.481 797.658 295.843C797.372 296.195 797.205 296.743 797.158 297.486H800.729ZM808.543 301.429H807.729L807.558 300.786C807.272 301.033 806.934 301.229 806.543 301.372C806.162 301.505 805.743 301.572 805.286 301.572C804.572 301.572 804.034 301.391 803.672 301.029C803.319 300.657 803.143 300.129 803.143 299.443C803.143 298.738 803.362 298.219 803.8 297.886C804.239 297.543 804.972 297.372 806 297.372C806.305 297.372 806.572 297.376 806.8 297.386C807.039 297.395 807.258 297.414 807.458 297.443V297.057C807.458 296.419 807.334 295.967 807.086 295.7C806.839 295.424 806.4 295.286 805.772 295.286C805.477 295.286 805.153 295.338 804.8 295.443C804.458 295.538 804.11 295.681 803.758 295.872L803.429 295.043C803.81 294.833 804.215 294.672 804.643 294.557C805.072 294.433 805.515 294.372 805.972 294.372C806.458 294.372 806.862 294.419 807.186 294.514C807.519 294.61 807.786 294.767 807.986 294.986C808.186 295.195 808.329 295.467 808.415 295.8C808.5 296.133 808.543 296.543 808.543 297.029V301.429ZM805.586 300.672C805.9 300.672 806.224 300.605 806.558 300.472C806.9 300.329 807.2 300.143 807.458 299.914V298.329C807.21 298.3 806.962 298.281 806.715 298.272C806.467 298.253 806.191 298.243 805.886 298.243C805.286 298.243 804.858 298.333 804.6 298.514C804.353 298.695 804.229 299 804.229 299.429C804.229 299.838 804.334 300.148 804.543 300.357C804.753 300.567 805.1 300.672 805.586 300.672ZM815.92 291.343V301.429H815.105L814.934 300.843C814.686 301.072 814.396 301.253 814.063 301.386C813.729 301.51 813.363 301.572 812.963 301.572C812.02 301.572 811.31 301.281 810.834 300.7C810.358 300.119 810.12 299.21 810.12 297.972C810.12 296.743 810.348 295.838 810.805 295.257C811.272 294.667 811.953 294.372 812.848 294.372C813.248 294.372 813.615 294.433 813.948 294.557C814.291 294.681 814.582 294.853 814.82 295.072V291.486L815.92 291.343ZM813.134 300.672C813.467 300.672 813.777 300.605 814.063 300.472C814.358 300.338 814.61 300.157 814.82 299.929V296.029C814.61 295.8 814.358 295.619 814.063 295.486C813.777 295.353 813.467 295.286 813.134 295.286C812.477 295.286 811.991 295.495 811.677 295.914C811.372 296.333 811.22 297.019 811.22 297.972C811.22 298.933 811.372 299.624 811.677 300.043C811.991 300.462 812.477 300.672 813.134 300.672ZM819.841 301.529C819.793 301.548 819.726 301.557 819.641 301.557C819.555 301.567 819.483 301.572 819.426 301.572C818.941 301.572 818.588 301.429 818.369 301.143C818.16 300.848 818.055 300.4 818.055 299.8V291.514L819.141 291.343V299.643C819.141 299.862 819.15 300.038 819.169 300.172C819.188 300.305 819.222 300.41 819.269 300.486C819.326 300.562 819.398 300.614 819.483 300.643C819.579 300.662 819.698 300.672 819.841 300.672V301.529ZM821.529 294.514H822.615V301.429H821.529V294.514ZM821.515 291.543H822.615V292.972H821.515V291.543ZM825.748 295.214C826.072 294.957 826.429 294.753 826.819 294.6C827.21 294.448 827.619 294.372 828.048 294.372C828.848 294.372 829.419 294.567 829.762 294.957C830.115 295.338 830.291 295.962 830.291 296.829V301.429H829.205V297.129C829.205 296.443 829.091 295.967 828.862 295.7C828.643 295.433 828.3 295.3 827.834 295.3C827.167 295.3 826.5 295.543 825.834 296.029V301.429H824.748V294.514H825.562L825.748 295.214ZM834.969 301.572C833.845 301.572 833.045 301.281 832.569 300.7C832.103 300.11 831.869 299.2 831.869 297.972C831.869 296.733 832.107 295.824 832.583 295.243C833.06 294.662 833.788 294.372 834.769 294.372C835.75 294.372 836.479 294.657 836.955 295.229C837.431 295.791 837.669 296.686 837.669 297.914V298.372H832.983C833.022 299.191 833.198 299.776 833.512 300.129C833.826 300.481 834.317 300.657 834.983 300.657C835.383 300.657 835.774 300.6 836.155 300.486C836.545 300.362 836.907 300.195 837.241 299.986L837.598 300.857C837.236 301.076 836.826 301.253 836.369 301.386C835.922 301.51 835.455 301.572 834.969 301.572ZM836.555 297.486C836.507 296.743 836.341 296.195 836.055 295.843C835.769 295.481 835.341 295.3 834.769 295.3C834.198 295.3 833.769 295.481 833.483 295.843C833.198 296.195 833.031 296.743 832.983 297.486H836.555ZM752.261 311.772V315.443H754.504C755.218 315.443 755.737 315.286 756.061 314.972C756.385 314.657 756.547 314.2 756.547 313.6C756.547 312.972 756.385 312.51 756.061 312.214C755.747 311.919 755.242 311.772 754.547 311.772H752.261ZM751.161 320.429V310.829H754.475C755.59 310.829 756.399 311.062 756.904 311.529C757.418 311.986 757.675 312.676 757.675 313.6C757.675 314.953 757.056 315.814 755.818 316.186L757.932 320.429H756.747L754.732 316.372H752.261V320.429H751.161ZM762.132 320.572C761.008 320.572 760.208 320.281 759.732 319.7C759.265 319.11 759.032 318.2 759.032 316.972C759.032 315.733 759.27 314.824 759.746 314.243C760.222 313.662 760.951 313.372 761.932 313.372C762.913 313.372 763.641 313.657 764.117 314.229C764.593 314.791 764.832 315.686 764.832 316.914V317.372H760.146C760.184 318.191 760.36 318.776 760.674 319.129C760.989 319.481 761.479 319.657 762.146 319.657C762.546 319.657 762.936 319.6 763.317 319.486C763.708 319.362 764.07 319.195 764.403 318.986L764.76 319.857C764.398 320.076 763.989 320.253 763.532 320.386C763.084 320.51 762.617 320.572 762.132 320.572ZM763.717 316.486C763.67 315.743 763.503 315.195 763.217 314.843C762.932 314.481 762.503 314.3 761.932 314.3C761.36 314.3 760.932 314.481 760.646 314.843C760.36 315.195 760.193 315.743 760.146 316.486H763.717ZM771.974 313.514V320.514C771.974 321.572 771.717 322.338 771.203 322.814C770.698 323.3 769.941 323.543 768.932 323.543C768.532 323.543 768.151 323.51 767.789 323.443C767.427 323.386 767.108 323.305 766.832 323.2L767.06 322.3C767.603 322.51 768.222 322.614 768.917 322.614C769.603 322.614 770.098 322.457 770.403 322.143C770.717 321.829 770.874 321.314 770.874 320.6V319.886C770.636 320.105 770.346 320.276 770.003 320.4C769.67 320.514 769.303 320.572 768.903 320.572C768.008 320.572 767.327 320.281 766.86 319.7C766.403 319.119 766.174 318.21 766.174 316.972C766.174 315.743 766.413 314.838 766.889 314.257C767.365 313.667 768.074 313.372 769.017 313.372C769.417 313.372 769.784 313.438 770.117 313.572C770.451 313.705 770.741 313.886 770.989 314.114L771.16 313.514H771.974ZM769.189 314.286C768.532 314.286 768.046 314.495 767.732 314.914C767.427 315.333 767.274 316.019 767.274 316.972C767.274 317.933 767.427 318.624 767.732 319.043C768.046 319.462 768.532 319.672 769.189 319.672C769.522 319.672 769.832 319.605 770.117 319.472C770.413 319.338 770.665 319.157 770.874 318.929V315.029C770.665 314.8 770.413 314.619 770.117 314.486C769.832 314.353 769.522 314.286 769.189 314.286ZM778.452 319.743C778.129 320 777.772 320.205 777.381 320.357C776.991 320.5 776.581 320.572 776.152 320.572C775.352 320.572 774.776 320.381 774.424 320C774.072 319.619 773.895 318.995 773.895 318.129V313.514H774.995V317.829C774.995 318.514 775.105 318.991 775.324 319.257C775.552 319.524 775.9 319.657 776.367 319.657C777.033 319.657 777.695 319.414 778.352 318.929V313.514H779.452V320.429H778.624L778.452 319.743ZM783.373 320.529C783.325 320.548 783.259 320.557 783.173 320.557C783.087 320.567 783.016 320.572 782.959 320.572C782.473 320.572 782.121 320.429 781.902 320.143C781.692 319.848 781.587 319.4 781.587 318.8V310.514L782.673 310.343V318.643C782.673 318.862 782.683 319.038 782.702 319.172C782.721 319.305 782.754 319.41 782.802 319.486C782.859 319.562 782.93 319.614 783.016 319.643C783.111 319.662 783.23 319.672 783.373 319.672V320.529ZM790.128 320.429H789.314L789.142 319.786C788.857 320.033 788.519 320.229 788.128 320.372C787.747 320.505 787.328 320.572 786.871 320.572C786.157 320.572 785.619 320.391 785.257 320.029C784.904 319.657 784.728 319.129 784.728 318.443C784.728 317.738 784.947 317.219 785.385 316.886C785.823 316.543 786.557 316.372 787.585 316.372C787.89 316.372 788.157 316.376 788.385 316.386C788.623 316.395 788.842 316.414 789.042 316.443V316.057C789.042 315.419 788.919 314.967 788.671 314.7C788.423 314.424 787.985 314.286 787.357 314.286C787.061 314.286 786.738 314.338 786.385 314.443C786.042 314.538 785.695 314.681 785.342 314.872L785.014 314.043C785.395 313.833 785.8 313.672 786.228 313.557C786.657 313.433 787.1 313.372 787.557 313.372C788.042 313.372 788.447 313.419 788.771 313.514C789.104 313.61 789.371 313.767 789.571 313.986C789.771 314.195 789.914 314.467 790 314.8C790.085 315.133 790.128 315.543 790.128 316.029V320.429ZM787.171 319.672C787.485 319.672 787.809 319.605 788.142 319.472C788.485 319.329 788.785 319.143 789.042 318.914V317.329C788.795 317.3 788.547 317.281 788.3 317.272C788.052 317.253 787.776 317.243 787.471 317.243C786.871 317.243 786.442 317.333 786.185 317.514C785.938 317.695 785.814 318 785.814 318.429C785.814 318.838 785.919 319.148 786.128 319.357C786.338 319.567 786.685 319.672 787.171 319.672ZM792.862 313.514L792.99 314.429C793.305 314.086 793.657 313.824 794.047 313.643C794.438 313.462 794.833 313.372 795.233 313.372C795.395 313.372 795.533 313.386 795.647 313.414C795.771 313.433 795.9 313.467 796.033 313.514V314.486C795.747 314.372 795.447 314.314 795.133 314.314C794.771 314.314 794.409 314.414 794.047 314.614C793.686 314.814 793.376 315.067 793.119 315.372V320.429H792.033V313.514H792.862ZM754.675 335.457V337.814H753.675V335.457H751.232V334.514H753.675V332.172H754.675V334.514H757.147V335.457H754.675ZM761.674 339.429V330.972L759.259 332.6L758.717 331.786L761.674 329.829H762.788V339.429H761.674ZM767.069 339.857H766.04L772.998 329.343H774.012L767.069 339.857ZM765.212 332.229C765.212 331.362 765.378 330.719 765.712 330.3C766.045 329.872 766.526 329.657 767.155 329.657C767.783 329.657 768.264 329.872 768.598 330.3C768.931 330.719 769.098 331.362 769.098 332.229C769.098 333.095 768.931 333.743 768.598 334.172C768.264 334.6 767.783 334.814 767.155 334.814C766.526 334.814 766.045 334.6 765.712 334.172C765.378 333.743 765.212 333.095 765.212 332.229ZM766.198 332.229C766.198 333.391 766.517 333.972 767.155 333.972C767.793 333.972 768.112 333.391 768.112 332.229C768.112 331.067 767.793 330.486 767.155 330.486C766.517 330.486 766.198 331.067 766.198 332.229ZM770.998 336.957C770.998 336.091 771.164 335.448 771.498 335.029C771.831 334.6 772.312 334.386 772.94 334.386C773.569 334.386 774.05 334.6 774.383 335.029C774.717 335.448 774.883 336.091 774.883 336.957C774.883 337.824 774.717 338.472 774.383 338.9C774.05 339.319 773.569 339.529 772.94 339.529C772.312 339.529 771.831 339.319 771.498 338.9C771.164 338.472 770.998 337.824 770.998 336.957ZM771.983 336.957C771.983 338.119 772.302 338.7 772.94 338.7C773.578 338.7 773.898 338.119 773.898 336.957C773.898 335.795 773.578 335.214 772.94 335.214C772.302 335.214 771.983 335.795 771.983 336.957ZM782.08 333.443V336.857C782.08 337.172 782.095 337.443 782.123 337.672C782.152 337.9 782.209 338.091 782.295 338.243C782.39 338.386 782.519 338.491 782.68 338.557C782.852 338.624 783.08 338.657 783.366 338.657C783.576 338.657 783.78 338.633 783.98 338.586C784.19 338.538 784.39 338.481 784.58 338.414L784.795 339.243C784.223 339.462 783.647 339.572 783.066 339.572C782.647 339.572 782.3 339.514 782.023 339.4C781.757 339.286 781.542 339.129 781.38 338.929C781.228 338.719 781.123 338.472 781.066 338.186C781.009 337.891 780.98 337.567 780.98 337.214V333.443H779.852V332.514H780.98V331.057L782.08 330.857V332.514H784.523V333.443H782.08ZM786.933 332.514L787.061 333.429C787.375 333.086 787.728 332.824 788.118 332.643C788.509 332.462 788.904 332.372 789.304 332.372C789.466 332.372 789.604 332.386 789.718 332.414C789.842 332.433 789.971 332.467 790.104 332.514V333.486C789.818 333.372 789.518 333.314 789.204 333.314C788.842 333.314 788.48 333.414 788.118 333.614C787.756 333.814 787.447 334.067 787.19 334.372V339.429H786.104V332.514H786.933ZM796.099 339.429H795.285L795.113 338.786C794.828 339.033 794.49 339.229 794.099 339.372C793.718 339.505 793.299 339.572 792.842 339.572C792.128 339.572 791.59 339.391 791.228 339.029C790.875 338.657 790.699 338.129 790.699 337.443C790.699 336.738 790.918 336.219 791.356 335.886C791.794 335.543 792.528 335.372 793.556 335.372C793.861 335.372 794.128 335.376 794.356 335.386C794.594 335.395 794.813 335.414 795.013 335.443V335.057C795.013 334.419 794.89 333.967 794.642 333.7C794.394 333.424 793.956 333.286 793.328 333.286C793.032 333.286 792.709 333.338 792.356 333.443C792.013 333.538 791.666 333.681 791.313 333.872L790.985 333.043C791.366 332.833 791.771 332.672 792.199 332.557C792.628 332.433 793.071 332.372 793.528 332.372C794.013 332.372 794.418 332.419 794.742 332.514C795.075 332.61 795.342 332.767 795.542 332.986C795.742 333.195 795.885 333.467 795.971 333.8C796.056 334.133 796.099 334.543 796.099 335.029V339.429ZM793.142 338.672C793.456 338.672 793.78 338.605 794.113 338.472C794.456 338.329 794.756 338.143 795.013 337.914V336.329C794.766 336.3 794.518 336.281 794.271 336.272C794.023 336.253 793.747 336.243 793.442 336.243C792.842 336.243 792.413 336.333 792.156 336.514C791.909 336.695 791.785 337 791.785 337.429C791.785 337.838 791.89 338.148 792.099 338.357C792.309 338.567 792.656 338.672 793.142 338.672ZM800.961 338.657C801.628 338.657 802.223 338.491 802.747 338.157L803.061 339.029C802.785 339.191 802.466 339.324 802.104 339.429C801.752 339.524 801.371 339.572 800.961 339.572C799.828 339.572 798.999 339.291 798.476 338.729C797.952 338.157 797.69 337.238 797.69 335.972C797.69 334.733 797.942 333.824 798.447 333.243C798.952 332.662 799.742 332.372 800.818 332.372C801.742 332.372 802.499 332.653 803.09 333.214L802.49 333.957C802.28 333.748 802.033 333.586 801.747 333.472C801.471 333.348 801.171 333.286 800.847 333.286C800.161 333.286 799.642 333.495 799.29 333.914C798.947 334.324 798.776 335.01 798.776 335.972C798.776 336.933 798.957 337.624 799.318 338.043C799.68 338.453 800.228 338.657 800.961 338.657ZM804.533 339.429V329.486L805.633 329.343V335.214H806.305L808.89 332.514H810.219L807.176 335.686L810.305 339.429H808.976L806.29 336.143H805.633V339.429H804.533ZM811.624 332.514H812.71V339.429H811.624V332.514ZM811.61 329.543H812.71V330.972H811.61V329.543ZM815.843 333.214C816.167 332.957 816.524 332.753 816.914 332.6C817.305 332.448 817.714 332.372 818.143 332.372C818.943 332.372 819.514 332.567 819.857 332.957C820.21 333.338 820.386 333.962 820.386 334.829V339.429H819.3V335.129C819.3 334.443 819.186 333.967 818.957 333.7C818.738 333.433 818.395 333.3 817.929 333.3C817.262 333.3 816.595 333.543 815.929 334.029V339.429H814.843V332.514H815.657L815.843 333.214ZM827.764 332.514V339.514C827.764 340.572 827.507 341.338 826.993 341.814C826.488 342.3 825.731 342.543 824.721 342.543C824.321 342.543 823.94 342.51 823.578 342.443C823.216 342.386 822.897 342.305 822.621 342.2L822.85 341.3C823.393 341.51 824.012 341.614 824.707 341.614C825.393 341.614 825.888 341.457 826.193 341.143C826.507 340.829 826.664 340.314 826.664 339.6V338.886C826.426 339.105 826.135 339.276 825.793 339.4C825.459 339.514 825.093 339.572 824.693 339.572C823.797 339.572 823.116 339.281 822.65 338.7C822.193 338.119 821.964 337.21 821.964 335.972C821.964 334.743 822.202 333.838 822.678 333.257C823.155 332.667 823.864 332.372 824.807 332.372C825.207 332.372 825.574 332.438 825.907 332.572C826.24 332.705 826.531 332.886 826.778 333.114L826.95 332.514H827.764ZM824.978 333.286C824.321 333.286 823.835 333.495 823.521 333.914C823.216 334.333 823.064 335.019 823.064 335.972C823.064 336.933 823.216 337.624 823.521 338.043C823.835 338.462 824.321 338.672 824.978 338.672C825.312 338.672 825.621 338.605 825.907 338.472C826.202 338.338 826.455 338.157 826.664 337.929V334.029C826.455 333.8 826.202 333.619 825.907 333.486C825.621 333.353 825.312 333.286 824.978 333.286Z" fill="#F7F3EB"/>
<path d="M756.847 443.357V444.286H751.161V434.686H752.261V443.357H756.847ZM761.788 443.5C762.169 443.5 762.535 443.476 762.888 443.429C763.25 443.371 763.592 443.29 763.916 443.186V440.3H761.459V439.371H765.002V443.814C764.573 443.976 764.069 444.119 763.488 444.243C762.907 444.367 762.331 444.429 761.759 444.429C760.969 444.429 760.292 444.324 759.731 444.114C759.178 443.895 758.726 443.581 758.373 443.171C758.021 442.752 757.764 442.238 757.602 441.629C757.45 441.009 757.373 440.295 757.373 439.486C757.373 437.79 757.721 436.543 758.416 435.743C759.121 434.943 760.159 434.543 761.531 434.543C762.302 434.543 762.969 434.662 763.531 434.9C764.092 435.129 764.559 435.443 764.931 435.843L764.273 436.586C763.921 436.214 763.526 435.938 763.088 435.757C762.65 435.576 762.131 435.486 761.531 435.486C760.512 435.486 759.745 435.809 759.231 436.457C758.726 437.095 758.473 438.105 758.473 439.486C758.473 440.857 758.731 441.871 759.245 442.529C759.759 443.176 760.607 443.5 761.788 443.5ZM777.178 443.357V444.286H771.278V434.686H777.035V435.629H772.378V438.814H776.864V439.743H772.378V443.357H777.178ZM779.331 434.686H780.431V444.286H779.331V434.686ZM794.232 434.686V444.286H793.118V439.729H788.003V444.286H786.903V434.686H788.003V438.786H793.118V434.686H794.232ZM799.143 444.429C798.019 444.429 797.219 444.138 796.743 443.557C796.277 442.967 796.043 442.057 796.043 440.829C796.043 439.59 796.281 438.681 796.758 438.1C797.234 437.519 797.962 437.229 798.943 437.229C799.924 437.229 800.653 437.514 801.129 438.086C801.605 438.648 801.843 439.543 801.843 440.771V441.229H797.158C797.196 442.048 797.372 442.633 797.686 442.986C798 443.338 798.491 443.514 799.158 443.514C799.558 443.514 799.948 443.457 800.329 443.343C800.719 443.219 801.081 443.052 801.415 442.843L801.772 443.714C801.41 443.933 801 444.109 800.543 444.243C800.096 444.367 799.629 444.429 799.143 444.429ZM800.729 440.343C800.681 439.6 800.515 439.052 800.229 438.7C799.943 438.338 799.515 438.157 798.943 438.157C798.372 438.157 797.943 438.338 797.658 438.7C797.372 439.052 797.205 439.6 797.158 440.343H800.729ZM808.543 444.286H807.729L807.558 443.643C807.272 443.89 806.934 444.086 806.543 444.229C806.162 444.362 805.743 444.429 805.286 444.429C804.572 444.429 804.034 444.248 803.672 443.886C803.319 443.514 803.143 442.986 803.143 442.3C803.143 441.595 803.362 441.076 803.8 440.743C804.239 440.4 804.972 440.229 806 440.229C806.305 440.229 806.572 440.233 806.8 440.243C807.039 440.252 807.258 440.271 807.458 440.3V439.914C807.458 439.276 807.334 438.824 807.086 438.557C806.839 438.281 806.4 438.143 805.772 438.143C805.477 438.143 805.153 438.195 804.8 438.3C804.458 438.395 804.11 438.538 803.758 438.729L803.429 437.9C803.81 437.69 804.215 437.529 804.643 437.414C805.072 437.29 805.515 437.229 805.972 437.229C806.458 437.229 806.862 437.276 807.186 437.371C807.519 437.467 807.786 437.624 807.986 437.843C808.186 438.052 808.329 438.324 808.415 438.657C808.5 438.99 808.543 439.4 808.543 439.886V444.286ZM805.586 443.529C805.9 443.529 806.224 443.462 806.558 443.329C806.9 443.186 807.2 443 807.458 442.771V441.186C807.21 441.157 806.962 441.138 806.715 441.129C806.467 441.109 806.191 441.1 805.886 441.1C805.286 441.1 804.858 441.19 804.6 441.371C804.353 441.552 804.229 441.857 804.229 442.286C804.229 442.695 804.334 443.005 804.543 443.214C804.753 443.424 805.1 443.529 805.586 443.529ZM815.92 434.2V444.286H815.105L814.934 443.7C814.686 443.929 814.396 444.109 814.063 444.243C813.729 444.367 813.363 444.429 812.963 444.429C812.02 444.429 811.31 444.138 810.834 443.557C810.358 442.976 810.12 442.067 810.12 440.829C810.12 439.6 810.348 438.695 810.805 438.114C811.272 437.524 811.953 437.229 812.848 437.229C813.248 437.229 813.615 437.29 813.948 437.414C814.291 437.538 814.582 437.709 814.82 437.929V434.343L815.92 434.2ZM813.134 443.529C813.467 443.529 813.777 443.462 814.063 443.329C814.358 443.195 814.61 443.014 814.82 442.786V438.886C814.61 438.657 814.358 438.476 814.063 438.343C813.777 438.209 813.467 438.143 813.134 438.143C812.477 438.143 811.991 438.352 811.677 438.771C811.372 439.19 811.22 439.876 811.22 440.829C811.22 441.79 811.372 442.481 811.677 442.9C811.991 443.319 812.477 443.529 813.134 443.529ZM819.841 444.386C819.793 444.405 819.726 444.414 819.641 444.414C819.555 444.424 819.483 444.429 819.426 444.429C818.941 444.429 818.588 444.286 818.369 444C818.16 443.705 818.055 443.257 818.055 442.657V434.371L819.141 434.2V442.5C819.141 442.719 819.15 442.895 819.169 443.029C819.188 443.162 819.222 443.267 819.269 443.343C819.326 443.419 819.398 443.471 819.483 443.5C819.579 443.519 819.698 443.529 819.841 443.529V444.386ZM821.529 437.371H822.615V444.286H821.529V437.371ZM821.515 434.4H822.615V435.829H821.515V434.4ZM825.748 438.071C826.072 437.814 826.429 437.609 826.819 437.457C827.21 437.305 827.619 437.229 828.048 437.229C828.848 437.229 829.419 437.424 829.762 437.814C830.115 438.195 830.291 438.819 830.291 439.686V444.286H829.205V439.986C829.205 439.3 829.091 438.824 828.862 438.557C828.643 438.29 828.3 438.157 827.834 438.157C827.167 438.157 826.5 438.4 825.834 438.886V444.286H824.748V437.371H825.562L825.748 438.071ZM834.969 444.429C833.845 444.429 833.045 444.138 832.569 443.557C832.103 442.967 831.869 442.057 831.869 440.829C831.869 439.59 832.107 438.681 832.583 438.1C833.06 437.519 833.788 437.229 834.769 437.229C835.75 437.229 836.479 437.514 836.955 438.086C837.431 438.648 837.669 439.543 837.669 440.771V441.229H832.983C833.022 442.048 833.198 442.633 833.512 442.986C833.826 443.338 834.317 443.514 834.983 443.514C835.383 443.514 835.774 443.457 836.155 443.343C836.545 443.219 836.907 443.052 837.241 442.843L837.598 443.714C837.236 443.933 836.826 444.109 836.369 444.243C835.922 444.367 835.455 444.429 834.969 444.429ZM836.555 440.343C836.507 439.6 836.341 439.052 836.055 438.7C835.769 438.338 835.341 438.157 834.769 438.157C834.198 438.157 833.769 438.338 833.483 438.7C833.198 439.052 833.031 439.6 832.983 440.343H836.555ZM752.261 454.629V458.3H754.504C755.218 458.3 755.737 458.143 756.061 457.829C756.385 457.514 756.547 457.057 756.547 456.457C756.547 455.829 756.385 455.367 756.061 455.071C755.747 454.776 755.242 454.629 754.547 454.629H752.261ZM751.161 463.286V453.686H754.475C755.59 453.686 756.399 453.919 756.904 454.386C757.418 454.843 757.675 455.533 757.675 456.457C757.675 457.809 757.056 458.671 755.818 459.043L757.932 463.286H756.747L754.732 459.229H752.261V463.286H751.161ZM762.132 463.429C761.008 463.429 760.208 463.138 759.732 462.557C759.265 461.967 759.032 461.057 759.032 459.829C759.032 458.59 759.27 457.681 759.746 457.1C760.222 456.519 760.951 456.229 761.932 456.229C762.913 456.229 763.641 456.514 764.117 457.086C764.593 457.648 764.832 458.543 764.832 459.771V460.229H760.146C760.184 461.048 760.36 461.633 760.674 461.986C760.989 462.338 761.479 462.514 762.146 462.514C762.546 462.514 762.936 462.457 763.317 462.343C763.708 462.219 764.07 462.052 764.403 461.843L764.76 462.714C764.398 462.933 763.989 463.109 763.532 463.243C763.084 463.367 762.617 463.429 762.132 463.429ZM763.717 459.343C763.67 458.6 763.503 458.052 763.217 457.7C762.932 457.338 762.503 457.157 761.932 457.157C761.36 457.157 760.932 457.338 760.646 457.7C760.36 458.052 760.193 458.6 760.146 459.343H763.717ZM771.974 456.371V463.371C771.974 464.429 771.717 465.195 771.203 465.671C770.698 466.157 769.941 466.4 768.932 466.4C768.532 466.4 768.151 466.367 767.789 466.3C767.427 466.243 767.108 466.162 766.832 466.057L767.06 465.157C767.603 465.367 768.222 465.471 768.917 465.471C769.603 465.471 770.098 465.314 770.403 465C770.717 464.686 770.874 464.171 770.874 463.457V462.743C770.636 462.962 770.346 463.133 770.003 463.257C769.67 463.371 769.303 463.429 768.903 463.429C768.008 463.429 767.327 463.138 766.86 462.557C766.403 461.976 766.174 461.067 766.174 459.829C766.174 458.6 766.413 457.695 766.889 457.114C767.365 456.524 768.074 456.229 769.017 456.229C769.417 456.229 769.784 456.295 770.117 456.429C770.451 456.562 770.741 456.743 770.989 456.971L771.16 456.371H771.974ZM769.189 457.143C768.532 457.143 768.046 457.352 767.732 457.771C767.427 458.19 767.274 458.876 767.274 459.829C767.274 460.79 767.427 461.481 767.732 461.9C768.046 462.319 768.532 462.529 769.189 462.529C769.522 462.529 769.832 462.462 770.117 462.329C770.413 462.195 770.665 462.014 770.874 461.786V457.886C770.665 457.657 770.413 457.476 770.117 457.343C769.832 457.209 769.522 457.143 769.189 457.143ZM778.452 462.6C778.129 462.857 777.772 463.062 777.381 463.214C776.991 463.357 776.581 463.429 776.152 463.429C775.352 463.429 774.776 463.238 774.424 462.857C774.072 462.476 773.895 461.852 773.895 460.986V456.371H774.995V460.686C774.995 461.371 775.105 461.848 775.324 462.114C775.552 462.381 775.9 462.514 776.367 462.514C777.033 462.514 777.695 462.271 778.352 461.786V456.371H779.452V463.286H778.624L778.452 462.6ZM783.373 463.386C783.325 463.405 783.259 463.414 783.173 463.414C783.087 463.424 783.016 463.429 782.959 463.429C782.473 463.429 782.121 463.286 781.902 463C781.692 462.705 781.587 462.257 781.587 461.657V453.371L782.673 453.2V461.5C782.673 461.719 782.683 461.895 782.702 462.029C782.721 462.162 782.754 462.267 782.802 462.343C782.859 462.419 782.93 462.471 783.016 462.5C783.111 462.519 783.23 462.529 783.373 462.529V463.386ZM790.128 463.286H789.314L789.142 462.643C788.857 462.89 788.519 463.086 788.128 463.229C787.747 463.362 787.328 463.429 786.871 463.429C786.157 463.429 785.619 463.248 785.257 462.886C784.904 462.514 784.728 461.986 784.728 461.3C784.728 460.595 784.947 460.076 785.385 459.743C785.823 459.4 786.557 459.229 787.585 459.229C787.89 459.229 788.157 459.233 788.385 459.243C788.623 459.252 788.842 459.271 789.042 459.3V458.914C789.042 458.276 788.919 457.824 788.671 457.557C788.423 457.281 787.985 457.143 787.357 457.143C787.061 457.143 786.738 457.195 786.385 457.3C786.042 457.395 785.695 457.538 785.342 457.729L785.014 456.9C785.395 456.69 785.8 456.529 786.228 456.414C786.657 456.29 787.1 456.229 787.557 456.229C788.042 456.229 788.447 456.276 788.771 456.371C789.104 456.467 789.371 456.624 789.571 456.843C789.771 457.052 789.914 457.324 790 457.657C790.085 457.99 790.128 458.4 790.128 458.886V463.286ZM787.171 462.529C787.485 462.529 787.809 462.462 788.142 462.329C788.485 462.186 788.785 462 789.042 461.771V460.186C788.795 460.157 788.547 460.138 788.3 460.129C788.052 460.109 787.776 460.1 787.471 460.1C786.871 460.1 786.442 460.19 786.185 460.371C785.938 460.552 785.814 460.857 785.814 461.286C785.814 461.695 785.919 462.005 786.128 462.214C786.338 462.424 786.685 462.529 787.171 462.529ZM792.862 456.371L792.99 457.286C793.305 456.943 793.657 456.681 794.047 456.5C794.438 456.319 794.833 456.229 795.233 456.229C795.395 456.229 795.533 456.243 795.647 456.271C795.771 456.29 795.9 456.324 796.033 456.371V457.343C795.747 457.229 795.447 457.171 795.133 457.171C794.771 457.171 794.409 457.271 794.047 457.471C793.686 457.671 793.376 457.924 793.119 458.229V463.286H792.033V456.371H792.862ZM795.027 465.143C795.256 464.705 795.432 464.271 795.556 463.843C795.68 463.414 795.742 462.929 795.742 462.386H796.813C796.813 462.729 796.789 463.043 796.742 463.329C796.694 463.624 796.627 463.895 796.542 464.143C796.456 464.4 796.351 464.643 796.227 464.871C796.104 465.109 795.961 465.348 795.799 465.586L795.027 465.143ZM807.849 460.971C807.849 460.743 807.816 460.538 807.749 460.357C807.682 460.176 807.563 460.009 807.392 459.857C807.221 459.705 806.982 459.557 806.678 459.414C806.382 459.271 806.006 459.119 805.549 458.957C804.987 458.757 804.516 458.562 804.135 458.371C803.754 458.171 803.449 457.957 803.221 457.729C802.992 457.5 802.825 457.248 802.721 456.971C802.625 456.695 802.578 456.376 802.578 456.014C802.578 455.262 802.854 454.662 803.406 454.214C803.959 453.767 804.768 453.543 805.835 453.543C806.359 453.543 806.84 453.609 807.278 453.743C807.716 453.867 808.135 454.043 808.535 454.271L808.106 455.157C807.754 454.938 807.387 454.771 807.006 454.657C806.625 454.533 806.235 454.471 805.835 454.471C805.092 454.471 804.544 454.605 804.192 454.871C803.849 455.129 803.678 455.486 803.678 455.943C803.678 456.181 803.716 456.39 803.792 456.571C803.868 456.752 803.992 456.919 804.163 457.071C804.344 457.224 804.582 457.376 804.878 457.529C805.173 457.671 805.544 457.829 805.992 458C806.544 458.209 807.006 458.405 807.378 458.586C807.759 458.767 808.063 458.967 808.292 459.186C808.53 459.395 808.697 459.638 808.792 459.914C808.897 460.181 808.949 460.505 808.949 460.886C808.949 461.667 808.663 462.286 808.092 462.743C807.53 463.2 806.659 463.429 805.478 463.429C804.878 463.429 804.306 463.357 803.763 463.214C803.221 463.071 802.759 462.886 802.378 462.657L802.778 461.8C803.187 462.019 803.611 462.195 804.049 462.329C804.487 462.452 804.949 462.514 805.435 462.514C806.244 462.514 806.849 462.381 807.249 462.114C807.649 461.838 807.849 461.457 807.849 460.971ZM813.373 463.429C812.249 463.429 811.449 463.138 810.973 462.557C810.507 461.967 810.273 461.057 810.273 459.829C810.273 458.59 810.511 457.681 810.987 457.1C811.464 456.519 812.192 456.229 813.173 456.229C814.154 456.229 814.883 456.514 815.359 457.086C815.835 457.648 816.073 458.543 816.073 459.771V460.229H811.387C811.426 461.048 811.602 461.633 811.916 461.986C812.23 462.338 812.721 462.514 813.387 462.514C813.787 462.514 814.178 462.457 814.559 462.343C814.949 462.219 815.311 462.052 815.645 461.843L816.002 462.714C815.64 462.933 815.23 463.109 814.773 463.243C814.326 463.367 813.859 463.429 813.373 463.429ZM814.959 459.343C814.911 458.6 814.745 458.052 814.459 457.7C814.173 457.338 813.745 457.157 813.173 457.157C812.602 457.157 812.173 457.338 811.887 457.7C811.602 458.052 811.435 458.6 811.387 459.343H814.959ZM818.73 457.014C819.064 456.767 819.407 456.576 819.759 456.443C820.111 456.3 820.487 456.229 820.887 456.229C821.373 456.229 821.759 456.3 822.045 456.443C822.34 456.586 822.559 456.824 822.702 457.157C823.035 456.881 823.397 456.657 823.787 456.486C824.187 456.314 824.602 456.229 825.03 456.229C825.43 456.229 825.764 456.276 826.03 456.371C826.297 456.457 826.511 456.6 826.673 456.8C826.845 457 826.964 457.257 827.03 457.571C827.097 457.876 827.13 458.248 827.13 458.686V463.286H826.045V458.986C826.045 458.3 825.949 457.824 825.759 457.557C825.578 457.29 825.268 457.157 824.83 457.157C824.202 457.157 823.568 457.414 822.93 457.929C822.959 458.148 822.973 458.4 822.973 458.686V463.286H821.887V458.986C821.887 458.309 821.802 457.838 821.63 457.571C821.459 457.295 821.14 457.157 820.673 457.157C820.359 457.157 820.054 457.219 819.759 457.343C819.464 457.457 819.154 457.638 818.83 457.886V463.286H817.745V456.371H818.559L818.73 457.014ZM829.188 456.371H830.274V463.286H829.188V456.371ZM829.174 453.4H830.274V454.829H829.174V453.4ZM835.193 462.529C835.85 462.529 836.336 462.319 836.65 461.9C836.964 461.481 837.121 460.79 837.121 459.829C837.121 458.876 836.964 458.19 836.65 457.771C836.336 457.352 835.85 457.143 835.193 457.143C834.859 457.143 834.545 457.209 834.25 457.343C833.964 457.476 833.717 457.657 833.507 457.886V461.786C833.717 462.014 833.964 462.195 834.25 462.329C834.545 462.462 834.859 462.529 835.193 462.529ZM833.221 463.286H832.407V453.329L833.507 453.2V456.929C833.745 456.709 834.031 456.538 834.364 456.414C834.707 456.29 835.078 456.229 835.478 456.229C836.374 456.229 837.05 456.524 837.507 457.114C837.974 457.695 838.207 458.6 838.207 459.829C838.207 461.067 837.969 461.976 837.493 462.557C837.017 463.138 836.307 463.429 835.364 463.429C834.964 463.429 834.598 463.367 834.264 463.243C833.94 463.109 833.655 462.929 833.407 462.7L833.221 463.286ZM839.542 459.829C839.542 458.59 839.79 457.681 840.285 457.1C840.79 456.519 841.59 456.229 842.685 456.229C843.771 456.229 844.561 456.519 845.056 457.1C845.561 457.681 845.814 458.59 845.814 459.829C845.814 461.067 845.561 461.976 845.056 462.557C844.552 463.138 843.761 463.429 842.685 463.429C841.599 463.429 840.804 463.138 840.299 462.557C839.795 461.976 839.542 461.067 839.542 459.829ZM840.642 459.829C840.642 460.771 840.804 461.457 841.128 461.886C841.452 462.305 841.971 462.514 842.685 462.514C843.399 462.514 843.918 462.305 844.242 461.886C844.566 461.457 844.728 460.771 844.728 459.829C844.728 458.905 844.566 458.229 844.242 457.8C843.918 457.371 843.399 457.157 842.685 457.157C841.971 457.157 841.452 457.371 841.128 457.8C840.804 458.229 840.642 458.905 840.642 459.829ZM849.403 463.386C849.355 463.405 849.288 463.414 849.203 463.414C849.117 463.424 849.045 463.429 848.988 463.429C848.503 463.429 848.15 463.286 847.931 463C847.722 462.705 847.617 462.257 847.617 461.657V453.371L848.703 453.2V461.5C848.703 461.719 848.712 461.895 848.731 462.029C848.75 462.162 848.784 462.267 848.831 462.343C848.888 462.419 848.96 462.471 849.045 462.5C849.141 462.519 849.26 462.529 849.403 462.529V463.386ZM856.405 453.2V463.286H855.591L855.42 462.7C855.172 462.929 854.881 463.109 854.548 463.243C854.215 463.367 853.848 463.429 853.448 463.429C852.505 463.429 851.796 463.138 851.32 462.557C850.843 461.976 850.605 461.067 850.605 459.829C850.605 458.6 850.834 457.695 851.291 457.114C851.758 456.524 852.439 456.229 853.334 456.229C853.734 456.229 854.1 456.29 854.434 456.414C854.777 456.538 855.067 456.709 855.305 456.929V453.343L856.405 453.2ZM853.62 462.529C853.953 462.529 854.262 462.462 854.548 462.329C854.843 462.195 855.096 462.014 855.305 461.786V457.886C855.096 457.657 854.843 457.476 854.548 457.343C854.262 457.209 853.953 457.143 853.62 457.143C852.962 457.143 852.477 457.352 852.162 457.771C851.858 458.19 851.705 458.876 851.705 459.829C851.705 460.79 851.858 461.481 852.162 461.9C852.477 462.319 852.962 462.529 853.62 462.529ZM754.675 478.314V480.671H753.675V478.314H751.232V477.371H753.675V475.029H754.675V477.371H757.147V478.314H754.675ZM761.674 482.286V473.829L759.259 475.457L758.717 474.643L761.674 472.686H762.788V482.286H761.674ZM767.069 482.714H766.04L772.998 472.2H774.012L767.069 482.714ZM765.212 475.086C765.212 474.219 765.378 473.576 765.712 473.157C766.045 472.729 766.526 472.514 767.155 472.514C767.783 472.514 768.264 472.729 768.598 473.157C768.931 473.576 769.098 474.219 769.098 475.086C769.098 475.952 768.931 476.6 768.598 477.029C768.264 477.457 767.783 477.671 767.155 477.671C766.526 477.671 766.045 477.457 765.712 477.029C765.378 476.6 765.212 475.952 765.212 475.086ZM766.198 475.086C766.198 476.248 766.517 476.829 767.155 476.829C767.793 476.829 768.112 476.248 768.112 475.086C768.112 473.924 767.793 473.343 767.155 473.343C766.517 473.343 766.198 473.924 766.198 475.086ZM770.998 479.814C770.998 478.948 771.164 478.305 771.498 477.886C771.831 477.457 772.312 477.243 772.94 477.243C773.569 477.243 774.05 477.457 774.383 477.886C774.717 478.305 774.883 478.948 774.883 479.814C774.883 480.681 774.717 481.329 774.383 481.757C774.05 482.176 773.569 482.386 772.94 482.386C772.312 482.386 771.831 482.176 771.498 481.757C771.164 481.329 770.998 480.681 770.998 479.814ZM771.983 479.814C771.983 480.976 772.302 481.557 772.94 481.557C773.578 481.557 773.898 480.976 773.898 479.814C773.898 478.652 773.578 478.071 772.94 478.071C772.302 478.071 771.983 478.652 771.983 479.814ZM782.08 476.3V479.714C782.08 480.029 782.095 480.3 782.123 480.529C782.152 480.757 782.209 480.948 782.295 481.1C782.39 481.243 782.519 481.348 782.68 481.414C782.852 481.481 783.08 481.514 783.366 481.514C783.576 481.514 783.78 481.49 783.98 481.443C784.19 481.395 784.39 481.338 784.58 481.271L784.795 482.1C784.223 482.319 783.647 482.429 783.066 482.429C782.647 482.429 782.3 482.371 782.023 482.257C781.757 482.143 781.542 481.986 781.38 481.786C781.228 481.576 781.123 481.329 781.066 481.043C781.009 480.748 780.98 480.424 780.98 480.071V476.3H779.852V475.371H780.98V473.914L782.08 473.714V475.371H784.523V476.3H782.08ZM786.933 475.371L787.061 476.286C787.375 475.943 787.728 475.681 788.118 475.5C788.509 475.319 788.904 475.229 789.304 475.229C789.466 475.229 789.604 475.243 789.718 475.271C789.842 475.29 789.971 475.324 790.104 475.371V476.343C789.818 476.229 789.518 476.171 789.204 476.171C788.842 476.171 788.48 476.271 788.118 476.471C787.756 476.671 787.447 476.924 787.19 477.229V482.286H786.104V475.371H786.933ZM796.099 482.286H795.285L795.113 481.643C794.828 481.89 794.49 482.086 794.099 482.229C793.718 482.362 793.299 482.429 792.842 482.429C792.128 482.429 791.59 482.248 791.228 481.886C790.875 481.514 790.699 480.986 790.699 480.3C790.699 479.595 790.918 479.076 791.356 478.743C791.794 478.4 792.528 478.229 793.556 478.229C793.861 478.229 794.128 478.233 794.356 478.243C794.594 478.252 794.813 478.271 795.013 478.3V477.914C795.013 477.276 794.89 476.824 794.642 476.557C794.394 476.281 793.956 476.143 793.328 476.143C793.032 476.143 792.709 476.195 792.356 476.3C792.013 476.395 791.666 476.538 791.313 476.729L790.985 475.9C791.366 475.69 791.771 475.529 792.199 475.414C792.628 475.29 793.071 475.229 793.528 475.229C794.013 475.229 794.418 475.276 794.742 475.371C795.075 475.467 795.342 475.624 795.542 475.843C795.742 476.052 795.885 476.324 795.971 476.657C796.056 476.99 796.099 477.4 796.099 477.886V482.286ZM793.142 481.529C793.456 481.529 793.78 481.462 794.113 481.329C794.456 481.186 794.756 481 795.013 480.771V479.186C794.766 479.157 794.518 479.138 794.271 479.129C794.023 479.109 793.747 479.1 793.442 479.1C792.842 479.1 792.413 479.19 792.156 479.371C791.909 479.552 791.785 479.857 791.785 480.286C791.785 480.695 791.89 481.005 792.099 481.214C792.309 481.424 792.656 481.529 793.142 481.529ZM800.961 481.514C801.628 481.514 802.223 481.348 802.747 481.014L803.061 481.886C802.785 482.048 802.466 482.181 802.104 482.286C801.752 482.381 801.371 482.429 800.961 482.429C799.828 482.429 798.999 482.148 798.476 481.586C797.952 481.014 797.69 480.095 797.69 478.829C797.69 477.59 797.942 476.681 798.447 476.1C798.952 475.519 799.742 475.229 800.818 475.229C801.742 475.229 802.499 475.509 803.09 476.071L802.49 476.814C802.28 476.605 802.033 476.443 801.747 476.329C801.471 476.205 801.171 476.143 800.847 476.143C800.161 476.143 799.642 476.352 799.29 476.771C798.947 477.181 798.776 477.867 798.776 478.829C798.776 479.79 798.957 480.481 799.318 480.9C799.68 481.309 800.228 481.514 800.961 481.514ZM804.533 482.286V472.343L805.633 472.2V478.071H806.305L808.89 475.371H810.219L807.176 478.543L810.305 482.286H808.976L806.29 479H805.633V482.286H804.533ZM811.624 475.371H812.71V482.286H811.624V475.371ZM811.61 472.4H812.71V473.829H811.61V472.4ZM815.843 476.071C816.167 475.814 816.524 475.609 816.914 475.457C817.305 475.305 817.714 475.229 818.143 475.229C818.943 475.229 819.514 475.424 819.857 475.814C820.21 476.195 820.386 476.819 820.386 477.686V482.286H819.3V477.986C819.3 477.3 819.186 476.824 818.957 476.557C818.738 476.29 818.395 476.157 817.929 476.157C817.262 476.157 816.595 476.4 815.929 476.886V482.286H814.843V475.371H815.657L815.843 476.071ZM827.764 475.371V482.371C827.764 483.429 827.507 484.195 826.993 484.671C826.488 485.157 825.731 485.4 824.721 485.4C824.321 485.4 823.94 485.367 823.578 485.3C823.216 485.243 822.897 485.162 822.621 485.057L822.85 484.157C823.393 484.367 824.012 484.471 824.707 484.471C825.393 484.471 825.888 484.314 826.193 484C826.507 483.686 826.664 483.171 826.664 482.457V481.743C826.426 481.962 826.135 482.133 825.793 482.257C825.459 482.371 825.093 482.429 824.693 482.429C823.797 482.429 823.116 482.138 822.65 481.557C822.193 480.976 821.964 480.067 821.964 478.829C821.964 477.6 822.202 476.695 822.678 476.114C823.155 475.524 823.864 475.229 824.807 475.229C825.207 475.229 825.574 475.295 825.907 475.429C826.24 475.562 826.531 475.743 826.778 475.971L826.95 475.371H827.764ZM824.978 476.143C824.321 476.143 823.835 476.352 823.521 476.771C823.216 477.19 823.064 477.876 823.064 478.829C823.064 479.79 823.216 480.481 823.521 480.9C823.835 481.319 824.321 481.529 824.978 481.529C825.312 481.529 825.621 481.462 825.907 481.329C826.202 481.195 826.455 481.014 826.664 480.786V476.886C826.455 476.657 826.202 476.476 825.907 476.343C825.621 476.209 825.312 476.143 824.978 476.143Z" fill="#F7F3EB"/>
<path opacity="0.5" d="M208.574 105L991.431 105" stroke="#9E9E9E" stroke-width="0.571429"/>
<path opacity="0.5" d="M208.574 270.714L991.431 270.714" stroke="#9E9E9E" stroke-width="0.571429"/>
<path opacity="0.5" d="M208.574 415L991.431 415" stroke="#9E9E9E" stroke-width="0.571429"/>
</svg>
