<svg width="1680" height="830" viewBox="0 0 1680 830" fill="none" xmlns="http://www.w3.org/2000/svg">
<rect width="1680" height="830" fill="#262626"/>
<path d="M304.64 371.8H317.44C325.44 371.8 329.52 368.12 329.52 361.96C329.52 355.24 325.68 351.56 317.68 351.56H304.64V371.8ZM327.84 337.48C327.84 331.48 324.4 328.52 317.6 328.52H304.64V346.52H317.2C324.48 346.52 327.84 343 327.84 337.48ZM334 336.68C334 343.08 330.96 347.08 326.16 348.68C332.32 350.36 335.68 354.92 335.68 361.96C335.68 371.64 328.88 377 317.92 377H298.48V323.24H317.44C328.08 323.24 334 328.04 334 336.68ZM343.571 357.64C343.571 343.88 349.011 337.48 361.171 337.48C373.251 337.48 378.691 343.88 378.691 357.64C378.691 371.48 373.251 377.8 361.171 377.8C349.011 377.8 343.571 371.48 343.571 357.64ZM349.731 357.64C349.731 368.12 353.251 372.68 361.171 372.68C369.091 372.68 372.611 368.12 372.611 357.64C372.611 347.32 369.091 342.68 361.171 342.68C353.251 342.68 349.731 347.32 349.731 357.64ZM412.469 321.32L418.629 320.52V377H414.069L413.109 373.72C410.309 376.28 406.549 377.8 402.069 377.8C391.589 377.8 386.149 371.4 386.149 357.64C386.149 343.96 391.429 337.48 401.429 337.48C405.909 337.48 409.829 338.92 412.469 341.4V321.32ZM403.029 372.76C406.789 372.76 410.149 371.16 412.469 368.6V346.76C410.149 344.2 406.789 342.6 403.029 342.6C395.669 342.6 392.309 347 392.309 357.64C392.309 368.44 395.669 372.76 403.029 372.76ZM440.346 376.52L425.466 338.28H431.866L443.066 368.6H443.306L453.786 338.28H460.106L444.426 381.96C441.226 391.24 437.066 394.44 429.226 394.44C427.706 394.44 426.586 394.28 425.706 393.96L426.586 388.92C427.546 389.16 428.506 389.24 429.706 389.24C434.186 389.24 436.666 386.04 437.946 382.92L440.346 376.52ZM505.721 372.68C509.481 372.68 512.841 371.72 515.721 369.88L517.481 374.76C514.361 376.6 510.281 377.8 505.721 377.8C493.001 377.8 487.401 371.8 487.401 357.64C487.401 343.8 492.841 337.48 504.921 337.48C510.121 337.48 514.361 339.08 517.641 342.2L514.281 346.36C511.961 344.04 508.681 342.6 505.081 342.6C497.401 342.6 493.481 346.84 493.481 357.64C493.481 368.44 497.481 372.68 505.721 372.68ZM521.852 357.64C521.852 343.88 527.292 337.48 539.452 337.48C551.532 337.48 556.972 343.88 556.972 357.64C556.972 371.48 551.532 377.8 539.452 377.8C527.292 377.8 521.852 371.48 521.852 357.64ZM528.012 357.64C528.012 368.12 531.532 372.68 539.452 372.68C547.372 372.68 550.892 368.12 550.892 357.64C550.892 347.32 547.372 342.68 539.452 342.68C531.532 342.68 528.012 347.32 528.012 357.64ZM566.27 338.28H570.83L571.87 341.64C574.67 339.08 578.35 337.48 582.83 337.48C593.31 337.48 598.75 343.96 598.75 357.64C598.75 371.4 593.47 377.8 583.47 377.8C579.23 377.8 574.99 376.44 572.43 373.96V393.64H566.27V338.28ZM581.87 342.6C578.11 342.6 574.75 344.2 572.43 346.76V368.6C574.75 371.16 578.11 372.76 581.87 372.76C589.23 372.76 592.67 368.44 592.67 357.64C592.67 347 589.23 342.6 581.87 342.6ZM617.689 376.52L602.809 338.28H609.209L620.409 368.6H620.649L631.129 338.28H637.449L621.769 381.96C618.569 391.24 614.409 394.44 606.569 394.44C605.049 394.44 603.929 394.28 603.049 393.96L603.929 388.92C604.889 389.16 605.849 389.24 607.049 389.24C611.529 389.24 614.009 386.04 615.289 382.92L617.689 376.52Z" fill="#F7F3EB"/>
<path d="M310.05 511.25C313.2 511.25 316.25 510.5 319.25 508.95L320.4 512.05C317.45 513.6 313.7 514.5 309.95 514.5C298.85 514.5 294.6 508.5 294.6 497.2C294.6 485.35 299.35 479.9 308.9 479.9C314.05 479.9 317.8 481.55 320.2 484.2L317.95 486.7C315.75 484.35 312.95 483.2 308.9 483.2C301.95 483.2 298.45 487.55 298.45 497.2C298.45 506.8 301.8 511.25 310.05 511.25ZM343.361 498.6V514H340.511L339.911 511.75C337.911 513.5 335.161 514.5 331.961 514.5C326.961 514.5 324.461 511.8 324.461 507.05C324.461 502.1 327.261 499.8 334.461 499.8C336.611 499.8 338.161 499.85 339.561 500.05V498.7C339.561 494.25 338.061 492.5 333.661 492.5C331.611 492.5 329.061 493.2 326.611 494.55L325.461 491.65C328.111 490.2 331.161 489.3 334.361 489.3C341.161 489.3 343.361 491.85 343.361 498.6ZM333.011 511.35C335.211 511.35 337.761 510.3 339.561 508.7V503.15C337.811 502.95 336.211 502.85 334.061 502.85C329.861 502.85 328.261 504.05 328.261 507C328.261 509.85 329.661 511.35 333.011 511.35ZM349.528 489.8H352.378L353.028 491.9C354.778 490.3 357.078 489.3 359.878 489.3C366.428 489.3 369.828 493.35 369.828 501.9C369.828 510.5 366.528 514.5 360.278 514.5C357.628 514.5 354.978 513.65 353.378 512.1V524.4H349.528V489.8ZM359.278 492.5C356.928 492.5 354.828 493.5 353.378 495.1V508.75C354.828 510.35 356.928 511.35 359.278 511.35C363.878 511.35 366.028 508.65 366.028 501.9C366.028 495.25 363.878 492.5 359.278 492.5ZM388.515 493.05H379.965V505C379.965 509.45 380.515 511.3 384.465 511.3C385.915 511.3 387.365 510.9 388.715 510.45L389.465 513.35C387.515 514.1 385.365 514.5 383.415 514.5C377.515 514.5 376.115 511.2 376.115 506.25V493.05H372.165V489.8H376.115V484.7L379.965 484V489.8H388.515V493.05ZM394.098 514V489.8H397.898V514H394.098ZM394.048 484.4V479.4H397.898V484.4H394.048ZM403.714 501.9C403.714 493.3 407.114 489.3 414.714 489.3C422.264 489.3 425.664 493.3 425.664 501.9C425.664 510.55 422.264 514.5 414.714 514.5C407.114 514.5 403.714 510.55 403.714 501.9ZM407.564 501.9C407.564 508.45 409.764 511.3 414.714 511.3C419.664 511.3 421.864 508.45 421.864 501.9C421.864 495.45 419.664 492.55 414.714 492.55C409.764 492.55 407.564 495.45 407.564 501.9ZM433.825 489.8L434.475 492.25C436.725 490.45 439.525 489.3 442.525 489.3C448.075 489.3 450.375 491.85 450.375 497.9V514H446.575V498.95C446.575 494.15 445.025 492.55 441.775 492.55C439.425 492.55 437.125 493.4 434.775 495.1V514H430.975V489.8H433.825ZM462.4 499C463.95 499.6 466.45 500.35 468.7 501.2C471.95 502.4 473.55 504.55 473.55 507.65C473.55 512.05 470.6 514.55 463.85 514.55C460.1 514.55 457.55 513.55 455.4 512.35L456.65 509.35C458.6 510.5 461.1 511.4 463.9 511.4C468.15 511.4 469.7 510.25 469.7 507.85C469.7 506.25 468.75 505.05 466.85 504.3C464.7 503.45 462.3 502.75 460.25 502C457.6 501.05 455.9 499.1 455.9 495.95C455.9 492.1 458.95 489.25 465 489.25C468.2 489.25 470.75 490 472.5 490.85L471.35 493.75C469.4 492.8 467.65 492.4 464.9 492.4C460.9 492.4 459.75 494.15 459.75 495.75C459.75 497.35 460.45 498.25 462.4 499ZM509.771 498.6V514H506.921L506.321 511.75C504.321 513.5 501.571 514.5 498.371 514.5C493.371 514.5 490.871 511.8 490.871 507.05C490.871 502.1 493.671 499.8 500.871 499.8C503.021 499.8 504.571 499.85 505.971 500.05V498.7C505.971 494.25 504.471 492.5 500.071 492.5C498.021 492.5 495.471 493.2 493.021 494.55L491.871 491.65C494.521 490.2 497.571 489.3 500.771 489.3C507.571 489.3 509.771 491.85 509.771 498.6ZM499.421 511.35C501.621 511.35 504.171 510.3 505.971 508.7V503.15C504.221 502.95 502.621 502.85 500.471 502.85C496.271 502.85 494.671 504.05 494.671 507C494.671 509.85 496.071 511.35 499.421 511.35ZM518.788 489.8L519.438 492.25C521.688 490.45 524.488 489.3 527.488 489.3C533.038 489.3 535.338 491.85 535.338 497.9V514H531.538V498.95C531.538 494.15 529.988 492.55 526.738 492.55C524.388 492.55 522.088 493.4 519.738 495.1V514H515.938V489.8H518.788ZM556.813 479.2L560.663 478.7V514H557.813L557.213 511.95C555.463 513.55 553.113 514.5 550.313 514.5C543.763 514.5 540.363 510.5 540.363 501.9C540.363 493.35 543.663 489.3 549.913 489.3C552.713 489.3 555.163 490.2 556.813 491.75V479.2ZM550.912 511.35C553.263 511.35 555.363 510.35 556.813 508.75V495.1C555.363 493.5 553.263 492.5 550.912 492.5C546.313 492.5 544.213 495.25 544.213 501.9C544.213 508.65 546.313 511.35 550.912 511.35ZM595.949 479.2L599.799 478.7V514H596.949L596.349 511.95C594.599 513.55 592.249 514.5 589.449 514.5C582.899 514.5 579.499 510.5 579.499 501.9C579.499 493.35 582.799 489.3 589.049 489.3C591.849 489.3 594.299 490.2 595.949 491.75V479.2ZM590.049 511.35C592.399 511.35 594.499 510.35 595.949 508.75V495.1C594.499 493.5 592.399 492.5 590.049 492.5C585.449 492.5 583.349 495.25 583.349 501.9C583.349 508.65 585.449 511.35 590.049 511.35ZM615.972 514.5C608.122 514.5 605.122 510.5 605.122 501.9C605.122 493.3 608.422 489.3 615.272 489.3C622.122 489.3 625.422 493.15 625.422 501.7V503.3H609.022C609.272 509.05 611.372 511.3 616.022 511.3C618.772 511.3 621.572 510.4 623.922 508.95L625.172 512C622.622 513.55 619.372 514.5 615.972 514.5ZM609.022 500.2H621.522C621.172 495 619.272 492.55 615.272 492.55C611.322 492.55 609.372 495 609.022 500.2ZM644.722 493.05H636.172V505C636.172 509.45 636.722 511.3 640.672 511.3C642.122 511.3 643.572 510.9 644.922 510.45L645.672 513.35C643.722 514.1 641.572 514.5 639.622 514.5C633.722 514.5 632.322 511.2 632.322 506.25V493.05H628.372V489.8H632.322V484.7L636.172 484V489.8H644.722V493.05ZM667.355 498.6V514H664.505L663.905 511.75C661.905 513.5 659.155 514.5 655.955 514.5C650.955 514.5 648.455 511.8 648.455 507.05C648.455 502.1 651.255 499.8 658.455 499.8C660.605 499.8 662.155 499.85 663.555 500.05V498.7C663.555 494.25 662.055 492.5 657.655 492.5C655.605 492.5 653.055 493.2 650.605 494.55L649.455 491.65C652.105 490.2 655.155 489.3 658.355 489.3C665.155 489.3 667.355 491.85 667.355 498.6ZM657.005 511.35C659.205 511.35 661.755 510.3 663.555 508.7V503.15C661.805 502.95 660.205 502.85 658.055 502.85C653.855 502.85 652.255 504.05 652.255 507C652.255 509.85 653.655 511.35 657.005 511.35ZM674.072 514V489.8H677.872V514H674.072ZM674.022 484.4V479.4H677.872V484.4H674.022ZM691.589 511.35V514.35C691.239 514.5 690.539 514.5 690.139 514.5C686.739 514.5 685.339 512.5 685.339 508.3V479.3L689.139 478.7V507.75C689.139 510.8 689.589 511.35 691.589 511.35ZM702.298 499C703.848 499.6 706.348 500.35 708.598 501.2C711.848 502.4 713.448 504.55 713.448 507.65C713.448 512.05 710.498 514.55 703.748 514.55C699.998 514.55 697.448 513.55 695.298 512.35L696.548 509.35C698.498 510.5 700.998 511.4 703.798 511.4C708.048 511.4 709.598 510.25 709.598 507.85C709.598 506.25 708.648 505.05 706.748 504.3C704.598 503.45 702.198 502.75 700.148 502C697.498 501.05 695.798 499.1 695.798 495.95C695.798 492.1 698.848 489.25 704.898 489.25C708.098 489.25 710.648 490 712.398 490.85L711.248 493.75C709.298 492.8 707.548 492.4 704.798 492.4C700.798 492.4 699.648 494.15 699.648 495.75C699.648 497.35 700.348 498.25 702.298 499Z" fill="#F7F3EB"/>
<path d="M1059.58 337.7V339H1051.62V325.56H1053.16V337.7H1059.58ZM1066.5 337.9C1067.03 337.9 1067.54 337.867 1068.04 337.8C1068.54 337.72 1069.02 337.607 1069.48 337.46V333.42H1066.04V332.12H1071V338.34C1070.4 338.567 1069.69 338.767 1068.88 338.94C1068.06 339.113 1067.26 339.2 1066.46 339.2C1065.35 339.2 1064.4 339.053 1063.62 338.76C1062.84 338.453 1062.21 338.013 1061.72 337.44C1061.22 336.853 1060.86 336.133 1060.64 335.28C1060.42 334.413 1060.32 333.413 1060.32 332.28C1060.32 329.907 1060.8 328.16 1061.78 327.04C1062.76 325.92 1064.22 325.36 1066.14 325.36C1067.22 325.36 1068.15 325.527 1068.94 325.86C1069.72 326.18 1070.38 326.62 1070.9 327.18L1069.98 328.22C1069.48 327.7 1068.93 327.313 1068.32 327.06C1067.7 326.807 1066.98 326.68 1066.14 326.68C1064.71 326.68 1063.64 327.133 1062.92 328.04C1062.21 328.933 1061.86 330.347 1061.86 332.28C1061.86 334.2 1062.22 335.62 1062.94 336.54C1063.66 337.447 1064.84 337.9 1066.5 337.9ZM1088.04 337.7V339H1079.78V325.56H1087.84V326.88H1081.32V331.34H1087.6V332.64H1081.32V337.7H1088.04ZM1091.06 325.56H1092.6V339H1091.06V325.56ZM1110.2 325.56V326.86H1106.06V339H1104.52V326.86H1100.4V325.56H1110.2ZM1114.22 339.2C1112.65 339.2 1111.53 338.793 1110.86 337.98C1110.21 337.153 1109.88 335.88 1109.88 334.16C1109.88 332.427 1110.22 331.153 1110.88 330.34C1111.55 329.527 1112.57 329.12 1113.94 329.12C1115.32 329.12 1116.34 329.52 1117 330.32C1117.67 331.107 1118 332.36 1118 334.08V334.72H1111.44C1111.5 335.867 1111.74 336.687 1112.18 337.18C1112.62 337.673 1113.31 337.92 1114.24 337.92C1114.8 337.92 1115.35 337.84 1115.88 337.68C1116.43 337.507 1116.94 337.273 1117.4 336.98L1117.9 338.2C1117.4 338.507 1116.82 338.753 1116.18 338.94C1115.56 339.113 1114.9 339.2 1114.22 339.2ZM1116.44 333.48C1116.38 332.44 1116.14 331.673 1115.74 331.18C1115.34 330.673 1114.74 330.42 1113.94 330.42C1113.14 330.42 1112.54 330.673 1112.14 331.18C1111.74 331.673 1111.51 332.44 1111.44 333.48H1116.44ZM1123.59 335.26H1123.53L1120.93 339H1119.17L1122.69 334.06L1119.29 329.32H1121.05L1123.53 332.92H1123.59L1126.09 329.32H1127.85L1124.45 334.06L1127.95 339H1126.19L1123.59 335.26ZM1131.96 330.62V335.4C1131.96 335.84 1131.98 336.22 1132.02 336.54C1132.06 336.86 1132.14 337.127 1132.26 337.34C1132.39 337.54 1132.57 337.687 1132.8 337.78C1133.04 337.873 1133.36 337.92 1133.76 337.92C1134.05 337.92 1134.34 337.887 1134.62 337.82C1134.91 337.753 1135.19 337.673 1135.46 337.58L1135.76 338.74C1134.96 339.047 1134.15 339.2 1133.34 339.2C1132.75 339.2 1132.26 339.12 1131.88 338.96C1131.5 338.8 1131.2 338.58 1130.98 338.3C1130.76 338.007 1130.62 337.66 1130.54 337.26C1130.46 336.847 1130.42 336.393 1130.42 335.9V330.62H1128.84V329.32H1130.42V327.28L1131.96 327V329.32H1135.38V330.62H1131.96ZM1053.16 353.88V359.02H1056.3C1057.3 359.02 1058.03 358.8 1058.48 358.36C1058.93 357.92 1059.16 357.28 1059.16 356.44C1059.16 355.56 1058.93 354.913 1058.48 354.5C1058.04 354.087 1057.33 353.88 1056.36 353.88H1053.16ZM1051.62 366V352.56H1056.26C1057.82 352.56 1058.95 352.887 1059.66 353.54C1060.38 354.18 1060.74 355.147 1060.74 356.44C1060.74 358.333 1059.87 359.54 1058.14 360.06L1061.1 366H1059.44L1056.62 360.32H1053.16V366H1051.62ZM1066.98 366.2C1065.41 366.2 1064.29 365.793 1063.62 364.98C1062.97 364.153 1062.64 362.88 1062.64 361.16C1062.64 359.427 1062.97 358.153 1063.64 357.34C1064.31 356.527 1065.33 356.12 1066.7 356.12C1068.07 356.12 1069.09 356.52 1069.76 357.32C1070.43 358.107 1070.76 359.36 1070.76 361.08V361.72H1064.2C1064.25 362.867 1064.5 363.687 1064.94 364.18C1065.38 364.673 1066.07 364.92 1067 364.92C1067.56 364.92 1068.11 364.84 1068.64 364.68C1069.19 364.507 1069.69 364.273 1070.16 363.98L1070.66 365.2C1070.15 365.507 1069.58 365.753 1068.94 365.94C1068.31 366.113 1067.66 366.2 1066.98 366.2ZM1069.2 360.48C1069.13 359.44 1068.9 358.673 1068.5 358.18C1068.1 357.673 1067.5 357.42 1066.7 357.42C1065.9 357.42 1065.3 357.673 1064.9 358.18C1064.5 358.673 1064.27 359.44 1064.2 360.48H1069.2ZM1080.76 356.32V366.12C1080.76 367.6 1080.4 368.673 1079.68 369.34C1078.97 370.02 1077.91 370.36 1076.5 370.36C1075.94 370.36 1075.41 370.313 1074.9 370.22C1074.39 370.14 1073.95 370.027 1073.56 369.88L1073.88 368.62C1074.64 368.913 1075.51 369.06 1076.48 369.06C1077.44 369.06 1078.13 368.84 1078.56 368.4C1079 367.96 1079.22 367.24 1079.22 366.24V365.24C1078.89 365.547 1078.48 365.787 1078 365.96C1077.53 366.12 1077.02 366.2 1076.46 366.2C1075.21 366.2 1074.25 365.793 1073.6 364.98C1072.96 364.167 1072.64 362.893 1072.64 361.16C1072.64 359.44 1072.97 358.173 1073.64 357.36C1074.31 356.533 1075.3 356.12 1076.62 356.12C1077.18 356.12 1077.69 356.213 1078.16 356.4C1078.63 356.587 1079.03 356.84 1079.38 357.16L1079.62 356.32H1080.76ZM1076.86 357.4C1075.94 357.4 1075.26 357.693 1074.82 358.28C1074.39 358.867 1074.18 359.827 1074.18 361.16C1074.18 362.507 1074.39 363.473 1074.82 364.06C1075.26 364.647 1075.94 364.94 1076.86 364.94C1077.33 364.94 1077.76 364.847 1078.16 364.66C1078.57 364.473 1078.93 364.22 1079.22 363.9V358.44C1078.93 358.12 1078.57 357.867 1078.16 357.68C1077.76 357.493 1077.33 357.4 1076.86 357.4ZM1089.83 365.04C1089.37 365.4 1088.87 365.687 1088.33 365.9C1087.78 366.1 1087.21 366.2 1086.61 366.2C1085.49 366.2 1084.68 365.933 1084.19 365.4C1083.69 364.867 1083.45 363.993 1083.45 362.78V356.32H1084.99V362.36C1084.99 363.32 1085.14 363.987 1085.45 364.36C1085.77 364.733 1086.25 364.92 1086.91 364.92C1087.84 364.92 1088.77 364.58 1089.69 363.9V356.32H1091.23V366H1090.07L1089.83 365.04ZM1096.72 366.14C1096.65 366.167 1096.56 366.18 1096.44 366.18C1096.32 366.193 1096.22 366.2 1096.14 366.2C1095.46 366.2 1094.96 366 1094.66 365.6C1094.36 365.187 1094.22 364.56 1094.22 363.72V352.12L1095.74 351.88V363.5C1095.74 363.807 1095.75 364.053 1095.78 364.24C1095.8 364.427 1095.85 364.573 1095.92 364.68C1096 364.787 1096.1 364.86 1096.22 364.9C1096.35 364.927 1096.52 364.94 1096.72 364.94V366.14ZM1106.17 366H1105.03L1104.79 365.1C1104.39 365.447 1103.92 365.72 1103.37 365.92C1102.84 366.107 1102.25 366.2 1101.61 366.2C1100.61 366.2 1099.86 365.947 1099.35 365.44C1098.86 364.92 1098.61 364.18 1098.61 363.22C1098.61 362.233 1098.92 361.507 1099.53 361.04C1100.15 360.56 1101.17 360.32 1102.61 360.32C1103.04 360.32 1103.41 360.327 1103.73 360.34C1104.07 360.353 1104.37 360.38 1104.65 360.42V359.88C1104.65 358.987 1104.48 358.353 1104.13 357.98C1103.79 357.593 1103.17 357.4 1102.29 357.4C1101.88 357.4 1101.43 357.473 1100.93 357.62C1100.45 357.753 1099.97 357.953 1099.47 358.22L1099.01 357.06C1099.55 356.767 1100.11 356.54 1100.71 356.38C1101.31 356.207 1101.93 356.12 1102.57 356.12C1103.25 356.12 1103.82 356.187 1104.27 356.32C1104.74 356.453 1105.11 356.673 1105.39 356.98C1105.67 357.273 1105.87 357.653 1105.99 358.12C1106.11 358.587 1106.17 359.16 1106.17 359.84V366ZM1102.03 364.94C1102.47 364.94 1102.93 364.847 1103.39 364.66C1103.87 364.46 1104.29 364.2 1104.65 363.88V361.66C1104.31 361.62 1103.96 361.593 1103.61 361.58C1103.27 361.553 1102.88 361.54 1102.45 361.54C1101.61 361.54 1101.01 361.667 1100.65 361.92C1100.31 362.173 1100.13 362.6 1100.13 363.2C1100.13 363.773 1100.28 364.207 1100.57 364.5C1100.87 364.793 1101.35 364.94 1102.03 364.94ZM1110 356.32L1110.18 357.6C1110.62 357.12 1111.11 356.753 1111.66 356.5C1112.21 356.247 1112.76 356.12 1113.32 356.12C1113.55 356.12 1113.74 356.14 1113.9 356.18C1114.07 356.207 1114.25 356.253 1114.44 356.32V357.68C1114.04 357.52 1113.62 357.44 1113.18 357.44C1112.67 357.44 1112.17 357.58 1111.66 357.86C1111.15 358.14 1110.72 358.493 1110.36 358.92V366H1108.84V356.32H1110Z" fill="#F7F3EB"/>
<path d="M1059.58 490.7V492H1051.62V478.56H1053.16V490.7H1059.58ZM1066.5 490.9C1067.03 490.9 1067.54 490.867 1068.04 490.8C1068.54 490.72 1069.02 490.607 1069.48 490.46V486.42H1066.04V485.12H1071V491.34C1070.4 491.567 1069.69 491.767 1068.88 491.94C1068.06 492.113 1067.26 492.2 1066.46 492.2C1065.35 492.2 1064.4 492.053 1063.62 491.76C1062.84 491.453 1062.21 491.013 1061.72 490.44C1061.22 489.853 1060.86 489.133 1060.64 488.28C1060.42 487.413 1060.32 486.413 1060.32 485.28C1060.32 482.907 1060.8 481.16 1061.78 480.04C1062.76 478.92 1064.22 478.36 1066.14 478.36C1067.22 478.36 1068.15 478.527 1068.94 478.86C1069.72 479.18 1070.38 479.62 1070.9 480.18L1069.98 481.22C1069.48 480.7 1068.93 480.313 1068.32 480.06C1067.7 479.807 1066.98 479.68 1066.14 479.68C1064.71 479.68 1063.64 480.133 1062.92 481.04C1062.21 481.933 1061.86 483.347 1061.86 485.28C1061.86 487.2 1062.22 488.62 1062.94 489.54C1063.66 490.447 1064.84 490.9 1066.5 490.9ZM1088.04 490.7V492H1079.78V478.56H1087.84V479.88H1081.32V484.34H1087.6V485.64H1081.32V490.7H1088.04ZM1091.06 478.56H1092.6V492H1091.06V478.56ZM1110.2 478.56V479.86H1106.06V492H1104.52V479.86H1100.4V478.56H1110.2ZM1114.22 492.2C1112.65 492.2 1111.53 491.793 1110.86 490.98C1110.21 490.153 1109.88 488.88 1109.88 487.16C1109.88 485.427 1110.22 484.153 1110.88 483.34C1111.55 482.527 1112.57 482.12 1113.94 482.12C1115.32 482.12 1116.34 482.52 1117 483.32C1117.67 484.107 1118 485.36 1118 487.08V487.72H1111.44C1111.5 488.867 1111.74 489.687 1112.18 490.18C1112.62 490.673 1113.31 490.92 1114.24 490.92C1114.8 490.92 1115.35 490.84 1115.88 490.68C1116.43 490.507 1116.94 490.273 1117.4 489.98L1117.9 491.2C1117.4 491.507 1116.82 491.753 1116.18 491.94C1115.56 492.113 1114.9 492.2 1114.22 492.2ZM1116.44 486.48C1116.38 485.44 1116.14 484.673 1115.74 484.18C1115.34 483.673 1114.74 483.42 1113.94 483.42C1113.14 483.42 1112.54 483.673 1112.14 484.18C1111.74 484.673 1111.51 485.44 1111.44 486.48H1116.44ZM1123.59 488.26H1123.53L1120.93 492H1119.17L1122.69 487.06L1119.29 482.32H1121.05L1123.53 485.92H1123.59L1126.09 482.32H1127.85L1124.45 487.06L1127.95 492H1126.19L1123.59 488.26ZM1131.96 483.62V488.4C1131.96 488.84 1131.98 489.22 1132.02 489.54C1132.06 489.86 1132.14 490.127 1132.26 490.34C1132.39 490.54 1132.57 490.687 1132.8 490.78C1133.04 490.873 1133.36 490.92 1133.76 490.92C1134.05 490.92 1134.34 490.887 1134.62 490.82C1134.91 490.753 1135.19 490.673 1135.46 490.58L1135.76 491.74C1134.96 492.047 1134.15 492.2 1133.34 492.2C1132.75 492.2 1132.26 492.12 1131.88 491.96C1131.5 491.8 1131.2 491.58 1130.98 491.3C1130.76 491.007 1130.62 490.66 1130.54 490.26C1130.46 489.847 1130.42 489.393 1130.42 488.9V483.62H1128.84V482.32H1130.42V480.28L1131.96 480V482.32H1135.38V483.62H1131.96ZM1053.16 506.88V512.02H1056.3C1057.3 512.02 1058.03 511.8 1058.48 511.36C1058.93 510.92 1059.16 510.28 1059.16 509.44C1059.16 508.56 1058.93 507.913 1058.48 507.5C1058.04 507.087 1057.33 506.88 1056.36 506.88H1053.16ZM1051.62 519V505.56H1056.26C1057.82 505.56 1058.95 505.887 1059.66 506.54C1060.38 507.18 1060.74 508.147 1060.74 509.44C1060.74 511.333 1059.87 512.54 1058.14 513.06L1061.1 519H1059.44L1056.62 513.32H1053.16V519H1051.62ZM1066.98 519.2C1065.41 519.2 1064.29 518.793 1063.62 517.98C1062.97 517.153 1062.64 515.88 1062.64 514.16C1062.64 512.427 1062.97 511.153 1063.64 510.34C1064.31 509.527 1065.33 509.12 1066.7 509.12C1068.07 509.12 1069.09 509.52 1069.76 510.32C1070.43 511.107 1070.76 512.36 1070.76 514.08V514.72H1064.2C1064.25 515.867 1064.5 516.687 1064.94 517.18C1065.38 517.673 1066.07 517.92 1067 517.92C1067.56 517.92 1068.11 517.84 1068.64 517.68C1069.19 517.507 1069.69 517.273 1070.16 516.98L1070.66 518.2C1070.15 518.507 1069.58 518.753 1068.94 518.94C1068.31 519.113 1067.66 519.2 1066.98 519.2ZM1069.2 513.48C1069.13 512.44 1068.9 511.673 1068.5 511.18C1068.1 510.673 1067.5 510.42 1066.7 510.42C1065.9 510.42 1065.3 510.673 1064.9 511.18C1064.5 511.673 1064.27 512.44 1064.2 513.48H1069.2ZM1080.76 509.32V519.12C1080.76 520.6 1080.4 521.673 1079.68 522.34C1078.97 523.02 1077.91 523.36 1076.5 523.36C1075.94 523.36 1075.41 523.313 1074.9 523.22C1074.39 523.14 1073.95 523.027 1073.56 522.88L1073.88 521.62C1074.64 521.913 1075.51 522.06 1076.48 522.06C1077.44 522.06 1078.13 521.84 1078.56 521.4C1079 520.96 1079.22 520.24 1079.22 519.24V518.24C1078.89 518.547 1078.48 518.787 1078 518.96C1077.53 519.12 1077.02 519.2 1076.46 519.2C1075.21 519.2 1074.25 518.793 1073.6 517.98C1072.96 517.167 1072.64 515.893 1072.64 514.16C1072.64 512.44 1072.97 511.173 1073.64 510.36C1074.31 509.533 1075.3 509.12 1076.62 509.12C1077.18 509.12 1077.69 509.213 1078.16 509.4C1078.63 509.587 1079.03 509.84 1079.38 510.16L1079.62 509.32H1080.76ZM1076.86 510.4C1075.94 510.4 1075.26 510.693 1074.82 511.28C1074.39 511.867 1074.18 512.827 1074.18 514.16C1074.18 515.507 1074.39 516.473 1074.82 517.06C1075.26 517.647 1075.94 517.94 1076.86 517.94C1077.33 517.94 1077.76 517.847 1078.16 517.66C1078.57 517.473 1078.93 517.22 1079.22 516.9V511.44C1078.93 511.12 1078.57 510.867 1078.16 510.68C1077.76 510.493 1077.33 510.4 1076.86 510.4ZM1089.83 518.04C1089.37 518.4 1088.87 518.687 1088.33 518.9C1087.78 519.1 1087.21 519.2 1086.61 519.2C1085.49 519.2 1084.68 518.933 1084.19 518.4C1083.69 517.867 1083.45 516.993 1083.45 515.78V509.32H1084.99V515.36C1084.99 516.32 1085.14 516.987 1085.45 517.36C1085.77 517.733 1086.25 517.92 1086.91 517.92C1087.84 517.92 1088.77 517.58 1089.69 516.9V509.32H1091.23V519H1090.07L1089.83 518.04ZM1096.72 519.14C1096.65 519.167 1096.56 519.18 1096.44 519.18C1096.32 519.193 1096.22 519.2 1096.14 519.2C1095.46 519.2 1094.96 519 1094.66 518.6C1094.36 518.187 1094.22 517.56 1094.22 516.72V505.12L1095.74 504.88V516.5C1095.74 516.807 1095.75 517.053 1095.78 517.24C1095.8 517.427 1095.85 517.573 1095.92 517.68C1096 517.787 1096.1 517.86 1096.22 517.9C1096.35 517.927 1096.52 517.94 1096.72 517.94V519.14ZM1106.17 519H1105.03L1104.79 518.1C1104.39 518.447 1103.92 518.72 1103.37 518.92C1102.84 519.107 1102.25 519.2 1101.61 519.2C1100.61 519.2 1099.86 518.947 1099.35 518.44C1098.86 517.92 1098.61 517.18 1098.61 516.22C1098.61 515.233 1098.92 514.507 1099.53 514.04C1100.15 513.56 1101.17 513.32 1102.61 513.32C1103.04 513.32 1103.41 513.327 1103.73 513.34C1104.07 513.353 1104.37 513.38 1104.65 513.42V512.88C1104.65 511.987 1104.48 511.353 1104.13 510.98C1103.79 510.593 1103.17 510.4 1102.29 510.4C1101.88 510.4 1101.43 510.473 1100.93 510.62C1100.45 510.753 1099.97 510.953 1099.47 511.22L1099.01 510.06C1099.55 509.767 1100.11 509.54 1100.71 509.38C1101.31 509.207 1101.93 509.12 1102.57 509.12C1103.25 509.12 1103.82 509.187 1104.27 509.32C1104.74 509.453 1105.11 509.673 1105.39 509.98C1105.67 510.273 1105.87 510.653 1105.99 511.12C1106.11 511.587 1106.17 512.16 1106.17 512.84V519ZM1102.03 517.94C1102.47 517.94 1102.93 517.847 1103.39 517.66C1103.87 517.46 1104.29 517.2 1104.65 516.88V514.66C1104.31 514.62 1103.96 514.593 1103.61 514.58C1103.27 514.553 1102.88 514.54 1102.45 514.54C1101.61 514.54 1101.01 514.667 1100.65 514.92C1100.31 515.173 1100.13 515.6 1100.13 516.2C1100.13 516.773 1100.28 517.207 1100.57 517.5C1100.87 517.793 1101.35 517.94 1102.03 517.94ZM1110 509.32L1110.18 510.6C1110.62 510.12 1111.11 509.753 1111.66 509.5C1112.21 509.247 1112.76 509.12 1113.32 509.12C1113.55 509.12 1113.74 509.14 1113.9 509.18C1114.07 509.207 1114.25 509.253 1114.44 509.32V510.68C1114.04 510.52 1113.62 510.44 1113.18 510.44C1112.67 510.44 1112.17 510.58 1111.66 510.86C1111.15 511.14 1110.72 511.493 1110.36 511.92V519H1108.84V509.32H1110Z" fill="#F7F3EB"/>
<path opacity="0.5" d="M292 298L1388 298" stroke="#9E9E9E" stroke-width="0.8"/>
<path opacity="0.5" d="M292 451L1388 451" stroke="#9E9E9E" stroke-width="0.8"/>
</svg>
