<svg width="1200" height="594" viewBox="0 0 1200 594" fill="none" xmlns="http://www.w3.org/2000/svg">
<rect width="1200" height="592.857" transform="translate(0 0.857422)" fill="#262626"/>
<path d="M245.37 281.055H232.685V215.683H210.056V204.255H268.113V215.683H245.37V281.055ZM276.708 216.712V204.255H289.394V216.712H276.708ZM276.708 281.055V225.283H289.394V281.055H276.708ZM297.944 225.283H306.402V211.112H319.087V225.283H332.459V236.369H319.087V265.855C319.087 269.512 320.459 270.312 324.23 270.312H332.459V281.055H322.859C314.059 281.055 306.402 277.169 306.402 266.998V236.369H297.944V225.283ZM356.005 282.198C347.205 282.198 341.605 278.655 341.605 269.169V204.255H354.291V266.998C354.291 270.655 355.434 271.455 358.748 271.455H360.919V282.198H356.005ZM420.521 264.826C416.75 276.026 406.35 282.655 394.007 282.655C377.893 282.655 365.435 270.883 365.435 253.055C365.435 235.455 377.893 223.798 393.664 223.798C407.721 223.798 421.55 233.512 421.55 253.283V256.826H378.121C379.035 267.912 383.835 271.455 394.007 271.455C401.778 271.455 405.55 269.626 407.835 264.826H420.521ZM378.35 247.455H409.093C408.064 238.426 403.493 234.883 393.664 234.883C384.407 234.883 379.607 238.083 378.35 247.455Z" fill="#F7F3EB"/>
<path d="M227.339 409.254C230.29 409.254 232.513 408.624 234.008 407.365C235.503 406.066 236.251 404.276 236.251 401.994C236.251 399.515 235.523 397.627 234.067 396.328C232.65 394.99 230.467 394.321 227.516 394.321H217.895V409.254H227.339ZM235.011 383.934C235.011 379.527 232.493 377.324 227.457 377.324H217.895V390.603H227.162C229.877 390.603 231.864 390.013 233.123 388.833C234.382 387.613 235.011 385.98 235.011 383.934ZM239.556 383.344C239.556 385.705 239.025 387.633 237.962 389.128C236.939 390.584 235.542 391.607 233.772 392.197C236.054 392.826 237.785 393.967 238.966 395.62C240.185 397.272 240.795 399.397 240.795 401.994C240.795 405.575 239.615 408.329 237.254 410.257C234.933 412.146 231.745 413.09 227.693 413.09H213.351V373.428H227.339C231.273 373.428 234.283 374.294 236.369 376.025C238.493 377.717 239.556 380.157 239.556 383.344ZM246.617 398.807C246.617 393.692 247.64 389.934 249.686 387.534C251.771 385.134 255.076 383.934 259.601 383.934C264.086 383.934 267.352 385.134 269.398 387.534C271.484 389.934 272.526 393.692 272.526 398.807C272.526 403.922 271.484 407.68 269.398 410.08C267.313 412.48 264.047 413.68 259.601 413.68C255.115 413.68 251.83 412.48 249.745 410.08C247.659 407.68 246.617 403.922 246.617 398.807ZM251.161 398.807C251.161 402.702 251.83 405.535 253.168 407.306C254.506 409.037 256.65 409.903 259.601 409.903C262.552 409.903 264.696 409.037 266.034 407.306C267.372 405.535 268.041 402.702 268.041 398.807C268.041 394.99 267.372 392.197 266.034 390.426C264.696 388.656 262.552 387.77 259.601 387.77C256.65 387.77 254.506 388.656 253.168 390.426C251.83 392.197 251.161 394.99 251.161 398.807ZM301.991 371.422V413.09H298.627L297.918 410.67C296.895 411.614 295.695 412.362 294.318 412.913C292.941 413.424 291.426 413.68 289.774 413.68C285.878 413.68 282.947 412.48 280.98 410.08C279.012 407.68 278.029 403.922 278.029 398.807C278.029 393.731 278.973 389.993 280.862 387.593C282.79 385.154 285.603 383.934 289.301 383.934C290.954 383.934 292.469 384.19 293.846 384.701C295.262 385.213 296.462 385.921 297.446 386.826V372.012L301.991 371.422ZM290.482 409.962C291.859 409.962 293.138 409.686 294.318 409.136C295.538 408.585 296.581 407.837 297.446 406.893V390.78C296.581 389.836 295.538 389.088 294.318 388.538C293.138 387.987 291.859 387.711 290.482 387.711C287.767 387.711 285.76 388.577 284.462 390.308C283.203 392.039 282.573 394.872 282.573 398.807C282.573 402.781 283.203 405.634 284.462 407.365C285.76 409.096 287.767 409.962 290.482 409.962ZM307.035 384.524H311.756L320.019 406.893H320.196L327.928 384.524H332.59L321.022 416.749C320.432 418.48 319.783 419.916 319.075 421.058C318.366 422.238 317.56 423.182 316.655 423.891C315.789 424.638 314.786 425.169 313.645 425.484C312.543 425.799 311.264 425.956 309.809 425.956C308.707 425.956 307.841 425.838 307.212 425.602L307.861 421.884C308.49 422.041 309.258 422.12 310.163 422.12C310.989 422.12 311.717 421.982 312.346 421.707C313.015 421.431 313.586 421.077 314.058 420.644C314.569 420.212 315.002 419.72 315.356 419.169C315.711 418.618 316.006 418.048 316.242 417.457L318.012 412.736L307.035 384.524ZM366.243 409.903C368.997 409.903 371.456 409.214 373.62 407.837L374.919 411.437C373.778 412.106 372.459 412.657 370.964 413.09C369.508 413.483 367.935 413.68 366.243 413.68C361.56 413.68 358.137 412.519 355.973 410.198C353.809 407.837 352.727 404.04 352.727 398.807C352.727 393.692 353.77 389.934 355.855 387.534C357.941 385.134 361.206 383.934 365.653 383.934C369.469 383.934 372.597 385.095 375.037 387.416L372.558 390.485C371.692 389.62 370.669 388.951 369.489 388.479C368.348 387.967 367.108 387.711 365.771 387.711C362.938 387.711 360.793 388.577 359.337 390.308C357.921 392 357.213 394.833 357.213 398.807C357.213 402.781 357.96 405.634 359.455 407.365C360.951 409.057 363.213 409.903 366.243 409.903ZM378.144 398.807C378.144 393.692 379.167 389.934 381.213 387.534C383.298 385.134 386.603 383.934 391.128 383.934C395.613 383.934 398.879 385.134 400.925 387.534C403.011 389.934 404.053 393.692 404.053 398.807C404.053 403.922 403.011 407.68 400.925 410.08C398.84 412.48 395.574 413.68 391.128 413.68C386.642 413.68 383.357 412.48 381.272 410.08C379.186 407.68 378.144 403.922 378.144 398.807ZM382.688 398.807C382.688 402.702 383.357 405.535 384.695 407.306C386.033 409.037 388.177 409.903 391.128 409.903C394.079 409.903 396.223 409.037 397.561 407.306C398.899 405.535 399.568 402.702 399.568 398.807C399.568 394.99 398.899 392.197 397.561 390.426C396.223 388.656 394.079 387.77 391.128 387.77C388.177 387.77 386.033 388.656 384.695 390.426C383.357 392.197 382.688 394.99 382.688 398.807ZM414.277 384.524L415.044 387.003C416.067 386.059 417.248 385.311 418.586 384.76C419.963 384.209 421.478 383.934 423.13 383.934C427.025 383.934 429.957 385.154 431.924 387.593C433.891 389.993 434.875 393.731 434.875 398.807C434.875 403.922 433.911 407.68 431.983 410.08C430.095 412.48 427.301 413.68 423.602 413.68C422.028 413.68 420.514 413.444 419.058 412.972C417.602 412.46 416.402 411.752 415.458 410.847V425.366H410.913V384.524H414.277ZM422.422 387.711C421.045 387.711 419.746 387.987 418.527 388.538C417.346 389.088 416.323 389.836 415.458 390.78V406.893C416.323 407.837 417.346 408.585 418.527 409.136C419.746 409.686 421.045 409.962 422.422 409.962C425.137 409.962 427.144 409.096 428.442 407.365C429.74 405.634 430.39 402.781 430.39 398.807C430.39 394.872 429.74 392.039 428.442 390.308C427.144 388.577 425.137 387.711 422.422 387.711ZM437.87 384.524H442.592L450.854 406.893H451.031L458.763 384.524H463.426L451.858 416.749C451.267 418.48 450.618 419.916 449.91 421.058C449.202 422.238 448.395 423.182 447.49 423.891C446.625 424.638 445.621 425.169 444.48 425.484C443.378 425.799 442.1 425.956 440.644 425.956C439.542 425.956 438.677 425.838 438.047 425.602L438.696 421.884C439.326 422.041 440.093 422.12 440.998 422.12C441.824 422.12 442.552 421.982 443.182 421.707C443.851 421.431 444.421 421.077 444.893 420.644C445.405 420.212 445.838 419.72 446.192 419.169C446.546 418.618 446.841 418.048 447.077 417.457L448.848 412.736L437.87 384.524Z" fill="#F7F3EB"/>
<path d="M756.843 210.126V211.055H751.157V201.455H752.257V210.126H756.843ZM761.784 210.269C762.165 210.269 762.531 210.245 762.884 210.198C763.246 210.14 763.589 210.059 763.912 209.955V207.069H761.455V206.14H764.998V210.583C764.57 210.745 764.065 210.888 763.484 211.012C762.903 211.136 762.327 211.198 761.755 211.198C760.965 211.198 760.289 211.093 759.727 210.883C759.174 210.664 758.722 210.35 758.37 209.94C758.017 209.521 757.76 209.007 757.598 208.398C757.446 207.778 757.37 207.064 757.37 206.255C757.37 204.559 757.717 203.312 758.412 202.512C759.117 201.712 760.155 201.312 761.527 201.312C762.298 201.312 762.965 201.431 763.527 201.669C764.089 201.898 764.555 202.212 764.927 202.612L764.27 203.355C763.917 202.983 763.522 202.707 763.084 202.526C762.646 202.345 762.127 202.255 761.527 202.255C760.508 202.255 759.741 202.578 759.227 203.226C758.722 203.864 758.47 204.874 758.47 206.255C758.47 207.626 758.727 208.64 759.241 209.298C759.755 209.945 760.603 210.269 761.784 210.269ZM777.174 210.126V211.055H771.274V201.455H777.031V202.398H772.374V205.583H776.86V206.512H772.374V210.126H777.174ZM779.327 201.455H780.427V211.055H779.327V201.455ZM794.228 201.455V211.055H793.114V206.498H787.999V211.055H786.899V201.455H787.999V205.555H793.114V201.455H794.228ZM799.139 211.198C798.016 211.198 797.216 210.907 796.739 210.326C796.273 209.736 796.039 208.826 796.039 207.598C796.039 206.359 796.277 205.45 796.754 204.869C797.23 204.288 797.958 203.998 798.939 203.998C799.92 203.998 800.649 204.283 801.125 204.855C801.601 205.417 801.839 206.312 801.839 207.54V207.998H797.154C797.192 208.817 797.368 209.402 797.682 209.755C797.997 210.107 798.487 210.283 799.154 210.283C799.554 210.283 799.944 210.226 800.325 210.112C800.716 209.988 801.077 209.821 801.411 209.612L801.768 210.483C801.406 210.702 800.997 210.878 800.539 211.012C800.092 211.136 799.625 211.198 799.139 211.198ZM800.725 207.112C800.677 206.369 800.511 205.821 800.225 205.469C799.939 205.107 799.511 204.926 798.939 204.926C798.368 204.926 797.939 205.107 797.654 205.469C797.368 205.821 797.201 206.369 797.154 207.112H800.725ZM808.539 211.055H807.725L807.554 210.412C807.268 210.659 806.93 210.855 806.539 210.998C806.158 211.131 805.739 211.198 805.282 211.198C804.568 211.198 804.03 211.017 803.668 210.655C803.316 210.283 803.139 209.755 803.139 209.069C803.139 208.364 803.358 207.845 803.797 207.512C804.235 207.169 804.968 206.998 805.997 206.998C806.301 206.998 806.568 207.002 806.797 207.012C807.035 207.021 807.254 207.04 807.454 207.069V206.683C807.454 206.045 807.33 205.593 807.082 205.326C806.835 205.05 806.397 204.912 805.768 204.912C805.473 204.912 805.149 204.964 804.797 205.069C804.454 205.164 804.106 205.307 803.754 205.498L803.425 204.669C803.806 204.459 804.211 204.298 804.639 204.183C805.068 204.059 805.511 203.998 805.968 203.998C806.454 203.998 806.858 204.045 807.182 204.14C807.516 204.236 807.782 204.393 807.982 204.612C808.182 204.821 808.325 205.093 808.411 205.426C808.497 205.759 808.539 206.169 808.539 206.655V211.055ZM805.582 210.298C805.897 210.298 806.22 210.231 806.554 210.098C806.897 209.955 807.197 209.769 807.454 209.54V207.955C807.206 207.926 806.958 207.907 806.711 207.898C806.463 207.878 806.187 207.869 805.882 207.869C805.282 207.869 804.854 207.959 804.597 208.14C804.349 208.321 804.225 208.626 804.225 209.055C804.225 209.464 804.33 209.774 804.539 209.983C804.749 210.193 805.097 210.298 805.582 210.298ZM815.916 200.969V211.055H815.102L814.93 210.469C814.683 210.698 814.392 210.878 814.059 211.012C813.725 211.136 813.359 211.198 812.959 211.198C812.016 211.198 811.306 210.907 810.83 210.326C810.354 209.745 810.116 208.836 810.116 207.598C810.116 206.369 810.344 205.464 810.802 204.883C811.268 204.293 811.949 203.998 812.844 203.998C813.244 203.998 813.611 204.059 813.944 204.183C814.287 204.307 814.578 204.478 814.816 204.698V201.112L815.916 200.969ZM813.13 210.298C813.463 210.298 813.773 210.231 814.059 210.098C814.354 209.964 814.606 209.783 814.816 209.555V205.655C814.606 205.426 814.354 205.245 814.059 205.112C813.773 204.978 813.463 204.912 813.13 204.912C812.473 204.912 811.987 205.121 811.673 205.54C811.368 205.959 811.216 206.645 811.216 207.598C811.216 208.559 811.368 209.25 811.673 209.669C811.987 210.088 812.473 210.298 813.13 210.298ZM819.837 211.155C819.789 211.174 819.722 211.183 819.637 211.183C819.551 211.193 819.48 211.198 819.422 211.198C818.937 211.198 818.584 211.055 818.365 210.769C818.156 210.474 818.051 210.026 818.051 209.426V201.14L819.137 200.969V209.269C819.137 209.488 819.146 209.664 819.165 209.798C819.184 209.931 819.218 210.036 819.265 210.112C819.322 210.188 819.394 210.24 819.48 210.269C819.575 210.288 819.694 210.298 819.837 210.298V211.155ZM821.525 204.14H822.611V211.055H821.525V204.14ZM821.511 201.169H822.611V202.598H821.511V201.169ZM825.744 204.84C826.068 204.583 826.425 204.378 826.816 204.226C827.206 204.074 827.616 203.998 828.044 203.998C828.844 203.998 829.416 204.193 829.758 204.583C830.111 204.964 830.287 205.588 830.287 206.455V211.055H829.201V206.755C829.201 206.069 829.087 205.593 828.858 205.326C828.639 205.059 828.296 204.926 827.83 204.926C827.163 204.926 826.496 205.169 825.83 205.655V211.055H824.744V204.14H825.558L825.744 204.84ZM834.965 211.198C833.841 211.198 833.041 210.907 832.565 210.326C832.099 209.736 831.865 208.826 831.865 207.598C831.865 206.359 832.103 205.45 832.58 204.869C833.056 204.288 833.784 203.998 834.765 203.998C835.746 203.998 836.475 204.283 836.951 204.855C837.427 205.417 837.665 206.312 837.665 207.54V207.998H832.98C833.018 208.817 833.194 209.402 833.508 209.755C833.822 210.107 834.313 210.283 834.98 210.283C835.38 210.283 835.77 210.226 836.151 210.112C836.541 209.988 836.903 209.821 837.237 209.612L837.594 210.483C837.232 210.702 836.822 210.878 836.365 211.012C835.918 211.136 835.451 211.198 834.965 211.198ZM836.551 207.112C836.503 206.369 836.337 205.821 836.051 205.469C835.765 205.107 835.337 204.926 834.765 204.926C834.194 204.926 833.765 205.107 833.48 205.469C833.194 205.821 833.027 206.369 832.98 207.112H836.551ZM752.257 221.398V225.069H754.5C755.214 225.069 755.733 224.912 756.057 224.598C756.381 224.283 756.543 223.826 756.543 223.226C756.543 222.598 756.381 222.136 756.057 221.84C755.743 221.545 755.238 221.398 754.543 221.398H752.257ZM751.157 230.055V220.455H754.471C755.586 220.455 756.395 220.688 756.9 221.155C757.414 221.612 757.671 222.302 757.671 223.226C757.671 224.578 757.052 225.44 755.814 225.812L757.929 230.055H756.743L754.729 225.998H752.257V230.055H751.157ZM762.128 230.198C761.004 230.198 760.204 229.907 759.728 229.326C759.261 228.736 759.028 227.826 759.028 226.598C759.028 225.359 759.266 224.45 759.742 223.869C760.218 223.288 760.947 222.998 761.928 222.998C762.909 222.998 763.637 223.283 764.113 223.855C764.59 224.417 764.828 225.312 764.828 226.54V226.998H760.142C760.18 227.817 760.356 228.402 760.671 228.755C760.985 229.107 761.475 229.283 762.142 229.283C762.542 229.283 762.932 229.226 763.313 229.112C763.704 228.988 764.066 228.821 764.399 228.612L764.756 229.483C764.394 229.702 763.985 229.878 763.528 230.012C763.08 230.136 762.613 230.198 762.128 230.198ZM763.713 226.112C763.666 225.369 763.499 224.821 763.213 224.469C762.928 224.107 762.499 223.926 761.928 223.926C761.356 223.926 760.928 224.107 760.642 224.469C760.356 224.821 760.19 225.369 760.142 226.112H763.713ZM771.971 223.14V230.14C771.971 231.198 771.713 231.964 771.199 232.44C770.694 232.926 769.937 233.169 768.928 233.169C768.528 233.169 768.147 233.136 767.785 233.069C767.423 233.012 767.104 232.931 766.828 232.826L767.056 231.926C767.599 232.136 768.218 232.24 768.913 232.24C769.599 232.24 770.094 232.083 770.399 231.769C770.713 231.455 770.871 230.94 770.871 230.226V229.512C770.632 229.731 770.342 229.902 769.999 230.026C769.666 230.14 769.299 230.198 768.899 230.198C768.004 230.198 767.323 229.907 766.856 229.326C766.399 228.745 766.171 227.836 766.171 226.598C766.171 225.369 766.409 224.464 766.885 223.883C767.361 223.293 768.071 222.998 769.013 222.998C769.413 222.998 769.78 223.064 770.113 223.198C770.447 223.331 770.737 223.512 770.985 223.74L771.156 223.14H771.971ZM769.185 223.912C768.528 223.912 768.042 224.121 767.728 224.54C767.423 224.959 767.271 225.645 767.271 226.598C767.271 227.559 767.423 228.25 767.728 228.669C768.042 229.088 768.528 229.298 769.185 229.298C769.518 229.298 769.828 229.231 770.113 229.098C770.409 228.964 770.661 228.783 770.871 228.555V224.655C770.661 224.426 770.409 224.245 770.113 224.112C769.828 223.978 769.518 223.912 769.185 223.912ZM778.449 229.369C778.125 229.626 777.768 229.831 777.377 229.983C776.987 230.126 776.577 230.198 776.149 230.198C775.349 230.198 774.772 230.007 774.42 229.626C774.068 229.245 773.891 228.621 773.891 227.755V223.14H774.991V227.455C774.991 228.14 775.101 228.617 775.32 228.883C775.549 229.15 775.896 229.283 776.363 229.283C777.03 229.283 777.691 229.04 778.349 228.555V223.14H779.449V230.055H778.62L778.449 229.369ZM783.369 230.155C783.321 230.174 783.255 230.183 783.169 230.183C783.083 230.193 783.012 230.198 782.955 230.198C782.469 230.198 782.117 230.055 781.898 229.769C781.688 229.474 781.583 229.026 781.583 228.426V220.14L782.669 219.969V228.269C782.669 228.488 782.679 228.664 782.698 228.798C782.717 228.931 782.75 229.036 782.798 229.112C782.855 229.188 782.926 229.24 783.012 229.269C783.107 229.288 783.226 229.298 783.369 229.298V230.155ZM790.124 230.055H789.31L789.139 229.412C788.853 229.659 788.515 229.855 788.124 229.998C787.743 230.131 787.324 230.198 786.867 230.198C786.153 230.198 785.615 230.017 785.253 229.655C784.9 229.283 784.724 228.755 784.724 228.069C784.724 227.364 784.943 226.845 785.381 226.512C785.819 226.169 786.553 225.998 787.581 225.998C787.886 225.998 788.153 226.002 788.381 226.012C788.619 226.021 788.839 226.04 789.039 226.069V225.683C789.039 225.045 788.915 224.593 788.667 224.326C788.419 224.05 787.981 223.912 787.353 223.912C787.058 223.912 786.734 223.964 786.381 224.069C786.039 224.164 785.691 224.307 785.339 224.498L785.01 223.669C785.391 223.459 785.796 223.298 786.224 223.183C786.653 223.059 787.096 222.998 787.553 222.998C788.039 222.998 788.443 223.045 788.767 223.14C789.1 223.236 789.367 223.393 789.567 223.612C789.767 223.821 789.91 224.093 789.996 224.426C790.081 224.759 790.124 225.169 790.124 225.655V230.055ZM787.167 229.298C787.481 229.298 787.805 229.231 788.139 229.098C788.481 228.955 788.781 228.769 789.039 228.54V226.955C788.791 226.926 788.543 226.907 788.296 226.898C788.048 226.878 787.772 226.869 787.467 226.869C786.867 226.869 786.439 226.959 786.181 227.14C785.934 227.321 785.81 227.626 785.81 228.055C785.81 228.464 785.915 228.774 786.124 228.983C786.334 229.193 786.681 229.298 787.167 229.298ZM792.858 223.14L792.986 224.055C793.301 223.712 793.653 223.45 794.044 223.269C794.434 223.088 794.829 222.998 795.229 222.998C795.391 222.998 795.529 223.012 795.644 223.04C795.767 223.059 795.896 223.093 796.029 223.14V224.112C795.744 223.998 795.444 223.94 795.129 223.94C794.767 223.94 794.405 224.04 794.044 224.24C793.682 224.44 793.372 224.693 793.115 224.998V230.055H792.029V223.14H792.858ZM796.547 231.455L801.018 219.255H802.089L797.618 231.455H796.547ZM808.529 227.74C808.529 227.512 808.495 227.307 808.429 227.126C808.362 226.945 808.243 226.778 808.072 226.626C807.9 226.474 807.662 226.326 807.357 226.183C807.062 226.04 806.686 225.888 806.229 225.726C805.667 225.526 805.195 225.331 804.815 225.14C804.434 224.94 804.129 224.726 803.9 224.498C803.672 224.269 803.505 224.017 803.4 223.74C803.305 223.464 803.257 223.145 803.257 222.783C803.257 222.031 803.534 221.431 804.086 220.983C804.638 220.536 805.448 220.312 806.515 220.312C807.038 220.312 807.519 220.378 807.957 220.512C808.395 220.636 808.815 220.812 809.215 221.04L808.786 221.926C808.434 221.707 808.067 221.54 807.686 221.426C807.305 221.302 806.915 221.24 806.515 221.24C805.772 221.24 805.224 221.374 804.872 221.64C804.529 221.898 804.357 222.255 804.357 222.712C804.357 222.95 804.395 223.159 804.472 223.34C804.548 223.521 804.672 223.688 804.843 223.84C805.024 223.993 805.262 224.145 805.557 224.298C805.853 224.44 806.224 224.598 806.672 224.769C807.224 224.978 807.686 225.174 808.057 225.355C808.438 225.536 808.743 225.736 808.972 225.955C809.21 226.164 809.376 226.407 809.472 226.683C809.576 226.95 809.629 227.274 809.629 227.655C809.629 228.436 809.343 229.055 808.772 229.512C808.21 229.969 807.338 230.198 806.157 230.198C805.557 230.198 804.986 230.126 804.443 229.983C803.9 229.84 803.438 229.655 803.057 229.426L803.457 228.569C803.867 228.788 804.291 228.964 804.729 229.098C805.167 229.221 805.629 229.283 806.115 229.283C806.924 229.283 807.529 229.15 807.929 228.883C808.329 228.607 808.529 228.226 808.529 227.74ZM814.053 230.198C812.929 230.198 812.129 229.907 811.653 229.326C811.186 228.736 810.953 227.826 810.953 226.598C810.953 225.359 811.191 224.45 811.667 223.869C812.143 223.288 812.872 222.998 813.853 222.998C814.834 222.998 815.562 223.283 816.039 223.855C816.515 224.417 816.753 225.312 816.753 226.54V226.998H812.067C812.105 227.817 812.281 228.402 812.596 228.755C812.91 229.107 813.401 229.283 814.067 229.283C814.467 229.283 814.858 229.226 815.239 229.112C815.629 228.988 815.991 228.821 816.324 228.612L816.681 229.483C816.32 229.702 815.91 229.878 815.453 230.012C815.005 230.136 814.539 230.198 814.053 230.198ZM815.639 226.112C815.591 225.369 815.424 224.821 815.139 224.469C814.853 224.107 814.424 223.926 813.853 223.926C813.281 223.926 812.853 224.107 812.567 224.469C812.281 224.821 812.115 225.369 812.067 226.112H815.639ZM819.41 223.783C819.743 223.536 820.086 223.345 820.439 223.212C820.791 223.069 821.167 222.998 821.567 222.998C822.053 222.998 822.439 223.069 822.724 223.212C823.02 223.355 823.239 223.593 823.381 223.926C823.715 223.65 824.077 223.426 824.467 223.255C824.867 223.083 825.281 222.998 825.71 222.998C826.11 222.998 826.443 223.045 826.71 223.14C826.977 223.226 827.191 223.369 827.353 223.569C827.524 223.769 827.643 224.026 827.71 224.34C827.777 224.645 827.81 225.017 827.81 225.455V230.055H826.724V225.755C826.724 225.069 826.629 224.593 826.439 224.326C826.258 224.059 825.948 223.926 825.51 223.926C824.881 223.926 824.248 224.183 823.61 224.698C823.639 224.917 823.653 225.169 823.653 225.455V230.055H822.567V225.755C822.567 225.078 822.481 224.607 822.31 224.34C822.139 224.064 821.82 223.926 821.353 223.926C821.039 223.926 820.734 223.988 820.439 224.112C820.143 224.226 819.834 224.407 819.51 224.655V230.055H818.424V223.14H819.239L819.41 223.783ZM829.868 223.14H830.953V230.055H829.868V223.14ZM829.853 220.169H830.953V221.598H829.853V220.169ZM835.872 229.298C836.53 229.298 837.015 229.088 837.33 228.669C837.644 228.25 837.801 227.559 837.801 226.598C837.801 225.645 837.644 224.959 837.33 224.54C837.015 224.121 836.53 223.912 835.872 223.912C835.539 223.912 835.225 223.978 834.93 224.112C834.644 224.245 834.396 224.426 834.187 224.655V228.555C834.396 228.783 834.644 228.964 834.93 229.098C835.225 229.231 835.539 229.298 835.872 229.298ZM833.901 230.055H833.087V220.098L834.187 219.969V223.698C834.425 223.478 834.711 223.307 835.044 223.183C835.387 223.059 835.758 222.998 836.158 222.998C837.053 222.998 837.73 223.293 838.187 223.883C838.653 224.464 838.887 225.369 838.887 226.598C838.887 227.836 838.649 228.745 838.172 229.326C837.696 229.907 836.987 230.198 836.044 230.198C835.644 230.198 835.277 230.136 834.944 230.012C834.62 229.878 834.334 229.698 834.087 229.469L833.901 230.055ZM840.222 226.598C840.222 225.359 840.469 224.45 840.965 223.869C841.469 223.288 842.269 222.998 843.365 222.998C844.45 222.998 845.241 223.288 845.736 223.869C846.241 224.45 846.493 225.359 846.493 226.598C846.493 227.836 846.241 228.745 845.736 229.326C845.231 229.907 844.441 230.198 843.365 230.198C842.279 230.198 841.484 229.907 840.979 229.326C840.474 228.745 840.222 227.836 840.222 226.598ZM841.322 226.598C841.322 227.54 841.484 228.226 841.808 228.655C842.131 229.074 842.65 229.283 843.365 229.283C844.079 229.283 844.598 229.074 844.922 228.655C845.246 228.226 845.408 227.54 845.408 226.598C845.408 225.674 845.246 224.998 844.922 224.569C844.598 224.14 844.079 223.926 843.365 223.926C842.65 223.926 842.131 224.14 841.808 224.569C841.484 224.998 841.322 225.674 841.322 226.598ZM850.082 230.155C850.035 230.174 849.968 230.183 849.882 230.183C849.797 230.193 849.725 230.198 849.668 230.198C849.182 230.198 848.83 230.055 848.611 229.769C848.401 229.474 848.297 229.026 848.297 228.426V220.14L849.382 219.969V228.269C849.382 228.488 849.392 228.664 849.411 228.798C849.43 228.931 849.463 229.036 849.511 229.112C849.568 229.188 849.639 229.24 849.725 229.269C849.82 229.288 849.939 229.298 850.082 229.298V230.155ZM857.085 219.969V230.055H856.271L856.099 229.469C855.852 229.698 855.561 229.878 855.228 230.012C854.894 230.136 854.528 230.198 854.128 230.198C853.185 230.198 852.475 229.907 851.999 229.326C851.523 228.745 851.285 227.836 851.285 226.598C851.285 225.369 851.514 224.464 851.971 223.883C852.437 223.293 853.118 222.998 854.014 222.998C854.414 222.998 854.78 223.059 855.114 223.183C855.456 223.307 855.747 223.478 855.985 223.698V220.112L857.085 219.969ZM854.299 229.298C854.633 229.298 854.942 229.231 855.228 229.098C855.523 228.964 855.775 228.783 855.985 228.555V224.655C855.775 224.426 855.523 224.245 855.228 224.112C854.942 223.978 854.633 223.912 854.299 223.912C853.642 223.912 853.156 224.121 852.842 224.54C852.537 224.959 852.385 225.645 852.385 226.598C852.385 227.559 852.537 228.25 852.842 228.669C853.156 229.088 853.642 229.298 854.299 229.298ZM754.671 245.083V247.44H753.671V245.083H751.229V244.14H753.671V241.798H754.671V244.14H757.143V245.083H754.671ZM761.67 249.055V240.598L759.256 242.226L758.713 241.412L761.67 239.455H762.784V249.055H761.67ZM767.065 249.483H766.036L772.994 238.969H774.008L767.065 249.483ZM765.208 241.855C765.208 240.988 765.375 240.345 765.708 239.926C766.041 239.498 766.522 239.283 767.151 239.283C767.779 239.283 768.26 239.498 768.594 239.926C768.927 240.345 769.094 240.988 769.094 241.855C769.094 242.721 768.927 243.369 768.594 243.798C768.26 244.226 767.779 244.44 767.151 244.44C766.522 244.44 766.041 244.226 765.708 243.798C765.375 243.369 765.208 242.721 765.208 241.855ZM766.194 241.855C766.194 243.017 766.513 243.598 767.151 243.598C767.789 243.598 768.108 243.017 768.108 241.855C768.108 240.693 767.789 240.112 767.151 240.112C766.513 240.112 766.194 240.693 766.194 241.855ZM770.994 246.583C770.994 245.717 771.16 245.074 771.494 244.655C771.827 244.226 772.308 244.012 772.936 244.012C773.565 244.012 774.046 244.226 774.379 244.655C774.713 245.074 774.879 245.717 774.879 246.583C774.879 247.45 774.713 248.098 774.379 248.526C774.046 248.945 773.565 249.155 772.936 249.155C772.308 249.155 771.827 248.945 771.494 248.526C771.16 248.098 770.994 247.45 770.994 246.583ZM771.979 246.583C771.979 247.745 772.298 248.326 772.936 248.326C773.575 248.326 773.894 247.745 773.894 246.583C773.894 245.421 773.575 244.84 772.936 244.84C772.298 244.84 771.979 245.421 771.979 246.583ZM782.077 243.069V246.483C782.077 246.798 782.091 247.069 782.119 247.298C782.148 247.526 782.205 247.717 782.291 247.869C782.386 248.012 782.515 248.117 782.677 248.183C782.848 248.25 783.077 248.283 783.362 248.283C783.572 248.283 783.777 248.259 783.977 248.212C784.186 248.164 784.386 248.107 784.577 248.04L784.791 248.869C784.219 249.088 783.643 249.198 783.062 249.198C782.643 249.198 782.296 249.14 782.019 249.026C781.753 248.912 781.538 248.755 781.377 248.555C781.224 248.345 781.119 248.098 781.062 247.812C781.005 247.517 780.977 247.193 780.977 246.84V243.069H779.848V242.14H780.977V240.683L782.077 240.483V242.14H784.519V243.069H782.077ZM786.929 242.14L787.057 243.055C787.372 242.712 787.724 242.45 788.114 242.269C788.505 242.088 788.9 241.998 789.3 241.998C789.462 241.998 789.6 242.012 789.714 242.04C789.838 242.059 789.967 242.093 790.1 242.14V243.112C789.814 242.998 789.514 242.94 789.2 242.94C788.838 242.94 788.476 243.04 788.114 243.24C787.752 243.44 787.443 243.693 787.186 243.998V249.055H786.1V242.14H786.929ZM796.095 249.055H795.281L795.109 248.412C794.824 248.659 794.486 248.855 794.095 248.998C793.714 249.131 793.295 249.198 792.838 249.198C792.124 249.198 791.586 249.017 791.224 248.655C790.871 248.283 790.695 247.755 790.695 247.069C790.695 246.364 790.914 245.845 791.352 245.512C791.79 245.169 792.524 244.998 793.552 244.998C793.857 244.998 794.124 245.002 794.352 245.012C794.59 245.021 794.809 245.04 795.009 245.069V244.683C795.009 244.045 794.886 243.593 794.638 243.326C794.39 243.05 793.952 242.912 793.324 242.912C793.029 242.912 792.705 242.964 792.352 243.069C792.009 243.164 791.662 243.307 791.309 243.498L790.981 242.669C791.362 242.459 791.767 242.298 792.195 242.183C792.624 242.059 793.067 241.998 793.524 241.998C794.009 241.998 794.414 242.045 794.738 242.14C795.071 242.236 795.338 242.393 795.538 242.612C795.738 242.821 795.881 243.093 795.967 243.426C796.052 243.759 796.095 244.169 796.095 244.655V249.055ZM793.138 248.298C793.452 248.298 793.776 248.231 794.109 248.098C794.452 247.955 794.752 247.769 795.009 247.54V245.955C794.762 245.926 794.514 245.907 794.267 245.898C794.019 245.878 793.743 245.869 793.438 245.869C792.838 245.869 792.409 245.959 792.152 246.14C791.905 246.321 791.781 246.626 791.781 247.055C791.781 247.464 791.886 247.774 792.095 247.983C792.305 248.193 792.652 248.298 793.138 248.298ZM800.957 248.283C801.624 248.283 802.219 248.117 802.743 247.783L803.057 248.655C802.781 248.817 802.462 248.95 802.1 249.055C801.748 249.15 801.367 249.198 800.957 249.198C799.824 249.198 798.995 248.917 798.472 248.355C797.948 247.783 797.686 246.864 797.686 245.598C797.686 244.359 797.938 243.45 798.443 242.869C798.948 242.288 799.738 241.998 800.815 241.998C801.738 241.998 802.495 242.278 803.086 242.84L802.486 243.583C802.276 243.374 802.029 243.212 801.743 243.098C801.467 242.974 801.167 242.912 800.843 242.912C800.157 242.912 799.638 243.121 799.286 243.54C798.943 243.95 798.772 244.636 798.772 245.598C798.772 246.559 798.953 247.25 799.315 247.669C799.676 248.078 800.224 248.283 800.957 248.283ZM804.529 249.055V239.112L805.629 238.969V244.84H806.301L808.886 242.14H810.215L807.172 245.312L810.301 249.055H808.972L806.286 245.769H805.629V249.055H804.529ZM811.62 242.14H812.706V249.055H811.62V242.14ZM811.606 239.169H812.706V240.598H811.606V239.169ZM815.839 242.84C816.163 242.583 816.52 242.378 816.91 242.226C817.301 242.074 817.71 241.998 818.139 241.998C818.939 241.998 819.51 242.193 819.853 242.583C820.206 242.964 820.382 243.588 820.382 244.455V249.055H819.296V244.755C819.296 244.069 819.182 243.593 818.953 243.326C818.734 243.059 818.391 242.926 817.925 242.926C817.258 242.926 816.591 243.169 815.925 243.655V249.055H814.839V242.14H815.653L815.839 242.84ZM827.76 242.14V249.14C827.76 250.198 827.503 250.964 826.989 251.44C826.484 251.926 825.727 252.169 824.717 252.169C824.317 252.169 823.936 252.136 823.574 252.069C823.213 252.012 822.893 251.931 822.617 251.826L822.846 250.926C823.389 251.136 824.008 251.24 824.703 251.24C825.389 251.24 825.884 251.083 826.189 250.769C826.503 250.455 826.66 249.94 826.66 249.226V248.512C826.422 248.731 826.132 248.902 825.789 249.026C825.455 249.14 825.089 249.198 824.689 249.198C823.793 249.198 823.113 248.907 822.646 248.326C822.189 247.745 821.96 246.836 821.96 245.598C821.96 244.369 822.198 243.464 822.674 242.883C823.151 242.293 823.86 241.998 824.803 241.998C825.203 241.998 825.57 242.064 825.903 242.198C826.236 242.331 826.527 242.512 826.774 242.74L826.946 242.14H827.76ZM824.974 242.912C824.317 242.912 823.832 243.121 823.517 243.54C823.213 243.959 823.06 244.645 823.06 245.598C823.06 246.559 823.213 247.25 823.517 247.669C823.832 248.088 824.317 248.298 824.974 248.298C825.308 248.298 825.617 248.231 825.903 248.098C826.198 247.964 826.451 247.783 826.66 247.555V243.655C826.451 243.426 826.198 243.245 825.903 243.112C825.617 242.978 825.308 242.912 824.974 242.912Z" fill="#F7F3EB"/>
<path d="M756.843 362.982V363.91H751.157V354.31H752.257V362.982H756.843ZM761.784 363.124C762.165 363.124 762.531 363.101 762.884 363.053C763.246 362.996 763.589 362.915 763.912 362.81V359.924H761.455V358.996H764.998V363.439C764.57 363.601 764.065 363.743 763.484 363.867C762.903 363.991 762.327 364.053 761.755 364.053C760.965 364.053 760.289 363.948 759.727 363.739C759.174 363.52 758.722 363.205 758.37 362.796C758.017 362.377 757.76 361.863 757.598 361.253C757.446 360.634 757.37 359.92 757.37 359.11C757.37 357.415 757.717 356.167 758.412 355.367C759.117 354.567 760.155 354.167 761.527 354.167C762.298 354.167 762.965 354.286 763.527 354.524C764.089 354.753 764.555 355.067 764.927 355.467L764.27 356.21C763.917 355.839 763.522 355.563 763.084 355.382C762.646 355.201 762.127 355.11 761.527 355.11C760.508 355.11 759.741 355.434 759.227 356.082C758.722 356.72 758.47 357.729 758.47 359.11C758.47 360.482 758.727 361.496 759.241 362.153C759.755 362.801 760.603 363.124 761.784 363.124ZM777.174 362.982V363.91H771.274V354.31H777.031V355.253H772.374V358.439H776.86V359.367H772.374V362.982H777.174ZM779.327 354.31H780.427V363.91H779.327V354.31ZM792.999 354.31V355.239H790.042V363.91H788.942V355.239H785.999V354.31H792.999ZM795.875 364.053C794.751 364.053 793.951 363.763 793.475 363.182C793.008 362.591 792.775 361.682 792.775 360.453C792.775 359.215 793.013 358.305 793.489 357.724C793.965 357.143 794.694 356.853 795.675 356.853C796.656 356.853 797.384 357.139 797.861 357.71C798.337 358.272 798.575 359.167 798.575 360.396V360.853H793.889C793.927 361.672 794.103 362.258 794.418 362.61C794.732 362.963 795.223 363.139 795.889 363.139C796.289 363.139 796.68 363.082 797.061 362.967C797.451 362.843 797.813 362.677 798.146 362.467L798.503 363.339C798.142 363.558 797.732 363.734 797.275 363.867C796.827 363.991 796.361 364.053 795.875 364.053ZM797.461 359.967C797.413 359.224 797.246 358.677 796.961 358.324C796.675 357.963 796.246 357.782 795.675 357.782C795.103 357.782 794.675 357.963 794.389 358.324C794.103 358.677 793.937 359.224 793.889 359.967H797.461ZM802.565 361.239H802.522L800.665 363.91H799.407L801.922 360.382L799.493 356.996H800.75L802.522 359.567H802.565L804.35 356.996H805.607L803.179 360.382L805.679 363.91H804.422L802.565 361.239ZM808.541 357.924V361.339C808.541 361.653 808.556 361.924 808.584 362.153C808.613 362.382 808.67 362.572 808.756 362.724C808.851 362.867 808.979 362.972 809.141 363.039C809.313 363.105 809.541 363.139 809.827 363.139C810.037 363.139 810.241 363.115 810.441 363.067C810.651 363.02 810.851 362.963 811.041 362.896L811.256 363.724C810.684 363.943 810.108 364.053 809.527 364.053C809.108 364.053 808.76 363.996 808.484 363.882C808.218 363.767 808.003 363.61 807.841 363.41C807.689 363.201 807.584 362.953 807.527 362.667C807.47 362.372 807.441 362.048 807.441 361.696V357.924H806.313V356.996H807.441V355.539L808.541 355.339V356.996H810.984V357.924H808.541ZM752.257 374.253V377.924H754.5C755.214 377.924 755.733 377.767 756.057 377.453C756.381 377.139 756.543 376.682 756.543 376.082C756.543 375.453 756.381 374.991 756.057 374.696C755.743 374.401 755.238 374.253 754.543 374.253H752.257ZM751.157 382.91V373.31H754.471C755.586 373.31 756.395 373.543 756.9 374.01C757.414 374.467 757.671 375.158 757.671 376.082C757.671 377.434 757.052 378.296 755.814 378.667L757.929 382.91H756.743L754.729 378.853H752.257V382.91H751.157ZM762.128 383.053C761.004 383.053 760.204 382.763 759.728 382.182C759.261 381.591 759.028 380.682 759.028 379.453C759.028 378.215 759.266 377.305 759.742 376.724C760.218 376.143 760.947 375.853 761.928 375.853C762.909 375.853 763.637 376.139 764.113 376.71C764.59 377.272 764.828 378.167 764.828 379.396V379.853H760.142C760.18 380.672 760.356 381.258 760.671 381.61C760.985 381.963 761.475 382.139 762.142 382.139C762.542 382.139 762.932 382.082 763.313 381.967C763.704 381.843 764.066 381.677 764.399 381.467L764.756 382.339C764.394 382.558 763.985 382.734 763.528 382.867C763.08 382.991 762.613 383.053 762.128 383.053ZM763.713 378.967C763.666 378.224 763.499 377.677 763.213 377.324C762.928 376.963 762.499 376.782 761.928 376.782C761.356 376.782 760.928 376.963 760.642 377.324C760.356 377.677 760.19 378.224 760.142 378.967H763.713ZM771.971 375.996V382.996C771.971 384.053 771.713 384.82 771.199 385.296C770.694 385.782 769.937 386.024 768.928 386.024C768.528 386.024 768.147 385.991 767.785 385.924C767.423 385.867 767.104 385.786 766.828 385.682L767.056 384.782C767.599 384.991 768.218 385.096 768.913 385.096C769.599 385.096 770.094 384.939 770.399 384.624C770.713 384.31 770.871 383.796 770.871 383.082V382.367C770.632 382.586 770.342 382.758 769.999 382.882C769.666 382.996 769.299 383.053 768.899 383.053C768.004 383.053 767.323 382.763 766.856 382.182C766.399 381.601 766.171 380.691 766.171 379.453C766.171 378.224 766.409 377.32 766.885 376.739C767.361 376.148 768.071 375.853 769.013 375.853C769.413 375.853 769.78 375.92 770.113 376.053C770.447 376.186 770.737 376.367 770.985 376.596L771.156 375.996H771.971ZM769.185 376.767C768.528 376.767 768.042 376.977 767.728 377.396C767.423 377.815 767.271 378.501 767.271 379.453C767.271 380.415 767.423 381.105 767.728 381.524C768.042 381.943 768.528 382.153 769.185 382.153C769.518 382.153 769.828 382.086 770.113 381.953C770.409 381.82 770.661 381.639 770.871 381.41V377.51C770.661 377.282 770.409 377.101 770.113 376.967C769.828 376.834 769.518 376.767 769.185 376.767ZM778.449 382.224C778.125 382.482 777.768 382.686 777.377 382.839C776.987 382.982 776.577 383.053 776.149 383.053C775.349 383.053 774.772 382.863 774.42 382.482C774.068 382.101 773.891 381.477 773.891 380.61V375.996H774.991V380.31C774.991 380.996 775.101 381.472 775.32 381.739C775.549 382.005 775.896 382.139 776.363 382.139C777.03 382.139 777.691 381.896 778.349 381.41V375.996H779.449V382.91H778.62L778.449 382.224ZM783.369 383.01C783.321 383.029 783.255 383.039 783.169 383.039C783.083 383.048 783.012 383.053 782.955 383.053C782.469 383.053 782.117 382.91 781.898 382.624C781.688 382.329 781.583 381.882 781.583 381.282V372.996L782.669 372.824V381.124C782.669 381.343 782.679 381.52 782.698 381.653C782.717 381.786 782.75 381.891 782.798 381.967C782.855 382.043 782.926 382.096 783.012 382.124C783.107 382.143 783.226 382.153 783.369 382.153V383.01ZM790.124 382.91H789.31L789.139 382.267C788.853 382.515 788.515 382.71 788.124 382.853C787.743 382.986 787.324 383.053 786.867 383.053C786.153 383.053 785.615 382.872 785.253 382.51C784.9 382.139 784.724 381.61 784.724 380.924C784.724 380.22 784.943 379.701 785.381 379.367C785.819 379.024 786.553 378.853 787.581 378.853C787.886 378.853 788.153 378.858 788.381 378.867C788.619 378.877 788.839 378.896 789.039 378.924V378.539C789.039 377.901 788.915 377.448 788.667 377.182C788.419 376.905 787.981 376.767 787.353 376.767C787.058 376.767 786.734 376.82 786.381 376.924C786.039 377.02 785.691 377.163 785.339 377.353L785.01 376.524C785.391 376.315 785.796 376.153 786.224 376.039C786.653 375.915 787.096 375.853 787.553 375.853C788.039 375.853 788.443 375.901 788.767 375.996C789.1 376.091 789.367 376.248 789.567 376.467C789.767 376.677 789.91 376.948 789.996 377.282C790.081 377.615 790.124 378.024 790.124 378.51V382.91ZM787.167 382.153C787.481 382.153 787.805 382.086 788.139 381.953C788.481 381.81 788.781 381.624 789.039 381.396V379.81C788.791 379.782 788.543 379.763 788.296 379.753C788.048 379.734 787.772 379.724 787.467 379.724C786.867 379.724 786.439 379.815 786.181 379.996C785.934 380.177 785.81 380.482 785.81 380.91C785.81 381.32 785.915 381.629 786.124 381.839C786.334 382.048 786.681 382.153 787.167 382.153ZM792.858 375.996L792.986 376.91C793.301 376.567 793.653 376.305 794.044 376.124C794.434 375.943 794.829 375.853 795.229 375.853C795.391 375.853 795.529 375.867 795.644 375.896C795.767 375.915 795.896 375.948 796.029 375.996V376.967C795.744 376.853 795.444 376.796 795.129 376.796C794.767 376.796 794.405 376.896 794.044 377.096C793.682 377.296 793.372 377.548 793.115 377.853V382.91H792.029V375.996H792.858ZM750.857 397.124C750.857 396.277 750.933 395.543 751.086 394.924C751.248 394.296 751.476 393.782 751.771 393.382C752.067 392.972 752.424 392.667 752.843 392.467C753.262 392.267 753.729 392.167 754.243 392.167C754.767 392.167 755.238 392.267 755.657 392.467C756.076 392.667 756.433 392.972 756.729 393.382C757.024 393.782 757.248 394.296 757.4 394.924C757.562 395.543 757.643 396.277 757.643 397.124C757.643 397.972 757.562 398.705 757.4 399.324C757.248 399.934 757.024 400.443 756.729 400.853C756.433 401.263 756.076 401.567 755.657 401.767C755.238 401.958 754.767 402.053 754.243 402.053C753.205 402.053 752.381 401.653 751.771 400.853C751.162 400.053 750.857 398.81 750.857 397.124ZM751.957 397.124C751.957 398.448 752.157 399.448 752.557 400.124C752.967 400.801 753.529 401.139 754.243 401.139C754.957 401.139 755.519 400.801 755.929 400.124C756.338 399.448 756.543 398.448 756.543 397.124C756.543 395.801 756.338 394.801 755.929 394.124C755.519 393.439 754.957 393.096 754.243 393.096C753.529 393.096 752.967 393.439 752.557 394.124C752.157 394.801 751.957 395.801 751.957 397.124ZM761.024 402.339H759.996L766.953 391.824H767.967L761.024 402.339ZM759.167 394.71C759.167 393.843 759.334 393.201 759.667 392.782C760.001 392.353 760.481 392.139 761.11 392.139C761.739 392.139 762.22 392.353 762.553 392.782C762.886 393.201 763.053 393.843 763.053 394.71C763.053 395.577 762.886 396.224 762.553 396.653C762.22 397.082 761.739 397.296 761.11 397.296C760.481 397.296 760.001 397.082 759.667 396.653C759.334 396.224 759.167 395.577 759.167 394.71ZM760.153 394.71C760.153 395.872 760.472 396.453 761.11 396.453C761.748 396.453 762.067 395.872 762.067 394.71C762.067 393.548 761.748 392.967 761.11 392.967C760.472 392.967 760.153 393.548 760.153 394.71ZM764.953 399.439C764.953 398.572 765.12 397.929 765.453 397.51C765.786 397.082 766.267 396.867 766.896 396.867C767.524 396.867 768.005 397.082 768.339 397.51C768.672 397.929 768.839 398.572 768.839 399.439C768.839 400.305 768.672 400.953 768.339 401.382C768.005 401.801 767.524 402.01 766.896 402.01C766.267 402.01 765.786 401.801 765.453 401.382C765.12 400.953 764.953 400.305 764.953 399.439ZM765.939 399.439C765.939 400.601 766.258 401.182 766.896 401.182C767.534 401.182 767.853 400.601 767.853 399.439C767.853 398.277 767.534 397.696 766.896 397.696C766.258 397.696 765.939 398.277 765.939 399.439ZM776.036 395.924V399.339C776.036 399.653 776.05 399.924 776.079 400.153C776.107 400.382 776.164 400.572 776.25 400.724C776.345 400.867 776.474 400.972 776.636 401.039C776.807 401.105 777.036 401.139 777.322 401.139C777.531 401.139 777.736 401.115 777.936 401.067C778.145 401.02 778.345 400.963 778.536 400.896L778.75 401.724C778.179 401.943 777.602 402.053 777.022 402.053C776.602 402.053 776.255 401.996 775.979 401.882C775.712 401.767 775.498 401.61 775.336 401.41C775.183 401.201 775.079 400.953 775.022 400.667C774.964 400.372 774.936 400.048 774.936 399.696V395.924H773.807V394.996H774.936V393.539L776.036 393.339V394.996H778.479V395.924H776.036ZM780.888 394.996L781.017 395.91C781.331 395.567 781.683 395.305 782.074 395.124C782.464 394.943 782.859 394.853 783.259 394.853C783.421 394.853 783.559 394.867 783.674 394.896C783.797 394.915 783.926 394.948 784.059 394.996V395.967C783.774 395.853 783.474 395.796 783.159 395.796C782.797 395.796 782.436 395.896 782.074 396.096C781.712 396.296 781.402 396.548 781.145 396.853V401.91H780.059V394.996H780.888ZM790.054 401.91H789.24L789.069 401.267C788.783 401.515 788.445 401.71 788.054 401.853C787.674 401.986 787.254 402.053 786.797 402.053C786.083 402.053 785.545 401.872 785.183 401.51C784.831 401.139 784.654 400.61 784.654 399.924C784.654 399.22 784.874 398.701 785.312 398.367C785.75 398.024 786.483 397.853 787.512 397.853C787.816 397.853 788.083 397.858 788.312 397.867C788.55 397.877 788.769 397.896 788.969 397.924V397.539C788.969 396.901 788.845 396.448 788.597 396.182C788.35 395.905 787.912 395.767 787.283 395.767C786.988 395.767 786.664 395.82 786.312 395.924C785.969 396.02 785.621 396.163 785.269 396.353L784.94 395.524C785.321 395.315 785.726 395.153 786.154 395.039C786.583 394.915 787.026 394.853 787.483 394.853C787.969 394.853 788.374 394.901 788.697 394.996C789.031 395.091 789.297 395.248 789.497 395.467C789.697 395.677 789.84 395.948 789.926 396.282C790.012 396.615 790.054 397.024 790.054 397.51V401.91ZM787.097 401.153C787.412 401.153 787.735 401.086 788.069 400.953C788.412 400.81 788.712 400.624 788.969 400.396V398.81C788.721 398.782 788.474 398.763 788.226 398.753C787.978 398.734 787.702 398.724 787.397 398.724C786.797 398.724 786.369 398.815 786.112 398.996C785.864 399.177 785.74 399.482 785.74 399.91C785.74 400.32 785.845 400.629 786.054 400.839C786.264 401.048 786.612 401.153 787.097 401.153ZM794.917 401.139C795.583 401.139 796.179 400.972 796.702 400.639L797.017 401.51C796.74 401.672 796.421 401.805 796.059 401.91C795.707 402.005 795.326 402.053 794.917 402.053C793.783 402.053 792.955 401.772 792.431 401.21C791.907 400.639 791.645 399.72 791.645 398.453C791.645 397.215 791.898 396.305 792.402 395.724C792.907 395.143 793.698 394.853 794.774 394.853C795.698 394.853 796.455 395.134 797.045 395.696L796.445 396.439C796.236 396.229 795.988 396.067 795.702 395.953C795.426 395.829 795.126 395.767 794.802 395.767C794.117 395.767 793.598 395.977 793.245 396.396C792.902 396.805 792.731 397.491 792.731 398.453C792.731 399.415 792.912 400.105 793.274 400.524C793.636 400.934 794.183 401.139 794.917 401.139ZM798.489 401.91V391.967L799.589 391.824V397.696H800.26L802.846 394.996H804.174L801.131 398.167L804.26 401.91H802.931L800.246 398.624H799.589V401.91H798.489ZM805.579 394.996H806.665V401.91H805.579V394.996ZM805.565 392.024H806.665V393.453H805.565V392.024ZM809.798 395.696C810.122 395.439 810.479 395.234 810.87 395.082C811.26 394.929 811.67 394.853 812.098 394.853C812.898 394.853 813.47 395.048 813.813 395.439C814.165 395.82 814.341 396.443 814.341 397.31V401.91H813.255V397.61C813.255 396.924 813.141 396.448 812.913 396.182C812.693 395.915 812.351 395.782 811.884 395.782C811.217 395.782 810.551 396.024 809.884 396.51V401.91H808.798V394.996H809.613L809.798 395.696ZM821.719 394.996V401.996C821.719 403.053 821.462 403.82 820.948 404.296C820.443 404.782 819.686 405.024 818.677 405.024C818.277 405.024 817.896 404.991 817.534 404.924C817.172 404.867 816.853 404.786 816.577 404.682L816.805 403.782C817.348 403.991 817.967 404.096 818.662 404.096C819.348 404.096 819.843 403.939 820.148 403.624C820.462 403.31 820.619 402.796 820.619 402.082V401.367C820.381 401.586 820.091 401.758 819.748 401.882C819.415 401.996 819.048 402.053 818.648 402.053C817.753 402.053 817.072 401.763 816.605 401.182C816.148 400.601 815.919 399.691 815.919 398.453C815.919 397.224 816.158 396.32 816.634 395.739C817.11 395.148 817.819 394.853 818.762 394.853C819.162 394.853 819.529 394.92 819.862 395.053C820.196 395.186 820.486 395.367 820.734 395.596L820.905 394.996H821.719ZM818.934 395.767C818.277 395.767 817.791 395.977 817.477 396.396C817.172 396.815 817.019 397.501 817.019 398.453C817.019 399.415 817.172 400.105 817.477 400.524C817.791 400.943 818.277 401.153 818.934 401.153C819.267 401.153 819.577 401.086 819.862 400.953C820.158 400.82 820.41 400.639 820.619 400.41V396.51C820.41 396.282 820.158 396.101 819.862 395.967C819.577 395.834 819.267 395.767 818.934 395.767Z" fill="#F7F3EB"/>
<path opacity="0.5" d="M208.57 167.482L965.521 167.482" stroke="#9E9E9E" stroke-width="0.571429"/>
<path opacity="0.5" d="M208.57 333.197L965.521 333.197" stroke="#9E9E9E" stroke-width="0.571429"/>
</svg>
