<svg width="68" height="96" viewBox="0 0 68 96" fill="none" xmlns="http://www.w3.org/2000/svg">
<g opacity="0.6" filter="url(#filter0_b_1762_7627)">
<path d="M67.9917 38.4718L67.9917 62.2006C67.9917 80.866 52.7697 96 33.9958 96C15.222 96 2.06211e-05 80.866 2.14369e-05 62.2005L-4.14749e-07 38.4883C-2.01468e-07 33.609 4.01762 28.9917 8.91694 29C18.0502 29.0248 19.9966 36.031 33.9875 36.031C47.9785 36.031 49.8916 29 59.1746 29C63.2088 29 68 33.6256 68 38.4718L67.9917 38.4718Z" fill="#D9D9D9"/>
</g>
<path d="M43 58L34 67L25 58" stroke="#F0ECE4" stroke-width="2"/>
<g opacity="0.6" filter="url(#filter1_b_1762_7627)">
<ellipse cx="33.5" cy="14.5" rx="14.5" ry="14.5" transform="rotate(90 33.5 14.5)" fill="#D9D9D9"/>
</g>
<defs>
<filter id="filter0_b_1762_7627" x="-12" y="17" width="92" height="91" filterUnits="userSpaceOnUse" color-interpolation-filters="sRGB">
<feFlood flood-opacity="0" result="BackgroundImageFix"/>
<feGaussianBlur in="BackgroundImageFix" stdDeviation="6"/>
<feComposite in2="SourceAlpha" operator="in" result="effect1_backgroundBlur_1762_7627"/>
<feBlend mode="normal" in="SourceGraphic" in2="effect1_backgroundBlur_1762_7627" result="shape"/>
</filter>
<filter id="filter1_b_1762_7627" x="7" y="-12" width="53" height="53" filterUnits="userSpaceOnUse" color-interpolation-filters="sRGB">
<feFlood flood-opacity="0" result="BackgroundImageFix"/>
<feGaussianBlur in="BackgroundImageFix" stdDeviation="6"/>
<feComposite in2="SourceAlpha" operator="in" result="effect1_backgroundBlur_1762_7627"/>
<feBlend mode="normal" in="SourceGraphic" in2="effect1_backgroundBlur_1762_7627" result="shape"/>
</filter>
</defs>
</svg>
