<svg width="729" height="729" viewBox="0 0 729 729" fill="none" xmlns="http://www.w3.org/2000/svg">
<rect width="729" height="729" fill="#F0ECE4"/>
<g clip-path="url(#clip0_2_3682)">
<path d="M409.058 399.825H468.359V423.299H380.438V302.758H409.058V399.825Z" fill="black"/>
<path d="M531.315 377.335H554.622V398.428C550.343 400.016 541.952 401.603 533.991 401.603C508.22 401.603 499.65 388.871 499.65 363.016C499.65 338.34 507.807 323.82 533.556 323.82C547.907 323.82 556.047 328.201 562.801 336.557L580.605 320.639C569.729 305.553 550.756 300.98 532.936 300.98C492.88 300.965 471.818 322.227 471.818 362.809C471.818 403.191 490.851 425.083 532.724 425.083C551.952 425.083 570.746 420.32 580.975 413.34V354.856H531.315V377.335Z" fill="black"/>
<path d="M309.506 429.42C346.914 393.017 346.912 333.996 309.502 297.591C272.091 261.187 211.439 261.185 174.031 297.588C136.622 333.99 136.624 393.012 174.034 429.416C211.445 465.821 272.097 465.822 309.506 429.42Z" fill="#A50034"/>
<path d="M265.219 395.725H245.642V324.148H238.404V402.789H245.659V402.742H265.235L265.219 395.725Z" fill="white"/>
<path d="M314.074 366.463H265.361V359.44H321.214C321.291 360.8 321.329 362.16 321.329 363.536C321.329 405.817 285.917 440.087 242.244 440.087C198.572 440.087 163.154 405.833 163.154 363.531C163.154 321.229 198.561 286.98 242.239 286.98C243.392 286.98 244.539 287.003 245.681 287.049V294.019C244.539 293.969 243.395 293.944 242.25 293.944C202.552 293.944 170.36 325.102 170.36 363.531C170.36 401.96 202.547 433.123 242.25 433.123C280.859 433.123 312.4 403.643 314.069 366.658L314.074 366.463Z" fill="white"/>
<path d="M212.725 345.313C214.909 345.303 217.041 344.663 218.852 343.474C220.663 342.286 222.072 340.602 222.9 338.635C223.728 336.669 223.94 334.507 223.507 332.424C223.074 330.34 222.017 328.428 220.469 326.929C218.921 325.43 216.951 324.411 214.808 324C212.664 323.589 210.444 323.805 208.427 324.621C206.411 325.437 204.687 326.816 203.475 328.584C202.262 330.352 201.615 332.429 201.615 334.555C201.619 335.971 201.909 337.373 202.469 338.68C203.029 339.987 203.849 341.174 204.88 342.173C205.912 343.172 207.136 343.963 208.482 344.502C209.828 345.041 211.27 345.317 212.725 345.313Z" fill="white"/>
</g>
<defs>
<clipPath id="clip0_2_3682">
<rect width="435" height="186.429" fill="white" transform="translate(146 270.285)"/>
</clipPath>
</defs>
</svg>
