<svg width="729" height="729" viewBox="0 0 729 729" fill="none" xmlns="http://www.w3.org/2000/svg">
<g clip-path="url(#clip0_120_237)">
<path d="M409.058 399.825H468.359V423.299H380.438V302.758H409.058V399.825Z" fill="white"/>
<path d="M531.315 377.335H554.622V398.428C550.343 400.016 541.952 401.603 533.991 401.603C508.22 401.603 499.65 388.871 499.65 363.016C499.65 338.34 507.807 323.82 533.556 323.82C547.907 323.82 556.047 328.201 562.801 336.557L580.605 320.639C569.729 305.553 550.756 300.98 532.936 300.98C492.88 300.965 471.818 322.227 471.818 362.809C471.818 403.191 490.851 425.083 532.724 425.083C551.952 425.083 570.746 420.32 580.975 413.34V354.856H531.315V377.335Z" fill="white"/>
<path fill-rule="evenodd" clip-rule="evenodd" d="M309.503 297.592C346.913 333.996 346.915 393.018 309.507 429.42C272.098 465.823 211.446 465.821 174.036 429.416C136.625 393.012 136.623 333.99 174.032 297.588C211.44 261.185 272.093 261.187 309.503 297.592ZM245.643 395.725H265.22L265.236 402.742H245.66V402.79H238.405V324.149H245.643V395.725ZM314.075 366.463H265.361V359.441H321.215C321.291 360.801 321.329 362.161 321.329 363.537C321.329 405.818 285.917 440.087 242.244 440.087C198.572 440.087 163.154 405.834 163.154 363.531C163.154 321.229 198.561 286.981 242.239 286.981C243.392 286.981 244.539 287.004 245.681 287.05V294.019C244.539 293.969 243.395 293.945 242.25 293.945C202.553 293.945 170.36 325.103 170.36 363.531C170.36 401.96 202.547 433.123 242.25 433.123C280.859 433.123 312.4 403.643 314.069 366.659L314.075 366.463ZM218.853 343.475C217.042 344.663 214.91 345.303 212.726 345.313C211.27 345.317 209.828 345.041 208.482 344.503C207.136 343.964 205.913 343.172 204.881 342.173C203.849 341.174 203.03 339.987 202.47 338.68C201.91 337.373 201.619 335.971 201.616 334.555C201.616 332.43 202.263 330.352 203.475 328.584C204.688 326.816 206.411 325.437 208.428 324.621C210.445 323.805 212.665 323.589 214.808 324C216.951 324.411 218.921 325.43 220.469 326.93C222.018 328.429 223.075 330.341 223.508 332.424C223.94 334.507 223.729 336.669 222.901 338.636C222.072 340.602 220.664 342.286 218.853 343.475Z" fill="white"/>
</g>
<defs>
<clipPath id="clip0_120_237">
<rect width="435" height="186.429" fill="white" transform="translate(146 270.285)"/>
</clipPath>
</defs>
</svg>
