<svg width="729" height="729" viewBox="0 0 729 729" fill="none" xmlns="http://www.w3.org/2000/svg">
<path d="M346.134 193.127C373.616 176.171 405.22 167.136 437.48 167.002V167.006H438.48C535.967 167.006 615 246.254 615 344.005C615 441.757 535.967 521 438.48 521H438.478C405.878 521.049 373.899 512.004 346.134 494.873L345.609 495.724L346.134 494.873C322.342 480.199 317.898 447.434 336.585 426.582L336.585 426.581C378.651 379.605 378.651 308.395 336.585 261.419L336.585 261.418C317.898 240.566 322.342 207.801 346.134 193.127L346.134 193.127Z" stroke="transparent" stroke-width="2" fill="#262626"/>
<path d="M127.169 349.508C127.175 338.937 124.221 328.574 118.646 319.591L118.643 319.588C112.853 310.343 112.451 298.709 117.592 289.089C137.2 252.709 175.674 227.989 219.932 228.006L221.071 228.006C284.541 228.646 336.12 280.675 336 344.217C335.884 408.18 283.944 460 219.888 460C178.791 460 142.685 438.675 122.049 406.49C116.129 397.216 115.631 385.483 120.747 375.738L120.748 375.736C124.976 367.636 127.175 358.637 127.169 349.508ZM127.169 349.508C127.169 349.507 127.169 349.507 127.169 349.507L126.169 349.508L127.169 349.508C127.169 349.508 127.169 349.508 127.169 349.508Z" stroke="transparent" stroke-width="2" fill="#262626"/>
</svg>
