<svg width="590" height="224" viewBox="0 0 590 224" fill="none" xmlns="http://www.w3.org/2000/svg">
<path d="M532.828 223.908C568.998 223.908 590 206.857 590 173.898C590 153.303 578.227 136.114 555.254 126.74L534.73 118.359C521.371 112.968 515.922 105.857 515.922 95.3513C515.922 84.2689 524.673 79.1894 533.715 79.1894C547.075 79.1894 557.26 88.7018 574.354 110.359C576.22 112.668 578.227 111.917 578.227 108.789V79.1547C578.257 78.3099 578.043 77.4742 577.611 76.7446C577.18 76.0151 576.548 75.4217 575.789 75.0334C567.026 71.7664 551.66 69.7808 537.88 69.7808C506.728 69.7808 482.902 88.3901 482.902 116.662C482.902 135.26 492.085 152.738 513.763 161.684L535.874 170.781C550.808 176.888 556.117 183.561 556.117 194.92C556.117 206.857 547.646 214.672 535.302 214.672C520.227 214.672 507.019 202.17 487.348 176.034C485.621 173.621 483.474 174.475 483.754 177.454L486.776 214.949C486.916 216.946 487.639 218.216 489.646 218.794C498.257 221.345 511.465 223.908 532.817 223.908M457.98 80.1475C481.666 73.221 493.73 55.0042 493.73 32.5623C493.73 12.5331 481.094 0.0307104 465.727 0.0307104C458.31 0.0212406 451.189 2.91187 445.916 8.07312C440.643 13.2344 437.644 20.2481 437.573 27.5867C437.573 42.6519 449.918 55.5699 464.992 55.5699C468.572 55.5482 472.123 54.9276 475.493 53.7343C476.205 53.4457 476.788 54.0114 476.66 54.8888C474.513 63.8355 464.992 71.3624 456.568 76.4765C453.978 78.0465 455.273 81.0249 458.003 80.1706M370.997 127.502C371.429 92.8693 378.173 79.2009 388.371 79.2009C398.872 79.2009 404.705 93.8274 404.88 127.502H370.997ZM390.833 223.954C424.856 223.954 443.956 203.636 449.416 178.931C450.128 175.664 448.401 174.672 445.916 176.796C436.374 184.919 424.188 189.358 411.601 189.298C387.344 189.298 372.701 174.672 371.114 137.349H446.067C446.486 137.392 446.909 137.353 447.312 137.233C447.715 137.113 448.091 136.915 448.416 136.651C448.742 136.387 449.011 136.062 449.209 135.694C449.406 135.327 449.528 134.924 449.568 134.509C449.804 132.289 449.897 130.057 449.848 127.825C449.848 97.8102 428.321 69.8732 392.851 69.8732C353.811 69.8732 322.227 100.985 322.227 149.99C322.227 198.476 352.563 224 390.844 224M230.425 85.4348H247.227V183.03C247.227 211.578 236.306 214.28 236.306 218.54C236.306 219.959 237.169 221.091 239.468 221.091H305.658C307.992 221.091 308.809 219.936 308.809 218.54C308.809 213.991 295.753 211.613 295.753 183.03V85.4348H320.441C320.876 85.4938 321.318 85.4551 321.736 85.3216C322.153 85.1881 322.534 84.9632 322.852 84.6637C323.169 84.3641 323.414 83.9977 323.568 83.5915C323.723 83.1854 323.783 82.75 323.743 82.3178V76.0609C323.798 75.6189 323.75 75.1704 323.604 74.7493C323.457 74.3283 323.216 73.9458 322.897 73.6309C322.579 73.316 322.193 73.0771 321.767 72.932C321.341 72.787 320.888 72.7397 320.441 72.7939H302.065C295.601 72.7939 291.727 70.485 286.897 63.7086L282.731 57.9365C274.972 47.1426 271.064 37.4801 271.064 29.3876C271.064 18.5938 278.064 12.914 287.142 12.914C298.634 12.914 306.814 21.8608 323.895 40.3315C325.762 42.4557 327.629 41.6014 327.629 39.1771V6.507C327.629 4.65992 326.765 3.52857 325.295 3.23997C317.666 0.98729 309.734 -0.102651 301.773 0.00759943C264.88 0.00759943 247.227 27.8523 247.227 58.3983V70.0463L229.562 80.9787C227.228 82.3987 227.835 85.3771 230.425 85.3771M157.199 27.7137C157.185 33.2071 158.818 38.5813 161.891 43.1565C164.964 47.7317 169.339 51.3025 174.464 53.4174C179.588 55.5323 185.231 56.0963 190.679 55.038C196.127 53.9797 201.136 51.3467 205.072 47.472C209.008 43.5972 211.694 38.6547 212.79 33.2695C213.887 27.8843 213.345 22.2983 211.233 17.2178C209.122 12.1373 205.534 7.79049 200.926 4.7271C196.317 1.66371 190.893 0.0213158 185.341 0.00759943C177.904 0.0165981 170.773 2.93413 165.501 8.12413C160.229 13.3141 157.245 20.3557 157.199 27.7137ZM153.477 221.033H217.497C219.831 221.033 220.659 219.879 220.659 218.482C220.659 214.222 209.75 211.555 209.75 182.972V69.6423C209.764 69.5143 209.746 69.3848 209.698 69.2651C209.65 69.1455 209.573 69.0391 209.475 68.9551C209.376 68.8711 209.258 68.8121 209.131 68.783C209.005 68.7539 208.873 68.7556 208.747 68.788L153.617 80.7132C151.458 81.1403 150.315 82.1331 150.315 83.8417C150.315 88.2516 161.224 89.0943 161.224 111.121V182.995C161.224 211.544 150.315 214.245 150.315 218.505C150.315 219.925 151.178 221.056 153.477 221.056M3.16194 221.056H126.769C127.327 221.108 127.889 221.05 128.423 220.885C128.957 220.72 129.453 220.451 129.881 220.094C130.309 219.737 130.661 219.3 130.916 218.807C131.171 218.314 131.324 217.776 131.366 217.224L140.981 165.378C141.412 162.966 139.254 161.915 137.387 163.959L109.711 191.942C95.3484 206.43 90.3196 211.117 73.8098 211.117H63.4839V55.4198C63.4839 26.871 74.3932 24.1696 74.3932 19.9098C74.3932 18.4899 73.5298 17.3586 71.2312 17.3586H3.16194C0.828405 17.3586 0 18.513 0 19.9098C0 24.1696 10.9093 26.8364 10.9093 55.4198V182.983C10.9093 211.532 0 214.234 0 218.493C0 219.913 0.863408 221.045 3.16194 221.045" fill="white"/>
</svg>
