<svg width="505" height="558" viewBox="0 0 505 558" fill="none" xmlns="http://www.w3.org/2000/svg" xmlns:xlink="http://www.w3.org/1999/xlink">
<path fill-rule="evenodd" clip-rule="evenodd" d="M83.7178 557.027H116.686H236.221H388.314H421.282C431.161 557.027 440.729 555.745 449.856 553.342C499.541 540.252 520.67 480.579 491.015 438.531C459.274 393.522 440.626 338.579 440.626 279.264C440.626 219.949 459.405 164.63 491.344 119.546C521.083 77.5612 499.935 17.8886 450.298 4.70441C441.143 2.27392 431.518 0.972534 421.602 0.972534H388.314H236.221H116.686H83.3984C73.4822 0.972534 63.8571 2.27392 54.7023 4.70441C5.06484 17.8886 -16.0833 77.5612 13.6559 119.546C45.5945 164.63 64.3741 219.949 64.3741 279.264C64.3741 338.579 45.7258 393.522 13.9845 438.531C-15.6701 480.579 5.45935 540.252 55.1438 553.342C64.2704 555.745 73.8393 557.027 83.7178 557.027Z" fill="black"/>
</svg>
