<svg width="114" height="140" viewBox="0 0 114 140" fill="none" xmlns="http://www.w3.org/2000/svg">
<path d="M87.5 73.5V90.7151C87.5 92.8009 85.8405 94.5 83.7812 94.5H29.2188C27.1695 94.5 25.5 92.811 25.5 90.7151V73.5" stroke="white" stroke-width="3.5" stroke-linejoin="round"/>
<path d="M57.5 94.5V60.6999C57.5 60.6999 57.6839 45.4042 76.5 32.5" stroke="white" stroke-width="3.5" stroke-linecap="round" stroke-linejoin="round"/>
<path d="M57.5 39.1933C57.7316 36.9584 58.1849 33.9885 59.4639 31.6245C62.8983 25.3171 71.0965 19.3078 89.4869 17.5C89.4869 17.5 89.6984 26.2707 88.4194 32.2999C88.2985 32.8561 88.1273 33.5415 87.8856 34.3162C85.1562 42.9379 77.6429 49.2552 68.5987 50.6557C65.3054 51.1722 61.3171 51.4106 60.1488 51.5" stroke="white" stroke-width="3.5" stroke-linecap="round" stroke-linejoin="round"/>
<path d="M51.5 43.5C51.1259 43.2724 48.5956 41.3428 44.5 39.5" stroke="white" stroke-width="3.5" stroke-linecap="round" stroke-linejoin="round"/>
<path d="M51.0713 51.4925C37.2203 51.8063 32.1402 42.169 30.9234 38.8284C29.3011 34.3438 28.5 27.5916 28.5 27.5916C39.8769 27.1158 46.1941 28.4926 50.0878 31.7421C50.0878 31.7421 54.8129 34.9816 57.5 39.5572" stroke="white" stroke-width="3.5" stroke-linecap="round" stroke-linejoin="round"/>
<path d="M42.3198 74.5H15.448C14.4745 74.5 14.2062 73.992 14.852 73.3597L25.7596 62.6403C26.4053 62.008 27.7166 61.5 28.6902 61.5H55.552C56.5255 61.5 56.7938 62.008 56.148 62.6403L45.2404 73.3597C44.5947 73.992 43.2834 74.5 42.3098 74.5H42.3198Z" stroke="white" stroke-width="3.5" stroke-linejoin="round"/>
<path d="M71.6902 74.5H98.552C99.5255 74.5 99.7938 73.992 99.148 73.3597L88.2404 62.6403C87.5947 62.008 86.2834 61.5 85.3098 61.5H58.448C57.4745 61.5 57.2062 62.008 57.852 62.6403L68.7596 73.3597C69.4053 73.992 70.7166 74.5 71.6902 74.5Z" stroke="white" stroke-width="3.5" stroke-linejoin="round"/>
<path d="M4.63847 128.976V135H2.11847V118.872H7.87847C9.75047 118.872 11.1585 119.288 12.1025 120.12C13.0625 120.952 13.5425 122.208 13.5425 123.888C13.5425 125.568 13.0705 126.84 12.1265 127.704C11.1985 128.552 9.82247 128.976 7.99847 128.976H4.63847ZM4.63847 120.96V126.888H7.97447C8.93447 126.888 9.67847 126.64 10.2065 126.144C10.7505 125.648 11.0225 124.896 11.0225 123.888C11.0225 122.928 10.7505 122.2 10.2065 121.704C9.67847 121.208 8.93447 120.96 7.97447 120.96H4.63847ZM17.3643 123.384L17.6043 124.776C18.5963 123.688 19.7723 123.144 21.1323 123.144C21.6763 123.144 22.2123 123.256 22.7403 123.48V125.616C22.4683 125.488 22.1883 125.392 21.9003 125.328C21.6283 125.248 21.3323 125.208 21.0123 125.208C20.4363 125.208 19.8763 125.344 19.3323 125.616C18.7883 125.888 18.3243 126.232 17.9403 126.648V135H15.4443V123.384H17.3643ZM23.5625 129.192C23.5625 127.08 24.0025 125.544 24.8825 124.584C25.7785 123.624 27.1705 123.144 29.0585 123.144C30.9465 123.144 32.3305 123.632 33.2105 124.608C34.1065 125.584 34.5545 127.112 34.5545 129.192C34.5545 131.304 34.1065 132.84 33.2105 133.8C32.3305 134.76 30.9465 135.24 29.0585 135.24C27.1705 135.24 25.7785 134.76 24.8825 133.8C24.0025 132.84 23.5625 131.304 23.5625 129.192ZM26.0345 129.192C26.0345 130.552 26.2665 131.568 26.7305 132.24C27.2105 132.896 27.9865 133.224 29.0585 133.224C30.1305 133.224 30.8985 132.896 31.3625 132.24C31.8265 131.568 32.0585 130.552 32.0585 129.192C32.0585 127.832 31.8265 126.824 31.3625 126.168C30.8985 125.512 30.1305 125.184 29.0585 125.184C27.9865 125.184 27.2105 125.512 26.7305 126.168C26.2665 126.824 26.0345 127.832 26.0345 129.192ZM46.7926 118.056V135H44.8966L44.5606 134.112C43.7766 134.864 42.7686 135.24 41.5366 135.24C39.9046 135.24 38.6566 134.752 37.7926 133.776C36.9446 132.8 36.5206 131.272 36.5206 129.192C36.5206 127.128 36.9286 125.608 37.7446 124.632C38.5606 123.64 39.6886 123.144 41.1286 123.144C41.8006 123.144 42.4006 123.24 42.9286 123.432C43.4726 123.624 43.9286 123.88 44.2966 124.2V118.344L46.7926 118.056ZM41.8486 133.248C42.3286 133.248 42.7766 133.168 43.1926 133.008C43.6086 132.832 43.9766 132.6 44.2966 132.312V126.12C43.9766 125.816 43.6086 125.584 43.1926 125.424C42.7766 125.248 42.3366 125.16 41.8726 125.16C40.9126 125.16 40.1926 125.472 39.7126 126.096C39.2326 126.72 38.9926 127.752 38.9926 129.192C38.9926 130.664 39.2246 131.712 39.6886 132.336C40.1686 132.944 40.8886 133.248 41.8486 133.248ZM57.3078 133.968C56.7958 134.368 56.2278 134.68 55.6038 134.904C54.9798 135.128 54.3078 135.24 53.5878 135.24C52.2438 135.24 51.2598 134.92 50.6358 134.28C50.0278 133.624 49.7238 132.576 49.7238 131.136V123.384H52.1958V130.608C52.1958 131.584 52.3478 132.272 52.6518 132.672C52.9718 133.056 53.4678 133.248 54.1398 133.248C54.6518 133.248 55.1398 133.168 55.6038 133.008C56.0838 132.832 56.5718 132.584 57.0678 132.264V123.384H59.5398V135H57.6918L57.3078 133.968ZM67.775 133.2C68.367 133.2 68.919 133.128 69.431 132.984C69.943 132.824 70.447 132.608 70.943 132.336L71.543 134.256C71.047 134.56 70.479 134.8 69.839 134.976C69.199 135.152 68.511 135.24 67.775 135.24C65.775 135.24 64.311 134.76 63.383 133.8C62.471 132.84 62.015 131.304 62.015 129.192C62.015 127.112 62.463 125.584 63.359 124.608C64.255 123.632 65.647 123.144 67.535 123.144C69.231 123.144 70.599 123.648 71.639 124.656L70.343 126.336C69.575 125.568 68.663 125.184 67.607 125.184C66.599 125.184 65.831 125.488 65.303 126.096C64.775 126.704 64.511 127.736 64.511 129.192C64.511 130.632 64.783 131.664 65.327 132.288C65.871 132.896 66.687 133.2 67.775 133.2ZM77.0313 125.424V130.728C77.0313 131.656 77.1593 132.304 77.4153 132.672C77.6713 133.04 78.1673 133.224 78.9033 133.224C79.2713 133.224 79.6393 133.168 80.0073 133.056C80.3913 132.944 80.7513 132.816 81.0873 132.672L81.5673 134.52C81.0553 134.76 80.5113 134.936 79.9353 135.048C79.3593 135.176 78.7913 135.24 78.2313 135.24C77.5273 135.24 76.9353 135.152 76.4553 134.976C75.9913 134.8 75.6153 134.544 75.3273 134.208C75.0553 133.856 74.8553 133.432 74.7273 132.936C74.6153 132.44 74.5593 131.864 74.5593 131.208V125.424H72.6633V123.384H74.5593V121.056L77.0313 120.6V123.384H81.1353V125.424H77.0313ZM83.7773 123.384H86.2733V135H83.7773V123.384ZM83.7773 118.392H86.2733V121.008H83.7773V118.392ZM89.0065 129.192C89.0065 127.08 89.4465 125.544 90.3265 124.584C91.2225 123.624 92.6145 123.144 94.5025 123.144C96.3905 123.144 97.7745 123.632 98.6545 124.608C99.5505 125.584 99.9985 127.112 99.9985 129.192C99.9985 131.304 99.5505 132.84 98.6545 133.8C97.7745 134.76 96.3905 135.24 94.5025 135.24C92.6145 135.24 91.2225 134.76 90.3265 133.8C89.4465 132.84 89.0065 131.304 89.0065 129.192ZM91.4785 129.192C91.4785 130.552 91.7105 131.568 92.1745 132.24C92.6545 132.896 93.4305 133.224 94.5025 133.224C95.5745 133.224 96.3425 132.896 96.8065 132.24C97.2705 131.568 97.5025 130.552 97.5025 129.192C97.5025 127.832 97.2705 126.824 96.8065 126.168C96.3425 125.512 95.5745 125.184 94.5025 125.184C93.4305 125.184 92.6545 125.512 92.1745 126.168C91.7105 126.824 91.4785 127.832 91.4785 129.192ZM104.701 124.44C105.213 124.04 105.781 123.728 106.405 123.504C107.029 123.264 107.701 123.144 108.421 123.144C109.781 123.144 110.765 123.472 111.373 124.128C111.997 124.784 112.309 125.832 112.309 127.272V135H109.813V127.8C109.813 126.84 109.645 126.16 109.309 125.76C108.989 125.36 108.509 125.16 107.869 125.16C107.357 125.16 106.861 125.248 106.381 125.424C105.917 125.584 105.445 125.824 104.965 126.144V135H102.469V123.384H104.341L104.701 124.44Z" fill="white"/>
</svg>
