<svg width="67" height="69" viewBox="0 0 67 69" fill="none" xmlns="http://www.w3.org/2000/svg">
<g clip-path="url(#clip0_4720_1451)">
<path d="M47.1643 15.9113H45.2826C43.7156 15.9113 42.4429 15.5495 41.3549 14.9649C41.9092 14.617 42.4771 14.0533 42.874 13.0929C43.3598 11.9099 43.3119 10.6085 42.744 9.5229C42.2308 8.53471 41.047 7.24032 38.3305 6.66968C34.1839 5.79979 32.4595 6.53746 32.2816 6.62792C32.09 6.71839 31.9532 6.89933 31.9053 7.1081C31.8779 7.24032 31.2278 10.3023 31.9874 13.2043C32.8085 16.3567 34.5739 18.1174 36.8799 18.1174C37.0646 18.1174 37.2562 18.1035 37.4546 18.0826C39.1242 17.8808 39.9043 16.8578 40.2259 15.9113C41.5876 16.7604 43.2161 17.3101 45.3031 17.3101H47.1848C48.4849 17.3101 49.5455 18.3888 49.5455 19.711V31.277C49.5455 32.5992 48.4849 33.6779 47.1848 33.6779H46.049C45.8642 31.5484 44.0988 29.8643 41.9571 29.8643C39.8153 29.8643 38.0499 31.5414 37.8652 33.6779H28.9629C28.7713 31.5554 27.0059 29.8852 24.8711 29.8852C22.7362 29.8852 20.9708 31.5554 20.7792 33.6779H19.6433C18.3432 33.6779 17.2826 32.5992 17.2826 31.277V26.3152C17.2826 24.9929 18.3432 23.9143 19.6433 23.9143H31.0363C31.4126 23.9143 31.7205 23.6011 31.7205 23.2184V18.0826C31.7205 16.8926 30.7694 15.9183 29.5925 15.9183H26.8828C26.4585 15.9183 25.658 16.0575 25.0216 17.0039L21.4976 22.5225H19.6433C17.5837 22.5225 15.9141 24.2274 15.9141 26.3152V31.277C15.9141 33.3717 17.5905 35.0697 19.6433 35.0697H20.8818C21.3266 36.893 22.9414 38.25 24.8711 38.25C26.8007 38.25 28.4155 36.893 28.8603 35.0697H37.9747C38.4263 36.8791 40.0343 38.2291 41.9571 38.2291C43.8799 38.2291 45.4879 36.8791 45.9395 35.0697H47.1848C49.2445 35.0697 50.9141 33.3647 50.9141 31.277V19.711C50.9141 17.6163 49.2376 15.9183 47.1848 15.9183L47.1643 15.9113ZM37.2767 16.6977C34.7723 16.997 33.7049 14.4151 33.2943 12.8424C32.7743 10.8382 33.0206 8.65998 33.1575 7.79009C33.7733 7.65091 35.2992 7.4491 38.0431 8.0267C39.7811 8.38857 40.9854 9.13319 41.526 10.1701C41.9092 10.9008 41.9365 11.7498 41.6013 12.5571C41.1633 13.6357 40.4038 13.9489 39.9864 14.0463C38.6931 12.9955 37.6462 11.6106 36.5651 10.184C36.3324 9.87782 35.9082 9.82214 35.6071 10.0588C35.306 10.2954 35.2513 10.7268 35.484 11.033C36.5582 12.4527 37.6531 13.8863 39.0079 15.0275C38.96 15.5216 38.6863 16.5237 37.2767 16.6908V16.6977ZM26.1369 17.7625C26.397 17.3797 26.6707 17.2962 26.8554 17.2962H29.5651C29.9825 17.2962 30.3246 17.6442 30.3246 18.0687V22.5086H23.1057L26.1369 17.7555V17.7625ZM24.8437 36.8512C23.3315 36.8512 22.0998 35.5986 22.0998 34.0606C22.0998 32.5227 23.3315 31.27 24.8437 31.27C26.3559 31.27 27.5876 32.5227 27.5876 34.0606C27.5876 35.5986 26.3559 36.8512 24.8437 36.8512ZM41.9297 36.8303C40.4175 36.8303 39.1858 35.5777 39.1858 34.0398C39.1858 32.5018 40.4175 31.2492 41.9297 31.2492C43.4419 31.2492 44.6736 32.5018 44.6736 34.0398C44.6736 35.5777 43.4419 36.8303 41.9297 36.8303Z" fill="white"/>
</g>
<path d="M17.2565 57.82C17.2565 57.58 17.2215 57.365 17.1515 57.175C17.0815 56.985 16.9565 56.81 16.7765 56.65C16.5965 56.49 16.3465 56.335 16.0265 56.185C15.7165 56.035 15.3215 55.875 14.8415 55.705C14.2515 55.495 13.7565 55.29 13.3565 55.09C12.9565 54.88 12.6365 54.655 12.3965 54.415C12.1565 54.175 11.9815 53.91 11.8715 53.62C11.7715 53.33 11.7215 52.995 11.7215 52.615C11.7215 51.825 12.0115 51.195 12.5915 50.725C13.1715 50.255 14.0215 50.02 15.1415 50.02C15.6915 50.02 16.1965 50.09 16.6565 50.23C17.1165 50.36 17.5565 50.545 17.9765 50.785L17.5265 51.715C17.1565 51.485 16.7715 51.31 16.3715 51.19C15.9715 51.06 15.5615 50.995 15.1415 50.995C14.3615 50.995 13.7865 51.135 13.4165 51.415C13.0565 51.685 12.8765 52.06 12.8765 52.54C12.8765 52.79 12.9165 53.01 12.9965 53.2C13.0765 53.39 13.2065 53.565 13.3865 53.725C13.5765 53.885 13.8265 54.045 14.1365 54.205C14.4465 54.355 14.8365 54.52 15.3065 54.7C15.8865 54.92 16.3715 55.125 16.7615 55.315C17.1615 55.505 17.4815 55.715 17.7215 55.945C17.9715 56.165 18.1465 56.42 18.2465 56.71C18.3565 56.99 18.4115 57.33 18.4115 57.73C18.4115 58.55 18.1115 59.2 17.5115 59.68C16.9215 60.16 16.0065 60.4 14.7665 60.4C14.1365 60.4 13.5365 60.325 12.9665 60.175C12.3965 60.025 11.9115 59.83 11.5115 59.59L11.9315 58.69C12.3615 58.92 12.8065 59.105 13.2665 59.245C13.7265 59.375 14.2115 59.44 14.7215 59.44C15.5715 59.44 16.2065 59.3 16.6265 59.02C17.0465 58.73 17.2565 58.33 17.2565 57.82ZM23.0568 60.4C21.8768 60.4 21.0368 60.095 20.5368 59.485C20.0468 58.865 19.8018 57.91 19.8018 56.62C19.8018 55.32 20.0518 54.365 20.5518 53.755C21.0518 53.145 21.8168 52.84 22.8468 52.84C23.8768 52.84 24.6418 53.14 25.1418 53.74C25.6418 54.33 25.8918 55.27 25.8918 56.56V57.04H20.9718C21.0118 57.9 21.1968 58.515 21.5268 58.885C21.8568 59.255 22.3718 59.44 23.0718 59.44C23.4918 59.44 23.9018 59.38 24.3018 59.26C24.7118 59.13 25.0918 58.955 25.4418 58.735L25.8168 59.65C25.4368 59.88 25.0068 60.065 24.5268 60.205C24.0568 60.335 23.5668 60.4 23.0568 60.4ZM24.7218 56.11C24.6718 55.33 24.4968 54.755 24.1968 54.385C23.8968 54.005 23.4468 53.815 22.8468 53.815C22.2468 53.815 21.7968 54.005 21.4968 54.385C21.1968 54.755 21.0218 55.33 20.9718 56.11H24.7218ZM28.5168 52.99L28.6518 53.95C28.9818 53.59 29.3518 53.315 29.7618 53.125C30.1718 52.935 30.5868 52.84 31.0068 52.84C31.1768 52.84 31.3218 52.855 31.4418 52.885C31.5718 52.905 31.7068 52.94 31.8468 52.99V54.01C31.5468 53.89 31.2318 53.83 30.9018 53.83C30.5218 53.83 30.1418 53.935 29.7618 54.145C29.3818 54.355 29.0568 54.62 28.7868 54.94V60.25H27.6468V52.99H28.5168ZM36.0108 58.93L36.7908 56.59L38.0658 52.99H39.2808L36.5508 60.25H35.4558L32.7108 52.99H33.9258L35.2008 56.59L35.9808 58.93H36.0108ZM40.7171 52.99H41.8571V60.25H40.7171V52.99ZM40.7021 49.87H41.8571V51.37H40.7021V49.87ZM47.202 59.44C47.902 59.44 48.527 59.265 49.077 58.915L49.407 59.83C49.117 60 48.782 60.14 48.402 60.25C48.032 60.35 47.632 60.4 47.202 60.4C46.012 60.4 45.142 60.105 44.592 59.515C44.042 58.915 43.767 57.95 43.767 56.62C43.767 55.32 44.032 54.365 44.562 53.755C45.092 53.145 45.922 52.84 47.052 52.84C48.022 52.84 48.817 53.135 49.437 53.725L48.807 54.505C48.587 54.285 48.327 54.115 48.027 53.995C47.737 53.865 47.422 53.8 47.082 53.8C46.362 53.8 45.817 54.02 45.447 54.46C45.087 54.89 44.907 55.61 44.907 56.62C44.907 57.63 45.097 58.355 45.477 58.795C45.857 59.225 46.432 59.44 47.202 59.44ZM53.4816 60.4C52.3016 60.4 51.4616 60.095 50.9616 59.485C50.4716 58.865 50.2266 57.91 50.2266 56.62C50.2266 55.32 50.4766 54.365 50.9766 53.755C51.4766 53.145 52.2416 52.84 53.2716 52.84C54.3016 52.84 55.0666 53.14 55.5666 53.74C56.0666 54.33 56.3166 55.27 56.3166 56.56V57.04H51.3966C51.4366 57.9 51.6216 58.515 51.9516 58.885C52.2816 59.255 52.7966 59.44 53.4966 59.44C53.9166 59.44 54.3266 59.38 54.7266 59.26C55.1366 59.13 55.5166 58.955 55.8666 58.735L56.2416 59.65C55.8616 59.88 55.4316 60.065 54.9516 60.205C54.4816 60.335 53.9916 60.4 53.4816 60.4ZM55.1466 56.11C55.0966 55.33 54.9216 54.755 54.6216 54.385C54.3216 54.005 53.8716 53.815 53.2716 53.815C52.6716 53.815 52.2216 54.005 51.9216 54.385C51.6216 54.755 51.4466 55.33 51.3966 56.11H55.1466Z" fill="white"/>
<defs>
<clipPath id="clip0_4720_1451">
<rect width="44" height="44" fill="white" transform="translate(11.9141 0.25)"/>
</clipPath>
</defs>
</svg>
