<svg width="131" height="131" viewBox="0 0 131 131" fill="none" xmlns="http://www.w3.org/2000/svg">
<path d="M9.12963 96.8221V103.85H6.18963V85.0341H12.9096C15.0936 85.0341 16.7363 85.5194 17.8376 86.4901C18.9576 87.4608 19.5176 88.9261 19.5176 90.8861C19.5176 92.8461 18.967 94.3301 17.8656 95.3381C16.783 96.3274 15.1776 96.8221 13.0496 96.8221H9.12963ZM9.12963 87.4701V94.3861H13.0216C14.1416 94.3861 15.0096 94.0968 15.6256 93.5181C16.2603 92.9394 16.5776 92.0621 16.5776 90.8861C16.5776 89.7661 16.2603 88.9168 15.6256 88.3381C15.0096 87.7594 14.1416 87.4701 13.0216 87.4701H9.12963ZM31.7996 103.85H29.6436L29.2236 102.73C28.7009 103.159 28.0849 103.505 27.3756 103.766C26.6849 104.009 25.9196 104.13 25.0796 104.13C23.5676 104.13 22.4476 103.766 21.7196 103.038C20.9916 102.291 20.6276 101.218 20.6276 99.8181C20.6276 98.3994 21.0849 97.3448 21.9996 96.6541C22.9142 95.9634 24.4076 95.6181 26.4796 95.6181C26.9089 95.6181 27.3196 95.6274 27.7116 95.6461C28.1036 95.6648 28.4956 95.6928 28.8876 95.7301V95.2541C28.8876 94.1901 28.6729 93.4434 28.2436 93.0141C27.8329 92.5848 27.0862 92.3701 26.0036 92.3701C25.4062 92.3701 24.7622 92.4634 24.0716 92.6501C23.3996 92.8181 22.7089 93.0888 21.9996 93.4621L21.1316 91.3901C21.9342 90.9608 22.7649 90.6248 23.6236 90.3821C24.5009 90.1394 25.4156 90.0181 26.3676 90.0181C27.3756 90.0181 28.2249 90.1114 28.9156 90.2981C29.6249 90.4848 30.1849 90.8021 30.5956 91.2501C31.0249 91.6794 31.3329 92.2394 31.5196 92.9301C31.7062 93.6208 31.7996 94.4701 31.7996 95.4781V103.85ZM25.7796 101.806C26.2649 101.806 26.7969 101.694 27.3756 101.47C27.9542 101.246 28.4582 100.957 28.8876 100.602V97.9981C28.5142 97.9608 28.1222 97.9328 27.7116 97.9141C27.3009 97.8768 26.8436 97.8581 26.3396 97.8581C25.3129 97.8581 24.5849 98.0074 24.1556 98.3061C23.7449 98.5861 23.5396 99.0714 23.5396 99.7621C23.5396 101.125 24.2862 101.806 25.7796 101.806ZM41.2362 101.75C41.9269 101.75 42.5709 101.666 43.1682 101.498C43.7656 101.311 44.3536 101.059 44.9322 100.742L45.6322 102.982C45.0536 103.337 44.3909 103.617 43.6442 103.822C42.8976 104.027 42.0949 104.13 41.2362 104.13C38.9029 104.13 37.1949 103.57 36.1122 102.45C35.0482 101.33 34.5162 99.5381 34.5162 97.0741C34.5162 94.6474 35.0389 92.8648 36.0842 91.7261C37.1296 90.5874 38.7536 90.0181 40.9562 90.0181C42.9349 90.0181 44.5309 90.6061 45.7442 91.7821L44.2322 93.7421C43.3362 92.8461 42.2722 92.3981 41.0402 92.3981C39.8642 92.3981 38.9682 92.7528 38.3522 93.4621C37.7362 94.1714 37.4282 95.3754 37.4282 97.0741C37.4282 98.7541 37.7456 99.9581 38.3802 100.686C39.0149 101.395 39.9669 101.75 41.2362 101.75ZM48.1713 103.85V84.4181L51.1113 84.0821V95.3101H52.2313L56.7393 90.2981H60.2393L54.4713 96.5421L60.3793 103.85H56.8513L52.1473 97.7181H51.1113V103.85H48.1713ZM72.8874 103.85H70.7314L70.3114 102.73C69.7887 103.159 69.1727 103.505 68.4634 103.766C67.7727 104.009 67.0074 104.13 66.1674 104.13C64.6554 104.13 63.5354 103.766 62.8074 103.038C62.0794 102.291 61.7154 101.218 61.7154 99.8181C61.7154 98.3994 62.1727 97.3448 63.0874 96.6541C64.002 95.9634 65.4954 95.6181 67.5674 95.6181C67.9967 95.6181 68.4074 95.6274 68.7994 95.6461C69.1914 95.6648 69.5834 95.6928 69.9754 95.7301V95.2541C69.9754 94.1901 69.7607 93.4434 69.3314 93.0141C68.9207 92.5848 68.174 92.3701 67.0914 92.3701C66.494 92.3701 65.85 92.4634 65.1594 92.6501C64.4874 92.8181 63.7967 93.0888 63.0874 93.4621L62.2194 91.3901C63.022 90.9608 63.8527 90.6248 64.7114 90.3821C65.5887 90.1394 66.5034 90.0181 67.4554 90.0181C68.4634 90.0181 69.3127 90.1114 70.0034 90.2981C70.7127 90.4848 71.2727 90.8021 71.6834 91.2501C72.1127 91.6794 72.4207 92.2394 72.6074 92.9301C72.7941 93.6208 72.8874 94.4701 72.8874 95.4781V103.85ZM66.8674 101.806C67.3527 101.806 67.8847 101.694 68.4634 101.47C69.042 101.246 69.5461 100.957 69.9754 100.602V97.9981C69.602 97.9608 69.21 97.9328 68.7994 97.9141C68.3887 97.8768 67.9314 97.8581 67.4274 97.8581C66.4007 97.8581 65.6727 98.0074 65.2434 98.3061C64.8327 98.5861 64.6274 99.0714 64.6274 99.7621C64.6274 101.125 65.374 101.806 66.8674 101.806ZM87.588 90.2981V103.878C87.588 106.006 87.056 107.546 85.992 108.498C84.928 109.469 83.332 109.954 81.204 109.954C80.42 109.954 79.6454 109.889 78.88 109.758C78.1147 109.627 77.424 109.441 76.808 109.198L77.424 106.93C78.0214 107.135 78.6374 107.294 79.272 107.406C79.9067 107.537 80.532 107.602 81.148 107.602C82.3987 107.602 83.2947 107.331 83.836 106.79C84.396 106.267 84.676 105.39 84.676 104.158V102.926C84.2467 103.299 83.7147 103.598 83.08 103.822C82.464 104.027 81.764 104.13 80.98 104.13C79.3 104.13 77.984 103.561 77.032 102.422C76.08 101.283 75.604 99.5008 75.604 97.0741C75.604 94.6474 76.0987 92.8648 77.088 91.7261C78.0774 90.5874 79.5334 90.0181 81.456 90.0181C82.8747 90.0181 84.0507 90.4661 84.984 91.3621L85.376 90.2981H87.588ZM81.82 92.3701C80.7 92.3701 79.86 92.7341 79.3 93.4621C78.7587 94.1714 78.488 95.3754 78.488 97.0741C78.488 98.7728 78.768 99.9861 79.328 100.714C79.888 101.442 80.728 101.806 81.848 101.806C82.3894 101.806 82.9027 101.713 83.388 101.526C83.8734 101.321 84.3027 101.041 84.676 100.686V93.4621C84.3027 93.1261 83.8734 92.8648 83.388 92.6781C82.9027 92.4728 82.38 92.3701 81.82 92.3701ZM91.3718 90.2981H94.2838V103.85H91.3718V90.2981ZM91.3718 84.4741H94.2838V87.5261H91.3718V84.4741ZM100.664 91.5301C101.262 91.0634 101.924 90.6994 102.652 90.4381C103.38 90.1581 104.164 90.0181 105.004 90.0181C106.591 90.0181 107.739 90.4008 108.448 91.1661C109.176 91.9314 109.54 93.1541 109.54 94.8341V103.85H106.628V95.4501C106.628 94.3301 106.432 93.5368 106.04 93.0701C105.667 92.6034 105.107 92.3701 104.36 92.3701C103.763 92.3701 103.184 92.4728 102.624 92.6781C102.083 92.8648 101.532 93.1448 100.972 93.5181V103.85H98.0605V90.2981H100.244L100.664 91.5301ZM124.246 90.2981V103.878C124.246 106.006 123.714 107.546 122.65 108.498C121.586 109.469 119.99 109.954 117.862 109.954C117.078 109.954 116.304 109.889 115.538 109.758C114.773 109.627 114.082 109.441 113.466 109.198L114.082 106.93C114.679 107.135 115.295 107.294 115.93 107.406C116.565 107.537 117.19 107.602 117.806 107.602C119.057 107.602 119.953 107.331 120.494 106.79C121.054 106.267 121.334 105.39 121.334 104.158V102.926C120.905 103.299 120.373 103.598 119.738 103.822C119.122 104.027 118.422 104.13 117.638 104.13C115.958 104.13 114.642 103.561 113.69 102.422C112.738 101.283 112.262 99.5008 112.262 97.0741C112.262 94.6474 112.757 92.8648 113.746 91.7261C114.735 90.5874 116.191 90.0181 118.114 90.0181C119.533 90.0181 120.709 90.4661 121.642 91.3621L122.034 90.2981H124.246ZM118.478 92.3701C117.358 92.3701 116.518 92.7341 115.958 93.4621C115.417 94.1714 115.146 95.3754 115.146 97.0741C115.146 98.7728 115.426 99.9861 115.986 100.714C116.546 101.442 117.386 101.806 118.506 101.806C119.048 101.806 119.561 101.713 120.046 101.526C120.531 101.321 120.961 101.041 121.334 100.686V93.4621C120.961 93.1261 120.531 92.8648 120.046 92.6781C119.561 92.4728 119.038 92.3701 118.478 92.3701Z" fill="#7E7C77"/>
<path d="M50.4004 57.0532L48.2932 57.6212L47.7286 55.5015" stroke="#7E7C77" stroke-width="2" stroke-linecap="square" stroke-linejoin="round"/>
<path d="M52.7437 66.0945L54.2862 67.6462L52.7437 69.198" stroke="#7E7C77" stroke-width="2" stroke-linecap="square" stroke-linejoin="round"/>
<path d="M59.2925 59.6965L59.8571 57.5768L61.9643 58.1448" stroke="#7E7C77" stroke-width="2" stroke-linecap="square" stroke-linejoin="round"/>
<path d="M59.9143 57.5443L61.3511 60.0476L62.7878 62.5508L65.6612 67.5574H59.9143H57.0409M48.4207 57.5443L54.1675 47.5312L57.0409 52.5378L58.4776 55.041M46.984 60.0476L45.5472 62.5508L42.6738 67.5574H54.1675" stroke="#7E7C77" stroke-width="2" stroke-linejoin="round"/>
<rect x="58.3232" y="21.5317" width="13.4574" height="12.825" stroke="#7E7C77" stroke-width="2" stroke-linejoin="round"/>
<rect x="37.0518" y="21.5317" width="56" height="52" stroke="#7E7C77" stroke-width="2" stroke-linejoin="round"/>
</svg>
