<svg width="112" height="147" viewBox="0 0 112 147" fill="none" xmlns="http://www.w3.org/2000/svg">
<g clip-path="url(#clip0_5420_606)">
<path d="M92.6621 76.981V96.207C92.6621 99.0718 90.342 101.372 87.4974 101.372H24.5124C21.6476 101.372 19.3477 99.0516 19.3477 96.207V76.981" stroke="white" stroke-width="4.03489" stroke-linejoin="round"/>
<path d="M56.0117 61.3054C56.0117 61.3054 56.2336 43.1486 78.002 27.8564" stroke="white" stroke-width="4.03489" stroke-linecap="round" stroke-linejoin="round"/>
<path d="M56.0117 101.392V76.981" stroke="white" stroke-width="4.03489" stroke-linecap="round" stroke-linejoin="round"/>
<path d="M56.7357 36.8345C56.6954 33.0619 57.5629 29.5516 58.8541 27.171C62.7276 19.9285 71.8263 13.0289 91.7992 10.6079C93.0298 10.4667 94.1192 11.4351 94.0991 12.6657C94.0991 16.1559 93.8973 22.8739 92.8281 27.978C92.6868 28.6438 92.4851 29.4507 92.2027 30.3787C88.9949 40.6475 80.1786 48.1523 69.5668 49.8267C65.6932 50.432 61.0127 50.7346 59.6409 50.8355" stroke="white" stroke-width="4.03489" stroke-linecap="round" stroke-linejoin="round"/>
<path d="M56.7331 36.8345C55.1998 32.4768 50.0553 27.8569 45.3546 25.8799C41.4609 24.2457 32.4025 23.8423 27.7422 24.2659C26.5116 24.387 25.644 25.5369 25.9063 26.7473C26.8747 31.1453 30.2237 39.5782 36.2357 44.7025C40.3715 48.2128 46.5247 49.4232 50.943 49.4232" stroke="white" stroke-width="4.03489" stroke-linecap="round" stroke-linejoin="round"/>
<path d="M56.4127 63.4642L69.385 75.6898C70.1516 76.416 71.7051 77.0011 72.8752 77.0011H104.852C106.022 77.0011 106.325 76.416 105.558 75.6898L92.5858 63.4642C91.8191 62.7379 90.2657 62.1528 89.0956 62.1528H22.9027C21.7326 62.1528 20.1792 62.7379 19.4125 63.4642L6.44027 75.6898C5.67363 76.416 5.99643 77.0011 7.14638 77.0011H39.1231C40.2932 77.0011 41.8467 76.416 42.6133 75.6898L55.5856 63.4642H56.4127Z" stroke="white" stroke-width="4.03489" stroke-linejoin="round"/>
<path d="M41.2969 35.3408C41.2969 35.3408 46.1186 38.024 50.5167 41.5545" stroke="white" stroke-width="4.03489" stroke-linecap="round" stroke-linejoin="round"/>
</g>
<path d="M17.685 134.976V141H15.165V124.872H20.925C22.797 124.872 24.205 125.288 25.149 126.12C26.109 126.952 26.589 128.208 26.589 129.888C26.589 131.568 26.117 132.84 25.173 133.704C24.245 134.552 22.869 134.976 21.045 134.976H17.685ZM17.685 126.96V132.888H21.021C21.981 132.888 22.725 132.64 23.253 132.144C23.797 131.648 24.069 130.896 24.069 129.888C24.069 128.928 23.797 128.2 23.253 127.704C22.725 127.208 21.981 126.96 21.021 126.96H17.685ZM37.1164 141H35.2684L34.9084 140.04C34.4604 140.408 33.9324 140.704 33.3244 140.928C32.7324 141.136 32.0764 141.24 31.3564 141.24C30.0604 141.24 29.1004 140.928 28.4764 140.304C27.8524 139.664 27.5404 138.744 27.5404 137.544C27.5404 136.328 27.9324 135.424 28.7164 134.832C29.5004 134.24 30.7804 133.944 32.5564 133.944C32.9244 133.944 33.2764 133.952 33.6124 133.968C33.9484 133.984 34.2844 134.008 34.6204 134.04V133.632C34.6204 132.72 34.4364 132.08 34.0684 131.712C33.7164 131.344 33.0764 131.16 32.1484 131.16C31.6364 131.16 31.0844 131.24 30.4924 131.4C29.9164 131.544 29.3244 131.776 28.7164 132.096L27.9724 130.32C28.6604 129.952 29.3724 129.664 30.1084 129.456C30.8604 129.248 31.6444 129.144 32.4604 129.144C33.3244 129.144 34.0524 129.224 34.6444 129.384C35.2524 129.544 35.7324 129.816 36.0844 130.2C36.4524 130.568 36.7164 131.048 36.8764 131.64C37.0364 132.232 37.1164 132.96 37.1164 133.824V141ZM31.9564 139.248C32.3724 139.248 32.8284 139.152 33.3244 138.96C33.8204 138.768 34.2524 138.52 34.6204 138.216V135.984C34.3004 135.952 33.9644 135.928 33.6124 135.912C33.2604 135.88 32.8684 135.864 32.4364 135.864C31.5564 135.864 30.9324 135.992 30.5644 136.248C30.2124 136.488 30.0364 136.904 30.0364 137.496C30.0364 138.664 30.6764 139.248 31.9564 139.248ZM45.205 139.2C45.797 139.2 46.349 139.128 46.861 138.984C47.373 138.824 47.877 138.608 48.373 138.336L48.973 140.256C48.477 140.56 47.909 140.8 47.269 140.976C46.629 141.152 45.941 141.24 45.205 141.24C43.205 141.24 41.741 140.76 40.813 139.8C39.901 138.84 39.445 137.304 39.445 135.192C39.445 133.112 39.893 131.584 40.789 130.608C41.685 129.632 43.077 129.144 44.965 129.144C46.661 129.144 48.029 129.648 49.069 130.656L47.773 132.336C47.005 131.568 46.093 131.184 45.037 131.184C44.029 131.184 43.261 131.488 42.733 132.096C42.205 132.704 41.941 133.736 41.941 135.192C41.941 136.632 42.213 137.664 42.757 138.288C43.301 138.896 44.117 139.2 45.205 139.2ZM51.1493 141V124.344L53.6693 124.056V133.68H54.6293L58.4933 129.384H61.4933L56.5493 134.736L61.6133 141H58.5893L54.5573 135.744H53.6693V141H51.1493ZM72.3345 141H70.4865L70.1265 140.04C69.6785 140.408 69.1505 140.704 68.5425 140.928C67.9505 141.136 67.2945 141.24 66.5745 141.24C65.2785 141.24 64.3185 140.928 63.6945 140.304C63.0705 139.664 62.7585 138.744 62.7585 137.544C62.7585 136.328 63.1505 135.424 63.9345 134.832C64.7185 134.24 65.9985 133.944 67.7745 133.944C68.1425 133.944 68.4945 133.952 68.8305 133.968C69.1665 133.984 69.5025 134.008 69.8385 134.04V133.632C69.8385 132.72 69.6545 132.08 69.2865 131.712C68.9345 131.344 68.2945 131.16 67.3665 131.16C66.8545 131.16 66.3025 131.24 65.7105 131.4C65.1345 131.544 64.5425 131.776 63.9345 132.096L63.1905 130.32C63.8785 129.952 64.5905 129.664 65.3265 129.456C66.0785 129.248 66.8625 129.144 67.6785 129.144C68.5425 129.144 69.2705 129.224 69.8625 129.384C70.4705 129.544 70.9505 129.816 71.3025 130.2C71.6705 130.568 71.9345 131.048 72.0945 131.64C72.2545 132.232 72.3345 132.96 72.3345 133.824V141ZM67.1745 139.248C67.5905 139.248 68.0465 139.152 68.5425 138.96C69.0385 138.768 69.4705 138.52 69.8385 138.216V135.984C69.5185 135.952 69.1825 135.928 68.8305 135.912C68.4785 135.88 68.0865 135.864 67.6545 135.864C66.7745 135.864 66.1505 135.992 65.7825 136.248C65.4305 136.488 65.2545 136.904 65.2545 137.496C65.2545 138.664 65.8945 139.248 67.1745 139.248ZM84.9351 129.384V141.024C84.9351 142.848 84.4791 144.168 83.5671 144.984C82.6551 145.816 81.2871 146.232 79.4631 146.232C78.7911 146.232 78.1271 146.176 77.4711 146.064C76.8151 145.952 76.2231 145.792 75.6951 145.584L76.2231 143.64C76.7351 143.816 77.2631 143.952 77.8071 144.048C78.3511 144.16 78.8871 144.216 79.4151 144.216C80.4871 144.216 81.2551 143.984 81.7191 143.52C82.1991 143.072 82.4391 142.32 82.4391 141.264V140.208C82.0711 140.528 81.6151 140.784 81.0711 140.976C80.5431 141.152 79.9431 141.24 79.2711 141.24C77.8311 141.24 76.7031 140.752 75.8871 139.776C75.0711 138.8 74.6631 137.272 74.6631 135.192C74.6631 133.112 75.0871 131.584 75.9351 130.608C76.7831 129.632 78.0311 129.144 79.6791 129.144C80.8951 129.144 81.9031 129.528 82.7031 130.296L83.0391 129.384H84.9351ZM79.9911 131.16C79.0311 131.16 78.3111 131.472 77.8311 132.096C77.3671 132.704 77.1351 133.736 77.1351 135.192C77.1351 136.648 77.3751 137.688 77.8551 138.312C78.3351 138.936 79.0551 139.248 80.0151 139.248C80.4791 139.248 80.9191 139.168 81.3351 139.008C81.7511 138.832 82.1191 138.592 82.4391 138.288V132.096C82.1191 131.808 81.7511 131.584 81.3351 131.424C80.9191 131.248 80.4711 131.16 79.9911 131.16ZM93.0023 141.24C91.0183 141.24 89.5863 140.752 88.7063 139.776C87.8423 138.8 87.4103 137.272 87.4103 135.192C87.4103 133.112 87.8263 131.584 88.6583 130.608C89.5063 129.632 90.8023 129.144 92.5463 129.144C94.2583 129.144 95.5383 129.632 96.3863 130.608C97.2343 131.568 97.6583 133.088 97.6583 135.168V136.008H89.9543C90.0343 137.128 90.3063 137.944 90.7703 138.456C91.2503 138.968 92.0023 139.224 93.0263 139.224C93.6983 139.224 94.3463 139.128 94.9703 138.936C95.5943 138.744 96.2103 138.464 96.8183 138.096L97.5383 139.992C96.9303 140.36 96.2343 140.664 95.4503 140.904C94.6823 141.128 93.8663 141.24 93.0023 141.24ZM95.0903 134.088C95.0103 133.128 94.7703 132.408 94.3703 131.928C93.9703 131.432 93.3623 131.184 92.5463 131.184C90.9463 131.184 90.0903 132.152 89.9783 134.088H95.0903Z" fill="white"/>
<defs>
<clipPath id="clip0_5420_606">
<rect width="104" height="94.8191" fill="white" transform="translate(4 8.59033)"/>
</clipPath>
</defs>
</svg>
