<svg width="113" height="146" viewBox="0 0 113 146" fill="none" xmlns="http://www.w3.org/2000/svg">
<path d="M68 19.0653C47.6324 11.3127 28.8392 13.9606 15 33" stroke="white" stroke-width="3.5" stroke-miterlimit="10" stroke-linecap="round"/>
<path d="M63.2831 11.3173L61 18.7016L74.1624 22.9676C74.758 23.1606 75.2444 22.4496 74.8672 21.9417L66.4893 10.7384C65.586 9.52966 63.7298 9.86485 63.2831 11.3072V11.3173Z" fill="white"/>
<path d="M20.0653 44C12.3127 64.3676 14.9606 83.1608 34 97" stroke="white" stroke-width="3.5" stroke-miterlimit="10" stroke-linecap="round"/>
<path d="M12.3173 48.7169L19.7016 51L23.9676 37.8376C24.1606 37.242 23.4496 36.7556 22.9417 37.1328L11.7384 45.5107C10.5297 46.414 10.8648 48.2702 12.3072 48.7169H12.3173Z" fill="white"/>
<path d="M44 92.9347C64.3676 100.687 83.1608 98.0394 97 79" stroke="white" stroke-width="3.5" stroke-miterlimit="10" stroke-linecap="round"/>
<path d="M48.7169 100.683L51 93.2984L37.8376 89.0324C37.242 88.8394 36.7556 89.5504 37.1328 90.0583L45.5107 101.262C46.414 102.47 48.2702 102.135 48.7169 100.693V100.683Z" fill="white"/>
<path d="M91.9347 70C99.6873 49.6324 97.0394 30.8392 78 17" stroke="white" stroke-width="3.5" stroke-miterlimit="10" stroke-linecap="round"/>
<path d="M100.683 62.2831L93.2984 60L89.0324 73.1624C88.8394 73.758 89.5504 74.2444 90.0583 73.8672L101.262 65.4893C102.47 64.586 102.135 62.7298 100.693 62.2831H100.683Z" fill="white"/>
<path d="M77.8203 56.0098H34.0703" stroke="white" stroke-width="3.5" stroke-linecap="round" stroke-linejoin="round"/>
<path d="M54.4603 49.5099V34.1299H34.0703V77.8799H54.4603H77.8203V49.5099H54.4603Z" stroke="white" stroke-width="3.5" stroke-linecap="round" stroke-linejoin="round"/>
<path d="M71.2513 66.9498C71.2513 69.7698 68.9613 72.0598 66.1413 72.0598C63.3213 72.0598 61.0312 69.7698 61.0312 66.9498C61.0312 64.1298 63.3213 61.8398 66.1413 61.8398C68.9613 61.8398 71.2513 64.1298 71.2513 66.9498Z" stroke="white" stroke-width="3.5" stroke-linecap="round" stroke-linejoin="round"/>
<path d="M54.4609 49.5098V77.8798" stroke="white" stroke-width="3.5" stroke-linecap="round" stroke-linejoin="round"/>
<path d="M11.8949 123.96V129.36H15.3029C17.3189 129.36 18.3269 128.464 18.3269 126.672C18.3269 124.864 17.3349 123.96 15.3509 123.96H11.8949ZM9.37487 138V121.872H15.3029C19.0469 121.872 20.9189 123.472 20.9189 126.672C20.9189 127.728 20.6549 128.632 20.1269 129.384C19.6149 130.136 18.8709 130.688 17.8949 131.04L21.4469 138H18.7829L15.4469 131.448H11.8949V138H9.37487ZM28.7028 138.24C26.7188 138.24 25.2868 137.752 24.4068 136.776C23.5428 135.8 23.1108 134.272 23.1108 132.192C23.1108 130.112 23.5268 128.584 24.3588 127.608C25.2068 126.632 26.5028 126.144 28.2468 126.144C29.9588 126.144 31.2388 126.632 32.0868 127.608C32.9348 128.568 33.3588 130.088 33.3588 132.168V133.008H25.6548C25.7348 134.128 26.0068 134.944 26.4708 135.456C26.9508 135.968 27.7028 136.224 28.7268 136.224C29.3988 136.224 30.0468 136.128 30.6708 135.936C31.2948 135.744 31.9108 135.464 32.5188 135.096L33.2388 136.992C32.6308 137.36 31.9348 137.664 31.1508 137.904C30.3828 138.128 29.5668 138.24 28.7028 138.24ZM30.7908 131.088C30.7108 130.128 30.4708 129.408 30.0708 128.928C29.6708 128.432 29.0628 128.184 28.2468 128.184C26.6468 128.184 25.7908 129.152 25.6788 131.088H30.7908ZM41.0554 136.2C41.6474 136.2 42.1994 136.128 42.7114 135.984C43.2234 135.824 43.7274 135.608 44.2234 135.336L44.8234 137.256C44.3274 137.56 43.7594 137.8 43.1194 137.976C42.4794 138.152 41.7914 138.24 41.0554 138.24C39.0554 138.24 37.5914 137.76 36.6634 136.8C35.7514 135.84 35.2954 134.304 35.2954 132.192C35.2954 130.112 35.7434 128.584 36.6394 127.608C37.5354 126.632 38.9274 126.144 40.8154 126.144C42.5114 126.144 43.8794 126.648 44.9194 127.656L43.6234 129.336C42.8554 128.568 41.9434 128.184 40.8874 128.184C39.8794 128.184 39.1114 128.488 38.5834 129.096C38.0554 129.704 37.7914 130.736 37.7914 132.192C37.7914 133.632 38.0634 134.664 38.6074 135.288C39.1514 135.896 39.9674 136.2 41.0554 136.2ZM45.7997 126.384H48.3917L51.2957 134.688H51.3677L54.1997 126.384H56.7677L52.0637 139.296C51.7917 140.016 51.5037 140.624 51.1997 141.12C50.8957 141.632 50.5517 142.04 50.1677 142.344C49.7837 142.664 49.3437 142.888 48.8477 143.016C48.3517 143.16 47.7837 143.232 47.1437 143.232C46.9037 143.232 46.6637 143.208 46.4237 143.16C46.1837 143.128 45.9677 143.08 45.7757 143.016C45.8557 142.696 45.9197 142.368 45.9677 142.032C46.0317 141.712 46.0957 141.384 46.1597 141.048C46.5117 141.16 46.8957 141.216 47.3117 141.216C47.8077 141.216 48.2397 141.064 48.6077 140.76C48.9917 140.456 49.2797 140.064 49.4717 139.584L50.2397 137.688L45.7997 126.384ZM63.4795 136.2C64.0715 136.2 64.6235 136.128 65.1355 135.984C65.6475 135.824 66.1515 135.608 66.6475 135.336L67.2475 137.256C66.7515 137.56 66.1835 137.8 65.5435 137.976C64.9035 138.152 64.2155 138.24 63.4795 138.24C61.4795 138.24 60.0155 137.76 59.0875 136.8C58.1755 135.84 57.7195 134.304 57.7195 132.192C57.7195 130.112 58.1675 128.584 59.0635 127.608C59.9595 126.632 61.3515 126.144 63.2395 126.144C64.9355 126.144 66.3035 126.648 67.3435 127.656L66.0475 129.336C65.2795 128.568 64.3675 128.184 63.3115 128.184C62.3035 128.184 61.5355 128.488 61.0075 129.096C60.4795 129.704 60.2155 130.736 60.2155 132.192C60.2155 133.632 60.4875 134.664 61.0315 135.288C61.5755 135.896 62.3915 136.2 63.4795 136.2ZM72.1598 121.056V134.88C72.1598 135.424 72.2318 135.776 72.3758 135.936C72.5198 136.08 72.8078 136.152 73.2398 136.152V138.168C73.0958 138.2 72.9758 138.216 72.8798 138.216C72.7838 138.232 72.6398 138.24 72.4478 138.24C71.5198 138.24 70.8238 137.984 70.3598 137.472C69.9118 136.944 69.6878 136.08 69.6878 134.88V121.344L72.1598 121.056ZM75.7319 126.384H78.2279V138H75.7319V126.384ZM75.7319 121.392H78.2279V124.008H75.7319V121.392ZM83.6971 127.44C84.2091 127.04 84.7771 126.728 85.4011 126.504C86.0251 126.264 86.6971 126.144 87.4171 126.144C88.7771 126.144 89.7611 126.472 90.3691 127.128C90.9931 127.784 91.3051 128.832 91.3051 130.272V138H88.8091V130.8C88.8091 129.84 88.6411 129.16 88.3051 128.76C87.9851 128.36 87.5051 128.16 86.8651 128.16C86.3531 128.16 85.8571 128.248 85.3771 128.424C84.9131 128.584 84.4411 128.824 83.9611 129.144V138H81.4651V126.384H83.3371L83.6971 127.44ZM103.91 126.384V138.024C103.91 139.848 103.454 141.168 102.542 141.984C101.63 142.816 100.262 143.232 98.4379 143.232C97.7659 143.232 97.1019 143.176 96.4459 143.064C95.7899 142.952 95.1979 142.792 94.6699 142.584L95.1979 140.64C95.7099 140.816 96.2379 140.952 96.7819 141.048C97.3259 141.16 97.8619 141.216 98.3899 141.216C99.4619 141.216 100.23 140.984 100.694 140.52C101.174 140.072 101.414 139.32 101.414 138.264V137.208C101.046 137.528 100.59 137.784 100.046 137.976C99.5179 138.152 98.9179 138.24 98.2459 138.24C96.8059 138.24 95.6779 137.752 94.8619 136.776C94.0459 135.8 93.6379 134.272 93.6379 132.192C93.6379 130.112 94.0619 128.584 94.9099 127.608C95.7579 126.632 97.0059 126.144 98.6539 126.144C99.8699 126.144 100.878 126.528 101.678 127.296L102.014 126.384H103.91ZM98.9659 128.16C98.0059 128.16 97.2859 128.472 96.8059 129.096C96.3419 129.704 96.1099 130.736 96.1099 132.192C96.1099 133.648 96.3499 134.688 96.8299 135.312C97.3099 135.936 98.0299 136.248 98.9899 136.248C99.4539 136.248 99.8939 136.168 100.31 136.008C100.726 135.832 101.094 135.592 101.414 135.288V129.096C101.094 128.808 100.726 128.584 100.31 128.424C99.8939 128.248 99.4459 128.16 98.9659 128.16Z" fill="white"/>
</svg>
