<svg width="67" height="68" viewBox="0 0 67 68" fill="none" xmlns="http://www.w3.org/2000/svg">
<g clip-path="url(#clip0_4720_1654)">
<path d="M33.3102 12.7188H25.3008C24.9227 12.7188 24.6133 13.0281 24.6133 13.4062V30.5938C24.6133 30.9719 24.9227 31.2812 25.3008 31.2812H42.4883C42.8664 31.2812 43.1758 30.9719 43.1758 30.5938V19.4425C43.1758 19.0644 42.8664 18.755 42.4883 18.755H33.9977V13.4062C33.9977 13.0281 33.6883 12.7188 33.3102 12.7188ZM32.6227 14.0938V21.3125H25.9883V14.0938H32.6227ZM25.9883 22.6875H32.6227V29.9062H25.9883V22.6875ZM33.9977 29.9062V22.6875H41.8008V29.9062H33.9977ZM41.8008 20.13V21.3125H33.9977V20.13H41.8008Z" fill="white"/>
<path d="M17.6172 13.993C17.8321 13.993 18.04 13.8947 18.1786 13.7052C22.5929 7.5837 28.5456 5.54789 35.8912 7.60476L37.7623 8.20848C37.9425 8.27166 38.1157 8.32782 38.2959 8.39802C38.3305 8.41206 38.3652 8.40504 38.3998 8.41908L40.5827 9.12108C40.8183 9.1983 41.0124 8.9175 40.8599 8.71392L37.5197 4.2913C37.1594 3.81394 36.4179 3.94732 36.2446 4.51595L35.7457 6.12353C28.0952 4.17196 21.6712 6.47453 17.049 12.8838C16.8203 13.1997 16.8896 13.635 17.2015 13.8666C17.3262 13.9579 17.4648 14 17.6103 14L17.6172 13.993Z" fill="white"/>
<path d="M19.5918 19.8526L19.9656 18.7044C20.0714 18.3951 20.1701 18.0926 20.29 17.7832C20.3112 17.7213 20.3182 17.6594 20.3182 17.6044L21.0587 15.3287C21.1363 15.095 20.8542 14.9025 20.6497 15.0537L16.2067 18.3676C15.7271 18.7251 15.8611 19.4607 16.4324 19.6326L18.0474 20.1345C16.0022 27.8072 18.2942 34.2424 24.7894 38.8694C24.9164 38.9587 25.0574 39 25.2055 39C25.4241 39 25.6357 38.9037 25.7767 38.7181C26.0095 38.4087 25.9389 37.9825 25.6216 37.7556C19.3803 33.3142 17.3703 27.2984 19.5848 19.8595L19.5918 19.8526Z" fill="white"/>
<path d="M49.6634 30.2912C45.2907 36.3658 39.4003 38.4164 32.1309 36.4431L29.8441 35.7057C29.7401 35.6706 29.6431 35.6355 29.5392 35.6004C29.5184 35.5933 29.4976 35.6004 29.4768 35.5933L27.2454 34.877C27.0098 34.7998 26.8158 35.0807 26.9682 35.2843L30.3084 39.7086C30.6687 40.1861 31.4102 40.0527 31.5835 39.4839L32.0824 37.8897C33.8426 38.3392 35.5404 38.5639 37.162 38.5639C42.595 38.5639 47.2172 36.0568 50.7791 31.1199C51.0078 30.8039 50.9385 30.3685 50.6267 30.1367C50.3148 29.905 49.8852 29.9752 49.6565 30.2912H49.6634Z" fill="white"/>
<path d="M51.3979 24.325L49.7968 23.8262C51.7491 16.1779 49.4456 9.75577 43.034 5.1349C42.718 4.90628 42.2826 4.97556 42.0508 5.28731C41.8191 5.59907 41.8893 6.02859 42.2053 6.25721C48.3009 10.6495 50.3516 16.5728 48.329 23.8816L47.6619 25.96C47.6127 26.0985 47.5706 26.2371 47.5144 26.3756C47.5074 26.4034 47.5144 26.4311 47.5004 26.4588L46.7911 28.6688C46.7138 28.9043 46.9947 29.0983 47.1984 28.9459L51.6227 25.6067C52.1002 25.2464 51.9668 24.5051 51.3979 24.3319V24.325Z" fill="white"/>
<path d="M37.4141 24C36.0365 24 34.9141 25.1224 34.9141 26.5C34.9141 27.8775 36.0365 29 37.4141 29C38.7916 29 39.9141 27.8775 39.9141 26.5C39.9141 25.1224 38.7916 24 37.4141 24ZM37.4141 27.7245C36.738 27.7245 36.1896 27.176 36.1896 26.5C36.1896 25.824 36.738 25.2755 37.4141 25.2755C38.0901 25.2755 38.6386 25.824 38.6386 26.5C38.6386 27.176 38.0901 27.7245 37.4141 27.7245Z" fill="white"/>
</g>
<path d="M7.30758 59.175C8.25758 59.175 9.17758 58.945 10.0676 58.485L10.4126 59.415C9.96258 59.645 9.46758 59.825 8.92758 59.955C8.39758 60.085 7.84758 60.15 7.27758 60.15C6.44758 60.15 5.73758 60.04 5.14758 59.82C4.56758 59.59 4.09258 59.26 3.72258 58.83C3.35258 58.39 3.08258 57.85 2.91258 57.21C2.75258 56.56 2.67258 55.81 2.67258 54.96C2.67258 53.18 3.02758 51.87 3.73758 51.03C4.45758 50.19 5.53258 49.77 6.96258 49.77C7.74258 49.77 8.41258 49.885 8.97258 50.115C9.53258 50.345 9.99258 50.66 10.3526 51.06L9.67758 51.81C9.34758 51.46 8.96258 51.2 8.52258 51.03C8.09258 50.85 7.57258 50.76 6.96258 50.76C5.92258 50.76 5.13758 51.1 4.60758 51.78C4.08758 52.45 3.82758 53.51 3.82758 54.96C3.82758 56.4 4.09758 57.465 4.63758 58.155C5.17758 58.835 6.06758 59.175 7.30758 59.175ZM11.8257 56.37C11.8257 55.07 12.0857 54.115 12.6057 53.505C13.1357 52.895 13.9757 52.59 15.1257 52.59C16.2657 52.59 17.0957 52.895 17.6157 53.505C18.1457 54.115 18.4107 55.07 18.4107 56.37C18.4107 57.67 18.1457 58.625 17.6157 59.235C17.0857 59.845 16.2557 60.15 15.1257 60.15C13.9857 60.15 13.1507 59.845 12.6207 59.235C12.0907 58.625 11.8257 57.67 11.8257 56.37ZM12.9807 56.37C12.9807 57.36 13.1507 58.08 13.4907 58.53C13.8307 58.97 14.3757 59.19 15.1257 59.19C15.8757 59.19 16.4207 58.97 16.7607 58.53C17.1007 58.08 17.2707 57.36 17.2707 56.37C17.2707 55.4 17.1007 54.69 16.7607 54.24C16.4207 53.79 15.8757 53.565 15.1257 53.565C14.3757 53.565 13.8307 53.79 13.4907 54.24C13.1507 54.69 12.9807 55.4 12.9807 56.37ZM22.1791 60.105C22.1291 60.125 22.0591 60.135 21.9691 60.135C21.8791 60.145 21.8041 60.15 21.7441 60.15C21.2341 60.15 20.8641 60 20.6341 59.7C20.4141 59.39 20.3041 58.92 20.3041 58.29V49.59L21.4441 49.41V58.125C21.4441 58.355 21.4541 58.54 21.4741 58.68C21.4941 58.82 21.5291 58.93 21.5791 59.01C21.6391 59.09 21.7141 59.145 21.8041 59.175C21.9041 59.195 22.0291 59.205 22.1791 59.205V60.105ZM25.812 60.105C25.762 60.125 25.692 60.135 25.602 60.135C25.512 60.145 25.437 60.15 25.377 60.15C24.867 60.15 24.497 60 24.267 59.7C24.047 59.39 23.937 58.92 23.937 58.29V49.59L25.077 49.41V58.125C25.077 58.355 25.087 58.54 25.107 58.68C25.127 58.82 25.162 58.93 25.212 59.01C25.272 59.09 25.347 59.145 25.437 59.175C25.537 59.195 25.662 59.205 25.812 59.205V60.105ZM30.3298 60.15C29.1498 60.15 28.3098 59.845 27.8098 59.235C27.3198 58.615 27.0748 57.66 27.0748 56.37C27.0748 55.07 27.3248 54.115 27.8248 53.505C28.3248 52.895 29.0898 52.59 30.1198 52.59C31.1498 52.59 31.9148 52.89 32.4148 53.49C32.9148 54.08 33.1648 55.02 33.1648 56.31V56.79H28.2448C28.2848 57.65 28.4698 58.265 28.7998 58.635C29.1298 59.005 29.6448 59.19 30.3448 59.19C30.7648 59.19 31.1748 59.13 31.5748 59.01C31.9848 58.88 32.3648 58.705 32.7148 58.485L33.0898 59.4C32.7098 59.63 32.2798 59.815 31.7998 59.955C31.3298 60.085 30.8398 60.15 30.3298 60.15ZM31.9948 55.86C31.9448 55.08 31.7698 54.505 31.4698 54.135C31.1698 53.755 30.7198 53.565 30.1198 53.565C29.5198 53.565 29.0698 53.755 28.7698 54.135C28.4698 54.505 28.2948 55.08 28.2448 55.86H31.9948ZM38.0248 59.19C38.7248 59.19 39.3498 59.015 39.8998 58.665L40.2298 59.58C39.9398 59.75 39.6048 59.89 39.2248 60C38.8548 60.1 38.4548 60.15 38.0248 60.15C36.8348 60.15 35.9648 59.855 35.4148 59.265C34.8648 58.665 34.5898 57.7 34.5898 56.37C34.5898 55.07 34.8548 54.115 35.3848 53.505C35.9148 52.895 36.7448 52.59 37.8748 52.59C38.8448 52.59 39.6398 52.885 40.2598 53.475L39.6298 54.255C39.4098 54.035 39.1498 53.865 38.8498 53.745C38.5598 53.615 38.2448 53.55 37.9048 53.55C37.1848 53.55 36.6398 53.77 36.2698 54.21C35.9098 54.64 35.7298 55.36 35.7298 56.37C35.7298 57.38 35.9198 58.105 36.2998 58.545C36.6798 58.975 37.2548 59.19 38.0248 59.19ZM43.3952 53.715V57.3C43.3952 57.63 43.4102 57.915 43.4402 58.155C43.4702 58.395 43.5302 58.595 43.6202 58.755C43.7202 58.905 43.8552 59.015 44.0252 59.085C44.2052 59.155 44.4452 59.19 44.7452 59.19C44.9652 59.19 45.1802 59.165 45.3902 59.115C45.6102 59.065 45.8202 59.005 46.0202 58.935L46.2452 59.805C45.6452 60.035 45.0402 60.15 44.4302 60.15C43.9902 60.15 43.6252 60.09 43.3352 59.97C43.0552 59.85 42.8302 59.685 42.6602 59.475C42.5002 59.255 42.3902 58.995 42.3302 58.695C42.2702 58.385 42.2402 58.045 42.2402 57.675V53.715H41.0552V52.74H42.2402V51.21L43.3952 51V52.74H45.9602V53.715H43.3952ZM47.785 52.74H48.925V60H47.785V52.74ZM47.77 49.62H48.925V51.12H47.77V49.62ZM50.8199 56.37C50.8199 55.07 51.0799 54.115 51.5999 53.505C52.1299 52.895 52.9699 52.59 54.1199 52.59C55.2599 52.59 56.0899 52.895 56.6099 53.505C57.1399 54.115 57.4049 55.07 57.4049 56.37C57.4049 57.67 57.1399 58.625 56.6099 59.235C56.0799 59.845 55.2499 60.15 54.1199 60.15C52.9799 60.15 52.1449 59.845 51.6149 59.235C51.0849 58.625 50.8199 57.67 50.8199 56.37ZM51.9749 56.37C51.9749 57.36 52.1449 58.08 52.4849 58.53C52.8249 58.97 53.3699 59.19 54.1199 59.19C54.8699 59.19 55.4149 58.97 55.7549 58.53C56.0949 58.08 56.2649 57.36 56.2649 56.37C56.2649 55.4 56.0949 54.69 55.7549 54.24C55.4149 53.79 54.8699 53.565 54.1199 53.565C53.3699 53.565 52.8249 53.79 52.4849 54.24C52.1449 54.69 51.9749 55.4 51.9749 56.37ZM60.1983 53.475C60.5383 53.205 60.9133 52.99 61.3233 52.83C61.7333 52.67 62.1633 52.59 62.6133 52.59C63.4533 52.59 64.0533 52.795 64.4133 53.205C64.7833 53.605 64.9683 54.26 64.9683 55.17V60H63.8283V55.485C63.8283 54.765 63.7083 54.265 63.4683 53.985C63.2383 53.705 62.8783 53.565 62.3883 53.565C61.6883 53.565 60.9883 53.82 60.2883 54.33V60H59.1483V52.74H60.0033L60.1983 53.475Z" fill="white"/>
<defs>
<clipPath id="clip0_4720_1654">
<rect width="44" height="44" fill="white" transform="translate(11.9141)"/>
</clipPath>
</defs>
</svg>
