<svg width="138" height="146" viewBox="0 0 138 146" fill="none" xmlns="http://www.w3.org/2000/svg">
<g clip-path="url(#clip0_5420_553)">
<path d="M83.3383 20.3525H27.5129C22.8678 20.3525 19.1055 24.1148 19.1055 28.7599V77.4805C19.1055 82.1255 22.8678 85.8878 27.5129 85.8878H109.338C113.983 85.8878 117.746 82.1255 117.746 77.4805V40.8875" stroke="white" stroke-width="4.2037" stroke-linecap="round" stroke-linejoin="round"/>
<path d="M61.2681 85.8877V94.8625C61.2681 99.3395 57.6529 102.955 53.1759 102.955H46.6602" stroke="white" stroke-width="4.2037" stroke-miterlimit="10" stroke-linecap="round"/>
<path d="M75.6016 85.8877V94.8625C75.6016 99.3395 79.2168 102.955 83.6937 102.955H90.2095" stroke="white" stroke-width="4.2037" stroke-miterlimit="10" stroke-linecap="round"/>
<path d="M49.9609 102.975H86.5963" stroke="white" stroke-width="4.2037" stroke-miterlimit="10" stroke-linecap="round"/>
<path d="M51.4328 35.003L51.727 36.9577L52.0843 39.3118L54.2703 40.2366C55.3632 40.699 56.3932 41.2875 57.339 42.0231L59.2307 43.4524L61.4376 42.5696L63.2872 41.834L65.8725 46.2899L64.3172 47.5299L62.4675 49.0012L62.7618 51.3553C62.8459 51.9858 62.8879 52.5533 62.8879 53.1418C62.8879 53.7304 62.8459 54.2979 62.7618 54.9284L62.4675 57.2825L64.3172 58.7538L65.8725 59.9938L63.2872 64.4497L61.4376 63.7141L59.2307 62.8313L57.339 64.2606C56.3932 64.9752 55.3632 65.5847 54.2703 66.0471L52.0843 66.9719L51.727 69.326L51.4328 71.2807H46.2832L45.9889 69.326L45.6316 66.9719L43.4457 66.0471C42.3527 65.5847 41.3228 64.9962 40.377 64.2606L38.4853 62.8313L36.2784 63.7141L34.4287 64.4497L31.8434 59.9938L33.3988 58.7538L35.2484 57.2825L34.9542 54.9284C34.8701 54.2979 34.8281 53.7304 34.8281 53.1418C34.8281 52.5533 34.8701 51.9858 34.9542 51.3553L35.2484 49.0012L33.3988 47.5299L31.8434 46.2899L34.4287 41.834L36.2784 42.5696L38.4853 43.4524L40.377 42.0231C41.3228 41.3085 42.3527 40.699 43.4457 40.2366L45.6316 39.3118L45.9889 36.9577L46.2832 35.003H51.4328ZM52.1054 30.7993H45.6316C43.9291 30.7993 42.4788 32.0394 42.2266 33.7209L41.8483 36.3271C40.419 36.9367 39.0738 37.7144 37.8547 38.6392L35.3956 37.6723C34.9752 37.5042 34.5548 37.4411 34.1345 37.4411C32.9364 37.4411 31.7804 38.0717 31.1498 39.1646L27.913 44.7765C27.0512 46.2478 27.4085 48.1185 28.7537 49.1904L30.8345 50.8298C30.7294 51.5865 30.6874 52.3642 30.6874 53.1418C30.6874 53.9195 30.7505 54.6972 30.8345 55.4539L28.7537 57.0933C27.4295 58.1442 27.0722 60.0359 27.913 61.5072L31.1498 67.1191C31.7804 68.212 32.9364 68.8426 34.1345 68.8426C34.5548 68.8426 34.9752 68.7585 35.3956 68.6114L37.8547 67.6445C39.0738 68.5693 40.419 69.347 41.8483 69.9565L42.2266 72.5628C42.4788 74.2443 43.9291 75.4844 45.6316 75.4844H52.1054C53.8079 75.4844 55.2581 74.2443 55.5104 72.5628L55.8887 69.9565C57.318 69.347 58.6632 68.5693 59.8822 67.6445L62.3414 68.6114C62.7618 68.7795 63.1822 68.8426 63.6025 68.8426C64.8006 68.8426 65.9566 68.212 66.5872 67.1191L69.824 61.5072C70.6858 60.0359 70.3285 58.1652 68.9833 57.0933L66.9024 55.4539C67.0075 54.6972 67.0496 53.9195 67.0496 53.1418C67.0496 52.3642 66.9865 51.5865 66.9024 50.8298L68.9833 49.1904C70.3075 48.1395 70.6648 46.2478 69.824 44.7765L66.5872 39.1646C65.9566 38.0717 64.8006 37.4411 63.6025 37.4411C63.1822 37.4411 62.7618 37.5252 62.3414 37.6723L59.8822 38.6392C58.6632 37.7144 57.318 36.9367 55.8887 36.3271L55.5104 33.7209C55.2581 32.0394 53.8079 30.7993 52.1054 30.7993Z" fill="white"/>
<path d="M48.8709 47.887C51.7715 47.887 54.1046 50.2411 54.1046 53.1206C54.1046 56.0001 51.7505 58.3542 48.8709 58.3542C45.9914 58.3542 43.6373 56.0001 43.6373 53.1206C43.6373 50.2411 45.9914 47.887 48.8709 47.887ZM48.8709 43.6833C43.6583 43.6833 39.4336 47.908 39.4336 53.1206C39.4336 58.3332 43.6583 62.5578 48.8709 62.5578C54.0836 62.5578 58.3083 58.3332 58.3083 53.1206C58.3083 47.908 54.0836 43.6833 48.8709 43.6833Z" fill="white"/>
<path d="M88.6939 65.7739C88.6939 65.7739 82.7456 57.9551 83.6284 46.2268C84.5743 33.4687 100.401 25.0193 100.401 25.0193" stroke="white" stroke-width="4.2037" stroke-miterlimit="10" stroke-linecap="round"/>
<path d="M83.6279 46.2265C83.6279 46.2265 98.9504 49.5684 110.658 36.8523C120.221 26.4482 119.17 14.6779 118.477 10.7475C118.33 9.90672 117.678 9.29719 116.816 9.21311C112.276 8.72969 97.6893 8.43543 86.7596 18.3771C79.6554 24.8298 78.5414 31.7238 79.256 37.0835" stroke="white" stroke-width="4.2037" stroke-miterlimit="10" stroke-linecap="round"/>
</g>
<path d="M15.3137 132.936C15.3137 135.688 14.6257 137.72 13.2497 139.032C11.8737 140.344 9.86569 141 7.22569 141H2.37769V124.872H7.22569C9.88169 124.872 11.8897 125.536 13.2497 126.864C14.6257 128.192 15.3137 130.216 15.3137 132.936ZM4.89769 126.96V138.936H7.22569C9.01769 138.936 10.3937 138.464 11.3537 137.52C12.3137 136.56 12.7937 135.032 12.7937 132.936C12.7937 130.856 12.3137 129.344 11.3537 128.4C10.3937 127.44 9.01769 126.96 7.22569 126.96H4.89769ZM22.7602 141.24C20.7762 141.24 19.3442 140.752 18.4642 139.776C17.6002 138.8 17.1682 137.272 17.1682 135.192C17.1682 133.112 17.5842 131.584 18.4162 130.608C19.2642 129.632 20.5602 129.144 22.3042 129.144C24.0162 129.144 25.2962 129.632 26.1442 130.608C26.9922 131.568 27.4162 133.088 27.4162 135.168V136.008H19.7122C19.7922 137.128 20.0642 137.944 20.5282 138.456C21.0082 138.968 21.7602 139.224 22.7842 139.224C23.4562 139.224 24.1042 139.128 24.7282 138.936C25.3522 138.744 25.9682 138.464 26.5762 138.096L27.2962 139.992C26.6882 140.36 25.9922 140.664 25.2082 140.904C24.4402 141.128 23.6242 141.24 22.7602 141.24ZM24.8482 134.088C24.7682 133.128 24.5282 132.408 24.1282 131.928C23.7282 131.432 23.1202 131.184 22.3042 131.184C20.7042 131.184 19.8482 132.152 19.7362 134.088H24.8482ZM32.9769 141L28.5849 129.384H31.1529L33.0969 134.952L34.2249 138.144H34.2729L35.4249 134.952L37.3449 129.384H39.9129L35.5209 141H32.9769ZM46.4265 141.24C44.4425 141.24 43.0105 140.752 42.1305 139.776C41.2665 138.8 40.8345 137.272 40.8345 135.192C40.8345 133.112 41.2505 131.584 42.0825 130.608C42.9305 129.632 44.2265 129.144 45.9705 129.144C47.6825 129.144 48.9625 129.632 49.8105 130.608C50.6585 131.568 51.0825 133.088 51.0825 135.168V136.008H43.3785C43.4585 137.128 43.7305 137.944 44.1945 138.456C44.6745 138.968 45.4265 139.224 46.4505 139.224C47.1225 139.224 47.7705 139.128 48.3945 138.936C49.0185 138.744 49.6345 138.464 50.2425 138.096L50.9625 139.992C50.3545 140.36 49.6585 140.664 48.8745 140.904C48.1065 141.128 47.2905 141.24 46.4265 141.24ZM48.5145 134.088C48.4345 133.128 48.1945 132.408 47.7945 131.928C47.3945 131.432 46.7865 131.184 45.9705 131.184C44.3705 131.184 43.5145 132.152 43.4025 134.088H48.5145ZM56.2592 124.056V137.88C56.2592 138.424 56.3312 138.776 56.4752 138.936C56.6192 139.08 56.9072 139.152 57.3392 139.152V141.168C57.1952 141.2 57.0752 141.216 56.9792 141.216C56.8832 141.232 56.7392 141.24 56.5472 141.24C55.6192 141.24 54.9232 140.984 54.4592 140.472C54.0112 139.944 53.7872 139.08 53.7872 137.88V124.344L56.2592 124.056ZM59.0633 135.192C59.0633 133.08 59.5033 131.544 60.3833 130.584C61.2793 129.624 62.6713 129.144 64.5593 129.144C66.4473 129.144 67.8313 129.632 68.7113 130.608C69.6073 131.584 70.0553 133.112 70.0553 135.192C70.0553 137.304 69.6073 138.84 68.7113 139.8C67.8313 140.76 66.4473 141.24 64.5593 141.24C62.6713 141.24 61.2793 140.76 60.3833 139.8C59.5033 138.84 59.0633 137.304 59.0633 135.192ZM61.5353 135.192C61.5353 136.552 61.7673 137.568 62.2313 138.24C62.7113 138.896 63.4873 139.224 64.5593 139.224C65.6313 139.224 66.3993 138.896 66.8633 138.24C67.3273 137.568 67.5593 136.552 67.5593 135.192C67.5593 133.832 67.3273 132.824 66.8633 132.168C66.3993 131.512 65.6313 131.184 64.5593 131.184C63.4873 131.184 62.7113 131.512 62.2313 132.168C61.7673 132.824 61.5353 133.832 61.5353 135.192ZM74.4214 129.384L74.7334 130.296C75.5334 129.528 76.5494 129.144 77.7814 129.144C79.4294 129.144 80.6774 129.632 81.5254 130.608C82.3734 131.584 82.7974 133.112 82.7974 135.192C82.7974 137.272 82.3894 138.8 81.5734 139.776C80.7574 140.752 79.6294 141.24 78.1894 141.24C77.5974 141.24 77.0134 141.144 76.4374 140.952C75.8614 140.76 75.3894 140.512 75.0214 140.208V145.992H72.5254V129.384H74.4214ZM77.4694 131.16C76.9894 131.16 76.5414 131.248 76.1254 131.424C75.7094 131.584 75.3414 131.808 75.0214 132.096V138.288C75.3414 138.592 75.7094 138.832 76.1254 139.008C76.5414 139.168 76.9814 139.248 77.4454 139.248C78.4054 139.248 79.1174 138.936 79.5814 138.312C80.0614 137.688 80.3014 136.648 80.3014 135.192C80.3014 133.736 80.0694 132.704 79.6054 132.096C79.1414 131.472 78.4294 131.16 77.4694 131.16ZM87.4566 130.296C88.0166 129.928 88.5766 129.648 89.1366 129.456C89.7126 129.248 90.3206 129.144 90.9606 129.144C91.7286 129.144 92.3526 129.256 92.8326 129.48C93.3286 129.688 93.7126 130.048 93.9846 130.56C94.5286 130.128 95.1206 129.784 95.7606 129.528C96.4006 129.272 97.0806 129.144 97.8006 129.144C99.1446 129.144 100.081 129.48 100.609 130.152C101.137 130.808 101.401 131.848 101.401 133.272V141H98.9046V133.8C98.9046 132.824 98.7766 132.144 98.5206 131.76C98.2646 131.36 97.8326 131.16 97.2246 131.16C96.7926 131.16 96.3446 131.248 95.8806 131.424C95.4326 131.6 94.9766 131.848 94.5126 132.168C94.5606 132.488 94.5846 132.856 94.5846 133.272V141H92.1126V133.8C92.1126 132.824 91.9926 132.144 91.7526 131.76C91.5126 131.36 91.0646 131.16 90.4086 131.16C89.9606 131.16 89.5206 131.24 89.0886 131.4C88.6726 131.56 88.2326 131.8 87.7686 132.12V141H85.2726V129.384H87.1446L87.4566 130.296ZM109.319 141.24C107.335 141.24 105.903 140.752 105.023 139.776C104.159 138.8 103.727 137.272 103.727 135.192C103.727 133.112 104.143 131.584 104.975 130.608C105.823 129.632 107.119 129.144 108.863 129.144C110.575 129.144 111.855 129.632 112.703 130.608C113.551 131.568 113.975 133.088 113.975 135.168V136.008H106.271C106.351 137.128 106.623 137.944 107.087 138.456C107.567 138.968 108.319 139.224 109.343 139.224C110.015 139.224 110.663 139.128 111.287 138.936C111.911 138.744 112.527 138.464 113.135 138.096L113.855 139.992C113.247 140.36 112.551 140.664 111.767 140.904C110.999 141.128 110.183 141.24 109.319 141.24ZM111.407 134.088C111.327 133.128 111.087 132.408 110.687 131.928C110.287 131.432 109.679 131.184 108.863 131.184C107.263 131.184 106.407 132.152 106.295 134.088H111.407ZM118.647 130.44C119.159 130.04 119.727 129.728 120.351 129.504C120.975 129.264 121.647 129.144 122.367 129.144C123.727 129.144 124.711 129.472 125.319 130.128C125.943 130.784 126.255 131.832 126.255 133.272V141H123.759V133.8C123.759 132.84 123.591 132.16 123.255 131.76C122.935 131.36 122.455 131.16 121.815 131.16C121.303 131.16 120.807 131.248 120.327 131.424C119.863 131.584 119.391 131.824 118.911 132.144V141H116.415V129.384H118.287L118.647 130.44ZM132.404 131.424V136.728C132.404 137.656 132.532 138.304 132.788 138.672C133.044 139.04 133.54 139.224 134.276 139.224C134.644 139.224 135.012 139.168 135.38 139.056C135.764 138.944 136.124 138.816 136.46 138.672L136.94 140.52C136.428 140.76 135.884 140.936 135.308 141.048C134.732 141.176 134.164 141.24 133.604 141.24C132.9 141.24 132.308 141.152 131.828 140.976C131.364 140.8 130.988 140.544 130.7 140.208C130.428 139.856 130.228 139.432 130.1 138.936C129.988 138.44 129.932 137.864 129.932 137.208V131.424H128.036V129.384H129.932V127.056L132.404 126.6V129.384H136.508V131.424H132.404Z" fill="white"/>
<defs>
<clipPath id="clip0_5420_553">
<rect width="104" height="98.1558" fill="white" transform="translate(17 6.92212)"/>
</clipPath>
</defs>
</svg>
