<svg width="130" height="131" viewBox="0 0 130 131" fill="none" xmlns="http://www.w3.org/2000/svg">
<path d="M55.6868 88.735H58.6268V100.411C58.6268 102.987 58.0388 104.872 56.8628 106.067C55.7055 107.243 53.8668 107.831 51.3468 107.831C48.8268 107.831 46.9788 107.243 45.8028 106.067C44.6268 104.872 44.0388 102.987 44.0388 100.411V88.735H46.9788V100.859C46.9788 102.446 47.3428 103.603 48.0708 104.331C48.7988 105.059 49.8908 105.423 51.3468 105.423C52.8028 105.423 53.8855 105.059 54.5948 104.331C55.3228 103.603 55.6868 102.446 55.6868 100.859V88.735ZM66.8547 99.151C67.2653 99.319 67.6853 99.4684 68.1147 99.599C68.544 99.7297 69.1133 99.9257 69.8227 100.187C70.7747 100.523 71.4747 100.99 71.9227 101.587C72.3707 102.166 72.5947 102.931 72.5947 103.883C72.5947 105.19 72.156 106.179 71.2787 106.851C70.4013 107.504 68.9827 107.831 67.0227 107.831C66.0147 107.831 65.0813 107.738 64.2227 107.551C63.3827 107.346 62.5987 107.056 61.8707 106.683L62.7947 104.471C63.3547 104.788 63.9893 105.04 64.6987 105.227C65.408 105.395 66.1827 105.479 67.0227 105.479C67.9747 105.479 68.6373 105.348 69.0107 105.087C69.4027 104.807 69.5987 104.424 69.5987 103.939C69.5987 103.528 69.4867 103.202 69.2627 102.959C69.0387 102.698 68.6467 102.464 68.0867 102.259C67.6013 102.072 67.0787 101.895 66.5187 101.727C65.9587 101.559 65.4453 101.391 64.9787 101.223C64.008 100.85 63.308 100.383 62.8787 99.823C62.4493 99.263 62.2347 98.563 62.2347 97.723C62.2347 96.435 62.664 95.4457 63.5227 94.755C64.4 94.0644 65.8 93.719 67.7227 93.719C68.6933 93.719 69.552 93.8217 70.2987 94.027C71.0453 94.2137 71.6893 94.475 72.2307 94.811L71.3067 96.995C70.8213 96.6777 70.3173 96.4444 69.7947 96.295C69.272 96.1457 68.6747 96.071 68.0027 96.071C66.9947 96.071 66.276 96.2017 65.8467 96.463C65.436 96.7057 65.2307 97.0417 65.2307 97.471C65.2307 97.8257 65.3333 98.1337 65.5387 98.395C65.744 98.6377 66.1827 98.8897 66.8547 99.151ZM81.4337 107.831C79.119 107.831 77.4484 107.262 76.4217 106.123C75.4137 104.984 74.9097 103.202 74.9097 100.775C74.9097 98.3484 75.395 96.5657 76.3657 95.427C77.355 94.2884 78.867 93.719 80.9017 93.719C82.899 93.719 84.3924 94.2884 85.3817 95.427C86.371 96.547 86.8657 98.3204 86.8657 100.747V101.727H77.8777C77.971 103.034 78.2884 103.986 78.8297 104.583C79.3897 105.18 80.267 105.479 81.4617 105.479C82.2457 105.479 83.0017 105.367 83.7297 105.143C84.4577 104.919 85.1764 104.592 85.8857 104.163L86.7257 106.375C86.0164 106.804 85.2044 107.159 84.2897 107.439C83.3937 107.7 82.4417 107.831 81.4337 107.831ZM83.8697 99.487C83.7764 98.367 83.4964 97.527 83.0297 96.967C82.563 96.3884 81.8537 96.099 80.9017 96.099C79.035 96.099 78.0364 97.2284 77.9057 99.487H83.8697Z" fill="#7E7C77"/>
<path d="M51.0966 35.2743C52.554 26.1079 60.5538 19.9308 69.3647 20.033C77.498 20.125 85.6229 25.7603 87.1824 35.3459C88.1978 35.3459 89.2027 35.3275 90.2056 35.348C98.0198 35.5095 104.725 41.3615 105.763 48.9188C106.956 57.6109 101.07 65.4319 92.253 66.8346C91.3835 66.9737 90.4891 67.0207 89.6051 67.0207C76.491 67.033 63.3768 67.035 50.2627 67.0268C40.6762 67.0207 33.3561 59.3673 33.9503 49.9963C34.4173 42.6374 40.5032 36.3396 47.9943 35.485C48.9992 35.3704 50.0167 35.3459 51.0966 35.2743Z" stroke="#7E7C77" stroke-width="2" stroke-miterlimit="10"/>
<path d="M66.6501 53.4503C65.9571 56.4323 63.3951 58.3223 60.2871 58.3223C56.4231 58.3223 53.4201 55.3823 53.4201 50.9933C53.4201 46.6463 56.4231 43.6853 60.2871 43.6853C63.3741 43.6853 65.9571 45.5753 66.6501 48.5363H64.8231C64.3191 46.3523 62.7231 45.4493 60.2871 45.4493C57.0951 45.4493 55.3731 47.0453 55.3731 50.9933C55.3731 54.9833 57.0951 56.5793 60.2871 56.5793C62.7231 56.5793 64.3191 55.6343 64.8231 53.4503H66.6501ZM74.6811 58.3223C70.8171 58.3223 67.8141 55.3823 67.8141 50.9933C67.8141 46.6463 70.8171 43.6853 74.6811 43.6853C78.5451 43.6853 81.5481 46.6463 81.5481 50.9933C81.5481 55.3823 78.5451 58.3223 74.6811 58.3223ZM69.7671 50.9933C69.7671 54.9833 71.4891 56.5793 74.6811 56.5793C77.8941 56.5793 79.5951 54.9833 79.5951 50.9933C79.5951 47.0453 77.8941 45.4493 74.6811 45.4493C71.4891 45.4493 69.7671 47.0453 69.7671 50.9933ZM82.4803 58.0703V57.2703L84.7203 54.8003C85.3703 54.0803 85.7503 53.7303 85.7503 53.0903C85.7503 52.4903 85.4203 52.2203 84.6603 52.2203C83.8303 52.2203 83.4703 52.5203 83.4303 53.4303H82.3003C82.3803 52.2103 83.3303 51.2103 84.6603 51.2103C86.0203 51.2103 86.9203 52.0103 86.9203 53.0803C86.9203 53.8603 86.5503 54.3403 85.8203 55.1403L84.0303 57.1103H87.0303V58.0703H82.4803Z" fill="#7E7C77"/>
</svg>
