<svg width="131" height="131" viewBox="0 0 131 131" fill="none" xmlns="http://www.w3.org/2000/svg">
<path d="M107.667 27.6424H101.189C97.6335 20.883 89.0666 20.0643 89.0666 20.0643C89.0666 20.0643 63.147 20.0311 58.7596 20.0643C54.3722 20.0975 50.6085 20.883 48.5187 23.4274C46.4289 25.9719 42.8731 27.222 42.8731 27.222H33.8904C24.481 26.8127 22.1834 42.8649 22.1834 42.8649C22.1834 42.8649 19.47 57.656 19.6779 60.7204C19.8857 63.7848 26.1665 63.0496 26.1665 63.0496" stroke="#75C66B" stroke-width="2" stroke-linecap="round" stroke-linejoin="round"/>
<path d="M105.667 53.0496H93.0137V63.0496H85.6665" stroke="#75C66B" stroke-width="2" stroke-linecap="round" stroke-linejoin="round"/>
<path d="M85.6665 60.0496C85.6665 63.9157 82.5327 67.0496 78.6665 67.0496C74.8004 67.0496 71.6665 63.9157 71.6665 60.0496C71.6665 56.1834 74.8004 53.0496 78.6665 53.0496C82.5327 53.0496 85.6665 56.1834 85.6665 60.0496Z" stroke="#75C66B" stroke-width="2" stroke-linecap="round" stroke-linejoin="round"/>
<path d="M39.6665 60.0496C39.6665 63.9157 36.5327 67.0496 32.6665 67.0496C28.8004 67.0496 25.6665 63.9157 25.6665 60.0496C25.6665 56.1834 28.8004 53.0496 32.6665 53.0496C36.5327 53.0496 39.6665 56.1834 39.6665 60.0496Z" stroke="#75C66B" stroke-width="2" stroke-linecap="round" stroke-linejoin="round"/>
<path d="M71.6665 63.0496H39.6665" stroke="#75C66B" stroke-width="2" stroke-linecap="round" stroke-linejoin="round"/>
<path d="M48.6665 23.0496V62.0496" stroke="#75C66B" stroke-width="2" stroke-linecap="round" stroke-linejoin="round"/>
<path d="M26.6665 46.0484H35.7383C35.7383 46.0484 38.6665 46.1909 38.6665 43.2542V34.0496" stroke="#75C66B" stroke-width="2" stroke-linecap="round" stroke-linejoin="round"/>
<path d="M85.6665 46.0496H110.667" stroke="#75C66B" stroke-width="2" stroke-linecap="round" stroke-linejoin="round"/>
<path d="M87.6665 36.0496H107.667" stroke="#75C66B" stroke-width="2" stroke-linecap="round" stroke-linejoin="round"/>
<path d="M32.5588 99.3176C32.5588 98.9442 32.5121 98.6176 32.4188 98.3376C32.3254 98.0576 32.1481 97.7962 31.8868 97.5536C31.6254 97.3109 31.2614 97.0776 30.7948 96.8536C30.3281 96.6109 29.7308 96.3589 29.0028 96.0976C27.7708 95.6869 26.7348 95.2856 25.8948 94.8936C25.0548 94.4829 24.3734 94.0442 23.8508 93.5776C23.3281 93.1109 22.9548 92.5976 22.7308 92.0376C22.5068 91.4589 22.3948 90.7962 22.3948 90.0496C22.3948 88.4816 22.9548 87.2402 24.0748 86.3256C25.2134 85.4109 26.9401 84.9536 29.2548 84.9536C30.3188 84.9536 31.2988 85.0936 32.1948 85.3736C33.0908 85.6349 33.9401 86.0082 34.7428 86.4936L33.7068 88.7336C33.0161 88.3042 32.2974 87.9682 31.5508 87.7256C30.8041 87.4829 30.0388 87.3616 29.2548 87.3616C27.8921 87.3616 26.8934 87.5856 26.2588 88.0336C25.6428 88.4629 25.3348 89.0696 25.3348 89.8536C25.3348 90.2456 25.3908 90.6002 25.5028 90.9176C25.6334 91.2162 25.8574 91.5056 26.1748 91.7856C26.4921 92.0656 26.9214 92.3362 27.4628 92.5976C28.0228 92.8589 28.7414 93.1296 29.6188 93.4096C30.6641 93.7456 31.5601 94.0909 32.3068 94.4456C33.0534 94.8002 33.6601 95.2016 34.1268 95.6496C34.6121 96.0789 34.9574 96.5829 35.1628 97.1616C35.3868 97.7216 35.4988 98.3842 35.4988 99.1496C35.4988 100.792 34.9201 102.071 33.7628 102.986C32.6054 103.882 30.8134 104.33 28.3868 104.33C27.1361 104.33 25.9694 104.19 24.8868 103.91C23.8228 103.63 22.8614 103.247 22.0028 102.762L22.9828 100.522C23.8788 100.988 24.7561 101.343 25.6148 101.586C26.4921 101.828 27.3788 101.95 28.2748 101.95C29.6934 101.95 30.7574 101.726 31.4668 101.278C32.1948 100.811 32.5588 100.158 32.5588 99.3176ZM44.3542 104.33C42.0395 104.33 40.3689 103.76 39.3422 102.622C38.3342 101.483 37.8302 99.7002 37.8302 97.2736C37.8302 94.8469 38.3155 93.0642 39.2862 91.9256C40.2755 90.7869 41.7875 90.2176 43.8222 90.2176C45.8195 90.2176 47.3129 90.7869 48.3022 91.9256C49.2915 93.0456 49.7862 94.8189 49.7862 97.2456V98.2256H40.7982C40.8915 99.5322 41.2089 100.484 41.7502 101.082C42.3102 101.679 43.1875 101.978 44.3822 101.978C45.1662 101.978 45.9222 101.866 46.6502 101.642C47.3782 101.418 48.0969 101.091 48.8062 100.662L49.6462 102.874C48.9369 103.303 48.1249 103.658 47.2102 103.938C46.3142 104.199 45.3622 104.33 44.3542 104.33ZM46.7902 95.9856C46.6969 94.8656 46.4169 94.0256 45.9502 93.4656C45.4835 92.8869 44.7742 92.5976 43.8222 92.5976C41.9555 92.5976 40.9569 93.7269 40.8262 95.9856H46.7902ZM54.8737 90.4976L55.1537 92.1216C56.311 90.8522 57.683 90.2176 59.2697 90.2176C59.9043 90.2176 60.5297 90.3482 61.1457 90.6096V93.1016C60.8283 92.9522 60.5017 92.8402 60.1657 92.7656C59.8483 92.6722 59.503 92.6256 59.1297 92.6256C58.4577 92.6256 57.8043 92.7842 57.1697 93.1016C56.535 93.4189 55.9937 93.8202 55.5457 94.3056V104.05H52.6337V90.4976H54.8737ZM67.5907 104.05L62.4667 90.4976H65.4627L67.7307 96.9936L69.0467 100.718H69.1027L70.4467 96.9936L72.6867 90.4976H75.6827L70.5587 104.05H67.5907ZM77.982 90.4976H80.894V104.05H77.982V90.4976ZM77.982 84.6736H80.894V87.7256H77.982V84.6736ZM90.8027 101.95C91.4934 101.95 92.1374 101.866 92.7347 101.698C93.332 101.511 93.92 101.259 94.4987 100.942L95.1987 103.182C94.62 103.536 93.9574 103.816 93.2107 104.022C92.464 104.227 91.6614 104.33 90.8027 104.33C88.4694 104.33 86.7614 103.77 85.6787 102.65C84.6147 101.53 84.0827 99.7376 84.0827 97.2736C84.0827 94.8469 84.6054 93.0642 85.6507 91.9256C86.696 90.7869 88.32 90.2176 90.5227 90.2176C92.5014 90.2176 94.0974 90.8056 95.3107 91.9816L93.7987 93.9416C92.9027 93.0456 91.8387 92.5976 90.6067 92.5976C89.4307 92.5976 88.5347 92.9522 87.9187 93.6616C87.3027 94.3709 86.9947 95.5749 86.9947 97.2736C86.9947 98.9536 87.312 100.158 87.9467 100.886C88.5814 101.595 89.5334 101.95 90.8027 101.95ZM102.963 104.33C100.648 104.33 98.9775 103.76 97.9508 102.622C96.9428 101.483 96.4388 99.7002 96.4388 97.2736C96.4388 94.8469 96.9241 93.0642 97.8948 91.9256C98.8841 90.7869 100.396 90.2176 102.431 90.2176C104.428 90.2176 105.921 90.7869 106.911 91.9256C107.9 93.0456 108.395 94.8189 108.395 97.2456V98.2256H99.4068C99.5001 99.5322 99.8175 100.484 100.359 101.082C100.919 101.679 101.796 101.978 102.991 101.978C103.775 101.978 104.531 101.866 105.259 101.642C105.987 101.418 106.705 101.091 107.415 100.662L108.255 102.874C107.545 103.303 106.733 103.658 105.819 103.938C104.923 104.199 103.971 104.33 102.963 104.33ZM105.399 95.9856C105.305 94.8656 105.025 94.0256 104.559 93.4656C104.092 92.8869 103.383 92.5976 102.431 92.5976C100.564 92.5976 99.5655 93.7269 99.4348 95.9856H105.399Z" fill="#75C66B"/>
</svg>
