<svg width="112" height="146" viewBox="0 0 112 146" fill="none" xmlns="http://www.w3.org/2000/svg">
<g clip-path="url(#clip0_5420_582)">
<path d="M84.3634 81.8784H78.5561H72.7488C71.5086 81.8784 70.7802 83.5518 71.4889 84.7723L78.1033 96.0921C78.2214 96.289 78.3789 96.3481 78.5561 96.3481C78.7136 96.3481 78.8908 96.3087 79.0089 96.0921L85.6233 84.7723C86.332 83.5518 85.6233 81.8784 84.3634 81.8784Z" fill="white"/>
<path d="M91.2491 82.39C99.8715 79.2008 106.033 70.9127 106.033 61.1875C106.033 48.7062 95.9147 38.5873 83.4339 38.5873C83.1189 38.5873 82.8236 38.6267 82.5086 38.6267C80.1464 26.6572 69.5948 17.6211 56.9171 17.6211C44.2395 17.6211 33.058 27.2282 31.1484 39.7488" stroke="white" stroke-width="3.93724" stroke-miterlimit="10" stroke-linecap="round"/>
<path d="M78.5312 87.6661V68.3535" stroke="white" stroke-width="3.93724" stroke-miterlimit="10" stroke-linecap="round"/>
<path d="M15.6382 91.3476C8.94504 91.3476 4.00391 86.4063 4.00391 79.1813C4.00391 71.9563 8.94504 67.0938 15.6382 67.0938C21.1305 67.0938 25.5205 70.4011 26.5638 75.4802H22.1148C21.4849 72.3107 19.3785 71.1689 15.6579 71.1689C10.7561 71.1689 8.64975 73.1769 8.64975 79.1813C8.64975 85.1857 10.7561 87.2725 15.6579 87.2725C19.3982 87.2725 21.5046 86.0913 22.1148 82.8824H26.5638C25.5205 88.0206 21.1502 91.3476 15.6382 91.3476Z" fill="white"/>
<path d="M28.4336 79.1813C28.4336 72.0351 33.3747 67.0938 40.0679 67.0938C46.7611 67.0938 51.7022 72.0351 51.7022 79.1813C51.7022 86.3276 46.7611 91.3476 40.0679 91.3476C33.3747 91.3476 28.4336 86.4063 28.4336 79.1813ZM40.0679 87.2725C44.9697 87.2725 47.076 85.2645 47.076 79.1813C47.076 73.0982 44.9697 71.1689 40.0679 71.1689C35.1661 71.1689 33.0598 73.1769 33.0598 79.1813C33.0598 85.1857 35.1661 87.2725 40.0679 87.2725Z" fill="white"/>
<path d="M54.2812 88.5914L59.5964 82.7642C61.0334 81.1893 61.939 80.3231 61.939 78.8466C61.939 77.5866 61.2303 77.0748 59.6357 77.0748C57.864 77.0748 57.116 77.626 57.0569 79.7915H53.7891C53.9859 76.7007 56.3285 74.2202 59.6357 74.2202C63.1201 74.2202 65.3249 76.2086 65.3249 78.8466C65.3249 80.6774 64.5178 81.8389 62.7067 83.8076L58.7696 88.119H65.5218V90.8554H54.2812V88.6111V88.5914Z" fill="white"/>
<path d="M6.87891 62.2706C6.87891 49.7893 16.9974 39.6704 29.4782 39.6704C35.5611 39.6704 41.0731 42.1312 45.0693 46.1276" stroke="white" stroke-width="3.93724" stroke-miterlimit="10" stroke-linecap="round"/>
</g>
<path d="M48.0173 124.872H50.5373V134.88C50.5373 137.088 50.0333 138.704 49.0253 139.728C48.0333 140.736 46.4573 141.24 44.2973 141.24C42.1373 141.24 40.5533 140.736 39.5453 139.728C38.5373 138.704 38.0333 137.088 38.0333 134.88V124.872H40.5533V135.264C40.5533 136.624 40.8653 137.616 41.4893 138.24C42.1133 138.864 43.0493 139.176 44.2973 139.176C45.5453 139.176 46.4733 138.864 47.0813 138.24C47.7053 137.616 48.0173 136.624 48.0173 135.264V124.872ZM57.5897 133.8C57.9417 133.944 58.3017 134.072 58.6697 134.184C59.0377 134.296 59.5257 134.464 60.1337 134.688C60.9497 134.976 61.5497 135.376 61.9337 135.888C62.3177 136.384 62.5097 137.04 62.5097 137.856C62.5097 138.976 62.1337 139.824 61.3817 140.4C60.6297 140.96 59.4137 141.24 57.7337 141.24C56.8697 141.24 56.0697 141.16 55.3337 141C54.6137 140.824 53.9417 140.576 53.3177 140.256L54.1097 138.36C54.5897 138.632 55.1337 138.848 55.7417 139.008C56.3497 139.152 57.0137 139.224 57.7337 139.224C58.5497 139.224 59.1177 139.112 59.4377 138.888C59.7737 138.648 59.9417 138.32 59.9417 137.904C59.9417 137.552 59.8457 137.272 59.6537 137.064C59.4617 136.84 59.1257 136.64 58.6457 136.464C58.2297 136.304 57.7817 136.152 57.3017 136.008C56.8217 135.864 56.3817 135.72 55.9817 135.576C55.1497 135.256 54.5497 134.856 54.1817 134.376C53.8137 133.896 53.6297 133.296 53.6297 132.576C53.6297 131.472 53.9977 130.624 54.7337 130.032C55.4857 129.44 56.6857 129.144 58.3337 129.144C59.1657 129.144 59.9017 129.232 60.5417 129.408C61.1817 129.568 61.7337 129.792 62.1977 130.08L61.4057 131.952C60.9897 131.68 60.5577 131.48 60.1097 131.352C59.6617 131.224 59.1497 131.16 58.5737 131.16C57.7097 131.16 57.0937 131.272 56.7257 131.496C56.3737 131.704 56.1977 131.992 56.1977 132.36C56.1977 132.664 56.2857 132.928 56.4617 133.152C56.6377 133.36 57.0137 133.576 57.5897 133.8ZM70.086 141.24C68.102 141.24 66.67 140.752 65.79 139.776C64.926 138.8 64.494 137.272 64.494 135.192C64.494 133.112 64.91 131.584 65.742 130.608C66.59 129.632 67.886 129.144 69.63 129.144C71.342 129.144 72.622 129.632 73.47 130.608C74.318 131.568 74.742 133.088 74.742 135.168V136.008H67.038C67.118 137.128 67.39 137.944 67.854 138.456C68.334 138.968 69.086 139.224 70.11 139.224C70.782 139.224 71.43 139.128 72.054 138.936C72.678 138.744 73.294 138.464 73.902 138.096L74.622 139.992C74.014 140.36 73.318 140.664 72.534 140.904C71.766 141.128 70.95 141.24 70.086 141.24ZM72.174 134.088C72.094 133.128 71.854 132.408 71.454 131.928C71.054 131.432 70.446 131.184 69.63 131.184C68.03 131.184 67.174 132.152 67.062 134.088H72.174Z" fill="white"/>
<defs>
<clipPath id="clip0_5420_582">
<rect width="104" height="80.6954" fill="white" transform="translate(4 15.6523)"/>
</clipPath>
</defs>
</svg>
