<svg width="112" height="140" viewBox="0 0 112 140" fill="none" xmlns="http://www.w3.org/2000/svg">
<g clip-path="url(#clip0_4618_791)">
<path d="M81.0778 79.8796H77.6578V67.8496C77.6578 66.8796 76.8778 66.0996 75.9078 66.0996C74.9378 66.0996 74.1578 66.8796 74.1578 67.8496V79.8796H70.7378C69.6378 79.8796 68.9878 81.3696 69.6178 82.4496L75.5078 92.5196C75.6078 92.6996 75.7578 92.7396 75.9078 92.7396C76.0578 92.7396 76.2078 92.6996 76.3078 92.5196L82.1978 82.4496C82.8278 81.3696 82.1878 79.8796 81.0778 79.8796Z" fill="white"/>
<path d="M80.817 39.6498C77.987 28.7598 68.057 21.0098 56.687 21.0098C45.317 21.0098 34.847 29.1698 32.367 40.6198C32.347 40.6198 32.327 40.6198 32.297 40.6198C20.257 40.6198 10.457 50.4198 10.457 62.4598C10.457 63.4298 11.237 64.2098 12.207 64.2098C13.177 64.2098 13.957 63.4298 13.957 62.4598C13.957 52.3498 22.187 44.1198 32.297 44.1198C37.067 44.1198 41.547 45.9798 44.917 49.3498C45.597 50.0298 46.707 50.0298 47.387 49.3498C48.067 48.6698 48.067 47.5598 47.387 46.8798C44.207 43.6998 40.207 41.6698 35.867 40.9498C38.157 31.4698 46.797 24.5298 56.687 24.5298C66.577 24.5298 75.747 31.7898 77.717 41.7898C77.887 42.6398 78.667 43.2398 79.507 43.1998L79.867 43.1798C79.997 43.1798 80.127 43.1598 80.257 43.1598C90.367 43.1598 98.597 51.3898 98.597 61.4998C98.597 69.1498 93.777 76.0698 86.597 78.7098C85.687 79.0498 85.227 80.0498 85.557 80.9598C85.817 81.6698 86.487 82.1098 87.197 82.1098C87.397 82.1098 87.607 82.0798 87.807 81.9998C96.347 78.8498 102.087 70.6098 102.087 61.4998C102.087 49.6398 92.587 39.9698 80.807 39.6698L80.817 39.6498Z" fill="white"/>
<path d="M19.9984 70.37C23.3184 70.37 25.1884 71.38 25.7384 74.21H29.6984C28.7784 69.7 24.8784 66.75 19.9984 66.75C14.0384 66.75 9.64844 71.14 9.64844 77.5C9.64844 83.86 14.0384 88.31 19.9984 88.31C24.8784 88.31 28.7784 85.36 29.6984 80.79H25.7384C25.1884 83.65 23.3084 84.69 19.9984 84.69C15.6384 84.69 13.7684 82.91 13.7684 77.5C13.7684 72.09 15.6384 70.38 19.9984 70.38V70.37Z" fill="white"/>
<path d="M41.7172 66.7397C35.7572 66.7397 31.3672 71.1297 31.3672 77.4897C31.3672 83.8497 35.7572 88.2998 41.7172 88.2998C47.6772 88.2998 52.0672 83.9097 52.0672 77.4897C52.0672 71.0697 47.6772 66.7397 41.7172 66.7397ZM41.7172 84.6697C37.3572 84.6697 35.4872 82.8898 35.4872 77.4798C35.4872 72.0698 37.3572 70.3597 41.7172 70.3597C46.0772 70.3597 47.9472 72.1398 47.9472 77.4798C47.9472 82.8198 46.0772 84.6697 41.7172 84.6697Z" fill="white"/>
<path d="M61.8402 81.5798C63.4502 79.8398 64.1602 78.8098 64.1602 77.1698C64.1602 74.8298 62.2002 73.0698 59.1102 73.0698C56.0202 73.0698 54.0802 75.2598 53.9102 78.0098H56.8102C56.8702 76.0998 57.5402 75.5998 59.1102 75.5998C60.5302 75.5998 61.1502 76.0498 61.1502 77.1698C61.1502 78.4798 60.3302 79.2598 59.0602 80.6498L54.3302 85.8298V87.8298H64.3202V85.3998H58.3202L61.8202 81.5698L61.8402 81.5798Z" fill="white"/>
</g>
<path d="M48.0173 118.872H50.5373V128.88C50.5373 131.088 50.0333 132.704 49.0253 133.728C48.0333 134.736 46.4573 135.24 44.2973 135.24C42.1373 135.24 40.5533 134.736 39.5453 133.728C38.5373 132.704 38.0333 131.088 38.0333 128.88V118.872H40.5533V129.264C40.5533 130.624 40.8653 131.616 41.4893 132.24C42.1133 132.864 43.0493 133.176 44.2973 133.176C45.5453 133.176 46.4733 132.864 47.0813 132.24C47.7053 131.616 48.0173 130.624 48.0173 129.264V118.872ZM57.5897 127.8C57.9417 127.944 58.3017 128.072 58.6697 128.184C59.0377 128.296 59.5257 128.464 60.1337 128.688C60.9497 128.976 61.5497 129.376 61.9337 129.888C62.3177 130.384 62.5097 131.04 62.5097 131.856C62.5097 132.976 62.1337 133.824 61.3817 134.4C60.6297 134.96 59.4137 135.24 57.7337 135.24C56.8697 135.24 56.0697 135.16 55.3337 135C54.6137 134.824 53.9417 134.576 53.3177 134.256L54.1097 132.36C54.5897 132.632 55.1337 132.848 55.7417 133.008C56.3497 133.152 57.0137 133.224 57.7337 133.224C58.5497 133.224 59.1177 133.112 59.4377 132.888C59.7737 132.648 59.9417 132.32 59.9417 131.904C59.9417 131.552 59.8457 131.272 59.6537 131.064C59.4617 130.84 59.1257 130.64 58.6457 130.464C58.2297 130.304 57.7817 130.152 57.3017 130.008C56.8217 129.864 56.3817 129.72 55.9817 129.576C55.1497 129.256 54.5497 128.856 54.1817 128.376C53.8137 127.896 53.6297 127.296 53.6297 126.576C53.6297 125.472 53.9977 124.624 54.7337 124.032C55.4857 123.44 56.6857 123.144 58.3337 123.144C59.1657 123.144 59.9017 123.232 60.5417 123.408C61.1817 123.568 61.7337 123.792 62.1977 124.08L61.4057 125.952C60.9897 125.68 60.5577 125.48 60.1097 125.352C59.6617 125.224 59.1497 125.16 58.5737 125.16C57.7097 125.16 57.0937 125.272 56.7257 125.496C56.3737 125.704 56.1977 125.992 56.1977 126.36C56.1977 126.664 56.2857 126.928 56.4617 127.152C56.6377 127.36 57.0137 127.576 57.5897 127.8ZM70.086 135.24C68.102 135.24 66.67 134.752 65.79 133.776C64.926 132.8 64.494 131.272 64.494 129.192C64.494 127.112 64.91 125.584 65.742 124.608C66.59 123.632 67.886 123.144 69.63 123.144C71.342 123.144 72.622 123.632 73.47 124.608C74.318 125.568 74.742 127.088 74.742 129.168V130.008H67.038C67.118 131.128 67.39 131.944 67.854 132.456C68.334 132.968 69.086 133.224 70.11 133.224C70.782 133.224 71.43 133.128 72.054 132.936C72.678 132.744 73.294 132.464 73.902 132.096L74.622 133.992C74.014 134.36 73.318 134.664 72.534 134.904C71.766 135.128 70.95 135.24 70.086 135.24ZM72.174 128.088C72.094 127.128 71.854 126.408 71.454 125.928C71.054 125.432 70.446 125.184 69.63 125.184C68.03 125.184 67.174 126.152 67.062 128.088H72.174Z" fill="white"/>
<defs>
<clipPath id="clip0_4618_791">
<rect width="112" height="112" fill="white"/>
</clipPath>
</defs>
</svg>
