<svg width="175" height="146" viewBox="0 0 175 146" fill="none" xmlns="http://www.w3.org/2000/svg">
<path d="M57.3816 48.9864L63.7304 52.5L70.4139 41.3947C70.7181 40.8886 70.1603 40.3143 69.6127 40.5577L57.5236 45.9692C56.2255 46.5532 56.1443 48.2954 57.3816 48.9864Z" fill="white"/>
<path d="M112.664 40.5701L106.324 44.2786L112.998 56C113.302 56.5342 114.102 56.3492 114.153 55.7431L115.317 42.2754C115.439 40.8269 113.91 39.8305 112.664 40.5598V40.5701Z" fill="white"/>
<path d="M92.5 92.7475V85.5H79.122C78.513 85.5 78.2694 86.2719 78.7668 86.6127L89.7087 94.1809C90.8861 94.9929 92.5 94.1609 92.5 92.7475Z" fill="white"/>
<path d="M68.5 87.5H55.7539C49.4062 87.5 45.4491 80.7014 48.6128 75.2626L65.9671 45.5" stroke="white" stroke-width="3.5" stroke-miterlimit="10" stroke-linecap="round"/>
<path d="M119.935 64.5L126.392 75.4755C129.54 80.8197 125.605 87.5 119.309 87.5H85.5" stroke="white" stroke-width="3.5" stroke-miterlimit="10" stroke-linecap="round"/>
<path d="M74.5 30.9758L79.6316 22.116C83.1905 15.9613 92.0926 15.9613 95.6515 22.116L111.5 49.5" stroke="white" stroke-width="3.5" stroke-miterlimit="10" stroke-linecap="round"/>
<path d="M10.6257 133.944C10.6257 133.624 10.5857 133.344 10.5057 133.104C10.4257 132.864 10.2737 132.64 10.0497 132.432C9.82566 132.224 9.51366 132.024 9.11366 131.832C8.71366 131.624 8.20166 131.408 7.57766 131.184C6.52166 130.832 5.63366 130.488 4.91366 130.152C4.19366 129.8 3.60966 129.424 3.16166 129.024C2.71366 128.624 2.39366 128.184 2.20166 127.704C2.00966 127.208 1.91366 126.64 1.91366 126C1.91366 124.656 2.39366 123.592 3.35366 122.808C4.32966 122.024 5.80966 121.632 7.79366 121.632C8.70566 121.632 9.54566 121.752 10.3137 121.992C11.0817 122.216 11.8097 122.536 12.4977 122.952L11.6097 124.872C11.0177 124.504 10.4017 124.216 9.76166 124.008C9.12166 123.8 8.46566 123.696 7.79366 123.696C6.62566 123.696 5.76966 123.888 5.22566 124.272C4.69766 124.64 4.43366 125.16 4.43366 125.832C4.43366 126.168 4.48166 126.472 4.57766 126.744C4.68966 127 4.88166 127.248 5.15366 127.488C5.42566 127.728 5.79366 127.96 6.25766 128.184C6.73766 128.408 7.35366 128.64 8.10566 128.88C9.00166 129.168 9.76966 129.464 10.4097 129.768C11.0497 130.072 11.5697 130.416 11.9697 130.8C12.3857 131.168 12.6817 131.6 12.8577 132.096C13.0497 132.576 13.1457 133.144 13.1457 133.8C13.1457 135.208 12.6497 136.304 11.6577 137.088C10.6657 137.856 9.12966 138.24 7.04966 138.24C5.97766 138.24 4.97766 138.12 4.04966 137.88C3.13766 137.64 2.31366 137.312 1.57766 136.896L2.41766 134.976C3.18566 135.376 3.93766 135.68 4.67366 135.888C5.42566 136.096 6.18566 136.2 6.95366 136.2C8.16966 136.2 9.08166 136.008 9.68966 135.624C10.3137 135.224 10.6257 134.664 10.6257 133.944ZM15.144 132.192C15.144 130.08 15.584 128.544 16.464 127.584C17.36 126.624 18.752 126.144 20.64 126.144C22.528 126.144 23.912 126.632 24.792 127.608C25.688 128.584 26.136 130.112 26.136 132.192C26.136 134.304 25.688 135.84 24.792 136.8C23.912 137.76 22.528 138.24 20.64 138.24C18.752 138.24 17.36 137.76 16.464 136.8C15.584 135.84 15.144 134.304 15.144 132.192ZM17.616 132.192C17.616 133.552 17.848 134.568 18.312 135.24C18.792 135.896 19.568 136.224 20.64 136.224C21.712 136.224 22.48 135.896 22.944 135.24C23.408 134.568 23.64 133.552 23.64 132.192C23.64 130.832 23.408 129.824 22.944 129.168C22.48 128.512 21.712 128.184 20.64 128.184C19.568 128.184 18.792 128.512 18.312 129.168C17.848 129.824 17.616 130.832 17.616 132.192ZM36.1422 136.968C35.6302 137.368 35.0622 137.68 34.4382 137.904C33.8142 138.128 33.1422 138.24 32.4222 138.24C31.0782 138.24 30.0942 137.92 29.4702 137.28C28.8622 136.624 28.5582 135.576 28.5582 134.136V126.384H31.0302V133.608C31.0302 134.584 31.1822 135.272 31.4862 135.672C31.8062 136.056 32.3022 136.248 32.9742 136.248C33.4862 136.248 33.9742 136.168 34.4382 136.008C34.9182 135.832 35.4062 135.584 35.9022 135.264V126.384H38.3742V138H36.5262L36.1422 136.968ZM43.2733 126.384L43.5133 127.776C44.5053 126.688 45.6813 126.144 47.0413 126.144C47.5853 126.144 48.1213 126.256 48.6493 126.48V128.616C48.3773 128.488 48.0973 128.392 47.8093 128.328C47.5373 128.248 47.2413 128.208 46.9213 128.208C46.3453 128.208 45.7853 128.344 45.2413 128.616C44.6973 128.888 44.2333 129.232 43.8493 129.648V138H41.3533V126.384H43.2733ZM55.2315 136.2C55.8235 136.2 56.3755 136.128 56.8875 135.984C57.3995 135.824 57.9035 135.608 58.3995 135.336L58.9995 137.256C58.5035 137.56 57.9355 137.8 57.2955 137.976C56.6555 138.152 55.9675 138.24 55.2315 138.24C53.2315 138.24 51.7675 137.76 50.8395 136.8C49.9275 135.84 49.4715 134.304 49.4715 132.192C49.4715 130.112 49.9195 128.584 50.8155 127.608C51.7115 126.632 53.1035 126.144 54.9915 126.144C56.6875 126.144 58.0555 126.648 59.0955 127.656L57.7995 129.336C57.0315 128.568 56.1195 128.184 55.0635 128.184C54.0555 128.184 53.2875 128.488 52.7595 129.096C52.2315 129.704 51.9675 130.736 51.9675 132.192C51.9675 133.632 52.2395 134.664 52.7835 135.288C53.3275 135.896 54.1435 136.2 55.2315 136.2ZM65.6545 138.24C63.6705 138.24 62.2385 137.752 61.3585 136.776C60.4945 135.8 60.0625 134.272 60.0625 132.192C60.0625 130.112 60.4785 128.584 61.3105 127.608C62.1585 126.632 63.4545 126.144 65.1985 126.144C66.9105 126.144 68.1905 126.632 69.0385 127.608C69.8865 128.568 70.3105 130.088 70.3105 132.168V133.008H62.6065C62.6865 134.128 62.9585 134.944 63.4225 135.456C63.9025 135.968 64.6545 136.224 65.6785 136.224C66.3505 136.224 66.9985 136.128 67.6225 135.936C68.2465 135.744 68.8625 135.464 69.4705 135.096L70.1905 136.992C69.5825 137.36 68.8865 137.664 68.1025 137.904C67.3345 138.128 66.5185 138.24 65.6545 138.24ZM67.7425 131.088C67.6625 130.128 67.4225 129.408 67.0225 128.928C66.6225 128.432 66.0145 128.184 65.1985 128.184C63.5985 128.184 62.7425 129.152 62.6305 131.088H67.7425ZM81.5417 127.296C82.1017 126.928 82.6617 126.648 83.2217 126.456C83.7977 126.248 84.4057 126.144 85.0457 126.144C85.8137 126.144 86.4377 126.256 86.9177 126.48C87.4137 126.688 87.7977 127.048 88.0697 127.56C88.6137 127.128 89.2057 126.784 89.8457 126.528C90.4857 126.272 91.1657 126.144 91.8857 126.144C93.2297 126.144 94.1657 126.48 94.6937 127.152C95.2217 127.808 95.4857 128.848 95.4857 130.272V138H92.9897V130.8C92.9897 129.824 92.8617 129.144 92.6057 128.76C92.3497 128.36 91.9177 128.16 91.3097 128.16C90.8777 128.16 90.4297 128.248 89.9657 128.424C89.5177 128.6 89.0617 128.848 88.5977 129.168C88.6457 129.488 88.6697 129.856 88.6697 130.272V138H86.1977V130.8C86.1977 129.824 86.0777 129.144 85.8377 128.76C85.5977 128.36 85.1497 128.16 84.4937 128.16C84.0457 128.16 83.6057 128.24 83.1737 128.4C82.7577 128.56 82.3177 128.8 81.8537 129.12V138H79.3577V126.384H81.2297L81.5417 127.296ZM107.34 138H105.492L105.132 137.04C104.684 137.408 104.156 137.704 103.548 137.928C102.956 138.136 102.3 138.24 101.58 138.24C100.284 138.24 99.3238 137.928 98.6998 137.304C98.0758 136.664 97.7638 135.744 97.7638 134.544C97.7638 133.328 98.1558 132.424 98.9398 131.832C99.7238 131.24 101.004 130.944 102.78 130.944C103.148 130.944 103.5 130.952 103.836 130.968C104.172 130.984 104.508 131.008 104.844 131.04V130.632C104.844 129.72 104.66 129.08 104.292 128.712C103.94 128.344 103.3 128.16 102.372 128.16C101.86 128.16 101.308 128.24 100.716 128.4C100.14 128.544 99.5478 128.776 98.9398 129.096L98.1958 127.32C98.8838 126.952 99.5958 126.664 100.332 126.456C101.084 126.248 101.868 126.144 102.684 126.144C103.548 126.144 104.276 126.224 104.868 126.384C105.476 126.544 105.956 126.816 106.308 127.2C106.676 127.568 106.94 128.048 107.1 128.64C107.26 129.232 107.34 129.96 107.34 130.824V138ZM102.18 136.248C102.596 136.248 103.052 136.152 103.548 135.96C104.044 135.768 104.476 135.52 104.844 135.216V132.984C104.524 132.952 104.188 132.928 103.836 132.912C103.484 132.88 103.092 132.864 102.66 132.864C101.78 132.864 101.156 132.992 100.788 133.248C100.436 133.488 100.26 133.904 100.26 134.496C100.26 135.664 100.9 136.248 102.18 136.248ZM113.484 128.424V133.728C113.484 134.656 113.612 135.304 113.868 135.672C114.124 136.04 114.62 136.224 115.356 136.224C115.724 136.224 116.092 136.168 116.46 136.056C116.844 135.944 117.204 135.816 117.54 135.672L118.02 137.52C117.508 137.76 116.964 137.936 116.388 138.048C115.812 138.176 115.244 138.24 114.684 138.24C113.98 138.24 113.388 138.152 112.908 137.976C112.444 137.8 112.068 137.544 111.78 137.208C111.508 136.856 111.308 136.432 111.18 135.936C111.068 135.44 111.012 134.864 111.012 134.208V128.424H109.116V126.384H111.012V124.056L113.484 123.6V126.384H117.588V128.424H113.484ZM124.914 138.24C122.93 138.24 121.498 137.752 120.618 136.776C119.754 135.8 119.322 134.272 119.322 132.192C119.322 130.112 119.738 128.584 120.57 127.608C121.418 126.632 122.714 126.144 124.458 126.144C126.17 126.144 127.45 126.632 128.298 127.608C129.146 128.568 129.57 130.088 129.57 132.168V133.008H121.866C121.946 134.128 122.218 134.944 122.682 135.456C123.162 135.968 123.914 136.224 124.938 136.224C125.61 136.224 126.258 136.128 126.882 135.936C127.506 135.744 128.122 135.464 128.73 135.096L129.45 136.992C128.842 137.36 128.146 137.664 127.362 137.904C126.594 138.128 125.778 138.24 124.914 138.24ZM127.002 131.088C126.922 130.128 126.682 129.408 126.282 128.928C125.882 128.432 125.274 128.184 124.458 128.184C122.858 128.184 122.002 129.152 121.89 131.088H127.002ZM133.931 126.384L134.171 127.776C135.163 126.688 136.339 126.144 137.699 126.144C138.243 126.144 138.779 126.256 139.307 126.48V128.616C139.035 128.488 138.755 128.392 138.467 128.328C138.195 128.248 137.899 128.208 137.579 128.208C137.003 128.208 136.443 128.344 135.899 128.616C135.355 128.888 134.891 129.232 134.507 129.648V138H132.011V126.384H133.931ZM141.084 126.384H143.58V138H141.084V126.384ZM141.084 121.392H143.58V124.008H141.084V121.392ZM155.841 138H153.993L153.633 137.04C153.185 137.408 152.657 137.704 152.049 137.928C151.457 138.136 150.801 138.24 150.081 138.24C148.785 138.24 147.825 137.928 147.201 137.304C146.577 136.664 146.265 135.744 146.265 134.544C146.265 133.328 146.657 132.424 147.441 131.832C148.225 131.24 149.505 130.944 151.281 130.944C151.649 130.944 152.001 130.952 152.337 130.968C152.673 130.984 153.009 131.008 153.345 131.04V130.632C153.345 129.72 153.161 129.08 152.793 128.712C152.441 128.344 151.801 128.16 150.873 128.16C150.361 128.16 149.809 128.24 149.217 128.4C148.641 128.544 148.049 128.776 147.441 129.096L146.697 127.32C147.385 126.952 148.097 126.664 148.833 126.456C149.585 126.248 150.369 126.144 151.185 126.144C152.049 126.144 152.777 126.224 153.369 126.384C153.977 126.544 154.457 126.816 154.809 127.2C155.177 127.568 155.441 128.048 155.601 128.64C155.761 129.232 155.841 129.96 155.841 130.824V138ZM150.681 136.248C151.097 136.248 151.553 136.152 152.049 135.96C152.545 135.768 152.977 135.52 153.345 135.216V132.984C153.025 132.952 152.689 132.928 152.337 132.912C151.985 132.88 151.593 132.864 151.161 132.864C150.281 132.864 149.657 132.992 149.289 133.248C148.937 133.488 148.761 133.904 148.761 134.496C148.761 135.664 149.401 136.248 150.681 136.248ZM161.41 121.056V134.88C161.41 135.424 161.482 135.776 161.626 135.936C161.77 136.08 162.058 136.152 162.49 136.152V138.168C162.346 138.2 162.226 138.216 162.13 138.216C162.034 138.232 161.89 138.24 161.698 138.24C160.77 138.24 160.074 137.984 159.61 137.472C159.162 136.944 158.938 136.08 158.938 134.88V121.344L161.41 121.056ZM168.51 130.8C168.862 130.944 169.222 131.072 169.59 131.184C169.958 131.296 170.446 131.464 171.054 131.688C171.87 131.976 172.47 132.376 172.854 132.888C173.238 133.384 173.43 134.04 173.43 134.856C173.43 135.976 173.054 136.824 172.302 137.4C171.55 137.96 170.334 138.24 168.654 138.24C167.79 138.24 166.99 138.16 166.254 138C165.534 137.824 164.862 137.576 164.238 137.256L165.03 135.36C165.51 135.632 166.054 135.848 166.662 136.008C167.27 136.152 167.934 136.224 168.654 136.224C169.47 136.224 170.038 136.112 170.358 135.888C170.694 135.648 170.862 135.32 170.862 134.904C170.862 134.552 170.766 134.272 170.574 134.064C170.382 133.84 170.046 133.64 169.566 133.464C169.15 133.304 168.702 133.152 168.222 133.008C167.742 132.864 167.302 132.72 166.902 132.576C166.07 132.256 165.47 131.856 165.102 131.376C164.734 130.896 164.55 130.296 164.55 129.576C164.55 128.472 164.918 127.624 165.654 127.032C166.406 126.44 167.606 126.144 169.254 126.144C170.086 126.144 170.822 126.232 171.462 126.408C172.102 126.568 172.654 126.792 173.118 127.08L172.326 128.952C171.91 128.68 171.478 128.48 171.03 128.352C170.582 128.224 170.07 128.16 169.494 128.16C168.63 128.16 168.014 128.272 167.646 128.496C167.294 128.704 167.118 128.992 167.118 129.36C167.118 129.664 167.206 129.928 167.382 130.152C167.558 130.36 167.934 130.576 168.51 130.8Z" fill="white"/>
</svg>
