<svg width="67" height="68" viewBox="0 0 67 68" fill="none" xmlns="http://www.w3.org/2000/svg">
<g clip-path="url(#clip0_4720_1508)">
<path d="M27.1892 34.604H21.9989C21.0493 34.604 20.1939 34.1317 19.7227 33.3469C19.2443 32.5551 19.2443 31.6175 19.7227 30.8258L26.7905 19.1021C26.7905 19.1021 26.7905 19.0882 26.7905 19.0812L27.8271 17.3658C27.9503 17.1574 27.7256 16.9213 27.5009 17.0254L22.5643 19.234C22.0351 19.4702 21.9989 20.1855 22.5063 20.4634L23.8474 21.2065L18.4686 30.1382C17.7292 31.3605 17.7292 32.826 18.4686 34.0484C19.208 35.2707 20.5273 36 21.9989 36H27.1892C27.5879 36 27.9141 35.6875 27.9141 35.3055C27.9141 34.9235 27.5879 34.6109 27.1892 34.6109V34.604Z" fill="white"/>
<path d="M50.4018 29.8301L47.9186 25.3536C47.7287 25.0147 47.3148 24.9017 46.9892 25.0923C46.6635 25.29 46.5549 25.7207 46.7381 26.0597L49.2213 30.5362C49.6691 31.3411 49.6691 32.2943 49.2213 33.0992C48.7735 33.9042 47.9797 34.3772 47.0909 34.3772H37.26H32.1512C31.9205 34.3772 31.8255 34.6879 32.0155 34.8291L36.1948 37.8723C36.6426 38.1971 37.26 37.8653 37.26 37.2933V35.7894H47.0909C48.475 35.7894 49.7098 35.048 50.395 33.8053C51.0871 32.5626 51.0871 31.0728 50.395 29.8301H50.4018Z" fill="white"/>
<path d="M34.931 8.33388C36.0197 8.33388 37.0018 8.86341 37.5497 9.7549L42.3033 17.5102L43.6127 19.6484L43.9401 20.1846L44.979 21.8805C45.1 22.0816 45.4202 22.0145 45.4416 21.7866L45.9112 16.7662C45.9611 16.2232 45.3419 15.8546 44.8438 16.1294L43.5344 16.8466L38.7808 9.09131C37.9767 7.77754 36.5392 7 34.931 7C33.3227 7 31.8852 7.78424 31.0811 9.09131L29.0103 12.4629C28.811 12.7846 28.932 13.1935 29.2736 13.3812C29.6152 13.5622 30.0493 13.4549 30.2485 13.1332L32.3193 9.7616C32.8673 8.87011 33.8422 8.34058 34.931 8.34058V8.33388Z" fill="white"/>
</g>
<path d="M6.48914 50.91V54.765H8.84414C9.59414 54.765 10.1391 54.6 10.4791 54.27C10.8191 53.94 10.9891 53.46 10.9891 52.83C10.9891 52.17 10.8191 51.685 10.4791 51.375C10.1491 51.065 9.61914 50.91 8.88914 50.91H6.48914ZM5.33414 60V49.92H8.81414C9.98414 49.92 10.8341 50.165 11.3641 50.655C11.9041 51.135 12.1741 51.86 12.1741 52.83C12.1741 54.25 11.5241 55.155 10.2241 55.545L12.4441 60H11.1991L9.08414 55.74H6.48914V60H5.33414ZM16.8532 60.15C15.6732 60.15 14.8332 59.845 14.3332 59.235C13.8432 58.615 13.5982 57.66 13.5982 56.37C13.5982 55.07 13.8482 54.115 14.3482 53.505C14.8482 52.895 15.6132 52.59 16.6432 52.59C17.6732 52.59 18.4382 52.89 18.9382 53.49C19.4382 54.08 19.6882 55.02 19.6882 56.31V56.79H14.7682C14.8082 57.65 14.9932 58.265 15.3232 58.635C15.6532 59.005 16.1682 59.19 16.8682 59.19C17.2882 59.19 17.6982 59.13 18.0982 59.01C18.5082 58.88 18.8882 58.705 19.2382 58.485L19.6132 59.4C19.2332 59.63 18.8032 59.815 18.3232 59.955C17.8532 60.085 17.3632 60.15 16.8532 60.15ZM18.5182 55.86C18.4682 55.08 18.2932 54.505 17.9932 54.135C17.6932 53.755 17.2432 53.565 16.6432 53.565C16.0432 53.565 15.5932 53.755 15.2932 54.135C14.9932 54.505 14.8182 55.08 14.7682 55.86H18.5182ZM24.5482 59.19C25.2482 59.19 25.8732 59.015 26.4232 58.665L26.7532 59.58C26.4632 59.75 26.1282 59.89 25.7482 60C25.3782 60.1 24.9782 60.15 24.5482 60.15C23.3582 60.15 22.4882 59.855 21.9382 59.265C21.3882 58.665 21.1132 57.7 21.1132 56.37C21.1132 55.07 21.3782 54.115 21.9082 53.505C22.4382 52.895 23.2682 52.59 24.3982 52.59C25.3682 52.59 26.1632 52.885 26.7832 53.475L26.1532 54.255C25.9332 54.035 25.6732 53.865 25.3732 53.745C25.0832 53.615 24.7682 53.55 24.4282 53.55C23.7082 53.55 23.1632 53.77 22.7932 54.21C22.4332 54.64 22.2532 55.36 22.2532 56.37C22.2532 57.38 22.4432 58.105 22.8232 58.545C23.2032 58.975 23.7782 59.19 24.5482 59.19ZM27.4887 52.74H28.6887L30.7887 58.425H30.8337L32.7987 52.74H33.9837L31.0437 60.93C30.8937 61.37 30.7287 61.735 30.5487 62.025C30.3687 62.325 30.1637 62.565 29.9337 62.745C29.7137 62.935 29.4587 63.07 29.1687 63.15C28.8887 63.23 28.5637 63.27 28.1937 63.27C27.9137 63.27 27.6937 63.24 27.5337 63.18L27.6987 62.235C27.8587 62.275 28.0537 62.295 28.2837 62.295C28.4937 62.295 28.6787 62.26 28.8387 62.19C29.0087 62.12 29.1537 62.03 29.2737 61.92C29.4037 61.81 29.5137 61.685 29.6037 61.545C29.6937 61.405 29.7687 61.26 29.8287 61.11L30.2787 59.91L27.4887 52.74ZM38.1566 59.19C38.8566 59.19 39.4816 59.015 40.0316 58.665L40.3616 59.58C40.0716 59.75 39.7366 59.89 39.3566 60C38.9866 60.1 38.5866 60.15 38.1566 60.15C36.9666 60.15 36.0966 59.855 35.5466 59.265C34.9966 58.665 34.7216 57.7 34.7216 56.37C34.7216 55.07 34.9866 54.115 35.5166 53.505C36.0466 52.895 36.8766 52.59 38.0066 52.59C38.9766 52.59 39.7716 52.885 40.3916 53.475L39.7616 54.255C39.5416 54.035 39.2816 53.865 38.9816 53.745C38.6916 53.615 38.3766 53.55 38.0366 53.55C37.3166 53.55 36.7716 53.77 36.4016 54.21C36.0416 54.64 35.8616 55.36 35.8616 56.37C35.8616 57.38 36.0516 58.105 36.4316 58.545C36.8116 58.975 37.3866 59.19 38.1566 59.19ZM43.9321 60.105C43.8821 60.125 43.8121 60.135 43.7221 60.135C43.6321 60.145 43.5571 60.15 43.4971 60.15C42.9871 60.15 42.6171 60 42.3871 59.7C42.1671 59.39 42.0571 58.92 42.0571 58.29V49.59L43.1971 49.41V58.125C43.1971 58.355 43.2071 58.54 43.2271 58.68C43.2471 58.82 43.2821 58.93 43.3321 59.01C43.3921 59.09 43.4671 59.145 43.5571 59.175C43.6571 59.195 43.7821 59.205 43.9321 59.205V60.105ZM45.7049 52.74H46.8449V60H45.7049V52.74ZM45.6899 49.62H46.8449V51.12H45.6899V49.62ZM50.1348 53.475C50.4748 53.205 50.8498 52.99 51.2598 52.83C51.6698 52.67 52.0998 52.59 52.5498 52.59C53.3898 52.59 53.9898 52.795 54.3498 53.205C54.7198 53.605 54.9048 54.26 54.9048 55.17V60H53.7648V55.485C53.7648 54.765 53.6448 54.265 53.4048 53.985C53.1748 53.705 52.8148 53.565 52.3248 53.565C51.6248 53.565 50.9248 53.82 50.2248 54.33V60H49.0848V52.74H49.9398L50.1348 53.475ZM62.6521 52.74V60.09C62.6521 61.2 62.3821 62.005 61.8421 62.505C61.3121 63.015 60.5171 63.27 59.4571 63.27C59.0371 63.27 58.6371 63.235 58.2571 63.165C57.8771 63.105 57.5421 63.02 57.2521 62.91L57.4921 61.965C58.0621 62.185 58.7121 62.295 59.4421 62.295C60.1621 62.295 60.6821 62.13 61.0021 61.8C61.3321 61.47 61.4971 60.93 61.4971 60.18V59.43C61.2471 59.66 60.9421 59.84 60.5821 59.97C60.2321 60.09 59.8471 60.15 59.4271 60.15C58.4871 60.15 57.7721 59.845 57.2821 59.235C56.8021 58.625 56.5621 57.67 56.5621 56.37C56.5621 55.08 56.8121 54.13 57.3121 53.52C57.8121 52.9 58.5571 52.59 59.5471 52.59C59.9671 52.59 60.3521 52.66 60.7021 52.8C61.0521 52.94 61.3571 53.13 61.6171 53.37L61.7971 52.74H62.6521ZM59.7271 53.55C59.0371 53.55 58.5271 53.77 58.1971 54.21C57.8771 54.65 57.7171 55.37 57.7171 56.37C57.7171 57.38 57.8771 58.105 58.1971 58.545C58.5271 58.985 59.0371 59.205 59.7271 59.205C60.0771 59.205 60.4021 59.135 60.7021 58.995C61.0121 58.855 61.2771 58.665 61.4971 58.425V54.33C61.2771 54.09 61.0121 53.9 60.7021 53.76C60.4021 53.62 60.0771 53.55 59.7271 53.55Z" fill="white"/>
<defs>
<clipPath id="clip0_4720_1508">
<rect width="44" height="44" fill="white" transform="translate(11.9141)"/>
</clipPath>
</defs>
</svg>
