<svg width="112" height="146" viewBox="0 0 112 146" fill="none" xmlns="http://www.w3.org/2000/svg">
<path d="M45.5594 81L42.5 95H70.5L67.4406 81" stroke="white" stroke-width="2" stroke-linejoin="round"/>
<path d="M102.5 27.5V70.5C102.5 76.299 97.799 81 92 81H79.25H67.625H44.375H32.75H20C14.201 81 9.5 76.299 9.5 70.5V27.5C9.5 21.701 14.201 17 20 17H92C97.799 17 102.5 21.701 102.5 27.5Z" stroke="white" stroke-width="2" stroke-linejoin="round"/>
<path d="M23.5 61H22.5V63H23.5V61ZM48.5 63C49.0523 63 49.5 62.5523 49.5 62C49.5 61.4477 49.0523 61 48.5 61V63ZM23.5 63H48.5V61H23.5V63Z" fill="white"/>
<path d="M23.5 47H22.5V49H23.5V47ZM42.5 49C43.0523 49 43.5 48.5523 43.5 48C43.5 47.4477 43.0523 47 42.5 47V49ZM23.5 49H42.5V47H23.5V49Z" fill="white"/>
<path d="M23.5 35H22.5V37H23.5V35ZM48.5 37C49.0523 37 49.5 36.5523 49.5 36C49.5 35.4477 49.0523 35 48.5 35V37ZM23.5 37H48.5V35H23.5V37Z" fill="white"/>
<path d="M73.5 56C77.366 56 80.5 52.866 80.5 49C80.5 45.134 77.366 42 73.5 42C69.634 42 66.5 45.134 66.5 49C66.5 52.866 69.634 56 73.5 56Z" stroke="white" stroke-width="2" stroke-linecap="round" stroke-linejoin="round"/>
<path d="M69.9008 34.6925C67.266 35.375 65.0504 36.7357 63.2199 38.6774L62.7715 38.3853L60.0995 36.8033L56.5 43.1971L59.172 44.7791L59.6233 45.1157C59.2968 46.35 59.1113 47.6601 59.1113 49.0004C59.1113 50.3561 59.2895 51.7226 59.6233 52.9696L59.172 53.2212L56.5 54.8033L60.0995 61.1971L62.7715 59.615L63.2087 59.3135C64.9587 61.15 67.1723 62.5199 69.6554 63.2243L69.9008 63.2817V63.8359V67H77.0999V66.2644L77.137 63.2817C79.7121 62.5939 81.9112 61.2094 83.7124 59.3133L84.2285 59.615L86.9005 61.1971L90.5 54.8033L87.828 53.2212L87.3382 52.9201C87.6972 51.6305 87.8894 50.4082 87.8894 49.0004C87.8894 47.5926 87.6972 46.3324 87.3382 45.0428L87.828 44.7791L90.5 43.1971L86.9005 36.8033L84.2285 38.3853L83.7647 38.661C82.0221 36.8125 79.5812 35.4099 77.0999 34.6925M69.9008 34.6925C69.9008 34.6925 69.9008 34.3705 69.9008 34.1641M69.9008 34.6925V34.1641M77.0999 34.6925C77.0999 34.6925 77.0999 34.3705 77.0999 34.1641M77.0999 34.6925V34.1641M69.9008 31H77.0999M69.9008 31C69.9008 31 69.9008 32.9284 69.9008 34.1641M69.9008 31V34.1641M77.0999 31C77.0999 31 77.0999 32.9284 77.0999 34.1641M77.0999 31V34.1641" stroke="white" stroke-width="2" stroke-linejoin="round"/>
<path d="M37.7849 120.96V126.36H41.1929C43.2089 126.36 44.2169 125.464 44.2169 123.672C44.2169 121.864 43.2249 120.96 41.2409 120.96H37.7849ZM35.2649 135V118.872H41.1929C44.9369 118.872 46.8089 120.472 46.8089 123.672C46.8089 124.728 46.5449 125.632 46.0169 126.384C45.5049 127.136 44.7609 127.688 43.7849 128.04L47.3369 135H44.6729L41.3369 128.448H37.7849V135H35.2649ZM62.89 127.464C62.426 129.416 61.762 130.968 60.898 132.12L63.562 135H60.706L59.41 133.608C58.69 134.136 57.914 134.544 57.082 134.832C56.25 135.104 55.354 135.24 54.394 135.24C53.514 135.24 52.738 135.136 52.066 134.928C51.41 134.72 50.858 134.432 50.41 134.064C49.978 133.696 49.65 133.264 49.426 132.768C49.202 132.256 49.09 131.696 49.09 131.088C49.09 130.128 49.394 129.232 50.002 128.4C50.626 127.568 51.514 126.864 52.666 126.288C51.978 125.52 51.49 124.824 51.202 124.2C50.914 123.56 50.77 122.96 50.77 122.4C50.77 121.28 51.162 120.376 51.946 119.688C52.746 118.984 53.85 118.632 55.258 118.632C55.962 118.632 56.594 118.728 57.154 118.92C57.714 119.112 58.186 119.368 58.57 119.688C58.97 120.008 59.274 120.392 59.482 120.84C59.69 121.288 59.794 121.76 59.794 122.256C59.794 122.736 59.714 123.176 59.554 123.576C59.41 123.96 59.178 124.328 58.858 124.68C58.554 125.032 58.162 125.384 57.682 125.736C57.202 126.088 56.634 126.464 55.978 126.864L59.41 130.536C59.698 130.072 59.946 129.592 60.154 129.096C60.362 128.6 60.538 128.056 60.682 127.464H62.89ZM54.082 127.824C53.074 128.32 52.378 128.84 51.994 129.384C51.61 129.928 51.418 130.48 51.418 131.04C51.418 131.76 51.674 132.32 52.186 132.72C52.698 133.12 53.482 133.32 54.538 133.32C55.866 133.32 57.018 132.904 57.994 132.072L54.082 127.824ZM54.61 125.328C55.618 124.864 56.346 124.384 56.794 123.888C57.242 123.376 57.466 122.864 57.466 122.352C57.466 121.824 57.274 121.392 56.89 121.056C56.522 120.72 55.978 120.552 55.258 120.552C54.586 120.552 54.058 120.72 53.674 121.056C53.306 121.376 53.122 121.832 53.122 122.424C53.122 122.936 53.234 123.408 53.458 123.84C53.698 124.272 54.082 124.768 54.61 125.328ZM78.3593 126.936C78.3593 129.688 77.6713 131.72 76.2953 133.032C74.9193 134.344 72.9113 135 70.2713 135H65.4233V118.872H70.2713C72.9273 118.872 74.9353 119.536 76.2953 120.864C77.6713 122.192 78.3593 124.216 78.3593 126.936ZM67.9433 120.96V132.936H70.2713C72.0633 132.936 73.4393 132.464 74.3993 131.52C75.3593 130.56 75.8393 129.032 75.8393 126.936C75.8393 124.856 75.3593 123.344 74.3993 122.4C73.4393 121.44 72.0633 120.96 70.2713 120.96H67.9433Z" fill="white"/>
</svg>
