<svg width="112" height="146" viewBox="0 0 112 146" fill="none" xmlns="http://www.w3.org/2000/svg">
<path d="M26.086 26.9221C18.575 34.6763 13.9447 45.2917 13.9447 57C13.9447 68.7083 18.575 79.3237 26.086 87.0779C33.8097 95.0517 44.5796 100 56.4931 100H102M86.3464 87.6392C94.1829 79.84 99.0415 68.9934 99.0415 57C99.0415 45.0066 94.1829 34.16 86.3464 26.3608C78.6658 18.7167 68.1245 14 56.4931 14H10" stroke="white" stroke-width="2"/>
<path d="M94 92L101.767 99.7895L93.6197 107.18" stroke="white" stroke-width="2" stroke-linecap="round" stroke-linejoin="round"/>
<path d="M17 23L9.23312 15.2105L17.3803 7.81983" stroke="white" stroke-width="2" stroke-linecap="round" stroke-linejoin="round"/>
<path d="M26 41H52V75H26V41Z" stroke="white" stroke-width="2"/>
<path d="M41 46H37" stroke="white" stroke-width="2"/>
<path d="M59 48H85V64H59V48Z" stroke="white" stroke-width="2"/>
<path d="M78 69H66" stroke="white" stroke-width="2"/>
<circle cx="39" cy="61" r="8" stroke="white" stroke-width="2" stroke-linecap="round" stroke-linejoin="round"/>
<path d="M12.4278 136.177C13.9958 136.177 15.4918 135.785 16.9158 135.001L17.5878 136.993C16.8518 137.409 16.0278 137.721 15.1158 137.929C14.2198 138.137 13.3158 138.241 12.4038 138.241C9.71581 138.241 7.76381 137.529 6.54781 136.105C5.33181 134.681 4.72381 132.625 4.72381 129.937C4.72381 127.089 5.33181 124.993 6.54781 123.649C7.76381 122.305 9.56381 121.633 11.9478 121.633C13.1638 121.633 14.2438 121.833 15.1878 122.233C16.1478 122.633 16.9238 123.153 17.5158 123.793L16.0758 125.377C15.5638 124.833 14.9718 124.425 14.2998 124.153C13.6438 123.865 12.8598 123.721 11.9478 123.721C10.3638 123.721 9.17981 124.217 8.39581 125.209C7.62781 126.201 7.24381 127.777 7.24381 129.937C7.24381 132.049 7.65181 133.617 8.46781 134.641C9.28381 135.665 10.6038 136.177 12.4278 136.177ZM19.5067 132.193C19.5067 130.081 19.9467 128.545 20.8267 127.585C21.7227 126.625 23.1147 126.145 25.0027 126.145C26.8907 126.145 28.2747 126.633 29.1547 127.609C30.0507 128.585 30.4987 130.113 30.4987 132.193C30.4987 134.305 30.0507 135.841 29.1547 136.801C28.2747 137.761 26.8907 138.241 25.0027 138.241C23.1147 138.241 21.7227 137.761 20.8267 136.801C19.9467 135.841 19.5067 134.305 19.5067 132.193ZM21.9787 132.193C21.9787 133.553 22.2107 134.569 22.6747 135.241C23.1547 135.897 23.9307 136.225 25.0027 136.225C26.0747 136.225 26.8427 135.897 27.3067 135.241C27.7707 134.569 28.0027 133.553 28.0027 132.193C28.0027 130.833 27.7707 129.825 27.3067 129.169C26.8427 128.513 26.0747 128.185 25.0027 128.185C23.9307 128.185 23.1547 128.513 22.6747 129.169C22.2107 129.825 21.9787 130.833 21.9787 132.193ZM35.7048 121.057V134.881C35.7048 135.425 35.7768 135.777 35.9208 135.937C36.0648 136.081 36.3528 136.153 36.7848 136.153V138.169C36.6408 138.201 36.5208 138.217 36.4248 138.217C36.3288 138.233 36.1848 138.241 35.9928 138.241C35.0648 138.241 34.3688 137.985 33.9048 137.473C33.4568 136.945 33.2328 136.081 33.2328 134.881V121.345L35.7048 121.057ZM41.7489 121.057V134.881C41.7489 135.425 41.8209 135.777 41.9649 135.937C42.1089 136.081 42.3969 136.153 42.8289 136.153V138.169C42.6849 138.201 42.5649 138.217 42.4689 138.217C42.3729 138.233 42.2289 138.241 42.0369 138.241C41.1089 138.241 40.4129 137.985 39.9489 137.473C39.5009 136.945 39.2769 136.081 39.2769 134.881V121.345L41.7489 121.057ZM50.1449 138.241C48.1609 138.241 46.7289 137.753 45.8489 136.777C44.9849 135.801 44.5529 134.273 44.5529 132.193C44.5529 130.113 44.9689 128.585 45.8009 127.609C46.6489 126.633 47.9449 126.145 49.6889 126.145C51.4009 126.145 52.6809 126.633 53.5289 127.609C54.3769 128.569 54.8009 130.089 54.8009 132.169V133.009H47.0969C47.1769 134.129 47.4489 134.945 47.9129 135.457C48.3929 135.969 49.1449 136.225 50.1689 136.225C50.8409 136.225 51.4889 136.129 52.1129 135.937C52.7369 135.745 53.3529 135.465 53.9609 135.097L54.6809 136.993C54.0729 137.361 53.3769 137.665 52.5929 137.905C51.8249 138.129 51.0089 138.241 50.1449 138.241ZM52.2329 131.089C52.1529 130.129 51.9129 129.409 51.5129 128.929C51.1129 128.433 50.5049 128.185 49.6889 128.185C48.0889 128.185 47.2329 129.153 47.1209 131.089H52.2329ZM62.4976 136.201C63.0896 136.201 63.6416 136.129 64.1536 135.985C64.6656 135.825 65.1696 135.609 65.6656 135.337L66.2656 137.257C65.7696 137.561 65.2016 137.801 64.5616 137.977C63.9216 138.153 63.2336 138.241 62.4976 138.241C60.4976 138.241 59.0336 137.761 58.1056 136.801C57.1936 135.841 56.7376 134.305 56.7376 132.193C56.7376 130.113 57.1856 128.585 58.0816 127.609C58.9776 126.633 60.3696 126.145 62.2576 126.145C63.9536 126.145 65.3216 126.649 66.3616 127.657L65.0656 129.337C64.2976 128.569 63.3856 128.185 62.3296 128.185C61.3216 128.185 60.5536 128.489 60.0256 129.097C59.4976 129.705 59.2336 130.737 59.2336 132.193C59.2336 133.633 59.5056 134.665 60.0496 135.289C60.5936 135.897 61.4096 136.201 62.4976 136.201ZM71.7539 128.425V133.729C71.7539 134.657 71.8819 135.305 72.1379 135.673C72.3939 136.041 72.8899 136.225 73.6259 136.225C73.9939 136.225 74.3619 136.169 74.7299 136.057C75.1139 135.945 75.4739 135.817 75.8099 135.673L76.2899 137.521C75.7779 137.761 75.2339 137.937 74.6579 138.049C74.0819 138.177 73.5139 138.241 72.9539 138.241C72.2499 138.241 71.6579 138.153 71.1779 137.977C70.7139 137.801 70.3379 137.545 70.0499 137.209C69.7779 136.857 69.5779 136.433 69.4499 135.937C69.3379 135.441 69.2819 134.865 69.2819 134.209V128.425H67.3859V126.385H69.2819V124.057L71.7539 123.601V126.385H75.8579V128.425H71.7539ZM78.5 126.385H80.996V138.001H78.5V126.385ZM78.5 121.393H80.996V124.009H78.5V121.393ZM83.7292 132.193C83.7292 130.081 84.1692 128.545 85.0492 127.585C85.9452 126.625 87.3372 126.145 89.2252 126.145C91.1132 126.145 92.4972 126.633 93.3772 127.609C94.2732 128.585 94.7212 130.113 94.7212 132.193C94.7212 134.305 94.2732 135.841 93.3772 136.801C92.4972 137.761 91.1132 138.241 89.2252 138.241C87.3372 138.241 85.9452 137.761 85.0492 136.801C84.1692 135.841 83.7292 134.305 83.7292 132.193ZM86.2012 132.193C86.2012 133.553 86.4332 134.569 86.8972 135.241C87.3772 135.897 88.1532 136.225 89.2252 136.225C90.2972 136.225 91.0652 135.897 91.5292 135.241C91.9932 134.569 92.2252 133.553 92.2252 132.193C92.2252 130.833 91.9932 129.825 91.5292 129.169C91.0652 128.513 90.2972 128.185 89.2252 128.185C88.1532 128.185 87.3772 128.513 86.8972 129.169C86.4332 129.825 86.2012 130.833 86.2012 132.193ZM99.4233 127.441C99.9353 127.041 100.503 126.729 101.127 126.505C101.751 126.265 102.423 126.145 103.143 126.145C104.503 126.145 105.487 126.473 106.095 127.129C106.719 127.785 107.031 128.833 107.031 130.273V138.001H104.535V130.801C104.535 129.841 104.367 129.161 104.031 128.761C103.711 128.361 103.231 128.161 102.591 128.161C102.079 128.161 101.583 128.249 101.103 128.425C100.639 128.585 100.167 128.825 99.6873 129.145V138.001H97.1913V126.385H99.0633L99.4233 127.441Z" fill="white"/>
</svg>
