<svg width="112" height="146" viewBox="0 0 112 146" fill="none" xmlns="http://www.w3.org/2000/svg">
<g clip-path="url(#clip0_4618_758)">
<path d="M15.7432 35.4301C16.2832 35.4301 16.8132 35.1801 17.1632 34.7101C28.3032 19.4501 43.3332 14.3801 61.9032 19.5001L66.6332 21.0001C67.0832 21.1601 67.5332 21.3001 67.9832 21.4701C68.0732 21.5001 68.1632 21.5001 68.2532 21.5101L73.7732 23.2601C74.3732 23.4501 74.8632 22.7501 74.4832 22.2501L66.0432 11.2201C65.1332 10.0301 63.2632 10.3601 62.8132 11.7801L61.5432 15.7801C42.2232 10.9201 26.0032 16.6501 14.3332 32.6401C13.7632 33.4201 13.9332 34.5201 14.7132 35.0901C15.0232 35.3201 15.3832 35.4301 15.7432 35.4301Z" fill="white"/>
<path d="M19.7419 49.2901L20.6619 46.3701C20.9319 45.5901 21.1719 44.8201 21.4719 44.0201C21.5319 43.8701 21.5319 43.7101 21.5519 43.5601L23.3919 37.7601C23.5819 37.1601 22.8819 36.6701 22.3819 37.0501L11.3519 45.4901C10.1619 46.4001 10.4919 48.2701 11.9119 48.7201L15.9219 49.9901C10.8519 69.5201 16.5319 85.9101 32.6519 97.6701C32.9619 97.9001 33.3219 98.0101 33.6819 98.0101C34.2219 98.0101 34.7519 97.7601 35.1019 97.2901C35.6719 96.5101 35.5019 95.4101 34.7219 94.8401C19.2419 83.5401 14.2419 68.2201 19.7419 49.2801V49.2901Z" fill="white"/>
<path d="M94.6335 77.3101C83.5935 92.4401 68.7135 97.5601 50.3635 92.6501L44.5835 90.8201C44.3235 90.7301 44.0735 90.6501 43.8135 90.5501C43.7635 90.5301 43.7135 90.5401 43.6635 90.5201L38.0235 88.7301C37.4235 88.5401 36.9335 89.2401 37.3135 89.7401L45.7535 100.77C46.6635 101.96 48.5335 101.63 48.9835 100.21L50.2435 96.2401C54.6935 97.3601 58.9735 97.9201 63.0735 97.9201C76.7935 97.9201 88.4735 91.6801 97.4535 79.3701C98.0235 78.5901 97.8535 77.4901 97.0735 76.9201C96.2935 76.3501 95.1935 76.5201 94.6235 77.3001L94.6335 77.3101Z" fill="white"/>
<path d="M100.09 62.77L96.1002 61.51C100.96 42.19 95.2302 25.97 79.2402 14.3C78.4602 13.73 77.3602 13.9 76.7902 14.68C76.2202 15.46 76.3902 16.56 77.1702 17.13C92.3702 28.22 97.4602 43.18 92.4402 61.64L90.7802 66.89C90.6502 67.24 90.5503 67.59 90.4103 67.95C90.3803 68.02 90.3902 68.09 90.3802 68.16L88.6102 73.74C88.4202 74.34 89.1202 74.83 89.6202 74.45L100.65 66.01C101.84 65.1 101.51 63.23 100.09 62.78V62.77Z" fill="white"/>
<path d="M54.4603 32.3801H34.0703C33.1003 32.3801 32.3203 33.1601 32.3203 34.1301V77.8801C32.3203 78.8501 33.1003 79.6301 34.0703 79.6301H77.8203C78.7903 79.6301 79.5703 78.8501 79.5703 77.8801V49.5001C79.5703 48.5301 78.7903 47.7501 77.8203 47.7501H56.2103V34.1301C56.2103 33.1601 55.4303 32.3801 54.4603 32.3801ZM52.7103 35.8801V54.2501H35.8203V35.8801H52.7103ZM35.8203 57.7501H52.7103V76.1201H35.8203V57.7501ZM56.2103 76.1201V57.7501H76.0703V76.1201H56.2103ZM76.0703 51.2401V54.2401H56.2103V51.2401H76.0703Z" fill="white"/>
<path d="M66.1413 60.0901C62.3613 60.0901 59.2812 63.1701 59.2812 66.9501C59.2812 70.7301 62.3613 73.8101 66.1413 73.8101C69.9213 73.8101 73.0013 70.7301 73.0013 66.9501C73.0013 63.1701 69.9213 60.0901 66.1413 60.0901ZM66.1413 70.3101C64.2913 70.3101 62.7812 68.8001 62.7812 66.9501C62.7812 65.1001 64.2913 63.5901 66.1413 63.5901C67.9913 63.5901 69.5013 65.1001 69.5013 66.9501C69.5013 68.8001 67.9913 70.3101 66.1413 70.3101Z" fill="white"/>
</g>
<path d="M12.4278 136.176C13.9958 136.176 15.4918 135.784 16.9158 135L17.5878 136.992C16.8518 137.408 16.0278 137.72 15.1158 137.928C14.2198 138.136 13.3158 138.24 12.4038 138.24C9.71581 138.24 7.76381 137.528 6.54781 136.104C5.33181 134.68 4.72381 132.624 4.72381 129.936C4.72381 127.088 5.33181 124.992 6.54781 123.648C7.76381 122.304 9.56381 121.632 11.9478 121.632C13.1638 121.632 14.2438 121.832 15.1878 122.232C16.1478 122.632 16.9238 123.152 17.5158 123.792L16.0758 125.376C15.5638 124.832 14.9718 124.424 14.2998 124.152C13.6438 123.864 12.8598 123.72 11.9478 123.72C10.3638 123.72 9.17981 124.216 8.39581 125.208C7.62781 126.2 7.24381 127.776 7.24381 129.936C7.24381 132.048 7.65181 133.616 8.46781 134.64C9.28381 135.664 10.6038 136.176 12.4278 136.176ZM19.5067 132.192C19.5067 130.08 19.9467 128.544 20.8267 127.584C21.7227 126.624 23.1147 126.144 25.0027 126.144C26.8907 126.144 28.2747 126.632 29.1547 127.608C30.0507 128.584 30.4987 130.112 30.4987 132.192C30.4987 134.304 30.0507 135.84 29.1547 136.8C28.2747 137.76 26.8907 138.24 25.0027 138.24C23.1147 138.24 21.7227 137.76 20.8267 136.8C19.9467 135.84 19.5067 134.304 19.5067 132.192ZM21.9787 132.192C21.9787 133.552 22.2107 134.568 22.6747 135.24C23.1547 135.896 23.9307 136.224 25.0027 136.224C26.0747 136.224 26.8427 135.896 27.3067 135.24C27.7707 134.568 28.0027 133.552 28.0027 132.192C28.0027 130.832 27.7707 129.824 27.3067 129.168C26.8427 128.512 26.0747 128.184 25.0027 128.184C23.9307 128.184 23.1547 128.512 22.6747 129.168C22.2107 129.824 21.9787 130.832 21.9787 132.192ZM35.7048 121.056V134.88C35.7048 135.424 35.7768 135.776 35.9208 135.936C36.0648 136.08 36.3528 136.152 36.7848 136.152V138.168C36.6408 138.2 36.5208 138.216 36.4248 138.216C36.3288 138.232 36.1848 138.24 35.9928 138.24C35.0648 138.24 34.3688 137.984 33.9048 137.472C33.4568 136.944 33.2328 136.08 33.2328 134.88V121.344L35.7048 121.056ZM41.7489 121.056V134.88C41.7489 135.424 41.8209 135.776 41.9649 135.936C42.1089 136.08 42.3969 136.152 42.8289 136.152V138.168C42.6849 138.2 42.5649 138.216 42.4689 138.216C42.3729 138.232 42.2289 138.24 42.0369 138.24C41.1089 138.24 40.4129 137.984 39.9489 137.472C39.5009 136.944 39.2769 136.08 39.2769 134.88V121.344L41.7489 121.056ZM50.1449 138.24C48.1609 138.24 46.7289 137.752 45.8489 136.776C44.9849 135.8 44.5529 134.272 44.5529 132.192C44.5529 130.112 44.9689 128.584 45.8009 127.608C46.6489 126.632 47.9449 126.144 49.6889 126.144C51.4009 126.144 52.6809 126.632 53.5289 127.608C54.3769 128.568 54.8009 130.088 54.8009 132.168V133.008H47.0969C47.1769 134.128 47.4489 134.944 47.9129 135.456C48.3929 135.968 49.1449 136.224 50.1689 136.224C50.8409 136.224 51.4889 136.128 52.1129 135.936C52.7369 135.744 53.3529 135.464 53.9609 135.096L54.6809 136.992C54.0729 137.36 53.3769 137.664 52.5929 137.904C51.8249 138.128 51.0089 138.24 50.1449 138.24ZM52.2329 131.088C52.1529 130.128 51.9129 129.408 51.5129 128.928C51.1129 128.432 50.5049 128.184 49.6889 128.184C48.0889 128.184 47.2329 129.152 47.1209 131.088H52.2329ZM62.4976 136.2C63.0896 136.2 63.6416 136.128 64.1536 135.984C64.6656 135.824 65.1696 135.608 65.6656 135.336L66.2656 137.256C65.7696 137.56 65.2016 137.8 64.5616 137.976C63.9216 138.152 63.2336 138.24 62.4976 138.24C60.4976 138.24 59.0336 137.76 58.1056 136.8C57.1936 135.84 56.7376 134.304 56.7376 132.192C56.7376 130.112 57.1856 128.584 58.0816 127.608C58.9776 126.632 60.3696 126.144 62.2576 126.144C63.9536 126.144 65.3216 126.648 66.3616 127.656L65.0656 129.336C64.2976 128.568 63.3856 128.184 62.3296 128.184C61.3216 128.184 60.5536 128.488 60.0256 129.096C59.4976 129.704 59.2336 130.736 59.2336 132.192C59.2336 133.632 59.5056 134.664 60.0496 135.288C60.5936 135.896 61.4096 136.2 62.4976 136.2ZM71.7539 128.424V133.728C71.7539 134.656 71.8819 135.304 72.1379 135.672C72.3939 136.04 72.8899 136.224 73.6259 136.224C73.9939 136.224 74.3619 136.168 74.7299 136.056C75.1139 135.944 75.4739 135.816 75.8099 135.672L76.2899 137.52C75.7779 137.76 75.2339 137.936 74.6579 138.048C74.0819 138.176 73.5139 138.24 72.9539 138.24C72.2499 138.24 71.6579 138.152 71.1779 137.976C70.7139 137.8 70.3379 137.544 70.0499 137.208C69.7779 136.856 69.5779 136.432 69.4499 135.936C69.3379 135.44 69.2819 134.864 69.2819 134.208V128.424H67.3859V126.384H69.2819V124.056L71.7539 123.6V126.384H75.8579V128.424H71.7539ZM78.5 126.384H80.996V138H78.5V126.384ZM78.5 121.392H80.996V124.008H78.5V121.392ZM83.7292 132.192C83.7292 130.08 84.1692 128.544 85.0492 127.584C85.9452 126.624 87.3372 126.144 89.2252 126.144C91.1132 126.144 92.4972 126.632 93.3772 127.608C94.2732 128.584 94.7212 130.112 94.7212 132.192C94.7212 134.304 94.2732 135.84 93.3772 136.8C92.4972 137.76 91.1132 138.24 89.2252 138.24C87.3372 138.24 85.9452 137.76 85.0492 136.8C84.1692 135.84 83.7292 134.304 83.7292 132.192ZM86.2012 132.192C86.2012 133.552 86.4332 134.568 86.8972 135.24C87.3772 135.896 88.1532 136.224 89.2252 136.224C90.2972 136.224 91.0652 135.896 91.5292 135.24C91.9932 134.568 92.2252 133.552 92.2252 132.192C92.2252 130.832 91.9932 129.824 91.5292 129.168C91.0652 128.512 90.2972 128.184 89.2252 128.184C88.1532 128.184 87.3772 128.512 86.8972 129.168C86.4332 129.824 86.2012 130.832 86.2012 132.192ZM99.4233 127.44C99.9353 127.04 100.503 126.728 101.127 126.504C101.751 126.264 102.423 126.144 103.143 126.144C104.503 126.144 105.487 126.472 106.095 127.128C106.719 127.784 107.031 128.832 107.031 130.272V138H104.535V130.8C104.535 129.84 104.367 129.16 104.031 128.76C103.711 128.36 103.231 128.16 102.591 128.16C102.079 128.16 101.583 128.248 101.103 128.424C100.639 128.584 100.167 128.824 99.6873 129.144V138H97.1913V126.384H99.0633L99.4233 127.44Z" fill="white"/>
<defs>
<clipPath id="clip0_4618_758">
<rect width="112" height="112" fill="white"/>
</clipPath>
</defs>
</svg>
