<svg width="67" height="69" viewBox="0 0 67 69" fill="none" xmlns="http://www.w3.org/2000/svg">
<g clip-path="url(#clip0_4720_1437)">
<path d="M43.3897 31.4208H42.0834V26.907C42.0834 26.5457 41.782 26.25 41.4135 26.25C41.0451 26.25 40.7436 26.5457 40.7436 26.907V31.4208H39.4374C39.0153 31.4208 38.7675 31.9793 39.0086 32.3867L41.2595 36.1646C41.2996 36.2303 41.3532 36.25 41.4135 36.25C41.4671 36.25 41.5274 36.2369 41.5676 36.1646L43.8184 32.3867C44.0596 31.9793 43.8184 31.4208 43.3897 31.4208Z" fill="white"/>
<path d="M43.5551 15.5696C42.4415 11.2947 38.5438 8.25 34.0756 8.25C29.6074 8.25 25.4966 11.4527 24.5205 15.9476C24.5136 15.9476 24.4999 15.9476 24.493 15.9476C19.7636 15.9476 15.9141 19.7964 15.9141 24.5249C15.9141 24.9029 16.2234 25.2122 16.6015 25.2122C16.9796 25.2122 17.2889 24.9029 17.2889 24.5249C17.2889 20.5524 20.5198 17.3222 24.493 17.3222C26.3628 17.3222 28.1295 18.0507 29.4493 19.3771C29.7174 19.6452 30.1505 19.6452 30.4186 19.3771C30.6866 19.1091 30.6866 18.6761 30.4186 18.4081C29.1743 17.1641 27.6001 16.3668 25.8954 16.0782C26.7959 12.3531 30.1917 9.63144 34.0756 9.63144C37.9595 9.63144 41.5616 12.4837 42.3384 16.4149C42.4071 16.7448 42.7096 16.9854 43.0395 16.9717H43.177C43.2251 16.9579 43.2801 16.9579 43.3282 16.9579C47.3015 16.9579 50.5324 20.1881 50.5324 24.1607C50.5324 27.1641 48.642 29.8789 45.8236 30.9235C45.4661 31.0541 45.2874 31.4527 45.418 31.8033C45.5211 32.0782 45.7823 32.25 46.0641 32.25C46.1398 32.25 46.2223 32.2363 46.3047 32.2088C49.6593 30.9717 51.9141 27.7345 51.9141 24.1607C51.9141 19.5077 48.1814 15.7002 43.5551 15.5833V15.5696Z" fill="white"/>
<path d="M20.0467 27.5942C21.3731 27.5942 22.12 27.9708 22.3364 29.0162H23.9141C23.5441 27.3409 21.9943 26.25 20.0397 26.25C17.6662 26.25 15.9141 27.8799 15.9141 30.237C15.9141 32.5942 17.6662 34.25 20.0397 34.25C21.9874 34.25 23.5441 33.1591 23.9141 31.4578H22.3364C22.113 32.5162 21.3661 32.9058 20.0467 32.9058C18.3085 32.9058 17.5615 32.2435 17.5615 30.237C17.5615 28.2305 18.3085 27.5942 20.0467 27.5942Z" fill="white"/>
<path d="M27.9141 26.25C25.6129 26.25 23.9141 27.8799 23.9141 30.237C23.9141 32.5942 25.6129 34.25 27.9141 34.25C30.2152 34.25 31.9141 32.6201 31.9141 30.237C31.9141 27.8539 30.2152 26.25 27.9141 26.25ZM27.9141 32.9058C26.2288 32.9058 25.5046 32.2435 25.5046 30.237C25.5046 28.2305 26.2288 27.5942 27.9141 27.5942C29.5993 27.5942 30.3235 28.2565 30.3235 30.237C30.3235 32.2175 29.5993 32.9058 27.9141 32.9058Z" fill="white"/>
<path d="M35.9543 31.7121C36.5718 31.0012 36.8469 30.5889 36.8469 29.9206C36.8469 28.968 36.0953 28.25 34.9074 28.25C33.7194 28.25 32.9812 29.1386 32.9141 30.2619H34.0282C34.055 29.487 34.31 29.2808 34.9074 29.2808C35.451 29.2808 35.6926 29.4656 35.6926 29.9206C35.6926 30.4538 35.3771 30.7666 34.8939 31.3353L33.0818 33.4396V34.25H36.9141V33.2618H34.612L35.9543 31.705V31.7121Z" fill="white"/>
</g>
<path d="M29.3657 50.17H30.5207V56.485C30.5207 57.845 30.2157 58.84 29.6057 59.47C28.9957 60.09 28.0507 60.4 26.7707 60.4C25.4807 60.4 24.5307 60.09 23.9207 59.47C23.3207 58.84 23.0207 57.845 23.0207 56.485V50.17H24.1757V56.725C24.1757 57.665 24.3857 58.35 24.8057 58.78C25.2357 59.21 25.8907 59.425 26.7707 59.425C27.6507 59.425 28.3007 59.21 28.7207 58.78C29.1507 58.35 29.3657 57.665 29.3657 56.725V50.17ZM34.4702 55.75C34.7002 55.84 34.9852 55.94 35.3252 56.05C35.6752 56.16 36.0202 56.28 36.3602 56.41C37.3302 56.77 37.8152 57.415 37.8152 58.345C37.8152 59.005 37.5852 59.515 37.1252 59.875C36.6652 60.235 35.9252 60.415 34.9052 60.415C34.3352 60.415 33.8502 60.35 33.4502 60.22C33.0502 60.09 32.6902 59.935 32.3702 59.755L32.7452 58.855C33.0352 59.025 33.3652 59.17 33.7352 59.29C34.1052 59.41 34.5002 59.47 34.9202 59.47C35.5602 59.47 36.0102 59.385 36.2702 59.215C36.5302 59.035 36.6602 58.765 36.6602 58.405C36.6602 57.925 36.3752 57.57 35.8052 57.34C35.4852 57.21 35.1502 57.09 34.8002 56.98C34.4602 56.87 34.1352 56.76 33.8252 56.65C33.4252 56.51 33.1052 56.295 32.8652 56.005C32.6352 55.705 32.5202 55.315 32.5202 54.835C32.5202 54.255 32.7452 53.775 33.1952 53.395C33.6552 53.015 34.3402 52.825 35.2502 52.825C35.7302 52.825 36.1602 52.875 36.5402 52.975C36.9202 53.065 37.2402 53.175 37.5002 53.305L37.1552 54.175C36.8652 54.035 36.5752 53.935 36.2852 53.875C35.9952 53.805 35.6402 53.77 35.2202 53.77C34.9202 53.77 34.6702 53.8 34.4702 53.86C34.2702 53.92 34.1102 54 33.9902 54.1C33.8802 54.19 33.8002 54.295 33.7502 54.415C33.7002 54.535 33.6752 54.655 33.6752 54.775C33.6752 55.015 33.7352 55.21 33.8552 55.36C33.9752 55.51 34.1802 55.64 34.4702 55.75ZM42.4074 60.4C41.2274 60.4 40.3874 60.095 39.8874 59.485C39.3974 58.865 39.1524 57.91 39.1524 56.62C39.1524 55.32 39.4024 54.365 39.9024 53.755C40.4024 53.145 41.1674 52.84 42.1974 52.84C43.2274 52.84 43.9924 53.14 44.4924 53.74C44.9924 54.33 45.2424 55.27 45.2424 56.56V57.04H40.3224C40.3624 57.9 40.5474 58.515 40.8774 58.885C41.2074 59.255 41.7224 59.44 42.4224 59.44C42.8424 59.44 43.2524 59.38 43.6524 59.26C44.0624 59.13 44.4424 58.955 44.7924 58.735L45.1674 59.65C44.7874 59.88 44.3574 60.065 43.8774 60.205C43.4074 60.335 42.9174 60.4 42.4074 60.4ZM44.0724 56.11C44.0224 55.33 43.8474 54.755 43.5474 54.385C43.2474 54.005 42.7974 53.815 42.1974 53.815C41.5974 53.815 41.1474 54.005 40.8474 54.385C40.5474 54.755 40.3724 55.33 40.3224 56.11H44.0724Z" fill="white"/>
<defs>
<clipPath id="clip0_4720_1437">
<rect width="44" height="44" fill="white" transform="translate(11.9141 0.25)"/>
</clipPath>
</defs>
</svg>
