<svg width="138" height="146" viewBox="0 0 138 146" fill="none" xmlns="http://www.w3.org/2000/svg">
<path d="M89.1383 65.0506C89.1383 65.0506 95.2983 60.2706 93.7283 50.4106C91.6183 37.1306 81.4883 28.3406 81.4883 28.3406" stroke="white" stroke-width="3.5" stroke-miterlimit="10" stroke-linecap="round"/>
<path d="M93.729 50.4107C93.729 50.4107 79.569 51.0907 72.379 39.4007C66.499 29.8407 69.789 20.2607 71.179 17.0907C71.479 16.4107 72.139 15.9807 72.889 16.0007C76.789 16.0807 89.409 17.1007 96.199 26.6807C104.299 38.1007 93.729 50.4107 93.729 50.4107Z" stroke="white" stroke-width="3.5" stroke-miterlimit="10" stroke-linecap="round"/>
<path d="M106.556 29.2193C108.622 30.5696 110 32.9276 110 35.6081V75.3919C110 79.594 106.626 83 102.463 83H35.5371C31.3742 83 28 79.594 28 75.3919V35.6081C28 31.406 31.3742 28 35.5371 28H61.5527" stroke="white" stroke-width="3.5" stroke-miterlimit="10" stroke-linecap="round"/>
<path d="M62 83V89.8383C62 93.2391 59.0197 96 55.3487 96H50" stroke="white" stroke-width="3.5" stroke-miterlimit="10" stroke-linecap="round"/>
<path d="M74 83V89.8383C74 93.2391 76.9803 96 80.6513 96H86" stroke="white" stroke-width="3.5" stroke-miterlimit="10" stroke-linecap="round"/>
<path d="M53 96H83" stroke="white" stroke-width="3.5" stroke-miterlimit="10" stroke-linecap="round"/>
<path d="M70.9696 61.6366L68.0064 60.0161C68.3225 58.8666 68.5003 57.6606 68.5003 56.3981C68.5003 55.1356 68.3225 53.9484 68.0064 52.7801L70.9696 51.1407C71.4437 50.8769 71.6214 50.2928 71.3449 49.8217L68.2435 44.6962C67.9669 44.244 67.3545 44.0744 66.8607 44.3382L63.8778 45.9776C62.0801 44.3005 59.8282 43.0757 57.3391 42.4162V39.0997C57.3391 38.5721 56.8848 38.1387 56.3317 38.1387H50.1288C49.5757 38.1387 49.1214 38.5721 49.1214 39.0997V42.4727C46.6718 43.1511 44.4594 44.3947 42.7012 46.053L39.6196 44.3571C39.1455 44.0932 38.5133 44.244 38.2368 44.7151L35.1354 49.8405C34.8588 50.2928 35.0168 50.8958 35.5107 51.1596L38.6319 52.8743C38.3355 54.005 38.1578 55.1733 38.1578 56.3981C38.1578 57.6229 38.3355 58.7912 38.6319 59.9218L35.5107 61.6366C35.0366 61.9004 34.8588 62.4846 35.1354 62.9557L38.2368 68.0811C38.5133 68.5334 39.1257 68.7029 39.6196 68.4391L42.7012 66.7432C44.4791 68.4014 46.6718 69.6451 49.1411 70.3235V73.6777C49.1411 74.2053 49.5955 74.6387 50.1486 74.6387H56.3514C56.9045 74.6387 57.3589 74.2053 57.3589 73.6777V70.3612C59.8479 69.7017 62.0999 68.4768 63.8975 66.7997L66.8804 68.4391C67.3545 68.7029 67.9867 68.5522 68.2632 68.0811L71.3646 62.9557C71.6412 62.5034 71.4832 61.9004 70.9893 61.6366H70.9696Z" stroke="white" stroke-width="3.5" stroke-miterlimit="10" stroke-linecap="round"/>
<rect x="46.75" y="49.8887" width="12.5" height="12.5" rx="6.25" stroke="white" stroke-width="3.5"/>
<path d="M15.3137 132.936C15.3137 135.688 14.6257 137.72 13.2497 139.032C11.8737 140.344 9.86569 141 7.22569 141H2.37769V124.872H7.22569C9.88169 124.872 11.8897 125.536 13.2497 126.864C14.6257 128.192 15.3137 130.216 15.3137 132.936ZM4.89769 126.96V138.936H7.22569C9.01769 138.936 10.3937 138.464 11.3537 137.52C12.3137 136.56 12.7937 135.032 12.7937 132.936C12.7937 130.856 12.3137 129.344 11.3537 128.4C10.3937 127.44 9.01769 126.96 7.22569 126.96H4.89769ZM22.7602 141.24C20.7762 141.24 19.3442 140.752 18.4642 139.776C17.6002 138.8 17.1682 137.272 17.1682 135.192C17.1682 133.112 17.5842 131.584 18.4162 130.608C19.2642 129.632 20.5602 129.144 22.3042 129.144C24.0162 129.144 25.2962 129.632 26.1442 130.608C26.9922 131.568 27.4162 133.088 27.4162 135.168V136.008H19.7122C19.7922 137.128 20.0642 137.944 20.5282 138.456C21.0082 138.968 21.7602 139.224 22.7842 139.224C23.4562 139.224 24.1042 139.128 24.7282 138.936C25.3522 138.744 25.9682 138.464 26.5762 138.096L27.2962 139.992C26.6882 140.36 25.9922 140.664 25.2082 140.904C24.4402 141.128 23.6242 141.24 22.7602 141.24ZM24.8482 134.088C24.7682 133.128 24.5282 132.408 24.1282 131.928C23.7282 131.432 23.1202 131.184 22.3042 131.184C20.7042 131.184 19.8482 132.152 19.7362 134.088H24.8482ZM32.9769 141L28.5849 129.384H31.1529L33.0969 134.952L34.2249 138.144H34.2729L35.4249 134.952L37.3449 129.384H39.9129L35.5209 141H32.9769ZM46.4265 141.24C44.4425 141.24 43.0105 140.752 42.1305 139.776C41.2665 138.8 40.8345 137.272 40.8345 135.192C40.8345 133.112 41.2505 131.584 42.0825 130.608C42.9305 129.632 44.2265 129.144 45.9705 129.144C47.6825 129.144 48.9625 129.632 49.8105 130.608C50.6585 131.568 51.0825 133.088 51.0825 135.168V136.008H43.3785C43.4585 137.128 43.7305 137.944 44.1945 138.456C44.6745 138.968 45.4265 139.224 46.4505 139.224C47.1225 139.224 47.7705 139.128 48.3945 138.936C49.0185 138.744 49.6345 138.464 50.2425 138.096L50.9625 139.992C50.3545 140.36 49.6585 140.664 48.8745 140.904C48.1065 141.128 47.2905 141.24 46.4265 141.24ZM48.5145 134.088C48.4345 133.128 48.1945 132.408 47.7945 131.928C47.3945 131.432 46.7865 131.184 45.9705 131.184C44.3705 131.184 43.5145 132.152 43.4025 134.088H48.5145ZM56.2592 124.056V137.88C56.2592 138.424 56.3312 138.776 56.4752 138.936C56.6192 139.08 56.9072 139.152 57.3392 139.152V141.168C57.1952 141.2 57.0752 141.216 56.9792 141.216C56.8832 141.232 56.7392 141.24 56.5472 141.24C55.6192 141.24 54.9232 140.984 54.4592 140.472C54.0112 139.944 53.7872 139.08 53.7872 137.88V124.344L56.2592 124.056ZM59.0633 135.192C59.0633 133.08 59.5033 131.544 60.3833 130.584C61.2793 129.624 62.6713 129.144 64.5593 129.144C66.4473 129.144 67.8313 129.632 68.7113 130.608C69.6073 131.584 70.0553 133.112 70.0553 135.192C70.0553 137.304 69.6073 138.84 68.7113 139.8C67.8313 140.76 66.4473 141.24 64.5593 141.24C62.6713 141.24 61.2793 140.76 60.3833 139.8C59.5033 138.84 59.0633 137.304 59.0633 135.192ZM61.5353 135.192C61.5353 136.552 61.7673 137.568 62.2313 138.24C62.7113 138.896 63.4873 139.224 64.5593 139.224C65.6313 139.224 66.3993 138.896 66.8633 138.24C67.3273 137.568 67.5593 136.552 67.5593 135.192C67.5593 133.832 67.3273 132.824 66.8633 132.168C66.3993 131.512 65.6313 131.184 64.5593 131.184C63.4873 131.184 62.7113 131.512 62.2313 132.168C61.7673 132.824 61.5353 133.832 61.5353 135.192ZM74.4214 129.384L74.7334 130.296C75.5334 129.528 76.5494 129.144 77.7814 129.144C79.4294 129.144 80.6774 129.632 81.5254 130.608C82.3734 131.584 82.7974 133.112 82.7974 135.192C82.7974 137.272 82.3894 138.8 81.5734 139.776C80.7574 140.752 79.6294 141.24 78.1894 141.24C77.5974 141.24 77.0134 141.144 76.4374 140.952C75.8614 140.76 75.3894 140.512 75.0214 140.208V145.992H72.5254V129.384H74.4214ZM77.4694 131.16C76.9894 131.16 76.5414 131.248 76.1254 131.424C75.7094 131.584 75.3414 131.808 75.0214 132.096V138.288C75.3414 138.592 75.7094 138.832 76.1254 139.008C76.5414 139.168 76.9814 139.248 77.4454 139.248C78.4054 139.248 79.1174 138.936 79.5814 138.312C80.0614 137.688 80.3014 136.648 80.3014 135.192C80.3014 133.736 80.0694 132.704 79.6054 132.096C79.1414 131.472 78.4294 131.16 77.4694 131.16ZM87.4566 130.296C88.0166 129.928 88.5766 129.648 89.1366 129.456C89.7126 129.248 90.3206 129.144 90.9606 129.144C91.7286 129.144 92.3526 129.256 92.8326 129.48C93.3286 129.688 93.7126 130.048 93.9846 130.56C94.5286 130.128 95.1206 129.784 95.7606 129.528C96.4006 129.272 97.0806 129.144 97.8006 129.144C99.1446 129.144 100.081 129.48 100.609 130.152C101.137 130.808 101.401 131.848 101.401 133.272V141H98.9046V133.8C98.9046 132.824 98.7766 132.144 98.5206 131.76C98.2646 131.36 97.8326 131.16 97.2246 131.16C96.7926 131.16 96.3446 131.248 95.8806 131.424C95.4326 131.6 94.9766 131.848 94.5126 132.168C94.5606 132.488 94.5846 132.856 94.5846 133.272V141H92.1126V133.8C92.1126 132.824 91.9926 132.144 91.7526 131.76C91.5126 131.36 91.0646 131.16 90.4086 131.16C89.9606 131.16 89.5206 131.24 89.0886 131.4C88.6726 131.56 88.2326 131.8 87.7686 132.12V141H85.2726V129.384H87.1446L87.4566 130.296ZM109.319 141.24C107.335 141.24 105.903 140.752 105.023 139.776C104.159 138.8 103.727 137.272 103.727 135.192C103.727 133.112 104.143 131.584 104.975 130.608C105.823 129.632 107.119 129.144 108.863 129.144C110.575 129.144 111.855 129.632 112.703 130.608C113.551 131.568 113.975 133.088 113.975 135.168V136.008H106.271C106.351 137.128 106.623 137.944 107.087 138.456C107.567 138.968 108.319 139.224 109.343 139.224C110.015 139.224 110.663 139.128 111.287 138.936C111.911 138.744 112.527 138.464 113.135 138.096L113.855 139.992C113.247 140.36 112.551 140.664 111.767 140.904C110.999 141.128 110.183 141.24 109.319 141.24ZM111.407 134.088C111.327 133.128 111.087 132.408 110.687 131.928C110.287 131.432 109.679 131.184 108.863 131.184C107.263 131.184 106.407 132.152 106.295 134.088H111.407ZM118.647 130.44C119.159 130.04 119.727 129.728 120.351 129.504C120.975 129.264 121.647 129.144 122.367 129.144C123.727 129.144 124.711 129.472 125.319 130.128C125.943 130.784 126.255 131.832 126.255 133.272V141H123.759V133.8C123.759 132.84 123.591 132.16 123.255 131.76C122.935 131.36 122.455 131.16 121.815 131.16C121.303 131.16 120.807 131.248 120.327 131.424C119.863 131.584 119.391 131.824 118.911 132.144V141H116.415V129.384H118.287L118.647 130.44ZM132.404 131.424V136.728C132.404 137.656 132.532 138.304 132.788 138.672C133.044 139.04 133.54 139.224 134.276 139.224C134.644 139.224 135.012 139.168 135.38 139.056C135.764 138.944 136.124 138.816 136.46 138.672L136.94 140.52C136.428 140.76 135.884 140.936 135.308 141.048C134.732 141.176 134.164 141.24 133.604 141.24C132.9 141.24 132.308 141.152 131.828 140.976C131.364 140.8 130.988 140.544 130.7 140.208C130.428 139.856 130.228 139.432 130.1 138.936C129.988 138.44 129.932 137.864 129.932 137.208V131.424H128.036V129.384H129.932V127.056L132.404 126.6V129.384H136.508V131.424H132.404Z" fill="white"/>
</svg>
