<svg width="112" height="146" viewBox="0 0 112 146" fill="none" xmlns="http://www.w3.org/2000/svg">
<path fill-rule="evenodd" clip-rule="evenodd" d="M102.953 34.45C102.953 28.6786 98.2748 24 92.5034 24H51.4034C45.632 24 40.9534 28.6786 40.9534 34.45V37.0009H26.5668H25.923L25.6565 37.5868L16.1048 58.5868L15.9159 59.0021L15.1945 59.3252C11.4351 61.0086 9.01534 64.7435 9.01534 68.8626V70.5509C9.01534 74.8112 11.5648 78.4762 15.2214 80.1031C16.1874 84.6161 20.1985 88 24.9999 88C29.4772 88 33.2673 85.0575 34.5418 81.0009H58.0153V81H74.4578C75.7321 85.0571 79.5224 88 84 88C88.497 88 92.3006 85.0316 93.5586 80.9474C98.8344 80.4184 102.953 75.9652 102.953 70.55V60.3198V60.2479C102.974 60.1686 102.984 60.0856 102.984 60C102.984 59.9144 102.974 59.8314 102.953 59.7521V34.45ZM34.9504 79.0009C34.9831 78.6717 34.9999 78.3378 34.9999 78C34.9999 72.4772 30.5227 68 24.9999 68C19.5679 68 15.1475 72.331 15.0035 77.7282C12.609 76.2364 11.0153 73.5798 11.0153 70.5509V68.8626C11.0153 65.5318 12.972 62.5118 16.0119 61.1505L18.5792 60.0009H40.9534V70.55C40.9534 74.0232 42.6479 77.1007 45.2552 79.0009H34.9504ZM51.4034 79H74.0494C74.0167 78.6711 74 78.3375 74 78C74 72.4772 78.4771 68 84 68C89.5228 68 94 72.4772 94 78C94 78.2947 93.9873 78.5863 93.9623 78.8745C97.9338 78.1833 100.953 74.7193 100.953 70.55V61L42.9844 61C42.974 61 42.9637 60.9998 42.9534 60.9995V70.55C42.9534 75.2168 46.7366 79 51.4034 79ZM42.9534 34.45V59.0005C42.9637 59.0002 42.974 59 42.9844 59L100.953 59V34.45C100.953 29.7832 97.1702 26 92.5034 26H51.4034C46.7366 26 42.9534 29.7832 42.9534 34.45ZM40.0151 39.0009V58.0009H18.5685L27.2105 39.0009H40.0151ZM84 86C79.5817 86 76 82.4183 76 78C76 73.5817 79.5817 70 84 70C88.4183 70 92 73.5817 92 78C92 82.4183 88.4183 86 84 86ZM16.9999 78C16.9999 82.4183 20.5816 86 24.9999 86C29.4181 86 32.9999 82.4183 32.9999 78C32.9999 73.5817 29.4181 70 24.9999 70C20.5816 70 16.9999 73.5817 16.9999 78Z" fill="white"/>
<path d="M64 47H63V49H64V47ZM83 49C83.5523 49 84 48.5523 84 48C84 47.4477 83.5523 47 83 47V49ZM64 49H83V47H64V49Z" fill="white"/>
<path d="M64 35H63V37H64V35ZM89 37C89.5523 37 90 36.5523 90 36C90 35.4477 89.5523 35 89 35V37ZM64 37H89V35H64V37Z" fill="white"/>
<path d="M28.0505 130.944C28.0505 130.624 28.0105 130.344 27.9305 130.104C27.8505 129.864 27.6985 129.64 27.4745 129.432C27.2505 129.224 26.9385 129.024 26.5385 128.832C26.1385 128.624 25.6265 128.408 25.0025 128.184C23.9465 127.832 23.0585 127.488 22.3385 127.152C21.6185 126.8 21.0345 126.424 20.5865 126.024C20.1385 125.624 19.8185 125.184 19.6265 124.704C19.4345 124.208 19.3385 123.64 19.3385 123C19.3385 121.656 19.8185 120.592 20.7785 119.808C21.7545 119.024 23.2345 118.632 25.2185 118.632C26.1305 118.632 26.9705 118.752 27.7385 118.992C28.5065 119.216 29.2345 119.536 29.9225 119.952L29.0345 121.872C28.4425 121.504 27.8265 121.216 27.1865 121.008C26.5465 120.8 25.8905 120.696 25.2185 120.696C24.0505 120.696 23.1945 120.888 22.6505 121.272C22.1225 121.64 21.8585 122.16 21.8585 122.832C21.8585 123.168 21.9065 123.472 22.0025 123.744C22.1145 124 22.3065 124.248 22.5785 124.488C22.8505 124.728 23.2185 124.96 23.6825 125.184C24.1625 125.408 24.7785 125.64 25.5305 125.88C26.4265 126.168 27.1945 126.464 27.8345 126.768C28.4745 127.072 28.9945 127.416 29.3945 127.8C29.8105 128.168 30.1065 128.6 30.2825 129.096C30.4745 129.576 30.5705 130.144 30.5705 130.8C30.5705 132.208 30.0745 133.304 29.0825 134.088C28.0905 134.856 26.5545 135.24 24.4745 135.24C23.4025 135.24 22.4025 135.12 21.4745 134.88C20.5625 134.64 19.7385 134.312 19.0025 133.896L19.8425 131.976C20.6105 132.376 21.3625 132.68 22.0985 132.888C22.8505 133.096 23.6105 133.2 24.3785 133.2C25.5945 133.2 26.5065 133.008 27.1145 132.624C27.7385 132.224 28.0505 131.664 28.0505 130.944ZM38.1609 135.24C36.1769 135.24 34.7449 134.752 33.8649 133.776C33.0009 132.8 32.5689 131.272 32.5689 129.192C32.5689 127.112 32.9849 125.584 33.8169 124.608C34.6649 123.632 35.9609 123.144 37.7049 123.144C39.4169 123.144 40.6969 123.632 41.5449 124.608C42.3929 125.568 42.8169 127.088 42.8169 129.168V130.008H35.1129C35.1929 131.128 35.4649 131.944 35.9289 132.456C36.4089 132.968 37.1609 133.224 38.1849 133.224C38.8569 133.224 39.5049 133.128 40.1289 132.936C40.7529 132.744 41.3689 132.464 41.9769 132.096L42.6969 133.992C42.0889 134.36 41.3929 134.664 40.6089 134.904C39.8409 135.128 39.0249 135.24 38.1609 135.24ZM40.2489 128.088C40.1689 127.128 39.9289 126.408 39.5289 125.928C39.1289 125.432 38.5209 125.184 37.7049 125.184C36.1049 125.184 35.2489 126.152 35.1369 128.088H40.2489ZM47.1776 123.384L47.4176 124.776C48.4096 123.688 49.5856 123.144 50.9456 123.144C51.4896 123.144 52.0256 123.256 52.5536 123.48V125.616C52.2816 125.488 52.0016 125.392 51.7136 125.328C51.4416 125.248 51.1456 125.208 50.8256 125.208C50.2496 125.208 49.6896 125.344 49.1456 125.616C48.6016 125.888 48.1376 126.232 47.7536 126.648V135H45.2576V123.384H47.1776ZM58.0779 135L53.6859 123.384H56.2539L58.1979 128.952L59.3259 132.144H59.3739L60.5259 128.952L62.4459 123.384H65.0139L60.6219 135H58.0779ZM66.9847 123.384H69.4807V135H66.9847V123.384ZM66.9847 118.392H69.4807V121.008H66.9847V118.392ZM77.9739 133.2C78.5659 133.2 79.1179 133.128 79.6299 132.984C80.1419 132.824 80.6459 132.608 81.1419 132.336L81.7419 134.256C81.2459 134.56 80.6779 134.8 80.0379 134.976C79.3979 135.152 78.7099 135.24 77.9739 135.24C75.9739 135.24 74.5099 134.76 73.5819 133.8C72.6699 132.84 72.2139 131.304 72.2139 129.192C72.2139 127.112 72.6619 125.584 73.5579 124.608C74.4539 123.632 75.8459 123.144 77.7339 123.144C79.4299 123.144 80.7979 123.648 81.8379 124.656L80.5419 126.336C79.7739 125.568 78.8619 125.184 77.8059 125.184C76.7979 125.184 76.0299 125.488 75.5019 126.096C74.9739 126.704 74.7099 127.736 74.7099 129.192C74.7099 130.632 74.9819 131.664 75.5259 132.288C76.0699 132.896 76.8859 133.2 77.9739 133.2ZM88.3968 135.24C86.4128 135.24 84.9808 134.752 84.1008 133.776C83.2368 132.8 82.8048 131.272 82.8048 129.192C82.8048 127.112 83.2208 125.584 84.0528 124.608C84.9008 123.632 86.1968 123.144 87.9408 123.144C89.6528 123.144 90.9328 123.632 91.7808 124.608C92.6288 125.568 93.0528 127.088 93.0528 129.168V130.008H85.3488C85.4288 131.128 85.7008 131.944 86.1648 132.456C86.6448 132.968 87.3968 133.224 88.4208 133.224C89.0928 133.224 89.7408 133.128 90.3648 132.936C90.9888 132.744 91.6048 132.464 92.2128 132.096L92.9328 133.992C92.3248 134.36 91.6288 134.664 90.8448 134.904C90.0768 135.128 89.2608 135.24 88.3968 135.24ZM90.4848 128.088C90.4048 127.128 90.1648 126.408 89.7648 125.928C89.3648 125.432 88.7568 125.184 87.9408 125.184C86.3408 125.184 85.4848 126.152 85.3728 128.088H90.4848Z" fill="white"/>
</svg>
