<svg width="131" height="131" viewBox="0 0 131 131" fill="none" xmlns="http://www.w3.org/2000/svg">
<path d="M59.6041 16.9634C57.5146 17.3333 55.4865 17.8813 53.5358 18.5911C48.4702 20.4345 43.9274 23.3695 40.191 27.1121C36.4187 30.8906 33.4684 35.4924 31.6315 40.6253C30.9979 42.3958 30.4968 44.2296 30.1402 46.1145L36.5064 40.6253M72.3959 88.9634C74.4854 88.5934 76.5135 88.0455 78.4642 87.3356C81.7401 86.1435 84.7973 84.4949 87.5592 82.4666C89.0681 81.3584 90.4889 80.1369 91.809 78.8146C93.1445 77.4769 94.3771 76.0359 95.4936 74.5048C97.5308 71.7111 99.1819 68.6171 100.368 65.3015C101.09 63.2851 101.64 61.1867 102 59.0241L95.4936 65.3015M30 59.0241C30.3602 61.1867 30.91 63.2851 31.6315 65.3015C32.8181 68.6171 34.4692 71.7111 36.5064 74.5048C37.6229 76.0359 38.8555 77.4769 40.191 78.8146C43.9274 82.5573 48.4702 85.4922 53.5358 87.3356C55.4865 88.0455 57.5146 88.5934 59.6041 88.9634L53.5358 82.4666M101.605 44.8857C101.278 43.4308 100.864 42.0087 100.368 40.6253C99.1819 37.3097 97.8886 34.7082 95.4936 31.422C94.1892 29.6322 93.1445 28.4499 91.809 27.1121C88.0726 23.3695 83.5298 20.4345 78.4642 18.5911C76.5135 17.8813 74.4854 17.3333 72.3959 16.9634L78.4642 23.8683" stroke="#7E7C77" stroke-width="1.52" stroke-linejoin="round"/>
<path fill-rule="evenodd" clip-rule="evenodd" d="M47.5293 36.0298H48.2793H63.7066H64.4566V36.7798V45.5377V46.2877H63.7066H48.2793H47.5293V45.5377V36.7798V36.0298ZM49.0293 37.5298V44.7877H62.9566V37.5298H49.0293ZM65.8755 36.0298H66.6255H83.7206H84.4706V36.7798V69.146V69.896H83.7206H66.6255H65.8755V69.146V36.7798V36.0298ZM67.3755 37.5298V57.3554H82.9706V37.5298H67.3755ZM67.3755 68.396V58.8554H82.9706V68.396H67.3755ZM48.2793 48.9769H47.5293V49.7269V69.1466V69.8966H48.2793H63.7066H64.4566V69.1466V49.7269V48.9769H63.7066H48.2793ZM49.0293 68.3966V50.4769H62.9566V68.3966H49.0293ZM81.0101 60.4005H69.3354V61.9005H81.0101V60.4005ZM55.1587 52.0219H56.8265V53.5219H55.1587V52.0219ZM69.2104 43.0646V52.584H70.7104V43.0646H69.2104ZM52.6572 46.688H59.3285V48.188H52.6572V46.688ZM51.5308 61.3397C51.5308 59.1878 53.4629 57.33 55.9927 57.33C58.5224 57.33 60.4546 59.1878 60.4546 61.3397C60.4546 63.4916 58.5224 65.3495 55.9927 65.3495C53.4629 65.3495 51.5308 63.4916 51.5308 61.3397ZM55.9927 55.83C52.7655 55.83 50.0308 58.2342 50.0308 61.3397C50.0308 64.4453 52.7655 66.8495 55.9927 66.8495C59.2198 66.8495 61.9546 64.4453 61.9546 61.3397C61.9546 58.2342 59.2198 55.83 55.9927 55.83Z" fill="#7E7C77"/>
<path d="M14.6658 119.72C16.4951 119.72 18.2404 119.263 19.9018 118.348L20.6858 120.672C19.8271 121.157 18.8658 121.521 17.8018 121.764C16.7564 122.007 15.7018 122.128 14.6378 122.128C11.5018 122.128 9.22445 121.297 7.80578 119.636C6.38712 117.975 5.67778 115.576 5.67778 112.44C5.67778 109.117 6.38712 106.672 7.80578 105.104C9.22445 103.536 11.3244 102.752 14.1058 102.752C15.5244 102.752 16.7844 102.985 17.8858 103.452C19.0058 103.919 19.9111 104.525 20.6018 105.272L18.9218 107.12C18.3244 106.485 17.6338 106.009 16.8498 105.692C16.0844 105.356 15.1698 105.188 14.1058 105.188C12.2578 105.188 10.8764 105.767 9.96178 106.924C9.06578 108.081 8.61778 109.92 8.61778 112.44C8.61778 114.904 9.09378 116.733 10.0458 117.928C10.9978 119.123 12.5378 119.72 14.6658 119.72ZM22.9245 115.072C22.9245 112.608 23.4378 110.816 24.4645 109.696C25.5098 108.576 27.1338 108.016 29.3365 108.016C31.5391 108.016 33.1538 108.585 34.1805 109.724C35.2258 110.863 35.7485 112.645 35.7485 115.072C35.7485 117.536 35.2258 119.328 34.1805 120.448C33.1538 121.568 31.5391 122.128 29.3365 122.128C27.1338 122.128 25.5098 121.568 24.4645 120.448C23.4378 119.328 22.9245 117.536 22.9245 115.072ZM25.8085 115.072C25.8085 116.659 26.0791 117.844 26.6205 118.628C27.1805 119.393 28.0858 119.776 29.3365 119.776C30.5871 119.776 31.4831 119.393 32.0245 118.628C32.5658 117.844 32.8365 116.659 32.8365 115.072C32.8365 113.485 32.5658 112.309 32.0245 111.544C31.4831 110.779 30.5871 110.396 29.3365 110.396C28.0858 110.396 27.1805 110.779 26.6205 111.544C26.0791 112.309 25.8085 113.485 25.8085 115.072ZM41.8223 102.08V118.208C41.8223 118.843 41.9063 119.253 42.0743 119.44C42.2423 119.608 42.5783 119.692 43.0823 119.692V122.044C42.9143 122.081 42.7743 122.1 42.6623 122.1C42.5503 122.119 42.3823 122.128 42.1583 122.128C41.0756 122.128 40.2636 121.829 39.7223 121.232C39.1996 120.616 38.9383 119.608 38.9383 118.208V102.416L41.8223 102.08ZM48.8737 102.08V118.208C48.8737 118.843 48.9577 119.253 49.1257 119.44C49.2937 119.608 49.6297 119.692 50.1337 119.692V122.044C49.9657 122.081 49.8257 122.1 49.7137 122.1C49.6017 122.119 49.4337 122.128 49.2097 122.128C48.127 122.128 47.315 121.829 46.7737 121.232C46.251 120.616 45.9897 119.608 45.9897 118.208V102.416L48.8737 102.08ZM58.6691 122.128C56.3544 122.128 54.6838 121.559 53.6571 120.42C52.6491 119.281 52.1451 117.499 52.1451 115.072C52.1451 112.645 52.6304 110.863 53.6011 109.724C54.5904 108.585 56.1024 108.016 58.1371 108.016C60.1344 108.016 61.6278 108.585 62.6171 109.724C63.6064 110.844 64.1011 112.617 64.1011 115.044V116.024H55.1131C55.2064 117.331 55.5238 118.283 56.0651 118.88C56.6251 119.477 57.5024 119.776 58.6971 119.776C59.4811 119.776 60.2371 119.664 60.9651 119.44C61.6931 119.216 62.4118 118.889 63.1211 118.46L63.9611 120.672C63.2518 121.101 62.4398 121.456 61.5251 121.736C60.6291 121.997 59.6771 122.128 58.6691 122.128ZM61.1051 113.784C61.0118 112.664 60.7318 111.824 60.2651 111.264C59.7984 110.685 59.0891 110.396 58.1371 110.396C56.2704 110.396 55.2718 111.525 55.1411 113.784H61.1051ZM73.0806 119.748C73.7712 119.748 74.4152 119.664 75.0126 119.496C75.6099 119.309 76.1979 119.057 76.7766 118.74L77.4766 120.98C76.8979 121.335 76.2352 121.615 75.4886 121.82C74.7419 122.025 73.9392 122.128 73.0806 122.128C70.7472 122.128 69.0392 121.568 67.9566 120.448C66.8926 119.328 66.3606 117.536 66.3606 115.072C66.3606 112.645 66.8832 110.863 67.9286 109.724C68.9739 108.585 70.5979 108.016 72.8006 108.016C74.7792 108.016 76.3752 108.604 77.5886 109.78L76.0766 111.74C75.1806 110.844 74.1166 110.396 72.8846 110.396C71.7086 110.396 70.8126 110.751 70.1966 111.46C69.5806 112.169 69.2726 113.373 69.2726 115.072C69.2726 116.752 69.5899 117.956 70.2246 118.684C70.8592 119.393 71.8112 119.748 73.0806 119.748ZM83.8796 110.676V116.864C83.8796 117.947 84.0289 118.703 84.3276 119.132C84.6263 119.561 85.2049 119.776 86.0636 119.776C86.4929 119.776 86.9223 119.711 87.3516 119.58C87.7996 119.449 88.2196 119.3 88.6116 119.132L89.1716 121.288C88.5743 121.568 87.9396 121.773 87.2676 121.904C86.5956 122.053 85.9329 122.128 85.2796 122.128C84.4583 122.128 83.7676 122.025 83.2076 121.82C82.6663 121.615 82.2276 121.316 81.8916 120.924C81.5743 120.513 81.3409 120.019 81.1916 119.44C81.0609 118.861 80.9956 118.189 80.9956 117.424V110.676H78.7836V108.296H80.9956V105.58L83.8796 105.048V108.296H88.6676V110.676H83.8796ZM91.75 108.296H94.662V121.848H91.75V108.296ZM91.75 102.472H94.662V105.524H91.75V102.472ZM97.8507 115.072C97.8507 112.608 98.364 110.816 99.3907 109.696C100.436 108.576 102.06 108.016 104.263 108.016C106.465 108.016 108.08 108.585 109.107 109.724C110.152 110.863 110.675 112.645 110.675 115.072C110.675 117.536 110.152 119.328 109.107 120.448C108.08 121.568 106.465 122.128 104.263 122.128C102.06 122.128 100.436 121.568 99.3907 120.448C98.364 119.328 97.8507 117.536 97.8507 115.072ZM100.735 115.072C100.735 116.659 101.005 117.844 101.547 118.628C102.107 119.393 103.012 119.776 104.263 119.776C105.513 119.776 106.409 119.393 106.951 118.628C107.492 117.844 107.763 116.659 107.763 115.072C107.763 113.485 107.492 112.309 106.951 111.544C106.409 110.779 105.513 110.396 104.263 110.396C103.012 110.396 102.107 110.779 101.547 111.544C101.005 112.309 100.735 113.485 100.735 115.072ZM116.161 109.528C116.758 109.061 117.421 108.697 118.149 108.436C118.877 108.156 119.661 108.016 120.501 108.016C122.087 108.016 123.235 108.399 123.945 109.164C124.673 109.929 125.037 111.152 125.037 112.832V121.848H122.125V113.448C122.125 112.328 121.929 111.535 121.537 111.068C121.163 110.601 120.603 110.368 119.857 110.368C119.259 110.368 118.681 110.471 118.121 110.676C117.579 110.863 117.029 111.143 116.469 111.516V121.848H113.557V108.296H115.741L116.161 109.528Z" fill="#7E7C77"/>
</svg>
