<svg width="131" height="131" viewBox="0 0 131 131" fill="none" xmlns="http://www.w3.org/2000/svg">
<path d="M83.3448 32.3441L69.2504 8.08928C68.3904 6.60922 66.8018 5.69873 65.0818 5.69873C63.3618 5.69873 61.7732 6.61062 60.9132 8.08928L52.271 22.9601L60.6082 27.7426L65.0818 20.0449L75.0076 37.1253L71.6934 39.0262L86.6591 47.6092V30.4418L83.3462 32.3427L83.3448 32.3441Z" stroke="#75C66B" stroke-width="2" stroke-linejoin="round"/>
<path d="M100.522 62.4477L91.9065 47.6091L83.5949 52.3813L88.0548 60.0623H68.2641V56.2687L53.3457 64.8344L68.2641 73.4002V69.6066H96.3678C98.0825 69.6066 99.6662 68.6966 100.524 67.2212C101.381 65.7443 101.381 63.9259 100.524 62.4491L100.522 62.4477Z" stroke="#75C66B" stroke-width="2" stroke-linejoin="round"/>
<path d="M52.1886 42.4576L55.4949 44.3585V27.1912L40.564 35.7741L43.8702 37.6751L29.8099 61.9285C28.952 63.4086 28.952 65.231 29.8099 66.7111C30.6678 68.1911 32.2526 69.1016 33.9684 69.1016H51.211V59.5366H42.2868L52.1886 42.4562V42.4576Z" stroke="#75C66B" stroke-width="2" stroke-linejoin="round"/>
<path d="M13.1272 98.0204V104.32H17.1032C19.4552 104.32 20.6312 103.275 20.6312 101.184C20.6312 99.0751 19.4739 98.0204 17.1592 98.0204H13.1272ZM10.1872 114.4V95.5844H17.1032C21.4712 95.5844 23.6552 97.4511 23.6552 101.184C23.6552 102.416 23.3472 103.471 22.7312 104.348C22.1339 105.226 21.2659 105.87 20.1272 106.28L24.2712 114.4H21.1632L17.2712 106.756H13.1272V114.4H10.1872ZM32.7364 114.68C30.4217 114.68 28.751 114.111 27.7244 112.972C26.7164 111.834 26.2124 110.051 26.2124 107.624C26.2124 105.198 26.6977 103.415 27.6684 102.276C28.6577 101.138 30.1697 100.568 32.2044 100.568C34.2017 100.568 35.695 101.138 36.6844 102.276C37.6737 103.396 38.1684 105.17 38.1684 107.596V108.576H29.1804C29.2737 109.883 29.591 110.835 30.1324 111.432C30.6924 112.03 31.5697 112.328 32.7644 112.328C33.5484 112.328 34.3044 112.216 35.0324 111.992C35.7604 111.768 36.479 111.442 37.1884 111.012L38.0284 113.224C37.319 113.654 36.507 114.008 35.5924 114.288C34.6964 114.55 33.7444 114.68 32.7364 114.68ZM35.1724 106.336C35.079 105.216 34.799 104.376 34.3324 103.816C33.8657 103.238 33.1564 102.948 32.2044 102.948C30.3377 102.948 29.339 104.078 29.2084 106.336H35.1724ZM47.1478 112.3C47.8385 112.3 48.4825 112.216 49.0798 112.048C49.6772 111.862 50.2652 111.61 50.8438 111.292L51.5438 113.532C50.9652 113.887 50.3025 114.167 49.5558 114.372C48.8092 114.578 48.0065 114.68 47.1478 114.68C44.8145 114.68 43.1065 114.12 42.0238 113C40.9598 111.88 40.4278 110.088 40.4278 107.624C40.4278 105.198 40.9505 103.415 41.9958 102.276C43.0412 101.138 44.6652 100.568 46.8678 100.568C48.8465 100.568 50.4425 101.156 51.6558 102.332L50.1438 104.292C49.2478 103.396 48.1838 102.948 46.9518 102.948C45.7758 102.948 44.8798 103.303 44.2638 104.012C43.6478 104.722 43.3398 105.926 43.3398 107.624C43.3398 109.304 43.6572 110.508 44.2918 111.236C44.9265 111.946 45.8785 112.3 47.1478 112.3ZM52.6829 100.848H55.7069L59.0949 110.536H59.1789L62.4829 100.848H65.4789L59.9909 115.912C59.6735 116.752 59.3375 117.462 58.9829 118.04C58.6282 118.638 58.2269 119.114 57.7789 119.468C57.3309 119.842 56.8175 120.103 56.2389 120.252C55.6602 120.42 54.9975 120.504 54.2509 120.504C53.9709 120.504 53.6909 120.476 53.4109 120.42C53.1309 120.383 52.8789 120.327 52.6549 120.252C52.7482 119.879 52.8229 119.496 52.8789 119.104C52.9535 118.731 53.0282 118.348 53.1029 117.956C53.5135 118.087 53.9615 118.152 54.4469 118.152C55.0255 118.152 55.5295 117.975 55.9589 117.62C56.4069 117.266 56.7429 116.808 56.9669 116.248L57.8629 114.036L52.6829 100.848ZM73.3093 112.3C73.9999 112.3 74.6439 112.216 75.2413 112.048C75.8386 111.862 76.4266 111.61 77.0053 111.292L77.7053 113.532C77.1266 113.887 76.4639 114.167 75.7173 114.372C74.9706 114.578 74.1679 114.68 73.3093 114.68C70.9759 114.68 69.2679 114.12 68.1853 113C67.1213 111.88 66.5893 110.088 66.5893 107.624C66.5893 105.198 67.1119 103.415 68.1573 102.276C69.2026 101.138 70.8266 100.568 73.0293 100.568C75.0079 100.568 76.6039 101.156 77.8173 102.332L76.3053 104.292C75.4093 103.396 74.3453 102.948 73.1133 102.948C71.9373 102.948 71.0413 103.303 70.4253 104.012C69.8093 104.722 69.5013 105.926 69.5013 107.624C69.5013 109.304 69.8186 110.508 70.4533 111.236C71.0879 111.946 72.0399 112.3 73.3093 112.3ZM83.4363 94.6324V110.76C83.4363 111.395 83.5203 111.806 83.6883 111.992C83.8563 112.16 84.1923 112.244 84.6963 112.244V114.596C84.5283 114.634 84.3883 114.652 84.2763 114.652C84.1643 114.671 83.9963 114.68 83.7723 114.68C82.6896 114.68 81.8776 114.382 81.3363 113.784C80.8136 113.168 80.5523 112.16 80.5523 110.76V94.9684L83.4363 94.6324ZM87.6037 100.848H90.5157V114.4H87.6037V100.848ZM87.6037 95.0244H90.5157V98.0764H87.6037V95.0244ZM96.8964 102.08C97.4937 101.614 98.1564 101.25 98.8844 100.988C99.6124 100.708 100.396 100.568 101.236 100.568C102.823 100.568 103.971 100.951 104.68 101.716C105.408 102.482 105.772 103.704 105.772 105.384V114.4H102.86V106C102.86 104.88 102.664 104.087 102.272 103.62C101.899 103.154 101.339 102.92 100.592 102.92C99.9951 102.92 99.4164 103.023 98.8564 103.228C98.3151 103.415 97.7644 103.695 97.2044 104.068V114.4H94.2924V100.848H96.4764L96.8964 102.08ZM120.478 100.848V114.428C120.478 116.556 119.946 118.096 118.882 119.048C117.818 120.019 116.222 120.504 114.094 120.504C113.31 120.504 112.535 120.439 111.77 120.308C111.005 120.178 110.314 119.991 109.698 119.748L110.314 117.48C110.911 117.686 111.527 117.844 112.162 117.956C112.797 118.087 113.422 118.152 114.038 118.152C115.289 118.152 116.185 117.882 116.726 117.34C117.286 116.818 117.566 115.94 117.566 114.708V113.476C117.137 113.85 116.605 114.148 115.97 114.372C115.354 114.578 114.654 114.68 113.87 114.68C112.19 114.68 110.874 114.111 109.922 112.972C108.97 111.834 108.494 110.051 108.494 107.624C108.494 105.198 108.989 103.415 109.978 102.276C110.967 101.138 112.423 100.568 114.346 100.568C115.765 100.568 116.941 101.016 117.874 101.912L118.266 100.848H120.478ZM114.71 102.92C113.59 102.92 112.75 103.284 112.19 104.012C111.649 104.722 111.378 105.926 111.378 107.624C111.378 109.323 111.658 110.536 112.218 111.264C112.778 111.992 113.618 112.356 114.738 112.356C115.279 112.356 115.793 112.263 116.278 112.076C116.763 111.871 117.193 111.591 117.566 111.236V104.012C117.193 103.676 116.763 103.415 116.278 103.228C115.793 103.023 115.27 102.92 114.71 102.92Z" fill="#75C66B"/>
</svg>
