<svg width="112" height="146" viewBox="0 0 112 146" fill="none" xmlns="http://www.w3.org/2000/svg">
<path d="M67.5 19.0653C47.1324 11.3127 28.3392 13.9606 14.5 33" stroke="white" stroke-width="3.5" stroke-miterlimit="10" stroke-linecap="round"/>
<path d="M62.7831 11.3173L60.5 18.7016L73.6624 22.9676C74.258 23.1606 74.7444 22.4496 74.3672 21.9417L65.9893 10.7384C65.086 9.52966 63.2298 9.86485 62.7831 11.3072V11.3173Z" fill="white"/>
<path d="M19.5653 44C11.8127 64.3676 14.4606 83.1608 33.5 97" stroke="white" stroke-width="3.5" stroke-miterlimit="10" stroke-linecap="round"/>
<path d="M11.8173 48.7169L19.2016 51L23.4676 37.8376C23.6606 37.242 22.9496 36.7556 22.4417 37.1328L11.2384 45.5107C10.0297 46.414 10.3648 48.2702 11.8072 48.7169H11.8173Z" fill="white"/>
<path d="M43.5 92.9347C63.8676 100.687 82.6608 98.0394 96.5 79" stroke="white" stroke-width="3.5" stroke-miterlimit="10" stroke-linecap="round"/>
<path d="M48.2169 100.683L50.5 93.2984L37.3376 89.0324C36.742 88.8394 36.2556 89.5504 36.6328 90.0583L45.0107 101.262C45.914 102.47 47.7702 102.135 48.2169 100.693V100.683Z" fill="white"/>
<path d="M91.4347 70C99.1873 49.6324 96.5394 30.8392 77.5 17" stroke="white" stroke-width="3.5" stroke-miterlimit="10" stroke-linecap="round"/>
<path d="M100.183 62.2831L92.7984 60L88.5324 73.1624C88.3394 73.758 89.0504 74.2444 89.5583 73.8672L100.762 65.4893C101.97 64.586 101.635 62.7298 100.193 62.2831H100.183Z" fill="white"/>
<path d="M77.3203 56.0098H33.5703" stroke="white" stroke-width="3.5" stroke-linecap="round" stroke-linejoin="round"/>
<path d="M53.9603 49.5099V34.1299H33.5703V77.8799H53.9603H77.3203V49.5099H53.9603Z" stroke="white" stroke-width="3.5" stroke-linecap="round" stroke-linejoin="round"/>
<path d="M70.7513 66.9498C70.7513 69.7698 68.4613 72.0598 65.6413 72.0598C62.8213 72.0598 60.5312 69.7698 60.5312 66.9498C60.5312 64.1298 62.8213 61.8398 65.6413 61.8398C68.4613 61.8398 70.7513 64.1298 70.7513 66.9498Z" stroke="white" stroke-width="3.5" stroke-linecap="round" stroke-linejoin="round"/>
<path d="M53.9609 49.5098V77.8798" stroke="white" stroke-width="3.5" stroke-linecap="round" stroke-linejoin="round"/>
<path d="M12.4278 136.176C13.9958 136.176 15.4918 135.784 16.9158 135L17.5878 136.992C16.8518 137.408 16.0278 137.72 15.1158 137.928C14.2198 138.136 13.3158 138.24 12.4038 138.24C9.71581 138.24 7.76381 137.528 6.54781 136.104C5.33181 134.68 4.72381 132.624 4.72381 129.936C4.72381 127.088 5.33181 124.992 6.54781 123.648C7.76381 122.304 9.56381 121.632 11.9478 121.632C13.1638 121.632 14.2438 121.832 15.1878 122.232C16.1478 122.632 16.9238 123.152 17.5158 123.792L16.0758 125.376C15.5638 124.832 14.9718 124.424 14.2998 124.152C13.6438 123.864 12.8598 123.72 11.9478 123.72C10.3638 123.72 9.17981 124.216 8.39581 125.208C7.62781 126.2 7.24381 127.776 7.24381 129.936C7.24381 132.048 7.65181 133.616 8.46781 134.64C9.28381 135.664 10.6038 136.176 12.4278 136.176ZM19.5067 132.192C19.5067 130.08 19.9467 128.544 20.8267 127.584C21.7227 126.624 23.1147 126.144 25.0027 126.144C26.8907 126.144 28.2747 126.632 29.1547 127.608C30.0507 128.584 30.4987 130.112 30.4987 132.192C30.4987 134.304 30.0507 135.84 29.1547 136.8C28.2747 137.76 26.8907 138.24 25.0027 138.24C23.1147 138.24 21.7227 137.76 20.8267 136.8C19.9467 135.84 19.5067 134.304 19.5067 132.192ZM21.9787 132.192C21.9787 133.552 22.2107 134.568 22.6747 135.24C23.1547 135.896 23.9307 136.224 25.0027 136.224C26.0747 136.224 26.8427 135.896 27.3067 135.24C27.7707 134.568 28.0027 133.552 28.0027 132.192C28.0027 130.832 27.7707 129.824 27.3067 129.168C26.8427 128.512 26.0747 128.184 25.0027 128.184C23.9307 128.184 23.1547 128.512 22.6747 129.168C22.2107 129.824 21.9787 130.832 21.9787 132.192ZM35.7048 121.056V134.88C35.7048 135.424 35.7768 135.776 35.9208 135.936C36.0648 136.08 36.3528 136.152 36.7848 136.152V138.168C36.6408 138.2 36.5208 138.216 36.4248 138.216C36.3288 138.232 36.1848 138.24 35.9928 138.24C35.0648 138.24 34.3688 137.984 33.9048 137.472C33.4568 136.944 33.2328 136.08 33.2328 134.88V121.344L35.7048 121.056ZM41.7489 121.056V134.88C41.7489 135.424 41.8209 135.776 41.9649 135.936C42.1089 136.08 42.3969 136.152 42.8289 136.152V138.168C42.6849 138.2 42.5649 138.216 42.4689 138.216C42.3729 138.232 42.2289 138.24 42.0369 138.24C41.1089 138.24 40.4129 137.984 39.9489 137.472C39.5009 136.944 39.2769 136.08 39.2769 134.88V121.344L41.7489 121.056ZM50.1449 138.24C48.1609 138.24 46.7289 137.752 45.8489 136.776C44.9849 135.8 44.5529 134.272 44.5529 132.192C44.5529 130.112 44.9689 128.584 45.8009 127.608C46.6489 126.632 47.9449 126.144 49.6889 126.144C51.4009 126.144 52.6809 126.632 53.5289 127.608C54.3769 128.568 54.8009 130.088 54.8009 132.168V133.008H47.0969C47.1769 134.128 47.4489 134.944 47.9129 135.456C48.3929 135.968 49.1449 136.224 50.1689 136.224C50.8409 136.224 51.4889 136.128 52.1129 135.936C52.7369 135.744 53.3529 135.464 53.9609 135.096L54.6809 136.992C54.0729 137.36 53.3769 137.664 52.5929 137.904C51.8249 138.128 51.0089 138.24 50.1449 138.24ZM52.2329 131.088C52.1529 130.128 51.9129 129.408 51.5129 128.928C51.1129 128.432 50.5049 128.184 49.6889 128.184C48.0889 128.184 47.2329 129.152 47.1209 131.088H52.2329ZM62.4976 136.2C63.0896 136.2 63.6416 136.128 64.1536 135.984C64.6656 135.824 65.1696 135.608 65.6656 135.336L66.2656 137.256C65.7696 137.56 65.2016 137.8 64.5616 137.976C63.9216 138.152 63.2336 138.24 62.4976 138.24C60.4976 138.24 59.0336 137.76 58.1056 136.8C57.1936 135.84 56.7376 134.304 56.7376 132.192C56.7376 130.112 57.1856 128.584 58.0816 127.608C58.9776 126.632 60.3696 126.144 62.2576 126.144C63.9536 126.144 65.3216 126.648 66.3616 127.656L65.0656 129.336C64.2976 128.568 63.3856 128.184 62.3296 128.184C61.3216 128.184 60.5536 128.488 60.0256 129.096C59.4976 129.704 59.2336 130.736 59.2336 132.192C59.2336 133.632 59.5056 134.664 60.0496 135.288C60.5936 135.896 61.4096 136.2 62.4976 136.2ZM71.7539 128.424V133.728C71.7539 134.656 71.8819 135.304 72.1379 135.672C72.3939 136.04 72.8899 136.224 73.6259 136.224C73.9939 136.224 74.3619 136.168 74.7299 136.056C75.1139 135.944 75.4739 135.816 75.8099 135.672L76.2899 137.52C75.7779 137.76 75.2339 137.936 74.6579 138.048C74.0819 138.176 73.5139 138.24 72.9539 138.24C72.2499 138.24 71.6579 138.152 71.1779 137.976C70.7139 137.8 70.3379 137.544 70.0499 137.208C69.7779 136.856 69.5779 136.432 69.4499 135.936C69.3379 135.44 69.2819 134.864 69.2819 134.208V128.424H67.3859V126.384H69.2819V124.056L71.7539 123.6V126.384H75.8579V128.424H71.7539ZM78.5 126.384H80.996V138H78.5V126.384ZM78.5 121.392H80.996V124.008H78.5V121.392ZM83.7292 132.192C83.7292 130.08 84.1692 128.544 85.0492 127.584C85.9452 126.624 87.3372 126.144 89.2252 126.144C91.1132 126.144 92.4972 126.632 93.3772 127.608C94.2732 128.584 94.7212 130.112 94.7212 132.192C94.7212 134.304 94.2732 135.84 93.3772 136.8C92.4972 137.76 91.1132 138.24 89.2252 138.24C87.3372 138.24 85.9452 137.76 85.0492 136.8C84.1692 135.84 83.7292 134.304 83.7292 132.192ZM86.2012 132.192C86.2012 133.552 86.4332 134.568 86.8972 135.24C87.3772 135.896 88.1532 136.224 89.2252 136.224C90.2972 136.224 91.0652 135.896 91.5292 135.24C91.9932 134.568 92.2252 133.552 92.2252 132.192C92.2252 130.832 91.9932 129.824 91.5292 129.168C91.0652 128.512 90.2972 128.184 89.2252 128.184C88.1532 128.184 87.3772 128.512 86.8972 129.168C86.4332 129.824 86.2012 130.832 86.2012 132.192ZM99.4233 127.44C99.9353 127.04 100.503 126.728 101.127 126.504C101.751 126.264 102.423 126.144 103.143 126.144C104.503 126.144 105.487 126.472 106.095 127.128C106.719 127.784 107.031 128.832 107.031 130.272V138H104.535V130.8C104.535 129.84 104.367 129.16 104.031 128.76C103.711 128.36 103.231 128.16 102.591 128.16C102.079 128.16 101.583 128.248 101.103 128.424C100.639 128.584 100.167 128.824 99.6873 129.144V138H97.1913V126.384H99.0633L99.4233 127.44Z" fill="white"/>
</svg>
