<svg width="112" height="141" viewBox="0 0 112 141" fill="none" xmlns="http://www.w3.org/2000/svg">
<path d="M25 86.5H20.7238C16.4603 86.5 13 83.0175 13 78.7267V66.2733C13 61.9825 16.4603 58.5 20.7238 58.5H27" stroke="white" stroke-width="3.5" stroke-linecap="round" stroke-linejoin="round"/>
<path d="M69 86.5H43" stroke="white" stroke-width="3.5" stroke-linecap="round" stroke-linejoin="round"/>
<path d="M63 26.5C68.9156 34.2837 74.6725 41.6356 86.4938 41.6356H91.268C95.536 41.6356 99 45.1408 99 49.4595V78.6761C99 82.9948 95.536 86.5 91.268 86.5H87.5" stroke="white" stroke-width="3.5" stroke-linecap="round" stroke-linejoin="round"/>
<path d="M71.8597 36.9625C71.8597 36.9625 76.2353 36.9822 78.2839 32.0871C80.3425 27.1919 78.274 20.5992 67.9812 18.497C57.6885 16.3948 53.6808 18.27 53.6808 18.27C53.6808 18.27 52.0299 25.7115 53.8697 32.5904C55.7095 39.4693 59.7172 44.1474 65.8829 43.4269C72.0486 42.7064 71.8597 36.9724 71.8597 36.9724V36.9625Z" stroke="white" stroke-width="3.5" stroke-linecap="round" stroke-linejoin="round"/>
<path d="M69 85.5C69 90.4669 73.0228 94.5 78 94.5C82.9772 94.5 87 90.4772 87 85.5C87 80.5228 82.9772 76.5 78 76.5C73.0228 76.5 69 80.5228 69 85.5Z" stroke="white" stroke-width="3.5" stroke-linejoin="round"/>
<path d="M25 85.5C25 90.4669 29.0228 94.5 34 94.5C38.9772 94.5 43 90.4772 43 85.5C43 80.5228 38.9772 76.5 34 76.5C29.0228 76.5 25 80.5228 25 85.5Z" stroke="white" stroke-width="3.5" stroke-linejoin="round"/>
<path d="M29.7483 58.5H49V45.2766C49 43.1887 47.381 41.5 45.3793 41.5H38.5794C37.5491 41.5 36.3225 41.9913 35.3511 43.4753L26 58.5H29.7483Z" stroke="white" stroke-width="3.5" stroke-linecap="round" stroke-linejoin="round"/>
<path d="M17.685 128.976V135H15.165V118.872H20.925C22.797 118.872 24.205 119.288 25.149 120.12C26.109 120.952 26.589 122.208 26.589 123.888C26.589 125.568 26.117 126.84 25.173 127.704C24.245 128.552 22.869 128.976 21.045 128.976H17.685ZM17.685 120.96V126.888H21.021C21.981 126.888 22.725 126.64 23.253 126.144C23.797 125.648 24.069 124.896 24.069 123.888C24.069 122.928 23.797 122.2 23.253 121.704C22.725 121.208 21.981 120.96 21.021 120.96H17.685ZM37.1164 135H35.2684L34.9084 134.04C34.4604 134.408 33.9324 134.704 33.3244 134.928C32.7324 135.136 32.0764 135.24 31.3564 135.24C30.0604 135.24 29.1004 134.928 28.4764 134.304C27.8524 133.664 27.5404 132.744 27.5404 131.544C27.5404 130.328 27.9324 129.424 28.7164 128.832C29.5004 128.24 30.7804 127.944 32.5564 127.944C32.9244 127.944 33.2764 127.952 33.6124 127.968C33.9484 127.984 34.2844 128.008 34.6204 128.04V127.632C34.6204 126.72 34.4364 126.08 34.0684 125.712C33.7164 125.344 33.0764 125.16 32.1484 125.16C31.6364 125.16 31.0844 125.24 30.4924 125.4C29.9164 125.544 29.3244 125.776 28.7164 126.096L27.9724 124.32C28.6604 123.952 29.3724 123.664 30.1084 123.456C30.8604 123.248 31.6444 123.144 32.4604 123.144C33.3244 123.144 34.0524 123.224 34.6444 123.384C35.2524 123.544 35.7324 123.816 36.0844 124.2C36.4524 124.568 36.7164 125.048 36.8764 125.64C37.0364 126.232 37.1164 126.96 37.1164 127.824V135ZM31.9564 133.248C32.3724 133.248 32.8284 133.152 33.3244 132.96C33.8204 132.768 34.2524 132.52 34.6204 132.216V129.984C34.3004 129.952 33.9644 129.928 33.6124 129.912C33.2604 129.88 32.8684 129.864 32.4364 129.864C31.5564 129.864 30.9324 129.992 30.5644 130.248C30.2124 130.488 30.0364 130.904 30.0364 131.496C30.0364 132.664 30.6764 133.248 31.9564 133.248ZM45.205 133.2C45.797 133.2 46.349 133.128 46.861 132.984C47.373 132.824 47.877 132.608 48.373 132.336L48.973 134.256C48.477 134.56 47.909 134.8 47.269 134.976C46.629 135.152 45.941 135.24 45.205 135.24C43.205 135.24 41.741 134.76 40.813 133.8C39.901 132.84 39.445 131.304 39.445 129.192C39.445 127.112 39.893 125.584 40.789 124.608C41.685 123.632 43.077 123.144 44.965 123.144C46.661 123.144 48.029 123.648 49.069 124.656L47.773 126.336C47.005 125.568 46.093 125.184 45.037 125.184C44.029 125.184 43.261 125.488 42.733 126.096C42.205 126.704 41.941 127.736 41.941 129.192C41.941 130.632 42.213 131.664 42.757 132.288C43.301 132.896 44.117 133.2 45.205 133.2ZM51.1493 135V118.344L53.6693 118.056V127.68H54.6293L58.4933 123.384H61.4933L56.5493 128.736L61.6133 135H58.5893L54.5573 129.744H53.6693V135H51.1493ZM72.3345 135H70.4865L70.1265 134.04C69.6785 134.408 69.1505 134.704 68.5425 134.928C67.9505 135.136 67.2945 135.24 66.5745 135.24C65.2785 135.24 64.3185 134.928 63.6945 134.304C63.0705 133.664 62.7585 132.744 62.7585 131.544C62.7585 130.328 63.1505 129.424 63.9345 128.832C64.7185 128.24 65.9985 127.944 67.7745 127.944C68.1425 127.944 68.4945 127.952 68.8305 127.968C69.1665 127.984 69.5025 128.008 69.8385 128.04V127.632C69.8385 126.72 69.6545 126.08 69.2865 125.712C68.9345 125.344 68.2945 125.16 67.3665 125.16C66.8545 125.16 66.3025 125.24 65.7105 125.4C65.1345 125.544 64.5425 125.776 63.9345 126.096L63.1905 124.32C63.8785 123.952 64.5905 123.664 65.3265 123.456C66.0785 123.248 66.8625 123.144 67.6785 123.144C68.5425 123.144 69.2705 123.224 69.8625 123.384C70.4705 123.544 70.9505 123.816 71.3025 124.2C71.6705 124.568 71.9345 125.048 72.0945 125.64C72.2545 126.232 72.3345 126.96 72.3345 127.824V135ZM67.1745 133.248C67.5905 133.248 68.0465 133.152 68.5425 132.96C69.0385 132.768 69.4705 132.52 69.8385 132.216V129.984C69.5185 129.952 69.1825 129.928 68.8305 129.912C68.4785 129.88 68.0865 129.864 67.6545 129.864C66.7745 129.864 66.1505 129.992 65.7825 130.248C65.4305 130.488 65.2545 130.904 65.2545 131.496C65.2545 132.664 65.8945 133.248 67.1745 133.248ZM84.9351 123.384V135.024C84.9351 136.848 84.4791 138.168 83.5671 138.984C82.6551 139.816 81.2871 140.232 79.4631 140.232C78.7911 140.232 78.1271 140.176 77.4711 140.064C76.8151 139.952 76.2231 139.792 75.6951 139.584L76.2231 137.64C76.7351 137.816 77.2631 137.952 77.8071 138.048C78.3511 138.16 78.8871 138.216 79.4151 138.216C80.4871 138.216 81.2551 137.984 81.7191 137.52C82.1991 137.072 82.4391 136.32 82.4391 135.264V134.208C82.0711 134.528 81.6151 134.784 81.0711 134.976C80.5431 135.152 79.9431 135.24 79.2711 135.24C77.8311 135.24 76.7031 134.752 75.8871 133.776C75.0711 132.8 74.6631 131.272 74.6631 129.192C74.6631 127.112 75.0871 125.584 75.9351 124.608C76.7831 123.632 78.0311 123.144 79.6791 123.144C80.8951 123.144 81.9031 123.528 82.7031 124.296L83.0391 123.384H84.9351ZM79.9911 125.16C79.0311 125.16 78.3111 125.472 77.8311 126.096C77.3671 126.704 77.1351 127.736 77.1351 129.192C77.1351 130.648 77.3751 131.688 77.8551 132.312C78.3351 132.936 79.0551 133.248 80.0151 133.248C80.4791 133.248 80.9191 133.168 81.3351 133.008C81.7511 132.832 82.1191 132.592 82.4391 132.288V126.096C82.1191 125.808 81.7511 125.584 81.3351 125.424C80.9191 125.248 80.4711 125.16 79.9911 125.16ZM93.0023 135.24C91.0183 135.24 89.5863 134.752 88.7063 133.776C87.8423 132.8 87.4103 131.272 87.4103 129.192C87.4103 127.112 87.8263 125.584 88.6583 124.608C89.5063 123.632 90.8023 123.144 92.5463 123.144C94.2583 123.144 95.5383 123.632 96.3863 124.608C97.2343 125.568 97.6583 127.088 97.6583 129.168V130.008H89.9543C90.0343 131.128 90.3063 131.944 90.7703 132.456C91.2503 132.968 92.0023 133.224 93.0263 133.224C93.6983 133.224 94.3463 133.128 94.9703 132.936C95.5943 132.744 96.2103 132.464 96.8183 132.096L97.5383 133.992C96.9303 134.36 96.2343 134.664 95.4503 134.904C94.6823 135.128 93.8663 135.24 93.0023 135.24ZM95.0903 128.088C95.0103 127.128 94.7703 126.408 94.3703 125.928C93.9703 125.432 93.3623 125.184 92.5463 125.184C90.9463 125.184 90.0903 126.152 89.9783 128.088H95.0903Z" fill="white"/>
</svg>
