<svg width="112" height="146" viewBox="0 0 112 146" fill="none" xmlns="http://www.w3.org/2000/svg">
<path d="M76.1383 65.0506C76.1383 65.0506 82.2983 60.2706 80.7283 50.4106C78.6183 37.1306 68.4883 28.3406 68.4883 28.3406" stroke="white" stroke-width="3.5" stroke-miterlimit="10" stroke-linecap="round"/>
<path d="M80.729 50.4107C80.729 50.4107 66.569 51.0907 59.379 39.4007C53.499 29.8407 56.789 20.2607 58.179 17.0907C58.479 16.4107 59.139 15.9807 59.889 16.0007C63.789 16.0807 76.409 17.1007 83.199 26.6807C91.299 38.1007 80.729 50.4107 80.729 50.4107Z" stroke="white" stroke-width="3.5" stroke-miterlimit="10" stroke-linecap="round"/>
<path d="M93.5559 29.2193C95.6224 30.5696 97 32.9276 97 35.6081V75.3919C97 79.594 93.6258 83 89.4629 83H22.5371C18.3742 83 15 79.594 15 75.3919V35.6081C15 31.406 18.3742 28 22.5371 28H48.5527" stroke="white" stroke-width="3.5" stroke-miterlimit="10" stroke-linecap="round"/>
<path d="M49 83V89.8383C49 93.2391 46.0197 96 42.3487 96H37" stroke="white" stroke-width="3.5" stroke-miterlimit="10" stroke-linecap="round"/>
<path d="M61 83V89.8383C61 93.2391 63.9803 96 67.6513 96H73" stroke="white" stroke-width="3.5" stroke-miterlimit="10" stroke-linecap="round"/>
<path d="M40 96H70" stroke="white" stroke-width="3.5" stroke-miterlimit="10" stroke-linecap="round"/>
<path d="M57.9696 61.6366L55.0064 60.0161C55.3225 58.8666 55.5003 57.6606 55.5003 56.3981C55.5003 55.1356 55.3225 53.9484 55.0064 52.7801L57.9696 51.1407C58.4437 50.8769 58.6214 50.2928 58.3449 49.8217L55.2435 44.6962C54.9669 44.244 54.3545 44.0744 53.8607 44.3382L50.8778 45.9776C49.0801 44.3005 46.8282 43.0757 44.3391 42.4162V39.0997C44.3391 38.5721 43.8848 38.1387 43.3317 38.1387H37.1288C36.5757 38.1387 36.1214 38.5721 36.1214 39.0997V42.4727C33.6718 43.1511 31.4594 44.3947 29.7012 46.053L26.6196 44.3571C26.1455 44.0932 25.5133 44.244 25.2368 44.7151L22.1354 49.8405C21.8588 50.2928 22.0168 50.8958 22.5107 51.1596L25.6319 52.8743C25.3355 54.005 25.1578 55.1733 25.1578 56.3981C25.1578 57.6229 25.3355 58.7912 25.6319 59.9218L22.5107 61.6366C22.0366 61.9004 21.8588 62.4846 22.1354 62.9557L25.2368 68.0811C25.5133 68.5334 26.1257 68.7029 26.6196 68.4391L29.7012 66.7432C31.4791 68.4014 33.6718 69.6451 36.1411 70.3235V73.6777C36.1411 74.2053 36.5955 74.6387 37.1486 74.6387H43.3514C43.9045 74.6387 44.3589 74.2053 44.3589 73.6777V70.3612C46.8479 69.7017 49.0999 68.4768 50.8975 66.7997L53.8804 68.4391C54.3545 68.7029 54.9867 68.5522 55.2632 68.0811L58.3646 62.9557C58.6412 62.5034 58.4832 61.9004 57.9893 61.6366H57.9696Z" stroke="white" stroke-width="3.5" stroke-miterlimit="10" stroke-linecap="round"/>
<rect x="33.75" y="49.8887" width="12.5" height="12.5" rx="6.25" stroke="white" stroke-width="3.5"/>
<path d="M37.2849 126.96V132.36H40.6929C42.7089 132.36 43.7169 131.464 43.7169 129.672C43.7169 127.864 42.7249 126.96 40.7409 126.96H37.2849ZM34.7649 141V124.872H40.6929C44.4369 124.872 46.3089 126.472 46.3089 129.672C46.3089 130.728 46.0449 131.632 45.5169 132.384C45.0049 133.136 44.2609 133.688 43.2849 134.04L46.8369 141H44.1729L40.8369 134.448H37.2849V141H34.7649ZM62.39 133.464C61.926 135.416 61.262 136.968 60.398 138.12L63.062 141H60.206L58.91 139.608C58.19 140.136 57.414 140.544 56.582 140.832C55.75 141.104 54.854 141.24 53.894 141.24C53.014 141.24 52.238 141.136 51.566 140.928C50.91 140.72 50.358 140.432 49.91 140.064C49.478 139.696 49.15 139.264 48.926 138.768C48.702 138.256 48.59 137.696 48.59 137.088C48.59 136.128 48.894 135.232 49.502 134.4C50.126 133.568 51.014 132.864 52.166 132.288C51.478 131.52 50.99 130.824 50.702 130.2C50.414 129.56 50.27 128.96 50.27 128.4C50.27 127.28 50.662 126.376 51.446 125.688C52.246 124.984 53.35 124.632 54.758 124.632C55.462 124.632 56.094 124.728 56.654 124.92C57.214 125.112 57.686 125.368 58.07 125.688C58.47 126.008 58.774 126.392 58.982 126.84C59.19 127.288 59.294 127.76 59.294 128.256C59.294 128.736 59.214 129.176 59.054 129.576C58.91 129.96 58.678 130.328 58.358 130.68C58.054 131.032 57.662 131.384 57.182 131.736C56.702 132.088 56.134 132.464 55.478 132.864L58.91 136.536C59.198 136.072 59.446 135.592 59.654 135.096C59.862 134.6 60.038 134.056 60.182 133.464H62.39ZM53.582 133.824C52.574 134.32 51.878 134.84 51.494 135.384C51.11 135.928 50.918 136.48 50.918 137.04C50.918 137.76 51.174 138.32 51.686 138.72C52.198 139.12 52.982 139.32 54.038 139.32C55.366 139.32 56.518 138.904 57.494 138.072L53.582 133.824ZM54.11 131.328C55.118 130.864 55.846 130.384 56.294 129.888C56.742 129.376 56.966 128.864 56.966 128.352C56.966 127.824 56.774 127.392 56.39 127.056C56.022 126.72 55.478 126.552 54.758 126.552C54.086 126.552 53.558 126.72 53.174 127.056C52.806 127.376 52.622 127.832 52.622 128.424C52.622 128.936 52.734 129.408 52.958 129.84C53.198 130.272 53.582 130.768 54.11 131.328ZM77.8593 132.936C77.8593 135.688 77.1713 137.72 75.7953 139.032C74.4193 140.344 72.4113 141 69.7713 141H64.9233V124.872H69.7713C72.4273 124.872 74.4353 125.536 75.7953 126.864C77.1713 128.192 77.8593 130.216 77.8593 132.936ZM67.4433 126.96V138.936H69.7713C71.5633 138.936 72.9393 138.464 73.8993 137.52C74.8593 136.56 75.3393 135.032 75.3393 132.936C75.3393 130.856 74.8593 129.344 73.8993 128.4C72.9393 127.44 71.5633 126.96 69.7713 126.96H67.4433Z" fill="white"/>
</svg>
