<svg width="67" height="68" viewBox="0 0 67 68" fill="none" xmlns="http://www.w3.org/2000/svg">
<g clip-path="url(#clip0_4720_1522)">
<path d="M43.5181 20.1379C43.7543 23.1879 42.0195 24.6779 41.9318 24.7478C41.6415 24.9857 41.5875 25.4264 41.817 25.7272C41.952 25.9021 42.1478 26 42.3503 26C42.492 26 42.6405 25.951 42.762 25.8531C42.87 25.7692 45.3068 23.7405 44.8208 19.6552C45.6241 18.543 48.5941 13.9051 45.6173 9.56096C42.8093 5.4547 37.6185 5.02798 36.0929 5C35.5394 5.007 35.0264 5.32179 34.8037 5.85343C34.2974 7.04264 32.8394 11.2608 35.3099 15.4161C37.7197 19.4734 41.9318 20.068 43.5181 20.1379ZM36.0659 6.39207C37.4295 6.42005 42.0735 6.79081 44.5171 10.3654C46.4341 13.1636 45.3406 16.1086 44.4361 17.7385C43.1805 13.1566 39.9877 10.2325 39.8392 10.0996C39.5557 9.84777 39.1305 9.87575 38.8875 10.1696C38.6445 10.4634 38.6715 10.9041 38.955 11.1559C38.9887 11.1909 42.276 14.1989 43.2886 18.7179C41.7563 18.5849 38.3745 17.9134 36.4574 14.6815C34.3919 11.1979 35.4787 7.74217 36.0659 6.39207Z" fill="white"/>
<path d="M49.2321 9.58305C48.9124 9.37966 48.4815 9.4678 48.273 9.77966C48.0645 10.0915 48.1549 10.5119 48.4746 10.7153C49.1348 11.1288 49.524 11.8339 49.524 12.6V27.8949C49.524 29.1356 48.4885 30.139 47.2235 30.139H20.6046C19.3327 30.139 18.3041 29.1288 18.3041 27.8949V12.6C18.3041 11.3593 19.3397 10.3559 20.6046 10.3559H30.9533C31.3356 10.3559 31.6483 10.0508 31.6483 9.67797C31.6483 9.30508 31.3356 9 30.9533 9H20.6046C18.5682 9 16.9141 10.6136 16.9141 12.6V27.8949C16.9141 29.8814 18.5682 31.4949 20.6046 31.4949H30.5016V33.7119C30.5016 34.7763 29.6119 35.6441 28.5208 35.6441H26.3662C25.984 35.6441 25.6712 35.9492 25.6712 36.322C25.6712 36.6949 25.984 37 26.3662 37H40.7599C41.1422 37 41.4549 36.6949 41.4549 36.322C41.4549 35.9492 41.1422 35.6441 40.7599 35.6441H38.6054C37.5142 35.6441 36.6246 34.7763 36.6246 33.7119V31.4949H47.2235C49.2599 31.4949 50.9141 29.8814 50.9141 27.8949V12.6C50.9141 11.3729 50.2816 10.2407 49.2252 9.57627L49.2321 9.58305ZM35.8879 35.6576H31.2244C31.6344 35.1153 31.8777 34.4508 31.8777 33.7254V31.5085H35.2276V33.7254C35.2276 34.4508 35.4778 35.1153 35.8809 35.6576H35.8879Z" fill="white"/>
<path d="M29.9005 15.1513L29.7699 14.2713C29.6874 13.7006 29.1993 13.2812 28.6218 13.2812H26.4355C25.858 13.2812 25.3699 13.7006 25.2874 14.2713L25.1568 15.1513C24.6687 15.3575 24.2218 15.6188 23.8093 15.935L22.9774 15.605C22.8399 15.55 22.6955 15.5225 22.5512 15.5225C22.1455 15.5225 21.7605 15.7356 21.5474 16.1L20.4543 17.9975C20.1655 18.4925 20.2893 19.1319 20.7362 19.4894L21.4374 20.0463C21.403 20.3006 21.3893 20.5619 21.3893 20.8231C21.3893 21.0844 21.4099 21.3456 21.4374 21.6L20.7362 22.1569C20.2824 22.5144 20.1655 23.1469 20.4543 23.6488L21.5474 25.5463C21.7605 25.9175 22.1455 26.1238 22.5512 26.1238C22.6955 26.1238 22.8399 26.0963 22.9774 26.0413L23.8093 25.7113C24.2218 26.0275 24.6755 26.2888 25.1568 26.495L25.2874 27.375C25.3699 27.9456 25.858 28.365 26.4355 28.365H28.6218C29.1993 28.365 29.6874 27.9456 29.7699 27.375L29.9005 26.495C30.3887 26.2888 30.8355 26.0275 31.248 25.7113L32.0799 26.0413C32.2174 26.0963 32.3618 26.1238 32.5062 26.1238C32.9118 26.1238 33.2968 25.9106 33.5099 25.5463L34.603 23.6488C34.8918 23.1538 34.768 22.5144 34.3212 22.1569L33.6199 21.6C33.6543 21.3456 33.668 21.0844 33.668 20.8231C33.668 20.5619 33.6474 20.3006 33.6199 20.0463L34.3212 19.4894C34.7749 19.1319 34.8918 18.4994 34.603 17.9975L33.5099 16.1C33.2968 15.7288 32.9118 15.5225 32.5062 15.5225C32.3618 15.5225 32.2174 15.55 32.0799 15.605L31.248 15.935C30.8355 15.6188 30.3818 15.3575 29.9005 15.1513ZM32.4168 16.9525L33.3243 18.5269L32.7674 18.9669L32.1624 19.4481L32.2587 20.2181C32.2862 20.4313 32.2999 20.6306 32.2999 20.8231C32.2999 21.0156 32.2862 21.215 32.2587 21.4281L32.1624 22.1981L32.7674 22.6794L33.3243 23.1194L32.4168 24.6937L31.7568 24.4325L31.0349 24.1437L30.4162 24.6112C30.093 24.8587 29.7424 25.065 29.3712 25.2163L28.6562 25.5187L28.5393 26.2888L28.4362 26.99H26.6212L26.518 26.2888L26.4012 25.5187L25.6862 25.2163C25.3149 25.0581 24.9643 24.8587 24.6412 24.6112L24.0224 24.1437L23.3005 24.4325L22.6405 24.6937L21.733 23.1194L22.2899 22.6794L22.8949 22.1981L22.7987 21.4281C22.7712 21.215 22.7574 21.0156 22.7574 20.8231C22.7574 20.6306 22.7712 20.4313 22.7987 20.2181L22.8949 19.4481L22.2899 18.9669L21.733 18.5269L22.6405 16.9525L23.3005 17.2138L24.0224 17.5025L24.6412 17.035C24.9643 16.7875 25.3149 16.5812 25.6862 16.43L26.4012 16.1275L26.518 15.3575L26.6212 14.6562H28.4362L28.5393 15.3575L28.6562 16.1275L29.3712 16.43C29.7424 16.5881 30.093 16.7875 30.4162 17.035L31.0349 17.5025L31.7568 17.2138L32.4168 16.9525Z" fill="white"/>
<path d="M27.5259 17.6289C25.7659 17.6289 24.3359 19.0589 24.3359 20.8189C24.3359 22.5789 25.7659 24.0089 27.5259 24.0089C29.2859 24.0089 30.7159 22.5789 30.7159 20.8189C30.7159 19.0589 29.2859 17.6289 27.5259 17.6289ZM27.5259 22.6339C26.5222 22.6339 25.7109 21.8158 25.7109 20.8189C25.7109 19.822 26.5291 19.0039 27.5259 19.0039C28.5228 19.0039 29.3409 19.822 29.3409 20.8189C29.3409 21.8158 28.5228 22.6339 27.5259 22.6339Z" fill="white"/>
</g>
<path d="M22.1556 50.91V54.765H24.5106C25.2606 54.765 25.8056 54.6 26.1456 54.27C26.4856 53.94 26.6556 53.46 26.6556 52.83C26.6556 52.17 26.4856 51.685 26.1456 51.375C25.8156 51.065 25.2856 50.91 24.5556 50.91H22.1556ZM21.0006 60V49.92H24.4806C25.6506 49.92 26.5006 50.165 27.0306 50.655C27.5706 51.135 27.8406 51.86 27.8406 52.83C27.8406 54.25 27.1906 55.155 25.8906 55.545L28.1106 60H26.8656L24.7506 55.74H22.1556V60H21.0006ZM37.7505 55.29C37.4705 56.55 37.0405 57.54 36.4605 58.26C36.7305 58.55 37.0055 58.84 37.2855 59.13C37.5655 59.42 37.8405 59.71 38.1105 60H36.7305L35.7555 58.98C34.8555 59.76 33.7855 60.15 32.5455 60.15C32.0055 60.15 31.5355 60.09 31.1355 59.97C30.7355 59.84 30.4005 59.665 30.1305 59.445C29.8705 59.215 29.6705 58.945 29.5305 58.635C29.4005 58.325 29.3355 57.985 29.3355 57.615C29.3355 57.015 29.5205 56.47 29.8905 55.98C30.2705 55.48 30.8655 55.03 31.6755 54.63C31.4155 54.32 31.2005 54.045 31.0305 53.805C30.8605 53.565 30.7255 53.35 30.6255 53.16C30.5255 52.96 30.4555 52.775 30.4155 52.605C30.3855 52.425 30.3705 52.24 30.3705 52.05C30.3705 51.38 30.6055 50.835 31.0755 50.415C31.5555 49.985 32.2205 49.77 33.0705 49.77C33.9205 49.77 34.5855 49.975 35.0655 50.385C35.5455 50.795 35.7855 51.33 35.7855 51.99C35.7855 52.53 35.5855 53.035 35.1855 53.505C34.7955 53.975 34.1505 54.435 33.2505 54.885L35.7405 57.495C35.9605 57.175 36.1455 56.84 36.2955 56.49C36.4555 56.14 36.5855 55.74 36.6855 55.29H37.7505ZM32.3355 55.365C31.6255 55.725 31.1305 56.09 30.8505 56.46C30.5705 56.83 30.4305 57.21 30.4305 57.6C30.4305 58.11 30.6105 58.51 30.9705 58.8C31.3305 59.08 31.8755 59.22 32.6055 59.22C33.5355 59.22 34.3555 58.895 35.0655 58.245L32.3355 55.365ZM32.5905 54.165C33.3205 53.805 33.8505 53.455 34.1805 53.115C34.5105 52.765 34.6755 52.4 34.6755 52.02C34.6755 51.63 34.5355 51.315 34.2555 51.075C33.9755 50.825 33.5805 50.7 33.0705 50.7C32.5805 50.7 32.1905 50.825 31.9005 51.075C31.6205 51.315 31.4805 51.645 31.4805 52.065C31.4805 52.415 31.5605 52.745 31.7205 53.055C31.8905 53.365 32.1805 53.735 32.5905 54.165ZM47.2556 54.96C47.2556 56.7 46.8456 57.975 46.0256 58.785C45.2156 59.595 43.9956 60 42.3656 60H39.5456V49.92H42.3656C43.9856 49.92 45.2056 50.33 46.0256 51.15C46.8456 51.97 47.2556 53.24 47.2556 54.96ZM40.7006 50.91V59.025H42.3806C43.6206 59.025 44.5506 58.705 45.1706 58.065C45.7906 57.425 46.1006 56.39 46.1006 54.96C46.1006 53.54 45.7856 52.51 45.1556 51.87C44.5356 51.23 43.6106 50.91 42.3806 50.91H40.7006Z" fill="white"/>
<defs>
<clipPath id="clip0_4720_1522">
<rect width="44" height="44" fill="white" transform="translate(11.9141)"/>
</clipPath>
</defs>
</svg>
