<svg width="112" height="140" viewBox="0 0 112 140" fill="none" xmlns="http://www.w3.org/2000/svg">
<g clip-path="url(#clip0_4618_797)">
<path d="M91.2188 40.0401H86.4088C82.4088 40.0401 79.1488 39.1401 76.3587 37.6501C77.7688 36.7801 79.2387 35.3501 80.2387 32.9501C81.4787 29.9801 81.3587 26.7101 79.9088 23.9701C78.5988 21.4901 75.5687 18.2301 68.6188 16.8001C58.0088 14.6201 53.6087 16.4801 53.1387 16.7001C52.6487 16.9301 52.2887 17.3801 52.1687 17.9101C52.0987 18.2301 50.4388 25.9501 52.3787 33.2401C54.4888 41.1701 58.9987 45.6001 64.8887 45.6001C65.3687 45.6001 65.8587 45.5701 66.3487 45.5101C70.6187 45.0001 72.6187 42.4301 73.4287 40.0401C76.9187 42.1801 81.0788 43.5501 86.4088 43.5501H91.2188C94.5488 43.5501 97.2588 46.2601 97.2588 49.5901V78.6801C97.2588 82.0101 94.5488 84.7201 91.2188 84.7201H88.3187C87.8487 79.3601 83.3387 75.1301 77.8487 75.1301C72.3587 75.1301 67.8487 79.3501 67.3787 84.7201H44.6087C44.1087 79.3801 39.6087 75.1901 34.1387 75.1901C28.6687 75.1901 24.1687 79.3801 23.6687 84.7201H20.7688C17.4388 84.7201 14.7287 82.0101 14.7287 78.6801V66.2001C14.7287 62.8701 17.4388 60.1601 20.7688 60.1601H49.8988C50.8688 60.1601 51.6488 59.3801 51.6488 58.4101V45.4901C51.6488 42.4901 49.2087 40.0501 46.2087 40.0501H39.2787C38.1987 40.0501 36.1487 40.4001 34.5187 42.7701L25.4987 56.6601H20.7587C15.4987 56.6601 11.2188 60.9401 11.2188 66.2001V78.6801C11.2188 83.9401 15.4987 88.2201 20.7587 88.2201H23.9288C25.0588 92.8101 29.1987 96.2201 34.1287 96.2201C39.0588 96.2201 43.1988 92.8101 44.3288 88.2201H67.6488C68.7988 92.7801 72.9187 96.1701 77.8387 96.1701C82.7587 96.1701 86.8687 92.7801 88.0187 88.2201H91.1987C96.4587 88.2201 100.739 83.9401 100.739 78.6801V49.5901C100.739 44.3301 96.4587 40.0501 91.1987 40.0501L91.2188 40.0401ZM65.9388 42.0201C59.5387 42.7701 56.8087 36.2801 55.7587 32.3301C54.4187 27.2901 55.0588 21.8201 55.4087 19.6301C56.9787 19.2701 60.8888 18.7801 67.9088 20.2201C72.3488 21.1301 75.4287 23.0001 76.8087 25.6001C77.7787 27.4401 77.8487 29.5701 77.0088 31.6001C75.8788 34.3001 73.9387 35.1101 72.8887 35.3501C69.5787 32.7101 66.8987 29.2301 64.1387 25.6401C63.5487 24.8701 62.4487 24.7301 61.6887 25.3201C60.9287 25.9101 60.7787 27.0101 61.3687 27.7701C64.1087 31.3401 66.9087 34.9501 70.3787 37.8201C70.2487 39.0601 69.5487 41.5801 65.9487 42.0101L65.9388 42.0201ZM37.4587 44.7001C38.1187 43.7401 38.8287 43.5401 39.2987 43.5401H46.2287C47.2987 43.5401 48.1687 44.4101 48.1687 45.4801V56.6501H29.7087L37.4688 44.7101L37.4587 44.7001ZM34.1587 92.7101C30.2887 92.7101 27.1387 89.5601 27.1387 85.6901C27.1387 81.8201 30.2887 78.6701 34.1587 78.6701C38.0287 78.6701 41.1787 81.8201 41.1787 85.6901C41.1787 89.5601 38.0287 92.7101 34.1587 92.7101ZM77.8587 92.6601C73.9888 92.6601 70.8387 89.5101 70.8387 85.6401C70.8387 81.7701 73.9888 78.6201 77.8587 78.6201C81.7288 78.6201 84.8787 81.7701 84.8787 85.6401C84.8787 89.5101 81.7288 92.6601 77.8587 92.6601Z" fill="white"/>
</g>
<path d="M28.0505 130.944C28.0505 130.624 28.0105 130.344 27.9305 130.104C27.8505 129.864 27.6985 129.64 27.4745 129.432C27.2505 129.224 26.9385 129.024 26.5385 128.832C26.1385 128.624 25.6265 128.408 25.0025 128.184C23.9465 127.832 23.0585 127.488 22.3385 127.152C21.6185 126.8 21.0345 126.424 20.5865 126.024C20.1385 125.624 19.8185 125.184 19.6265 124.704C19.4345 124.208 19.3385 123.64 19.3385 123C19.3385 121.656 19.8185 120.592 20.7785 119.808C21.7545 119.024 23.2345 118.632 25.2185 118.632C26.1305 118.632 26.9705 118.752 27.7385 118.992C28.5065 119.216 29.2345 119.536 29.9225 119.952L29.0345 121.872C28.4425 121.504 27.8265 121.216 27.1865 121.008C26.5465 120.8 25.8905 120.696 25.2185 120.696C24.0505 120.696 23.1945 120.888 22.6505 121.272C22.1225 121.64 21.8585 122.16 21.8585 122.832C21.8585 123.168 21.9065 123.472 22.0025 123.744C22.1145 124 22.3065 124.248 22.5785 124.488C22.8505 124.728 23.2185 124.96 23.6825 125.184C24.1625 125.408 24.7785 125.64 25.5305 125.88C26.4265 126.168 27.1945 126.464 27.8345 126.768C28.4745 127.072 28.9945 127.416 29.3945 127.8C29.8105 128.168 30.1065 128.6 30.2825 129.096C30.4745 129.576 30.5705 130.144 30.5705 130.8C30.5705 132.208 30.0745 133.304 29.0825 134.088C28.0905 134.856 26.5545 135.24 24.4745 135.24C23.4025 135.24 22.4025 135.12 21.4745 134.88C20.5625 134.64 19.7385 134.312 19.0025 133.896L19.8425 131.976C20.6105 132.376 21.3625 132.68 22.0985 132.888C22.8505 133.096 23.6105 133.2 24.3785 133.2C25.5945 133.2 26.5065 133.008 27.1145 132.624C27.7385 132.224 28.0505 131.664 28.0505 130.944ZM38.1609 135.24C36.1769 135.24 34.7449 134.752 33.8649 133.776C33.0009 132.8 32.5689 131.272 32.5689 129.192C32.5689 127.112 32.9849 125.584 33.8169 124.608C34.6649 123.632 35.9609 123.144 37.7049 123.144C39.4169 123.144 40.6969 123.632 41.5449 124.608C42.3929 125.568 42.8169 127.088 42.8169 129.168V130.008H35.1129C35.1929 131.128 35.4649 131.944 35.9289 132.456C36.4089 132.968 37.1609 133.224 38.1849 133.224C38.8569 133.224 39.5049 133.128 40.1289 132.936C40.7529 132.744 41.3689 132.464 41.9769 132.096L42.6969 133.992C42.0889 134.36 41.3929 134.664 40.6089 134.904C39.8409 135.128 39.0249 135.24 38.1609 135.24ZM40.2489 128.088C40.1689 127.128 39.9289 126.408 39.5289 125.928C39.1289 125.432 38.5209 125.184 37.7049 125.184C36.1049 125.184 35.2489 126.152 35.1369 128.088H40.2489ZM47.1776 123.384L47.4176 124.776C48.4096 123.688 49.5856 123.144 50.9456 123.144C51.4896 123.144 52.0256 123.256 52.5536 123.48V125.616C52.2816 125.488 52.0016 125.392 51.7136 125.328C51.4416 125.248 51.1456 125.208 50.8256 125.208C50.2496 125.208 49.6896 125.344 49.1456 125.616C48.6016 125.888 48.1376 126.232 47.7536 126.648V135H45.2576V123.384H47.1776ZM58.0779 135L53.6859 123.384H56.2539L58.1979 128.952L59.3259 132.144H59.3739L60.5259 128.952L62.4459 123.384H65.0139L60.6219 135H58.0779ZM66.9847 123.384H69.4807V135H66.9847V123.384ZM66.9847 118.392H69.4807V121.008H66.9847V118.392ZM77.9739 133.2C78.5659 133.2 79.1179 133.128 79.6299 132.984C80.1419 132.824 80.6459 132.608 81.1419 132.336L81.7419 134.256C81.2459 134.56 80.6779 134.8 80.0379 134.976C79.3979 135.152 78.7099 135.24 77.9739 135.24C75.9739 135.24 74.5099 134.76 73.5819 133.8C72.6699 132.84 72.2139 131.304 72.2139 129.192C72.2139 127.112 72.6619 125.584 73.5579 124.608C74.4539 123.632 75.8459 123.144 77.7339 123.144C79.4299 123.144 80.7979 123.648 81.8379 124.656L80.5419 126.336C79.7739 125.568 78.8619 125.184 77.8059 125.184C76.7979 125.184 76.0299 125.488 75.5019 126.096C74.9739 126.704 74.7099 127.736 74.7099 129.192C74.7099 130.632 74.9819 131.664 75.5259 132.288C76.0699 132.896 76.8859 133.2 77.9739 133.2ZM88.3968 135.24C86.4128 135.24 84.9808 134.752 84.1008 133.776C83.2368 132.8 82.8048 131.272 82.8048 129.192C82.8048 127.112 83.2208 125.584 84.0528 124.608C84.9008 123.632 86.1968 123.144 87.9408 123.144C89.6528 123.144 90.9328 123.632 91.7808 124.608C92.6288 125.568 93.0528 127.088 93.0528 129.168V130.008H85.3488C85.4288 131.128 85.7008 131.944 86.1648 132.456C86.6448 132.968 87.3968 133.224 88.4208 133.224C89.0928 133.224 89.7408 133.128 90.3648 132.936C90.9888 132.744 91.6048 132.464 92.2128 132.096L92.9328 133.992C92.3248 134.36 91.6288 134.664 90.8448 134.904C90.0768 135.128 89.2608 135.24 88.3968 135.24ZM90.4848 128.088C90.4048 127.128 90.1648 126.408 89.7648 125.928C89.3648 125.432 88.7568 125.184 87.9408 125.184C86.3408 125.184 85.4848 126.152 85.3728 128.088H90.4848Z" fill="white"/>
<defs>
<clipPath id="clip0_4618_797">
<rect width="112" height="112" fill="white"/>
</clipPath>
</defs>
</svg>
