<svg width="112" height="140" viewBox="0 0 112 140" fill="none" xmlns="http://www.w3.org/2000/svg">
<path d="M82.1396 78H76.9992H71.8589C70.7652 78 70.1189 79.5062 70.7453 80.598L76.6015 90.7776C76.7009 90.9596 76.8501 91 76.9992 91C77.1483 91 77.2975 90.9596 77.3969 90.7776L83.2531 80.598C83.8795 79.5062 83.2432 78 82.1396 78Z" fill="white"/>
<path d="M88.2751 79C95.9947 76.1499 101.5 68.7274 101.5 60.0057C101.5 48.8267 92.4519 39.7727 81.2802 39.7727C80.9984 39.7727 80.7267 39.8029 80.4449 39.813C78.3313 29.0872 68.8907 21 57.5479 21C46.2051 21 36.211 29.6008 34.5 40.8201" stroke="white" stroke-width="3.5" stroke-linecap="round" stroke-linejoin="round"/>
<path d="M76.5 83V66" stroke="white" stroke-width="3.5" stroke-linecap="round" stroke-linejoin="round"/>
<path d="M20.8242 87C14.8791 87 10.5 82.5204 10.5 75.9694C10.5 69.4184 14.8791 65 20.8242 65C25.692 65 29.5823 68.0102 30.5 72.6122H26.5499C26.0012 69.7347 24.1259 68.6939 20.8242 68.6939C16.4751 68.6939 14.6097 70.5102 14.6097 75.9592C14.6097 81.4082 16.4751 83.2959 20.8242 83.2959C24.1359 83.2959 26.0012 82.2347 26.5499 79.3163H30.5C29.5823 83.9796 25.692 86.9898 20.8242 86.9898V87Z" fill="white"/>
<path d="M32.5 75.9694C32.5 69.4796 36.9536 65 43 65C49.0464 65 53.5 69.4796 53.5 75.9694C53.5 82.4592 49.0464 87 43 87C36.9536 87 32.5 82.5204 32.5 75.9694ZM43 83.3061C47.4232 83.3061 49.3203 81.4898 49.3203 75.9694C49.3203 70.449 47.4232 68.7041 43 68.7041C38.5768 68.7041 36.6797 70.5204 36.6797 75.9694C36.6797 81.4184 38.5768 83.3061 43 83.3061Z" fill="white"/>
<path d="M55.9027 83.9587L60.4377 78.698C61.6553 77.2762 62.4415 76.4942 62.4415 75.1638C62.4415 74.0264 61.8471 73.5694 60.4856 73.5694C58.9803 73.5694 58.338 74.067 58.2804 76.0169H55.5C55.663 73.2241 57.6668 71 60.4856 71C63.4578 71 65.3274 72.7874 65.3274 75.1638C65.3274 76.8192 64.6467 77.8754 63.1031 79.6425L59.7474 83.5322H65.5V86H55.9123V83.9689L55.9027 83.9587Z" fill="white"/>
<path d="M13.5 61C13.5 49.9497 22.5032 41 33.6196 41C39.0376 41 43.9448 43.1802 47.5 46.7143" stroke="white" stroke-width="3.5" stroke-linecap="round" stroke-linejoin="round"/>
<path d="M48.0173 118.872H50.5373V128.88C50.5373 131.088 50.0333 132.704 49.0253 133.728C48.0333 134.736 46.4573 135.24 44.2973 135.24C42.1373 135.24 40.5533 134.736 39.5453 133.728C38.5373 132.704 38.0333 131.088 38.0333 128.88V118.872H40.5533V129.264C40.5533 130.624 40.8653 131.616 41.4893 132.24C42.1133 132.864 43.0493 133.176 44.2973 133.176C45.5453 133.176 46.4733 132.864 47.0813 132.24C47.7053 131.616 48.0173 130.624 48.0173 129.264V118.872ZM57.5897 127.8C57.9417 127.944 58.3017 128.072 58.6697 128.184C59.0377 128.296 59.5257 128.464 60.1337 128.688C60.9497 128.976 61.5497 129.376 61.9337 129.888C62.3177 130.384 62.5097 131.04 62.5097 131.856C62.5097 132.976 62.1337 133.824 61.3817 134.4C60.6297 134.96 59.4137 135.24 57.7337 135.24C56.8697 135.24 56.0697 135.16 55.3337 135C54.6137 134.824 53.9417 134.576 53.3177 134.256L54.1097 132.36C54.5897 132.632 55.1337 132.848 55.7417 133.008C56.3497 133.152 57.0137 133.224 57.7337 133.224C58.5497 133.224 59.1177 133.112 59.4377 132.888C59.7737 132.648 59.9417 132.32 59.9417 131.904C59.9417 131.552 59.8457 131.272 59.6537 131.064C59.4617 130.84 59.1257 130.64 58.6457 130.464C58.2297 130.304 57.7817 130.152 57.3017 130.008C56.8217 129.864 56.3817 129.72 55.9817 129.576C55.1497 129.256 54.5497 128.856 54.1817 128.376C53.8137 127.896 53.6297 127.296 53.6297 126.576C53.6297 125.472 53.9977 124.624 54.7337 124.032C55.4857 123.44 56.6857 123.144 58.3337 123.144C59.1657 123.144 59.9017 123.232 60.5417 123.408C61.1817 123.568 61.7337 123.792 62.1977 124.08L61.4057 125.952C60.9897 125.68 60.5577 125.48 60.1097 125.352C59.6617 125.224 59.1497 125.16 58.5737 125.16C57.7097 125.16 57.0937 125.272 56.7257 125.496C56.3737 125.704 56.1977 125.992 56.1977 126.36C56.1977 126.664 56.2857 126.928 56.4617 127.152C56.6377 127.36 57.0137 127.576 57.5897 127.8ZM70.086 135.24C68.102 135.24 66.67 134.752 65.79 133.776C64.926 132.8 64.494 131.272 64.494 129.192C64.494 127.112 64.91 125.584 65.742 124.608C66.59 123.632 67.886 123.144 69.63 123.144C71.342 123.144 72.622 123.632 73.47 124.608C74.318 125.568 74.742 127.088 74.742 129.168V130.008H67.038C67.118 131.128 67.39 131.944 67.854 132.456C68.334 132.968 69.086 133.224 70.11 133.224C70.782 133.224 71.43 133.128 72.054 132.936C72.678 132.744 73.294 132.464 73.902 132.096L74.622 133.992C74.014 134.36 73.318 134.664 72.534 134.904C71.766 135.128 70.95 135.24 70.086 135.24ZM72.174 128.088C72.094 127.128 71.854 126.408 71.454 125.928C71.054 125.432 70.446 125.184 69.63 125.184C68.03 125.184 67.174 126.152 67.062 128.088H72.174Z" fill="white"/>
</svg>
