<svg width="112" height="146" viewBox="0 0 112 146" fill="none" xmlns="http://www.w3.org/2000/svg">
<path d="M76.2145 35.8419C71.6564 28.3359 63.4558 24.0946 55.2489 24.0017C43.2564 23.8625 32.3677 32.2739 30.3841 44.7559C28.9141 44.8533 27.5292 44.8868 26.1614 45.0427C15.9652 46.2065 7.68163 54.7822 7.04596 64.8029C6.23718 77.5633 16.2007 87.985 29.249 87.9933C47.0988 88.0045 64.9486 88.0017 82.7984 87.985C84.0016 87.985 85.219 87.9209 86.4024 87.7316C98.4035 85.8216 106.415 75.1716 104.791 63.3355C103.378 53.0448 94.2612 45.166 83.6251 44.9461C71.7632 44.9461 61.6735 54.5304 61.6735 66.3975" stroke="white" stroke-width="2"/>
<path d="M70 60L61.5856 67.0851L54.9605 58.304" stroke="white" stroke-width="2" stroke-linecap="round" stroke-linejoin="round"/>
<path d="M48.0173 118.872H50.5373V128.88C50.5373 131.088 50.0333 132.704 49.0253 133.728C48.0333 134.736 46.4573 135.24 44.2973 135.24C42.1373 135.24 40.5533 134.736 39.5453 133.728C38.5373 132.704 38.0333 131.088 38.0333 128.88V118.872H40.5533V129.264C40.5533 130.624 40.8653 131.616 41.4893 132.24C42.1133 132.864 43.0493 133.176 44.2973 133.176C45.5453 133.176 46.4733 132.864 47.0813 132.24C47.7053 131.616 48.0173 130.624 48.0173 129.264V118.872ZM57.5897 127.8C57.9417 127.944 58.3017 128.072 58.6697 128.184C59.0377 128.296 59.5257 128.464 60.1337 128.688C60.9497 128.976 61.5497 129.376 61.9337 129.888C62.3177 130.384 62.5097 131.04 62.5097 131.856C62.5097 132.976 62.1337 133.824 61.3817 134.4C60.6297 134.96 59.4137 135.24 57.7337 135.24C56.8697 135.24 56.0697 135.16 55.3337 135C54.6137 134.824 53.9417 134.576 53.3177 134.256L54.1097 132.36C54.5897 132.632 55.1337 132.848 55.7417 133.008C56.3497 133.152 57.0137 133.224 57.7337 133.224C58.5497 133.224 59.1177 133.112 59.4377 132.888C59.7737 132.648 59.9417 132.32 59.9417 131.904C59.9417 131.552 59.8457 131.272 59.6537 131.064C59.4617 130.84 59.1257 130.64 58.6457 130.464C58.2297 130.304 57.7817 130.152 57.3017 130.008C56.8217 129.864 56.3817 129.72 55.9817 129.576C55.1497 129.256 54.5497 128.856 54.1817 128.376C53.8137 127.896 53.6297 127.296 53.6297 126.576C53.6297 125.472 53.9977 124.624 54.7337 124.032C55.4857 123.44 56.6857 123.144 58.3337 123.144C59.1657 123.144 59.9017 123.232 60.5417 123.408C61.1817 123.568 61.7337 123.792 62.1977 124.08L61.4057 125.952C60.9897 125.68 60.5577 125.48 60.1097 125.352C59.6617 125.224 59.1497 125.16 58.5737 125.16C57.7097 125.16 57.0937 125.272 56.7257 125.496C56.3737 125.704 56.1977 125.992 56.1977 126.36C56.1977 126.664 56.2857 126.928 56.4617 127.152C56.6377 127.36 57.0137 127.576 57.5897 127.8ZM70.086 135.24C68.102 135.24 66.67 134.752 65.79 133.776C64.926 132.8 64.494 131.272 64.494 129.192C64.494 127.112 64.91 125.584 65.742 124.608C66.59 123.632 67.886 123.144 69.63 123.144C71.342 123.144 72.622 123.632 73.47 124.608C74.318 125.568 74.742 127.088 74.742 129.168V130.008H67.038C67.118 131.128 67.39 131.944 67.854 132.456C68.334 132.968 69.086 133.224 70.11 133.224C70.782 133.224 71.43 133.128 72.054 132.936C72.678 132.744 73.294 132.464 73.902 132.096L74.622 133.992C74.014 134.36 73.318 134.664 72.534 134.904C71.766 135.128 70.95 135.24 70.086 135.24ZM72.174 128.088C72.094 127.128 71.854 126.408 71.454 125.928C71.054 125.432 70.446 125.184 69.63 125.184C68.03 125.184 67.174 126.152 67.062 128.088H72.174Z" fill="white"/>
</svg>
