<svg width="112" height="141" viewBox="0 0 112 141" fill="none" xmlns="http://www.w3.org/2000/svg">
<g clip-path="url(#clip0_4618_815)">
<path d="M51.2596 41.7497L51.0196 41.5997C50.0896 41.0197 47.6296 39.4697 43.9596 37.9697C43.0596 37.5997 42.0396 38.0297 41.6796 38.9297C41.3096 39.8197 41.7396 40.8497 42.6396 41.2097C46.0296 42.5997 48.2996 44.0297 49.1596 44.5697C49.3596 44.6897 49.4896 44.7797 49.5696 44.8197C49.8396 44.9697 50.1196 45.0397 50.3996 45.0397C51.0096 45.0397 51.5996 44.7197 51.9196 44.1497C52.3896 43.3197 52.0896 42.2497 51.2596 41.7697V41.7497Z" fill="white"/>
<path d="M99.1303 71.4798L88.1503 61.1398C87.1803 60.2198 85.4303 59.5598 84.0003 59.5598H57.8503C58.0003 58.3598 58.4003 56.2198 59.4403 53.4598L59.7403 53.4398C61.3803 53.3198 64.8003 53.0698 67.7603 52.6098C77.3603 51.0998 85.4303 44.1698 88.3103 34.9598C88.5703 34.1098 88.7603 33.3698 88.8903 32.7598C90.1803 26.5598 89.9903 17.8298 89.9903 17.4598C89.9803 16.9698 89.7703 16.5098 89.4003 16.1898C89.0403 15.8698 88.5603 15.7198 88.0703 15.7598C71.9003 17.3698 61.4103 22.4598 56.8903 30.8898C56.2103 32.1598 55.7503 33.5698 55.4303 34.9398C52.9403 32.0998 50.3503 30.2998 50.3003 30.2698C45.9603 26.6298 39.2303 25.2698 27.8203 25.7598C27.3303 25.7798 26.8803 25.9998 26.5603 26.3698C26.2403 26.7398 26.1003 27.2298 26.1503 27.7098C26.1803 27.9898 26.9803 34.6298 28.6403 39.2098C29.4803 41.5198 34.3703 52.8798 49.5003 52.8798C49.7303 52.8798 49.9603 52.8798 50.2003 52.8798C51.1703 52.8598 51.9303 52.0598 51.9103 51.0898C51.8903 50.1198 51.0703 49.3498 50.1203 49.3798C36.8403 49.7598 32.6403 39.9698 31.9303 38.0198C30.9203 35.2298 30.2403 31.4398 29.8903 29.1898C39.0603 28.9598 44.7203 30.1598 48.1803 33.0498C48.2203 33.0798 52.5603 36.0998 54.9703 40.2098C54.9903 40.2498 55.0303 40.2698 55.0603 40.3098C55.1303 40.4098 55.2103 40.4898 55.3003 40.5798C55.3803 40.6598 55.4603 40.7298 55.5503 40.7798C55.6403 40.8398 55.7403 40.8798 55.8503 40.9198C55.9603 40.9598 56.0703 40.9998 56.1903 41.0198C56.2303 41.0198 56.2703 41.0498 56.3203 41.0598C56.3803 41.0598 56.4403 41.0398 56.5003 41.0398C56.6303 41.0398 56.7603 41.0298 56.8903 40.9998C56.9903 40.9798 57.0803 40.9398 57.1703 40.8998C57.2403 40.8698 57.3103 40.8698 57.3803 40.8298C57.4203 40.7998 57.4503 40.7598 57.4903 40.7298C57.5803 40.6698 57.6603 40.5898 57.7403 40.5098C57.8203 40.4298 57.8903 40.3498 57.9503 40.2598C58.0103 40.1698 58.0503 40.0698 58.0903 39.9698C58.1303 39.8598 58.1703 39.7498 58.1903 39.6298C58.1903 39.5898 58.2203 39.5498 58.2303 39.5098C58.4303 37.5498 58.8303 34.6898 59.9803 32.5398C63.7503 25.5198 72.6703 21.1198 86.5103 19.4498C86.4903 22.3398 86.3403 27.9098 85.4803 32.0398C85.3703 32.5498 85.2103 33.1898 84.9903 33.9098C82.5103 41.8598 75.5403 47.8498 67.2403 49.1498C65.1603 49.4798 62.8103 49.6898 61.0803 49.8298C63.5803 44.9698 67.9503 39.1198 75.6303 33.7198C76.4203 33.1598 76.6103 32.0698 76.0603 31.2798C75.5003 30.4898 74.4103 30.2998 73.6203 30.8498C57.1803 42.3998 54.7103 55.7798 54.3403 59.5498H28.0203C26.5903 59.5498 24.8403 60.2098 23.8703 61.1298L12.8903 71.4698C11.6703 72.6198 12.0003 73.7998 12.1403 74.1298C12.3203 74.5698 12.9203 75.5998 14.7003 75.5998H23.2603V90.7798C23.2603 93.7898 25.7103 96.2498 28.7303 96.2498H83.3203C86.3303 96.2498 88.7903 93.7998 88.7903 90.7798V75.5998H97.3503C99.1303 75.5998 99.7303 74.5698 99.9103 74.1298C100.04 73.7998 100.38 72.6198 99.1603 71.4698L99.1303 71.4798ZM26.2503 63.6898C26.5403 63.4098 27.4303 63.0598 28.0003 63.0598H52.4103L43.4703 71.4798C43.1803 71.7598 42.2903 72.1098 41.7203 72.1098H17.3103L26.2503 63.6898ZM26.7403 90.7898V75.6098H41.7203C43.1503 75.6098 44.9003 74.9498 45.8703 74.0298L54.2503 66.1398V92.7598H28.7103C27.6203 92.7598 26.7403 91.8798 26.7403 90.7898ZM85.2603 90.7898C85.2603 91.8798 84.3803 92.7598 83.2903 92.7598H57.7503V66.1398L66.1303 74.0298C67.1003 74.9398 68.8503 75.6098 70.2803 75.6098H85.2603V90.7898ZM70.2803 72.1098C69.7103 72.1098 68.8203 71.7598 68.5303 71.4798L59.5903 63.0598H84.0003C84.5703 63.0598 85.4603 63.4098 85.7503 63.6898L94.6903 72.1098H70.2803Z" fill="white"/>
</g>
<path d="M8.06675 128.976V135H5.54675V118.872H11.3067C13.1787 118.872 14.5868 119.288 15.5308 120.12C16.4908 120.952 16.9708 122.208 16.9708 123.888C16.9708 125.568 16.4988 126.84 15.5547 127.704C14.6267 128.552 13.2508 128.976 11.4268 128.976H8.06675ZM8.06675 120.96V126.888H11.4027C12.3627 126.888 13.1068 126.64 13.6348 126.144C14.1788 125.648 14.4507 124.896 14.4507 123.888C14.4507 122.928 14.1788 122.2 13.6348 121.704C13.1068 121.208 12.3627 120.96 11.4027 120.96H8.06675ZM27.4981 135H25.6501L25.2901 134.04C24.8421 134.408 24.3141 134.704 23.7061 134.928C23.1141 135.136 22.4581 135.24 21.7381 135.24C20.4421 135.24 19.4821 134.928 18.8581 134.304C18.2341 133.664 17.9221 132.744 17.9221 131.544C17.9221 130.328 18.3141 129.424 19.0981 128.832C19.8821 128.24 21.1621 127.944 22.9381 127.944C23.3061 127.944 23.6581 127.952 23.9941 127.968C24.3301 127.984 24.6661 128.008 25.0021 128.04V127.632C25.0021 126.72 24.8181 126.08 24.4501 125.712C24.0981 125.344 23.4581 125.16 22.5301 125.16C22.0181 125.16 21.4661 125.24 20.8741 125.4C20.2981 125.544 19.7061 125.776 19.0981 126.096L18.3541 124.32C19.0421 123.952 19.7541 123.664 20.4901 123.456C21.2421 123.248 22.0261 123.144 22.8421 123.144C23.7061 123.144 24.4341 123.224 25.0261 123.384C25.6341 123.544 26.1141 123.816 26.4661 124.2C26.8341 124.568 27.0981 125.048 27.2581 125.64C27.4181 126.232 27.4981 126.96 27.4981 127.824V135ZM22.3381 133.248C22.7541 133.248 23.2101 133.152 23.7061 132.96C24.2021 132.768 24.6341 132.52 25.0021 132.216V129.984C24.6821 129.952 24.3461 129.928 23.9941 129.912C23.6421 129.88 23.2501 129.864 22.8181 129.864C21.9381 129.864 21.3141 129.992 20.9461 130.248C20.5941 130.488 20.4181 130.904 20.4181 131.496C20.4181 132.664 21.0581 133.248 22.3381 133.248ZM35.5867 133.2C36.1787 133.2 36.7307 133.128 37.2427 132.984C37.7547 132.824 38.2587 132.608 38.7547 132.336L39.3547 134.256C38.8587 134.56 38.2907 134.8 37.6507 134.976C37.0107 135.152 36.3227 135.24 35.5867 135.24C33.5867 135.24 32.1227 134.76 31.1947 133.8C30.2827 132.84 29.8267 131.304 29.8267 129.192C29.8267 127.112 30.2747 125.584 31.1707 124.608C32.0667 123.632 33.4587 123.144 35.3467 123.144C37.0427 123.144 38.4107 123.648 39.4507 124.656L38.1547 126.336C37.3867 125.568 36.4747 125.184 35.4187 125.184C34.4107 125.184 33.6427 125.488 33.1147 126.096C32.5867 126.704 32.3227 127.736 32.3227 129.192C32.3227 130.632 32.5947 131.664 33.1387 132.288C33.6827 132.896 34.4987 133.2 35.5867 133.2ZM41.531 135V118.344L44.051 118.056V127.68H45.011L48.875 123.384H51.875L46.931 128.736L51.995 135H48.971L44.939 129.744H44.051V135H41.531ZM62.7163 135H60.8683L60.5083 134.04C60.0603 134.408 59.5323 134.704 58.9243 134.928C58.3323 135.136 57.6763 135.24 56.9563 135.24C55.6603 135.24 54.7003 134.928 54.0763 134.304C53.4523 133.664 53.1403 132.744 53.1403 131.544C53.1403 130.328 53.5323 129.424 54.3163 128.832C55.1003 128.24 56.3803 127.944 58.1562 127.944C58.5243 127.944 58.8763 127.952 59.2122 127.968C59.5483 127.984 59.8843 128.008 60.2203 128.04V127.632C60.2203 126.72 60.0363 126.08 59.6683 125.712C59.3163 125.344 58.6763 125.16 57.7483 125.16C57.2363 125.16 56.6843 125.24 56.0923 125.4C55.5163 125.544 54.9243 125.776 54.3163 126.096L53.5723 124.32C54.2603 123.952 54.9723 123.664 55.7083 123.456C56.4603 123.248 57.2443 123.144 58.0603 123.144C58.9243 123.144 59.6523 123.224 60.2443 123.384C60.8523 123.544 61.3323 123.816 61.6843 124.2C62.0523 124.568 62.3163 125.048 62.4763 125.64C62.6363 126.232 62.7163 126.96 62.7163 127.824V135ZM57.5563 133.248C57.9723 133.248 58.4283 133.152 58.9243 132.96C59.4203 132.768 59.8523 132.52 60.2203 132.216V129.984C59.9003 129.952 59.5643 129.928 59.2122 129.912C58.8603 129.88 58.4683 129.864 58.0363 129.864C57.1563 129.864 56.5323 129.992 56.1643 130.248C55.8123 130.488 55.6363 130.904 55.6363 131.496C55.6363 132.664 56.2763 133.248 57.5563 133.248ZM75.3168 123.384V135.024C75.3168 136.848 74.8608 138.168 73.9488 138.984C73.0368 139.816 71.6688 140.232 69.8448 140.232C69.1728 140.232 68.5088 140.176 67.8528 140.064C67.1968 139.952 66.6048 139.792 66.0768 139.584L66.6048 137.64C67.1168 137.816 67.6448 137.952 68.1888 138.048C68.7328 138.16 69.2688 138.216 69.7968 138.216C70.8688 138.216 71.6368 137.984 72.1008 137.52C72.5808 137.072 72.8208 136.32 72.8208 135.264V134.208C72.4528 134.528 71.9968 134.784 71.4528 134.976C70.9248 135.152 70.3248 135.24 69.6528 135.24C68.2128 135.24 67.0848 134.752 66.2688 133.776C65.4528 132.8 65.0448 131.272 65.0448 129.192C65.0448 127.112 65.4688 125.584 66.3168 124.608C67.1648 123.632 68.4128 123.144 70.0608 123.144C71.2768 123.144 72.2848 123.528 73.0848 124.296L73.4208 123.384H75.3168ZM70.3728 125.16C69.4128 125.16 68.6928 125.472 68.2128 126.096C67.7488 126.704 67.5168 127.736 67.5168 129.192C67.5168 130.648 67.7568 131.688 68.2368 132.312C68.7168 132.936 69.4368 133.248 70.3968 133.248C70.8608 133.248 71.3008 133.168 71.7168 133.008C72.1328 132.832 72.5008 132.592 72.8208 132.288V126.096C72.5008 125.808 72.1328 125.584 71.7168 125.424C71.3008 125.248 70.8528 125.16 70.3728 125.16ZM78.56 123.384H81.056V135H78.56V123.384ZM78.56 118.392H81.056V121.008H78.56V118.392ZM86.5252 124.44C87.0372 124.04 87.6052 123.728 88.2292 123.504C88.8532 123.264 89.5252 123.144 90.2452 123.144C91.6052 123.144 92.5892 123.472 93.1972 124.128C93.8212 124.784 94.1332 125.832 94.1332 127.272V135H91.6372V127.8C91.6372 126.84 91.4692 126.16 91.1332 125.76C90.8132 125.36 90.3332 125.16 89.6932 125.16C89.1812 125.16 88.6852 125.248 88.2052 125.424C87.7412 125.584 87.2692 125.824 86.7892 126.144V135H84.2932V123.384H86.1652L86.5252 124.44ZM106.738 123.384V135.024C106.738 136.848 106.282 138.168 105.37 138.984C104.458 139.816 103.09 140.232 101.266 140.232C100.594 140.232 99.9301 140.176 99.2741 140.064C98.6181 139.952 98.0261 139.792 97.4981 139.584L98.0261 137.64C98.5381 137.816 99.0661 137.952 99.6101 138.048C100.154 138.16 100.69 138.216 101.218 138.216C102.29 138.216 103.058 137.984 103.522 137.52C104.002 137.072 104.242 136.32 104.242 135.264V134.208C103.874 134.528 103.418 134.784 102.874 134.976C102.346 135.152 101.746 135.24 101.074 135.24C99.6341 135.24 98.5061 134.752 97.6901 133.776C96.8741 132.8 96.4661 131.272 96.4661 129.192C96.4661 127.112 96.8901 125.584 97.7381 124.608C98.5861 123.632 99.8341 123.144 101.482 123.144C102.698 123.144 103.706 123.528 104.506 124.296L104.842 123.384H106.738ZM101.794 125.16C100.834 125.16 100.114 125.472 99.6341 126.096C99.1701 126.704 98.9381 127.736 98.9381 129.192C98.9381 130.648 99.1781 131.688 99.6581 132.312C100.138 132.936 100.858 133.248 101.818 133.248C102.282 133.248 102.722 133.168 103.138 133.008C103.554 132.832 103.922 132.592 104.242 132.288V126.096C103.922 125.808 103.554 125.584 103.138 125.424C102.722 125.248 102.274 125.16 101.794 125.16Z" fill="white"/>
<defs>
<clipPath id="clip0_4618_815">
<rect width="112" height="112" fill="white"/>
</clipPath>
</defs>
</svg>
