<svg width="112" height="146" viewBox="0 0 112 146" fill="none" xmlns="http://www.w3.org/2000/svg">
<g clip-path="url(#clip0_4618_779)">
<path d="M79.4092 48.5199C80.0292 56.1599 75.5192 59.8799 75.2992 60.0599C74.5392 60.6499 74.4092 61.7499 74.9992 62.5099C75.3392 62.9499 75.8592 63.1899 76.3792 63.1899C76.7592 63.1899 77.1292 63.0699 77.4492 62.8199C77.7292 62.5999 84.0492 57.5299 82.7892 47.3099C84.8792 44.5299 92.5692 32.9199 84.8592 22.0599C77.5792 11.7899 64.1092 10.7299 60.1592 10.6399C58.7192 10.6599 57.3992 11.4499 56.8092 12.7799C55.4992 15.7599 51.7092 26.2999 58.1192 36.7099C64.3692 46.8699 75.2792 48.3399 79.4092 48.5299V48.5199ZM60.0892 14.1299C63.6292 14.1999 75.6692 15.1299 82.0092 24.0699C86.9792 31.0699 84.1492 38.4499 81.7892 42.5099C78.5292 31.0499 70.2692 23.7399 69.8792 23.3999C69.1492 22.7699 68.0492 22.8499 67.4092 23.5699C66.7792 24.2999 66.8492 25.3999 67.5792 26.0399C67.6692 26.1199 76.1792 33.6599 78.8192 44.9599C74.8492 44.6199 66.0792 42.9499 61.1092 34.8599C55.7492 26.1499 58.5692 17.4899 60.0892 14.1299Z" fill="white"/>
<path d="M94.5697 25.45C93.7597 24.92 92.6797 25.16 92.1497 25.97C91.6197 26.78 91.8597 27.86 92.6697 28.39C94.3297 29.47 95.3197 31.29 95.3197 33.26V72.74C95.3197 75.94 92.7197 78.54 89.5197 78.54H22.4797C19.2797 78.54 16.6797 75.94 16.6797 72.74V33.26C16.6797 30.06 19.2797 27.46 22.4797 27.46H48.5397C49.5097 27.46 50.2897 26.68 50.2897 25.71C50.2897 24.74 49.5097 23.96 48.5397 23.96H22.4797C17.3497 23.96 13.1797 28.13 13.1797 33.26V72.74C13.1797 77.87 17.3497 82.04 22.4797 82.04H47.3897V87.77C47.3897 90.52 45.1497 92.76 42.3997 92.76H36.9797C36.0097 92.76 35.2297 93.54 35.2297 94.51C35.2297 95.48 36.0097 96.26 36.9797 96.26H73.2197C74.1897 96.26 74.9697 95.48 74.9697 94.51C74.9697 93.54 74.1897 92.76 73.2197 92.76H67.7997C65.0497 92.76 62.8097 90.52 62.8097 87.77V82.04H89.4997C94.6297 82.04 98.7997 77.87 98.7997 72.74V33.26C98.7997 30.1 97.2097 27.18 94.5597 25.46L94.5697 25.45ZM60.9797 92.75H49.2397C50.2697 91.35 50.8897 89.63 50.8897 87.76V82.03H59.3197V87.76C59.3197 89.63 59.9497 91.34 60.9697 92.75H60.9797Z" fill="white"/>
<path d="M45.7785 38.5598L45.4485 36.3198C45.2385 34.8698 43.9885 33.7998 42.5285 33.7998H36.9585C35.4985 33.7998 34.2485 34.8698 34.0385 36.3198L33.7085 38.5598C32.4785 39.0798 31.3185 39.7498 30.2685 40.5498L28.1585 39.7098C27.8085 39.5698 27.4385 39.4998 27.0685 39.4998C26.0385 39.4998 25.0485 40.0398 24.5085 40.9798L21.7285 45.7998C20.9985 47.0698 21.2985 48.6798 22.4485 49.5898L24.2285 50.9998C24.1485 51.6498 24.0985 52.3098 24.0985 52.9798C24.0985 53.6498 24.1485 54.3098 24.2285 54.9598L22.4485 56.3698C21.2985 57.2798 20.9985 58.8898 21.7285 60.1598L24.5085 64.9798C25.0485 65.9198 26.0385 66.4598 27.0685 66.4598C27.4285 66.4598 27.7985 66.3898 28.1585 66.2498L30.2685 65.4098C31.3185 66.2098 32.4685 66.8798 33.7085 67.3998L34.0385 69.6398C34.2485 71.0898 35.4985 72.1598 36.9585 72.1598H42.5285C43.9885 72.1598 45.2385 71.0898 45.4485 69.6398L45.7785 67.3998C47.0085 66.8798 48.1685 66.2098 49.2185 65.4098L51.3285 66.2498C51.6785 66.3898 52.0485 66.4598 52.4185 66.4598C53.4485 66.4598 54.4385 65.9198 54.9785 64.9798L57.7585 60.1598C58.4885 58.8898 58.1785 57.2798 57.0385 56.3698L55.2585 54.9598C55.3385 54.3098 55.3885 53.6498 55.3885 52.9798C55.3885 52.3098 55.3385 51.6498 55.2585 50.9998L57.0385 49.5898C58.1885 48.6798 58.4885 47.0698 57.7585 45.7998L54.9785 40.9798C54.4385 40.0398 53.4485 39.4998 52.4185 39.4998C52.0585 39.4998 51.6885 39.5698 51.3285 39.7098L49.2185 40.5498C48.1685 39.7498 47.0185 39.0798 45.7785 38.5598ZM52.1785 43.1398L54.4885 47.1498L53.0785 48.2698L51.5385 49.4998L51.7885 51.4598C51.8585 51.9998 51.8885 52.5098 51.8885 52.9998C51.8885 53.4898 51.8585 53.9998 51.7885 54.5398L51.5385 56.4998L53.0785 57.7298L54.4885 58.8498L52.1785 62.8598L50.4985 62.1998L48.6585 61.4698L47.0885 62.6698C46.2685 63.2998 45.3685 63.8198 44.4185 64.2098L42.5985 64.9698L42.3085 66.9198L42.0485 68.6998H37.4185L37.1585 66.9198L36.8685 64.9698L35.0485 64.2098C34.1085 63.8098 33.2085 63.2898 32.3785 62.6698L30.8085 61.4698L28.9685 62.1998L27.2885 62.8598L24.9785 58.8498L26.3885 57.7298L27.9285 56.4998L27.6785 54.5398C27.6085 53.9998 27.5785 53.4998 27.5785 52.9998C27.5785 52.4998 27.6085 51.9998 27.6785 51.4598L27.9285 49.4998L26.3885 48.2698L24.9785 47.1498L27.2885 43.1398L28.9685 43.7998L30.8085 44.5298L32.3785 43.3298C33.2085 42.6998 34.0985 42.1798 35.0485 41.7898L36.8685 41.0298L37.1585 39.0798L37.4185 37.2998H42.0485L42.3085 39.0798L42.5985 41.0298L44.4185 41.7898C45.3585 42.1898 46.2585 42.7098 47.0885 43.3298L48.6585 44.5298L50.4985 43.7998L52.1785 43.1398Z" fill="white"/>
<path d="M39.7411 44.8699C35.2511 44.8699 31.6211 48.5099 31.6211 52.9899C31.6211 57.4699 35.2611 61.1099 39.7411 61.1099C44.2211 61.1099 47.8611 57.4699 47.8611 52.9899C47.8611 48.5099 44.2211 44.8699 39.7411 44.8699ZM39.7411 57.6199C37.1911 57.6199 35.1211 55.5499 35.1211 52.9999C35.1211 50.4499 37.1911 48.3799 39.7411 48.3799C42.2911 48.3799 44.3611 50.4499 44.3611 52.9999C44.3611 55.5499 42.2911 57.6199 39.7411 57.6199Z" fill="white"/>
</g>
<path d="M37.7849 120.96V126.36H41.1929C43.2089 126.36 44.2169 125.464 44.2169 123.672C44.2169 121.864 43.2249 120.96 41.2409 120.96H37.7849ZM35.2649 135V118.872H41.1929C44.9369 118.872 46.8089 120.472 46.8089 123.672C46.8089 124.728 46.5449 125.632 46.0169 126.384C45.5049 127.136 44.7609 127.688 43.7849 128.04L47.3369 135H44.6729L41.3369 128.448H37.7849V135H35.2649ZM62.89 127.464C62.426 129.416 61.762 130.968 60.898 132.12L63.562 135H60.706L59.41 133.608C58.69 134.136 57.914 134.544 57.082 134.832C56.25 135.104 55.354 135.24 54.394 135.24C53.514 135.24 52.738 135.136 52.066 134.928C51.41 134.72 50.858 134.432 50.41 134.064C49.978 133.696 49.65 133.264 49.426 132.768C49.202 132.256 49.09 131.696 49.09 131.088C49.09 130.128 49.394 129.232 50.002 128.4C50.626 127.568 51.514 126.864 52.666 126.288C51.978 125.52 51.49 124.824 51.202 124.2C50.914 123.56 50.77 122.96 50.77 122.4C50.77 121.28 51.162 120.376 51.946 119.688C52.746 118.984 53.85 118.632 55.258 118.632C55.962 118.632 56.594 118.728 57.154 118.92C57.714 119.112 58.186 119.368 58.57 119.688C58.97 120.008 59.274 120.392 59.482 120.84C59.69 121.288 59.794 121.76 59.794 122.256C59.794 122.736 59.714 123.176 59.554 123.576C59.41 123.96 59.178 124.328 58.858 124.68C58.554 125.032 58.162 125.384 57.682 125.736C57.202 126.088 56.634 126.464 55.978 126.864L59.41 130.536C59.698 130.072 59.946 129.592 60.154 129.096C60.362 128.6 60.538 128.056 60.682 127.464H62.89ZM54.082 127.824C53.074 128.32 52.378 128.84 51.994 129.384C51.61 129.928 51.418 130.48 51.418 131.04C51.418 131.76 51.674 132.32 52.186 132.72C52.698 133.12 53.482 133.32 54.538 133.32C55.866 133.32 57.018 132.904 57.994 132.072L54.082 127.824ZM54.61 125.328C55.618 124.864 56.346 124.384 56.794 123.888C57.242 123.376 57.466 122.864 57.466 122.352C57.466 121.824 57.274 121.392 56.89 121.056C56.522 120.72 55.978 120.552 55.258 120.552C54.586 120.552 54.058 120.72 53.674 121.056C53.306 121.376 53.122 121.832 53.122 122.424C53.122 122.936 53.234 123.408 53.458 123.84C53.698 124.272 54.082 124.768 54.61 125.328ZM78.3593 126.936C78.3593 129.688 77.6713 131.72 76.2953 133.032C74.9193 134.344 72.9113 135 70.2713 135H65.4233V118.872H70.2713C72.9273 118.872 74.9353 119.536 76.2953 120.864C77.6713 122.192 78.3593 124.216 78.3593 126.936ZM67.9433 120.96V132.936H70.2713C72.0633 132.936 73.4393 132.464 74.3993 131.52C75.3593 130.56 75.8393 129.032 75.8393 126.936C75.8393 124.856 75.3593 123.344 74.3993 122.4C73.4393 121.44 72.0633 120.96 70.2713 120.96H67.9433Z" fill="white"/>
<defs>
<clipPath id="clip0_4618_779">
<rect width="112" height="112" fill="white"/>
</clipPath>
</defs>
</svg>
