<svg width="115" height="140" viewBox="0 0 115 140" fill="none" xmlns="http://www.w3.org/2000/svg">
<g clip-path="url(#clip0_5420_627)">
<path d="M78.7227 25.8236C78.9087 23.9007 79.3016 21.3576 80.3767 19.3314C83.1266 14.2038 89.5155 9.30367 103.43 7.4842C104.692 7.3188 105.808 8.29056 105.787 9.55178C105.746 12.1983 105.581 16.5402 104.878 19.9103C104.774 20.3858 104.63 20.9648 104.423 21.6471C102.107 29.049 95.7596 34.466 88.1095 35.6652C85.3183 36.0994 81.9481 36.3061 80.9557 36.3888" stroke="white" stroke-width="4.13517" stroke-linecap="round" stroke-linejoin="round"/>
<path d="M67.5 26.0303C70.374 27.1881 73.2272 29.4831 73.2272 29.4831" stroke="white" stroke-width="4.13517" stroke-linecap="round" stroke-linejoin="round"/>
<path d="M71.4886 35.8513C61.2333 35.2723 57.3462 27.8704 56.3951 25.224C55.5888 22.991 55.0099 20.0757 54.6997 18.0908C54.493 16.8296 55.4647 15.7131 56.726 15.6925C64.8103 15.5684 69.5037 16.7469 72.5017 19.2487C72.5017 19.2487 76.4715 21.9779 78.7252 25.8235" stroke="white" stroke-width="4.13517" stroke-linecap="round" stroke-linejoin="round"/>
<path d="M15.1055 72.5715V60.2281C15.1055 56.7752 19.0339 54.4802 22.4661 55.9275L45.1683 66.865V57.106C45.1683 53.6532 49.0967 51.3582 52.5289 52.8055L78.4152 63.7843L78.2291 52.2059C78.2291 43.7909 78.3739 30.8272 93.2192 19.7864" stroke="white" stroke-width="4.13517" stroke-linecap="round" stroke-linejoin="round"/>
<path d="M15.1055 104.536V72.5713" stroke="white" stroke-width="4.13517" stroke-linecap="round" stroke-linejoin="round"/>
<path d="M87.4727 49.9106H95.1434C97.7486 49.9106 99.8782 52.0196 99.8782 54.6454V104.536" stroke="white" stroke-width="4.13517" stroke-linecap="round" stroke-linejoin="round"/>
<path d="M69.9578 87.1272H72.625V84.46H69.9578V87.1272Z" stroke="white" stroke-width="4.13517" stroke-linecap="round" stroke-linejoin="round"/>
<path d="M56.1258 87.1272H58.793V84.46H56.1258V87.1272Z" stroke="white" stroke-width="4.13517" stroke-linecap="round" stroke-linejoin="round"/>
<path d="M42.2898 87.1272H44.957V84.46H42.2898V87.1272Z" stroke="white" stroke-width="4.13517" stroke-linecap="round" stroke-linejoin="round"/>
<path d="M7.56641 104.537H107.431" stroke="white" stroke-width="4.13517" stroke-linecap="round" stroke-linejoin="round"/>
</g>
<path d="M5.13847 128.976V135H2.61847V118.872H8.37847C10.2505 118.872 11.6585 119.288 12.6025 120.12C13.5625 120.952 14.0425 122.208 14.0425 123.888C14.0425 125.568 13.5705 126.84 12.6265 127.704C11.6985 128.552 10.3225 128.976 8.49847 128.976H5.13847ZM5.13847 120.96V126.888H8.47447C9.43447 126.888 10.1785 126.64 10.7065 126.144C11.2505 125.648 11.5225 124.896 11.5225 123.888C11.5225 122.928 11.2505 122.2 10.7065 121.704C10.1785 121.208 9.43447 120.96 8.47447 120.96H5.13847ZM17.8643 123.384L18.1043 124.776C19.0963 123.688 20.2723 123.144 21.6323 123.144C22.1763 123.144 22.7123 123.256 23.2403 123.48V125.616C22.9683 125.488 22.6883 125.392 22.4003 125.328C22.1283 125.248 21.8323 125.208 21.5123 125.208C20.9363 125.208 20.3763 125.344 19.8323 125.616C19.2883 125.888 18.8243 126.232 18.4403 126.648V135H15.9443V123.384H17.8643ZM24.0625 129.192C24.0625 127.08 24.5025 125.544 25.3825 124.584C26.2785 123.624 27.6705 123.144 29.5585 123.144C31.4465 123.144 32.8305 123.632 33.7105 124.608C34.6065 125.584 35.0545 127.112 35.0545 129.192C35.0545 131.304 34.6065 132.84 33.7105 133.8C32.8305 134.76 31.4465 135.24 29.5585 135.24C27.6705 135.24 26.2785 134.76 25.3825 133.8C24.5025 132.84 24.0625 131.304 24.0625 129.192ZM26.5345 129.192C26.5345 130.552 26.7665 131.568 27.2305 132.24C27.7105 132.896 28.4865 133.224 29.5585 133.224C30.6305 133.224 31.3985 132.896 31.8625 132.24C32.3265 131.568 32.5585 130.552 32.5585 129.192C32.5585 127.832 32.3265 126.824 31.8625 126.168C31.3985 125.512 30.6305 125.184 29.5585 125.184C28.4865 125.184 27.7105 125.512 27.2305 126.168C26.7665 126.824 26.5345 127.832 26.5345 129.192ZM47.2926 118.056V135H45.3966L45.0606 134.112C44.2766 134.864 43.2686 135.24 42.0366 135.24C40.4046 135.24 39.1566 134.752 38.2926 133.776C37.4446 132.8 37.0206 131.272 37.0206 129.192C37.0206 127.128 37.4286 125.608 38.2446 124.632C39.0606 123.64 40.1886 123.144 41.6286 123.144C42.3006 123.144 42.9006 123.24 43.4286 123.432C43.9726 123.624 44.4286 123.88 44.7966 124.2V118.344L47.2926 118.056ZM42.3486 133.248C42.8286 133.248 43.2766 133.168 43.6926 133.008C44.1086 132.832 44.4766 132.6 44.7966 132.312V126.12C44.4766 125.816 44.1086 125.584 43.6926 125.424C43.2766 125.248 42.8366 125.16 42.3726 125.16C41.4126 125.16 40.6926 125.472 40.2126 126.096C39.7326 126.72 39.4926 127.752 39.4926 129.192C39.4926 130.664 39.7246 131.712 40.1886 132.336C40.6686 132.944 41.3886 133.248 42.3486 133.248ZM57.8078 133.968C57.2958 134.368 56.7278 134.68 56.1038 134.904C55.4798 135.128 54.8078 135.24 54.0878 135.24C52.7438 135.24 51.7598 134.92 51.1358 134.28C50.5278 133.624 50.2238 132.576 50.2238 131.136V123.384H52.6958V130.608C52.6958 131.584 52.8478 132.272 53.1518 132.672C53.4718 133.056 53.9678 133.248 54.6398 133.248C55.1518 133.248 55.6398 133.168 56.1038 133.008C56.5838 132.832 57.0718 132.584 57.5678 132.264V123.384H60.0398V135H58.1918L57.8078 133.968ZM68.275 133.2C68.867 133.2 69.419 133.128 69.931 132.984C70.443 132.824 70.947 132.608 71.443 132.336L72.043 134.256C71.547 134.56 70.979 134.8 70.339 134.976C69.699 135.152 69.011 135.24 68.275 135.24C66.275 135.24 64.811 134.76 63.883 133.8C62.971 132.84 62.515 131.304 62.515 129.192C62.515 127.112 62.963 125.584 63.859 124.608C64.755 123.632 66.147 123.144 68.035 123.144C69.731 123.144 71.099 123.648 72.139 124.656L70.843 126.336C70.075 125.568 69.163 125.184 68.107 125.184C67.099 125.184 66.331 125.488 65.803 126.096C65.275 126.704 65.011 127.736 65.011 129.192C65.011 130.632 65.283 131.664 65.827 132.288C66.371 132.896 67.187 133.2 68.275 133.2ZM77.5313 125.424V130.728C77.5313 131.656 77.6593 132.304 77.9153 132.672C78.1713 133.04 78.6673 133.224 79.4033 133.224C79.7713 133.224 80.1393 133.168 80.5073 133.056C80.8913 132.944 81.2513 132.816 81.5873 132.672L82.0673 134.52C81.5553 134.76 81.0113 134.936 80.4353 135.048C79.8593 135.176 79.2913 135.24 78.7313 135.24C78.0273 135.24 77.4353 135.152 76.9553 134.976C76.4913 134.8 76.1153 134.544 75.8273 134.208C75.5553 133.856 75.3553 133.432 75.2273 132.936C75.1153 132.44 75.0593 131.864 75.0593 131.208V125.424H73.1633V123.384H75.0593V121.056L77.5313 120.6V123.384H81.6353V125.424H77.5313ZM84.2773 123.384H86.7733V135H84.2773V123.384ZM84.2773 118.392H86.7733V121.008H84.2773V118.392ZM89.5065 129.192C89.5065 127.08 89.9465 125.544 90.8265 124.584C91.7225 123.624 93.1145 123.144 95.0025 123.144C96.8905 123.144 98.2745 123.632 99.1545 124.608C100.051 125.584 100.499 127.112 100.499 129.192C100.499 131.304 100.051 132.84 99.1545 133.8C98.2745 134.76 96.8905 135.24 95.0025 135.24C93.1145 135.24 91.7225 134.76 90.8265 133.8C89.9465 132.84 89.5065 131.304 89.5065 129.192ZM91.9785 129.192C91.9785 130.552 92.2105 131.568 92.6745 132.24C93.1545 132.896 93.9305 133.224 95.0025 133.224C96.0745 133.224 96.8425 132.896 97.3065 132.24C97.7705 131.568 98.0025 130.552 98.0025 129.192C98.0025 127.832 97.7705 126.824 97.3065 126.168C96.8425 125.512 96.0745 125.184 95.0025 125.184C93.9305 125.184 93.1545 125.512 92.6745 126.168C92.2105 126.824 91.9785 127.832 91.9785 129.192ZM105.201 124.44C105.713 124.04 106.281 123.728 106.905 123.504C107.529 123.264 108.201 123.144 108.921 123.144C110.281 123.144 111.265 123.472 111.873 124.128C112.497 124.784 112.809 125.832 112.809 127.272V135H110.313V127.8C110.313 126.84 110.145 126.16 109.809 125.76C109.489 125.36 109.009 125.16 108.369 125.16C107.857 125.16 107.361 125.248 106.881 125.424C106.417 125.584 105.945 125.824 105.465 126.144V135H102.969V123.384H104.841L105.201 124.44Z" fill="white"/>
<defs>
<clipPath id="clip0_5420_627">
<rect width="104" height="101.208" fill="white" transform="translate(5.5 5.39624)"/>
</clipPath>
</defs>
</svg>
