<svg width="67" height="69" viewBox="0 0 67 69" fill="none" xmlns="http://www.w3.org/2000/svg">
<g clip-path="url(#clip0_4720_1473)">
<path d="M32.0501 16.6525L31.9539 16.5906C31.5895 16.3637 30.6201 15.7518 29.1832 15.1606C28.8326 15.0162 28.427 15.1881 28.2895 15.5387C28.1451 15.8893 28.317 16.2881 28.6676 16.4325C30.0014 16.9756 30.8951 17.5393 31.232 17.7525C31.3076 17.8006 31.3626 17.835 31.3901 17.8487C31.4932 17.9037 31.6101 17.9312 31.7201 17.9312C31.9607 17.9312 32.1945 17.8075 32.3182 17.5806C32.5039 17.2506 32.387 16.8312 32.057 16.6456L32.0501 16.6525Z" fill="white"/>
<path d="M51.5697 28.4119L47.2068 24.3C46.8172 23.9382 46.1283 23.6738 45.5577 23.6738H35.1621C35.2247 23.2007 35.3778 22.3449 35.7953 21.2525H35.9136C36.5676 21.1969 37.9245 21.0995 39.1005 20.9116C42.9205 20.3133 46.1283 17.558 47.2695 13.8914C47.3738 13.5574 47.4504 13.2582 47.4991 13.0147C48.014 10.5517 47.9374 7.07986 47.9374 6.93375C47.9374 6.73894 47.847 6.55804 47.7009 6.42585C47.5547 6.30061 47.3669 6.23799 47.172 6.25191C40.7426 6.89201 36.5746 8.91668 34.7724 12.2702C34.501 12.7782 34.3201 13.3348 34.1879 13.8844C33.1998 12.7573 32.17 12.0406 32.1491 12.0267C30.4235 10.5795 27.7515 10.0369 23.2078 10.2317C23.013 10.2386 22.832 10.3291 22.7068 10.4752C22.5815 10.6213 22.5259 10.8161 22.5467 11.0109C22.5607 11.1222 22.8807 13.7661 23.5348 15.5821C23.8688 16.5005 25.8102 21.016 31.8291 21.016C31.9195 21.016 32.0169 21.016 32.1074 21.016C32.4901 21.009 32.7963 20.689 32.7893 20.3063C32.7823 19.9236 32.4553 19.6175 32.0796 19.6245C26.7982 19.7706 25.1283 15.8813 24.8499 15.109C24.4464 14.0027 24.175 12.4929 24.0428 11.6023C27.6889 11.5119 29.9364 11.985 31.3142 13.133C31.3281 13.1469 33.0537 14.3436 34.014 15.9787C34.0209 15.9926 34.0348 15.9995 34.0488 16.0204C34.0766 16.0622 34.1114 16.0969 34.1462 16.1248C34.181 16.1526 34.2088 16.1804 34.2436 16.2083C34.2784 16.2291 34.3201 16.25 34.3619 16.2639C34.4036 16.2848 34.4454 16.2987 34.4941 16.3057C34.515 16.3057 34.5289 16.3196 34.5428 16.3196C34.5706 16.3196 34.5915 16.3126 34.6124 16.3126C34.668 16.3126 34.7167 16.3126 34.7655 16.2987C34.8072 16.2918 34.842 16.2778 34.8768 16.257C34.9046 16.243 34.9325 16.243 34.9603 16.2291C34.9812 16.2222 34.9881 16.2013 35.002 16.1874C35.0368 16.1596 35.0716 16.1317 35.0994 16.0969C35.1273 16.0622 35.1621 16.0343 35.1829 15.9926C35.2038 15.9578 35.2247 15.916 35.2386 15.8743C35.2595 15.8326 35.2734 15.7838 35.2804 15.7421C35.2804 15.7212 35.2943 15.7073 35.2943 15.6934C35.3708 14.9141 35.5309 13.7801 35.9901 12.9243C37.4861 10.1343 41.0348 8.38094 46.5388 7.71997C46.5388 8.86797 46.4692 11.0805 46.1283 12.7225C46.0865 12.9243 46.0239 13.1817 45.9335 13.467C44.9454 16.6257 42.176 19.0052 38.8778 19.527C38.0498 19.6592 37.1173 19.7427 36.4285 19.7984C37.4235 17.8642 39.1561 15.5403 42.2178 13.3904C42.5309 13.1678 42.6074 12.7364 42.3848 12.4233C42.1621 12.1102 41.7307 12.0337 41.4176 12.2563C34.8837 16.8484 33.9026 22.164 33.7495 23.6668H23.2843C22.7137 23.6668 22.0179 23.9312 21.6352 24.293L17.2724 28.405C16.7853 28.8642 16.9175 29.3303 16.9732 29.4625C17.0428 29.6365 17.2793 30.047 17.9891 30.047H21.3917V36.0792C21.3917 37.2759 22.3658 38.25 23.5627 38.25H45.2655C46.4623 38.25 47.4364 37.2759 47.4364 36.0792V30.047H50.839C51.5488 30.047 51.7854 29.6365 51.8549 29.4625C51.9106 29.3303 52.0428 28.8642 51.5557 28.405L51.5697 28.4119ZM22.5885 25.3158C22.7068 25.2045 23.0547 25.0653 23.2843 25.0653H32.9911L29.4354 28.4119C29.3171 28.5232 28.9692 28.6624 28.7396 28.6624H19.0328L22.5885 25.3158ZM22.7833 36.0862V30.0539H28.7396C29.3102 30.0539 30.006 29.7895 30.3887 29.4277L33.7217 26.2899V36.8724H23.5627C23.1312 36.8724 22.7833 36.5245 22.7833 36.0931V36.0862ZM46.0518 36.0862C46.0518 36.5176 45.7038 36.8654 45.2724 36.8654H35.1134V26.2829L38.4464 29.4208C38.836 29.7826 39.5249 30.047 40.0955 30.047H46.0518V36.0792V36.0862ZM40.0955 28.6624C39.8659 28.6624 39.5179 28.5232 39.3997 28.4119L35.844 25.0653H45.5508C45.7804 25.0653 46.1283 25.2045 46.2466 25.3158L49.8023 28.6624H40.0955Z" fill="white"/>
</g>
<path d="M4.35779 56.335V60.25H3.20279V50.17H6.59279C8.86279 50.17 9.99779 51.175 9.99779 53.185C9.99779 54.215 9.72779 55 9.18779 55.54C8.64779 56.07 7.83279 56.335 6.74279 56.335H4.35779ZM4.35779 51.16V55.36H6.77279C7.44279 55.36 7.95279 55.18 8.30279 54.82C8.66279 54.45 8.84279 53.905 8.84279 53.185C8.84279 52.525 8.66279 52.025 8.30279 51.685C7.95279 51.335 7.44279 51.16 6.77279 51.16H4.35779ZM16.418 60.25H15.563L15.383 59.575C15.083 59.835 14.728 60.04 14.318 60.19C13.918 60.33 13.478 60.4 12.998 60.4C12.248 60.4 11.683 60.21 11.303 59.83C10.933 59.44 10.748 58.885 10.748 58.165C10.748 57.425 10.978 56.88 11.438 56.53C11.898 56.17 12.668 55.99 13.748 55.99C14.068 55.99 14.348 55.995 14.588 56.005C14.838 56.015 15.068 56.035 15.278 56.065V55.66C15.278 54.99 15.148 54.515 14.888 54.235C14.628 53.945 14.168 53.8 13.508 53.8C13.198 53.8 12.858 53.855 12.488 53.965C12.128 54.065 11.763 54.215 11.393 54.415L11.048 53.545C11.448 53.325 11.873 53.155 12.323 53.035C12.773 52.905 13.238 52.84 13.718 52.84C14.228 52.84 14.653 52.89 14.993 52.99C15.343 53.09 15.623 53.255 15.833 53.485C16.043 53.705 16.193 53.99 16.283 54.34C16.373 54.69 16.418 55.12 16.418 55.63V60.25ZM13.313 59.455C13.643 59.455 13.983 59.385 14.333 59.245C14.693 59.095 15.008 58.9 15.278 58.66V56.995C15.018 56.965 14.758 56.945 14.498 56.935C14.238 56.915 13.948 56.905 13.628 56.905C12.998 56.905 12.548 57 12.278 57.19C12.018 57.38 11.888 57.7 11.888 58.15C11.888 58.58 11.998 58.905 12.218 59.125C12.438 59.345 12.803 59.455 13.313 59.455ZM21.5233 59.44C22.2233 59.44 22.8483 59.265 23.3983 58.915L23.7283 59.83C23.4383 60 23.1033 60.14 22.7233 60.25C22.3533 60.35 21.9533 60.4 21.5233 60.4C20.3333 60.4 19.4633 60.105 18.9133 59.515C18.3633 58.915 18.0883 57.95 18.0883 56.62C18.0883 55.32 18.3533 54.365 18.8833 53.755C19.4133 53.145 20.2433 52.84 21.3733 52.84C22.3433 52.84 23.1383 53.135 23.7583 53.725L23.1283 54.505C22.9083 54.285 22.6483 54.115 22.3483 53.995C22.0583 53.865 21.7433 53.8 21.4033 53.8C20.6833 53.8 20.1383 54.02 19.7683 54.46C19.4083 54.89 19.2283 55.61 19.2283 56.62C19.2283 57.63 19.4183 58.355 19.7983 58.795C20.1783 59.225 20.7533 59.44 21.5233 59.44ZM25.2738 60.25V49.81L26.4288 49.66V55.825H27.1338L29.8488 52.99H31.2438L28.0488 56.32L31.3338 60.25H29.9388L27.1188 56.8H26.4288V60.25H25.2738ZM37.834 60.25H36.979L36.799 59.575C36.499 59.835 36.144 60.04 35.734 60.19C35.334 60.33 34.894 60.4 34.414 60.4C33.664 60.4 33.099 60.21 32.719 59.83C32.349 59.44 32.164 58.885 32.164 58.165C32.164 57.425 32.394 56.88 32.854 56.53C33.314 56.17 34.084 55.99 35.164 55.99C35.484 55.99 35.764 55.995 36.004 56.005C36.254 56.015 36.484 56.035 36.694 56.065V55.66C36.694 54.99 36.564 54.515 36.304 54.235C36.044 53.945 35.584 53.8 34.924 53.8C34.614 53.8 34.274 53.855 33.904 53.965C33.544 54.065 33.179 54.215 32.809 54.415L32.464 53.545C32.864 53.325 33.289 53.155 33.739 53.035C34.189 52.905 34.654 52.84 35.134 52.84C35.644 52.84 36.069 52.89 36.409 52.99C36.759 53.09 37.039 53.255 37.249 53.485C37.459 53.705 37.609 53.99 37.699 54.34C37.789 54.69 37.834 55.12 37.834 55.63V60.25ZM34.729 59.455C35.059 59.455 35.399 59.385 35.749 59.245C36.109 59.095 36.424 58.9 36.694 58.66V56.995C36.434 56.965 36.174 56.945 35.914 56.935C35.654 56.915 35.364 56.905 35.044 56.905C34.414 56.905 33.964 57 33.694 57.19C33.434 57.38 33.304 57.7 33.304 58.15C33.304 58.58 33.414 58.905 33.634 59.125C33.854 59.345 34.219 59.455 34.729 59.455ZM45.5793 52.99V60.34C45.5793 61.45 45.3093 62.255 44.7693 62.755C44.2393 63.265 43.4443 63.52 42.3843 63.52C41.9643 63.52 41.5643 63.485 41.1843 63.415C40.8043 63.355 40.4693 63.27 40.1793 63.16L40.4193 62.215C40.9893 62.435 41.6393 62.545 42.3693 62.545C43.0893 62.545 43.6093 62.38 43.9293 62.05C44.2593 61.72 44.4243 61.18 44.4243 60.43V59.68C44.1743 59.91 43.8693 60.09 43.5093 60.22C43.1593 60.34 42.7743 60.4 42.3543 60.4C41.4143 60.4 40.6993 60.095 40.2093 59.485C39.7293 58.875 39.4893 57.92 39.4893 56.62C39.4893 55.33 39.7393 54.38 40.2393 53.77C40.7393 53.15 41.4843 52.84 42.4743 52.84C42.8943 52.84 43.2793 52.91 43.6293 53.05C43.9793 53.19 44.2843 53.38 44.5443 53.62L44.7243 52.99H45.5793ZM42.6543 53.8C41.9643 53.8 41.4543 54.02 41.1243 54.46C40.8043 54.9 40.6443 55.62 40.6443 56.62C40.6443 57.63 40.8043 58.355 41.1243 58.795C41.4543 59.235 41.9643 59.455 42.6543 59.455C43.0043 59.455 43.3293 59.385 43.6293 59.245C43.9393 59.105 44.2043 58.915 44.4243 58.675V54.58C44.2043 54.34 43.9393 54.15 43.6293 54.01C43.3293 53.87 43.0043 53.8 42.6543 53.8ZM47.8362 52.99H48.9762V60.25H47.8362V52.99ZM47.8212 49.87H48.9762V51.37H47.8212V49.87ZM52.2662 53.725C52.6062 53.455 52.9812 53.24 53.3912 53.08C53.8012 52.92 54.2312 52.84 54.6812 52.84C55.5212 52.84 56.1212 53.045 56.4812 53.455C56.8512 53.855 57.0362 54.51 57.0362 55.42V60.25H55.8962V55.735C55.8962 55.015 55.7762 54.515 55.5362 54.235C55.3062 53.955 54.9462 53.815 54.4562 53.815C53.7562 53.815 53.0562 54.07 52.3562 54.58V60.25H51.2162V52.99H52.0712L52.2662 53.725ZM64.7834 52.99V60.34C64.7834 61.45 64.5134 62.255 63.9734 62.755C63.4434 63.265 62.6484 63.52 61.5884 63.52C61.1684 63.52 60.7684 63.485 60.3884 63.415C60.0084 63.355 59.6734 63.27 59.3834 63.16L59.6234 62.215C60.1934 62.435 60.8434 62.545 61.5734 62.545C62.2934 62.545 62.8134 62.38 63.1334 62.05C63.4634 61.72 63.6284 61.18 63.6284 60.43V59.68C63.3784 59.91 63.0734 60.09 62.7134 60.22C62.3634 60.34 61.9784 60.4 61.5584 60.4C60.6184 60.4 59.9034 60.095 59.4134 59.485C58.9334 58.875 58.6934 57.92 58.6934 56.62C58.6934 55.33 58.9434 54.38 59.4434 53.77C59.9434 53.15 60.6884 52.84 61.6784 52.84C62.0984 52.84 62.4834 52.91 62.8334 53.05C63.1834 53.19 63.4884 53.38 63.7484 53.62L63.9284 52.99H64.7834ZM61.8584 53.8C61.1684 53.8 60.6584 54.02 60.3284 54.46C60.0084 54.9 59.8484 55.62 59.8484 56.62C59.8484 57.63 60.0084 58.355 60.3284 58.795C60.6584 59.235 61.1684 59.455 61.8584 59.455C62.2084 59.455 62.5334 59.385 62.8334 59.245C63.1434 59.105 63.4084 58.915 63.6284 58.675V54.58C63.4084 54.34 63.1434 54.15 62.8334 54.01C62.5334 53.87 62.2084 53.8 61.8584 53.8Z" fill="white"/>
<defs>
<clipPath id="clip0_4720_1473">
<rect width="44" height="44" fill="white" transform="translate(11.9141 0.25)"/>
</clipPath>
</defs>
</svg>
