<svg width="131" height="131" viewBox="0 0 131 131" fill="none" xmlns="http://www.w3.org/2000/svg">
<path d="M32.5114 107.118C32.5114 106.745 32.4647 106.418 32.3714 106.138C32.2781 105.858 32.1007 105.597 31.8394 105.354C31.5781 105.111 31.2141 104.878 30.7474 104.654C30.2807 104.411 29.6834 104.159 28.9554 103.898C27.7234 103.487 26.6874 103.086 25.8474 102.694C25.0074 102.283 24.3261 101.845 23.8034 101.378C23.2807 100.911 22.9074 100.398 22.6834 99.8381C22.4594 99.2594 22.3474 98.5968 22.3474 97.8501C22.3474 96.2821 22.9074 95.0408 24.0274 94.1261C25.1661 93.2114 26.8927 92.7541 29.2074 92.7541C30.2714 92.7541 31.2514 92.8941 32.1474 93.1741C33.0434 93.4354 33.8927 93.8088 34.6954 94.2941L33.6594 96.5341C32.9687 96.1048 32.2501 95.7688 31.5034 95.5261C30.7567 95.2834 29.9914 95.1621 29.2074 95.1621C27.8447 95.1621 26.8461 95.3861 26.2114 95.8341C25.5954 96.2634 25.2874 96.8701 25.2874 97.6541C25.2874 98.0461 25.3434 98.4008 25.4554 98.7181C25.5861 99.0168 25.8101 99.3061 26.1274 99.5861C26.4447 99.8661 26.8741 100.137 27.4154 100.398C27.9754 100.659 28.6941 100.93 29.5714 101.21C30.6167 101.546 31.5127 101.891 32.2594 102.246C33.0061 102.601 33.6127 103.002 34.0794 103.45C34.5647 103.879 34.9101 104.383 35.1154 104.962C35.3394 105.522 35.4514 106.185 35.4514 106.95C35.4514 108.593 34.8727 109.871 33.7154 110.786C32.5581 111.682 30.7661 112.13 28.3394 112.13C27.0887 112.13 25.9221 111.99 24.8394 111.71C23.7754 111.43 22.8141 111.047 21.9554 110.562L22.9354 108.322C23.8314 108.789 24.7087 109.143 25.5674 109.386C26.4447 109.629 27.3314 109.75 28.2274 109.75C29.6461 109.75 30.7101 109.526 31.4194 109.078C32.1474 108.611 32.5114 107.958 32.5114 107.118ZM44.3068 112.13C41.9922 112.13 40.3215 111.561 39.2948 110.422C38.2868 109.283 37.7828 107.501 37.7828 105.074C37.7828 102.647 38.2682 100.865 39.2388 99.7261C40.2282 98.5874 41.7402 98.0181 43.7748 98.0181C45.7722 98.0181 47.2655 98.5874 48.2548 99.7261C49.2442 100.846 49.7388 102.619 49.7388 105.046V106.026H40.7508C40.8442 107.333 41.1615 108.285 41.7028 108.882C42.2628 109.479 43.1402 109.778 44.3348 109.778C45.1188 109.778 45.8748 109.666 46.6028 109.442C47.3308 109.218 48.0495 108.891 48.7588 108.462L49.5988 110.674C48.8895 111.103 48.0775 111.458 47.1628 111.738C46.2668 111.999 45.3148 112.13 44.3068 112.13ZM46.7428 103.786C46.6495 102.666 46.3695 101.826 45.9028 101.266C45.4362 100.687 44.7268 100.398 43.7748 100.398C41.9082 100.398 40.9095 101.527 40.7788 103.786H46.7428ZM54.8263 98.2981L55.1063 99.9221C56.2636 98.6528 57.6356 98.0181 59.2223 98.0181C59.857 98.0181 60.4823 98.1488 61.0983 98.4101V100.902C60.781 100.753 60.4543 100.641 60.1183 100.566C59.801 100.473 59.4556 100.426 59.0823 100.426C58.4103 100.426 57.757 100.585 57.1223 100.902C56.4876 101.219 55.9463 101.621 55.4983 102.106V111.85H52.5863V98.2981H54.8263ZM67.5433 111.85L62.4193 98.2981H65.4153L67.6833 104.794L68.9993 108.518H69.0553L70.3993 104.794L72.6393 98.2981H75.6353L70.5113 111.85H67.5433ZM77.9346 98.2981H80.8466V111.85H77.9346V98.2981ZM77.9346 92.4741H80.8466V95.5261H77.9346V92.4741ZM90.7553 109.75C91.446 109.75 92.09 109.666 92.6873 109.498C93.2847 109.311 93.8727 109.059 94.4513 108.742L95.1513 110.982C94.5727 111.337 93.91 111.617 93.1633 111.822C92.4167 112.027 91.614 112.13 90.7553 112.13C88.422 112.13 86.714 111.57 85.6313 110.45C84.5673 109.33 84.0353 107.538 84.0353 105.074C84.0353 102.647 84.558 100.865 85.6033 99.7261C86.6487 98.5874 88.2727 98.0181 90.4753 98.0181C92.454 98.0181 94.05 98.6061 95.2633 99.7821L93.7513 101.742C92.8553 100.846 91.7913 100.398 90.5593 100.398C89.3833 100.398 88.4873 100.753 87.8713 101.462C87.2553 102.171 86.9473 103.375 86.9473 105.074C86.9473 106.754 87.2647 107.958 87.8993 108.686C88.534 109.395 89.486 109.75 90.7553 109.75ZM102.915 112.13C100.601 112.13 98.9301 111.561 97.9034 110.422C96.8954 109.283 96.3914 107.501 96.3914 105.074C96.3914 102.647 96.8768 100.865 97.8474 99.7261C98.8368 98.5874 100.349 98.0181 102.383 98.0181C104.381 98.0181 105.874 98.5874 106.863 99.7261C107.853 100.846 108.347 102.619 108.347 105.046V106.026H99.3594C99.4528 107.333 99.7701 108.285 100.311 108.882C100.871 109.479 101.749 109.778 102.943 109.778C103.727 109.778 104.483 109.666 105.211 109.442C105.939 109.218 106.658 108.891 107.367 108.462L108.207 110.674C107.498 111.103 106.686 111.458 105.771 111.738C104.875 111.999 103.923 112.13 102.915 112.13ZM105.351 103.786C105.258 102.666 104.978 101.826 104.511 101.266C104.045 100.687 103.335 100.398 102.383 100.398C100.517 100.398 99.5181 101.527 99.3874 103.786H105.351Z" fill="#7E7C77"/>
<mask id="path-2-inside-1_1951_6134" fill="white">
<path fill-rule="evenodd" clip-rule="evenodd" d="M79.6033 25.0317H49.5195V23.0317H80.6033H81.6033V24.0317V31.7832H91.7969H92.4311L92.7015 32.3569L100.089 48.0337L105.322 50.3643L105.916 50.6285V51.2778V64.1824V65.1824H104.916H100.312C99.9856 69.0201 96.7612 72.0333 92.8317 72.0333C88.9023 72.0333 85.6779 69.0201 85.3514 65.1824H81.6033V65.1834H80.6033H61.5576C61.2307 69.0206 58.0065 72.0333 54.0774 72.0333C50.1482 72.0333 46.924 69.0206 46.5971 65.1834H41.9932H40.9932V64.1834V49.9103V49.8163H40.9975C41.0449 49.3081 41.4726 48.9103 41.9932 48.9103L79.6033 48.9103V25.0317ZM85.4471 63.1824C86.0871 59.6921 89.1499 57.0468 92.8317 57.0468C96.5136 57.0468 99.5764 59.6921 100.216 63.1824H103.916V51.9271L98.4281 49.4834H81.6056L81.6067 63.1824H85.4471ZM79.6033 63.1834H61.4622C60.8226 59.6926 57.7595 57.0468 54.0774 57.0468C50.3952 57.0468 47.3321 59.6926 46.6925 63.1834H42.9932V50.9103L79.6033 50.9103V63.1834ZM91.1627 33.7832L97.6183 47.4823H81.6055V33.7832H91.1627ZM54.0774 70.0333C57.1227 70.0333 59.5849 67.5703 59.5849 64.54C59.5849 61.5098 57.1227 59.0468 54.0774 59.0468C51.032 59.0468 48.5698 61.5098 48.5698 64.54C48.5698 67.5703 51.032 70.0333 54.0774 70.0333ZM98.3393 64.54C98.3393 67.5703 95.8771 70.0333 92.8317 70.0333C89.7864 70.0333 87.3242 67.5703 87.3242 64.54C87.3242 61.5098 89.7864 59.0468 92.8317 59.0468C95.8771 59.0468 98.3393 61.5098 98.3393 64.54Z"/>
</mask>
<path fill-rule="evenodd" clip-rule="evenodd" d="M79.6033 25.0317H49.5195V23.0317H80.6033H81.6033V24.0317V31.7832H91.7969H92.4311L92.7015 32.3569L100.089 48.0337L105.322 50.3643L105.916 50.6285V51.2778V64.1824V65.1824H104.916H100.312C99.9856 69.0201 96.7612 72.0333 92.8317 72.0333C88.9023 72.0333 85.6779 69.0201 85.3514 65.1824H81.6033V65.1834H80.6033H61.5576C61.2307 69.0206 58.0065 72.0333 54.0774 72.0333C50.1482 72.0333 46.924 69.0206 46.5971 65.1834H41.9932H40.9932V64.1834V49.9103V49.8163H40.9975C41.0449 49.3081 41.4726 48.9103 41.9932 48.9103L79.6033 48.9103V25.0317ZM85.4471 63.1824C86.0871 59.6921 89.1499 57.0468 92.8317 57.0468C96.5136 57.0468 99.5764 59.6921 100.216 63.1824H103.916V51.9271L98.4281 49.4834H81.6056L81.6067 63.1824H85.4471ZM79.6033 63.1834H61.4622C60.8226 59.6926 57.7595 57.0468 54.0774 57.0468C50.3952 57.0468 47.3321 59.6926 46.6925 63.1834H42.9932V50.9103L79.6033 50.9103V63.1834ZM91.1627 33.7832L97.6183 47.4823H81.6055V33.7832H91.1627ZM54.0774 70.0333C57.1227 70.0333 59.5849 67.5703 59.5849 64.54C59.5849 61.5098 57.1227 59.0468 54.0774 59.0468C51.032 59.0468 48.5698 61.5098 48.5698 64.54C48.5698 67.5703 51.032 70.0333 54.0774 70.0333ZM98.3393 64.54C98.3393 67.5703 95.8771 70.0333 92.8317 70.0333C89.7864 70.0333 87.3242 67.5703 87.3242 64.54C87.3242 61.5098 89.7864 59.0468 92.8317 59.0468C95.8771 59.0468 98.3393 61.5098 98.3393 64.54Z" fill="#7E7C77"/>
<path d="M49.5195 25.0317H47.5195V27.0317H49.5195V25.0317ZM79.6033 25.0317H81.6033V23.0317H79.6033V25.0317ZM49.5195 23.0317V21.0317H47.5195V23.0317H49.5195ZM81.6033 23.0317H83.6033V21.0317H81.6033V23.0317ZM81.6033 31.7832H79.6033V33.7832H81.6033V31.7832ZM92.4311 31.7832L94.2403 30.9306L93.6996 29.7832H92.4311V31.7832ZM92.7015 32.3569L90.8923 33.2095L90.8923 33.2095L92.7015 32.3569ZM100.089 48.0337L98.2799 48.8863L98.5967 49.5584L99.2755 49.8607L100.089 48.0337ZM105.322 50.3643L106.136 48.5373L106.136 48.5373L105.322 50.3643ZM105.916 50.6285H107.916V49.3298L106.729 48.8015L105.916 50.6285ZM105.916 65.1824V67.1824H107.916V65.1824H105.916ZM100.312 65.1824V63.1824H98.475L98.3193 65.0129L100.312 65.1824ZM85.3514 65.1824L87.3442 65.0129L87.1885 63.1824H85.3514V65.1824ZM81.6033 65.1824V63.1824H79.6033V65.1824H81.6033ZM81.6033 65.1834V67.1834H83.6033V65.1834H81.6033ZM61.5576 65.1834V63.1834H59.7207L59.5648 65.0136L61.5576 65.1834ZM46.5971 65.1834L48.5899 65.0136L48.434 63.1834H46.5971V65.1834ZM40.9932 65.1834H38.9932V67.1834H40.9932V65.1834ZM40.9932 49.8163V47.8163H38.9932V49.8163H40.9932ZM40.9975 49.8163V51.8163H42.8198L42.9889 50.0019L40.9975 49.8163ZM41.9932 48.9103L41.9932 46.9103H41.9932V48.9103ZM79.6033 48.9103V50.9103H81.6033V48.9103H79.6033ZM85.4471 63.1824V65.1824H87.1138L87.4143 63.5431L85.4471 63.1824ZM100.216 63.1824L98.2492 63.5431L98.5497 65.1824H100.216V63.1824ZM103.916 63.1824V65.1824H105.916V63.1824H103.916ZM103.916 51.9271H105.916V50.6285L104.729 50.1001L103.916 51.9271ZM98.4281 49.4834L99.2418 47.6563L98.8534 47.4834H98.4281V49.4834ZM81.6056 49.4834V47.4834H79.6054L79.6056 49.4835L81.6056 49.4834ZM81.6067 63.1824L79.6067 63.1826L79.6069 65.1824H81.6067V63.1824ZM61.4622 63.1834L59.4949 63.5438L59.7953 65.1834H61.4622V63.1834ZM79.6033 63.1834V65.1834H81.6033V63.1834H79.6033ZM46.6925 63.1834V65.1834H48.3594L48.6598 63.5438L46.6925 63.1834ZM42.9932 63.1834H40.9932V65.1834H42.9932V63.1834ZM42.9932 50.9103L42.9932 48.9103H40.9932V50.9103H42.9932ZM79.6033 50.9103H81.6033V48.9103H79.6033V50.9103ZM97.6183 47.4823V49.4823H100.772L99.4275 46.6297L97.6183 47.4823ZM91.1627 33.7832L92.9719 32.9306L92.4311 31.7832H91.1627V33.7832ZM81.6055 47.4823H79.6055V49.4823H81.6055V47.4823ZM81.6055 33.7832V31.7832H79.6055V33.7832H81.6055ZM49.5195 27.0317H79.6033V23.0317H49.5195V27.0317ZM47.5195 23.0317V25.0317H51.5195V23.0317H47.5195ZM80.6033 21.0317H49.5195V25.0317H80.6033V21.0317ZM81.6033 21.0317H80.6033V25.0317H81.6033V21.0317ZM83.6033 24.0317V23.0317H79.6033V24.0317H83.6033ZM83.6033 31.7832V24.0317H79.6033V31.7832H83.6033ZM91.7969 29.7832H81.6033V33.7832H91.7969V29.7832ZM92.4311 29.7832H91.7969V33.7832H92.4311V29.7832ZM94.5107 31.5044L94.2403 30.9306L90.622 32.6358L90.8923 33.2095L94.5107 31.5044ZM101.898 47.1811L94.5107 31.5044L90.8923 33.2095L98.2799 48.8863L101.898 47.1811ZM106.136 48.5373L100.903 46.2067L99.2755 49.8607L104.509 52.1913L106.136 48.5373ZM106.729 48.8015L106.136 48.5373L104.509 52.1913L105.102 52.4555L106.729 48.8015ZM107.916 51.2778V50.6285H103.916V51.2778H107.916ZM107.916 64.1824V51.2778H103.916V64.1824H107.916ZM107.916 65.1824V64.1824H103.916V65.1824H107.916ZM104.916 67.1824H105.916V63.1824H104.916V67.1824ZM100.312 67.1824H104.916V63.1824H100.312V67.1824ZM92.8317 74.0333C97.8058 74.0333 101.891 70.219 102.305 65.3519L98.3193 65.0129C98.0804 67.8212 95.7166 70.0333 92.8317 70.0333V74.0333ZM83.3586 65.3519C83.7727 70.219 87.8577 74.0333 92.8317 74.0333V70.0333C89.9468 70.0333 87.5831 67.8212 87.3442 65.0129L83.3586 65.3519ZM81.6033 67.1824H85.3514V63.1824H81.6033V67.1824ZM83.6033 65.1834V65.1824H79.6033V65.1834H83.6033ZM80.6033 67.1834H81.6033V63.1834H80.6033V67.1834ZM61.5576 67.1834H80.6033V63.1834H61.5576V67.1834ZM54.0774 74.0333C59.051 74.0333 63.1357 70.2197 63.5504 65.3532L59.5648 65.0136C59.3256 67.8216 56.962 70.0333 54.0774 70.0333V74.0333ZM44.6043 65.3532C45.019 70.2197 49.1037 74.0333 54.0774 74.0333V70.0333C51.1927 70.0333 48.8291 67.8216 48.5899 65.0136L44.6043 65.3532ZM41.9932 67.1834H46.5971V63.1834H41.9932V67.1834ZM40.9932 67.1834H41.9932V63.1834H40.9932V67.1834ZM38.9932 64.1834V65.1834H42.9932V64.1834H38.9932ZM38.9932 49.9103V64.1834H42.9932V49.9103H38.9932ZM38.9932 49.8163V49.9103H42.9932V49.8163H38.9932ZM40.9975 47.8163H40.9932V51.8163H40.9975V47.8163ZM41.9932 46.9103C40.4302 46.9103 39.1484 48.1039 39.0061 49.6307L42.9889 50.0019C42.9413 50.5122 42.5149 50.9103 41.9932 50.9103V46.9103ZM79.6033 46.9103L41.9932 46.9103L41.9932 50.9103L79.6033 50.9103V46.9103ZM77.6033 25.0317V48.9103H81.6033V25.0317H77.6033ZM92.8317 55.0468C88.1698 55.0468 84.2914 58.3962 83.4799 62.8217L87.4143 63.5431C87.8828 60.988 90.13 59.0468 92.8317 59.0468V55.0468ZM102.184 62.8217C101.372 58.3962 97.4937 55.0468 92.8317 55.0468V59.0468C95.5335 59.0468 97.7807 60.988 98.2492 63.5431L102.184 62.8217ZM103.916 61.1824H100.216V65.1824H103.916V61.1824ZM101.916 51.9271V63.1824H105.916V51.9271H101.916ZM97.6145 51.3104L103.102 53.7542L104.729 50.1001L99.2418 47.6563L97.6145 51.3104ZM81.6056 51.4834H98.4281V47.4834H81.6056V51.4834ZM83.6067 63.1822L83.6056 49.4832L79.6056 49.4835L79.6067 63.1826L83.6067 63.1822ZM85.4471 61.1824H81.6067V65.1824H85.4471V61.1824ZM61.4622 65.1834H79.6033V61.1834H61.4622V65.1834ZM54.0774 59.0468C56.7794 59.0468 59.0267 60.9883 59.4949 63.5438L63.4294 62.823C62.6185 58.3969 58.7397 55.0468 54.0774 55.0468V59.0468ZM48.6598 63.5438C49.128 60.9883 51.3753 59.0468 54.0774 59.0468V55.0468C49.415 55.0468 45.5362 58.3969 44.7253 62.823L48.6598 63.5438ZM42.9932 65.1834H46.6925V61.1834H42.9932V65.1834ZM40.9932 50.9103V63.1834H44.9932V50.9103H40.9932ZM79.6033 48.9103L42.9932 48.9103L42.9932 52.9103L79.6033 52.9103V48.9103ZM81.6033 63.1834V50.9103H77.6033V63.1834H81.6033ZM99.4275 46.6297L92.9719 32.9306L89.3535 34.6358L95.8091 48.3348L99.4275 46.6297ZM81.6055 49.4823H97.6183V45.4823H81.6055V49.4823ZM79.6055 33.7832V47.4823H83.6055V33.7832H79.6055ZM91.1627 31.7832H81.6055V35.7832H91.1627V31.7832ZM57.5849 64.54C57.5849 66.4625 56.0213 68.0333 54.0774 68.0333V72.0333C58.224 72.0333 61.5849 68.678 61.5849 64.54H57.5849ZM54.0774 61.0468C56.0213 61.0468 57.5849 62.6175 57.5849 64.54H61.5849C61.5849 60.402 58.224 57.0468 54.0774 57.0468V61.0468ZM50.5698 64.54C50.5698 62.6175 52.1334 61.0468 54.0774 61.0468V57.0468C49.9307 57.0468 46.5698 60.402 46.5698 64.54H50.5698ZM54.0774 68.0333C52.1334 68.0333 50.5698 66.4625 50.5698 64.54H46.5698C46.5698 68.678 49.9307 72.0333 54.0774 72.0333V68.0333ZM92.8317 72.0333C96.9784 72.0333 100.339 68.678 100.339 64.54H96.3393C96.3393 66.4625 94.7757 68.0333 92.8317 68.0333V72.0333ZM85.3242 64.54C85.3242 68.678 88.6851 72.0333 92.8317 72.0333V68.0333C90.8878 68.0333 89.3242 66.4625 89.3242 64.54H85.3242ZM92.8317 57.0468C88.6851 57.0468 85.3242 60.402 85.3242 64.54H89.3242C89.3242 62.6175 90.8878 61.0468 92.8317 61.0468V57.0468ZM100.339 64.54C100.339 60.402 96.9784 57.0468 92.8317 57.0468V61.0468C94.7757 61.0468 96.3393 62.6175 96.3393 64.54H100.339Z" fill="#7E7C77" mask="url(#path-2-inside-1_1951_6134)"/>
<line x1="62.394" y1="29.635" x2="42.0526" y2="29.635" stroke="#7E7C77" stroke-width="2"/>
<line x1="62.394" y1="36.9436" x2="37.9843" y2="36.9436" stroke="#7E7C77" stroke-width="2"/>
<line x1="62.394" y1="44.2524" x2="33.916" y2="44.2524" stroke="#7E7C77" stroke-width="2"/>
</svg>
