<svg width="130" height="131" viewBox="0 0 130 131" fill="none" xmlns="http://www.w3.org/2000/svg">
<path d="M43.1656 91.171V97.471H47.1416C49.4936 97.471 50.6696 96.4257 50.6696 94.335C50.6696 92.2257 49.5123 91.171 47.1976 91.171H43.1656ZM40.2256 107.551V88.735H47.1416C51.5096 88.735 53.6936 90.6017 53.6936 94.335C53.6936 95.567 53.3856 96.6217 52.7696 97.499C52.1723 98.3764 51.3043 99.0204 50.1656 99.431L54.3096 107.551H51.2016L47.3096 99.907H43.1656V107.551H40.2256ZM72.4549 98.759C71.9136 101.036 71.1389 102.847 70.1309 104.191L73.2389 107.551H69.9069L68.3949 105.927C67.5549 106.543 66.6496 107.019 65.6789 107.355C64.7083 107.672 63.6629 107.831 62.5429 107.831C61.5163 107.831 60.6109 107.71 59.8269 107.467C59.0616 107.224 58.4176 106.888 57.8949 106.459C57.3909 106.03 57.0083 105.526 56.7469 104.947C56.4856 104.35 56.3549 103.696 56.3549 102.987C56.3549 101.867 56.7096 100.822 57.4189 99.851C58.1469 98.8804 59.1829 98.059 60.5269 97.387C59.7243 96.491 59.1549 95.679 58.8189 94.951C58.4829 94.2044 58.3149 93.5044 58.3149 92.851C58.3149 91.5444 58.7723 90.4897 59.6869 89.687C60.6203 88.8657 61.9083 88.455 63.5509 88.455C64.3723 88.455 65.1096 88.567 65.7629 88.791C66.4163 89.015 66.9669 89.3137 67.4149 89.687C67.8816 90.0604 68.2363 90.5084 68.4789 91.031C68.7216 91.5537 68.8429 92.1044 68.8429 92.683C68.8429 93.243 68.7496 93.7564 68.5629 94.223C68.3949 94.671 68.1243 95.1004 67.7509 95.511C67.3963 95.9217 66.9389 96.3324 66.3789 96.743C65.8189 97.1537 65.1563 97.5924 64.3909 98.059L68.3949 102.343C68.7309 101.802 69.0203 101.242 69.2629 100.663C69.5056 100.084 69.7109 99.4497 69.8789 98.759H72.4549ZM62.1789 99.179C61.0029 99.7577 60.1909 100.364 59.7429 100.999C59.2949 101.634 59.0709 102.278 59.0709 102.931C59.0709 103.771 59.3696 104.424 59.9669 104.891C60.5643 105.358 61.4789 105.591 62.7109 105.591C64.2603 105.591 65.6043 105.106 66.7429 104.135L62.1789 99.179ZM62.7949 96.267C63.9709 95.7257 64.8203 95.1657 65.3429 94.587C65.8656 93.9897 66.1269 93.3924 66.1269 92.795C66.1269 92.179 65.9029 91.675 65.4549 91.283C65.0256 90.891 64.3909 90.695 63.5509 90.695C62.7669 90.695 62.1509 90.891 61.7029 91.283C61.2736 91.6564 61.0589 92.1884 61.0589 92.879C61.0589 93.4764 61.1896 94.027 61.4509 94.531C61.7309 95.035 62.1789 95.6137 62.7949 96.267ZM90.5025 98.143C90.5025 101.354 89.6998 103.724 88.0945 105.255C86.4891 106.786 84.1465 107.551 81.0665 107.551H75.4105V88.735H81.0665C84.1651 88.735 86.5078 89.5097 88.0945 91.059C89.6998 92.6084 90.5025 94.9697 90.5025 98.143ZM78.3505 91.171V105.143H81.0665C83.1571 105.143 84.7625 104.592 85.8825 103.491C87.0025 102.371 87.5625 100.588 87.5625 98.143C87.5625 95.7164 87.0025 93.9524 85.8825 92.851C84.7625 91.731 83.1571 91.171 81.0665 91.171H78.3505Z" fill="#7E7C77"/>
<path fill-rule="evenodd" clip-rule="evenodd" d="M80.5034 55.4585C80.5034 50.3489 84.6449 46.207 89.7534 46.207C94.8619 46.207 99.0034 50.3489 99.0034 55.4585C99.0034 60.568 94.8619 64.7099 89.7534 64.7099C84.6449 64.7099 80.5034 60.568 80.5034 55.4585ZM89.7534 44.707C83.8163 44.707 79.0034 49.5207 79.0034 55.4585C79.0034 61.3962 83.8163 66.2099 89.7534 66.2099C91.987 66.2099 94.0615 65.5286 95.7805 64.3625L102.495 71.2663L103.018 71.804L104.093 70.7582L103.57 70.2205L96.9665 63.4305C99.1388 61.4632 100.503 58.6202 100.503 55.4585C100.503 49.5207 95.6906 44.707 89.7534 44.707Z" fill="#7E7C77"/>
<path fill-rule="evenodd" clip-rule="evenodd" d="M34.6763 64.3142C34.2565 64.3142 33.9163 63.9739 33.9163 63.5542V15.2917C33.9163 14.872 34.2565 14.5317 34.6763 14.5317H105.156C105.576 14.5317 105.916 14.872 105.916 15.2917V63.5542C105.916 63.9739 105.576 64.3142 105.156 64.3142H94.1862C94.9687 63.9025 95.6899 63.39 96.3327 62.7942H104.396V16.0517H35.4363V62.7942H82.7405C83.3833 63.39 84.1045 63.9025 84.887 64.3142H34.6763Z" fill="#7E7C77"/>
<path d="M89.6446 65.4587C95.1079 65.4587 99.5368 60.9809 99.5368 55.4573C99.5368 49.9336 95.1079 45.4558 89.6446 45.4558C84.1813 45.4558 79.7524 49.9336 79.7524 55.4573C79.7524 60.9809 84.1813 65.4587 89.6446 65.4587Z" stroke="#7E7C77" stroke-width="1.5"/>
<path d="M60.2239 63.5547H79.6116L82.3224 72.5316H57.5132L60.2239 63.5547Z" stroke="#7E7C77" stroke-width="1.5" stroke-linejoin="round"/>
<rect x="40.7476" y="40.312" width="5.5063" height="16.7552" stroke="#7E7C77" stroke-width="1.5"/>
<rect x="59.1646" y="40.312" width="5.5063" height="16.7552" stroke="#7E7C77" stroke-width="1.5"/>
<rect x="49.9556" y="45.2527" width="5.5063" height="11.8165" stroke="#7E7C77" stroke-width="1.5"/>
<rect x="68.3726" y="45.2527" width="5.5063" height="11.8165" stroke="#7E7C77" stroke-width="1.5"/>
<path d="M51.2608 23.6771C50.3831 22.7898 49.2526 22.2027 48.0279 21.9982C46.8033 21.7938 45.5461 21.9824 44.4329 22.5374C43.3196 23.0924 42.4063 23.9861 41.8212 25.0928C41.2361 26.1996 41.0086 27.4638 41.1706 28.708C41.3326 29.9522 41.876 31.1138 42.7245 32.0298C43.573 32.9457 44.684 33.5699 45.9013 33.8147C47.1187 34.0595 48.3813 33.9127 49.5119 33.3948C50.6425 32.8769 51.5842 32.0139 52.2048 30.9271L49.1181 29.1253C48.8698 29.56 48.4931 29.9052 48.0409 30.1124C47.5887 30.3195 47.0836 30.3783 46.5967 30.2803C46.1097 30.1824 45.6654 29.9327 45.326 29.5664C44.9866 29.2 44.7692 28.7353 44.7044 28.2377C44.6396 27.74 44.7306 27.2343 44.9646 26.7916C45.1987 26.3489 45.564 25.9914 46.0093 25.7694C46.4546 25.5474 46.9575 25.472 47.4473 25.5537C47.9372 25.6355 48.3894 25.8704 48.7405 26.2253L51.2608 23.6771Z" stroke="#7E7C77" stroke-width="1.5"/>
<line x1="69.9175" y1="22.377" x2="79.2534" y2="22.377" stroke="#7E7C77" stroke-width="1.5"/>
<line x1="81.0864" y1="22.377" x2="96.7825" y2="22.377" stroke="#7E7C77" stroke-width="1.5"/>
<line x1="86.2476" y1="33.2888" x2="96.7815" y2="33.2888" stroke="#7E7C77" stroke-width="1.5"/>
<line x1="90.0103" y1="27.8301" x2="96.7821" y2="27.8301" stroke="#7E7C77" stroke-width="1.5"/>
<line x1="69.9175" y1="33.2888" x2="84.3054" y2="33.2888" stroke="#7E7C77" stroke-width="1.5"/>
<line x1="69.9175" y1="27.8301" x2="87.983" y2="27.8301" stroke="#7E7C77" stroke-width="1.5"/>
</svg>
