<svg width="131" height="131" viewBox="0 0 131 131" fill="none" xmlns="http://www.w3.org/2000/svg">
<path d="M13.6345 106.468V112.768H17.6105C19.9625 112.768 21.1385 111.723 21.1385 109.632C21.1385 107.523 19.9812 106.468 17.6665 106.468H13.6345ZM10.6945 122.848V104.032H17.6105C21.9785 104.032 24.1625 105.899 24.1625 109.632C24.1625 110.864 23.8545 111.919 23.2385 112.796C22.6412 113.673 21.7732 114.317 20.6345 114.728L24.7785 122.848H21.6705L17.7785 115.204H13.6345V122.848H10.6945ZM33.2437 123.128C30.929 123.128 29.2584 122.559 28.2317 121.42C27.2237 120.281 26.7197 118.499 26.7197 116.072C26.7197 113.645 27.205 111.863 28.1757 110.724C29.165 109.585 30.677 109.016 32.7117 109.016C34.709 109.016 36.2024 109.585 37.1917 110.724C38.181 111.844 38.6757 113.617 38.6757 116.044V117.024H29.6877C29.781 118.331 30.0984 119.283 30.6397 119.88C31.1997 120.477 32.077 120.776 33.2717 120.776C34.0557 120.776 34.8117 120.664 35.5397 120.44C36.2677 120.216 36.9864 119.889 37.6957 119.46L38.5357 121.672C37.8264 122.101 37.0144 122.456 36.0997 122.736C35.2037 122.997 34.2517 123.128 33.2437 123.128ZM35.6797 114.784C35.5864 113.664 35.3064 112.824 34.8397 112.264C34.373 111.685 33.6637 111.396 32.7117 111.396C30.845 111.396 29.8464 112.525 29.7157 114.784H35.6797ZM47.6552 120.748C48.3458 120.748 48.9898 120.664 49.5872 120.496C50.1845 120.309 50.7725 120.057 51.3512 119.74L52.0512 121.98C51.4725 122.335 50.8098 122.615 50.0632 122.82C49.3165 123.025 48.5138 123.128 47.6552 123.128C45.3218 123.128 43.6138 122.568 42.5312 121.448C41.4672 120.328 40.9352 118.536 40.9352 116.072C40.9352 113.645 41.4578 111.863 42.5032 110.724C43.5485 109.585 45.1725 109.016 47.3752 109.016C49.3538 109.016 50.9498 109.604 52.1632 110.78L50.6512 112.74C49.7552 111.844 48.6912 111.396 47.4592 111.396C46.2832 111.396 45.3872 111.751 44.7712 112.46C44.1552 113.169 43.8472 114.373 43.8472 116.072C43.8472 117.752 44.1645 118.956 44.7992 119.684C45.4338 120.393 46.3858 120.748 47.6552 120.748ZM53.1902 109.296H56.2142L59.6022 118.984H59.6862L62.9902 109.296H65.9862L60.4982 124.36C60.1809 125.2 59.8449 125.909 59.4902 126.488C59.1355 127.085 58.7342 127.561 58.2862 127.916C57.8382 128.289 57.3249 128.551 56.7462 128.7C56.1675 128.868 55.5049 128.952 54.7582 128.952C54.4782 128.952 54.1982 128.924 53.9182 128.868C53.6382 128.831 53.3862 128.775 53.1622 128.7C53.2555 128.327 53.3302 127.944 53.3862 127.552C53.4609 127.179 53.5355 126.796 53.6102 126.404C54.0209 126.535 54.4689 126.6 54.9542 126.6C55.5329 126.6 56.0369 126.423 56.4662 126.068C56.9142 125.713 57.2502 125.256 57.4742 124.696L58.3702 122.484L53.1902 109.296ZM73.8166 120.748C74.5072 120.748 75.1512 120.664 75.7486 120.496C76.3459 120.309 76.9339 120.057 77.5126 119.74L78.2126 121.98C77.6339 122.335 76.9712 122.615 76.2246 122.82C75.4779 123.025 74.6752 123.128 73.8166 123.128C71.4832 123.128 69.7752 122.568 68.6926 121.448C67.6286 120.328 67.0966 118.536 67.0966 116.072C67.0966 113.645 67.6192 111.863 68.6646 110.724C69.7099 109.585 71.3339 109.016 73.5366 109.016C75.5152 109.016 77.1112 109.604 78.3246 110.78L76.8126 112.74C75.9166 111.844 74.8526 111.396 73.6206 111.396C72.4446 111.396 71.5486 111.751 70.9326 112.46C70.3166 113.169 70.0086 114.373 70.0086 116.072C70.0086 117.752 70.3259 118.956 70.9606 119.684C71.5952 120.393 72.5472 120.748 73.8166 120.748ZM83.9436 103.08V119.208C83.9436 119.843 84.0276 120.253 84.1956 120.44C84.3636 120.608 84.6996 120.692 85.2036 120.692V123.044C85.0356 123.081 84.8956 123.1 84.7836 123.1C84.6716 123.119 84.5036 123.128 84.2796 123.128C83.1969 123.128 82.3849 122.829 81.8436 122.232C81.3209 121.616 81.0596 120.608 81.0596 119.208V103.416L83.9436 103.08ZM88.111 109.296H91.023V122.848H88.111V109.296ZM88.111 103.472H91.023V106.524H88.111V103.472ZM97.4037 110.528C98.0011 110.061 98.6637 109.697 99.3917 109.436C100.12 109.156 100.904 109.016 101.744 109.016C103.33 109.016 104.478 109.399 105.188 110.164C105.916 110.929 106.28 112.152 106.28 113.832V122.848H103.368V114.448C103.368 113.328 103.172 112.535 102.78 112.068C102.406 111.601 101.846 111.368 101.1 111.368C100.502 111.368 99.9237 111.471 99.3637 111.676C98.8224 111.863 98.2717 112.143 97.7117 112.516V122.848H94.7997V109.296H96.9837L97.4037 110.528ZM120.985 109.296V122.876C120.985 125.004 120.453 126.544 119.389 127.496C118.325 128.467 116.729 128.952 114.601 128.952C113.817 128.952 113.043 128.887 112.277 128.756C111.512 128.625 110.821 128.439 110.205 128.196L110.821 125.928C111.419 126.133 112.035 126.292 112.669 126.404C113.304 126.535 113.929 126.6 114.545 126.6C115.796 126.6 116.692 126.329 117.233 125.788C117.793 125.265 118.073 124.388 118.073 123.156V121.924C117.644 122.297 117.112 122.596 116.477 122.82C115.861 123.025 115.161 123.128 114.377 123.128C112.697 123.128 111.381 122.559 110.429 121.42C109.477 120.281 109.001 118.499 109.001 116.072C109.001 113.645 109.496 111.863 110.485 110.724C111.475 109.585 112.931 109.016 114.853 109.016C116.272 109.016 117.448 109.464 118.381 110.36L118.773 109.296H120.985ZM115.217 111.368C114.097 111.368 113.257 111.732 112.697 112.46C112.156 113.169 111.885 114.373 111.885 116.072C111.885 117.771 112.165 118.984 112.725 119.712C113.285 120.44 114.125 120.804 115.245 120.804C115.787 120.804 116.3 120.711 116.785 120.524C117.271 120.319 117.7 120.039 118.073 119.684V112.46C117.7 112.124 117.271 111.863 116.785 111.676C116.3 111.471 115.777 111.368 115.217 111.368Z" fill="#7E7C77"/>
<path d="M106.674 53.9634C106.674 54.9703 106.632 55.9676 106.551 56.9536C105.155 73.9393 91.9663 87.5835 75.1892 89.6829C73.7101 89.868 72.2031 89.9634 70.6738 89.9634C50.7916 89.9634 34.6738 73.8456 34.6738 53.9634C34.6738 34.0811 50.7916 17.9634 70.6738 17.9634C90.5561 17.9634 106.674 34.0811 106.674 53.9634Z" stroke="#7E7C77" stroke-width="1.5"/>
<path d="M92.2734 75.5613H99.8969V83.1847" stroke="#7E7C77" stroke-width="1.5" stroke-linecap="square" stroke-linejoin="round"/>
<path d="M49.0737 32.3628L41.4503 32.3628L41.4503 24.7394" stroke="#7E7C77" stroke-width="1.5" stroke-linecap="square" stroke-linejoin="round"/>
<path fill-rule="evenodd" clip-rule="evenodd" d="M52.604 54.0696C52.604 52.5472 52.7912 51.0685 53.1438 49.6552H65.8654C67.2159 49.6552 68.3107 50.75 68.3107 52.1005C68.3107 53.451 67.2159 54.5458 65.8654 54.5458V56.0458C68.0443 56.0458 69.8107 54.2794 69.8107 52.1005C69.8107 49.9216 68.0443 48.1552 65.8654 48.1552H53.5879C56.0419 41.0204 62.8123 35.8936 70.78 35.8936C80.483 35.8936 88.4102 43.4966 88.9291 53.0701H82.5779C79.856 53.0701 77.6495 55.2766 77.6495 57.9985C77.6495 60.7204 79.856 62.927 82.5779 62.927H86.6557C83.8989 67.8573 78.9119 71.3718 73.0608 72.104C72.314 72.1974 71.5528 72.2456 70.78 72.2456C70.702 72.2456 70.6241 72.2451 70.5464 72.2442V65.7428C70.5464 63.0887 68.3948 60.9372 65.7408 60.9372H64.8805C63.53 60.9372 62.4352 59.8424 62.4352 58.4919C62.4352 57.1414 63.53 56.0466 64.8805 56.0466H65.8637V54.5466H64.8805C62.7016 54.5466 60.9352 56.313 60.9352 58.4919C60.9352 60.6708 62.7016 62.4372 64.8805 62.4372H65.7408C67.5664 62.4372 69.0464 63.9172 69.0464 65.7428V72.164C59.8212 71.2911 52.604 63.5232 52.604 54.0696ZM87.4055 61.427C88.2088 59.6145 88.7244 57.6463 88.8942 55.5801C88.9217 55.246 88.9402 54.9092 88.9493 54.5701H82.5779C80.6845 54.5701 79.1495 56.105 79.1495 57.9985C79.1495 59.892 80.6845 61.427 82.5779 61.427H87.4055ZM70.78 34.3936C59.9133 34.3936 51.104 43.2028 51.104 54.0696C51.104 64.9364 59.9133 73.7456 70.78 73.7456C71.6152 73.7456 72.4386 73.6936 73.247 73.5924C82.4178 72.4448 89.6257 64.9881 90.3892 55.7031C90.4335 55.1643 90.4561 54.6195 90.4561 54.0696C90.4561 43.2028 81.6468 34.3936 70.78 34.3936Z" fill="#7E7C77"/>
</svg>
