<svg width="32" height="32" viewBox="0 0 32 32" fill="none" xmlns="http://www.w3.org/2000/svg">
<g id="facebook-circle-fill" clip-path="url(#clip0_598_8048)">
<path id="facebook" fill-rule="evenodd" clip-rule="evenodd" d="M16 32C12.8355 32 9.74198 31.0616 7.11079 29.3035C4.4796 27.5454 2.42894 25.0465 1.21793 22.1229C0.0069319 19.1993 -0.309921 15.9822 0.307443 12.8785C0.924806 9.77485 2.4486 6.92392 4.68624 4.68628C6.92388 2.44864 9.77484 0.924791 12.8785 0.307428C15.9822 -0.309936 19.1992 0.00691664 22.1228 1.21792C25.0465 2.42892 27.5453 4.47969 29.3034 7.11087C31.0615 9.74206 32 12.8355 32 16C32 20.2435 30.3143 24.3131 27.3137 27.3137C24.3131 30.3143 20.2434 32 16 32ZM19.4011 15.4871L19.6846 12.7351H17.2617V11.1141C17.2481 11.0179 17.2559 10.9199 17.2846 10.8272C17.3133 10.7344 17.3622 10.6491 17.4278 10.5775C17.4933 10.5058 17.5738 10.4495 17.6637 10.4127C17.7535 10.3758 17.8504 10.3593 17.9474 10.3643H19.6937V7.68914L17.2891 7.67999C16.8512 7.64564 16.411 7.70672 15.999 7.85902C15.5869 8.01132 15.2128 8.25121 14.9025 8.56213C14.5922 8.87305 14.3531 9.24758 14.2016 9.65991C14.0501 10.0722 13.9899 10.5125 14.0251 10.9504V12.7333H12.48V15.4871H14.0251V23.3243H17.2617V15.4871H19.4011Z" fill="white"/>
</g>
<defs>
<clipPath id="clip0_598_8048">
<rect width="32" height="32" fill="white"/>
</clipPath>
</defs>
</svg>
