<svg width="32" height="32" viewBox="0 0 32 32" fill="none" xmlns="http://www.w3.org/2000/svg">
<g id="instagram-circle-fill" clip-path="url(#clip0_598_8052)">
<path id="instagram" fill-rule="evenodd" clip-rule="evenodd" d="M16 0C19.1645 0 22.258 0.938382 24.8892 2.69648C27.5204 4.45459 29.571 6.95345 30.782 9.87706C31.993 12.8007 32.3099 16.0177 31.6925 19.1214C31.0752 22.2251 29.5514 25.0761 27.3137 27.3137C25.0761 29.5514 22.2251 31.0752 19.1214 31.6926C16.0177 32.3099 12.8007 31.9931 9.87712 30.7821C6.9535 29.5711 4.45464 27.5203 2.69654 24.8891C0.938438 22.2579 0 19.1645 0 16C0 11.7565 1.68569 7.68687 4.68627 4.68629C7.68685 1.6857 11.7565 0 16 0ZM24.64 20.2807V11.7193C24.6383 10.5633 24.1783 9.45526 23.3607 8.63804C22.5432 7.82083 21.4349 7.36121 20.2789 7.36H11.7211C10.5651 7.36121 9.45684 7.82083 8.63929 8.63804C7.82173 9.45526 7.36174 10.5633 7.36004 11.7193V20.2807C7.36174 21.4367 7.82173 22.5447 8.63929 23.362C9.45684 24.1792 10.5651 24.6388 11.7211 24.64H20.2789C21.435 24.6388 22.5434 24.179 23.3609 23.3616C24.1785 22.5442 24.6385 21.4359 24.64 20.2798V20.2807ZM20.2789 9.24068C20.936 9.24068 21.5663 9.50173 22.0309 9.96639C22.4956 10.4311 22.7566 11.0613 22.7566 11.7184V20.2807C22.7567 20.6061 22.6927 20.9284 22.5682 21.2291C22.4437 21.5299 22.2612 21.8031 22.0311 22.0333C21.8011 22.2635 21.5279 22.446 21.2272 22.5706C20.9266 22.6952 20.6044 22.7593 20.2789 22.7593H11.7211C11.3957 22.7593 11.0736 22.6952 10.773 22.5707C10.4724 22.4462 10.1992 22.2637 9.96908 22.0336C9.73901 21.8035 9.55655 21.5304 9.43203 21.2298C9.30751 20.9292 9.24341 20.607 9.24341 20.2816V11.7193C9.24329 11.3939 9.30735 11.0716 9.43181 10.7709C9.55627 10.4701 9.73877 10.1969 9.96886 9.96671C10.199 9.73654 10.4721 9.55395 10.7728 9.42938C11.0734 9.30481 11.3956 9.24068 11.7211 9.24068H20.2789ZM16 20.4498C16.88 20.4493 17.74 20.1878 18.4714 19.6986C19.2028 19.2093 19.7728 18.5141 20.1092 17.701C20.4455 16.8878 20.5333 15.9932 20.3613 15.1302C20.1893 14.2672 19.7652 13.4746 19.1427 12.8525C18.5203 12.2305 17.7275 11.807 16.8644 11.6355C16.0013 11.464 15.1067 11.5523 14.2937 11.8892C13.4808 12.226 12.786 12.7964 12.2972 13.5281C11.8084 14.2598 11.5474 15.12 11.5474 16C11.5501 17.1798 12.0202 18.3105 12.8547 19.1445C13.6892 19.9785 14.8202 20.4479 16 20.4498ZM20.48 12.4699C20.6805 12.4475 20.8702 12.3676 21.0262 12.2397C21.1823 12.1118 21.298 11.9416 21.3594 11.7494C21.4208 11.5572 21.4252 11.3514 21.3722 11.1568C21.3192 10.9621 21.211 10.787 21.0606 10.6525C20.9102 10.518 20.7242 10.4299 20.5249 10.3988C20.3256 10.3678 20.1214 10.395 19.9373 10.4774C19.7531 10.5597 19.5968 10.6936 19.4871 10.8629C19.3773 11.0322 19.3189 11.2296 19.3189 11.4313C19.3386 11.7217 19.4711 11.9929 19.6881 12.1869C19.905 12.381 20.1892 12.4826 20.48 12.4699ZM16 13.4309C16.5084 13.4307 17.0055 13.5813 17.4282 13.8636C17.851 14.1459 18.1805 14.5473 18.3751 15.017C18.5697 15.4866 18.6208 16.0035 18.5217 16.5021C18.4225 17.0007 18.1777 17.4587 17.8182 17.8182C17.4587 18.1777 17.0007 18.4225 16.5021 18.5216C16.0035 18.6208 15.4866 18.5698 15.017 18.3752C14.5473 18.1805 14.1459 17.851 13.8636 17.4282C13.5813 17.0054 13.4306 16.5084 13.4308 16C13.4315 15.3188 13.7025 14.6658 14.1842 14.1841C14.6658 13.7025 15.3188 13.4316 16 13.4309Z" fill="white"/>
</g>
<defs>
<clipPath id="clip0_598_8052">
<rect width="32" height="32" fill="white"/>
</clipPath>
</defs>
</svg>
