<svg width="32" height="32" viewBox="0 0 32 32" fill="none" xmlns="http://www.w3.org/2000/svg">
<g id="youtube-circle-fill" clip-path="url(#clip0_598_8056)">
<path id="youtube" fill-rule="evenodd" clip-rule="evenodd" d="M16 0C19.1645 0 22.258 0.938382 24.8892 2.69648C27.5204 4.45459 29.571 6.95345 30.782 9.87706C31.993 12.8007 32.3099 16.0177 31.6925 19.1214C31.0752 22.2251 29.5514 25.0761 27.3137 27.3137C25.0761 29.5514 22.2251 31.0752 19.1214 31.6926C16.0177 32.3099 12.8007 31.9931 9.87712 30.7821C6.9535 29.5711 4.45464 27.5203 2.69654 24.8891C0.938438 22.2579 0 19.1645 0 16C0 11.7565 1.68569 7.68687 4.68627 4.68629C7.68685 1.6857 11.7565 0 16 0ZM24.3291 11.9168C24.2293 11.553 24.0345 11.2223 23.7645 10.9588C23.4946 10.6952 23.1593 10.5084 22.7932 10.4174C18.2768 9.94438 13.7232 9.94438 9.20681 10.4174C8.84028 10.5096 8.5045 10.6968 8.23326 10.96C7.96202 11.2232 7.76493 11.5532 7.66172 11.9168C7.1863 14.6182 7.1863 17.3818 7.66172 20.0832C7.76504 20.4468 7.96216 20.7769 8.23337 21.0402C8.50458 21.3036 8.84029 21.491 9.20681 21.5835C13.7233 22.0553 18.2767 22.0553 22.7932 21.5835C23.1586 21.4907 23.493 21.3031 23.7627 21.0397C24.0324 20.7763 24.2278 20.4463 24.3291 20.0832C24.8169 17.3826 24.8169 14.6165 24.3291 11.9159V11.9168ZM14.6194 18.2784V13.7216L19.2 16L14.6194 18.2784Z" fill="white"/>
</g>
<defs>
<clipPath id="clip0_598_8056">
<rect width="32" height="32" fill="white"/>
</clipPath>
</defs>
</svg>
