<svg width="48" height="48" viewBox="0 0 48 48" fill="none" xmlns="http://www.w3.org/2000/svg">
<path d="M20.793 18.085C21.6589 17.674 22.8333 16.9935 23.9685 15.8882C25.8265 14.0795 26.5819 12.1042 26.8965 11.0425" stroke="white" stroke-linecap="round" stroke-linejoin="round"/>
<path d="M23.0343 15.7013L23.0343 15.7013C23.9304 16.3249 24.9536 16.1832 25.4724 16.1049L25.4727 16.1049C27.3507 15.8227 28.8716 14.3176 29.5642 12.9412L29.5642 12.9412C30.7101 10.6643 30.172 7.47883 28.0414 4.87609C27.791 5.31372 27.4578 5.82497 27.022 6.35454L23.0343 15.7013ZM23.0343 15.7013C22.173 15.102 21.9251 14.1394 21.853 13.8311L23.0343 15.7013ZM24.6414 8.42139C24.0268 8.82702 23.5346 9.15188 23.0637 9.75834C22.9233 9.93908 22.5026 10.4814 22.176 11.2282C21.8485 11.9773 21.6335 12.8911 21.853 13.831L24.6414 8.42139ZM24.6414 8.42139C24.6761 8.39849 24.7112 8.37534 24.7466 8.35187M24.6414 8.42139L24.7466 8.35187M24.7466 8.35187C25.416 7.90907 26.1774 7.38117 27.0219 6.35462L24.7466 8.35187Z" stroke="white" stroke-linecap="round" stroke-linejoin="round"/>
<mask id="path-3-inside-1_1071_7422" fill="white">
<path d="M8.91992 42.852L11.226 12.3245H16.252L19.859 42.7337"/>
</mask>
<path d="M7.92276 42.7767C7.88116 43.3274 8.29388 43.8076 8.8446 43.8492C9.39531 43.8908 9.87548 43.478 9.91708 42.9273L7.92276 42.7767ZM11.226 12.3245V11.3245C10.7029 11.3245 10.2682 11.7276 10.2288 12.2491L11.226 12.3245ZM16.252 12.3245L17.2451 12.2067C17.1854 11.7035 16.7588 11.3245 16.252 11.3245V12.3245ZM18.8659 42.8515C18.931 43.3999 19.4283 43.7918 19.9768 43.7267C20.5252 43.6617 20.9171 43.1644 20.852 42.6159L18.8659 42.8515ZM9.91708 42.9273L12.2232 12.3998L10.2288 12.2491L7.92276 42.7767L9.91708 42.9273ZM11.226 13.3245H16.252V11.3245H11.226V13.3245ZM15.259 12.4423L18.8659 42.8515L20.852 42.6159L17.2451 12.2067L15.259 12.4423Z" fill="white" mask="url(#path-3-inside-1_1071_7422)"/>
<path d="M6.64453 43H23.9992H41.3539" stroke="white" stroke-linecap="round" stroke-linejoin="round"/>
<path d="M20.3906 24.0659H38.6322V42.7632" stroke="white" stroke-linecap="round" stroke-linejoin="round"/>
<path d="M21.752 28.928H34.5489" stroke="white" stroke-linecap="round" stroke-linejoin="round"/>
<path d="M22.5215 33.8967H34.5497" stroke="white" stroke-linecap="round" stroke-linejoin="round"/>
<path d="M22.9551 39.2795H34.5487" stroke="white" stroke-linecap="round" stroke-linejoin="round"/>
<path d="M12.0996 17.1104L15.736 17.1104" stroke="white" stroke-linecap="square" stroke-linejoin="round"/>
</svg>
