<svg width="164" height="73" viewBox="0 0 164 73" fill="none" xmlns="http://www.w3.org/2000/svg">
<g clip-path="url(#clip0_552_1488)">
<path d="M99.1905 50.7194H121.548V59.9113H88.4004V12.7109H99.1905V50.7194Z" fill="white"/>
<path d="M145.277 41.9159H154.064V50.1753C152.45 50.7969 149.287 51.4185 146.285 51.4185C136.57 51.4185 133.339 46.4331 133.339 36.3088C133.339 26.6466 136.414 20.9608 146.121 20.9608C151.532 20.9608 154.601 22.6765 157.147 25.9483L163.86 19.7154C159.759 13.8079 152.606 12.0176 145.888 12.0176C130.786 12.0114 122.846 20.3371 122.846 36.228C122.846 52.0401 130.021 60.6124 145.808 60.6124C153.057 60.6124 160.143 58.7475 163.999 56.0144V33.1136H145.277V41.9159Z" fill="white"/>
<path d="M36.1107 73.0039C56.0554 73.0039 72.2229 56.661 72.222 36.501C72.221 16.341 56.0519 -0.00195313 36.1072 -0.00195313C16.1625 -0.00195313 -0.0050816 16.341 -0.00412217 36.501C-0.00316274 56.661 16.166 73.0039 36.1107 73.0039Z" fill="#A50034"/>
<path d="M44.9532 49.1151H37.5725V21.0879H34.8438V51.8813H37.5787V51.8627H44.9593L44.9532 49.1151Z" fill="white"/>
<path d="M63.3615 37.66H44.996V34.9103H66.0534C66.0821 35.4429 66.0965 35.9754 66.0965 36.5142C66.0965 53.0702 52.7457 66.4891 36.2807 66.4891C19.8157 66.4891 6.46289 53.0764 6.46289 36.5121C6.46289 19.9477 19.8116 6.53711 36.2786 6.53711C36.7133 6.53711 37.1459 6.54609 37.5764 6.56405V9.293C37.1459 9.27366 36.7147 9.26399 36.2827 9.26399C21.3164 9.26399 9.17938 21.4645 9.17938 36.5121C9.17938 51.5597 21.3144 63.7622 36.2827 63.7622C50.839 63.7622 62.7301 52.2186 63.3595 37.7367L63.3615 37.66Z" fill="white"/>
<path d="M25.1573 29.3841C25.9807 29.38 26.7846 29.1295 27.4673 28.6641C28.15 28.1987 28.681 27.5394 28.9934 26.7693C29.3057 25.9992 29.3853 25.1528 29.2222 24.337C29.059 23.5213 28.6605 22.7726 28.0768 22.1855C27.493 21.5985 26.7503 21.1993 25.9424 21.0384C25.1344 20.8776 24.2974 20.9622 23.537 21.2816C22.7766 21.6011 22.1269 22.141 21.6698 22.8333C21.2127 23.5256 20.9688 24.3392 20.9688 25.1715C20.9701 25.7261 21.0795 26.2749 21.2907 26.7868C21.5019 27.2986 21.8108 27.7634 22.1998 28.1545C22.5887 28.5457 23.0501 28.8556 23.5575 29.0666C24.065 29.2776 24.6086 29.3854 25.1573 29.3841Z" fill="white"/>
</g>
<defs>
<clipPath id="clip0_552_1488">
<rect width="164" height="73" fill="white"/>
</clipPath>
</defs>
</svg>
