<svg class="lifeisgood__text" width="735" height="224" viewBox="0 0 735 224" fill="none" xmlns="http://www.w3.org/2000/svg">
    <path d="M706.959 224C712.513 223.986 717.938 222.343 722.55 219.278C727.162 216.213 730.755 211.863 732.874 206.777C734.993 201.691 735.543 196.097 734.456 190.702C733.37 185.306 730.694 180.351 726.766 176.46C722.839 172.57 717.837 169.919 712.39 168.842C706.944 167.765 701.297 168.311 696.163 170.41C691.029 172.509 686.638 176.068 683.544 180.637C680.45 185.206 678.791 190.58 678.777 196.082C678.78 203.486 681.75 210.585 687.035 215.82C692.319 221.055 699.485 223.997 706.959 224ZM559.449 139.252C559.449 96.2407 569.509 78.8673 583.6 78.8673C589.933 78.8673 595.541 82.1429 601.862 87.988V199.103C598.018 200.604 593.911 201.332 589.781 201.245C572.103 201.245 559.402 184.438 559.402 139.286M602.972 224L659.475 209.185C661.345 208.756 662.49 207.9 662.49 206.337C662.49 201.777 650.56 200.782 650.56 178.709V0.762604C650.568 0.640602 650.544 0.518695 650.491 0.408389C650.438 0.298083 650.357 0.20303 650.257 0.132308C650.156 0.0615856 650.039 0.0174853 649.916 0.00422811C649.793 -0.00902911 649.669 0.00901657 649.556 0.0565762L593.052 14.8603C591.183 15.2886 590.038 16.1451 590.038 17.7077C590.038 22.268 601.967 23.2634 601.967 45.336V70.9735C595.546 69.9815 589.059 69.4593 582.56 69.411C537.565 69.411 508.951 104.134 508.951 153.442C508.951 197.159 527.786 223.942 565.735 223.942C580.398 223.942 589.465 218.525 601.955 207.136V223.225C601.949 223.347 601.973 223.468 602.026 223.578C602.08 223.689 602.16 223.784 602.26 223.855C602.36 223.927 602.477 223.972 602.599 223.987C602.721 224.002 602.845 223.987 602.96 223.942M404.567 146.74C404.567 95.6156 411.028 78.8095 424.255 78.8095C438.637 78.8095 444.246 95.6156 444.246 146.74C444.246 197.865 438.591 214.74 424.208 214.74C410.982 214.74 404.521 197.784 404.521 146.798M424.208 224C466.913 224 494.802 190.816 494.802 146.798C494.802 102.78 466.913 69.4688 424.208 69.4688C382.66 69.4688 353.906 102.792 353.906 146.798C353.906 190.804 382.66 224 424.208 224ZM249.533 146.798C249.533 95.6735 256.006 78.8673 269.233 78.8673C283.604 78.8673 289.212 95.6735 289.212 146.798C289.212 197.923 283.604 214.74 269.233 214.74C256.006 214.74 249.533 197.784 249.533 146.798ZM269.233 224C311.926 224 339.827 190.816 339.827 146.798C339.827 102.78 311.926 69.4688 269.233 69.4688C227.685 69.4688 198.93 102.792 198.93 146.798C198.93 190.804 227.685 224 269.233 224ZM98.5772 224C123.452 224 150.477 217.159 176.789 202.495C176.938 202.41 177.059 202.283 177.136 202.131C177.212 201.978 177.242 201.807 177.222 201.638V157.771C177.222 129.147 185.272 126.149 185.272 122.168C185.272 120.744 184.407 119.598 182.105 119.598H118.849C116.512 119.598 115.694 120.755 115.694 122.168C115.694 126.439 126.619 129.112 126.619 157.771V206.904C120.438 211.743 113.965 214.173 103.041 214.173C72.6624 214.173 56.4568 184.971 56.4568 118.174C56.4568 53.0909 72.1249 24.0389 101.603 24.0389C118.568 24.0389 129.925 34.1434 159.824 66.0543C161.554 67.9063 163.423 67.3276 163.423 64.6307V28.5414C163.515 27.3518 163.194 26.1668 162.515 25.1819C161.835 24.1971 160.836 23.4713 159.684 23.1245C142.983 16.995 125.302 13.9051 107.492 14.0038C46.2449 14.0038 0 55.4521 0 118.116C0 185.48 33.3577 223.942 98.624 223.942" fill="#fff"/>
</svg>