<svg width="131" height="132" viewBox="0 0 131 132" fill="none" xmlns="http://www.w3.org/2000/svg">
<path d="M39.421 39.1504L26.8623 33.0714L45.4274 24.1504L54.8623 28.2782" stroke="#75C66B" stroke-width="2" stroke-linecap="round" stroke-linejoin="round"/>
<path d="M53.8623 29.1504L39.7662 38.6784L28.0693 46.2375L52.7922 58.3229L65.4831 50.1155L35.2701 37.2314" stroke="#75C66B" stroke-width="2" stroke-linecap="round" stroke-linejoin="round"/>
<path d="M40.8545 53.116V65.838L65.4849 78.8147L64.907 50.4998L79.1351 59.3439L103.026 46.2398L88.162 39.1206L65.4849 50.1178" stroke="#75C66B" stroke-width="2" stroke-linecap="round" stroke-linejoin="round"/>
<path d="M88.6905 54.0972V67.3633L65.9209 79.4486" stroke="#75C66B" stroke-width="2" stroke-linecap="round" stroke-linejoin="round"/>
<path d="M79.4795 22.4619L99.9837 33.6559L86.2526 40.0227" stroke="#75C66B" stroke-width="2" stroke-linecap="round" stroke-linejoin="round"/>
<path d="M79.3749 24.3056C78.9959 31.8649 72.5489 41.6444 53.186 37.6037L55.3623 28.1504C62.4276 30.0742 66.3623 26.9952 66.8623 24.1504C67.3219 21.5353 64.7126 18.8379 58.4755 16.526L56.9177 23.1619L45.7945 9.91591L61.1619 1.42522L60.2738 8.65095C72.2226 9.11535 79.7277 17.3246 79.3749 24.3056Z" stroke="#75C66B" stroke-width="2" stroke-linecap="round" stroke-linejoin="round"/>
<path d="M9.24438 113.421V120.449H6.30438V101.633H13.0244C15.2084 101.633 16.851 102.118 17.9524 103.089C19.0724 104.059 19.6324 105.525 19.6324 107.485C19.6324 109.445 19.0817 110.929 17.9804 111.937C16.8977 112.926 15.2924 113.421 13.1644 113.421H9.24438ZM9.24438 104.069V110.985H13.1364C14.2564 110.985 15.1244 110.695 15.7404 110.117C16.375 109.538 16.6924 108.661 16.6924 107.485C16.6924 106.365 16.375 105.515 15.7404 104.937C15.1244 104.358 14.2564 104.069 13.1364 104.069H9.24438ZM31.9143 120.449H29.7583L29.3383 119.329C28.8157 119.758 28.1997 120.103 27.4903 120.365C26.7997 120.607 26.0343 120.729 25.1943 120.729C23.6823 120.729 22.5623 120.365 21.8343 119.637C21.1063 118.89 20.7423 117.817 20.7423 116.417C20.7423 114.998 21.1997 113.943 22.1143 113.253C23.029 112.562 24.5223 112.217 26.5943 112.217C27.0237 112.217 27.4343 112.226 27.8263 112.245C28.2183 112.263 28.6103 112.291 29.0023 112.329V111.853C29.0023 110.789 28.7877 110.042 28.3583 109.613C27.9477 109.183 27.201 108.969 26.1183 108.969C25.521 108.969 24.877 109.062 24.1863 109.249C23.5143 109.417 22.8237 109.687 22.1143 110.061L21.2463 107.989C22.049 107.559 22.8797 107.223 23.7383 106.981C24.6157 106.738 25.5303 106.617 26.4823 106.617C27.4903 106.617 28.3397 106.71 29.0303 106.897C29.7397 107.083 30.2997 107.401 30.7103 107.849C31.1397 108.278 31.4477 108.838 31.6343 109.529C31.821 110.219 31.9143 111.069 31.9143 112.077V120.449ZM25.8943 118.405C26.3797 118.405 26.9117 118.293 27.4903 118.069C28.069 117.845 28.573 117.555 29.0023 117.201V114.597C28.629 114.559 28.237 114.531 27.8263 114.513C27.4157 114.475 26.9583 114.457 26.4543 114.457C25.4277 114.457 24.6997 114.606 24.2703 114.905C23.8597 115.185 23.6543 115.67 23.6543 116.361C23.6543 117.723 24.401 118.405 25.8943 118.405ZM41.351 118.349C42.0416 118.349 42.6856 118.265 43.283 118.097C43.8803 117.91 44.4683 117.658 45.047 117.341L45.747 119.581C45.1683 119.935 44.5056 120.215 43.759 120.421C43.0123 120.626 42.2096 120.729 41.351 120.729C39.0176 120.729 37.3096 120.169 36.227 119.049C35.163 117.929 34.631 116.137 34.631 113.673C34.631 111.246 35.1536 109.463 36.199 108.325C37.2443 107.186 38.8683 106.617 41.071 106.617C43.0496 106.617 44.6456 107.205 45.859 108.381L44.347 110.341C43.451 109.445 42.387 108.997 41.155 108.997C39.979 108.997 39.083 109.351 38.467 110.061C37.851 110.77 37.543 111.974 37.543 113.673C37.543 115.353 37.8603 116.557 38.495 117.285C39.1296 117.994 40.0816 118.349 41.351 118.349ZM48.286 120.449V101.017L51.226 100.681V111.909H52.346L56.854 106.897H60.354L54.586 113.141L60.494 120.449H56.966L52.262 114.317H51.226V120.449H48.286ZM73.0021 120.449H70.8461L70.4261 119.329C69.9035 119.758 69.2875 120.103 68.5781 120.365C67.8875 120.607 67.1221 120.729 66.2821 120.729C64.7701 120.729 63.6501 120.365 62.9221 119.637C62.1941 118.89 61.8301 117.817 61.8301 116.417C61.8301 114.998 62.2875 113.943 63.2021 113.253C64.1168 112.562 65.6101 112.217 67.6821 112.217C68.1115 112.217 68.5221 112.226 68.9141 112.245C69.3061 112.263 69.6981 112.291 70.0901 112.329V111.853C70.0901 110.789 69.8755 110.042 69.4461 109.613C69.0355 109.183 68.2888 108.969 67.2061 108.969C66.6088 108.969 65.9648 109.062 65.2741 109.249C64.6021 109.417 63.9115 109.687 63.2021 110.061L62.3341 107.989C63.1368 107.559 63.9675 107.223 64.8261 106.981C65.7035 106.738 66.6181 106.617 67.5701 106.617C68.5781 106.617 69.4275 106.71 70.1181 106.897C70.8275 107.083 71.3875 107.401 71.7981 107.849C72.2275 108.278 72.5355 108.838 72.7221 109.529C72.9088 110.219 73.0021 111.069 73.0021 112.077V120.449ZM66.9821 118.405C67.4675 118.405 67.9995 118.293 68.5781 118.069C69.1568 117.845 69.6608 117.555 70.0901 117.201V114.597C69.7168 114.559 69.3248 114.531 68.9141 114.513C68.5035 114.475 68.0461 114.457 67.5421 114.457C66.5155 114.457 65.7875 114.606 65.3581 114.905C64.9475 115.185 64.7421 115.67 64.7421 116.361C64.7421 117.723 65.4888 118.405 66.9821 118.405ZM87.7028 106.897V120.477C87.7028 122.605 87.1708 124.145 86.1068 125.097C85.0428 126.067 83.4468 126.553 81.3188 126.553C80.5348 126.553 79.7601 126.487 78.9948 126.357C78.2295 126.226 77.5388 126.039 76.9228 125.797L77.5388 123.529C78.1361 123.734 78.7521 123.893 79.3868 124.005C80.0215 124.135 80.6468 124.201 81.2628 124.201C82.5135 124.201 83.4095 123.93 83.9508 123.389C84.5108 122.866 84.7908 121.989 84.7908 120.757V119.525C84.3615 119.898 83.8295 120.197 83.1948 120.421C82.5788 120.626 81.8788 120.729 81.0948 120.729C79.4148 120.729 78.0988 120.159 77.1468 119.021C76.1948 117.882 75.7188 116.099 75.7188 113.673C75.7188 111.246 76.2135 109.463 77.2028 108.325C78.1921 107.186 79.6481 106.617 81.5708 106.617C82.9895 106.617 84.1655 107.065 85.0988 107.961L85.4908 106.897H87.7028ZM81.9348 108.969C80.8148 108.969 79.9748 109.333 79.4148 110.061C78.8735 110.77 78.6028 111.974 78.6028 113.673C78.6028 115.371 78.8828 116.585 79.4428 117.313C80.0028 118.041 80.8428 118.405 81.9628 118.405C82.5041 118.405 83.0175 118.311 83.5028 118.125C83.9881 117.919 84.4175 117.639 84.7908 117.285V110.061C84.4175 109.725 83.9881 109.463 83.5028 109.277C83.0175 109.071 82.4948 108.969 81.9348 108.969ZM91.4865 106.897H94.3985V120.449H91.4865V106.897ZM91.4865 101.073H94.3985V104.125H91.4865V101.073ZM100.779 108.129C101.377 107.662 102.039 107.298 102.767 107.037C103.495 106.757 104.279 106.617 105.119 106.617C106.706 106.617 107.854 106.999 108.563 107.765C109.291 108.53 109.655 109.753 109.655 111.433V120.449H106.743V112.049C106.743 110.929 106.547 110.135 106.155 109.669C105.782 109.202 105.222 108.969 104.475 108.969C103.878 108.969 103.299 109.071 102.739 109.277C102.198 109.463 101.647 109.743 101.087 110.117V120.449H98.1752V106.897H100.359L100.779 108.129ZM124.361 106.897V120.477C124.361 122.605 123.829 124.145 122.765 125.097C121.701 126.067 120.105 126.553 117.977 126.553C117.193 126.553 116.418 126.487 115.653 126.357C114.888 126.226 114.197 126.039 113.581 125.797L114.197 123.529C114.794 123.734 115.41 123.893 116.045 124.005C116.68 124.135 117.305 124.201 117.921 124.201C119.172 124.201 120.068 123.93 120.609 123.389C121.169 122.866 121.449 121.989 121.449 120.757V119.525C121.02 119.898 120.488 120.197 119.853 120.421C119.237 120.626 118.537 120.729 117.753 120.729C116.073 120.729 114.757 120.159 113.805 119.021C112.853 117.882 112.377 116.099 112.377 113.673C112.377 111.246 112.872 109.463 113.861 108.325C114.85 107.186 116.306 106.617 118.229 106.617C119.648 106.617 120.824 107.065 121.757 107.961L122.149 106.897H124.361ZM118.593 108.969C117.473 108.969 116.633 109.333 116.073 110.061C115.532 110.77 115.261 111.974 115.261 113.673C115.261 115.371 115.541 116.585 116.101 117.313C116.661 118.041 117.501 118.405 118.621 118.405C119.162 118.405 119.676 118.311 120.161 118.125C120.646 117.919 121.076 117.639 121.449 117.285V110.061C121.076 109.725 120.646 109.463 120.161 109.277C119.676 109.071 119.153 108.969 118.593 108.969Z" fill="#75C66B"/>
</svg>
