<svg width="131" height="131" viewBox="0 0 131 131" fill="none" xmlns="http://www.w3.org/2000/svg">
<g clip-path="url(#clip0_1071_6379)">
<path d="M63.0068 41.4009L49.5283 34.3435L63.1243 28.0142L77.6603 35.1303L63.0068 41.4009Z" stroke="#75C66B" stroke-width="2" stroke-linecap="round" stroke-linejoin="round"/>
<path d="M63.0034 41.3993L77.657 35.1287V53.33L63.591 60.4461L63.0034 41.3993Z" stroke="#75C66B" stroke-width="2" stroke-linecap="round" stroke-linejoin="round"/>
<path d="M63.0068 41.4017L49.5283 34.3442V52.8039L63.5943 60.4485L63.0068 41.4017Z" stroke="#75C66B" stroke-width="2" stroke-linecap="round" stroke-linejoin="round"/>
<path d="M67.4379 30.1287L53.9712 36.6694V42.1415L58.5423 44.7015L58.3661 39.4055L72.1265 32.8765" stroke="#75C66B" stroke-width="2" stroke-linecap="round" stroke-linejoin="round"/>
<path d="M86.0518 49.2035C89.0707 36.4218 81.1491 23.6146 68.3584 20.5979C55.5678 17.5811 42.7516 25.4972 39.7327 38.2788C36.7139 51.0605 44.6355 63.8677 57.4261 66.8844C70.2168 69.9012 83.033 61.9851 86.0518 49.2035Z" stroke="#75C66B" stroke-width="2" stroke-linecap="round" stroke-linejoin="round"/>
<path d="M85.885 67.3303C86.6606 66.5318 98.8229 53.5795 94.6278 36.4937C91.6078 24.2225 81.3609 14.7108 68.517 12.1509C67.2244 11.8925 65.9082 11.7869 64.6039 11.7869H28.9042V5.46924L17.5645 15.1218L28.3519 25.0327L28.2579 19.9481H62.9" stroke="#75C66B" stroke-width="2" stroke-linecap="round" stroke-linejoin="round"/>
<path d="M40.1486 20.6064C38.6797 22.2152 29.0321 33.136 31.1355 48.0963C31.9816 54.1321 34.5903 59.7452 38.4917 64.4188C45.0487 72.263 54.8961 76.6078 65.1313 76.6078H96.9414V83.1133L109.021 72.4274L97.1176 62.3051L96.9296 67.5072H62.8751" stroke="#75C66B" stroke-width="2" stroke-linecap="round" stroke-linejoin="round"/>
</g>
<path d="M14.3323 123.718C16.1616 123.718 17.907 123.261 19.5683 122.346L20.3523 124.67C19.4936 125.156 18.5323 125.52 17.4683 125.762C16.423 126.005 15.3683 126.126 14.3043 126.126C11.1683 126.126 8.89095 125.296 7.47229 123.634C6.05362 121.973 5.34429 119.574 5.34429 116.438C5.34429 113.116 6.05362 110.67 7.47229 109.102C8.89095 107.534 10.991 106.75 13.7723 106.75C15.191 106.75 16.451 106.984 17.5523 107.45C18.6723 107.917 19.5776 108.524 20.2683 109.27L18.5883 111.118C17.991 110.484 17.3003 110.008 16.5163 109.69C15.751 109.354 14.8363 109.186 13.7723 109.186C11.9243 109.186 10.543 109.765 9.62829 110.922C8.73229 112.08 8.28429 113.918 8.28429 116.438C8.28429 118.902 8.76029 120.732 9.71229 121.926C10.6643 123.121 12.2043 123.718 14.3323 123.718ZM22.591 119.07C22.591 116.606 23.1043 114.814 24.131 113.694C25.1763 112.574 26.8003 112.014 29.003 112.014C31.2056 112.014 32.8203 112.584 33.847 113.722C34.8923 114.861 35.415 116.644 35.415 119.07C35.415 121.534 34.8923 123.326 33.847 124.446C32.8203 125.566 31.2056 126.126 29.003 126.126C26.8003 126.126 25.1763 125.566 24.131 124.446C23.1043 123.326 22.591 121.534 22.591 119.07ZM25.475 119.07C25.475 120.657 25.7456 121.842 26.287 122.626C26.847 123.392 27.7523 123.774 29.003 123.774C30.2536 123.774 31.1496 123.392 31.691 122.626C32.2323 121.842 32.503 120.657 32.503 119.07C32.503 117.484 32.2323 116.308 31.691 115.542C31.1496 114.777 30.2536 114.394 29.003 114.394C27.7523 114.394 26.847 114.777 26.287 115.542C25.7456 116.308 25.475 117.484 25.475 119.07ZM41.4888 106.078V122.206C41.4888 122.841 41.5728 123.252 41.7408 123.438C41.9088 123.606 42.2448 123.69 42.7488 123.69V126.042C42.5808 126.08 42.4408 126.098 42.3288 126.098C42.2168 126.117 42.0488 126.126 41.8248 126.126C40.7421 126.126 39.9301 125.828 39.3888 125.23C38.8661 124.614 38.6048 123.606 38.6048 122.206V106.414L41.4888 106.078ZM48.5402 106.078V122.206C48.5402 122.841 48.6242 123.252 48.7922 123.438C48.9602 123.606 49.2962 123.69 49.8002 123.69V126.042C49.6322 126.08 49.4922 126.098 49.3802 126.098C49.2682 126.117 49.1002 126.126 48.8762 126.126C47.7935 126.126 46.9815 125.828 46.4402 125.23C45.9175 124.614 45.6562 123.606 45.6562 122.206V106.414L48.5402 106.078ZM58.3356 126.126C56.0209 126.126 54.3503 125.557 53.3236 124.418C52.3156 123.28 51.8116 121.497 51.8116 119.07C51.8116 116.644 52.2969 114.861 53.2676 113.722C54.2569 112.584 55.7689 112.014 57.8036 112.014C59.8009 112.014 61.2943 112.584 62.2836 113.722C63.2729 114.842 63.7676 116.616 63.7676 119.042V120.022H54.7796C54.8729 121.329 55.1903 122.281 55.7316 122.878C56.2916 123.476 57.1689 123.774 58.3636 123.774C59.1476 123.774 59.9036 123.662 60.6316 123.438C61.3596 123.214 62.0783 122.888 62.7876 122.458L63.6276 124.67C62.9183 125.1 62.1063 125.454 61.1916 125.734C60.2956 125.996 59.3436 126.126 58.3356 126.126ZM60.7716 117.782C60.6783 116.662 60.3983 115.822 59.9316 115.262C59.4649 114.684 58.7556 114.394 57.8036 114.394C55.9369 114.394 54.9383 115.524 54.8076 117.782H60.7716ZM72.7471 123.746C73.4377 123.746 74.0817 123.662 74.6791 123.494C75.2764 123.308 75.8644 123.056 76.4431 122.738L77.1431 124.978C76.5644 125.333 75.9017 125.613 75.1551 125.818C74.4084 126.024 73.6057 126.126 72.7471 126.126C70.4137 126.126 68.7057 125.566 67.6231 124.446C66.5591 123.326 66.0271 121.534 66.0271 119.07C66.0271 116.644 66.5497 114.861 67.5951 113.722C68.6404 112.584 70.2644 112.014 72.4671 112.014C74.4457 112.014 76.0417 112.602 77.2551 113.778L75.7431 115.738C74.8471 114.842 73.7831 114.394 72.5511 114.394C71.3751 114.394 70.4791 114.749 69.8631 115.458C69.2471 116.168 68.9391 117.372 68.9391 119.07C68.9391 120.75 69.2564 121.954 69.8911 122.682C70.5257 123.392 71.4777 123.746 72.7471 123.746ZM83.5461 114.674V120.862C83.5461 121.945 83.6954 122.701 83.9941 123.13C84.2928 123.56 84.8714 123.774 85.7301 123.774C86.1594 123.774 86.5888 123.709 87.0181 123.578C87.4661 123.448 87.8861 123.298 88.2781 123.13L88.8381 125.286C88.2408 125.566 87.6061 125.772 86.9341 125.902C86.2621 126.052 85.5994 126.126 84.9461 126.126C84.1248 126.126 83.4341 126.024 82.8741 125.818C82.3328 125.613 81.8941 125.314 81.5581 124.922C81.2408 124.512 81.0074 124.017 80.8581 123.438C80.7274 122.86 80.6621 122.188 80.6621 121.422V114.674H78.4501V112.294H80.6621V109.578L83.5461 109.046V112.294H88.3341V114.674H83.5461ZM91.4165 112.294H94.3285V125.846H91.4165V112.294ZM91.4165 106.47H94.3285V109.522H91.4165V106.47ZM97.5172 119.07C97.5172 116.606 98.0306 114.814 99.0572 113.694C100.103 112.574 101.727 112.014 103.929 112.014C106.132 112.014 107.747 112.584 108.773 113.722C109.819 114.861 110.341 116.644 110.341 119.07C110.341 121.534 109.819 123.326 108.773 124.446C107.747 125.566 106.132 126.126 103.929 126.126C101.727 126.126 100.103 125.566 99.0572 124.446C98.0306 123.326 97.5172 121.534 97.5172 119.07ZM100.401 119.07C100.401 120.657 100.672 121.842 101.213 122.626C101.773 123.392 102.679 123.774 103.929 123.774C105.18 123.774 106.076 123.392 106.617 122.626C107.159 121.842 107.429 120.657 107.429 119.07C107.429 117.484 107.159 116.308 106.617 115.542C106.076 114.777 105.18 114.394 103.929 114.394C102.679 114.394 101.773 114.777 101.213 115.542C100.672 116.308 100.401 117.484 100.401 119.07ZM115.827 113.526C116.424 113.06 117.087 112.696 117.815 112.434C118.543 112.154 119.327 112.014 120.167 112.014C121.754 112.014 122.902 112.397 123.611 113.162C124.339 113.928 124.703 115.15 124.703 116.83V125.846H121.791V117.446C121.791 116.326 121.595 115.533 121.203 115.066C120.83 114.6 120.27 114.366 119.523 114.366C118.926 114.366 118.347 114.469 117.787 114.674C117.246 114.861 116.695 115.141 116.135 115.514V125.846H113.223V112.294H115.407L115.827 113.526Z" fill="#75C66B"/>
<defs>
<clipPath id="clip0_1071_6379">
<rect width="98.6802" height="84.2966" fill="white" transform="translate(15.8262 0.549561)"/>
</clipPath>
</defs>
</svg>
