<svg width="131" height="131" viewBox="0 0 131 131" fill="none" xmlns="http://www.w3.org/2000/svg">
<path d="M63.2853 11.9621C63.2853 10.0774 55.2 8.54956 45.2259 8.54956C35.2517 8.54956 27.167 10.0774 27.167 11.9621C27.167 13.4888 32.4749 14.7808 39.7924 15.2168H39.7578C39.7578 15.2168 39.7759 15.2185 39.8116 15.2211L36.9214 16.8103C36.7367 16.7199 34.0221 57.3216 33.9684 57.2323C33.3507 57.6635 33.0038 58.1367 33.0038 58.6346C33.0038 60.6216 38.4447 62.2323 45.1562 62.2323C51.8677 62.2323 57.3086 60.6216 57.3086 58.6346C57.3086 58.1334 56.9569 57.657 56.3306 57.2231C56.2801 57.3082 53.6144 16.6881 53.45 16.7715L50.6258 15.2185C50.6349 15.2179 50.6439 15.2174 50.6535 15.2168C50.6556 15.2168 50.6577 15.2168 50.6593 15.2168C57.9779 14.7813 63.2858 13.4893 63.2858 11.9621H63.2853Z" stroke="#75C66B" stroke-width="2" stroke-linejoin="round"/>
<path d="M35.4443 37.2812C35.4443 38.5338 39.8239 39.5493 45.2265 39.5493C50.6292 39.5493 55.0087 38.5338 55.0087 37.2812" stroke="#75C66B" stroke-width="2" stroke-linejoin="round"/>
<path d="M34.0859 55.4836C34.0859 57.156 38.9709 58.5117 44.9968 58.5117C51.0228 58.5117 55.9077 57.156 55.9077 55.4836" stroke="#75C66B" stroke-width="2" stroke-linejoin="round"/>
<path d="M99.4335 40.3059H70.0271C67.9741 40.3059 66.2949 42.0473 66.2949 44.1758V69.6498C66.2949 70.1447 66.6857 70.5497 67.1632 70.5497H102.298C102.776 70.5497 103.166 70.1447 103.166 69.6498V44.1758C103.166 42.0473 101.486 40.3059 99.4335 40.3059ZM101.255 56.5082C101.255 58.5851 99.5547 60.2845 97.4773 60.2845H71.9828C69.9053 60.2845 68.2059 58.5851 68.2059 56.5082V46.2016C68.2059 44.1247 69.9059 42.4253 71.9828 42.4253H97.4773C99.5547 42.4253 101.255 44.1247 101.255 46.2016V56.5082Z" stroke="#75C66B" stroke-width="2" stroke-miterlimit="10"/>
<path d="M43.3321 95.1696V101.47H47.3081C49.6601 101.47 50.8361 100.424 50.8361 98.3336C50.8361 96.2242 49.6788 95.1696 47.3641 95.1696H43.3321ZM40.3921 111.55V92.7336H47.3081C51.6761 92.7336 53.8601 94.6002 53.8601 98.3336C53.8601 99.5656 53.5521 100.62 52.9361 101.498C52.3388 102.375 51.4708 103.019 50.3321 103.43L54.4761 111.55H51.3681L47.4761 103.906H43.3321V111.55H40.3921ZM72.6215 102.758C72.0801 105.035 71.3055 106.846 70.2975 108.19L73.4055 111.55H70.0735L68.5615 109.926C67.7215 110.542 66.8161 111.018 65.8455 111.354C64.8748 111.671 63.8295 111.83 62.7095 111.83C61.6828 111.83 60.7775 111.708 59.9935 111.466C59.2281 111.223 58.5841 110.887 58.0615 110.458C57.5575 110.028 57.1748 109.524 56.9135 108.946C56.6521 108.348 56.5215 107.695 56.5215 106.986C56.5215 105.866 56.8761 104.82 57.5855 103.85C58.3135 102.879 59.3495 102.058 60.6935 101.386C59.8908 100.49 59.3215 99.6776 58.9855 98.9496C58.6495 98.2029 58.4815 97.5029 58.4815 96.8496C58.4815 95.5429 58.9388 94.4882 59.8535 93.6856C60.7868 92.8642 62.0748 92.4536 63.7175 92.4536C64.5388 92.4536 65.2761 92.5656 65.9295 92.7896C66.5828 93.0136 67.1335 93.3122 67.5815 93.6856C68.0481 94.0589 68.4028 94.5069 68.6455 95.0296C68.8881 95.5522 69.0095 96.1029 69.0095 96.6816C69.0095 97.2416 68.9161 97.7549 68.7295 98.2216C68.5615 98.6696 68.2908 99.0989 67.9175 99.5096C67.5628 99.9202 67.1055 100.331 66.5455 100.742C65.9855 101.152 65.3228 101.591 64.5575 102.058L68.5615 106.342C68.8975 105.8 69.1868 105.24 69.4295 104.662C69.6721 104.083 69.8775 103.448 70.0455 102.758H72.6215ZM62.3455 103.178C61.1695 103.756 60.3575 104.363 59.9095 104.998C59.4615 105.632 59.2375 106.276 59.2375 106.93C59.2375 107.77 59.5361 108.423 60.1335 108.89C60.7308 109.356 61.6455 109.59 62.8775 109.59C64.4268 109.59 65.7708 109.104 66.9095 108.134L62.3455 103.178ZM62.9615 100.266C64.1375 99.7242 64.9868 99.1642 65.5095 98.5856C66.0321 97.9882 66.2935 97.3909 66.2935 96.7936C66.2935 96.1776 66.0695 95.6736 65.6215 95.2816C65.1921 94.8896 64.5575 94.6936 63.7175 94.6936C62.9335 94.6936 62.3175 94.8896 61.8695 95.2816C61.4401 95.6549 61.2255 96.1869 61.2255 96.8776C61.2255 97.4749 61.3561 98.0256 61.6175 98.5296C61.8975 99.0336 62.3455 99.6122 62.9615 100.266ZM90.669 102.142C90.669 105.352 89.8663 107.723 88.261 109.254C86.6556 110.784 84.313 111.55 81.233 111.55H75.577V92.7336H81.233C84.3316 92.7336 86.6743 93.5082 88.261 95.0576C89.8663 96.6069 90.669 98.9682 90.669 102.142ZM78.517 95.1696V109.142H81.233C83.3236 109.142 84.929 108.591 86.049 107.49C87.169 106.37 87.729 104.587 87.729 102.142C87.729 99.7149 87.169 97.9509 86.049 96.8496C84.929 95.7296 83.3236 95.1696 81.233 95.1696H78.517Z" fill="#75C66B"/>
</svg>
