<svg width="131" height="131" viewBox="0 0 131 131" fill="none" xmlns="http://www.w3.org/2000/svg">
<path d="M46.9352 30.8959C48.347 21.2896 56.0966 14.816 64.6318 14.9232C72.5107 15.0196 80.3814 20.9253 81.8922 30.9709C82.8758 30.9709 83.8493 30.9516 84.8207 30.973C92.3906 31.1423 98.8859 37.2751 99.8917 45.195C101.047 54.3042 95.3454 62.5006 86.8041 63.9706C85.9619 64.1163 85.0954 64.1656 84.2391 64.1656C71.5351 64.1784 58.8312 64.1806 46.1273 64.172C36.8407 64.1656 29.7496 56.1449 30.3252 46.3243C30.7776 38.6122 36.6731 32.0123 43.9299 31.1166C44.9034 30.9966 45.889 30.9709 46.9352 30.8959Z" stroke="#75C66B" stroke-width="3" stroke-miterlimit="10"/>
<path d="M68.4088 37.2564C64.9665 37.2564 62.1732 40.2153 62.1732 43.8506C62.1732 47.486 64.9717 50.4449 68.4088 50.4449C71.8459 50.4449 74.6444 47.486 74.6444 43.8506C74.6444 40.2153 71.8459 37.2564 68.4088 37.2564ZM68.4088 51.5668C64.3798 51.5668 61.1089 48.102 61.1089 43.8506C61.1089 39.5993 64.385 36.1289 68.4088 36.1289C72.4326 36.1289 75.7087 39.5938 75.7087 43.8451C75.7087 48.0965 72.4326 51.5613 68.4088 51.5613V51.5668Z" fill="#75C66B"/>
<path d="M55.0714 51.5668C51.0269 51.5668 47.73 48.102 47.73 43.8506C47.73 39.5993 51.0217 36.1289 55.0714 36.1289C56.8782 36.1289 58.6175 36.8329 59.9623 38.0978L59.251 38.9338C58.0983 37.8558 56.6134 37.2564 55.0766 37.2564C51.6136 37.2564 48.7995 40.2153 48.7995 43.8506C48.7995 47.486 51.6084 50.4449 55.0714 50.4449C56.6134 50.4449 58.0983 49.8509 59.2458 48.7674L59.9571 49.6034C58.6124 50.8684 56.873 51.5668 55.0662 51.5668H55.0714Z" fill="#75C66B"/>
<path d="M76.4722 54.8835V53.0411C76.4722 51.8256 77.4119 50.8357 78.5697 50.8357H80.1117C80.5946 50.8357 80.9892 50.4177 80.9892 49.9172V49.2627C80.9892 49.0152 80.8957 48.7843 80.7296 48.6138C80.5634 48.4378 80.3454 48.3443 80.1117 48.3443H78.5801C78.0194 48.3443 77.5677 48.8228 77.5677 49.4112H76.4826C76.4826 48.1958 77.4223 47.2058 78.5801 47.2058H80.1117C80.6361 47.2058 81.1242 47.4203 81.498 47.8053C81.8666 48.1958 82.0743 48.7128 82.0743 49.2627V49.9227C82.0743 51.0557 81.1917 51.9851 80.1117 51.9851H78.5697C78.0142 51.9851 77.5573 52.4636 77.5573 53.0521V53.7561H82.1314V54.8945H76.4722V54.8835Z" fill="#75C66B"/>
<path d="M55.8533 86.3612H58.7933V98.0372C58.7933 100.613 58.2053 102.499 57.0293 103.693C55.872 104.869 54.0333 105.457 51.5133 105.457C48.9933 105.457 47.1453 104.869 45.9693 103.693C44.7933 102.499 44.2053 100.613 44.2053 98.0372V86.3612H47.1453V98.4852C47.1453 100.072 47.5093 101.229 48.2373 101.957C48.9653 102.685 50.0573 103.049 51.5133 103.049C52.9693 103.049 54.052 102.685 54.7613 101.957C55.4893 101.229 55.8533 100.072 55.8533 98.4852V86.3612ZM67.0212 96.7772C67.4318 96.9452 67.8518 97.0946 68.2812 97.2252C68.7105 97.3559 69.2798 97.5519 69.9892 97.8132C70.9412 98.1492 71.6412 98.6159 72.0892 99.2132C72.5372 99.7919 72.7612 100.557 72.7612 101.509C72.7612 102.816 72.3225 103.805 71.4452 104.477C70.5678 105.131 69.1492 105.457 67.1892 105.457C66.1812 105.457 65.2478 105.364 64.3892 105.177C63.5492 104.972 62.7652 104.683 62.0372 104.309L62.9612 102.097C63.5212 102.415 64.1558 102.667 64.8652 102.853C65.5745 103.021 66.3492 103.105 67.1892 103.105C68.1412 103.105 68.8038 102.975 69.1772 102.713C69.5692 102.433 69.7652 102.051 69.7652 101.565C69.7652 101.155 69.6532 100.828 69.4292 100.585C69.2052 100.324 68.8132 100.091 68.2532 99.8852C67.7678 99.6986 67.2452 99.5212 66.6852 99.3532C66.1252 99.1852 65.6118 99.0172 65.1452 98.8492C64.1745 98.4759 63.4745 98.0092 63.0452 97.4492C62.6158 96.8892 62.4012 96.1892 62.4012 95.3492C62.4012 94.0612 62.8305 93.0719 63.6892 92.3812C64.5665 91.6906 65.9665 91.3452 67.8892 91.3452C68.8598 91.3452 69.7185 91.4479 70.4652 91.6532C71.2118 91.8399 71.8558 92.1012 72.3972 92.4372L71.4732 94.6212C70.9878 94.3039 70.4838 94.0706 69.9612 93.9212C69.4385 93.7719 68.8412 93.6972 68.1692 93.6972C67.1612 93.6972 66.4425 93.8279 66.0132 94.0892C65.6025 94.3319 65.3972 94.6679 65.3972 95.0972C65.3972 95.4519 65.4998 95.7599 65.7052 96.0212C65.9105 96.2639 66.3492 96.5159 67.0212 96.7772ZM81.6002 105.457C79.2855 105.457 77.6149 104.888 76.5882 103.749C75.5802 102.611 75.0762 100.828 75.0762 98.4012C75.0762 95.9746 75.5615 94.1919 76.5322 93.0532C77.5215 91.9146 79.0335 91.3452 81.0682 91.3452C83.0655 91.3452 84.5589 91.9146 85.5482 93.0532C86.5375 94.1732 87.0322 95.9466 87.0322 98.3732V99.3532H78.0442C78.1375 100.66 78.4549 101.612 78.9962 102.209C79.5562 102.807 80.4335 103.105 81.6282 103.105C82.4122 103.105 83.1682 102.993 83.8962 102.769C84.6242 102.545 85.3429 102.219 86.0522 101.789L86.8922 104.001C86.1829 104.431 85.3709 104.785 84.4562 105.065C83.5602 105.327 82.6082 105.457 81.6002 105.457ZM84.0362 97.1132C83.9429 95.9932 83.6629 95.1532 83.1962 94.5932C82.7295 94.0146 82.0202 93.7252 81.0682 93.7252C79.2015 93.7252 78.2029 94.8546 78.0722 97.1132H84.0362Z" fill="#75C66B"/>
</svg>
