<svg width="911" height="988" viewBox="0 0 911 988" fill="none" xmlns="http://www.w3.org/2000/svg">
<path fill-rule="evenodd" clip-rule="evenodd" d="M336.676 110.272C334.942 103.888 338.723 97.3102 345.122 95.5801C417.449 76.0233 492.74 77.3111 562.973 97.1855C569.35 98.9902 573.054 105.612 571.245 111.975C569.436 118.338 562.8 122.034 556.422 120.229C490.25 101.504 419.396 100.313 351.401 118.699C345.003 120.429 338.41 116.656 336.676 110.272Z" fill="#75C66B"/>
<path fill-rule="evenodd" clip-rule="evenodd" d="M725.669 202.261C730.35 197.577 737.95 197.565 742.644 202.235C768.327 227.783 791.093 257.123 810.049 290.008C829.005 322.894 842.973 357.282 852.19 392.28C853.875 398.677 850.043 405.225 843.632 406.906C837.22 408.587 830.657 404.764 828.972 398.367C820.29 365.399 807.126 332.981 789.239 301.95C771.352 270.919 749.889 243.265 725.695 219.198C721 214.528 720.989 206.945 725.669 202.261Z" fill="#75C66B"/>
<path fill-rule="evenodd" clip-rule="evenodd" d="M844.188 585.488C850.61 587.128 854.483 593.653 852.839 600.06C834.735 670.62 797.988 736.2 744.674 788.742C739.958 793.39 732.358 793.343 727.7 788.638C723.041 783.932 723.088 776.349 727.805 771.701C777.925 722.306 812.525 660.6 829.583 594.12C831.227 587.712 837.766 583.847 844.188 585.488Z" fill="#75C66B"/>
<path fill-rule="evenodd" clip-rule="evenodd" d="M339.574 875.054C341.383 868.69 348.019 864.995 354.397 866.8C420.568 885.525 491.42 886.711 559.415 868.325C565.814 866.595 572.406 870.368 574.14 876.752C575.874 883.136 572.093 889.714 565.695 891.444C493.368 911.001 418.08 909.718 347.847 889.843C341.469 888.039 337.765 881.417 339.574 875.054Z" fill="#75C66B"/>
<path fill-rule="evenodd" clip-rule="evenodd" d="M67.1891 580.121C73.6006 578.44 80.1639 582.264 81.8487 588.661C90.5312 621.629 103.694 654.046 121.581 685.078C139.469 716.109 160.932 743.763 185.126 767.83C189.82 772.5 189.832 780.083 185.151 784.767C180.471 789.451 172.871 789.463 168.176 784.793C142.494 759.244 119.728 729.905 100.772 697.019C81.8154 664.134 67.8476 629.745 58.6307 594.748C56.9459 588.351 60.7777 581.802 67.1891 580.121Z" fill="#75C66B"/>
<path fill-rule="evenodd" clip-rule="evenodd" d="M183.141 198.395C187.8 203.101 187.754 210.683 183.037 215.331C132.916 264.72 98.3158 326.42 81.2623 392.9C79.6187 399.307 73.0797 403.172 66.6571 401.532C60.2345 399.891 56.3603 393.368 58.0039 386.96C76.1039 316.401 112.85 250.827 166.166 198.29C170.882 193.642 178.482 193.69 183.141 198.395Z" fill="#75C66B"/>
</svg>
