<svg width="63" height="27" viewBox="0 0 63 27" fill="none" xmlns="http://www.w3.org/2000/svg">
<g clip-path="url(#clip0_1380_4916)">
<path d="M38.0981 18.7611H46.6865V22.1608H33.9531V4.70312H38.0981V18.7611Z" fill="white"/>
<path d="M55.8043 15.5036H59.1798V18.5584C58.56 18.7883 57.3448 19.0183 56.1918 19.0183C52.4595 19.0183 51.2183 17.1743 51.2183 13.4297C51.2183 9.85604 52.3996 7.75306 56.1288 7.75306C58.2072 7.75306 59.3862 8.38764 60.3643 9.59777L62.9428 7.29246C61.3677 5.10748 58.6199 4.44531 56.039 4.44531C50.2378 4.44301 47.1875 7.52238 47.1875 13.3998C47.1875 19.2482 49.944 22.4187 56.0083 22.4187C58.7931 22.4187 61.515 21.729 62.9964 20.7181V12.248H55.8043V15.5036Z" fill="white"/>
<path d="M23.6802 23.047C29.098 17.7749 29.0978 9.22698 23.6797 3.9546C18.2616 -1.31778 9.47746 -1.31802 4.05971 3.95406C-1.35804 9.22614 -1.35779 17.7741 4.06027 23.0465C9.47833 28.3189 18.2625 28.3191 23.6802 23.047Z" fill="#A50034"/>
<path d="M17.2663 18.167H14.4311V7.80078H13.3828V19.1901H14.4334V19.1832H17.2687L17.2663 18.167Z" fill="white"/>
<path d="M24.3418 13.9292H17.2867V12.9122H25.3759C25.3869 13.1091 25.3924 13.3061 25.3924 13.5054C25.3924 19.6288 20.2637 24.592 13.9388 24.592C7.61381 24.592 2.48438 19.6311 2.48438 13.5046C2.48438 7.37806 7.61224 2.41797 13.938 2.41797C14.105 2.41797 14.2711 2.42129 14.4365 2.42793V3.43727C14.2711 3.43012 14.1055 3.42654 13.9396 3.42654C8.19031 3.42654 3.5279 7.93906 3.5279 13.5046C3.5279 19.0701 8.18952 23.5834 13.9396 23.5834C19.5313 23.5834 24.0992 19.3139 24.341 13.9575L24.3418 13.9292Z" fill="white"/>
<path d="M9.66369 10.8661C9.98002 10.8646 10.2888 10.772 10.5511 10.5998C10.8133 10.4277 11.0173 10.1838 11.1373 9.89902C11.2573 9.61418 11.2879 9.30115 11.2252 8.99942C11.1625 8.69769 11.0094 8.42079 10.7852 8.20365C10.561 7.98652 10.2757 7.83888 9.96529 7.77938C9.65492 7.71988 9.33339 7.75118 9.04129 7.86933C8.74918 7.98748 8.49958 8.18718 8.32399 8.44324C8.1484 8.69929 8.05469 9.00023 8.05469 9.30806C8.0552 9.51317 8.09723 9.71618 8.17837 9.90548C8.25951 10.0948 8.37817 10.2667 8.52758 10.4114C8.67699 10.5561 8.85423 10.6707 9.04916 10.7487C9.24409 10.8267 9.45291 10.8666 9.66369 10.8661Z" fill="white"/>
</g>
<defs>
<clipPath id="clip0_1380_4916">
<rect width="63" height="27" fill="white"/>
</clipPath>
</defs>
</svg>
