<svg width="354" height="311" viewBox="0 0 354 311" fill="none" xmlns="http://www.w3.org/2000/svg">
<path d="M77 24.5C77 10.969 87.969 0 101.5 0H252.5C266.031 0 277 10.969 277 24.5C277 38.031 266.031 49 252.5 49H101.5C87.969 49 77 38.031 77 24.5Z" fill="#F6F3EB"/>
<path d="M160.413 24.952C160.413 27.016 159.897 28.54 158.865 29.524C157.833 30.508 156.327 31 154.347 31H150.711V18.904H154.347C156.339 18.904 157.845 19.402 158.865 20.398C159.897 21.394 160.413 22.912 160.413 24.952ZM152.601 20.47V29.452H154.347C155.691 29.452 156.723 29.098 157.443 28.39C158.163 27.67 158.523 26.524 158.523 24.952C158.523 23.392 158.163 22.258 157.443 21.55C156.723 20.83 155.691 20.47 154.347 20.47H152.601ZM166.088 31.18C164.6 31.18 163.526 30.814 162.866 30.082C162.218 29.35 161.894 28.204 161.894 26.644C161.894 25.084 162.206 23.938 162.83 23.206C163.466 22.474 164.438 22.108 165.746 22.108C167.03 22.108 167.99 22.474 168.626 23.206C169.262 23.926 169.58 25.066 169.58 26.626V27.256H163.802C163.862 28.096 164.066 28.708 164.414 29.092C164.774 29.476 165.338 29.668 166.106 29.668C166.61 29.668 167.096 29.596 167.564 29.452C168.032 29.308 168.494 29.098 168.95 28.822L169.49 30.244C169.034 30.52 168.512 30.748 167.924 30.928C167.348 31.096 166.736 31.18 166.088 31.18ZM167.654 25.816C167.594 25.096 167.414 24.556 167.114 24.196C166.814 23.824 166.358 23.638 165.746 23.638C164.546 23.638 163.904 24.364 163.82 25.816H167.654ZM174.345 25.6C174.609 25.708 174.879 25.804 175.155 25.888C175.431 25.972 175.797 26.098 176.253 26.266C176.865 26.482 177.315 26.782 177.603 27.166C177.891 27.538 178.035 28.03 178.035 28.642C178.035 29.482 177.753 30.118 177.189 30.55C176.625 30.97 175.713 31.18 174.453 31.18C173.805 31.18 173.205 31.12 172.653 31C172.113 30.868 171.609 30.682 171.141 30.442L171.735 29.02C172.095 29.224 172.503 29.386 172.959 29.506C173.415 29.614 173.913 29.668 174.453 29.668C175.065 29.668 175.491 29.584 175.731 29.416C175.983 29.236 176.109 28.99 176.109 28.678C176.109 28.414 176.037 28.204 175.893 28.048C175.749 27.88 175.497 27.73 175.137 27.598C174.825 27.478 174.489 27.364 174.129 27.256C173.769 27.148 173.439 27.04 173.139 26.932C172.515 26.692 172.065 26.392 171.789 26.032C171.513 25.672 171.375 25.222 171.375 24.682C171.375 23.854 171.651 23.218 172.203 22.774C172.767 22.33 173.667 22.108 174.903 22.108C175.527 22.108 176.079 22.174 176.559 22.306C177.039 22.426 177.453 22.594 177.801 22.81L177.207 24.214C176.895 24.01 176.571 23.86 176.235 23.764C175.899 23.668 175.515 23.62 175.083 23.62C174.435 23.62 173.973 23.704 173.697 23.872C173.433 24.028 173.301 24.244 173.301 24.52C173.301 24.748 173.367 24.946 173.499 25.114C173.631 25.27 173.913 25.432 174.345 25.6ZM180.189 22.288H182.061V31H180.189V22.288ZM180.189 18.544H182.061V20.506H180.189V18.544ZM191.905 22.288V31.018C191.905 32.386 191.563 33.376 190.879 33.988C190.195 34.612 189.169 34.924 187.801 34.924C187.297 34.924 186.799 34.882 186.307 34.798C185.815 34.714 185.371 34.594 184.975 34.438L185.371 32.98C185.755 33.112 186.151 33.214 186.559 33.286C186.967 33.37 187.369 33.412 187.765 33.412C188.569 33.412 189.145 33.238 189.493 32.89C189.853 32.554 190.033 31.99 190.033 31.198V30.406C189.757 30.646 189.415 30.838 189.007 30.982C188.611 31.114 188.161 31.18 187.657 31.18C186.577 31.18 185.731 30.814 185.119 30.082C184.507 29.35 184.201 28.204 184.201 26.644C184.201 25.084 184.519 23.938 185.155 23.206C185.791 22.474 186.727 22.108 187.963 22.108C188.875 22.108 189.631 22.396 190.231 22.972L190.483 22.288H191.905ZM188.197 23.62C187.477 23.62 186.937 23.854 186.577 24.322C186.229 24.778 186.055 25.552 186.055 26.644C186.055 27.736 186.235 28.516 186.595 28.984C186.955 29.452 187.495 29.686 188.215 29.686C188.563 29.686 188.893 29.626 189.205 29.506C189.517 29.374 189.793 29.194 190.033 28.966V24.322C189.793 24.106 189.517 23.938 189.205 23.818C188.893 23.686 188.557 23.62 188.197 23.62ZM195.903 23.08C196.287 22.78 196.713 22.546 197.181 22.378C197.649 22.198 198.153 22.108 198.693 22.108C199.713 22.108 200.451 22.354 200.907 22.846C201.375 23.338 201.609 24.124 201.609 25.204V31H199.737V25.6C199.737 24.88 199.611 24.37 199.359 24.07C199.119 23.77 198.759 23.62 198.279 23.62C197.895 23.62 197.523 23.686 197.163 23.818C196.815 23.938 196.461 24.118 196.101 24.358V31H194.229V22.288H195.633L195.903 23.08Z" fill="#262626"/>
<path d="M29.1753 107.368L36.6233 138.28L44.0713 107.368H49.1113L56.5593 138.28L64.0073 107.368H69.3833L59.3593 145H53.7593L46.5913 117.168L39.4233 145H33.8233L23.7993 107.368H29.1753ZM96.6299 137.216C94.8379 142.648 90.0219 145.672 84.1419 145.672C76.4699 145.672 70.3659 140.128 70.3659 131.392C70.3659 122.712 76.4699 117.112 83.8619 117.112C90.5259 117.112 97.2459 121.76 97.2459 131.392V132.904H75.4619C75.8539 139.064 78.7099 141.136 84.1419 141.136C88.3419 141.136 90.4139 140.128 91.5899 137.216H96.6299ZM75.5179 128.984H92.2619C91.7579 123.552 89.0139 121.648 83.8619 121.648C78.9339 121.648 76.1339 123.496 75.5179 128.984ZM130.144 117.84L135.408 139.344L140.336 117.84H145.32L138.32 145H133.056L128.072 124.896L123.032 145H117.768L110.768 117.84H115.752L120.68 139.344L125.944 117.84H130.144ZM161.326 121.536C156.342 121.536 154.046 123.384 154.046 128.536V145H149.062V117.84H153.374L153.822 121.592C155.446 118.792 158.19 117.112 162.39 117.112H163.678V121.536H161.326ZM168.098 112.8V107.368H173.138V112.8H168.098ZM168.098 145V117.84H173.138V145H168.098ZM177.293 117.84H181.605V110.728H186.645V117.84H193.309V122.264H186.645V138.448C186.645 140.24 187.317 140.632 189.165 140.632H193.309V145H188.605C184.909 145 181.605 143.32 181.605 138.952V122.264H177.293V117.84ZM221.24 137.216C219.448 142.648 214.632 145.672 208.752 145.672C201.08 145.672 194.976 140.128 194.976 131.392C194.976 122.712 201.08 117.112 208.472 117.112C215.136 117.112 221.856 121.76 221.856 131.392V132.904H200.072C200.464 139.064 203.32 141.136 208.752 141.136C212.952 141.136 215.024 140.128 216.2 137.216H221.24ZM200.128 128.984H216.872C216.368 123.552 213.624 121.648 208.472 121.648C203.544 121.648 200.744 123.496 200.128 128.984ZM254.754 117.84L260.018 139.344L264.946 117.84H269.93L262.93 145H257.666L252.682 124.896L247.642 145H242.378L235.378 117.84H240.362L245.29 139.344L250.554 117.84H254.754ZM273.671 112.8V107.368H278.711V112.8H273.671ZM273.671 145V117.84H278.711V145H273.671ZM282.866 117.84H287.178V110.728H292.218V117.84H298.882V122.264H292.218V138.448C292.218 140.24 292.89 140.632 294.738 140.632H298.882V145H294.178C290.482 145 287.178 143.32 287.178 138.952V122.264H282.866V117.84ZM308.306 145H303.322V107.368H308.306V121.144C310.154 118.624 313.122 117.112 317.042 117.112C323.762 117.112 327.85 121.872 327.85 128.928V145H322.866V128.536C322.866 123.608 320.682 121.648 315.698 121.648C310.658 121.648 308.306 123.608 308.306 128.536V145Z" fill="#262626"/>
<path d="M95.7635 205V167.368H108.195C120.067 167.368 127.795 174.48 127.795 186.184C127.795 197.888 120.067 205 108.195 205H95.7635ZM102.091 199.4H108.251C117.603 199.4 121.467 195.928 121.467 186.184C121.467 176.44 117.603 172.968 108.251 172.968H102.091V199.4ZM157.885 197.048C156.037 202.536 150.941 205.784 144.893 205.784C136.997 205.784 130.893 200.016 130.893 191.28C130.893 182.656 136.997 176.944 144.725 176.944C151.613 176.944 158.389 181.704 158.389 191.392V193.128H137.109C137.557 198.56 139.909 200.296 144.893 200.296C148.701 200.296 150.549 199.4 151.669 197.048H157.885ZM137.221 188.536H152.285C151.781 184.112 149.541 182.376 144.725 182.376C140.189 182.376 137.837 183.944 137.221 188.536ZM178.948 197.552C178.948 195.648 177.772 194.864 174.972 194.192L170.324 193.128C164.892 191.84 162.092 189.6 162.092 184.896C162.092 180.024 167.188 176.944 173.236 176.944C179.284 176.944 184.1 180.024 184.884 185.568H178.78C178.388 183.048 176.708 182.152 173.236 182.152C169.82 182.152 168.252 183.104 168.252 184.896C168.252 186.408 168.98 187.192 171.836 187.864L176.652 189.096C182.196 190.44 185.052 192.456 185.052 197.384C185.052 202.872 179.732 205.784 173.404 205.784C167.524 205.784 162.092 203.04 161.196 196.488H167.3C167.86 199.736 169.652 200.52 173.404 200.52C177.044 200.52 178.948 199.568 178.948 197.552ZM189.514 173.472V167.368H195.73V173.472H189.514ZM189.514 205V177.672H195.73V205H189.514ZM213.08 204.776C205.8 204.776 200.144 199.176 200.144 190.776C200.144 182.488 205.8 176.944 213.08 176.944C216.72 176.944 219.688 178.288 221.76 180.696L222.152 177.672H227.64V203.768C227.416 210.936 222.04 215.864 214.144 215.864C206.864 215.864 202.328 212.224 200.816 207.016H207.368C208.432 209.648 210.056 210.712 214.424 210.712C219.016 210.712 221.424 208.528 221.424 204.72V201.416C219.352 203.6 216.496 204.776 213.08 204.776ZM206.304 190.776C206.304 197.048 208.712 199.288 213.976 199.288C219.296 199.288 221.704 197.048 221.704 190.776C221.704 184.616 219.296 182.376 213.976 182.376C208.712 182.376 206.304 184.616 206.304 190.776ZM252.414 188.48C252.414 184.112 250.622 182.376 246.198 182.376C241.774 182.376 239.87 184.112 239.87 188.48V205H233.766V177.672H239.086L239.534 181.032C241.494 178.456 244.406 176.944 248.158 176.944C254.486 176.944 258.574 181.704 258.574 188.592V205H252.414V188.48Z" fill="#FD312E"/>
<path d="M7.52258 274.22C5.36658 274.22 3.78991 273.589 2.79258 272.328C1.80991 271.067 1.31858 269.16 1.31858 266.608C1.31858 263.997 1.82458 262.076 2.83658 260.844C3.86324 259.612 5.42524 258.996 7.52258 258.996C9.63458 258.996 11.1966 259.612 12.2086 260.844C13.2206 262.076 13.7266 263.997 13.7266 266.608C13.7266 269.219 13.2132 271.14 12.1866 272.372C11.1599 273.604 9.60524 274.22 7.52258 274.22ZM12.0326 266.608C12.0326 264.452 11.6586 262.89 10.9106 261.922C10.1772 260.939 9.04791 260.448 7.52258 260.448C5.98258 260.448 4.84591 260.939 4.11258 261.922C3.37924 262.89 3.01258 264.452 3.01258 266.608C3.01258 268.779 3.37924 270.355 4.11258 271.338C4.84591 272.306 5.98258 272.79 7.52258 272.79C9.04791 272.79 10.1772 272.306 10.9106 271.338C11.6586 270.355 12.0326 268.779 12.0326 266.608ZM23.3839 272.944C22.8852 273.34 22.3352 273.655 21.7339 273.89C21.1326 274.11 20.5019 274.22 19.8419 274.22C18.6099 274.22 17.7226 273.927 17.1799 273.34C16.6372 272.753 16.3659 271.793 16.3659 270.458V263.352H18.0599V269.996C18.0599 271.052 18.2286 271.785 18.5659 272.196C18.9179 272.607 19.4532 272.812 20.1719 272.812C21.1986 272.812 22.2179 272.438 23.2299 271.69V263.352H24.9239V274H23.6479L23.3839 272.944ZM29.3555 263.352L29.5535 264.76C30.0375 264.232 30.5802 263.829 31.1815 263.55C31.7828 263.271 32.3915 263.132 33.0075 263.132C33.2568 263.132 33.4695 263.154 33.6455 263.198C33.8362 263.227 34.0342 263.279 34.2395 263.352V264.848C33.7995 264.672 33.3375 264.584 32.8535 264.584C32.2962 264.584 31.7388 264.738 31.1815 265.046C30.6242 265.354 30.1475 265.743 29.7515 266.212V274H28.0795V263.352H29.3555ZM48.9682 263.352L50.6622 269.358L51.3662 271.998H51.4102L51.9602 269.358L53.3462 263.352H55.0182L52.2022 274H50.5742L49.2982 269.358L48.2202 265.464H48.1762L47.1202 269.358L45.8222 274H44.2162L41.3782 263.352H43.0722L44.4362 269.358L45.0082 271.998H45.0522L45.7342 269.358L47.4282 263.352H48.9682ZM58.3226 263.352L58.5206 264.76C59.0046 264.232 59.5473 263.829 60.1486 263.55C60.75 263.271 61.3586 263.132 61.9746 263.132C62.224 263.132 62.4366 263.154 62.6126 263.198C62.8033 263.227 63.0013 263.279 63.2066 263.352V264.848C62.7666 264.672 62.3046 264.584 61.8206 264.584C61.2633 264.584 60.706 264.738 60.1486 265.046C59.5913 265.354 59.1146 265.743 58.7186 266.212V274H57.0466V263.352H58.3226ZM65.1755 263.352H66.8475V274H65.1755V263.352ZM65.1535 258.776H66.8475V260.976H65.1535V258.776ZM72.5967 264.782V270.04C72.5967 270.524 72.6187 270.942 72.6627 271.294C72.7067 271.646 72.7947 271.939 72.9267 272.174C73.0733 272.394 73.2713 272.555 73.5207 272.658C73.7847 272.761 74.1367 272.812 74.5767 272.812C74.8993 272.812 75.2147 272.775 75.5227 272.702C75.8453 272.629 76.1533 272.541 76.4467 272.438L76.7767 273.714C75.8967 274.051 75.0093 274.22 74.1147 274.22C73.4693 274.22 72.934 274.132 72.5087 273.956C72.098 273.78 71.768 273.538 71.5187 273.23C71.284 272.907 71.1227 272.526 71.0347 272.086C70.9467 271.631 70.9027 271.133 70.9027 270.59V264.782H69.1647V263.352H70.9027V261.108L72.5967 260.8V263.352H76.3587V264.782H72.5967ZM79.123 263.352H80.795V274H79.123V263.352ZM79.101 258.776H80.795V260.976H79.101V258.776ZM85.7082 264.43C86.2068 264.034 86.7568 263.719 87.3582 263.484C87.9595 263.249 88.5902 263.132 89.2502 263.132C90.4822 263.132 91.3622 263.433 91.8902 264.034C92.4328 264.621 92.7042 265.581 92.7042 266.916V274H91.0322V267.378C91.0322 266.322 90.8562 265.589 90.5042 265.178C90.1668 264.767 89.6388 264.562 88.9202 264.562C87.8935 264.562 86.8668 264.936 85.8402 265.684V274H84.1682V263.352H85.4222L85.7082 264.43ZM104.155 263.352V274.132C104.155 275.76 103.759 276.941 102.967 277.674C102.189 278.422 101.023 278.796 99.4688 278.796C98.8528 278.796 98.2662 278.745 97.7088 278.642C97.1515 278.554 96.6602 278.429 96.2348 278.268L96.5868 276.882C97.4228 277.205 98.3762 277.366 99.4468 277.366C100.503 277.366 101.265 277.124 101.735 276.64C102.219 276.156 102.461 275.364 102.461 274.264V273.164C102.094 273.501 101.647 273.765 101.119 273.956C100.605 274.132 100.041 274.22 99.4248 274.22C98.0462 274.22 96.9975 273.773 96.2788 272.878C95.5748 271.983 95.2228 270.583 95.2228 268.676C95.2228 266.784 95.5895 265.391 96.3228 264.496C97.0562 263.587 98.1488 263.132 99.6008 263.132C100.217 263.132 100.781 263.235 101.295 263.44C101.808 263.645 102.255 263.924 102.637 264.276L102.901 263.352H104.155ZM99.8648 264.54C98.8528 264.54 98.1048 264.863 97.6208 265.508C97.1515 266.153 96.9168 267.209 96.9168 268.676C96.9168 270.157 97.1515 271.221 97.6208 271.866C98.1048 272.511 98.8528 272.834 99.8648 272.834C100.378 272.834 100.855 272.731 101.295 272.526C101.749 272.321 102.138 272.042 102.461 271.69V265.684C102.138 265.332 101.749 265.053 101.295 264.848C100.855 264.643 100.378 264.54 99.8648 264.54ZM113.807 263.352H115.479V274H113.807V263.352ZM113.785 258.776H115.479V260.976H113.785V258.776ZM121.426 267.4C121.764 267.532 122.182 267.679 122.68 267.84C123.194 268.001 123.7 268.177 124.198 268.368C125.621 268.896 126.332 269.842 126.332 271.206C126.332 272.174 125.995 272.922 125.32 273.45C124.646 273.978 123.56 274.242 122.064 274.242C121.228 274.242 120.517 274.147 119.93 273.956C119.344 273.765 118.816 273.538 118.346 273.274L118.896 271.954C119.322 272.203 119.806 272.416 120.348 272.592C120.891 272.768 121.47 272.856 122.086 272.856C123.025 272.856 123.685 272.731 124.066 272.482C124.448 272.218 124.638 271.822 124.638 271.294C124.638 270.59 124.22 270.069 123.384 269.732C122.915 269.541 122.424 269.365 121.91 269.204C121.412 269.043 120.935 268.881 120.48 268.72C119.894 268.515 119.424 268.199 119.072 267.774C118.735 267.334 118.566 266.762 118.566 266.058C118.566 265.207 118.896 264.503 119.556 263.946C120.231 263.389 121.236 263.11 122.57 263.11C123.274 263.11 123.905 263.183 124.462 263.33C125.02 263.462 125.489 263.623 125.87 263.814L125.364 265.09C124.939 264.885 124.514 264.738 124.088 264.65C123.663 264.547 123.142 264.496 122.526 264.496C122.086 264.496 121.72 264.54 121.426 264.628C121.133 264.716 120.898 264.833 120.722 264.98C120.561 265.112 120.444 265.266 120.37 265.442C120.297 265.618 120.26 265.794 120.26 265.97C120.26 266.322 120.348 266.608 120.524 266.828C120.7 267.048 121.001 267.239 121.426 267.4ZM137.715 267.4C138.053 267.532 138.471 267.679 138.969 267.84C139.483 268.001 139.989 268.177 140.487 268.368C141.91 268.896 142.621 269.842 142.621 271.206C142.621 272.174 142.284 272.922 141.609 273.45C140.935 273.978 139.849 274.242 138.353 274.242C137.517 274.242 136.806 274.147 136.219 273.956C135.633 273.765 135.105 273.538 134.635 273.274L135.185 271.954C135.611 272.203 136.095 272.416 136.637 272.592C137.18 272.768 137.759 272.856 138.375 272.856C139.314 272.856 139.974 272.731 140.355 272.482C140.737 272.218 140.927 271.822 140.927 271.294C140.927 270.59 140.509 270.069 139.673 269.732C139.204 269.541 138.713 269.365 138.199 269.204C137.701 269.043 137.224 268.881 136.769 268.72C136.183 268.515 135.713 268.199 135.361 267.774C135.024 267.334 134.855 266.762 134.855 266.058C134.855 265.207 135.185 264.503 135.845 263.946C136.52 263.389 137.525 263.11 138.859 263.11C139.563 263.11 140.194 263.183 140.751 263.33C141.309 263.462 141.778 263.623 142.159 263.814L141.653 265.09C141.228 264.885 140.803 264.738 140.377 264.65C139.952 264.547 139.431 264.496 138.815 264.496C138.375 264.496 138.009 264.54 137.715 264.628C137.422 264.716 137.187 264.833 137.011 264.98C136.85 265.112 136.733 265.266 136.659 265.442C136.586 265.618 136.549 265.794 136.549 265.97C136.549 266.322 136.637 266.608 136.813 266.828C136.989 267.048 137.29 267.239 137.715 267.4ZM147.553 264.782V270.04C147.553 270.524 147.575 270.942 147.619 271.294C147.663 271.646 147.751 271.939 147.883 272.174C148.029 272.394 148.227 272.555 148.477 272.658C148.741 272.761 149.093 272.812 149.533 272.812C149.855 272.812 150.171 272.775 150.479 272.702C150.801 272.629 151.109 272.541 151.403 272.438L151.733 273.714C150.853 274.051 149.965 274.22 149.071 274.22C148.425 274.22 147.89 274.132 147.465 273.956C147.054 273.78 146.724 273.538 146.475 273.23C146.24 272.907 146.079 272.526 145.991 272.086C145.903 271.631 145.859 271.133 145.859 270.59V264.782H144.121V263.352H145.859V261.108L147.553 260.8V263.352H151.315V264.782H147.553ZM152.756 263.352H154.516L157.596 271.69H157.662L160.544 263.352H162.282L157.97 275.364C157.75 276.009 157.508 276.545 157.244 276.97C156.98 277.41 156.68 277.762 156.342 278.026C156.02 278.305 155.646 278.503 155.22 278.62C154.81 278.737 154.333 278.796 153.79 278.796C153.38 278.796 153.057 278.752 152.822 278.664L153.064 277.278C153.299 277.337 153.585 277.366 153.922 277.366C154.23 277.366 154.502 277.315 154.736 277.212C154.986 277.109 155.198 276.977 155.374 276.816C155.565 276.655 155.726 276.471 155.858 276.266C155.99 276.061 156.1 275.848 156.188 275.628L156.848 273.868L152.756 263.352ZM167.165 274.154C167.091 274.183 166.989 274.198 166.857 274.198C166.725 274.213 166.615 274.22 166.527 274.22C165.779 274.22 165.236 274 164.899 273.56C164.576 273.105 164.415 272.416 164.415 271.492V258.732L166.087 258.468V271.25C166.087 271.587 166.101 271.859 166.131 272.064C166.16 272.269 166.211 272.431 166.285 272.548C166.373 272.665 166.483 272.746 166.615 272.79C166.761 272.819 166.945 272.834 167.165 272.834V274.154ZM169.853 263.352H171.525V274H169.853V263.352ZM169.831 258.776H171.525V260.976H169.831V258.776ZM182.796 264.562L176.306 272.592H182.862V274H174.106V272.856L180.618 264.782H174.414V263.352H182.796V264.562ZM189.223 274.22C187.492 274.22 186.26 273.773 185.527 272.878C184.808 271.969 184.449 270.568 184.449 268.676C184.449 266.769 184.815 265.369 185.549 264.474C186.282 263.579 187.404 263.132 188.915 263.132C190.425 263.132 191.547 263.572 192.281 264.452C193.014 265.317 193.381 266.696 193.381 268.588V269.292H186.165C186.223 270.553 186.495 271.455 186.979 271.998C187.463 272.541 188.218 272.812 189.245 272.812C189.861 272.812 190.462 272.724 191.049 272.548C191.65 272.357 192.207 272.101 192.721 271.778L193.271 273.12C192.713 273.457 192.083 273.729 191.379 273.934C190.689 274.125 189.971 274.22 189.223 274.22ZM191.665 267.928C191.591 266.784 191.335 265.941 190.895 265.398C190.455 264.841 189.795 264.562 188.915 264.562C188.035 264.562 187.375 264.841 186.935 265.398C186.495 265.941 186.238 266.784 186.165 267.928H191.665ZM204.469 258.468V274H203.215L202.951 273.098C202.569 273.45 202.122 273.729 201.609 273.934C201.095 274.125 200.531 274.22 199.915 274.22C198.463 274.22 197.37 273.773 196.637 272.878C195.903 271.983 195.537 270.583 195.537 268.676C195.537 266.784 195.889 265.391 196.593 264.496C197.311 263.587 198.36 263.132 199.739 263.132C200.355 263.132 200.919 263.227 201.433 263.418C201.961 263.609 202.408 263.873 202.775 264.21V258.688L204.469 258.468ZM200.179 272.834C200.692 272.834 201.169 272.731 201.609 272.526C202.063 272.321 202.452 272.042 202.775 271.69V265.684C202.452 265.332 202.063 265.053 201.609 264.848C201.169 264.643 200.692 264.54 200.179 264.54C199.167 264.54 198.419 264.863 197.935 265.508C197.465 266.153 197.231 267.209 197.231 268.676C197.231 270.157 197.465 271.221 197.935 271.866C198.419 272.511 199.167 272.834 200.179 272.834ZM219.929 263.352V264.782H216.123V274H214.451V264.782H212.823V263.352H214.429V262.494C214.429 261.746 214.509 261.115 214.671 260.602C214.847 260.089 215.096 259.678 215.419 259.37C215.741 259.047 216.13 258.82 216.585 258.688C217.054 258.541 217.589 258.468 218.191 258.468C218.601 258.468 218.99 258.512 219.357 258.6C219.723 258.673 220.061 258.769 220.369 258.886L219.995 260.25C219.379 260.015 218.77 259.898 218.169 259.898C217.465 259.898 216.944 260.118 216.607 260.558C216.284 260.998 216.123 261.731 216.123 262.758V263.352H219.929ZM221.152 268.676C221.152 266.769 221.534 265.369 222.296 264.474C223.074 263.579 224.306 263.132 225.992 263.132C227.664 263.132 228.882 263.579 229.644 264.474C230.422 265.369 230.81 266.769 230.81 268.676C230.81 270.583 230.422 271.983 229.644 272.878C228.867 273.773 227.65 274.22 225.992 274.22C224.32 274.22 223.096 273.773 222.318 272.878C221.541 271.983 221.152 270.583 221.152 268.676ZM222.846 268.676C222.846 270.128 223.096 271.184 223.594 271.844C224.093 272.489 224.892 272.812 225.992 272.812C227.092 272.812 227.892 272.489 228.39 271.844C228.889 271.184 229.138 270.128 229.138 268.676C229.138 267.253 228.889 266.212 228.39 265.552C227.892 264.892 227.092 264.562 225.992 264.562C224.892 264.562 224.093 264.892 223.594 265.552C223.096 266.212 222.846 267.253 222.846 268.676ZM234.731 263.352L234.929 264.76C235.413 264.232 235.956 263.829 236.557 263.55C237.159 263.271 237.767 263.132 238.383 263.132C238.633 263.132 238.845 263.154 239.021 263.198C239.212 263.227 239.41 263.279 239.615 263.352V264.848C239.175 264.672 238.713 264.584 238.229 264.584C237.672 264.584 237.115 264.738 236.557 265.046C236 265.354 235.523 265.743 235.127 266.212V274H233.455V263.352H234.731ZM249.13 263.352L249.328 264.76C249.812 264.232 250.355 263.829 250.956 263.55C251.557 263.271 252.166 263.132 252.782 263.132C253.031 263.132 253.244 263.154 253.42 263.198C253.611 263.227 253.809 263.279 254.014 263.352V264.848C253.574 264.672 253.112 264.584 252.628 264.584C252.071 264.584 251.513 264.738 250.956 265.046C250.399 265.354 249.922 265.743 249.526 266.212V274H247.854V263.352H249.13ZM259.837 274.22C258.106 274.22 256.874 273.773 256.141 272.878C255.422 271.969 255.063 270.568 255.063 268.676C255.063 266.769 255.429 265.369 256.163 264.474C256.896 263.579 258.018 263.132 259.529 263.132C261.039 263.132 262.161 263.572 262.895 264.452C263.628 265.317 263.995 266.696 263.995 268.588V269.292H256.779C256.837 270.553 257.109 271.455 257.593 271.998C258.077 272.541 258.832 272.812 259.859 272.812C260.475 272.812 261.076 272.724 261.663 272.548C262.264 272.357 262.821 272.101 263.335 271.778L263.885 273.12C263.327 273.457 262.697 273.729 261.993 273.934C261.303 274.125 260.585 274.22 259.837 274.22ZM262.279 267.928C262.205 266.784 261.949 265.941 261.509 265.398C261.069 264.841 260.409 264.562 259.529 264.562C258.649 264.562 257.989 264.841 257.549 265.398C257.109 265.941 256.852 266.784 256.779 267.928H262.279ZM274.401 274H273.147L272.883 273.01C272.443 273.391 271.922 273.692 271.321 273.912C270.734 274.117 270.089 274.22 269.385 274.22C268.285 274.22 267.456 273.941 266.899 273.384C266.356 272.812 266.085 271.998 266.085 270.942C266.085 269.857 266.422 269.057 267.097 268.544C267.771 268.016 268.901 267.752 270.485 267.752C270.954 267.752 271.365 267.759 271.717 267.774C272.083 267.789 272.421 267.818 272.729 267.862V267.268C272.729 266.285 272.538 265.589 272.157 265.178C271.775 264.753 271.101 264.54 270.133 264.54C269.678 264.54 269.179 264.621 268.637 264.782C268.109 264.929 267.573 265.149 267.031 265.442L266.525 264.166C267.111 263.843 267.735 263.594 268.395 263.418C269.055 263.227 269.737 263.132 270.441 263.132C271.189 263.132 271.812 263.205 272.311 263.352C272.824 263.499 273.235 263.741 273.543 264.078C273.851 264.401 274.071 264.819 274.203 265.332C274.335 265.845 274.401 266.476 274.401 267.224V274ZM269.847 272.834C270.331 272.834 270.829 272.731 271.343 272.526C271.871 272.306 272.333 272.02 272.729 271.668V269.226C272.347 269.182 271.966 269.153 271.585 269.138C271.203 269.109 270.778 269.094 270.309 269.094C269.385 269.094 268.725 269.233 268.329 269.512C267.947 269.791 267.757 270.26 267.757 270.92C267.757 271.551 267.918 272.027 268.241 272.35C268.563 272.673 269.099 272.834 269.847 272.834ZM285.849 258.468V274H284.595L284.331 273.098C283.949 273.45 283.502 273.729 282.989 273.934C282.475 274.125 281.911 274.22 281.295 274.22C279.843 274.22 278.75 273.773 278.017 272.878C277.283 271.983 276.917 270.583 276.917 268.676C276.917 266.784 277.269 265.391 277.973 264.496C278.691 263.587 279.74 263.132 281.119 263.132C281.735 263.132 282.299 263.227 282.813 263.418C283.341 263.609 283.788 263.873 284.155 264.21V258.688L285.849 258.468ZM281.559 272.834C282.072 272.834 282.549 272.731 282.989 272.526C283.443 272.321 283.832 272.042 284.155 271.69V265.684C283.832 265.332 283.443 265.053 282.989 264.848C282.549 264.643 282.072 264.54 281.559 264.54C280.547 264.54 279.799 264.863 279.315 265.508C278.845 266.153 278.611 267.209 278.611 268.676C278.611 270.157 278.845 271.221 279.315 271.866C279.799 272.511 280.547 272.834 281.559 272.834ZM296.749 274H295.495L295.231 273.01C294.791 273.391 294.27 273.692 293.669 273.912C293.082 274.117 292.437 274.22 291.733 274.22C290.633 274.22 289.804 273.941 289.247 273.384C288.704 272.812 288.433 271.998 288.433 270.942C288.433 269.857 288.77 269.057 289.445 268.544C290.119 268.016 291.249 267.752 292.833 267.752C293.302 267.752 293.713 267.759 294.065 267.774C294.431 267.789 294.769 267.818 295.077 267.862V267.268C295.077 266.285 294.886 265.589 294.505 265.178C294.123 264.753 293.449 264.54 292.481 264.54C292.026 264.54 291.527 264.621 290.985 264.782C290.457 264.929 289.921 265.149 289.379 265.442L288.873 264.166C289.459 263.843 290.083 263.594 290.743 263.418C291.403 263.227 292.085 263.132 292.789 263.132C293.537 263.132 294.16 263.205 294.659 263.352C295.172 263.499 295.583 263.741 295.891 264.078C296.199 264.401 296.419 264.819 296.551 265.332C296.683 265.845 296.749 266.476 296.749 267.224V274ZM292.195 272.834C292.679 272.834 293.177 272.731 293.691 272.526C294.219 272.306 294.681 272.02 295.077 271.668V269.226C294.695 269.182 294.314 269.153 293.933 269.138C293.551 269.109 293.126 269.094 292.657 269.094C291.733 269.094 291.073 269.233 290.677 269.512C290.295 269.791 290.105 270.26 290.105 270.92C290.105 271.551 290.266 272.027 290.589 272.35C290.911 272.673 291.447 272.834 292.195 272.834ZM304.06 272.834C305.072 272.834 305.82 272.511 306.304 271.866C306.788 271.221 307.03 270.157 307.03 268.676C307.03 267.209 306.788 266.153 306.304 265.508C305.82 264.863 305.072 264.54 304.06 264.54C303.547 264.54 303.063 264.643 302.608 264.848C302.168 265.053 301.787 265.332 301.464 265.684V271.69C301.787 272.042 302.168 272.321 302.608 272.526C303.063 272.731 303.547 272.834 304.06 272.834ZM301.024 274H299.77V258.666L301.464 258.468V264.21C301.831 263.873 302.271 263.609 302.784 263.418C303.312 263.227 303.884 263.132 304.5 263.132C305.879 263.132 306.92 263.587 307.624 264.496C308.343 265.391 308.702 266.784 308.702 268.676C308.702 270.583 308.336 271.983 307.602 272.878C306.869 273.773 305.776 274.22 304.324 274.22C303.708 274.22 303.144 274.125 302.63 273.934C302.132 273.729 301.692 273.45 301.31 273.098L301.024 274ZM311.595 263.352H313.267V274H311.595V263.352ZM311.573 258.776H313.267V260.976H311.573V258.776ZM319.61 274.154C319.536 274.183 319.434 274.198 319.302 274.198C319.17 274.213 319.06 274.22 318.972 274.22C318.224 274.22 317.681 274 317.344 273.56C317.021 273.105 316.86 272.416 316.86 271.492V258.732L318.532 258.468V271.25C318.532 271.587 318.546 271.859 318.576 272.064C318.605 272.269 318.656 272.431 318.73 272.548C318.818 272.665 318.928 272.746 319.06 272.79C319.206 272.819 319.39 272.834 319.61 272.834V274.154ZM322.298 263.352H323.97V274H322.298V263.352ZM322.276 258.776H323.97V260.976H322.276V258.776ZM329.719 264.782V270.04C329.719 270.524 329.741 270.942 329.785 271.294C329.829 271.646 329.917 271.939 330.049 272.174C330.196 272.394 330.394 272.555 330.643 272.658C330.907 272.761 331.259 272.812 331.699 272.812C332.022 272.812 332.337 272.775 332.645 272.702C332.968 272.629 333.276 272.541 333.569 272.438L333.899 273.714C333.019 274.051 332.132 274.22 331.237 274.22C330.592 274.22 330.056 274.132 329.631 273.956C329.22 273.78 328.89 273.538 328.641 273.23C328.406 272.907 328.245 272.526 328.157 272.086C328.069 271.631 328.025 271.133 328.025 270.59V264.782H326.287V263.352H328.025V261.108L329.719 260.8V263.352H333.481V264.782H329.719ZM334.923 263.352H336.683L339.763 271.69H339.829L342.711 263.352H344.449L340.137 275.364C339.917 276.009 339.675 276.545 339.411 276.97C339.147 277.41 338.846 277.762 338.509 278.026C338.186 278.305 337.812 278.503 337.387 278.62C336.976 278.737 336.499 278.796 335.957 278.796C335.546 278.796 335.223 278.752 334.989 278.664L335.231 277.278C335.465 277.337 335.751 277.366 336.089 277.366C336.397 277.366 336.668 277.315 336.903 277.212C337.152 277.109 337.365 276.977 337.541 276.816C337.731 276.655 337.893 276.471 338.025 276.266C338.157 276.061 338.267 275.848 338.355 275.628L339.015 273.868L334.923 263.352ZM343.474 276.86C343.826 276.185 344.097 275.518 344.288 274.858C344.479 274.198 344.574 273.45 344.574 272.614H346.224C346.224 273.142 346.187 273.626 346.114 274.066C346.041 274.521 345.938 274.939 345.806 275.32C345.674 275.716 345.513 276.09 345.322 276.442C345.131 276.809 344.911 277.175 344.662 277.542L343.474 276.86ZM23.154 304.154C23.0807 304.183 22.978 304.198 22.846 304.198C22.714 304.213 22.604 304.22 22.516 304.22C21.768 304.22 21.2253 304 20.888 303.56C20.5653 303.105 20.404 302.416 20.404 301.492V288.732L22.076 288.468V301.25C22.076 301.587 22.0907 301.859 22.12 302.064C22.1493 302.269 22.2007 302.431 22.274 302.548C22.362 302.665 22.472 302.746 22.604 302.79C22.7507 302.819 22.934 302.834 23.154 302.834V304.154ZM29.8681 304.22C28.1375 304.22 26.9055 303.773 26.1721 302.878C25.4535 301.969 25.0941 300.568 25.0941 298.676C25.0941 296.769 25.4608 295.369 26.1941 294.474C26.9275 293.579 28.0495 293.132 29.5601 293.132C31.0708 293.132 32.1928 293.572 32.9261 294.452C33.6595 295.317 34.0261 296.696 34.0261 298.588V299.292H26.8101C26.8688 300.553 27.1401 301.455 27.6241 301.998C28.1081 302.541 28.8635 302.812 29.8901 302.812C30.5061 302.812 31.1075 302.724 31.6941 302.548C32.2955 302.357 32.8528 302.101 33.3661 301.778L33.9161 303.12C33.3588 303.457 32.7281 303.729 32.0241 303.934C31.3348 304.125 30.6161 304.22 29.8681 304.22ZM32.3101 297.928C32.2368 296.784 31.9801 295.941 31.5401 295.398C31.1001 294.841 30.4401 294.562 29.5601 294.562C28.6801 294.562 28.0201 294.841 27.5801 295.398C27.1401 295.941 26.8835 296.784 26.8101 297.928H32.3101ZM45.1141 293.352V304.132C45.1141 305.76 44.7181 306.941 43.9261 307.674C43.1488 308.422 41.9828 308.796 40.4281 308.796C39.8121 308.796 39.2255 308.745 38.6681 308.642C38.1108 308.554 37.6195 308.429 37.1941 308.268L37.5461 306.882C38.3821 307.205 39.3355 307.366 40.4061 307.366C41.4621 307.366 42.2248 307.124 42.6941 306.64C43.1781 306.156 43.4201 305.364 43.4201 304.264V303.164C43.0535 303.501 42.6061 303.765 42.0781 303.956C41.5648 304.132 41.0001 304.22 40.3841 304.22C39.0055 304.22 37.9568 303.773 37.2381 302.878C36.5341 301.983 36.1821 300.583 36.1821 298.676C36.1821 296.784 36.5488 295.391 37.2821 294.496C38.0155 293.587 39.1081 293.132 40.5601 293.132C41.1761 293.132 41.7408 293.235 42.2541 293.44C42.7675 293.645 43.2148 293.924 43.5961 294.276L43.8601 293.352H45.1141ZM40.8241 294.54C39.8121 294.54 39.0641 294.863 38.5801 295.508C38.1108 296.153 37.8761 297.209 37.8761 298.676C37.8761 300.157 38.1108 301.221 38.5801 301.866C39.0641 302.511 39.8121 302.834 40.8241 302.834C41.3375 302.834 41.8141 302.731 42.2541 302.526C42.7088 302.321 43.0975 302.042 43.4201 301.69V295.684C43.0975 295.332 42.7088 295.053 42.2541 294.848C41.8141 294.643 41.3375 294.54 40.8241 294.54ZM48.5123 293.352H50.1843V304H48.5123V293.352ZM48.4903 288.776H50.1843V290.976H48.4903V288.776ZM57.8475 302.834C58.8595 302.834 59.6075 302.511 60.0915 301.866C60.5755 301.221 60.8175 300.157 60.8175 298.676C60.8175 297.209 60.5755 296.153 60.0915 295.508C59.6075 294.863 58.8595 294.54 57.8475 294.54C57.3342 294.54 56.8502 294.643 56.3955 294.848C55.9555 295.053 55.5742 295.332 55.2515 295.684V301.69C55.5742 302.042 55.9555 302.321 56.3955 302.526C56.8502 302.731 57.3342 302.834 57.8475 302.834ZM54.8115 304H53.5575V288.666L55.2515 288.468V294.21C55.6182 293.873 56.0582 293.609 56.5715 293.418C57.0995 293.227 57.6715 293.132 58.2875 293.132C59.6662 293.132 60.7075 293.587 61.4115 294.496C62.1302 295.391 62.4895 296.784 62.4895 298.676C62.4895 300.583 62.1228 301.983 61.3895 302.878C60.6562 303.773 59.5635 304.22 58.1115 304.22C57.4955 304.22 56.9308 304.125 56.4175 303.934C55.9188 303.729 55.4788 303.45 55.0975 303.098L54.8115 304ZM65.3816 293.352H67.0536V304H65.3816V293.352ZM65.3596 288.776H67.0536V290.976H65.3596V288.776ZM73.3968 304.154C73.3235 304.183 73.2208 304.198 73.0888 304.198C72.9568 304.213 72.8468 304.22 72.7588 304.22C72.0108 304.22 71.4682 304 71.1308 303.56C70.8082 303.105 70.6468 302.416 70.6468 301.492V288.732L72.3188 288.468V301.25C72.3188 301.587 72.3335 301.859 72.3628 302.064C72.3922 302.269 72.4435 302.431 72.5168 302.548C72.6048 302.665 72.7148 302.746 72.8468 302.79C72.9935 302.819 73.1768 302.834 73.3968 302.834V304.154ZM76.085 293.352H77.757V304H76.085V293.352ZM76.063 288.776H77.757V290.976H76.063V288.776ZM83.5062 294.782V300.04C83.5062 300.524 83.5282 300.942 83.5722 301.294C83.6162 301.646 83.7042 301.939 83.8362 302.174C83.9828 302.394 84.1808 302.555 84.4302 302.658C84.6942 302.761 85.0462 302.812 85.4862 302.812C85.8088 302.812 86.1242 302.775 86.4322 302.702C86.7548 302.629 87.0628 302.541 87.3562 302.438L87.6862 303.714C86.8062 304.051 85.9188 304.22 85.0242 304.22C84.3788 304.22 83.8435 304.132 83.4182 303.956C83.0075 303.78 82.6775 303.538 82.4282 303.23C82.1935 302.907 82.0322 302.526 81.9442 302.086C81.8562 301.631 81.8122 301.133 81.8122 300.59V294.782H80.0742V293.352H81.8122V291.108L83.5062 290.8V293.352H87.2682V294.782H83.5062ZM88.7099 293.352H90.4699L93.5499 301.69H93.6159L96.4979 293.352H98.2359L93.9239 305.364C93.7039 306.009 93.4619 306.545 93.1979 306.97C92.9339 307.41 92.6332 307.762 92.2959 308.026C91.9732 308.305 91.5992 308.503 91.1739 308.62C90.7632 308.737 90.2865 308.796 89.7439 308.796C89.3332 308.796 89.0105 308.752 88.7759 308.664L89.0179 307.278C89.2525 307.337 89.5385 307.366 89.8759 307.366C90.1839 307.366 90.4552 307.315 90.6899 307.212C90.9392 307.109 91.1519 306.977 91.3279 306.816C91.5185 306.655 91.6799 306.471 91.8119 306.266C91.9439 306.061 92.0539 305.848 92.1419 305.628L92.8019 303.868L88.7099 293.352ZM97.2612 306.86C97.6132 306.185 97.8845 305.518 98.0752 304.858C98.2658 304.198 98.3612 303.45 98.3612 302.614H100.011C100.011 303.142 99.9745 303.626 99.9012 304.066C99.8278 304.521 99.7252 304.939 99.5932 305.32C99.4612 305.716 99.2998 306.09 99.1092 306.442C98.9185 306.809 98.6985 307.175 98.4492 307.542L97.2612 306.86ZM116.963 304H115.709L115.445 303.01C115.005 303.391 114.484 303.692 113.883 303.912C113.296 304.117 112.651 304.22 111.947 304.22C110.847 304.22 110.018 303.941 109.461 303.384C108.918 302.812 108.647 301.998 108.647 300.942C108.647 299.857 108.984 299.057 109.659 298.544C110.333 298.016 111.463 297.752 113.047 297.752C113.516 297.752 113.927 297.759 114.279 297.774C114.645 297.789 114.983 297.818 115.291 297.862V297.268C115.291 296.285 115.1 295.589 114.719 295.178C114.337 294.753 113.663 294.54 112.695 294.54C112.24 294.54 111.741 294.621 111.199 294.782C110.671 294.929 110.135 295.149 109.593 295.442L109.087 294.166C109.673 293.843 110.297 293.594 110.957 293.418C111.617 293.227 112.299 293.132 113.003 293.132C113.751 293.132 114.374 293.205 114.873 293.352C115.386 293.499 115.797 293.741 116.105 294.078C116.413 294.401 116.633 294.819 116.765 295.332C116.897 295.845 116.963 296.476 116.963 297.224V304ZM112.409 302.834C112.893 302.834 113.391 302.731 113.905 302.526C114.433 302.306 114.895 302.02 115.291 301.668V299.226C114.909 299.182 114.528 299.153 114.147 299.138C113.765 299.109 113.34 299.094 112.871 299.094C111.947 299.094 111.287 299.233 110.891 299.512C110.509 299.791 110.319 300.26 110.319 300.92C110.319 301.551 110.48 302.027 110.803 302.35C111.125 302.673 111.661 302.834 112.409 302.834ZM121.524 294.43C122.023 294.034 122.573 293.719 123.174 293.484C123.776 293.249 124.406 293.132 125.066 293.132C126.298 293.132 127.178 293.433 127.706 294.034C128.249 294.621 128.52 295.581 128.52 296.916V304H126.848V297.378C126.848 296.322 126.672 295.589 126.32 295.178C125.983 294.767 125.455 294.562 124.736 294.562C123.71 294.562 122.683 294.936 121.656 295.684V304H119.984V293.352H121.238L121.524 294.43ZM139.971 288.468V304H138.717L138.453 303.098C138.072 303.45 137.624 303.729 137.111 303.934C136.598 304.125 136.033 304.22 135.417 304.22C133.965 304.22 132.872 303.773 132.139 302.878C131.406 301.983 131.039 300.583 131.039 298.676C131.039 296.784 131.391 295.391 132.095 294.496C132.814 293.587 133.862 293.132 135.241 293.132C135.857 293.132 136.422 293.227 136.935 293.418C137.463 293.609 137.91 293.873 138.277 294.21V288.688L139.971 288.468ZM135.681 302.834C136.194 302.834 136.671 302.731 137.111 302.526C137.566 302.321 137.954 302.042 138.277 301.69V295.684C137.954 295.332 137.566 295.053 137.111 294.848C136.671 294.643 136.194 294.54 135.681 294.54C134.669 294.54 133.921 294.863 133.437 295.508C132.968 296.153 132.733 297.209 132.733 298.676C132.733 300.157 132.968 301.221 133.437 301.866C133.921 302.511 134.669 302.834 135.681 302.834ZM157.807 288.468V304H156.553L156.289 303.098C155.908 303.45 155.46 303.729 154.947 303.934C154.434 304.125 153.869 304.22 153.253 304.22C151.801 304.22 150.708 303.773 149.975 302.878C149.242 301.983 148.875 300.583 148.875 298.676C148.875 296.784 149.227 295.391 149.931 294.496C150.65 293.587 151.698 293.132 153.077 293.132C153.693 293.132 154.258 293.227 154.771 293.418C155.299 293.609 155.746 293.873 156.113 294.21V288.688L157.807 288.468ZM153.517 302.834C154.03 302.834 154.507 302.731 154.947 302.526C155.402 302.321 155.79 302.042 156.113 301.69V295.684C155.79 295.332 155.402 295.053 154.947 294.848C154.507 294.643 154.03 294.54 153.517 294.54C152.505 294.54 151.757 294.863 151.273 295.508C150.804 296.153 150.569 297.209 150.569 298.676C150.569 300.157 150.804 301.221 151.273 301.866C151.757 302.511 152.505 302.834 153.517 302.834ZM161.205 293.352H162.877V304H161.205V293.352ZM161.183 288.776H162.877V290.976H161.183V288.776ZM174.676 293.352V304.132C174.676 305.76 174.28 306.941 173.488 307.674C172.711 308.422 171.545 308.796 169.99 308.796C169.374 308.796 168.788 308.745 168.23 308.642C167.673 308.554 167.182 308.429 166.756 308.268L167.108 306.882C167.944 307.205 168.898 307.366 169.968 307.366C171.024 307.366 171.787 307.124 172.256 306.64C172.74 306.156 172.982 305.364 172.982 304.264V303.164C172.616 303.501 172.168 303.765 171.64 303.956C171.127 304.132 170.562 304.22 169.946 304.22C168.568 304.22 167.519 303.773 166.8 302.878C166.096 301.983 165.744 300.583 165.744 298.676C165.744 296.784 166.111 295.391 166.844 294.496C167.578 293.587 168.67 293.132 170.122 293.132C170.738 293.132 171.303 293.235 171.816 293.44C172.33 293.645 172.777 293.924 173.158 294.276L173.422 293.352H174.676ZM170.386 294.54C169.374 294.54 168.626 294.863 168.142 295.508C167.673 296.153 167.438 297.209 167.438 298.676C167.438 300.157 167.673 301.221 168.142 301.866C168.626 302.511 169.374 302.834 170.386 302.834C170.9 302.834 171.376 302.731 171.816 302.526C172.271 302.321 172.66 302.042 172.982 301.69V295.684C172.66 295.332 172.271 295.053 171.816 294.848C171.376 294.643 170.9 294.54 170.386 294.54ZM178.075 293.352H179.747V304H178.075V293.352ZM178.053 288.776H179.747V290.976H178.053V288.776ZM185.496 294.782V300.04C185.496 300.524 185.518 300.942 185.562 301.294C185.606 301.646 185.694 301.939 185.826 302.174C185.972 302.394 186.17 302.555 186.42 302.658C186.684 302.761 187.036 302.812 187.476 302.812C187.798 302.812 188.114 302.775 188.422 302.702C188.744 302.629 189.052 302.541 189.346 302.438L189.676 303.714C188.796 304.051 187.908 304.22 187.014 304.22C186.368 304.22 185.833 304.132 185.408 303.956C184.997 303.78 184.667 303.538 184.418 303.23C184.183 302.907 184.022 302.526 183.934 302.086C183.846 301.631 183.802 301.133 183.802 300.59V294.782H182.064V293.352H183.802V291.108L185.496 290.8V293.352H189.258V294.782H185.496ZM199.524 304H198.27L198.006 303.01C197.566 303.391 197.045 303.692 196.444 303.912C195.857 304.117 195.212 304.22 194.508 304.22C193.408 304.22 192.579 303.941 192.022 303.384C191.479 302.812 191.208 301.998 191.208 300.942C191.208 299.857 191.545 299.057 192.22 298.544C192.895 298.016 194.024 297.752 195.608 297.752C196.077 297.752 196.488 297.759 196.84 297.774C197.207 297.789 197.544 297.818 197.852 297.862V297.268C197.852 296.285 197.661 295.589 197.28 295.178C196.899 294.753 196.224 294.54 195.256 294.54C194.801 294.54 194.303 294.621 193.76 294.782C193.232 294.929 192.697 295.149 192.154 295.442L191.648 294.166C192.235 293.843 192.858 293.594 193.518 293.418C194.178 293.227 194.86 293.132 195.564 293.132C196.312 293.132 196.935 293.205 197.434 293.352C197.947 293.499 198.358 293.741 198.666 294.078C198.974 294.401 199.194 294.819 199.326 295.332C199.458 295.845 199.524 296.476 199.524 297.224V304ZM194.97 302.834C195.454 302.834 195.953 302.731 196.466 302.526C196.994 302.306 197.456 302.02 197.852 301.668V299.226C197.471 299.182 197.089 299.153 196.708 299.138C196.327 299.109 195.901 299.094 195.432 299.094C194.508 299.094 193.848 299.233 193.452 299.512C193.071 299.791 192.88 300.26 192.88 300.92C192.88 301.551 193.041 302.027 193.364 302.35C193.687 302.673 194.222 302.834 194.97 302.834ZM205.516 304.154C205.442 304.183 205.34 304.198 205.208 304.198C205.076 304.213 204.966 304.22 204.878 304.22C204.13 304.22 203.587 304 203.25 303.56C202.927 303.105 202.766 302.416 202.766 301.492V288.732L204.438 288.468V301.25C204.438 301.587 204.452 301.859 204.482 302.064C204.511 302.269 204.562 302.431 204.636 302.548C204.724 302.665 204.834 302.746 204.966 302.79C205.112 302.819 205.296 302.834 205.516 302.834V304.154ZM213.71 298.676C213.71 296.769 214.091 295.369 214.854 294.474C215.631 293.579 216.863 293.132 218.55 293.132C220.222 293.132 221.439 293.579 222.202 294.474C222.979 295.369 223.368 296.769 223.368 298.676C223.368 300.583 222.979 301.983 222.202 302.878C221.425 303.773 220.207 304.22 218.55 304.22C216.878 304.22 215.653 303.773 214.876 302.878C214.099 301.983 213.71 300.583 213.71 298.676ZM215.404 298.676C215.404 300.128 215.653 301.184 216.152 301.844C216.651 302.489 217.45 302.812 218.55 302.812C219.65 302.812 220.449 302.489 220.948 301.844C221.447 301.184 221.696 300.128 221.696 298.676C221.696 297.253 221.447 296.212 220.948 295.552C220.449 294.892 219.65 294.562 218.55 294.562C217.45 294.562 216.651 294.892 216.152 295.552C215.653 296.212 215.404 297.253 215.404 298.676ZM227.267 293.352L227.553 294.276C227.934 293.924 228.374 293.645 228.873 293.44C229.386 293.235 229.951 293.132 230.567 293.132C232.019 293.132 233.112 293.587 233.845 294.496C234.578 295.391 234.945 296.784 234.945 298.676C234.945 300.583 234.586 301.983 233.867 302.878C233.163 303.773 232.122 304.22 230.743 304.22C230.156 304.22 229.592 304.132 229.049 303.956C228.506 303.765 228.059 303.501 227.707 303.164V308.576H226.013V293.352H227.267ZM230.303 294.54C229.79 294.54 229.306 294.643 228.851 294.848C228.411 295.053 228.03 295.332 227.707 295.684V301.69C228.03 302.042 228.411 302.321 228.851 302.526C229.306 302.731 229.79 302.834 230.303 302.834C231.315 302.834 232.063 302.511 232.547 301.866C233.031 301.221 233.273 300.157 233.273 298.676C233.273 297.209 233.031 296.153 232.547 295.508C232.063 294.863 231.315 294.54 230.303 294.54ZM239.713 294.782V300.04C239.713 300.524 239.735 300.942 239.779 301.294C239.823 301.646 239.911 301.939 240.043 302.174C240.19 302.394 240.388 302.555 240.637 302.658C240.901 302.761 241.253 302.812 241.693 302.812C242.016 302.812 242.331 302.775 242.639 302.702C242.962 302.629 243.27 302.541 243.563 302.438L243.893 303.714C243.013 304.051 242.126 304.22 241.231 304.22C240.586 304.22 240.051 304.132 239.625 303.956C239.215 303.78 238.885 303.538 238.635 303.23C238.401 302.907 238.239 302.526 238.151 302.086C238.063 301.631 238.019 301.133 238.019 300.59V294.782H236.281V293.352H238.019V291.108L239.713 290.8V293.352H243.475V294.782H239.713ZM246.24 293.352H247.912V304H246.24V293.352ZM246.218 288.776H247.912V290.976H246.218V288.776ZM252.803 294.342C253.316 293.961 253.844 293.667 254.387 293.462C254.929 293.242 255.509 293.132 256.125 293.132C256.873 293.132 257.467 293.242 257.907 293.462C258.361 293.682 258.699 294.049 258.919 294.562C259.432 294.137 259.989 293.792 260.591 293.528C261.207 293.264 261.845 293.132 262.505 293.132C263.121 293.132 263.634 293.205 264.045 293.352C264.455 293.484 264.785 293.704 265.035 294.012C265.299 294.32 265.482 294.716 265.585 295.2C265.687 295.669 265.739 296.241 265.739 296.916V304H264.067V297.378C264.067 296.322 263.92 295.589 263.627 295.178C263.348 294.767 262.871 294.562 262.197 294.562C261.229 294.562 260.253 294.958 259.271 295.75C259.315 296.087 259.337 296.476 259.337 296.916V304H257.665V297.378C257.665 296.337 257.533 295.611 257.269 295.2C257.005 294.775 256.513 294.562 255.795 294.562C255.311 294.562 254.841 294.657 254.387 294.848C253.932 295.024 253.455 295.303 252.957 295.684V304H251.285V293.352H252.539L252.803 294.342ZM268.996 293.352H270.668V304H268.996V293.352ZM268.974 288.776H270.668V290.976H268.974V288.776ZM281.939 294.562L275.449 302.592H282.005V304H273.249V302.856L279.761 294.782H273.557V293.352H281.939V294.562ZM292.099 304H290.845L290.581 303.01C290.141 303.391 289.621 303.692 289.019 303.912C288.433 304.117 287.787 304.22 287.083 304.22C285.983 304.22 285.155 303.941 284.597 303.384C284.055 302.812 283.783 301.998 283.783 300.942C283.783 299.857 284.121 299.057 284.795 298.544C285.47 298.016 286.599 297.752 288.183 297.752C288.653 297.752 289.063 297.759 289.415 297.774C289.782 297.789 290.119 297.818 290.427 297.862V297.268C290.427 296.285 290.237 295.589 289.855 295.178C289.474 294.753 288.799 294.54 287.831 294.54C287.377 294.54 286.878 294.621 286.335 294.782C285.807 294.929 285.272 295.149 284.729 295.442L284.223 294.166C284.81 293.843 285.433 293.594 286.093 293.418C286.753 293.227 287.435 293.132 288.139 293.132C288.887 293.132 289.511 293.205 290.009 293.352C290.523 293.499 290.933 293.741 291.241 294.078C291.549 294.401 291.769 294.819 291.901 295.332C292.033 295.845 292.099 296.476 292.099 297.224V304ZM287.545 302.834C288.029 302.834 288.528 302.731 289.041 302.526C289.569 302.306 290.031 302.02 290.427 301.668V299.226C290.046 299.182 289.665 299.153 289.283 299.138C288.902 299.109 288.477 299.094 288.007 299.094C287.083 299.094 286.423 299.233 286.027 299.512C285.646 299.791 285.455 300.26 285.455 300.92C285.455 301.551 285.617 302.027 285.939 302.35C286.262 302.673 286.797 302.834 287.545 302.834ZM297.497 294.782V300.04C297.497 300.524 297.519 300.942 297.563 301.294C297.607 301.646 297.695 301.939 297.827 302.174C297.974 302.394 298.172 302.555 298.421 302.658C298.685 302.761 299.037 302.812 299.477 302.812C299.8 302.812 300.115 302.775 300.423 302.702C300.746 302.629 301.054 302.541 301.347 302.438L301.677 303.714C300.797 304.051 299.91 304.22 299.015 304.22C298.37 304.22 297.834 304.132 297.409 303.956C296.998 303.78 296.668 303.538 296.419 303.23C296.184 302.907 296.023 302.526 295.935 302.086C295.847 301.631 295.803 301.133 295.803 300.59V294.782H294.065V293.352H295.803V291.108L297.497 290.8V293.352H301.259V294.782H297.497ZM304.023 293.352H305.695V304H304.023V293.352ZM304.001 288.776H305.695V290.976H304.001V288.776ZM308.563 298.676C308.563 296.769 308.944 295.369 309.707 294.474C310.484 293.579 311.716 293.132 313.403 293.132C315.075 293.132 316.292 293.579 317.055 294.474C317.832 295.369 318.221 296.769 318.221 298.676C318.221 300.583 317.832 301.983 317.055 302.878C316.277 303.773 315.06 304.22 313.403 304.22C311.731 304.22 310.506 303.773 309.729 302.878C308.951 301.983 308.563 300.583 308.563 298.676ZM310.257 298.676C310.257 300.128 310.506 301.184 311.005 301.844C311.503 302.489 312.303 302.812 313.403 302.812C314.503 302.812 315.302 302.489 315.801 301.844C316.299 301.184 316.549 300.128 316.549 298.676C316.549 297.253 316.299 296.212 315.801 295.552C315.302 294.892 314.503 294.562 313.403 294.562C312.303 294.562 311.503 294.892 311.005 295.552C310.506 296.212 310.257 297.253 310.257 298.676ZM322.406 294.43C322.904 294.034 323.454 293.719 324.056 293.484C324.657 293.249 325.288 293.132 325.948 293.132C327.18 293.132 328.06 293.433 328.588 294.034C329.13 294.621 329.402 295.581 329.402 296.916V304H327.73V297.378C327.73 296.322 327.554 295.589 327.202 295.178C326.864 294.767 326.336 294.562 325.618 294.562C324.591 294.562 323.564 294.936 322.538 295.684V304H320.866V293.352H322.12L322.406 294.43ZM334.098 304.352H332.14V302.482H334.098V304.352Z" fill="#4A4946"/>
</svg>
