<svg width="48" height="48" viewBox="0 0 48 48" fill="none" xmlns="http://www.w3.org/2000/svg">
<path d="M40.5684 24.1121V24.4851C40.5291 26.1328 40.2329 27.7195 39.7251 29.2133L39.5916 29.6063L39.9532 29.8099L42.7328 31.3748L39.9747 36.0334L37.2348 34.4908L36.8802 34.2912L36.6127 34.5978C34.2394 37.318 30.9619 39.2667 27.2305 39.9946L26.8262 40.0734V40.4853V43.5H21.2909V40.5249V40.1077L20.8804 40.033C17.0082 39.3284 13.6081 37.3196 11.1828 34.4911L10.9205 34.1852L10.5658 34.3765L7.85529 35.8387L5.18681 31.1304L7.88097 29.6781L8.25052 29.4788L8.11824 29.0804C7.59845 27.5147 7.31665 25.8446 7.31665 24.1099C7.31665 22.2389 7.6443 20.4451 8.24286 18.7747L8.38525 18.3773L8.01734 18.1702L5.26722 16.6229L8.02314 11.9666L10.8194 13.54L11.1684 13.7364L11.4363 13.4387C13.8206 10.7888 17.0742 8.90196 20.7664 8.20604L21.1738 8.12926V7.71469V4.5H26.7091V7.71689V8.13158L27.1166 8.20827C30.894 8.9191 34.2131 10.8785 36.6105 13.6264L36.873 13.9274L37.2245 13.7378L40.1447 12.1634L42.8132 16.8717L39.9591 18.4098L39.5866 18.6106L39.723 19.0111C40.2692 20.6159 40.5684 22.3287 40.5684 24.1121Z" stroke="#F0ECE4" stroke-linecap="round"/>
<path d="M34.3327 23.9999C34.3327 29.9872 29.6865 34.8043 23.9994 34.8043C18.3122 34.8043 13.666 29.9872 13.666 23.9999C13.666 18.0126 18.3122 13.1956 23.9994 13.1956C29.6865 13.1956 34.3327 18.0126 34.3327 23.9999Z" stroke="#F0ECE4" stroke-linecap="round"/>
<path d="M24.4666 29.4545H23.5723V28.0909H24.4666V29.4545ZM24.4804 27.1818H23.5726L23.5725 18.5454H24.4804V27.1818Z" fill="white"/>
</svg>
