<svg width="1680" height="830" viewBox="0 0 1680 830" fill="none" xmlns="http://www.w3.org/2000/svg">
<rect width="1680" height="830" fill="#262626"/>
<path d="M332.334 380.589H313.485V283.46H279.864V266.479H366.125V283.46H332.334V380.589ZM378.895 284.988V266.479H397.744V284.988H378.895ZM378.895 380.589V297.723H397.744V380.589H378.895ZM410.449 297.723H423.014V276.667H441.863V297.723H461.73V314.195H441.863V358.005C441.863 363.438 443.901 364.627 449.504 364.627H461.73V380.589H447.467C434.391 380.589 423.014 374.815 423.014 359.703V314.195H410.449V297.723ZM496.716 382.287C483.641 382.287 475.32 377.023 475.32 362.929V266.479H494.169V359.703C494.169 365.136 495.867 366.325 500.791 366.325H504.017V382.287H496.716ZM592.574 356.476C586.97 373.117 571.518 382.966 553.179 382.966C529.236 382.966 510.727 365.476 510.727 338.986C510.727 312.836 529.236 295.516 552.67 295.516C573.556 295.516 594.102 309.949 594.102 339.326V344.59H529.576C530.934 361.061 538.066 366.325 553.179 366.325C564.726 366.325 570.329 363.608 573.726 356.476H592.574ZM529.916 330.666H575.593C574.065 317.251 567.273 311.987 552.67 311.987C538.915 311.987 531.783 316.742 529.916 330.666Z" fill="#F7F3EB"/>
<path d="M305.542 571.156C309.927 571.156 313.23 570.221 315.452 568.35C317.673 566.421 318.784 563.761 318.784 560.37C318.784 556.687 317.702 553.881 315.539 551.952C313.435 549.964 310.19 548.97 305.805 548.97H291.512V571.156H305.542ZM316.942 533.536C316.942 526.989 313.201 523.715 305.718 523.715H291.512V543.446H305.279C309.313 543.446 312.265 542.569 314.136 540.815C316.007 539.003 316.942 536.576 316.942 533.536ZM323.695 532.66C323.695 536.167 322.905 539.032 321.327 541.253C319.807 543.416 317.732 544.936 315.101 545.813C318.492 546.749 321.064 548.444 322.818 550.9C324.63 553.355 325.536 556.512 325.536 560.37C325.536 565.69 323.782 569.783 320.275 572.647C316.825 575.453 312.09 576.856 306.069 576.856H284.759V517.927H305.542C311.389 517.927 315.861 519.213 318.959 521.786C322.116 524.3 323.695 527.924 323.695 532.66ZM334.186 555.635C334.186 548.035 335.706 542.452 338.746 538.886C341.844 535.32 346.755 533.536 353.478 533.536C360.142 533.536 364.995 535.32 368.035 538.886C371.133 542.452 372.682 548.035 372.682 555.635C372.682 563.235 371.133 568.818 368.035 572.384C364.936 575.95 360.084 577.733 353.478 577.733C346.813 577.733 341.932 575.95 338.833 572.384C335.735 568.818 334.186 563.235 334.186 555.635ZM340.938 555.635C340.938 561.423 341.932 565.632 343.919 568.263C345.907 570.835 349.093 572.121 353.478 572.121C357.862 572.121 361.049 570.835 363.036 568.263C365.024 565.632 366.018 561.423 366.018 555.635C366.018 549.964 365.024 545.813 363.036 543.183C361.049 540.552 357.862 539.236 353.478 539.236C349.093 539.236 345.907 540.552 343.919 543.183C341.932 545.813 340.938 549.964 340.938 555.635ZM416.461 514.946V576.856H411.462L410.41 573.261C408.89 574.664 407.107 575.775 405.061 576.593C403.015 577.353 400.764 577.733 398.308 577.733C392.521 577.733 388.165 575.95 385.242 572.384C382.319 568.818 380.858 563.235 380.858 555.635C380.858 548.093 382.261 542.54 385.067 538.973C387.932 535.349 392.112 533.536 397.607 533.536C400.062 533.536 402.313 533.916 404.359 534.676C406.464 535.436 408.247 536.489 409.708 537.833V515.823L416.461 514.946ZM399.361 572.209C401.407 572.209 403.307 571.8 405.061 570.981C406.873 570.163 408.422 569.052 409.708 567.649V543.709C408.422 542.306 406.873 541.195 405.061 540.376C403.307 539.558 401.407 539.149 399.361 539.149C395.327 539.149 392.345 540.435 390.416 543.007C388.545 545.58 387.61 549.789 387.61 555.635C387.61 561.54 388.545 565.778 390.416 568.35C392.345 570.923 395.327 572.209 399.361 572.209ZM423.955 534.413H430.97L443.247 567.649H443.51L454.998 534.413H461.926L444.738 582.293C443.861 584.866 442.897 587 441.844 588.695C440.792 590.449 439.593 591.852 438.249 592.904C436.963 594.015 435.472 594.804 433.777 595.272C432.14 595.74 430.24 595.973 428.077 595.973C426.44 595.973 425.153 595.798 424.218 595.447L425.183 589.923C426.118 590.156 427.258 590.273 428.603 590.273C429.83 590.273 430.912 590.069 431.847 589.66C432.841 589.25 433.689 588.724 434.39 588.081C435.15 587.438 435.793 586.707 436.32 585.889C436.846 585.07 437.284 584.223 437.635 583.346L440.266 576.33L423.955 534.413ZM511.927 572.121C516.019 572.121 519.673 571.098 522.888 569.052L524.818 574.401C523.122 575.395 521.164 576.213 518.942 576.856C516.779 577.441 514.441 577.733 511.927 577.733C504.97 577.733 499.884 576.009 496.668 572.56C493.453 569.052 491.845 563.41 491.845 555.635C491.845 548.035 493.394 542.452 496.493 538.886C499.591 535.32 504.444 533.536 511.05 533.536C516.721 533.536 521.368 535.261 524.993 538.71L521.31 543.27C520.024 541.984 518.504 540.99 516.75 540.289C515.054 539.529 513.213 539.149 511.225 539.149C507.016 539.149 503.83 540.435 501.667 543.007C499.562 545.521 498.51 549.73 498.51 555.635C498.51 561.54 499.621 565.778 501.842 568.35C504.064 570.864 507.425 572.121 511.927 572.121ZM529.609 555.635C529.609 548.035 531.129 542.452 534.169 538.886C537.268 535.32 542.178 533.536 548.901 533.536C555.566 533.536 560.418 535.32 563.458 538.886C566.557 542.452 568.106 548.035 568.106 555.635C568.106 563.235 566.557 568.818 563.458 572.384C560.36 575.95 555.508 577.733 548.901 577.733C542.237 577.733 537.355 575.95 534.257 572.384C531.158 568.818 529.609 563.235 529.609 555.635ZM536.361 555.635C536.361 561.423 537.355 565.632 539.343 568.263C541.331 570.835 544.517 572.121 548.901 572.121C553.286 572.121 556.472 570.835 558.46 568.263C560.448 565.632 561.441 561.423 561.441 555.635C561.441 549.964 560.448 545.813 558.46 543.183C556.472 540.552 553.286 539.236 548.901 539.236C544.517 539.236 541.331 540.552 539.343 543.183C537.355 545.813 536.361 549.964 536.361 555.635ZM583.297 534.413L584.437 538.096C585.957 536.693 587.71 535.583 589.698 534.764C591.744 533.946 593.995 533.536 596.45 533.536C602.238 533.536 606.594 535.349 609.517 538.973C612.44 542.54 613.901 548.093 613.901 555.635C613.901 563.235 612.469 568.818 609.604 572.384C606.798 575.95 602.647 577.733 597.152 577.733C594.814 577.733 592.563 577.383 590.4 576.681C588.237 575.921 586.454 574.869 585.05 573.524V595.096H578.298V534.413H583.297ZM595.398 539.149C593.352 539.149 591.423 539.558 589.61 540.376C587.857 541.195 586.337 542.306 585.05 543.709V567.649C586.337 569.052 587.857 570.163 589.61 570.981C591.423 571.8 593.352 572.209 595.398 572.209C599.432 572.209 602.414 570.923 604.343 568.35C606.272 565.778 607.237 561.54 607.237 555.635C607.237 549.789 606.272 545.58 604.343 543.007C602.414 540.435 599.432 539.149 595.398 539.149ZM618.351 534.413H625.366L637.643 567.649H637.906L649.394 534.413H656.322L639.134 582.293C638.257 584.866 637.292 587 636.24 588.695C635.188 590.449 633.989 591.852 632.645 592.904C631.359 594.015 629.868 594.804 628.172 595.272C626.535 595.74 624.635 595.973 622.472 595.973C620.835 595.973 619.549 595.798 618.614 595.447L619.579 589.923C620.514 590.156 621.654 590.273 622.999 590.273C624.226 590.273 625.308 590.069 626.243 589.66C627.237 589.25 628.085 588.724 628.786 588.081C629.546 587.438 630.189 586.707 630.715 585.889C631.242 585.07 631.68 584.223 632.031 583.346L634.662 576.33L618.351 534.413Z" fill="#F7F3EB"/>
<path d="M1092.28 275.21V276.59H1083.84V262.326H1085.47V275.21H1092.28ZM1099.63 275.422C1100.19 275.422 1100.74 275.387 1101.26 275.316C1101.8 275.231 1102.31 275.111 1102.79 274.955V270.668H1099.14V269.288H1104.4V275.889C1103.76 276.13 1103.01 276.342 1102.15 276.526C1101.29 276.71 1100.43 276.802 1099.58 276.802C1098.41 276.802 1097.4 276.646 1096.57 276.335C1095.75 276.01 1095.08 275.543 1094.55 274.934C1094.03 274.312 1093.65 273.547 1093.41 272.642C1093.18 271.722 1093.07 270.661 1093.07 269.458C1093.07 266.939 1093.58 265.085 1094.62 263.897C1095.66 262.708 1097.21 262.114 1099.24 262.114C1100.39 262.114 1101.38 262.291 1102.22 262.644C1103.05 262.984 1103.74 263.451 1104.3 264.045L1103.32 265.149C1102.8 264.597 1102.21 264.187 1101.56 263.918C1100.91 263.649 1100.14 263.515 1099.24 263.515C1097.73 263.515 1096.59 263.996 1095.83 264.958C1095.08 265.906 1094.7 267.406 1094.7 269.458C1094.7 271.496 1095.08 273.003 1095.85 273.979C1096.61 274.941 1097.87 275.422 1099.63 275.422ZM1122.49 275.21V276.59H1113.73V262.326H1122.28V263.727H1115.36V268.46H1122.03V269.84H1115.36V275.21H1122.49ZM1125.69 262.326H1127.33V276.59H1125.69V262.326ZM1147.83 262.326V276.59H1146.18V269.819H1138.58V276.59H1136.94V262.326H1138.58V268.418H1146.18V262.326H1147.83ZM1155.13 276.802C1153.46 276.802 1152.27 276.371 1151.56 275.507C1150.87 274.63 1150.52 273.279 1150.52 271.453C1150.52 269.614 1150.88 268.262 1151.58 267.399C1152.29 266.536 1153.37 266.104 1154.83 266.104C1156.29 266.104 1157.37 266.529 1158.08 267.378C1158.79 268.213 1159.14 269.543 1159.14 271.368V272.048H1152.18C1152.23 273.264 1152.5 274.135 1152.96 274.658C1153.43 275.182 1154.16 275.444 1155.15 275.444C1155.74 275.444 1156.32 275.359 1156.89 275.189C1157.47 275.005 1158.01 274.757 1158.5 274.446L1159.03 275.741C1158.5 276.066 1157.89 276.328 1157.21 276.526C1156.54 276.71 1155.85 276.802 1155.13 276.802ZM1157.48 270.732C1157.41 269.628 1157.17 268.814 1156.74 268.291C1156.32 267.753 1155.68 267.484 1154.83 267.484C1153.98 267.484 1153.35 267.753 1152.92 268.291C1152.5 268.814 1152.25 269.628 1152.18 270.732H1157.48ZM1169.1 276.59H1167.89L1167.63 275.635C1167.21 276.003 1166.7 276.293 1166.12 276.505C1165.56 276.703 1164.94 276.802 1164.26 276.802C1163.19 276.802 1162.4 276.533 1161.86 275.996C1161.33 275.444 1161.07 274.658 1161.07 273.639C1161.07 272.592 1161.4 271.821 1162.05 271.326C1162.7 270.816 1163.79 270.562 1165.32 270.562C1165.77 270.562 1166.17 270.569 1166.51 270.583C1166.86 270.597 1167.19 270.625 1167.48 270.668V270.095C1167.48 269.147 1167.3 268.475 1166.93 268.078C1166.56 267.668 1165.91 267.463 1164.98 267.463C1164.54 267.463 1164.06 267.541 1163.53 267.696C1163.02 267.838 1162.51 268.05 1161.98 268.333L1161.5 267.102C1162.06 266.791 1162.66 266.55 1163.3 266.38C1163.94 266.196 1164.6 266.104 1165.27 266.104C1166 266.104 1166.6 266.175 1167.08 266.317C1167.57 266.458 1167.97 266.692 1168.27 267.017C1168.56 267.328 1168.78 267.732 1168.9 268.227C1169.03 268.722 1169.1 269.331 1169.1 270.052V276.59ZM1164.7 275.465C1165.17 275.465 1165.65 275.366 1166.14 275.168C1166.65 274.955 1167.1 274.68 1167.48 274.34V271.984C1167.11 271.941 1166.75 271.913 1166.38 271.899C1166.01 271.871 1165.6 271.856 1165.15 271.856C1164.26 271.856 1163.62 271.991 1163.24 272.26C1162.87 272.529 1162.69 272.981 1162.69 273.618C1162.69 274.227 1162.84 274.687 1163.15 274.998C1163.46 275.309 1163.98 275.465 1164.7 275.465ZM1180.06 261.604V276.59H1178.85L1178.59 275.72C1178.22 276.059 1177.79 276.328 1177.3 276.526C1176.8 276.71 1176.26 276.802 1175.66 276.802C1174.26 276.802 1173.21 276.371 1172.5 275.507C1171.79 274.644 1171.44 273.293 1171.44 271.453C1171.44 269.628 1171.78 268.283 1172.46 267.42C1173.15 266.543 1174.16 266.104 1175.49 266.104C1176.09 266.104 1176.63 266.196 1177.13 266.38C1177.64 266.564 1178.07 266.819 1178.42 267.144V261.817L1180.06 261.604ZM1175.92 275.465C1176.41 275.465 1176.87 275.366 1177.3 275.168C1177.73 274.97 1178.11 274.701 1178.42 274.361V268.566C1178.11 268.227 1177.73 267.958 1177.3 267.76C1176.87 267.562 1176.41 267.463 1175.92 267.463C1174.94 267.463 1174.22 267.774 1173.75 268.397C1173.3 269.019 1173.07 270.038 1173.07 271.453C1173.07 272.882 1173.3 273.908 1173.75 274.531C1174.22 275.154 1174.94 275.465 1175.92 275.465ZM1185.88 276.738C1185.81 276.767 1185.71 276.781 1185.58 276.781C1185.46 276.795 1185.35 276.802 1185.27 276.802C1184.54 276.802 1184.02 276.59 1183.69 276.165C1183.38 275.727 1183.23 275.062 1183.23 274.17V261.859L1184.84 261.604V273.937C1184.84 274.262 1184.86 274.524 1184.88 274.722C1184.91 274.92 1184.96 275.076 1185.03 275.189C1185.12 275.302 1185.22 275.38 1185.35 275.422C1185.49 275.451 1185.67 275.465 1185.88 275.465V276.738ZM1188.39 266.317H1190V276.59H1188.39V266.317ZM1188.37 261.902H1190V264.024H1188.37V261.902ZM1194.66 267.357C1195.14 266.975 1195.67 266.67 1196.25 266.444C1196.83 266.218 1197.44 266.104 1198.08 266.104C1199.26 266.104 1200.11 266.394 1200.62 266.975C1201.15 267.541 1201.41 268.467 1201.41 269.755V276.59H1199.79V270.201C1199.79 269.182 1199.62 268.475 1199.29 268.078C1198.96 267.682 1198.45 267.484 1197.76 267.484C1196.77 267.484 1195.78 267.845 1194.79 268.566V276.59H1193.17V266.317H1194.38L1194.66 267.357ZM1208.36 276.802C1206.69 276.802 1205.5 276.371 1204.79 275.507C1204.1 274.63 1203.75 273.279 1203.75 271.453C1203.75 269.614 1204.11 268.262 1204.81 267.399C1205.52 266.536 1206.6 266.104 1208.06 266.104C1209.52 266.104 1210.6 266.529 1211.31 267.378C1212.02 268.213 1212.37 269.543 1212.37 271.368V272.048H1205.41C1205.47 273.264 1205.73 274.135 1206.19 274.658C1206.66 275.182 1207.39 275.444 1208.38 275.444C1208.97 275.444 1209.55 275.359 1210.12 275.189C1210.7 275.005 1211.24 274.757 1211.73 274.446L1212.26 275.741C1211.73 276.066 1211.12 276.328 1210.44 276.526C1209.77 276.71 1209.08 276.802 1208.36 276.802ZM1210.72 270.732C1210.64 269.628 1210.4 268.814 1209.97 268.291C1209.55 267.753 1208.91 267.484 1208.06 267.484C1207.21 267.484 1206.58 267.753 1206.15 268.291C1205.73 268.814 1205.48 269.628 1205.41 270.732H1210.72ZM1089.06 299.689V303.191H1087.57V299.689H1083.94V298.288H1087.57V294.807H1089.06V298.288H1092.73V299.689H1089.06ZM1099.46 305.59V293.024L1095.87 295.444L1095.06 294.234L1099.46 291.326H1101.11V305.59H1099.46ZM1107.47 306.227H1105.94L1116.28 290.604H1117.79L1107.47 306.227ZM1104.71 294.892C1104.71 293.604 1104.96 292.649 1105.46 292.027C1105.95 291.39 1106.67 291.071 1107.6 291.071C1108.53 291.071 1109.25 291.39 1109.74 292.027C1110.24 292.649 1110.49 293.604 1110.49 294.892C1110.49 296.18 1110.24 297.142 1109.74 297.779C1109.25 298.416 1108.53 298.734 1107.6 298.734C1106.67 298.734 1105.95 298.416 1105.46 297.779C1104.96 297.142 1104.71 296.18 1104.71 294.892ZM1106.18 294.892C1106.18 296.618 1106.65 297.482 1107.6 297.482C1108.55 297.482 1109.02 296.618 1109.02 294.892C1109.02 293.166 1108.55 292.302 1107.6 292.302C1106.65 292.302 1106.18 293.166 1106.18 294.892ZM1113.31 301.918C1113.31 300.63 1113.56 299.675 1114.05 299.052C1114.55 298.416 1115.26 298.097 1116.2 298.097C1117.13 298.097 1117.84 298.416 1118.34 299.052C1118.84 299.675 1119.08 300.63 1119.08 301.918C1119.08 303.205 1118.84 304.168 1118.34 304.804C1117.84 305.427 1117.13 305.738 1116.2 305.738C1115.26 305.738 1114.55 305.427 1114.05 304.804C1113.56 304.168 1113.31 303.205 1113.31 301.918ZM1114.77 301.918C1114.77 303.644 1115.25 304.507 1116.2 304.507C1117.14 304.507 1117.62 303.644 1117.62 301.918C1117.62 300.191 1117.14 299.328 1116.2 299.328C1115.25 299.328 1114.77 300.191 1114.77 301.918ZM1129.78 296.696V301.769C1129.78 302.236 1129.8 302.639 1129.84 302.979C1129.88 303.319 1129.97 303.602 1130.1 303.828C1130.24 304.04 1130.43 304.196 1130.67 304.295C1130.92 304.394 1131.26 304.444 1131.69 304.444C1132 304.444 1132.3 304.408 1132.6 304.338C1132.91 304.267 1133.21 304.182 1133.49 304.083L1133.81 305.314C1132.96 305.639 1132.1 305.802 1131.24 305.802C1130.62 305.802 1130.1 305.717 1129.69 305.547C1129.3 305.378 1128.98 305.144 1128.74 304.847C1128.51 304.536 1128.35 304.168 1128.27 303.743C1128.18 303.305 1128.14 302.823 1128.14 302.3V296.696H1126.47V295.317H1128.14V293.152L1129.78 292.854V295.317H1133.41V296.696H1129.78ZM1136.99 295.317L1137.18 296.675C1137.64 296.166 1138.17 295.776 1138.75 295.508C1139.33 295.239 1139.92 295.104 1140.51 295.104C1140.75 295.104 1140.96 295.126 1141.13 295.168C1141.31 295.196 1141.5 295.246 1141.7 295.317V296.76C1141.27 296.59 1140.83 296.505 1140.36 296.505C1139.82 296.505 1139.29 296.654 1138.75 296.951C1138.21 297.248 1137.75 297.623 1137.37 298.076V305.59H1135.75V295.317H1136.99ZM1150.61 305.59H1149.4L1149.14 304.635C1148.72 305.003 1148.21 305.293 1147.63 305.505C1147.07 305.703 1146.45 305.802 1145.77 305.802C1144.7 305.802 1143.91 305.533 1143.37 304.996C1142.84 304.444 1142.58 303.658 1142.58 302.639C1142.58 301.592 1142.91 300.821 1143.56 300.326C1144.21 299.816 1145.3 299.562 1146.83 299.562C1147.28 299.562 1147.68 299.569 1148.02 299.583C1148.37 299.597 1148.7 299.625 1148.99 299.668V299.095C1148.99 298.147 1148.81 297.475 1148.44 297.078C1148.07 296.668 1147.42 296.463 1146.49 296.463C1146.05 296.463 1145.57 296.541 1145.04 296.696C1144.54 296.838 1144.02 297.05 1143.5 297.333L1143.01 296.102C1143.57 295.791 1144.17 295.55 1144.81 295.38C1145.45 295.196 1146.11 295.104 1146.79 295.104C1147.51 295.104 1148.11 295.175 1148.59 295.317C1149.08 295.458 1149.48 295.692 1149.78 296.017C1150.08 296.328 1150.29 296.732 1150.41 297.227C1150.54 297.722 1150.61 298.331 1150.61 299.052V305.59ZM1146.21 304.465C1146.68 304.465 1147.16 304.366 1147.66 304.168C1148.16 303.955 1148.61 303.68 1148.99 303.34V300.984C1148.62 300.941 1148.26 300.913 1147.89 300.899C1147.52 300.871 1147.11 300.856 1146.66 300.856C1145.77 300.856 1145.13 300.991 1144.75 301.26C1144.38 301.529 1144.2 301.981 1144.2 302.618C1144.2 303.227 1144.35 303.687 1144.66 303.998C1144.97 304.309 1145.49 304.465 1146.21 304.465ZM1157.83 304.444C1158.82 304.444 1159.7 304.196 1160.48 303.701L1160.95 304.996C1160.54 305.236 1160.07 305.434 1159.53 305.59C1159 305.731 1158.44 305.802 1157.83 305.802C1156.15 305.802 1154.91 305.385 1154.14 304.55C1153.36 303.701 1152.97 302.335 1152.97 300.453C1152.97 298.614 1153.34 297.262 1154.09 296.399C1154.84 295.536 1156.02 295.104 1157.62 295.104C1158.99 295.104 1160.12 295.522 1160.99 296.357L1160.1 297.46C1159.79 297.149 1159.42 296.908 1159 296.739C1158.59 296.555 1158.14 296.463 1157.66 296.463C1156.64 296.463 1155.87 296.774 1155.35 297.397C1154.84 298.005 1154.58 299.024 1154.58 300.453C1154.58 301.882 1154.85 302.908 1155.39 303.531C1155.93 304.139 1156.74 304.444 1157.83 304.444ZM1163.14 305.59V290.817L1164.77 290.604V299.328H1165.77L1169.61 295.317H1171.58L1167.06 300.029L1171.71 305.59H1169.74L1165.75 300.708H1164.77V305.59H1163.14ZM1173.67 295.317H1175.29V305.59H1173.67V295.317ZM1173.65 290.902H1175.29V293.024H1173.65V290.902ZM1179.94 296.357C1180.42 295.975 1180.95 295.67 1181.53 295.444C1182.11 295.218 1182.72 295.104 1183.36 295.104C1184.55 295.104 1185.4 295.394 1185.91 295.975C1186.43 296.541 1186.69 297.467 1186.69 298.755V305.59H1185.08V299.201C1185.08 298.182 1184.91 297.475 1184.57 297.078C1184.24 296.682 1183.73 296.484 1183.04 296.484C1182.05 296.484 1181.06 296.845 1180.07 297.566V305.59H1178.46V295.317H1179.67L1179.94 296.357ZM1197.65 295.317V305.717C1197.65 307.288 1197.27 308.427 1196.51 309.135C1195.76 309.856 1194.63 310.217 1193.13 310.217C1192.54 310.217 1191.97 310.168 1191.43 310.068C1190.9 309.984 1190.42 309.863 1190.01 309.708L1190.35 308.37C1191.16 308.682 1192.08 308.837 1193.11 308.837C1194.13 308.837 1194.87 308.604 1195.32 308.137C1195.79 307.67 1196.02 306.906 1196.02 305.845V304.783C1195.67 305.109 1195.23 305.363 1194.72 305.547C1194.23 305.717 1193.68 305.802 1193.09 305.802C1191.76 305.802 1190.75 305.371 1190.05 304.507C1189.38 303.644 1189.04 302.293 1189.04 300.453C1189.04 298.628 1189.39 297.283 1190.1 296.42C1190.8 295.543 1191.86 295.104 1193.26 295.104C1193.85 295.104 1194.4 295.203 1194.89 295.401C1195.39 295.6 1195.82 295.868 1196.19 296.208L1196.44 295.317H1197.65ZM1193.51 296.463C1192.54 296.463 1191.82 296.774 1191.35 297.397C1190.9 298.019 1190.67 299.038 1190.67 300.453C1190.67 301.882 1190.9 302.908 1191.35 303.531C1191.82 304.154 1192.54 304.465 1193.51 304.465C1194.01 304.465 1194.47 304.366 1194.89 304.168C1195.33 303.97 1195.71 303.701 1196.02 303.361V297.566C1195.71 297.227 1195.33 296.958 1194.89 296.76C1194.47 296.562 1194.01 296.463 1193.51 296.463Z" fill="#F7F3EB"/>
<path d="M1092.28 502.325V503.705H1083.84V489.441H1085.47V502.325H1092.28ZM1099.63 502.538C1100.19 502.538 1100.74 502.502 1101.26 502.432C1101.8 502.347 1102.31 502.226 1102.79 502.071V497.783H1099.14V496.403H1104.4V503.005C1103.76 503.245 1103.01 503.457 1102.15 503.641C1101.29 503.825 1100.43 503.917 1099.58 503.917C1098.41 503.917 1097.4 503.762 1096.57 503.45C1095.75 503.125 1095.08 502.658 1094.55 502.049C1094.03 501.427 1093.65 500.663 1093.41 499.757C1093.18 498.837 1093.07 497.776 1093.07 496.573C1093.07 494.054 1093.58 492.201 1094.62 491.012C1095.66 489.823 1097.21 489.229 1099.24 489.229C1100.39 489.229 1101.38 489.406 1102.22 489.76C1103.05 490.099 1103.74 490.566 1104.3 491.161L1103.32 492.264C1102.8 491.713 1102.21 491.302 1101.56 491.033C1100.91 490.764 1100.14 490.63 1099.24 490.63C1097.73 490.63 1096.59 491.111 1095.83 492.073C1095.08 493.021 1094.7 494.521 1094.7 496.573C1094.7 498.611 1095.08 500.118 1095.85 501.094C1096.61 502.057 1097.87 502.538 1099.63 502.538ZM1122.49 502.325V503.705H1113.73V489.441H1122.28V490.842H1115.36V495.576H1122.03V496.955H1115.36V502.325H1122.49ZM1125.69 489.441H1127.33V503.705H1125.69V489.441ZM1146.01 489.441V490.821H1141.61V503.705H1139.98V490.821H1135.61V489.441H1146.01ZM1150.28 503.917C1148.61 503.917 1147.42 503.486 1146.71 502.623C1146.02 501.745 1145.67 500.394 1145.67 498.568C1145.67 496.729 1146.03 495.377 1146.73 494.514C1147.44 493.651 1148.52 493.22 1149.98 493.22C1151.44 493.22 1152.52 493.644 1153.23 494.493C1153.94 495.328 1154.29 496.658 1154.29 498.484V499.163H1147.33C1147.38 500.38 1147.65 501.25 1148.11 501.774C1148.58 502.297 1149.31 502.559 1150.3 502.559C1150.89 502.559 1151.47 502.474 1152.04 502.304C1152.62 502.12 1153.16 501.873 1153.65 501.561L1154.18 502.856C1153.65 503.182 1153.04 503.443 1152.36 503.641C1151.69 503.825 1151 503.917 1150.28 503.917ZM1152.63 497.847C1152.56 496.743 1152.32 495.929 1151.89 495.406C1151.47 494.868 1150.83 494.599 1149.98 494.599C1149.13 494.599 1148.5 494.868 1148.07 495.406C1147.65 495.929 1147.4 496.743 1147.33 497.847H1152.63ZM1160.22 499.736H1160.15L1157.39 503.705H1155.53L1159.26 498.462L1155.65 493.432H1157.52L1160.15 497.252H1160.22L1162.87 493.432H1164.74L1161.13 498.462L1164.85 503.705H1162.98L1160.22 499.736ZM1169.1 494.811V499.884C1169.1 500.351 1169.12 500.755 1169.16 501.094C1169.2 501.434 1169.29 501.717 1169.42 501.943C1169.56 502.156 1169.75 502.311 1169.99 502.41C1170.24 502.509 1170.58 502.559 1171.01 502.559C1171.32 502.559 1171.62 502.524 1171.92 502.453C1172.23 502.382 1172.53 502.297 1172.81 502.198L1173.13 503.429C1172.28 503.755 1171.43 503.917 1170.56 503.917C1169.94 503.917 1169.42 503.832 1169.01 503.663C1168.62 503.493 1168.3 503.259 1168.06 502.962C1167.83 502.651 1167.68 502.283 1167.59 501.858C1167.51 501.42 1167.46 500.939 1167.46 500.415V494.811H1165.79V493.432H1167.46V491.267L1169.1 490.97V493.432H1172.73V494.811H1169.1ZM1083.39 525.594C1083.39 524.335 1083.5 523.245 1083.73 522.326C1083.97 521.392 1084.31 520.628 1084.75 520.033C1085.19 519.425 1085.72 518.972 1086.34 518.675C1086.96 518.378 1087.66 518.229 1088.42 518.229C1089.2 518.229 1089.9 518.378 1090.52 518.675C1091.15 518.972 1091.68 519.425 1092.11 520.033C1092.55 520.628 1092.89 521.392 1093.11 522.326C1093.35 523.245 1093.47 524.335 1093.47 525.594C1093.47 526.854 1093.35 527.943 1093.11 528.863C1092.89 529.769 1092.55 530.526 1092.11 531.134C1091.68 531.743 1091.15 532.196 1090.52 532.493C1089.9 532.776 1089.2 532.917 1088.42 532.917C1086.88 532.917 1085.65 532.323 1084.75 531.134C1083.84 529.946 1083.39 528.099 1083.39 525.594ZM1085.03 525.594C1085.03 527.561 1085.32 529.047 1085.92 530.052C1086.53 531.057 1087.36 531.559 1088.42 531.559C1089.48 531.559 1090.32 531.057 1090.93 530.052C1091.53 529.047 1091.84 527.561 1091.84 525.594C1091.84 523.628 1091.53 522.142 1090.93 521.137C1090.32 520.118 1089.48 519.609 1088.42 519.609C1087.36 519.609 1086.53 520.118 1085.92 521.137C1085.32 522.142 1085.03 523.628 1085.03 525.594ZM1098.5 533.342H1096.97L1107.31 517.72H1108.81L1098.5 533.342ZM1095.74 522.007C1095.74 520.72 1095.99 519.764 1096.48 519.142C1096.98 518.505 1097.69 518.187 1098.62 518.187C1099.56 518.187 1100.27 518.505 1100.77 519.142C1101.26 519.764 1101.51 520.72 1101.51 522.007C1101.51 523.295 1101.26 524.257 1100.77 524.894C1100.27 525.531 1099.56 525.849 1098.62 525.849C1097.69 525.849 1096.98 525.531 1096.48 524.894C1095.99 524.257 1095.74 523.295 1095.74 522.007ZM1097.2 522.007C1097.2 523.734 1097.68 524.597 1098.62 524.597C1099.57 524.597 1100.05 523.734 1100.05 522.007C1100.05 520.281 1099.57 519.418 1098.62 519.418C1097.68 519.418 1097.2 520.281 1097.2 522.007ZM1104.33 529.033C1104.33 527.745 1104.58 526.79 1105.08 526.168C1105.57 525.531 1106.29 525.212 1107.22 525.212C1108.15 525.212 1108.87 525.531 1109.36 526.168C1109.86 526.79 1110.11 527.745 1110.11 529.033C1110.11 530.321 1109.86 531.283 1109.36 531.92C1108.87 532.542 1108.15 532.854 1107.22 532.854C1106.29 532.854 1105.57 532.542 1105.08 531.92C1104.58 531.283 1104.33 530.321 1104.33 529.033ZM1105.8 529.033C1105.8 530.759 1106.27 531.623 1107.22 531.623C1108.17 531.623 1108.64 530.759 1108.64 529.033C1108.64 527.307 1108.17 526.443 1107.22 526.443C1106.27 526.443 1105.8 527.307 1105.8 529.033ZM1120.8 523.811V528.884C1120.8 529.351 1120.82 529.755 1120.87 530.094C1120.91 530.434 1120.99 530.717 1121.12 530.943C1121.26 531.156 1121.45 531.311 1121.69 531.41C1121.95 531.509 1122.29 531.559 1122.71 531.559C1123.02 531.559 1123.33 531.524 1123.62 531.453C1123.94 531.382 1124.23 531.297 1124.52 531.198L1124.83 532.429C1123.99 532.755 1123.13 532.917 1122.27 532.917C1121.64 532.917 1121.13 532.832 1120.72 532.663C1120.32 532.493 1120 532.259 1119.76 531.962C1119.53 531.651 1119.38 531.283 1119.29 530.858C1119.21 530.42 1119.17 529.939 1119.17 529.415V523.811H1117.49V522.432H1119.17V520.267L1120.8 519.97V522.432H1124.43V523.811H1120.8ZM1128.01 522.432L1128.2 523.79C1128.67 523.281 1129.19 522.892 1129.77 522.623C1130.35 522.354 1130.94 522.22 1131.53 522.22C1131.77 522.22 1131.98 522.241 1132.15 522.283C1132.33 522.312 1132.52 522.361 1132.72 522.432V523.875C1132.3 523.705 1131.85 523.62 1131.39 523.62C1130.85 523.62 1130.31 523.769 1129.77 524.066C1129.23 524.363 1128.77 524.738 1128.39 525.191V532.705H1126.78V522.432H1128.01ZM1141.63 532.705H1140.42L1140.17 531.75C1139.74 532.118 1139.24 532.408 1138.66 532.62C1138.09 532.818 1137.47 532.917 1136.79 532.917C1135.73 532.917 1134.93 532.648 1134.39 532.111C1133.87 531.559 1133.61 530.774 1133.61 529.755C1133.61 528.708 1133.93 527.936 1134.58 527.441C1135.23 526.932 1136.32 526.677 1137.85 526.677C1138.3 526.677 1138.7 526.684 1139.04 526.698C1139.39 526.712 1139.72 526.741 1140.02 526.783V526.21C1140.02 525.262 1139.83 524.59 1139.47 524.194C1139.1 523.783 1138.45 523.578 1137.51 523.578C1137.07 523.578 1136.59 523.656 1136.07 523.811C1135.56 523.953 1135.04 524.165 1134.52 524.448L1134.03 523.217C1134.6 522.906 1135.2 522.665 1135.84 522.495C1136.47 522.312 1137.13 522.22 1137.81 522.22C1138.53 522.22 1139.13 522.29 1139.61 522.432C1140.11 522.573 1140.51 522.807 1140.8 523.132C1141.1 523.444 1141.31 523.847 1141.44 524.342C1141.57 524.837 1141.63 525.446 1141.63 526.168V532.705ZM1137.24 531.58C1137.7 531.58 1138.18 531.481 1138.68 531.283C1139.19 531.071 1139.64 530.795 1140.02 530.455V528.099C1139.65 528.057 1139.28 528.028 1138.91 528.014C1138.55 527.986 1138.14 527.972 1137.68 527.972C1136.79 527.972 1136.15 528.106 1135.77 528.375C1135.4 528.644 1135.22 529.097 1135.22 529.733C1135.22 530.342 1135.38 530.802 1135.69 531.113C1136 531.424 1136.51 531.58 1137.24 531.58ZM1148.85 531.559C1149.85 531.559 1150.73 531.311 1151.51 530.816L1151.97 532.111C1151.56 532.351 1151.09 532.549 1150.55 532.705C1150.03 532.847 1149.46 532.917 1148.85 532.917C1147.17 532.917 1145.94 532.5 1145.16 531.665C1144.38 530.816 1143.99 529.45 1143.99 527.568C1143.99 525.729 1144.37 524.377 1145.12 523.514C1145.87 522.651 1147.04 522.22 1148.64 522.22C1150.01 522.22 1151.14 522.637 1152.02 523.472L1151.13 524.576C1150.81 524.264 1150.45 524.024 1150.02 523.854C1149.61 523.67 1149.17 523.578 1148.68 523.578C1147.67 523.578 1146.89 523.889 1146.37 524.512C1145.86 525.12 1145.61 526.139 1145.61 527.568C1145.61 528.998 1145.88 530.024 1146.41 530.646C1146.95 531.255 1147.76 531.559 1148.85 531.559ZM1154.16 532.705V517.932L1155.8 517.72V526.443H1156.79L1160.64 522.432H1162.61L1158.09 527.144L1162.74 532.705H1160.76L1156.77 527.823H1155.8V532.705H1154.16ZM1164.7 522.432H1166.31V532.705H1164.7V522.432ZM1164.68 518.017H1166.31V520.139H1164.68V518.017ZM1170.97 523.472C1171.45 523.09 1171.98 522.786 1172.56 522.559C1173.14 522.333 1173.75 522.22 1174.38 522.22C1175.57 522.22 1176.42 522.51 1176.93 523.09C1177.45 523.656 1177.72 524.583 1177.72 525.87V532.705H1176.1V526.316C1176.1 525.297 1175.93 524.59 1175.59 524.194C1175.27 523.797 1174.76 523.599 1174.06 523.599C1173.07 523.599 1172.08 523.96 1171.09 524.682V532.705H1169.48V522.432H1170.69L1170.97 523.472ZM1188.68 522.432V532.832C1188.68 534.403 1188.3 535.542 1187.53 536.25C1186.78 536.971 1185.66 537.332 1184.16 537.332C1183.56 537.332 1183 537.283 1182.46 537.184C1181.92 537.099 1181.45 536.979 1181.04 536.823L1181.38 535.486C1182.18 535.797 1183.1 535.953 1184.14 535.953C1185.15 535.953 1185.89 535.719 1186.34 535.252C1186.81 534.785 1187.04 534.021 1187.04 532.96V531.898C1186.69 532.224 1186.26 532.479 1185.75 532.663C1185.25 532.832 1184.71 532.917 1184.11 532.917C1182.78 532.917 1181.77 532.486 1181.08 531.623C1180.4 530.759 1180.06 529.408 1180.06 527.568C1180.06 525.743 1180.41 524.399 1181.12 523.536C1181.83 522.658 1182.88 522.22 1184.28 522.22C1184.88 522.22 1185.42 522.319 1185.92 522.517C1186.41 522.715 1186.85 522.984 1187.21 523.323L1187.47 522.432H1188.68ZM1184.54 523.578C1183.56 523.578 1182.84 523.889 1182.37 524.512C1181.92 525.135 1181.7 526.153 1181.7 527.568C1181.7 528.998 1181.92 530.024 1182.37 530.646C1182.84 531.269 1183.56 531.58 1184.54 531.58C1185.03 531.58 1185.49 531.481 1185.92 531.283C1186.36 531.085 1186.73 530.816 1187.04 530.476V524.682C1186.73 524.342 1186.36 524.073 1185.92 523.875C1185.49 523.677 1185.03 523.578 1184.54 523.578Z" fill="#F7F3EB"/>
<path opacity="0.5" d="M277.656 212.138L1402.34 212.138" stroke="#9E9E9E" stroke-width="0.849032"/>
<path opacity="0.5" d="M277.656 458.356L1402.34 458.357" stroke="#9E9E9E" stroke-width="0.849032"/>
</svg>
